<?xml version="1.0" encoding="UTF-8" standalone="no"?>
<!DOCTYPE svg PUBLIC "-//W3C//DTD SVG 1.1//EN"
 "http://www.w3.org/Graphics/SVG/1.1/DTD/svg11.dtd">
<!-- Generated by graphviz version 2.38.0 (20140413.2041)
 -->
<!-- Title: ADAS_MCU.ino Pages: 1 -->
<!--zoomable 252 -->
<svg id="main" version="1.1" xmlns="http://www.w3.org/2000/svg" xmlns:xlink="http://www.w3.org/1999/xlink" xml:space="preserve" onload="init(evt)">
<style type="text/css"><![CDATA[
.edge:hover path { stroke: red; }
.edge:hover polygon { stroke: red; fill: red; }
]]></style>
<script type="text/javascript"><![CDATA[
var edges = document.getElementsByTagName('g');
if (edges && edges.length) {
  for (var i=0;i<edges.length;i++) {
    if (edges[i].id.substr(0,4)=='edge') {
      edges[i].setAttribute('class','edge');
    }
  }
}
]]></script>
        <defs>
                <circle id="rim" cx="0" cy="0" r="7"/>
                <circle id="rim2" cx="0" cy="0" r="3.5"/>
                <g id="zoomPlus">
                        <use xlink:href="#rim" fill="#404040">
                                <set attributeName="fill" to="#808080" begin="zoomplus.mouseover" end="zoomplus.mouseout"/>
                        </use>
                        <path d="M-4,0h8M0,-4v8" fill="none" stroke="white" stroke-width="1.5" pointer-events="none"/>
                </g>
                <g id="zoomMin">
                        <use xlink:href="#rim" fill="#404040">
                                <set attributeName="fill" to="#808080" begin="zoomminus.mouseover" end="zoomminus.mouseout"/>
                        </use>
                        <path d="M-4,0h8" fill="none" stroke="white" stroke-width="1.5" pointer-events="none"/>
                </g>
                <g id="dirArrow">
                        <path fill="none" stroke="white" stroke-width="1.5" d="M0,-3.0v7 M-2.5,-0.5L0,-3.0L2.5,-0.5"/>
                </g>
               <g id="resetDef">
                       <use xlink:href="#rim2" fill="#404040">
                               <set attributeName="fill" to="#808080" begin="reset.mouseover" end="reset.mouseout"/>
                       </use>
               </g>
        </defs>

<script type="text/javascript">
var viewWidth = 1176;
var viewHeight = 252;
var sectionId = 'dynsection-0';
</script>
<script xlink:href="svgpan.js"/>
<svg id="graph" class="graph">
<g id="viewport">
<title>ADAS_MCU.ino</title>
<!-- Node0 -->
<g id="node1" class="node"><title>Node0</title>
<polygon fill="#bfbfbf" stroke="black" points="426.5,-224.5 426.5,-243.5 512.5,-243.5 512.5,-224.5 426.5,-224.5"/>
<text text-anchor="middle" x="469.5" y="-231.5" font-family="Helvetica,sans-Serif" font-size="10.00">ADAS_MCU.ino</text>
</g>
<!-- Node1 -->
<g id="node2" class="node"><title>Node1</title>
<g id="a_node2"><a xlink:href="_a_d_a_s___types_8h.html" target="_top" xlink:title="ADAS_Types.h">
<polygon fill="none" stroke="black" points="306,-0.5 306,-19.5 389,-19.5 389,-0.5 306,-0.5"/>
<text text-anchor="middle" x="347.5" y="-7.5" font-family="Helvetica,sans-Serif" font-size="10.00">ADAS_Types.h</text>
</a>
</g>
</g>
<!-- Node0&#45;&gt;Node1 -->
<g id="edge1" class="edge"><title>Node0&#45;&gt;Node1</title>
<path fill="none" stroke="midnightblue" d="M426.348,-233.902C344.59,-234.586 171.926,-230.79 134.5,-188 98.8637,-147.257 53.8424,-170.542 195.5,-56 223.983,-32.9691 263.935,-21.7224 295.731,-16.2318"/>
<polygon fill="midnightblue" stroke="midnightblue" points="296.415,-19.6672 305.743,-14.6438 295.318,-12.7536 296.415,-19.6672"/>
</g>
<!-- Node2 -->
<g id="node3" class="node"><title>Node2</title>
<g id="a_node3"><a xlink:href="_a_d_a_s___cfg_8h.html" target="_top" xlink:title="This file contains the configuration of the vehicle. ">
<polygon fill="none" stroke="black" points="229,-56.5 229,-75.5 300,-75.5 300,-56.5 229,-56.5"/>
<text text-anchor="middle" x="264.5" y="-63.5" font-family="Helvetica,sans-Serif" font-size="10.00">ADAS_Cfg.h</text>
</a>
</g>
</g>
<!-- Node0&#45;&gt;Node2 -->
<g id="edge2" class="edge"><title>Node0&#45;&gt;Node2</title>
<path fill="none" stroke="midnightblue" d="M450.75,-224.472C431.807,-215.731 401.806,-201.537 376.5,-188 361.041,-179.731 358.296,-175.606 342.5,-168 302.192,-148.592 273.853,-168.859 248.5,-132 238.761,-117.841 245.612,-98.3512 253.136,-84.4137"/>
<polygon fill="midnightblue" stroke="midnightblue" points="256.163,-86.1711 258.257,-75.7853 250.143,-82.5982 256.163,-86.1711"/>
</g>
<!-- Node3 -->
<g id="node4" class="node"><title>Node3</title>
<g id="a_node4"><a xlink:href="_a_d_a_s___debug_8h.html" target="_top" xlink:title="ADAS_Debug.h">
<polygon fill="none" stroke="black" points="249,-168.5 249,-187.5 334,-187.5 334,-168.5 249,-168.5"/>
<text text-anchor="middle" x="291.5" y="-175.5" font-family="Helvetica,sans-Serif" font-size="10.00">ADAS_Debug.h</text>
</a>
</g>
</g>
<!-- Node0&#45;&gt;Node3 -->
<g id="edge3" class="edge"><title>Node0&#45;&gt;Node3</title>
<path fill="none" stroke="midnightblue" d="M441.295,-224.444C411.09,-215.28 362.989,-200.688 329.471,-190.519"/>
<polygon fill="midnightblue" stroke="midnightblue" points="330.158,-187.07 319.573,-187.516 328.126,-193.769 330.158,-187.07"/>
</g>
<!-- Node4 -->
<g id="node5" class="node"><title>Node4</title>
<polygon fill="none" stroke="#bfbfbf" points="917,-168.5 917,-187.5 966,-187.5 966,-168.5 917,-168.5"/>
<text text-anchor="middle" x="941.5" y="-175.5" font-family="Helvetica,sans-Serif" font-size="10.00">Timer.h</text>
</g>
<!-- Node0&#45;&gt;Node4 -->
<g id="edge5" class="edge"><title>Node0&#45;&gt;Node4</title>
<path fill="none" stroke="midnightblue" d="M512.757,-230.277C590.95,-224.963 760.855,-211.612 902.5,-188 903.957,-187.757 905.44,-187.493 906.936,-187.212"/>
<polygon fill="midnightblue" stroke="midnightblue" points="907.745,-190.619 916.834,-185.175 906.334,-183.762 907.745,-190.619"/>
</g>
<!-- Node5 -->
<g id="node6" class="node"><title>Node5</title>
<g id="a_node6"><a xlink:href="_h_a_l___drive_unit_8h.html" target="_top" xlink:title="HAL_DriveUnit.h">
<polygon fill="none" stroke="black" points="144,-168.5 144,-187.5 231,-187.5 231,-168.5 144,-168.5"/>
<text text-anchor="middle" x="187.5" y="-175.5" font-family="Helvetica,sans-Serif" font-size="10.00">HAL_DriveUnit.h</text>
</a>
</g>
</g>
<!-- Node0&#45;&gt;Node5 -->
<g id="edge6" class="edge"><title>Node0&#45;&gt;Node5</title>
<path fill="none" stroke="midnightblue" d="M426.363,-224.74C376.646,-215.219 294.896,-199.565 241.127,-189.269"/>
<polygon fill="midnightblue" stroke="midnightblue" points="241.576,-185.791 231.096,-187.348 240.259,-192.666 241.576,-185.791"/>
</g>
<!-- Node6 -->
<g id="node7" class="node"><title>Node6</title>
<g id="a_node7"><a xlink:href="_h_a_l___encoder_8h.html" target="_top" xlink:title="HAL_Encoder.h">
<polygon fill="none" stroke="black" points="258,-112.5 258,-131.5 343,-131.5 343,-112.5 258,-112.5"/>
<text text-anchor="middle" x="300.5" y="-119.5" font-family="Helvetica,sans-Serif" font-size="10.00">HAL_Encoder.h</text>
</a>
</g>
</g>
<!-- Node0&#45;&gt;Node6 -->
<g id="edge8" class="edge"><title>Node0&#45;&gt;Node6</title>
<path fill="none" stroke="midnightblue" d="M457.658,-224.292C440.176,-211.537 406.308,-187.203 376.5,-168 359.42,-156.997 339.661,-145.329 324.572,-136.632"/>
<polygon fill="midnightblue" stroke="midnightblue" points="326.263,-133.567 315.846,-131.633 322.783,-139.641 326.263,-133.567"/>
</g>
<!-- Node7 -->
<g id="node8" class="node"><title>Node7</title>
<g id="a_node8"><a xlink:href="_h_a_l___i_m_u_8h.html" target="_top" xlink:title="Application file for IMU. ">
<polygon fill="none" stroke="black" points="650.5,-112.5 650.5,-131.5 716.5,-131.5 716.5,-112.5 650.5,-112.5"/>
<text text-anchor="middle" x="683.5" y="-119.5" font-family="Helvetica,sans-Serif" font-size="10.00">HAL_IMU.h</text>
</a>
</g>
</g>
<!-- Node0&#45;&gt;Node7 -->
<g id="edge11" class="edge"><title>Node0&#45;&gt;Node7</title>
<path fill="none" stroke="midnightblue" d="M512.749,-228.018C563.042,-221.383 641.936,-208.094 663.5,-188 676.178,-176.187 680.893,-156.555 682.608,-141.952"/>
<polygon fill="midnightblue" stroke="midnightblue" points="686.13,-141.81 683.436,-131.564 679.152,-141.254 686.13,-141.81"/>
</g>
<!-- Node12 -->
<g id="node13" class="node"><title>Node12</title>
<g id="a_node13"><a xlink:href="_h_a_l___p_w_m_8h.html" target="_top" xlink:title="HAL_PWM.h">
<polygon fill="none" stroke="black" points="361.5,-112.5 361.5,-131.5 435.5,-131.5 435.5,-112.5 361.5,-112.5"/>
<text text-anchor="middle" x="398.5" y="-119.5" font-family="Helvetica,sans-Serif" font-size="10.00">HAL_PWM.h</text>
</a>
</g>
</g>
<!-- Node0&#45;&gt;Node12 -->
<g id="edge17" class="edge"><title>Node0&#45;&gt;Node12</title>
<path fill="none" stroke="midnightblue" d="M463.929,-224.368C452.264,-206.296 425.077,-164.176 409.671,-140.307"/>
<polygon fill="midnightblue" stroke="midnightblue" points="412.409,-138.095 404.045,-131.591 406.528,-141.891 412.409,-138.095"/>
</g>
<!-- Node13 -->
<g id="node14" class="node"><title>Node13</title>
<g id="a_node14"><a xlink:href="_h_a_l___serial___i_f_8h.html" target="_top" xlink:title="HAL_Serial_IF.h">
<polygon fill="none" stroke="black" points="469,-56.5 469,-75.5 556,-75.5 556,-56.5 469,-56.5"/>
<text text-anchor="middle" x="512.5" y="-63.5" font-family="Helvetica,sans-Serif" font-size="10.00">HAL_Serial_IF.h</text>
</a>
</g>
</g>
<!-- Node0&#45;&gt;Node13 -->
<g id="edge20" class="edge"><title>Node0&#45;&gt;Node13</title>
<path fill="none" stroke="midnightblue" d="M477.782,-224.471C492.981,-208.153 524.837,-170.681 536.5,-132 541.474,-115.503 533.369,-97.1185 525.263,-84.1226"/>
<polygon fill="midnightblue" stroke="midnightblue" points="528.065,-82.0181 519.548,-75.7161 522.276,-85.9537 528.065,-82.0181"/>
</g>
<!-- Node14 -->
<g id="node15" class="node"><title>Node14</title>
<g id="a_node15"><a xlink:href="_comm___inertial_8h.html" target="_top" xlink:title="Application file for inertial communication. ">
<polygon fill="none" stroke="black" points="0,-168.5 0,-187.5 87,-187.5 87,-168.5 0,-168.5"/>
<text text-anchor="middle" x="43.5" y="-175.5" font-family="Helvetica,sans-Serif" font-size="10.00">Comm_Inertial.h</text>
</a>
</g>
</g>
<!-- Node0&#45;&gt;Node14 -->
<g id="edge22" class="edge"><title>Node0&#45;&gt;Node14</title>
<path fill="none" stroke="midnightblue" d="M426.384,-228.184C357.595,-220.399 218.808,-204.27 101.5,-188 100.049,-187.799 98.5782,-187.592 97.0943,-187.38"/>
<polygon fill="midnightblue" stroke="midnightblue" points="97.5829,-183.915 87.1821,-185.933 96.5713,-190.841 97.5829,-183.915"/>
</g>
<!-- Node15 -->
<g id="node16" class="node"><title>Node15</title>
<g id="a_node16"><a xlink:href="_comm___i_c_c_8h.html" target="_top" xlink:title="Comm_ICC.h">
<polygon fill="none" stroke="black" points="453.5,-112.5 453.5,-131.5 527.5,-131.5 527.5,-112.5 453.5,-112.5"/>
<text text-anchor="middle" x="490.5" y="-119.5" font-family="Helvetica,sans-Serif" font-size="10.00">Comm_ICC.h</text>
</a>
</g>
</g>
<!-- Node0&#45;&gt;Node15 -->
<g id="edge24" class="edge"><title>Node0&#45;&gt;Node15</title>
<path fill="none" stroke="midnightblue" d="M471.148,-224.368C474.537,-206.617 482.355,-165.666 486.95,-141.597"/>
<polygon fill="midnightblue" stroke="midnightblue" points="490.422,-142.07 488.86,-131.591 483.547,-140.758 490.422,-142.07"/>
</g>
<!-- Node17 -->
<g id="node18" class="node"><title>Node17</title>
<g id="a_node18"><a xlink:href="_app___motor_ctrl_8h.html" target="_top" xlink:title="Header file for motor control unit. ">
<polygon fill="none" stroke="black" points="568,-168.5 568,-187.5 655,-187.5 655,-168.5 568,-168.5"/>
<text text-anchor="middle" x="611.5" y="-175.5" font-family="Helvetica,sans-Serif" font-size="10.00">App_MotorCtrl.h</text>
</a>
</g>
</g>
<!-- Node0&#45;&gt;Node17 -->
<g id="edge30" class="edge"><title>Node0&#45;&gt;Node17</title>
<path fill="none" stroke="midnightblue" d="M492,-224.444C515.577,-215.478 552.822,-201.314 579.464,-191.183"/>
<polygon fill="midnightblue" stroke="midnightblue" points="581.002,-194.342 589.105,-187.516 578.514,-187.8 581.002,-194.342"/>
</g>
<!-- Node18 -->
<g id="node19" class="node"><title>Node18</title>
<g id="a_node19"><a xlink:href="_app___stateflow_8h.html" target="_top" xlink:title="Application file for Stateflow. ">
<polygon fill="none" stroke="black" points="773,-112.5 773,-131.5 860,-131.5 860,-112.5 773,-112.5"/>
<text text-anchor="middle" x="816.5" y="-119.5" font-family="Helvetica,sans-Serif" font-size="10.00">App_Stateflow.h</text>
</a>
</g>
</g>
<!-- Node0&#45;&gt;Node18 -->
<g id="edge39" class="edge"><title>Node0&#45;&gt;Node18</title>
<path fill="none" stroke="midnightblue" d="M512.779,-227.213C556.817,-220.57 626.634,-207.946 684.5,-188 724.116,-174.344 767.162,-151.499 792.975,-136.85"/>
<polygon fill="midnightblue" stroke="midnightblue" points="795.056,-139.69 801.982,-131.672 791.568,-133.622 795.056,-139.69"/>
</g>
<!-- Node19 -->
<g id="node20" class="node"><title>Node19</title>
<g id="a_node20"><a xlink:href="_app___stateflowtypes_8h.html" target="_top" xlink:title="Application file for Stateflowtypes. ">
<polygon fill="none" stroke="black" points="1057,-56.5 1057,-75.5 1168,-75.5 1168,-56.5 1057,-56.5"/>
<text text-anchor="middle" x="1112.5" y="-63.5" font-family="Helvetica,sans-Serif" font-size="10.00">App_Stateflowtypes.h</text>
</a>
</g>
</g>
<!-- Node0&#45;&gt;Node19 -->
<g id="edge40" class="edge"><title>Node0&#45;&gt;Node19</title>
<path fill="none" stroke="midnightblue" d="M512.537,-227.069C563.334,-219.68 650.174,-205.824 723.5,-188 857.18,-155.505 1012.3,-102.534 1079.09,-78.9634"/>
<polygon fill="midnightblue" stroke="midnightblue" points="1080.41,-82.2103 1088.67,-75.5726 1078.07,-75.6119 1080.41,-82.2103"/>
</g>
<!-- Node3&#45;&gt;Node2 -->
<g id="edge4" class="edge"><title>Node3&#45;&gt;Node2</title>
<path fill="none" stroke="midnightblue" d="M263.485,-168.397C246.326,-161.515 225.752,-149.984 215.5,-132 204.854,-113.325 224.159,-93.8945 241.58,-81.1995"/>
<polygon fill="midnightblue" stroke="midnightblue" points="243.569,-84.0795 249.842,-75.5412 239.614,-78.3042 243.569,-84.0795"/>
</g>
<!-- Node5&#45;&gt;Node1 -->
<g id="edge7" class="edge"><title>Node5&#45;&gt;Node1</title>
<path fill="none" stroke="midnightblue" d="M186.517,-168.424C184.529,-146.702 182.435,-88.9043 211.5,-56 232.709,-31.9901 267.007,-20.7492 295.853,-15.5062"/>
<polygon fill="midnightblue" stroke="midnightblue" points="296.489,-18.9489 305.798,-13.8907 295.366,-12.0394 296.489,-18.9489"/>
</g>
<!-- Node6&#45;&gt;Node1 -->
<g id="edge9" class="edge"><title>Node6&#45;&gt;Node1</title>
<path fill="none" stroke="midnightblue" d="M273.483,-112.486C243.559,-101.588 201.729,-81.085 219.5,-56 236.782,-31.6059 268.388,-20.339 295.868,-15.179"/>
<polygon fill="midnightblue" stroke="midnightblue" points="296.476,-18.626 305.771,-13.5412 295.334,-11.7198 296.476,-18.626"/>
</g>
<!-- Node6&#45;&gt;Node2 -->
<g id="edge10" class="edge"><title>Node6&#45;&gt;Node2</title>
<path fill="none" stroke="midnightblue" d="M294.555,-112.083C289.523,-104.534 282.163,-93.4948 275.987,-84.2298"/>
<polygon fill="midnightblue" stroke="midnightblue" points="278.793,-82.1301 270.334,-75.7511 272.969,-86.0131 278.793,-82.1301"/>
</g>
<!-- Node7&#45;&gt;Node1 -->
<g id="edge16" class="edge"><title>Node7&#45;&gt;Node1</title>
<path fill="none" stroke="midnightblue" d="M716.58,-114.404C721.245,-113.55 725.988,-112.722 730.5,-112 855.383,-92.0052 1095.84,-148.413 1009.5,-56 968.171,-11.7663 548.375,-9.83413 399.506,-10.5584"/>
<polygon fill="midnightblue" stroke="midnightblue" points="399.245,-7.05964 389.264,-10.6146 399.284,-14.0595 399.245,-7.05964"/>
</g>
<!-- Node8 -->
<g id="node9" class="node"><title>Node8</title>
<polygon fill="none" stroke="#bfbfbf" points="612.5,-56.5 612.5,-75.5 712.5,-75.5 712.5,-56.5 612.5,-56.5"/>
<text text-anchor="middle" x="662.5" y="-63.5" font-family="Helvetica,sans-Serif" font-size="10.00">Adafruit_BNO055.h</text>
</g>
<!-- Node7&#45;&gt;Node8 -->
<g id="edge12" class="edge"><title>Node7&#45;&gt;Node8</title>
<path fill="none" stroke="midnightblue" d="M680.032,-112.083C677.188,-104.77 673.071,-94.1814 669.54,-85.1034"/>
<polygon fill="midnightblue" stroke="midnightblue" points="672.79,-83.8025 665.903,-75.7511 666.266,-86.3397 672.79,-83.8025"/>
</g>
<!-- Node9 -->
<g id="node10" class="node"><title>Node9</title>
<polygon fill="none" stroke="#bfbfbf" points="731,-56.5 731,-75.5 776,-75.5 776,-56.5 731,-56.5"/>
<text text-anchor="middle" x="753.5" y="-63.5" font-family="Helvetica,sans-Serif" font-size="10.00">Wire.h</text>
</g>
<!-- Node7&#45;&gt;Node9 -->
<g id="edge13" class="edge"><title>Node7&#45;&gt;Node9</title>
<path fill="none" stroke="midnightblue" d="M694.747,-112.324C705.297,-104.185 721.301,-91.8395 733.942,-82.0874"/>
<polygon fill="midnightblue" stroke="midnightblue" points="736.269,-84.7132 742.049,-75.8339 731.993,-79.1707 736.269,-84.7132"/>
</g>
<!-- Node10 -->
<g id="node11" class="node"><title>Node10</title>
<polygon fill="none" stroke="#bfbfbf" points="794.5,-56.5 794.5,-75.5 888.5,-75.5 888.5,-56.5 794.5,-56.5"/>
<text text-anchor="middle" x="841.5" y="-63.5" font-family="Helvetica,sans-Serif" font-size="10.00">Adafruit_Sensor.h</text>
</g>
<!-- Node7&#45;&gt;Node10 -->
<g id="edge14" class="edge"><title>Node7&#45;&gt;Node10</title>
<path fill="none" stroke="midnightblue" d="M708.536,-112.444C735.116,-103.359 777.309,-88.9388 807.023,-78.7831"/>
<polygon fill="midnightblue" stroke="midnightblue" points="808.251,-82.0625 816.582,-75.5164 805.987,-75.4386 808.251,-82.0625"/>
</g>
<!-- Node11 -->
<g id="node12" class="node"><title>Node11</title>
<polygon fill="none" stroke="#bfbfbf" points="906.5,-56.5 906.5,-75.5 1000.5,-75.5 1000.5,-56.5 906.5,-56.5"/>
<text text-anchor="middle" x="953.5" y="-63.5" font-family="Helvetica,sans-Serif" font-size="10.00">utility/imumaths.h</text>
</g>
<!-- Node7&#45;&gt;Node11 -->
<g id="edge15" class="edge"><title>Node7&#45;&gt;Node11</title>
<path fill="none" stroke="midnightblue" d="M716.607,-114.379C762.607,-105.179 846.342,-88.4316 900.935,-77.5131"/>
<polygon fill="midnightblue" stroke="midnightblue" points="901.654,-80.9386 910.774,-75.5453 900.281,-74.0745 901.654,-80.9386"/>
</g>
<!-- Node12&#45;&gt;Node1 -->
<g id="edge18" class="edge"><title>Node12&#45;&gt;Node1</title>
<path fill="none" stroke="midnightblue" d="M385.448,-112.373C374.551,-104.368 359.68,-91.3886 352.5,-76 345.77,-61.5768 344.925,-43.3858 345.53,-29.9185"/>
<polygon fill="midnightblue" stroke="midnightblue" points="349.024,-30.1376 346.283,-19.9035 342.043,-29.6132 349.024,-30.1376"/>
</g>
<!-- Node12&#45;&gt;Node2 -->
<g id="edge19" class="edge"><title>Node12&#45;&gt;Node2</title>
<path fill="none" stroke="midnightblue" d="M377.267,-112.444C355.116,-103.517 320.181,-89.4387 295.064,-79.3168"/>
<polygon fill="midnightblue" stroke="midnightblue" points="296.217,-76.0079 285.633,-75.5164 293.6,-82.5006 296.217,-76.0079"/>
</g>
<!-- Node13&#45;&gt;Node1 -->
<g id="edge21" class="edge"><title>Node13&#45;&gt;Node1</title>
<path fill="none" stroke="midnightblue" d="M486.355,-56.4435C458.477,-47.3196 414.152,-32.8133 383.1,-22.6509"/>
<polygon fill="midnightblue" stroke="midnightblue" points="384.115,-19.3005 373.522,-19.5164 381.938,-25.9533 384.115,-19.3005"/>
</g>
<!-- Node14&#45;&gt;Node1 -->
<g id="edge23" class="edge"><title>Node14&#45;&gt;Node1</title>
<path fill="none" stroke="midnightblue" d="M44.9092,-168.29C49.0475,-145.73 63.3657,-85.1327 101.5,-56 131.281,-33.2485 232.77,-20.718 295.708,-14.9698"/>
<polygon fill="midnightblue" stroke="midnightblue" points="296.19,-18.4409 305.842,-14.0723 295.572,-11.4682 296.19,-18.4409"/>
</g>
<!-- Node15&#45;&gt;Node1 -->
<g id="edge25" class="edge"><title>Node15&#45;&gt;Node1</title>
<path fill="none" stroke="midnightblue" d="M456.243,-112.375C434.089,-105.437 405.719,-93.8527 385.5,-76 370.992,-63.1898 360.554,-43.4544 354.332,-29.0896"/>
<polygon fill="midnightblue" stroke="midnightblue" points="357.549,-27.7076 350.548,-19.7549 351.061,-30.3373 357.549,-27.7076"/>
</g>
<!-- Node15&#45;&gt;Node2 -->
<g id="edge26" class="edge"><title>Node15&#45;&gt;Node2</title>
<path fill="none" stroke="midnightblue" d="M454.69,-112.444C415.512,-103.083 352.623,-88.0561 309.985,-77.868"/>
<polygon fill="midnightblue" stroke="midnightblue" points="310.682,-74.4363 300.143,-75.5164 309.056,-81.2446 310.682,-74.4363"/>
</g>
<!-- Node15&#45;&gt;Node13 -->
<g id="edge27" class="edge"><title>Node15&#45;&gt;Node13</title>
<path fill="none" stroke="midnightblue" d="M494.133,-112.083C497.112,-104.77 501.426,-94.1814 505.125,-85.1034"/>
<polygon fill="midnightblue" stroke="midnightblue" points="508.403,-86.3326 508.935,-75.7511 501.92,-83.6914 508.403,-86.3326"/>
</g>
<!-- Node16 -->
<g id="node17" class="node"><title>Node16</title>
<g id="a_node17"><a xlink:href="_cbuffer_8h.html" target="_top" xlink:title="CBuffer.h">
<polygon fill="none" stroke="black" points="394.5,-56.5 394.5,-75.5 450.5,-75.5 450.5,-56.5 394.5,-56.5"/>
<text text-anchor="middle" x="422.5" y="-63.5" font-family="Helvetica,sans-Serif" font-size="10.00">CBuffer.h</text>
</a>
</g>
</g>
<!-- Node15&#45;&gt;Node16 -->
<g id="edge28" class="edge"><title>Node15&#45;&gt;Node16</title>
<path fill="none" stroke="midnightblue" d="M479.575,-112.324C469.325,-104.185 453.779,-91.8395 441.499,-82.0874"/>
<polygon fill="midnightblue" stroke="midnightblue" points="443.632,-79.3119 433.624,-75.8339 439.279,-84.7937 443.632,-79.3119"/>
</g>
<!-- Node16&#45;&gt;Node1 -->
<g id="edge29" class="edge"><title>Node16&#45;&gt;Node1</title>
<path fill="none" stroke="midnightblue" d="M410.45,-56.324C399.037,-48.1066 381.669,-35.6017 368.065,-25.8069"/>
<polygon fill="midnightblue" stroke="midnightblue" points="369.93,-22.8366 359.769,-19.8339 365.84,-28.5174 369.93,-22.8366"/>
</g>
<!-- Node17&#45;&gt;Node1 -->
<g id="edge31" class="edge"><title>Node17&#45;&gt;Node1</title>
<path fill="none" stroke="midnightblue" d="M610.877,-168.388C608.776,-146.066 599.936,-85.9921 564.5,-56 540.032,-35.2909 455.481,-22.4758 399.429,-16.0521"/>
<polygon fill="midnightblue" stroke="midnightblue" points="399.641,-12.5542 389.315,-14.9266 398.867,-19.5112 399.641,-12.5542"/>
</g>
<!-- Node17&#45;&gt;Node6 -->
<g id="edge37" class="edge"><title>Node17&#45;&gt;Node6</title>
<path fill="none" stroke="midnightblue" d="M567.929,-169.435C511.671,-159.666 413.832,-142.678 353.378,-132.181"/>
<polygon fill="midnightblue" stroke="midnightblue" points="353.728,-128.69 343.277,-130.427 352.53,-135.587 353.728,-128.69"/>
</g>
<!-- Node17&#45;&gt;Node7 -->
<g id="edge32" class="edge"><title>Node17&#45;&gt;Node7</title>
<path fill="none" stroke="midnightblue" d="M623.068,-168.324C633.92,-160.185 650.381,-147.839 663.383,-138.087"/>
<polygon fill="midnightblue" stroke="midnightblue" points="665.821,-140.634 671.721,-131.834 661.621,-135.034 665.821,-140.634"/>
</g>
<!-- Node17&#45;&gt;Node12 -->
<g id="edge33" class="edge"><title>Node17&#45;&gt;Node12</title>
<path fill="none" stroke="midnightblue" d="M577.75,-168.444C540.982,-159.122 482.054,-144.183 441.878,-133.997"/>
<polygon fill="midnightblue" stroke="midnightblue" points="442.646,-130.581 432.093,-131.516 440.926,-137.367 442.646,-130.581"/>
</g>
<!-- Node17&#45;&gt;Node15 -->
<g id="edge38" class="edge"><title>Node17&#45;&gt;Node15</title>
<path fill="none" stroke="midnightblue" d="M592.327,-168.444C572.591,-159.636 541.615,-145.812 519.007,-135.722"/>
<polygon fill="midnightblue" stroke="midnightblue" points="520.141,-132.396 509.583,-131.516 517.289,-138.788 520.141,-132.396"/>
</g>
<!-- Node17&#45;&gt;Node18 -->
<g id="edge34" class="edge"><title>Node17&#45;&gt;Node18</title>
<path fill="none" stroke="midnightblue" d="M643.983,-168.444C679.22,-159.162 735.604,-144.309 774.259,-134.127"/>
<polygon fill="midnightblue" stroke="midnightblue" points="775.391,-137.448 784.169,-131.516 773.607,-130.679 775.391,-137.448"/>
</g>
<!-- Node17&#45;&gt;Node19 -->
<g id="edge36" class="edge"><title>Node17&#45;&gt;Node19</title>
<path fill="none" stroke="midnightblue" d="M635.395,-168.43C658.681,-159.877 694.945,-146.021 725.5,-132 742.846,-124.04 745.303,-117.756 763.5,-112 789.844,-103.667 953.24,-84.6391 1046.83,-74.1932"/>
<polygon fill="midnightblue" stroke="midnightblue" points="1047.22,-77.6714 1056.77,-73.0865 1046.45,-70.7143 1047.22,-77.6714"/>
</g>
<!-- Node18&#45;&gt;Node19 -->
<g id="edge35" class="edge"><title>Node18&#45;&gt;Node19</title>
<path fill="none" stroke="midnightblue" d="M860.176,-113.032C912.059,-103.567 998.746,-87.7524 1055.77,-77.3488"/>
<polygon fill="midnightblue" stroke="midnightblue" points="1056.5,-80.7739 1065.71,-75.536 1055.24,-73.8876 1056.5,-80.7739"/>
</g>
</g>
</svg>
        <g id="navigator" transform="translate(0 0)" fill="#404254">
                <rect fill="#f2f5e9" fill-opacity="0.5" stroke="#606060" stroke-width=".5" x="0" y="0" width="60" height="60"/>
                <use id="zoomplus" xlink:href="#zoomPlus" x="17" y="9" onmousedown="handleZoom(evt,'in')"/>
                <use id="zoomminus" xlink:href="#zoomMin" x="42" y="9" onmousedown="handleZoom(evt,'out')"/>
                <use id="reset" xlink:href="#resetDef" x="30" y="36" onmousedown="handleReset()"/>
                <g id="arrowUp" xlink:href="#dirArrow" transform="translate(30 24)" onmousedown="handlePan(0,-1)">
                  <use xlink:href="#rim" fill="#404040">
                        <set attributeName="fill" to="#808080" begin="arrowUp.mouseover" end="arrowUp.mouseout"/>
                  </use>
                  <path fill="none" stroke="white" stroke-width="1.5" d="M0,-3.0v7 M-2.5,-0.5L0,-3.0L2.5,-0.5"/>
                </g>
                <g id="arrowRight" xlink:href="#dirArrow" transform="rotate(90) translate(36 -43)" onmousedown="handlePan(1,0)">
                  <use xlink:href="#rim" fill="#404040">
                        <set attributeName="fill" to="#808080" begin="arrowRight.mouseover" end="arrowRight.mouseout"/>
                  </use>
                  <path fill="none" stroke="white" stroke-width="1.5" d="M0,-3.0v7 M-2.5,-0.5L0,-3.0L2.5,-0.5"/>
                </g>
                <g id="arrowDown" xlink:href="#dirArrow" transform="rotate(180) translate(-30 -48)" onmousedown="handlePan(0,1)">
                  <use xlink:href="#rim" fill="#404040">
                        <set attributeName="fill" to="#808080" begin="arrowDown.mouseover" end="arrowDown.mouseout"/>
                  </use>
                  <path fill="none" stroke="white" stroke-width="1.5" d="M0,-3.0v7 M-2.5,-0.5L0,-3.0L2.5,-0.5"/>
                </g>
                <g id="arrowLeft" xlink:href="#dirArrow" transform="rotate(270) translate(-36 17)" onmousedown="handlePan(-1,0)">
                  <use xlink:href="#rim" fill="#404040">
                        <set attributeName="fill" to="#808080" begin="arrowLeft.mouseover" end="arrowLeft.mouseout"/>
                  </use>
                  <path fill="none" stroke="white" stroke-width="1.5" d="M0,-3.0v7 M-2.5,-0.5L0,-3.0L2.5,-0.5"/>
                </g>
        </g>
        <svg viewBox="0 0 15 15" width="100%" height="30px" preserveAspectRatio="xMaxYMin meet">
         <g id="arrow_out" transform="scale(0.3 0.3)">
          <a xlink:href="_a_d_a_s___m_c_u_8ino__incl_org.svg" target="_base">
           <rect id="button" ry="5" rx="5" y="6" x="6" height="38" width="38"
                fill="#f2f5e9" fill-opacity="0.5" stroke="#606060" stroke-width="1.0"/>
           <path id="arrow"
             d="M 11.500037,31.436501 C 11.940474,20.09759 22.043105,11.32322 32.158766,21.979434 L 37.068811,17.246167 C 37.068811,17.246167 37.088388,32 37.088388,32 L 22.160133,31.978069 C 22.160133,31.978069 26.997745,27.140456 26.997745,27.140456 C 18.528582,18.264221 13.291696,25.230495 11.500037,31.436501 z"
             style="fill:#404040;"/>
          </a>
         </g>
        </svg>
</svg>
