<?xml version="1.0" encoding="UTF-8" standalone="no"?>
<!DOCTYPE svg PUBLIC "-//W3C//DTD SVG 1.1//EN"
 "http://www.w3.org/Graphics/SVG/1.1/DTD/svg11.dtd">
<!-- Generated by graphviz version 2.38.0 (20140413.2041)
 -->
<!-- Title: ADAS_Types.h Pages: 1 -->
<!--zoomable 252 -->
<svg id="main" version="1.1" xmlns="http://www.w3.org/2000/svg" xmlns:xlink="http://www.w3.org/1999/xlink" xml:space="preserve" onload="init(evt)">
<style type="text/css"><![CDATA[
.edge:hover path { stroke: red; }
.edge:hover polygon { stroke: red; fill: red; }
]]></style>
<script type="text/javascript"><![CDATA[
var edges = document.getElementsByTagName('g');
if (edges && edges.length) {
  for (var i=0;i<edges.length;i++) {
    if (edges[i].id.substr(0,4)=='edge') {
      edges[i].setAttribute('class','edge');
    }
  }
}
]]></script>
        <defs>
                <circle id="rim" cx="0" cy="0" r="7"/>
                <circle id="rim2" cx="0" cy="0" r="3.5"/>
                <g id="zoomPlus">
                        <use xlink:href="#rim" fill="#404040">
                                <set attributeName="fill" to="#808080" begin="zoomplus.mouseover" end="zoomplus.mouseout"/>
                        </use>
                        <path d="M-4,0h8M0,-4v8" fill="none" stroke="white" stroke-width="1.5" pointer-events="none"/>
                </g>
                <g id="zoomMin">
                        <use xlink:href="#rim" fill="#404040">
                                <set attributeName="fill" to="#808080" begin="zoomminus.mouseover" end="zoomminus.mouseout"/>
                        </use>
                        <path d="M-4,0h8" fill="none" stroke="white" stroke-width="1.5" pointer-events="none"/>
                </g>
                <g id="dirArrow">
                        <path fill="none" stroke="white" stroke-width="1.5" d="M0,-3.0v7 M-2.5,-0.5L0,-3.0L2.5,-0.5"/>
                </g>
               <g id="resetDef">
                       <use xlink:href="#rim2" fill="#404040">
                               <set attributeName="fill" to="#808080" begin="reset.mouseover" end="reset.mouseout"/>
                       </use>
               </g>
        </defs>

<script type="text/javascript">
var viewWidth = 1027;
var viewHeight = 252;
var sectionId = 'dynsection-0';
</script>
<script xlink:href="svgpan.js"/>
<svg id="graph" class="graph">
<g id="viewport">
<title>ADAS_Types.h</title>
<!-- Node1 -->
<g id="node1" class="node"><title>Node1</title>
<polygon fill="#bfbfbf" stroke="black" points="505.197,-224.5 505.197,-243.5 588.197,-243.5 588.197,-224.5 505.197,-224.5"/>
<text text-anchor="middle" x="546.697" y="-231.5" font-family="Helvetica,sans-Serif" font-size="10.00">ADAS_Types.h</text>
</g>
<!-- Node2 -->
<g id="node2" class="node"><title>Node2</title>
<g id="a_node2"><a xlink:href="_a_d_a_s___m_c_u_8ino.html" target="_top" xlink:title="Main file for the NavU of the ADAS project. ">
<polygon fill="none" stroke="black" points="457.697,-0.5 457.697,-19.5 543.697,-19.5 543.697,-0.5 457.697,-0.5"/>
<text text-anchor="middle" x="500.697" y="-7.5" font-family="Helvetica,sans-Serif" font-size="10.00">ADAS_MCU.ino</text>
</a>
</g>
</g>
<!-- Node1&#45;&gt;Node2 -->
<g id="edge1" class="edge"><title>Node1&#45;&gt;Node2</title>
<path fill="none" stroke="midnightblue" d="M533.207,-216.614C512.434,-192.009 470.608,-144.902 428.697,-112 403.935,-92.5611 383.307,-103.338 367.697,-76 346.16,-38.2821 411.021,-22.0362 457.593,-15.3503"/>
<polygon fill="midnightblue" stroke="midnightblue" points="530.546,-218.887 539.643,-224.318 535.918,-214.4 530.546,-218.887"/>
</g>
<!-- Node3 -->
<g id="node3" class="node"><title>Node3</title>
<g id="a_node3"><a xlink:href="_h_a_l___drive_unit_8h.html" target="_top" xlink:title="HAL_DriveUnit.h">
<polygon fill="none" stroke="black" points="212.197,-168.5 212.197,-187.5 299.197,-187.5 299.197,-168.5 212.197,-168.5"/>
<text text-anchor="middle" x="255.697" y="-175.5" font-family="Helvetica,sans-Serif" font-size="10.00">HAL_DriveUnit.h</text>
</a>
</g>
</g>
<!-- Node1&#45;&gt;Node3 -->
<g id="edge2" class="edge"><title>Node1&#45;&gt;Node3</title>
<path fill="none" stroke="midnightblue" d="M494.986,-223.404C439.257,-213.063 351.538,-196.785 299.214,-187.075"/>
<polygon fill="midnightblue" stroke="midnightblue" points="494.533,-226.88 505.004,-225.263 495.81,-219.997 494.533,-226.88"/>
</g>
<!-- Node5 -->
<g id="node5" class="node"><title>Node5</title>
<g id="a_node5"><a xlink:href="_h_a_l___encoder_8h.html" target="_top" xlink:title="HAL_Encoder.h">
<polygon fill="none" stroke="black" points="476.197,-112.5 476.197,-131.5 561.197,-131.5 561.197,-112.5 476.197,-112.5"/>
<text text-anchor="middle" x="518.697" y="-119.5" font-family="Helvetica,sans-Serif" font-size="10.00">HAL_Encoder.h</text>
</a>
</g>
</g>
<!-- Node1&#45;&gt;Node5 -->
<g id="edge5" class="edge"><title>Node1&#45;&gt;Node5</title>
<path fill="none" stroke="midnightblue" d="M542.032,-214.674C535.911,-190.625 525.414,-149.388 520.884,-131.591"/>
<polygon fill="midnightblue" stroke="midnightblue" points="538.641,-215.541 544.5,-224.368 545.425,-213.814 538.641,-215.541"/>
</g>
<!-- Node6 -->
<g id="node6" class="node"><title>Node6</title>
<g id="a_node6"><a xlink:href="_app___motor_ctrl_8h.html" target="_top" xlink:title="Header file for motor control unit. ">
<polygon fill="none" stroke="black" points="739.197,-56.5 739.197,-75.5 826.197,-75.5 826.197,-56.5 739.197,-56.5"/>
<text text-anchor="middle" x="782.697" y="-63.5" font-family="Helvetica,sans-Serif" font-size="10.00">App_MotorCtrl.h</text>
</a>
</g>
</g>
<!-- Node1&#45;&gt;Node6 -->
<g id="edge36" class="edge"><title>Node1&#45;&gt;Node6</title>
<path fill="none" stroke="midnightblue" d="M598.583,-233.017C667.114,-229.785 784.41,-212.133 829.697,-132 841.824,-110.541 814.714,-87.6832 796.827,-75.6189"/>
<polygon fill="midnightblue" stroke="midnightblue" points="598.289,-229.526 588.431,-233.407 598.558,-236.52 598.289,-229.526"/>
</g>
<!-- Node10 -->
<g id="node10" class="node"><title>Node10</title>
<g id="a_node10"><a xlink:href="_h_a_l___i_m_u_8h.html" target="_top" xlink:title="Application file for IMU. ">
<polygon fill="none" stroke="black" points="579.697,-112.5 579.697,-131.5 645.697,-131.5 645.697,-112.5 579.697,-112.5"/>
<text text-anchor="middle" x="612.697" y="-119.5" font-family="Helvetica,sans-Serif" font-size="10.00">HAL_IMU.h</text>
</a>
</g>
</g>
<!-- Node1&#45;&gt;Node10 -->
<g id="edge12" class="edge"><title>Node1&#45;&gt;Node10</title>
<path fill="none" stroke="midnightblue" d="M557.113,-215.64C571.451,-191.744 596.72,-149.629 607.542,-131.591"/>
<polygon fill="midnightblue" stroke="midnightblue" points="554.02,-213.993 551.876,-224.368 560.022,-217.594 554.02,-213.993"/>
</g>
<!-- Node12 -->
<g id="node12" class="node"><title>Node12</title>
<g id="a_node12"><a xlink:href="_h_a_l___p_w_m_8h.html" target="_top" xlink:title="HAL_PWM.h">
<polygon fill="none" stroke="black" points="877.697,-112.5 877.697,-131.5 951.697,-131.5 951.697,-112.5 877.697,-112.5"/>
<text text-anchor="middle" x="914.697" y="-119.5" font-family="Helvetica,sans-Serif" font-size="10.00">HAL_PWM.h</text>
</a>
</g>
</g>
<!-- Node1&#45;&gt;Node12 -->
<g id="edge17" class="edge"><title>Node1&#45;&gt;Node12</title>
<path fill="none" stroke="midnightblue" d="M598.538,-230.312C676.533,-225.494 819.633,-213.42 863.697,-188 886.807,-174.668 903.258,-146.396 910.526,-131.932"/>
<polygon fill="midnightblue" stroke="midnightblue" points="598.213,-226.825 588.441,-230.918 598.632,-233.813 598.213,-226.825"/>
</g>
<!-- Node14 -->
<g id="node14" class="node"><title>Node14</title>
<g id="a_node14"><a xlink:href="_h_a_l___serial___i_f_8h.html" target="_top" xlink:title="HAL_Serial_IF.h">
<polygon fill="none" stroke="black" points="330.197,-168.5 330.197,-187.5 417.197,-187.5 417.197,-168.5 330.197,-168.5"/>
<text text-anchor="middle" x="373.697" y="-175.5" font-family="Helvetica,sans-Serif" font-size="10.00">HAL_Serial_IF.h</text>
</a>
</g>
</g>
<!-- Node1&#45;&gt;Node14 -->
<g id="edge22" class="edge"><title>Node1&#45;&gt;Node14</title>
<path fill="none" stroke="midnightblue" d="M509.651,-221.436C477.033,-211.255 430.287,-196.664 400.981,-187.516"/>
<polygon fill="midnightblue" stroke="midnightblue" points="508.696,-224.805 519.285,-224.444 510.782,-218.123 508.696,-224.805"/>
</g>
<!-- Node15 -->
<g id="node15" class="node"><title>Node15</title>
<g id="a_node15"><a xlink:href="_comm___i_c_c_8h.html" target="_top" xlink:title="Comm_ICC.h">
<polygon fill="none" stroke="black" points="663.697,-112.5 663.697,-131.5 737.697,-131.5 737.697,-112.5 663.697,-112.5"/>
<text text-anchor="middle" x="700.697" y="-119.5" font-family="Helvetica,sans-Serif" font-size="10.00">Comm_ICC.h</text>
</a>
</g>
</g>
<!-- Node1&#45;&gt;Node15 -->
<g id="edge32" class="edge"><title>Node1&#45;&gt;Node15</title>
<path fill="none" stroke="midnightblue" d="M567.113,-218.417C599.685,-195.151 662.407,-150.35 688.669,-131.591"/>
<polygon fill="midnightblue" stroke="midnightblue" points="564.884,-215.708 558.781,-224.368 568.953,-221.404 564.884,-215.708"/>
</g>
<!-- Node17 -->
<g id="node17" class="node"><title>Node17</title>
<g id="a_node17"><a xlink:href="_comm___inertial_8h.html" target="_top" xlink:title="Application file for inertial communication. ">
<polygon fill="none" stroke="black" points="19.1971,-168.5 19.1971,-187.5 106.197,-187.5 106.197,-168.5 19.1971,-168.5"/>
<text text-anchor="middle" x="62.6971" y="-175.5" font-family="Helvetica,sans-Serif" font-size="10.00">Comm_Inertial.h</text>
</a>
</g>
</g>
<!-- Node1&#45;&gt;Node17 -->
<g id="edge29" class="edge"><title>Node1&#45;&gt;Node17</title>
<path fill="none" stroke="midnightblue" d="M494.986,-227.231C399.249,-216.549 196.012,-193.874 106.539,-183.891"/>
<polygon fill="midnightblue" stroke="midnightblue" points="494.686,-230.719 505.013,-228.349 495.462,-223.762 494.686,-230.719"/>
</g>
<!-- Node19 -->
<g id="node19" class="node"><title>Node19</title>
<g id="a_node19"><a xlink:href="_cbuffer_8h.html" target="_top" xlink:title="Cbuffer.h">
<polygon fill="none" stroke="black" points="673.197,-168.5 673.197,-187.5 728.197,-187.5 728.197,-168.5 673.197,-168.5"/>
<text text-anchor="middle" x="700.697" y="-175.5" font-family="Helvetica,sans-Serif" font-size="10.00">Cbuffer.h</text>
</a>
</g>
</g>
<!-- Node1&#45;&gt;Node19 -->
<g id="edge33" class="edge"><title>Node1&#45;&gt;Node19</title>
<path fill="none" stroke="midnightblue" d="M580.808,-221.039C609.784,-210.879 650.659,-196.546 676.41,-187.516"/>
<polygon fill="midnightblue" stroke="midnightblue" points="579.377,-217.832 571.099,-224.444 581.694,-224.437 579.377,-217.832"/>
</g>
<!-- Node3&#45;&gt;Node2 -->
<g id="edge3" class="edge"><title>Node3&#45;&gt;Node2</title>
<path fill="none" stroke="midnightblue" d="M260.168,-158.42C267.608,-131.607 285.145,-82.3951 318.697,-56 358.604,-24.6053 417.458,-14.7627 457.348,-11.8636"/>
<polygon fill="midnightblue" stroke="midnightblue" points="256.7,-157.85 257.58,-168.408 263.476,-159.605 256.7,-157.85"/>
</g>
<!-- Node4 -->
<g id="node4" class="node"><title>Node4</title>
<g id="a_node4"><a xlink:href="_h_a_l___drive_unit_8cpp.html" target="_top" xlink:title="HAL_DriveUnit.cpp">
<polygon fill="none" stroke="black" points="129.697,-112.5 129.697,-131.5 227.697,-131.5 227.697,-112.5 129.697,-112.5"/>
<text text-anchor="middle" x="178.697" y="-119.5" font-family="Helvetica,sans-Serif" font-size="10.00">HAL_DriveUnit.cpp</text>
</a>
</g>
</g>
<!-- Node3&#45;&gt;Node4 -->
<g id="edge4" class="edge"><title>Node3&#45;&gt;Node4</title>
<path fill="none" stroke="midnightblue" d="M234.796,-162.342C220.786,-152.517 202.814,-139.913 191.038,-131.655"/>
<polygon fill="midnightblue" stroke="midnightblue" points="233.129,-165.448 243.326,-168.324 237.148,-159.717 233.129,-165.448"/>
</g>
<!-- Node5&#45;&gt;Node2 -->
<g id="edge6" class="edge"><title>Node5&#45;&gt;Node2</title>
<path fill="none" stroke="midnightblue" d="M515.645,-102.348C511.702,-78.2538 505.002,-37.3079 502.103,-19.5914"/>
<polygon fill="midnightblue" stroke="midnightblue" points="512.216,-103.065 517.285,-112.368 519.124,-101.934 512.216,-103.065"/>
</g>
<!-- Node5&#45;&gt;Node6 -->
<g id="edge7" class="edge"><title>Node5&#45;&gt;Node6</title>
<path fill="none" stroke="midnightblue" d="M570.473,-110.41C620.366,-100.204 694.894,-84.9597 741.061,-75.5164"/>
<polygon fill="midnightblue" stroke="midnightblue" points="569.624,-107.01 560.529,-112.444 571.027,-113.869 569.624,-107.01"/>
</g>
<!-- Node9 -->
<g id="node9" class="node"><title>Node9</title>
<g id="a_node9"><a xlink:href="_h_a_l___encoder_8cpp.html" target="_top" xlink:title="HAL_Encoder.cpp">
<polygon fill="none" stroke="black" points="377.197,-56.5 377.197,-75.5 472.197,-75.5 472.197,-56.5 377.197,-56.5"/>
<text text-anchor="middle" x="424.697" y="-63.5" font-family="Helvetica,sans-Serif" font-size="10.00">HAL_Encoder.cpp</text>
</a>
</g>
</g>
<!-- Node5&#45;&gt;Node9 -->
<g id="edge11" class="edge"><title>Node5&#45;&gt;Node9</title>
<path fill="none" stroke="midnightblue" d="M494.635,-107.177C477.338,-97.2407 454.549,-84.1492 439.762,-75.6545"/>
<polygon fill="midnightblue" stroke="midnightblue" points="493.18,-110.378 503.594,-112.324 496.667,-104.308 493.18,-110.378"/>
</g>
<!-- Node6&#45;&gt;Node2 -->
<g id="edge8" class="edge"><title>Node6&#45;&gt;Node2</title>
<path fill="none" stroke="midnightblue" d="M728.927,-54.7037C675.248,-44.4247 593.787,-28.8257 544.089,-19.3091"/>
<polygon fill="midnightblue" stroke="midnightblue" points="728.464,-58.1785 738.944,-56.6217 729.781,-51.3034 728.464,-58.1785"/>
</g>
<!-- Node7 -->
<g id="node7" class="node"><title>Node7</title>
<g id="a_node7"><a xlink:href="_app___motor_ctrl_8cpp.html" target="_top" xlink:title="Application file for environmental data. ">
<polygon fill="none" stroke="black" points="695.697,-0.5 695.697,-19.5 793.697,-19.5 793.697,-0.5 695.697,-0.5"/>
<text text-anchor="middle" x="744.697" y="-7.5" font-family="Helvetica,sans-Serif" font-size="10.00">App_MotorCtrl.cpp</text>
</a>
</g>
</g>
<!-- Node6&#45;&gt;Node7 -->
<g id="edge9" class="edge"><title>Node6&#45;&gt;Node7</title>
<path fill="none" stroke="midnightblue" d="M770.632,-47.8554C764.052,-38.5048 756.186,-27.3265 750.855,-19.7511"/>
<polygon fill="midnightblue" stroke="midnightblue" points="767.805,-49.9192 776.422,-56.083 773.53,-45.8907 767.805,-49.9192"/>
</g>
<!-- Node8 -->
<g id="node8" class="node"><title>Node8</title>
<g id="a_node8"><a xlink:href="_comm___i_c_c_8cpp.html" target="_top" xlink:title="Comm_ICC.cpp">
<polygon fill="none" stroke="black" points="812.197,-0.5 812.197,-19.5 897.197,-19.5 897.197,-0.5 812.197,-0.5"/>
<text text-anchor="middle" x="854.697" y="-7.5" font-family="Helvetica,sans-Serif" font-size="10.00">Comm_ICC.cpp</text>
</a>
</g>
</g>
<!-- Node6&#45;&gt;Node8 -->
<g id="edge10" class="edge"><title>Node6&#45;&gt;Node8</title>
<path fill="none" stroke="midnightblue" d="M802.563,-50.1008C815.521,-40.3824 831.995,-28.0269 842.919,-19.8339"/>
<polygon fill="midnightblue" stroke="midnightblue" points="800.165,-47.5239 794.265,-56.324 804.365,-53.1239 800.165,-47.5239"/>
</g>
<!-- Node10&#45;&gt;Node2 -->
<g id="edge13" class="edge"><title>Node10&#45;&gt;Node2</title>
<path fill="none" stroke="midnightblue" d="M618.789,-102.167C622.076,-88.2255 623.817,-69.4052 614.697,-56 598.898,-32.7782 569.083,-21.5397 543.906,-16.1008"/>
<polygon fill="midnightblue" stroke="midnightblue" points="615.332,-101.531 615.999,-112.105 622.072,-103.423 615.332,-101.531"/>
</g>
<!-- Node10&#45;&gt;Node6 -->
<g id="edge14" class="edge"><title>Node10&#45;&gt;Node6</title>
<path fill="none" stroke="midnightblue" d="M649.517,-109.304C681.549,-99.1294 727.212,-84.6246 755.886,-75.5164"/>
<polygon fill="midnightblue" stroke="midnightblue" points="648.105,-106.08 639.634,-112.444 650.224,-112.752 648.105,-106.08"/>
</g>
<!-- Node10&#45;&gt;Node7 -->
<g id="edge15" class="edge"><title>Node10&#45;&gt;Node7</title>
<path fill="none" stroke="midnightblue" d="M630.918,-105.816C659.032,-82.3874 712.069,-38.1898 734.387,-19.5914"/>
<polygon fill="midnightblue" stroke="midnightblue" points="628.497,-103.278 623.055,-112.368 632.978,-108.655 628.497,-103.278"/>
</g>
<!-- Node11 -->
<g id="node11" class="node"><title>Node11</title>
<g id="a_node11"><a xlink:href="_h_a_l___i_m_u_8cpp.html" target="_top" xlink:title="Application file for IMU. ">
<polygon fill="none" stroke="black" points="529.197,-56.5 529.197,-75.5 606.197,-75.5 606.197,-56.5 529.197,-56.5"/>
<text text-anchor="middle" x="567.697" y="-63.5" font-family="Helvetica,sans-Serif" font-size="10.00">HAL_IMU.cpp</text>
</a>
</g>
</g>
<!-- Node10&#45;&gt;Node11 -->
<g id="edge16" class="edge"><title>Node10&#45;&gt;Node11</title>
<path fill="none" stroke="midnightblue" d="M598.65,-104.144C590.81,-94.7357 581.368,-83.4046 574.99,-75.7511"/>
<polygon fill="midnightblue" stroke="midnightblue" points="596.176,-106.641 605.266,-112.083 601.553,-102.16 596.176,-106.641"/>
</g>
<!-- Node12&#45;&gt;Node2 -->
<g id="edge18" class="edge"><title>Node12&#45;&gt;Node2</title>
<path fill="none" stroke="midnightblue" d="M899.61,-104.341C884.713,-89.0544 860.475,-67.1464 834.697,-56 783.275,-33.7652 621.887,-19.6149 543.828,-13.896"/>
<polygon fill="midnightblue" stroke="midnightblue" points="897.468,-107.17 906.877,-112.041 902.559,-102.366 897.468,-107.17"/>
</g>
<!-- Node12&#45;&gt;Node6 -->
<g id="edge19" class="edge"><title>Node12&#45;&gt;Node6</title>
<path fill="none" stroke="midnightblue" d="M884.478,-108.638C859.707,-98.504 825.298,-84.4274 803.515,-75.5164"/>
<polygon fill="midnightblue" stroke="midnightblue" points="883.201,-111.897 893.781,-112.444 885.851,-105.418 883.201,-111.897"/>
</g>
<!-- Node12&#45;&gt;Node7 -->
<g id="edge20" class="edge"><title>Node12&#45;&gt;Node7</title>
<path fill="none" stroke="midnightblue" d="M959.679,-109.583C994.637,-98.5632 1034.04,-80.026 1013.7,-56 1011.92,-53.9023 871.101,-31.1573 793.948,-18.8322"/>
<polygon fill="midnightblue" stroke="midnightblue" points="958.562,-106.264 949.99,-112.49 960.574,-112.969 958.562,-106.264"/>
</g>
<!-- Node13 -->
<g id="node13" class="node"><title>Node13</title>
<g id="a_node13"><a xlink:href="_h_a_l___p_w_m_8cpp.html" target="_top" xlink:title="Hardware Abstraction Layer (HAL) for the 10&#45;bit PWM outputs. ">
<polygon fill="none" stroke="black" points="920.697,-56.5 920.697,-75.5 1004.7,-75.5 1004.7,-56.5 920.697,-56.5"/>
<text text-anchor="middle" x="962.697" y="-63.5" font-family="Helvetica,sans-Serif" font-size="10.00">HAL_PWM.cpp</text>
</a>
</g>
</g>
<!-- Node12&#45;&gt;Node13 -->
<g id="edge21" class="edge"><title>Node12&#45;&gt;Node13</title>
<path fill="none" stroke="midnightblue" d="M929.425,-104.431C937.837,-94.9673 948.046,-83.4827 954.918,-75.7511"/>
<polygon fill="midnightblue" stroke="midnightblue" points="926.651,-102.284 922.623,-112.083 931.883,-106.934 926.651,-102.284"/>
</g>
<!-- Node14&#45;&gt;Node2 -->
<g id="edge23" class="edge"><title>Node14&#45;&gt;Node2</title>
<path fill="none" stroke="midnightblue" d="M344.695,-163.33C332.465,-155.917 319.504,-145.48 312.697,-132 300.341,-107.53 330.108,-60.1115 334.697,-56 368.5,-25.713 420.684,-15.5276 457.504,-12.2504"/>
<polygon fill="midnightblue" stroke="midnightblue" points="343.354,-166.59 353.791,-168.41 346.767,-160.479 343.354,-166.59"/>
</g>
<!-- Node14&#45;&gt;Node15 -->
<g id="edge24" class="edge"><title>Node14&#45;&gt;Node15</title>
<path fill="none" stroke="midnightblue" d="M427.741,-168.91C484.388,-160.298 575.933,-146.008 654.697,-132 657.581,-131.487 660.564,-130.94 663.561,-130.38"/>
<polygon fill="midnightblue" stroke="midnightblue" points="426.944,-165.491 417.581,-170.451 427.993,-172.412 426.944,-165.491"/>
</g>
<!-- Node16 -->
<g id="node16" class="node"><title>Node16</title>
<g id="a_node16"><a xlink:href="_h_a_l___serial___i_f_8cpp.html" target="_top" xlink:title="HAL_Serial_IF.cpp">
<polygon fill="none" stroke="black" points="321.697,-112.5 321.697,-131.5 419.697,-131.5 419.697,-112.5 321.697,-112.5"/>
<text text-anchor="middle" x="370.697" y="-119.5" font-family="Helvetica,sans-Serif" font-size="10.00">HAL_Serial_IF.cpp</text>
</a>
</g>
</g>
<!-- Node14&#45;&gt;Node16 -->
<g id="edge28" class="edge"><title>Node14&#45;&gt;Node16</title>
<path fill="none" stroke="midnightblue" d="M372.631,-157.805C372.137,-148.91 371.574,-138.78 371.183,-131.751"/>
<polygon fill="midnightblue" stroke="midnightblue" points="369.152,-158.293 373.202,-168.083 376.142,-157.904 369.152,-158.293"/>
</g>
<!-- Node15&#45;&gt;Node2 -->
<g id="edge25" class="edge"><title>Node15&#45;&gt;Node2</title>
<path fill="none" stroke="midnightblue" d="M687.106,-104.43C674.386,-89.8732 654.169,-69.0376 632.697,-56 603.724,-38.4072 566.962,-26.5983 539.596,-19.5086"/>
<polygon fill="midnightblue" stroke="midnightblue" points="684.539,-106.814 693.681,-112.168 689.873,-102.282 684.539,-106.814"/>
</g>
<!-- Node15&#45;&gt;Node6 -->
<g id="edge26" class="edge"><title>Node15&#45;&gt;Node6</title>
<path fill="none" stroke="midnightblue" d="M722.53,-106.622C737.51,-96.7574 756.895,-83.9919 769.555,-75.6545"/>
<polygon fill="midnightblue" stroke="midnightblue" points="720.299,-103.901 713.872,-112.324 724.149,-109.747 720.299,-103.901"/>
</g>
<!-- Node15&#45;&gt;Node8 -->
<g id="edge27" class="edge"><title>Node15&#45;&gt;Node8</title>
<path fill="none" stroke="midnightblue" d="M748.053,-109.979C781.453,-101.325 822.355,-88.6605 834.697,-76 849.862,-60.4439 853.559,-33.6706 854.44,-19.8411"/>
<polygon fill="midnightblue" stroke="midnightblue" points="746.803,-106.685 737.967,-112.531 748.521,-113.471 746.803,-106.685"/>
</g>
<!-- Node17&#45;&gt;Node2 -->
<g id="edge30" class="edge"><title>Node17&#45;&gt;Node2</title>
<path fill="none" stroke="midnightblue" d="M36.1241,-163.296C14.4942,-150.347 -10.2052,-130.243 4.69711,-112 61.8907,-41.9864 347.542,-19.2731 457.479,-13.054"/>
<polygon fill="midnightblue" stroke="midnightblue" points="34.6574,-166.488 45.0818,-168.381 38.1131,-160.4 34.6574,-166.488"/>
</g>
<!-- Node18 -->
<g id="node18" class="node"><title>Node18</title>
<g id="a_node18"><a xlink:href="_comm___inertial_8cpp.html" target="_top" xlink:title="Application file for intertial communication. ">
<polygon fill="none" stroke="black" points="13.6971,-112.5 13.6971,-131.5 111.697,-131.5 111.697,-112.5 13.6971,-112.5"/>
<text text-anchor="middle" x="62.6971" y="-119.5" font-family="Helvetica,sans-Serif" font-size="10.00">Comm_Inertial.cpp</text>
</a>
</g>
</g>
<!-- Node17&#45;&gt;Node18 -->
<g id="edge31" class="edge"><title>Node17&#45;&gt;Node18</title>
<path fill="none" stroke="midnightblue" d="M62.6971,-157.805C62.6971,-148.91 62.6971,-138.78 62.6971,-131.751"/>
<polygon fill="midnightblue" stroke="midnightblue" points="59.1972,-158.083 62.6971,-168.083 66.1972,-158.083 59.1972,-158.083"/>
</g>
<!-- Node19&#45;&gt;Node15 -->
<g id="edge34" class="edge"><title>Node19&#45;&gt;Node15</title>
<path fill="none" stroke="midnightblue" d="M700.697,-157.805C700.697,-148.91 700.697,-138.78 700.697,-131.751"/>
<polygon fill="midnightblue" stroke="midnightblue" points="697.197,-158.083 700.697,-168.083 704.197,-158.083 697.197,-158.083"/>
</g>
<!-- Node20 -->
<g id="node20" class="node"><title>Node20</title>
<g id="a_node20"><a xlink:href="_cbuffer_8cpp.html" target="_top" xlink:title="Cbuffer.cpp">
<polygon fill="none" stroke="black" points="756.197,-112.5 756.197,-131.5 821.197,-131.5 821.197,-112.5 756.197,-112.5"/>
<text text-anchor="middle" x="788.697" y="-119.5" font-family="Helvetica,sans-Serif" font-size="10.00">Cbuffer.cpp</text>
</a>
</g>
</g>
<!-- Node19&#45;&gt;Node20 -->
<g id="edge35" class="edge"><title>Node19&#45;&gt;Node20</title>
<path fill="none" stroke="midnightblue" d="M723.674,-162.901C739.81,-152.999 760.878,-140.071 774.593,-131.655"/>
<polygon fill="midnightblue" stroke="midnightblue" points="721.529,-160.111 714.836,-168.324 725.19,-166.077 721.529,-160.111"/>
</g>
</g>
</svg>
        <g id="navigator" transform="translate(0 0)" fill="#404254">
                <rect fill="#f2f5e9" fill-opacity="0.5" stroke="#606060" stroke-width=".5" x="0" y="0" width="60" height="60"/>
                <use id="zoomplus" xlink:href="#zoomPlus" x="17" y="9" onmousedown="handleZoom(evt,'in')"/>
                <use id="zoomminus" xlink:href="#zoomMin" x="42" y="9" onmousedown="handleZoom(evt,'out')"/>
                <use id="reset" xlink:href="#resetDef" x="30" y="36" onmousedown="handleReset()"/>
                <g id="arrowUp" xlink:href="#dirArrow" transform="translate(30 24)" onmousedown="handlePan(0,-1)">
                  <use xlink:href="#rim" fill="#404040">
                        <set attributeName="fill" to="#808080" begin="arrowUp.mouseover" end="arrowUp.mouseout"/>
                  </use>
                  <path fill="none" stroke="white" stroke-width="1.5" d="M0,-3.0v7 M-2.5,-0.5L0,-3.0L2.5,-0.5"/>
                </g>
                <g id="arrowRight" xlink:href="#dirArrow" transform="rotate(90) translate(36 -43)" onmousedown="handlePan(1,0)">
                  <use xlink:href="#rim" fill="#404040">
                        <set attributeName="fill" to="#808080" begin="arrowRight.mouseover" end="arrowRight.mouseout"/>
                  </use>
                  <path fill="none" stroke="white" stroke-width="1.5" d="M0,-3.0v7 M-2.5,-0.5L0,-3.0L2.5,-0.5"/>
                </g>
                <g id="arrowDown" xlink:href="#dirArrow" transform="rotate(180) translate(-30 -48)" onmousedown="handlePan(0,1)">
                  <use xlink:href="#rim" fill="#404040">
                        <set attributeName="fill" to="#808080" begin="arrowDown.mouseover" end="arrowDown.mouseout"/>
                  </use>
                  <path fill="none" stroke="white" stroke-width="1.5" d="M0,-3.0v7 M-2.5,-0.5L0,-3.0L2.5,-0.5"/>
                </g>
                <g id="arrowLeft" xlink:href="#dirArrow" transform="rotate(270) translate(-36 17)" onmousedown="handlePan(-1,0)">
                  <use xlink:href="#rim" fill="#404040">
                        <set attributeName="fill" to="#808080" begin="arrowLeft.mouseover" end="arrowLeft.mouseout"/>
                  </use>
                  <path fill="none" stroke="white" stroke-width="1.5" d="M0,-3.0v7 M-2.5,-0.5L0,-3.0L2.5,-0.5"/>
                </g>
        </g>
        <svg viewBox="0 0 15 15" width="100%" height="30px" preserveAspectRatio="xMaxYMin meet">
         <g id="arrow_out" transform="scale(0.3 0.3)">
          <a xlink:href="_a_d_a_s___types_8h__dep__incl_org.svg" target="_base">
           <rect id="button" ry="5" rx="5" y="6" x="6" height="38" width="38"
                fill="#f2f5e9" fill-opacity="0.5" stroke="#606060" stroke-width="1.0"/>
           <path id="arrow"
             d="M 11.500037,31.436501 C 11.940474,20.09759 22.043105,11.32322 32.158766,21.979434 L 37.068811,17.246167 C 37.068811,17.246167 37.088388,32 37.088388,32 L 22.160133,31.978069 C 22.160133,31.978069 26.997745,27.140456 26.997745,27.140456 C 18.528582,18.264221 13.291696,25.230495 11.500037,31.436501 z"
             style="fill:#404040;"/>
          </a>
         </g>
        </svg>
</svg>
