<?xml version="1.0" encoding="UTF-8" standalone="no"?>
<!DOCTYPE svg PUBLIC "-//W3C//DTD SVG 1.1//EN"
 "http://www.w3.org/Graphics/SVG/1.1/DTD/svg11.dtd">
<!-- Generated by graphviz version 2.38.0 (20140413.2041)
 -->
<!-- Title: setup Pages: 1 -->
<svg width="494pt" height="218pt"
 viewBox="0.00 0.00 494.00 218.00" xmlns="http://www.w3.org/2000/svg" xmlns:xlink="http://www.w3.org/1999/xlink">
<g id="graph0" class="graph" transform="scale(1 1) rotate(0) translate(4 214)">
<title>setup</title>
<!-- Node26 -->
<g id="node1" class="node"><title>Node26</title>
<polygon fill="#bfbfbf" stroke="black" points="0,-95.5 0,-114.5 41,-114.5 41,-95.5 0,-95.5"/>
<text text-anchor="middle" x="20.5" y="-102.5" font-family="Helvetica,sans-Serif" font-size="10.00">setup</text>
</g>
<!-- Node27 -->
<g id="node2" class="node"><title>Node27</title>
<g id="a_node2"><a xlink:href="_a_d_a_s___m_c_u_8ino.html#a13fba9b7b9c02542e403a1142b5ad344" target="_top" xlink:title="Enc_ISR_R">
<polygon fill="none" stroke="black" points="89.5,-190.5 89.5,-209.5 156.5,-209.5 156.5,-190.5 89.5,-190.5"/>
<text text-anchor="middle" x="123" y="-197.5" font-family="Helvetica,sans-Serif" font-size="10.00">Enc_ISR_R</text>
</a>
</g>
</g>
<!-- Node26&#45;&gt;Node27 -->
<g id="edge1" class="edge"><title>Node26&#45;&gt;Node27</title>
<path fill="none" stroke="midnightblue" d="M26.3358,-114.708C34.6734,-130.563 53.1764,-162.134 77,-181 79.036,-182.612 81.2289,-184.111 83.512,-185.5"/>
<polygon fill="midnightblue" stroke="midnightblue" points="82.1479,-188.738 92.6237,-190.321 85.422,-182.55 82.1479,-188.738"/>
</g>
<!-- Node29 -->
<g id="node4" class="node"><title>Node29</title>
<g id="a_node4"><a xlink:href="_a_d_a_s___m_c_u_8ino.html#a89c135c3ad9390c0a5c08c78a9c985d1" target="_top" xlink:title="Enc_ISR_L">
<polygon fill="none" stroke="black" points="90.5,-152.5 90.5,-171.5 155.5,-171.5 155.5,-152.5 90.5,-152.5"/>
<text text-anchor="middle" x="123" y="-159.5" font-family="Helvetica,sans-Serif" font-size="10.00">Enc_ISR_L</text>
</a>
</g>
</g>
<!-- Node26&#45;&gt;Node29 -->
<g id="edge3" class="edge"><title>Node26&#45;&gt;Node29</title>
<path fill="none" stroke="midnightblue" d="M33.8241,-114.506C44.7774,-122.69 61.4226,-134.491 77,-143 80.3212,-144.814 83.8519,-146.573 87.4181,-148.241"/>
<polygon fill="midnightblue" stroke="midnightblue" points="86.2619,-151.557 96.8217,-152.419 89.1041,-145.16 86.2619,-151.557"/>
</g>
<!-- Node30 -->
<g id="node5" class="node"><title>Node30</title>
<g id="a_node5"><a xlink:href="_a_d_a_s___m_c_u_8ino.html#a9f2f19081d81dba1b47615d1d9363281" target="_top" xlink:title="timerCallback">
<polygon fill="none" stroke="black" points="85,-114.5 85,-133.5 161,-133.5 161,-114.5 85,-114.5"/>
<text text-anchor="middle" x="123" y="-121.5" font-family="Helvetica,sans-Serif" font-size="10.00">timerCallback</text>
</a>
</g>
</g>
<!-- Node26&#45;&gt;Node30 -->
<g id="edge5" class="edge"><title>Node26&#45;&gt;Node30</title>
<path fill="none" stroke="midnightblue" d="M41.3556,-108.754C50.9123,-110.561 62.8185,-112.811 74.5234,-115.024"/>
<polygon fill="midnightblue" stroke="midnightblue" points="74.2174,-118.528 84.6936,-116.947 75.5178,-111.65 74.2174,-118.528"/>
</g>
<!-- Node34 -->
<g id="node9" class="node"><title>Node34</title>
<g id="a_node9"><a xlink:href="class_c_motor_ctrl.html#af4b1bec8e07e766aa2537d966f025e7a" target="_top" xlink:title="Initialization function of CMotorCtrl. ">
<polygon fill="none" stroke="black" points="82,-76.5 82,-95.5 164,-95.5 164,-76.5 82,-76.5"/>
<text text-anchor="middle" x="123" y="-83.5" font-family="Helvetica,sans-Serif" font-size="10.00">CMotorCtrl::Init</text>
</a>
</g>
</g>
<!-- Node26&#45;&gt;Node34 -->
<g id="edge9" class="edge"><title>Node26&#45;&gt;Node34</title>
<path fill="none" stroke="midnightblue" d="M41.3556,-101.246C50.2026,-99.5736 61.0631,-97.5204 71.9134,-95.4691"/>
<polygon fill="midnightblue" stroke="midnightblue" points="72.6414,-98.8936 81.8171,-93.5968 71.341,-92.0154 72.6414,-98.8936"/>
</g>
<!-- Node38 -->
<g id="node13" class="node"><title>Node38</title>
<g id="a_node13"><a xlink:href="class_c_serial.html#aed500bd204c4b37665d6d228333edafb" target="_top" xlink:title="CSerial::Init">
<polygon fill="none" stroke="black" points="89.5,-38.5 89.5,-57.5 156.5,-57.5 156.5,-38.5 89.5,-38.5"/>
<text text-anchor="middle" x="123" y="-45.5" font-family="Helvetica,sans-Serif" font-size="10.00">CSerial::Init</text>
</a>
</g>
</g>
<!-- Node26&#45;&gt;Node38 -->
<g id="edge13" class="edge"><title>Node26&#45;&gt;Node38</title>
<path fill="none" stroke="midnightblue" d="M33.8241,-95.494C44.7774,-87.3099 61.4226,-75.5089 77,-67 80.3212,-65.1859 83.8519,-63.4269 87.4181,-61.7589"/>
<polygon fill="midnightblue" stroke="midnightblue" points="89.1041,-64.8398 96.8217,-57.581 86.2619,-58.4427 89.1041,-64.8398"/>
</g>
<!-- Node39 -->
<g id="node14" class="node"><title>Node39</title>
<g id="a_node14"><a xlink:href="class_c_i_c_c_comms.html#a56fc0858965ed1f1f9b3295602472c7e" target="_top" xlink:title="CICCComms::Init">
<polygon fill="none" stroke="black" points="77,-0.5 77,-19.5 169,-19.5 169,-0.5 77,-0.5"/>
<text text-anchor="middle" x="123" y="-7.5" font-family="Helvetica,sans-Serif" font-size="10.00">CICCComms::Init</text>
</a>
</g>
</g>
<!-- Node26&#45;&gt;Node39 -->
<g id="edge14" class="edge"><title>Node26&#45;&gt;Node39</title>
<path fill="none" stroke="midnightblue" d="M26.3358,-95.2921C34.6734,-79.4372 53.1764,-47.8659 77,-29 79.036,-27.3877 81.2289,-25.8892 83.512,-24.5004"/>
<polygon fill="midnightblue" stroke="midnightblue" points="85.422,-27.4496 92.6237,-19.6788 82.1479,-21.2624 85.422,-27.4496"/>
</g>
<!-- Node28 -->
<g id="node3" class="node"><title>Node28</title>
<g id="a_node3"><a xlink:href="class_c_encoder.html#aa64baac0c38ee19af8572e8da4838582" target="_top" xlink:title="Interrupt Service Routine of the encoder. ">
<polygon fill="none" stroke="black" points="222,-171.5 222,-190.5 320,-190.5 320,-171.5 222,-171.5"/>
<text text-anchor="middle" x="271" y="-178.5" font-family="Helvetica,sans-Serif" font-size="10.00">CEncoder::EncISR</text>
</a>
</g>
</g>
<!-- Node27&#45;&gt;Node28 -->
<g id="edge2" class="edge"><title>Node27&#45;&gt;Node28</title>
<path fill="none" stroke="midnightblue" d="M156.765,-195.736C173.014,-193.621 193.13,-191.004 211.878,-188.564"/>
<polygon fill="midnightblue" stroke="midnightblue" points="212.36,-192.031 221.824,-187.269 211.456,-185.089 212.36,-192.031"/>
</g>
<!-- Node29&#45;&gt;Node28 -->
<g id="edge4" class="edge"><title>Node29&#45;&gt;Node28</title>
<path fill="none" stroke="midnightblue" d="M155.68,-166.123C172.102,-168.26 192.683,-170.938 211.841,-173.431"/>
<polygon fill="midnightblue" stroke="midnightblue" points="211.632,-176.934 222,-174.753 212.535,-169.992 211.632,-176.934"/>
</g>
<!-- Node31 -->
<g id="node6" class="node"><title>Node31</title>
<g id="a_node6"><a xlink:href="class_c_motor_ctrl.html#a8a76501cf8eaa85c5131bde5f33b6699" target="_top" xlink:title="Function of the CMotorCtrl where the sum of all peaks and the peaks per 150ms are read out...">
<polygon fill="none" stroke="black" points="219,-133.5 219,-152.5 323,-152.5 323,-133.5 219,-133.5"/>
<text text-anchor="middle" x="271" y="-140.5" font-family="Helvetica,sans-Serif" font-size="10.00">CMotorCtrl::readenc</text>
</a>
</g>
</g>
<!-- Node30&#45;&gt;Node31 -->
<g id="edge6" class="edge"><title>Node30&#45;&gt;Node31</title>
<path fill="none" stroke="midnightblue" d="M161.22,-128.844C175.702,-130.728 192.681,-132.938 208.861,-135.044"/>
<polygon fill="midnightblue" stroke="midnightblue" points="208.434,-138.517 218.802,-136.337 209.338,-131.576 208.434,-138.517"/>
</g>
<!-- Node32 -->
<g id="node7" class="node"><title>Node32</title>
<g id="a_node7"><a xlink:href="class_c_encoder.html#a5911a289a7ed8a32e0a89e6191e1651c" target="_top" xlink:title="Function to read out the peak count per 150ms. ">
<polygon fill="none" stroke="black" points="373,-152.5 373,-171.5 486,-171.5 486,-152.5 373,-152.5"/>
<text text-anchor="middle" x="429.5" y="-159.5" font-family="Helvetica,sans-Serif" font-size="10.00">CEncoder::ReadCount</text>
</a>
</g>
</g>
<!-- Node31&#45;&gt;Node32 -->
<g id="edge7" class="edge"><title>Node31&#45;&gt;Node32</title>
<path fill="none" stroke="midnightblue" d="M323.244,-149.221C335.889,-150.756 349.606,-152.422 362.83,-154.027"/>
<polygon fill="midnightblue" stroke="midnightblue" points="362.472,-157.509 372.821,-155.24 363.316,-150.56 362.472,-157.509"/>
</g>
<!-- Node33 -->
<g id="node8" class="node"><title>Node33</title>
<g id="a_node8"><a xlink:href="class_c_encoder.html#aa38f17afea1ce9b6efd9d95335a95d26" target="_top" xlink:title="Function to sum up the counted peaks. ">
<polygon fill="none" stroke="black" points="375.5,-114.5 375.5,-133.5 483.5,-133.5 483.5,-114.5 375.5,-114.5"/>
<text text-anchor="middle" x="429.5" y="-121.5" font-family="Helvetica,sans-Serif" font-size="10.00">CEncoder::ReadSum</text>
</a>
</g>
</g>
<!-- Node31&#45;&gt;Node33 -->
<g id="edge8" class="edge"><title>Node31&#45;&gt;Node33</title>
<path fill="none" stroke="midnightblue" d="M323.244,-136.779C336.658,-135.15 351.279,-133.375 365.239,-131.68"/>
<polygon fill="midnightblue" stroke="midnightblue" points="365.755,-135.143 375.26,-130.464 364.911,-128.194 365.755,-135.143"/>
</g>
<!-- Node35 -->
<g id="node10" class="node"><title>Node35</title>
<g id="a_node10"><a xlink:href="class_c_p_w_m_unit.html#aa36627883e91d3dec4a76fe187588071" target="_top" xlink:title="Function to initialize timers for 10&#45;bit PWM. ">
<polygon fill="none" stroke="black" points="205.5,-95.5 205.5,-114.5 336.5,-114.5 336.5,-95.5 205.5,-95.5"/>
<text text-anchor="middle" x="271" y="-102.5" font-family="Helvetica,sans-Serif" font-size="10.00">CPWMUnit::setupPWM10</text>
</a>
</g>
</g>
<!-- Node34&#45;&gt;Node35 -->
<g id="edge10" class="edge"><title>Node34&#45;&gt;Node35</title>
<path fill="none" stroke="midnightblue" d="M164.282,-91.2421C173.94,-92.499 184.562,-93.8813 195.234,-95.2702"/>
<polygon fill="midnightblue" stroke="midnightblue" points="195.084,-98.78 205.452,-96.5999 195.987,-91.8386 195.084,-98.78"/>
</g>
<!-- Node36 -->
<g id="node11" class="node"><title>Node36</title>
<g id="a_node11"><a xlink:href="class_c_i_m_u_unit.html#a589ccc2afbaadbdf9dbef34c5025a42f" target="_top" xlink:title="Intitialization function of IMU Unit. ">
<polygon fill="none" stroke="black" points="232.5,-57.5 232.5,-76.5 309.5,-76.5 309.5,-57.5 232.5,-57.5"/>
<text text-anchor="middle" x="271" y="-64.5" font-family="Helvetica,sans-Serif" font-size="10.00">CIMUUnit::Init</text>
</a>
</g>
</g>
<!-- Node34&#45;&gt;Node36 -->
<g id="edge11" class="edge"><title>Node34&#45;&gt;Node36</title>
<path fill="none" stroke="midnightblue" d="M164.282,-80.7579C182.228,-78.4224 203.501,-75.654 222.243,-73.215"/>
<polygon fill="midnightblue" stroke="midnightblue" points="222.892,-76.6601 232.357,-71.8988 221.989,-69.7186 222.892,-76.6601"/>
</g>
<!-- Node37 -->
<g id="node12" class="node"><title>Node37</title>
<g id="a_node12"><a xlink:href="class_chart_model_class.html#ab32e055f4e5692dd69685b4befbea75d" target="_top" xlink:title="model initialize function ">
<polygon fill="none" stroke="black" points="205,-19.5 205,-38.5 337,-38.5 337,-19.5 205,-19.5"/>
<text text-anchor="middle" x="271" y="-26.5" font-family="Helvetica,sans-Serif" font-size="10.00">ChartModelClass::initialize</text>
</a>
</g>
</g>
<!-- Node34&#45;&gt;Node37 -->
<g id="edge12" class="edge"><title>Node34&#45;&gt;Node37</title>
<path fill="none" stroke="midnightblue" d="M147.991,-76.321C154.832,-73.4399 162.256,-70.196 169,-67 185.349,-59.252 188.233,-54.7946 205,-48 210.584,-45.7371 216.538,-43.6187 222.489,-41.6777"/>
<polygon fill="midnightblue" stroke="midnightblue" points="223.927,-44.8961 232.436,-38.5845 221.848,-38.2118 223.927,-44.8961"/>
</g>
</g>
</svg>
