<?xml version="1.0" encoding="UTF-8" standalone="no"?>
<!DOCTYPE svg PUBLIC "-//W3C//DTD SVG 1.1//EN"
 "http://www.w3.org/Graphics/SVG/1.1/DTD/svg11.dtd">
<!-- Generated by graphviz version 2.38.0 (20140413.2041)
 -->
<!-- Title: loop Pages: 1 -->
<svg width="492pt" height="332pt"
 viewBox="0.00 0.00 492.00 332.00" xmlns="http://www.w3.org/2000/svg" xmlns:xlink="http://www.w3.org/1999/xlink">
<g id="graph0" class="graph" transform="scale(1 1) rotate(0) translate(4 328)">
<title>loop</title>
<!-- Node11 -->
<g id="node1" class="node"><title>Node11</title>
<polygon fill="#bfbfbf" stroke="black" points="0,-133.5 0,-152.5 35,-152.5 35,-133.5 0,-133.5"/>
<text text-anchor="middle" x="17.5" y="-140.5" font-family="Helvetica,sans-Serif" font-size="10.00">loop</text>
</g>
<!-- Node12 -->
<g id="node2" class="node"><title>Node12</title>
<g id="a_node2"><a xlink:href="class_c_i_c_c_comms.html#a8b3fa81307b3b9ba0e72b4aee8279c56" target="_top" xlink:title="CICCComms::Run">
<polygon fill="none" stroke="black" points="71,-190.5 71,-209.5 167,-209.5 167,-190.5 71,-190.5"/>
<text text-anchor="middle" x="119" y="-197.5" font-family="Helvetica,sans-Serif" font-size="10.00">CICCComms::Run</text>
</a>
</g>
</g>
<!-- Node11&#45;&gt;Node12 -->
<g id="edge1" class="edge"><title>Node11&#45;&gt;Node12</title>
<path fill="none" stroke="midnightblue" d="M35.3788,-152.669C51.0541,-161.649 74.61,-175.143 92.5638,-185.429"/>
<polygon fill="midnightblue" stroke="midnightblue" points="90.9536,-188.54 101.37,-190.474 94.4332,-182.466 90.9536,-188.54"/>
</g>
<!-- Node22 -->
<g id="node12" class="node"><title>Node22</title>
<g id="a_node12"><a xlink:href="class_c_motor_ctrl.html#a63e5dd36be027fe8a5e1acee5c1322c8" target="_top" xlink:title="Run function of CMotorCtrl which is executed in every loop. ">
<polygon fill="none" stroke="black" points="76,-57.5 76,-76.5 162,-76.5 162,-57.5 76,-57.5"/>
<text text-anchor="middle" x="119" y="-64.5" font-family="Helvetica,sans-Serif" font-size="10.00">CMotorCtrl::Run</text>
</a>
</g>
</g>
<!-- Node11&#45;&gt;Node22 -->
<g id="edge11" class="edge"><title>Node11&#45;&gt;Node22</title>
<path fill="none" stroke="midnightblue" d="M31.1017,-133.375C47.7738,-120.64 77.3775,-98.0283 97.3432,-82.7781"/>
<polygon fill="midnightblue" stroke="midnightblue" points="99.6781,-85.3988 105.501,-76.5473 95.429,-79.8359 99.6781,-85.3988"/>
</g>
<!-- Node13 -->
<g id="node3" class="node"><title>Node13</title>
<g id="a_node3"><a xlink:href="class_c_serial.html#abb43734223d937a86e7616636ea16024" target="_top" xlink:title="CSerial::Available">
<polygon fill="none" stroke="black" points="222.5,-304.5 222.5,-323.5 314.5,-323.5 314.5,-304.5 222.5,-304.5"/>
<text text-anchor="middle" x="268.5" y="-311.5" font-family="Helvetica,sans-Serif" font-size="10.00">CSerial::Available</text>
</a>
</g>
</g>
<!-- Node12&#45;&gt;Node13 -->
<g id="edge2" class="edge"><title>Node12&#45;&gt;Node13</title>
<path fill="none" stroke="midnightblue" d="M125.766,-209.688C137.703,-228.904 167.035,-271.968 203,-295 206.186,-297.04 209.598,-298.868 213.13,-300.505"/>
<polygon fill="midnightblue" stroke="midnightblue" points="212.098,-303.865 222.679,-304.407 214.746,-297.385 212.098,-303.865"/>
</g>
<!-- Node14 -->
<g id="node4" class="node"><title>Node14</title>
<g id="a_node4"><a xlink:href="class_c_serial.html#abad86c07f530569b2ceeea75bda485ad" target="_top" xlink:title="CSerial::GetData">
<polygon fill="none" stroke="black" points="223.5,-266.5 223.5,-285.5 313.5,-285.5 313.5,-266.5 223.5,-266.5"/>
<text text-anchor="middle" x="268.5" y="-273.5" font-family="Helvetica,sans-Serif" font-size="10.00">CSerial::GetData</text>
</a>
</g>
</g>
<!-- Node12&#45;&gt;Node14 -->
<g id="edge3" class="edge"><title>Node12&#45;&gt;Node14</title>
<path fill="none" stroke="midnightblue" d="M131.374,-209.561C146.734,-222.046 175.377,-243.856 203,-257 207.875,-259.32 213.094,-261.422 218.374,-263.308"/>
<polygon fill="midnightblue" stroke="midnightblue" points="217.287,-266.635 227.88,-266.473 219.498,-259.994 217.287,-266.635"/>
</g>
<!-- Node16 -->
<g id="node6" class="node"><title>Node16</title>
<g id="a_node6"><a xlink:href="class_c_motor_ctrl.html#a0ae095bb6003ee63086361661f32ad3a" target="_top" xlink:title="API Function of the CMotorCtrl to start driving. ">
<polygon fill="none" stroke="black" points="208,-228.5 208,-247.5 329,-247.5 329,-228.5 208,-228.5"/>
<text text-anchor="middle" x="268.5" y="-235.5" font-family="Helvetica,sans-Serif" font-size="10.00">CMotorCtrl::setDistance</text>
</a>
</g>
</g>
<!-- Node12&#45;&gt;Node16 -->
<g id="edge5" class="edge"><title>Node12&#45;&gt;Node16</title>
<path fill="none" stroke="midnightblue" d="M157.22,-209.589C176.509,-214.558 200.258,-220.677 220.771,-225.961"/>
<polygon fill="midnightblue" stroke="midnightblue" points="219.99,-229.374 230.547,-228.48 221.737,-222.596 219.99,-229.374"/>
</g>
<!-- Node18 -->
<g id="node8" class="node"><title>Node18</title>
<g id="a_node8"><a xlink:href="class_c_motor_ctrl.html#a1ee991f9511437a2e64ee75161063020" target="_top" xlink:title="API Function of the CMotorCtrl to start a rotation. ">
<polygon fill="none" stroke="black" points="206,-190.5 206,-209.5 331,-209.5 331,-190.5 206,-190.5"/>
<text text-anchor="middle" x="268.5" y="-197.5" font-family="Helvetica,sans-Serif" font-size="10.00">CMotorCtrl::startRotation</text>
</a>
</g>
</g>
<!-- Node12&#45;&gt;Node18 -->
<g id="edge7" class="edge"><title>Node12&#45;&gt;Node18</title>
<path fill="none" stroke="midnightblue" d="M167.075,-200C176.211,-200 185.978,-200 195.7,-200"/>
<polygon fill="midnightblue" stroke="midnightblue" points="195.786,-203.5 205.786,-200 195.786,-196.5 195.786,-203.5"/>
</g>
<!-- Node19 -->
<g id="node9" class="node"><title>Node19</title>
<g id="a_node9"><a xlink:href="class_c_motor_ctrl.html#af3e047be659fb9f49f1644ba2eca4684" target="_top" xlink:title="API Function of the CMotorCtrl to pause the current action of the motor control. ">
<polygon fill="none" stroke="black" points="210.5,-152.5 210.5,-171.5 326.5,-171.5 326.5,-152.5 210.5,-152.5"/>
<text text-anchor="middle" x="268.5" y="-159.5" font-family="Helvetica,sans-Serif" font-size="10.00">CMotorCtrl::pauseDrive</text>
</a>
</g>
</g>
<!-- Node12&#45;&gt;Node19 -->
<g id="edge8" class="edge"><title>Node12&#45;&gt;Node19</title>
<path fill="none" stroke="midnightblue" d="M157.22,-190.411C176.509,-185.442 200.258,-179.323 220.771,-174.039"/>
<polygon fill="midnightblue" stroke="midnightblue" points="221.737,-177.404 230.547,-171.52 219.99,-170.626 221.737,-177.404"/>
</g>
<!-- Node21 -->
<g id="node11" class="node"><title>Node21</title>
<g id="a_node11"><a xlink:href="class_c_motor_ctrl.html#a6b67180c355c2acf76d641f2817db66d" target="_top" xlink:title="API Function of the CMotorCtrl to continue the previously paused action of the motor control...">
<polygon fill="none" stroke="black" points="214,-114.5 214,-133.5 323,-133.5 323,-114.5 214,-114.5"/>
<text text-anchor="middle" x="268.5" y="-121.5" font-family="Helvetica,sans-Serif" font-size="10.00">CMotorCtrl::contDrive</text>
</a>
</g>
</g>
<!-- Node12&#45;&gt;Node21 -->
<g id="edge10" class="edge"><title>Node12&#45;&gt;Node21</title>
<path fill="none" stroke="midnightblue" d="M131.374,-190.439C146.734,-177.954 175.377,-156.144 203,-143 207.875,-140.68 213.094,-138.578 218.374,-136.692"/>
<polygon fill="midnightblue" stroke="midnightblue" points="219.498,-140.006 227.88,-133.527 217.287,-133.365 219.498,-140.006"/>
</g>
<!-- Node15 -->
<g id="node5" class="node"><title>Node15</title>
<g id="a_node5"><a xlink:href="class_c_serial.html#a941e5cae2ca04518925a3b32f51110a6" target="_top" xlink:title="CSerial::ReleaseBuffer">
<polygon fill="none" stroke="black" points="370,-266.5 370,-285.5 484,-285.5 484,-266.5 370,-266.5"/>
<text text-anchor="middle" x="427" y="-273.5" font-family="Helvetica,sans-Serif" font-size="10.00">CSerial::ReleaseBuffer</text>
</a>
</g>
</g>
<!-- Node14&#45;&gt;Node15 -->
<g id="edge4" class="edge"><title>Node14&#45;&gt;Node15</title>
<path fill="none" stroke="midnightblue" d="M313.51,-276C327.824,-276 344.041,-276 359.616,-276"/>
<polygon fill="midnightblue" stroke="midnightblue" points="359.732,-279.5 369.732,-276 359.732,-272.5 359.732,-279.5"/>
</g>
<!-- Node17 -->
<g id="node7" class="node"><title>Node17</title>
<g id="a_node7"><a xlink:href="class_c_encoder.html#ab71d6281e3f4d9f875f45368a3434980" target="_top" xlink:title="Function to reset all values of the encoder. ">
<polygon fill="none" stroke="black" points="383.5,-228.5 383.5,-247.5 470.5,-247.5 470.5,-228.5 383.5,-228.5"/>
<text text-anchor="middle" x="427" y="-235.5" font-family="Helvetica,sans-Serif" font-size="10.00">CEncoder::reset</text>
</a>
</g>
</g>
<!-- Node16&#45;&gt;Node17 -->
<g id="edge6" class="edge"><title>Node16&#45;&gt;Node17</title>
<path fill="none" stroke="midnightblue" d="M329.112,-238C343.57,-238 358.93,-238 373.056,-238"/>
<polygon fill="midnightblue" stroke="midnightblue" points="373.093,-241.5 383.093,-238 373.093,-234.5 373.093,-241.5"/>
</g>
<!-- Node20 -->
<g id="node10" class="node"><title>Node20</title>
<g id="a_node10"><a xlink:href="class_c_p_w_m_unit.html#a60f8be5eabf779f57e6392a0432bf7f2" target="_top" xlink:title="Function write duty cycle. ">
<polygon fill="none" stroke="black" points="371,-114.5 371,-133.5 483,-133.5 483,-114.5 371,-114.5"/>
<text text-anchor="middle" x="427" y="-121.5" font-family="Helvetica,sans-Serif" font-size="10.00">CPWMUnit::writeDuty</text>
</a>
</g>
</g>
<!-- Node19&#45;&gt;Node20 -->
<g id="edge9" class="edge"><title>Node19&#45;&gt;Node20</title>
<path fill="none" stroke="midnightblue" d="M308.992,-152.411C329.643,-147.396 355.114,-141.212 377.012,-135.895"/>
<polygon fill="midnightblue" stroke="midnightblue" points="377.901,-139.281 386.792,-133.52 376.249,-132.479 377.901,-139.281"/>
</g>
<!-- Node22&#45;&gt;Node20 -->
<g id="edge14" class="edge"><title>Node22&#45;&gt;Node20</title>
<path fill="none" stroke="midnightblue" d="M162.293,-74.1514C205.508,-81.543 274.523,-93.5801 334,-105 346.013,-107.306 358.883,-109.892 371.077,-112.396"/>
<polygon fill="midnightblue" stroke="midnightblue" points="370.627,-115.877 381.128,-114.471 372.043,-109.021 370.627,-115.877"/>
</g>
<!-- Node23 -->
<g id="node13" class="node"><title>Node23</title>
<g id="a_node13"><a xlink:href="class_chart_model_class.html#a77ef9eda8f1e119f93ad3c87b3a54bbd" target="_top" xlink:title="Real&#45;Time Model get method. ">
<polygon fill="none" stroke="black" points="203,-38.5 203,-57.5 334,-57.5 334,-38.5 203,-38.5"/>
<text text-anchor="middle" x="268.5" y="-45.5" font-family="Helvetica,sans-Serif" font-size="10.00">ChartModelClass::getRTM</text>
</a>
</g>
</g>
<!-- Node22&#45;&gt;Node23 -->
<g id="edge12" class="edge"><title>Node22&#45;&gt;Node23</title>
<path fill="none" stroke="midnightblue" d="M162.268,-61.5554C171.88,-60.3172 182.37,-58.9658 192.885,-57.6115"/>
<polygon fill="midnightblue" stroke="midnightblue" points="193.473,-61.0646 202.944,-56.3156 192.579,-54.122 193.473,-61.0646"/>
</g>
<!-- Node24 -->
<g id="node14" class="node"><title>Node24</title>
<g id="a_node14"><a xlink:href="class_c_i_m_u_unit.html#a396b045fac007e169289409ca213ac39" target="_top" xlink:title="Return function of IMU Unit Return Gyro Signal. ">
<polygon fill="none" stroke="black" points="212,-0.5 212,-19.5 325,-19.5 325,-0.5 212,-0.5"/>
<text text-anchor="middle" x="268.5" y="-7.5" font-family="Helvetica,sans-Serif" font-size="10.00">CIMUUnit::ReturnGyro</text>
</a>
</g>
</g>
<!-- Node22&#45;&gt;Node24 -->
<g id="edge13" class="edge"><title>Node22&#45;&gt;Node24</title>
<path fill="none" stroke="midnightblue" d="M138.794,-57.4593C155.407,-49.253 180.437,-37.4388 203,-29 209.027,-26.7457 215.45,-24.5812 221.817,-22.5725"/>
<polygon fill="midnightblue" stroke="midnightblue" points="223.171,-25.819 231.714,-19.5534 221.128,-19.1236 223.171,-25.819"/>
</g>
</g>
</svg>
