<?xml version="1.0" encoding="UTF-8" standalone="no"?>
<!DOCTYPE svg PUBLIC "-//W3C//DTD SVG 1.1//EN"
 "http://www.w3.org/Graphics/SVG/1.1/DTD/svg11.dtd">
<!-- Generated by graphviz version 2.38.0 (20140413.2041)
 -->
<!-- Title: ADAS_Debug.h Pages: 1 -->
<svg width="740pt" height="84pt"
 viewBox="0.00 0.00 740.00 84.00" xmlns="http://www.w3.org/2000/svg" xmlns:xlink="http://www.w3.org/1999/xlink">
<g id="graph0" class="graph" transform="scale(1 1) rotate(0) translate(4 80)">
<title>ADAS_Debug.h</title>
<!-- Node2 -->
<g id="node1" class="node"><title>Node2</title>
<polygon fill="#bfbfbf" stroke="black" points="328.5,-56.5 328.5,-75.5 413.5,-75.5 413.5,-56.5 328.5,-56.5"/>
<text text-anchor="middle" x="371" y="-63.5" font-family="Helvetica,sans-Serif" font-size="10.00">ADAS_Debug.h</text>
</g>
<!-- Node3 -->
<g id="node2" class="node"><title>Node3</title>
<g id="a_node2"><a xlink:href="_a_d_a_s___m_c_u_8ino.html" target="_top" xlink:title="Main file for the NavU of the ADAS project. ">
<polygon fill="none" stroke="black" points="0,-0.5 0,-19.5 86,-19.5 86,-0.5 0,-0.5"/>
<text text-anchor="middle" x="43" y="-7.5" font-family="Helvetica,sans-Serif" font-size="10.00">ADAS_MCU.ino</text>
</a>
</g>
</g>
<!-- Node2&#45;&gt;Node3 -->
<g id="edge1" class="edge"><title>Node2&#45;&gt;Node3</title>
<path fill="none" stroke="midnightblue" d="M318.467,-56.5912C262.92,-47.6633 172.75,-33.0664 95,-20 92.1087,-19.5141 89.1277,-19.0091 86.1247,-18.4972"/>
<polygon fill="midnightblue" stroke="midnightblue" points="317.997,-60.0604 328.425,-58.1906 319.107,-53.149 317.997,-60.0604"/>
</g>
<!-- Node4 -->
<g id="node3" class="node"><title>Node4</title>
<g id="a_node3"><a xlink:href="_app___motor_ctrl_8cpp.html" target="_top" xlink:title="Application file for environmental data. ">
<polygon fill="none" stroke="black" points="104,-0.5 104,-19.5 202,-19.5 202,-0.5 104,-0.5"/>
<text text-anchor="middle" x="153" y="-7.5" font-family="Helvetica,sans-Serif" font-size="10.00">App_MotorCtrl.cpp</text>
</a>
</g>
</g>
<!-- Node2&#45;&gt;Node4 -->
<g id="edge2" class="edge"><title>Node2&#45;&gt;Node4</title>
<path fill="none" stroke="midnightblue" d="M326.688,-54.0237C285.508,-43.8232 225.027,-28.8414 187.381,-19.5164"/>
<polygon fill="midnightblue" stroke="midnightblue" points="325.909,-57.4364 336.457,-56.4435 327.592,-50.6417 325.909,-57.4364"/>
</g>
<!-- Node5 -->
<g id="node4" class="node"><title>Node5</title>
<g id="a_node4"><a xlink:href="_comm___i_c_c_8cpp.html" target="_top" xlink:title="Comm_ICC.cpp">
<polygon fill="none" stroke="black" points="220.5,-0.5 220.5,-19.5 305.5,-19.5 305.5,-0.5 220.5,-0.5"/>
<text text-anchor="middle" x="263" y="-7.5" font-family="Helvetica,sans-Serif" font-size="10.00">Comm_ICC.cpp</text>
</a>
</g>
</g>
<!-- Node2&#45;&gt;Node5 -->
<g id="edge3" class="edge"><title>Node2&#45;&gt;Node5</title>
<path fill="none" stroke="midnightblue" d="M344.452,-51.7261C324.454,-41.7271 297.613,-28.3065 280.309,-19.6545"/>
<polygon fill="midnightblue" stroke="midnightblue" points="343.138,-54.9823 353.648,-56.324 346.269,-48.7213 343.138,-54.9823"/>
</g>
<!-- Node6 -->
<g id="node5" class="node"><title>Node6</title>
<g id="a_node5"><a xlink:href="_h_a_l___encoder_8cpp.html" target="_top" xlink:title="HAL_Encoder.cpp">
<polygon fill="none" stroke="black" points="323.5,-0.5 323.5,-19.5 418.5,-19.5 418.5,-0.5 323.5,-0.5"/>
<text text-anchor="middle" x="371" y="-7.5" font-family="Helvetica,sans-Serif" font-size="10.00">HAL_Encoder.cpp</text>
</a>
</g>
</g>
<!-- Node2&#45;&gt;Node6 -->
<g id="edge4" class="edge"><title>Node2&#45;&gt;Node6</title>
<path fill="none" stroke="midnightblue" d="M371,-45.8045C371,-36.9102 371,-26.7798 371,-19.7511"/>
<polygon fill="midnightblue" stroke="midnightblue" points="367.5,-46.083 371,-56.083 374.5,-46.083 367.5,-46.083"/>
</g>
<!-- Node7 -->
<g id="node6" class="node"><title>Node7</title>
<g id="a_node6"><a xlink:href="_h_a_l___i_m_u_8cpp.html" target="_top" xlink:title="Application file for IMU. ">
<polygon fill="none" stroke="black" points="436.5,-0.5 436.5,-19.5 513.5,-19.5 513.5,-0.5 436.5,-0.5"/>
<text text-anchor="middle" x="475" y="-7.5" font-family="Helvetica,sans-Serif" font-size="10.00">HAL_IMU.cpp</text>
</a>
</g>
</g>
<!-- Node2&#45;&gt;Node7 -->
<g id="edge5" class="edge"><title>Node2&#45;&gt;Node7</title>
<path fill="none" stroke="midnightblue" d="M396.828,-51.5895C416.057,-41.6052 441.745,-28.2672 458.332,-19.6545"/>
<polygon fill="midnightblue" stroke="midnightblue" points="394.971,-48.6095 387.709,-56.324 398.197,-54.822 394.971,-48.6095"/>
</g>
<!-- Node8 -->
<g id="node7" class="node"><title>Node8</title>
<g id="a_node7"><a xlink:href="_h_a_l___p_w_m_8cpp.html" target="_top" xlink:title="Hardware Abstraction Layer (HAL) for the 10&#45;bit PWM outputs. ">
<polygon fill="none" stroke="black" points="532,-0.5 532,-19.5 616,-19.5 616,-0.5 532,-0.5"/>
<text text-anchor="middle" x="574" y="-7.5" font-family="Helvetica,sans-Serif" font-size="10.00">HAL_PWM.cpp</text>
</a>
</g>
</g>
<!-- Node2&#45;&gt;Node8 -->
<g id="edge6" class="edge"><title>Node2&#45;&gt;Node8</title>
<path fill="none" stroke="midnightblue" d="M412.994,-53.8291C451.323,-43.6333 507.152,-28.7823 541.985,-19.5164"/>
<polygon fill="midnightblue" stroke="midnightblue" points="411.93,-50.4904 403.166,-56.4435 413.73,-57.2551 411.93,-50.4904"/>
</g>
<!-- Node9 -->
<g id="node8" class="node"><title>Node9</title>
<g id="a_node8"><a xlink:href="_h_a_l___serial___i_f_8cpp.html" target="_top" xlink:title="HAL_Serial_IF.cpp">
<polygon fill="none" stroke="black" points="634,-0.5 634,-19.5 732,-19.5 732,-0.5 634,-0.5"/>
<text text-anchor="middle" x="683" y="-7.5" font-family="Helvetica,sans-Serif" font-size="10.00">HAL_Serial_IF.cpp</text>
</a>
</g>
</g>
<!-- Node2&#45;&gt;Node9 -->
<g id="edge7" class="edge"><title>Node2&#45;&gt;Node9</title>
<path fill="none" stroke="midnightblue" d="M423.911,-55.8424C482.648,-45.6763 576.687,-29.4004 633.859,-19.5052"/>
<polygon fill="midnightblue" stroke="midnightblue" points="422.985,-52.4505 413.728,-57.6048 424.179,-59.348 422.985,-52.4505"/>
</g>
</g>
</svg>
