<?xml version="1.0" encoding="UTF-8" standalone="no"?>
<!DOCTYPE svg PUBLIC "-//W3C//DTD SVG 1.1//EN"
 "http://www.w3.org/Graphics/SVG/1.1/DTD/svg11.dtd">
<!-- Generated by graphviz version 2.38.0 (20140413.2041)
 -->
<!-- Title: ADAS_Cfg.h Pages: 1 -->
<svg width="838pt" height="196pt"
 viewBox="0.00 0.00 837.92 196.00" xmlns="http://www.w3.org/2000/svg" xmlns:xlink="http://www.w3.org/1999/xlink">
<g id="graph0" class="graph" transform="scale(1 1) rotate(0) translate(4 192)">
<title>ADAS_Cfg.h</title>
<!-- Node1 -->
<g id="node1" class="node"><title>Node1</title>
<polygon fill="#bfbfbf" stroke="black" points="272.165,-168.5 272.165,-187.5 343.165,-187.5 343.165,-168.5 272.165,-168.5"/>
<text text-anchor="middle" x="307.665" y="-175.5" font-family="Helvetica,sans-Serif" font-size="10.00">ADAS_Cfg.h</text>
</g>
<!-- Node2 -->
<g id="node2" class="node"><title>Node2</title>
<g id="a_node2"><a xlink:href="_a_d_a_s___debug_8h.html" target="_top" xlink:title="ADAS_Debug.h">
<polygon fill="none" stroke="black" points="495.165,-112.5 495.165,-131.5 580.165,-131.5 580.165,-112.5 495.165,-112.5"/>
<text text-anchor="middle" x="537.665" y="-119.5" font-family="Helvetica,sans-Serif" font-size="10.00">ADAS_Debug.h</text>
</a>
</g>
</g>
<!-- Node1&#45;&gt;Node2 -->
<g id="edge1" class="edge"><title>Node1&#45;&gt;Node2</title>
<path fill="none" stroke="midnightblue" d="M353.354,-166.273C396.724,-156.09 461.074,-140.982 501.136,-131.577"/>
<polygon fill="midnightblue" stroke="midnightblue" points="352.286,-162.929 343.35,-168.622 353.886,-169.743 352.286,-162.929"/>
</g>
<!-- Node3 -->
<g id="node3" class="node"><title>Node3</title>
<g id="a_node3"><a xlink:href="_a_d_a_s___m_c_u_8ino.html" target="_top" xlink:title="Main file for the NavU of the ADAS project. ">
<polygon fill="none" stroke="black" points="40.6652,-0.5 40.6652,-19.5 126.665,-19.5 126.665,-0.5 40.6652,-0.5"/>
<text text-anchor="middle" x="83.6652" y="-7.5" font-family="Helvetica,sans-Serif" font-size="10.00">ADAS_MCU.ino</text>
</a>
</g>
</g>
<!-- Node1&#45;&gt;Node3 -->
<g id="edge9" class="edge"><title>Node1&#45;&gt;Node3</title>
<path fill="none" stroke="midnightblue" d="M261.84,-177.149C185.681,-176.313 38.1844,-169.724 5.66523,-132 -9.66131,-114.22 9.75248,-77.9635 25.6652,-56 36.9562,-40.4157 55.1064,-27.5598 68.0959,-19.6357"/>
<polygon fill="midnightblue" stroke="midnightblue" points="262.066,-180.651 272.094,-177.232 262.122,-173.651 262.066,-180.651"/>
</g>
<!-- Node4 -->
<g id="node4" class="node"><title>Node4</title>
<g id="a_node4"><a xlink:href="_app___motor_ctrl_8cpp.html" target="_top" xlink:title="Application file for environmental data. ">
<polygon fill="none" stroke="black" points="437.665,-0.5 437.665,-19.5 535.665,-19.5 535.665,-0.5 437.665,-0.5"/>
<text text-anchor="middle" x="486.665" y="-7.5" font-family="Helvetica,sans-Serif" font-size="10.00">App_MotorCtrl.cpp</text>
</a>
</g>
</g>
<!-- Node1&#45;&gt;Node4 -->
<g id="edge26" class="edge"><title>Node1&#45;&gt;Node4</title>
<path fill="none" stroke="midnightblue" d="M353.875,-175.55C470.099,-170.798 769.33,-151.336 825.665,-76 830.989,-68.8814 831.522,-62.6862 825.665,-56 806.862,-34.5362 625.116,-19.9316 535.764,-13.9888"/>
<polygon fill="midnightblue" stroke="midnightblue" points="353.394,-172.066 343.538,-175.954 353.667,-179.061 353.394,-172.066"/>
</g>
<!-- Node6 -->
<g id="node6" class="node"><title>Node6</title>
<g id="a_node6"><a xlink:href="_h_a_l___encoder_8cpp.html" target="_top" xlink:title="HAL_Encoder.cpp">
<polygon fill="none" stroke="black" points="217.165,-56.5 217.165,-75.5 312.165,-75.5 312.165,-56.5 217.165,-56.5"/>
<text text-anchor="middle" x="264.665" y="-63.5" font-family="Helvetica,sans-Serif" font-size="10.00">HAL_Encoder.cpp</text>
</a>
</g>
</g>
<!-- Node1&#45;&gt;Node6 -->
<g id="edge27" class="edge"><title>Node1&#45;&gt;Node6</title>
<path fill="none" stroke="midnightblue" d="M300.628,-158.998C291.246,-134.997 275.012,-93.4683 268.024,-75.5914"/>
<polygon fill="midnightblue" stroke="midnightblue" points="297.39,-160.329 304.291,-168.368 303.91,-157.78 297.39,-160.329"/>
</g>
<!-- Node9 -->
<g id="node9" class="node"><title>Node9</title>
<g id="a_node9"><a xlink:href="_h_a_l___serial___i_f_8cpp.html" target="_top" xlink:title="HAL_Serial_IF.cpp">
<polygon fill="none" stroke="black" points="718.665,-56.5 718.665,-75.5 816.665,-75.5 816.665,-56.5 718.665,-56.5"/>
<text text-anchor="middle" x="767.665" y="-63.5" font-family="Helvetica,sans-Serif" font-size="10.00">HAL_Serial_IF.cpp</text>
</a>
</g>
</g>
<!-- Node1&#45;&gt;Node9 -->
<g id="edge28" class="edge"><title>Node1&#45;&gt;Node9</title>
<path fill="none" stroke="midnightblue" d="M353.578,-172.354C409.672,-166.06 507.171,-153.118 588.665,-132 648.034,-116.615 715.35,-89.3976 747.924,-75.5734"/>
<polygon fill="midnightblue" stroke="midnightblue" points="353.156,-168.879 343.599,-173.452 353.921,-175.837 353.156,-168.879"/>
</g>
<!-- Node10 -->
<g id="node10" class="node"><title>Node10</title>
<g id="a_node10"><a xlink:href="_h_a_l___encoder_8h.html" target="_top" xlink:title="HAL_Encoder.h">
<polygon fill="none" stroke="black" points="132.165,-112.5 132.165,-131.5 217.165,-131.5 217.165,-112.5 132.165,-112.5"/>
<text text-anchor="middle" x="174.665" y="-119.5" font-family="Helvetica,sans-Serif" font-size="10.00">HAL_Encoder.h</text>
</a>
</g>
</g>
<!-- Node1&#45;&gt;Node10 -->
<g id="edge10" class="edge"><title>Node1&#45;&gt;Node10</title>
<path fill="none" stroke="midnightblue" d="M277.217,-164.638C252.258,-154.504 217.588,-140.427 195.641,-131.516"/>
<polygon fill="midnightblue" stroke="midnightblue" points="276.009,-167.924 286.591,-168.444 278.642,-161.439 276.009,-167.924"/>
</g>
<!-- Node12 -->
<g id="node12" class="node"><title>Node12</title>
<g id="a_node12"><a xlink:href="_h_a_l___p_w_m_8h.html" target="_top" xlink:title="HAL_PWM.h">
<polygon fill="none" stroke="black" points="303.665,-112.5 303.665,-131.5 377.665,-131.5 377.665,-112.5 303.665,-112.5"/>
<text text-anchor="middle" x="340.665" y="-119.5" font-family="Helvetica,sans-Serif" font-size="10.00">HAL_PWM.h</text>
</a>
</g>
</g>
<!-- Node1&#45;&gt;Node12 -->
<g id="edge17" class="edge"><title>Node1&#45;&gt;Node12</title>
<path fill="none" stroke="midnightblue" d="M318.497,-159.275C324.137,-150.045 330.783,-139.17 335.317,-131.751"/>
<polygon fill="midnightblue" stroke="midnightblue" points="315.343,-157.725 313.115,-168.083 321.316,-161.375 315.343,-157.725"/>
</g>
<!-- Node13 -->
<g id="node13" class="node"><title>Node13</title>
<g id="a_node13"><a xlink:href="_comm___i_c_c_8h.html" target="_top" xlink:title="Comm_ICC.h">
<polygon fill="none" stroke="black" points="14.6652,-112.5 14.6652,-131.5 88.6652,-131.5 88.6652,-112.5 14.6652,-112.5"/>
<text text-anchor="middle" x="51.6652" y="-119.5" font-family="Helvetica,sans-Serif" font-size="10.00">Comm_ICC.h</text>
</a>
</g>
</g>
<!-- Node1&#45;&gt;Node13 -->
<g id="edge22" class="edge"><title>Node1&#45;&gt;Node13</title>
<path fill="none" stroke="midnightblue" d="M261.989,-167.365C212.628,-156.953 134.896,-140.556 89.0354,-130.883"/>
<polygon fill="midnightblue" stroke="midnightblue" points="261.562,-170.852 272.07,-169.492 263.007,-164.003 261.562,-170.852"/>
</g>
<!-- Node2&#45;&gt;Node3 -->
<g id="edge2" class="edge"><title>Node2&#45;&gt;Node3</title>
<path fill="none" stroke="midnightblue" d="M532.148,-102.627C526.554,-87.4315 516.312,-66.6741 499.665,-56 431.24,-12.125 216.209,-30.9384 135.665,-20 132.76,-19.6055 129.769,-19.1689 126.758,-18.7071"/>
<polygon fill="midnightblue" stroke="midnightblue" points="528.949,-104.1 535.425,-112.486 535.592,-101.892 528.949,-104.1"/>
</g>
<!-- Node2&#45;&gt;Node4 -->
<g id="edge3" class="edge"><title>Node2&#45;&gt;Node4</title>
<path fill="none" stroke="midnightblue" d="M554.852,-105.299C567.33,-91.926 580.448,-72.3383 570.665,-56 559.617,-37.5473 538.128,-26.2313 519.652,-19.5623"/>
<polygon fill="midnightblue" stroke="midnightblue" points="552.361,-102.84 547.758,-112.383 557.307,-107.794 552.361,-102.84"/>
</g>
<!-- Node5 -->
<g id="node5" class="node"><title>Node5</title>
<g id="a_node5"><a xlink:href="_comm___i_c_c_8cpp.html" target="_top" xlink:title="Comm_ICC.cpp">
<polygon fill="none" stroke="black" points="145.165,-0.5 145.165,-19.5 230.165,-19.5 230.165,-0.5 145.165,-0.5"/>
<text text-anchor="middle" x="187.665" y="-7.5" font-family="Helvetica,sans-Serif" font-size="10.00">Comm_ICC.cpp</text>
</a>
</g>
</g>
<!-- Node2&#45;&gt;Node5 -->
<g id="edge4" class="edge"><title>Node2&#45;&gt;Node5</title>
<path fill="none" stroke="midnightblue" d="M541.961,-102.137C544.064,-87.6119 544.085,-68.0409 532.665,-56 492.138,-13.2689 313.177,-9.52625 230.192,-10.1688"/>
<polygon fill="midnightblue" stroke="midnightblue" points="538.504,-101.579 540.102,-112.053 545.385,-102.869 538.504,-101.579"/>
</g>
<!-- Node2&#45;&gt;Node6 -->
<g id="edge5" class="edge"><title>Node2&#45;&gt;Node6</title>
<path fill="none" stroke="midnightblue" d="M485.068,-110.596C433.547,-100.405 355.972,-85.0606 307.923,-75.5565"/>
<polygon fill="midnightblue" stroke="midnightblue" points="484.52,-114.055 495.009,-112.563 485.878,-107.189 484.52,-114.055"/>
</g>
<!-- Node7 -->
<g id="node7" class="node"><title>Node7</title>
<g id="a_node7"><a xlink:href="_h_a_l___i_m_u_8cpp.html" target="_top" xlink:title="Application file for IMU. ">
<polygon fill="none" stroke="black" points="623.165,-56.5 623.165,-75.5 700.165,-75.5 700.165,-56.5 623.165,-56.5"/>
<text text-anchor="middle" x="661.665" y="-63.5" font-family="Helvetica,sans-Serif" font-size="10.00">HAL_IMU.cpp</text>
</a>
</g>
</g>
<!-- Node2&#45;&gt;Node7 -->
<g id="edge6" class="edge"><title>Node2&#45;&gt;Node7</title>
<path fill="none" stroke="midnightblue" d="M566.673,-108.368C589.894,-98.2553 621.828,-84.3486 642.109,-75.5164"/>
<polygon fill="midnightblue" stroke="midnightblue" points="565.084,-105.242 557.313,-112.444 567.879,-111.66 565.084,-105.242"/>
</g>
<!-- Node8 -->
<g id="node8" class="node"><title>Node8</title>
<g id="a_node8"><a xlink:href="_h_a_l___p_w_m_8cpp.html" target="_top" xlink:title="Hardware Abstraction Layer (HAL) for the 10&#45;bit PWM outputs. ">
<polygon fill="none" stroke="black" points="406.665,-56.5 406.665,-75.5 490.665,-75.5 490.665,-56.5 406.665,-56.5"/>
<text text-anchor="middle" x="448.665" y="-63.5" font-family="Helvetica,sans-Serif" font-size="10.00">HAL_PWM.cpp</text>
</a>
</g>
</g>
<!-- Node2&#45;&gt;Node8 -->
<g id="edge7" class="edge"><title>Node2&#45;&gt;Node8</title>
<path fill="none" stroke="midnightblue" d="M514.427,-106.901C498.107,-96.9986 476.8,-84.0705 462.929,-75.6545"/>
<polygon fill="midnightblue" stroke="midnightblue" points="513.001,-110.129 523.366,-112.324 516.632,-104.144 513.001,-110.129"/>
</g>
<!-- Node2&#45;&gt;Node9 -->
<g id="edge8" class="edge"><title>Node2&#45;&gt;Node9</title>
<path fill="none" stroke="midnightblue" d="M583.866,-110.153C627.323,-99.95 691.506,-84.8809 731.392,-75.5164"/>
<polygon fill="midnightblue" stroke="midnightblue" points="583.045,-106.75 574.109,-112.444 584.645,-113.565 583.045,-106.75"/>
</g>
<!-- Node10&#45;&gt;Node3 -->
<g id="edge11" class="edge"><title>Node10&#45;&gt;Node3</title>
<path fill="none" stroke="midnightblue" d="M143.657,-107.979C129.32,-100.532 113.179,-89.8797 102.665,-76 89.7448,-58.9436 85.5924,-33.2862 84.2714,-19.8782"/>
<polygon fill="midnightblue" stroke="midnightblue" points="142.218,-111.172 152.74,-112.413 145.288,-104.881 142.218,-111.172"/>
</g>
<!-- Node10&#45;&gt;Node6 -->
<g id="edge16" class="edge"><title>Node10&#45;&gt;Node6</title>
<path fill="none" stroke="midnightblue" d="M197.703,-107.177C214.264,-97.2407 236.083,-84.1492 250.241,-75.6545"/>
<polygon fill="midnightblue" stroke="midnightblue" points="195.899,-104.178 189.125,-112.324 199.501,-110.18 195.899,-104.178"/>
</g>
<!-- Node11 -->
<g id="node11" class="node"><title>Node11</title>
<g id="a_node11"><a xlink:href="_app___motor_ctrl_8h.html" target="_top" xlink:title="Header file for motor control unit. ">
<polygon fill="none" stroke="black" points="112.165,-56.5 112.165,-75.5 199.165,-75.5 199.165,-56.5 112.165,-56.5"/>
<text text-anchor="middle" x="155.665" y="-63.5" font-family="Helvetica,sans-Serif" font-size="10.00">App_MotorCtrl.h</text>
</a>
</g>
</g>
<!-- Node10&#45;&gt;Node11 -->
<g id="edge12" class="edge"><title>Node10&#45;&gt;Node11</title>
<path fill="none" stroke="midnightblue" d="M168.119,-102.396C164.941,-93.362 161.272,-82.936 158.744,-75.7511"/>
<polygon fill="midnightblue" stroke="midnightblue" points="164.907,-103.812 171.528,-112.083 171.51,-101.488 164.907,-103.812"/>
</g>
<!-- Node11&#45;&gt;Node3 -->
<g id="edge13" class="edge"><title>Node11&#45;&gt;Node3</title>
<path fill="none" stroke="midnightblue" d="M135.8,-50.1008C122.842,-40.3824 106.368,-28.0269 95.4438,-19.8339"/>
<polygon fill="midnightblue" stroke="midnightblue" points="133.997,-53.1239 144.097,-56.324 138.197,-47.5239 133.997,-53.1239"/>
</g>
<!-- Node11&#45;&gt;Node4 -->
<g id="edge14" class="edge"><title>Node11&#45;&gt;Node4</title>
<path fill="none" stroke="midnightblue" d="M209.252,-55.748C295.013,-41.4485 383.81,-27.2633 437.499,-18.7554"/>
<polygon fill="midnightblue" stroke="midnightblue" points="208.639,-52.3018 199.352,-57.4015 209.792,-59.2062 208.639,-52.3018"/>
</g>
<!-- Node11&#45;&gt;Node5 -->
<g id="edge15" class="edge"><title>Node11&#45;&gt;Node5</title>
<path fill="none" stroke="midnightblue" d="M166.169,-47.2747C171.638,-38.0454 178.083,-27.1703 182.479,-19.7511"/>
<polygon fill="midnightblue" stroke="midnightblue" points="163.036,-45.6957 160.949,-56.083 169.058,-49.2644 163.036,-45.6957"/>
</g>
<!-- Node12&#45;&gt;Node3 -->
<g id="edge18" class="edge"><title>Node12&#45;&gt;Node3</title>
<path fill="none" stroke="midnightblue" d="M339.95,-102.342C338.351,-87.6155 333.706,-67.6698 320.665,-56 317.047,-52.7621 194.233,-30.589 126.864,-18.622"/>
<polygon fill="midnightblue" stroke="midnightblue" points="336.462,-102.639 340.668,-112.363 343.444,-102.138 336.462,-102.639"/>
</g>
<!-- Node12&#45;&gt;Node4 -->
<g id="edge20" class="edge"><title>Node12&#45;&gt;Node4</title>
<path fill="none" stroke="midnightblue" d="M352.54,-104.156C363.155,-89.9892 379.762,-69.8809 397.665,-56 418.19,-40.0867 445.218,-27.3723 464.082,-19.5715"/>
<polygon fill="midnightblue" stroke="midnightblue" points="349.534,-102.339 346.476,-112.483 355.192,-106.46 349.534,-102.339"/>
</g>
<!-- Node12&#45;&gt;Node8 -->
<g id="edge21" class="edge"><title>Node12&#45;&gt;Node8</title>
<path fill="none" stroke="midnightblue" d="M367.213,-107.726C387.211,-97.7271 414.052,-84.3065 431.356,-75.6545"/>
<polygon fill="midnightblue" stroke="midnightblue" points="365.396,-104.721 358.017,-112.324 368.527,-110.982 365.396,-104.721"/>
</g>
<!-- Node12&#45;&gt;Node11 -->
<g id="edge19" class="edge"><title>Node12&#45;&gt;Node11</title>
<path fill="none" stroke="midnightblue" d="M301.499,-109.568C266.6,-99.381 216.316,-84.7034 184.842,-75.5164"/>
<polygon fill="midnightblue" stroke="midnightblue" points="300.771,-113.001 311.351,-112.444 302.733,-106.282 300.771,-113.001"/>
</g>
<!-- Node13&#45;&gt;Node3 -->
<g id="edge23" class="edge"><title>Node13&#45;&gt;Node3</title>
<path fill="none" stroke="midnightblue" d="M39.6068,-103.675C31.8941,-90.3151 24.556,-71.5538 31.6652,-56 39.0602,-39.821 55.4625,-27.2312 67.8819,-19.5333"/>
<polygon fill="midnightblue" stroke="midnightblue" points="36.7791,-105.752 45.0878,-112.326 42.6921,-102.005 36.7791,-105.752"/>
</g>
<!-- Node13&#45;&gt;Node5 -->
<g id="edge25" class="edge"><title>Node13&#45;&gt;Node5</title>
<path fill="none" stroke="midnightblue" d="M62.2581,-103.752C71.5825,-89.6096 86.2118,-69.7521 102.665,-56 121.755,-40.0448 147.417,-27.4182 165.535,-19.6506"/>
<polygon fill="midnightblue" stroke="midnightblue" points="59.1159,-102.17 56.693,-112.484 65.019,-105.932 59.1159,-102.17"/>
</g>
<!-- Node13&#45;&gt;Node11 -->
<g id="edge24" class="edge"><title>Node13&#45;&gt;Node11</title>
<path fill="none" stroke="midnightblue" d="M77.4928,-107.59C96.7219,-97.6052 122.41,-84.2672 138.997,-75.6545"/>
<polygon fill="midnightblue" stroke="midnightblue" points="75.6367,-104.61 68.3746,-112.324 78.8625,-110.822 75.6367,-104.61"/>
</g>
</g>
</svg>
