<?xml version="1.0" encoding="UTF-8" standalone="no"?>
<!DOCTYPE svg PUBLIC "-//W3C//DTD SVG 1.1//EN"
 "http://www.w3.org/Graphics/SVG/1.1/DTD/svg11.dtd">
<!-- Generated by graphviz version 2.38.0 (20140413.2041)
 -->
<!-- Title: timerCallback Pages: 1 -->
<svg width="373pt" height="66pt"
 viewBox="0.00 0.00 373.00 66.00" xmlns="http://www.w3.org/2000/svg" xmlns:xlink="http://www.w3.org/1999/xlink">
<g id="graph0" class="graph" transform="scale(1 1) rotate(0) translate(4 62)">
<title>timerCallback</title>
<!-- Node41 -->
<g id="node1" class="node"><title>Node41</title>
<polygon fill="#bfbfbf" stroke="black" points="0,-19.5 0,-38.5 76,-38.5 76,-19.5 0,-19.5"/>
<text text-anchor="middle" x="38" y="-26.5" font-family="Helvetica,sans-Serif" font-size="10.00">timerCallback</text>
</g>
<!-- Node42 -->
<g id="node2" class="node"><title>Node42</title>
<g id="a_node2"><a xlink:href="class_c_motor_ctrl.html#a8a76501cf8eaa85c5131bde5f33b6699" target="_top" xlink:title="Function of the CMotorCtrl where the sum of all peaks and the peaks per 150ms are read out...">
<polygon fill="none" stroke="black" points="112,-19.5 112,-38.5 216,-38.5 216,-19.5 112,-19.5"/>
<text text-anchor="middle" x="164" y="-26.5" font-family="Helvetica,sans-Serif" font-size="10.00">CMotorCtrl::readenc</text>
</a>
</g>
</g>
<!-- Node41&#45;&gt;Node42 -->
<g id="edge1" class="edge"><title>Node41&#45;&gt;Node42</title>
<path fill="none" stroke="midnightblue" d="M76.2041,-29C84.2028,-29 92.8608,-29 101.506,-29"/>
<polygon fill="midnightblue" stroke="midnightblue" points="101.608,-32.5001 111.608,-29 101.608,-25.5001 101.608,-32.5001"/>
</g>
<!-- Node43 -->
<g id="node3" class="node"><title>Node43</title>
<g id="a_node3"><a xlink:href="class_c_encoder.html#a5911a289a7ed8a32e0a89e6191e1651c" target="_top" xlink:title="Function to read out the peak count per 150ms. ">
<polygon fill="none" stroke="black" points="252,-38.5 252,-57.5 365,-57.5 365,-38.5 252,-38.5"/>
<text text-anchor="middle" x="308.5" y="-45.5" font-family="Helvetica,sans-Serif" font-size="10.00">CEncoder::ReadCount</text>
</a>
</g>
</g>
<!-- Node42&#45;&gt;Node43 -->
<g id="edge2" class="edge"><title>Node42&#45;&gt;Node43</title>
<path fill="none" stroke="midnightblue" d="M216.043,-35.8058C224.424,-36.9232 233.211,-38.0948 241.886,-39.2514"/>
<polygon fill="midnightblue" stroke="midnightblue" points="241.612,-42.7458 251.987,-40.5982 242.537,-35.8072 241.612,-42.7458"/>
</g>
<!-- Node44 -->
<g id="node4" class="node"><title>Node44</title>
<g id="a_node4"><a xlink:href="class_c_encoder.html#aa38f17afea1ce9b6efd9d95335a95d26" target="_top" xlink:title="Function to sum up the counted peaks. ">
<polygon fill="none" stroke="black" points="254.5,-0.5 254.5,-19.5 362.5,-19.5 362.5,-0.5 254.5,-0.5"/>
<text text-anchor="middle" x="308.5" y="-7.5" font-family="Helvetica,sans-Serif" font-size="10.00">CEncoder::ReadSum</text>
</a>
</g>
</g>
<!-- Node42&#45;&gt;Node44 -->
<g id="edge3" class="edge"><title>Node42&#45;&gt;Node44</title>
<path fill="none" stroke="midnightblue" d="M216.043,-22.1942C225.192,-20.9744 234.826,-19.6899 244.269,-18.4307"/>
<polygon fill="midnightblue" stroke="midnightblue" points="244.96,-21.8697 254.41,-17.0787 244.035,-14.9311 244.96,-21.8697"/>
</g>
</g>
</svg>
