<?xml version="1.0" encoding="UTF-8" standalone="no"?>
<!DOCTYPE svg PUBLIC "-//W3C//DTD SVG 1.1//EN"
 "http://www.w3.org/Graphics/SVG/1.1/DTD/svg11.dtd">
<!-- Generated by graphviz version 2.38.0 (20140413.2041)
 -->
<!-- Title: App_MotorCtrl.h Pages: 1 -->
<svg width="314pt" height="84pt"
 viewBox="0.00 0.00 313.50 84.00" xmlns="http://www.w3.org/2000/svg" xmlns:xlink="http://www.w3.org/1999/xlink">
<g id="graph0" class="graph" transform="scale(1 1) rotate(0) translate(4 80)">
<title>App_MotorCtrl.h</title>
<!-- Node15 -->
<g id="node1" class="node"><title>Node15</title>
<polygon fill="#bfbfbf" stroke="black" points="109.5,-56.5 109.5,-75.5 196.5,-75.5 196.5,-56.5 109.5,-56.5"/>
<text text-anchor="middle" x="153" y="-63.5" font-family="Helvetica,sans-Serif" font-size="10.00">App_MotorCtrl.h</text>
</g>
<!-- Node16 -->
<g id="node2" class="node"><title>Node16</title>
<g id="a_node2"><a xlink:href="_a_d_a_s___m_c_u_8ino.html" target="_top" xlink:title="Main file for the NavU of the ADAS project. ">
<polygon fill="none" stroke="black" points="0,-0.5 0,-19.5 86,-19.5 86,-0.5 0,-0.5"/>
<text text-anchor="middle" x="43" y="-7.5" font-family="Helvetica,sans-Serif" font-size="10.00">ADAS_MCU.ino</text>
</a>
</g>
</g>
<!-- Node15&#45;&gt;Node16 -->
<g id="edge1" class="edge"><title>Node15&#45;&gt;Node16</title>
<path fill="none" stroke="midnightblue" d="M126.238,-51.8622C105.841,-41.8492 78.3341,-28.3458 60.6295,-19.6545"/>
<polygon fill="midnightblue" stroke="midnightblue" points="124.808,-55.059 135.327,-56.324 127.892,-48.7753 124.808,-55.059"/>
</g>
<!-- Node17 -->
<g id="node3" class="node"><title>Node17</title>
<g id="a_node3"><a xlink:href="_app___motor_ctrl_8cpp.html" target="_top" xlink:title="Application file for environmental data. ">
<polygon fill="none" stroke="black" points="104,-0.5 104,-19.5 202,-19.5 202,-0.5 104,-0.5"/>
<text text-anchor="middle" x="153" y="-7.5" font-family="Helvetica,sans-Serif" font-size="10.00">App_MotorCtrl.cpp</text>
</a>
</g>
</g>
<!-- Node15&#45;&gt;Node17 -->
<g id="edge2" class="edge"><title>Node15&#45;&gt;Node17</title>
<path fill="none" stroke="midnightblue" d="M153,-45.8045C153,-36.9102 153,-26.7798 153,-19.7511"/>
<polygon fill="midnightblue" stroke="midnightblue" points="149.5,-46.083 153,-56.083 156.5,-46.083 149.5,-46.083"/>
</g>
<!-- Node18 -->
<g id="node4" class="node"><title>Node18</title>
<g id="a_node4"><a xlink:href="_comm___i_c_c_8cpp.html" target="_top" xlink:title="Comm_ICC.cpp">
<polygon fill="none" stroke="black" points="220.5,-0.5 220.5,-19.5 305.5,-19.5 305.5,-0.5 220.5,-0.5"/>
<text text-anchor="middle" x="263" y="-7.5" font-family="Helvetica,sans-Serif" font-size="10.00">Comm_ICC.cpp</text>
</a>
</g>
</g>
<!-- Node15&#45;&gt;Node18 -->
<g id="edge3" class="edge"><title>Node15&#45;&gt;Node18</title>
<path fill="none" stroke="midnightblue" d="M179.762,-51.8622C200.159,-41.8492 227.666,-28.3458 245.37,-19.6545"/>
<polygon fill="midnightblue" stroke="midnightblue" points="178.108,-48.7753 170.673,-56.324 181.192,-55.059 178.108,-48.7753"/>
</g>
</g>
</svg>
