<?xml version="1.0" encoding="UTF-8" standalone="no"?>
<!DOCTYPE svg PUBLIC "-//W3C//DTD SVG 1.1//EN"
 "http://www.w3.org/Graphics/SVG/1.1/DTD/svg11.dtd">
<!-- Generated by graphviz version 2.38.0 (20140413.2041)
 -->
<!-- Title: App_Stateflow.h Pages: 1 -->
<svg width="353pt" height="140pt"
 viewBox="0.00 0.00 353.00 140.00" xmlns="http://www.w3.org/2000/svg" xmlns:xlink="http://www.w3.org/1999/xlink">
<g id="graph0" class="graph" transform="scale(1 1) rotate(0) translate(4 136)">
<title>App_Stateflow.h</title>
<!-- Node2 -->
<g id="node1" class="node"><title>Node2</title>
<polygon fill="#bfbfbf" stroke="black" points="139.5,-112.5 139.5,-131.5 226.5,-131.5 226.5,-112.5 139.5,-112.5"/>
<text text-anchor="middle" x="183" y="-119.5" font-family="Helvetica,sans-Serif" font-size="10.00">App_Stateflow.h</text>
</g>
<!-- Node3 -->
<g id="node2" class="node"><title>Node3</title>
<g id="a_node2"><a xlink:href="_app___motor_ctrl_8h.html" target="_top" xlink:title="Header file for motor control unit. ">
<polygon fill="none" stroke="black" points="103.5,-56.5 103.5,-75.5 190.5,-75.5 190.5,-56.5 103.5,-56.5"/>
<text text-anchor="middle" x="147" y="-63.5" font-family="Helvetica,sans-Serif" font-size="10.00">App_MotorCtrl.h</text>
</a>
</g>
</g>
<!-- Node2&#45;&gt;Node3 -->
<g id="edge1" class="edge"><title>Node2&#45;&gt;Node3</title>
<path fill="none" stroke="midnightblue" d="M171.377,-103.566C165.183,-94.2747 157.832,-83.2484 152.834,-75.7511"/>
<polygon fill="midnightblue" stroke="midnightblue" points="168.596,-105.704 177.055,-112.083 174.42,-101.821 168.596,-105.704"/>
</g>
<!-- Node4 -->
<g id="node3" class="node"><title>Node4</title>
<g id="a_node3"><a xlink:href="_a_d_a_s___m_c_u_8ino.html" target="_top" xlink:title="Main file for the NavU of the ADAS project. ">
<polygon fill="none" stroke="black" points="0,-0.5 0,-19.5 86,-19.5 86,-0.5 0,-0.5"/>
<text text-anchor="middle" x="43" y="-7.5" font-family="Helvetica,sans-Serif" font-size="10.00">ADAS_MCU.ino</text>
</a>
</g>
</g>
<!-- Node2&#45;&gt;Node4 -->
<g id="edge5" class="edge"><title>Node2&#45;&gt;Node4</title>
<path fill="none" stroke="midnightblue" d="M150.03,-108.467C132.304,-100.752 110.719,-89.7095 94,-76 73.5917,-59.2651 56.1736,-33.0075 47.9903,-19.5614"/>
<polygon fill="midnightblue" stroke="midnightblue" points="148.849,-111.767 159.425,-112.406 151.556,-105.311 148.849,-111.767"/>
</g>
<!-- Node5 -->
<g id="node4" class="node"><title>Node5</title>
<g id="a_node4"><a xlink:href="_app___motor_ctrl_8cpp.html" target="_top" xlink:title="Application file for environmental data. ">
<polygon fill="none" stroke="black" points="208,-0.5 208,-19.5 306,-19.5 306,-0.5 208,-0.5"/>
<text text-anchor="middle" x="257" y="-7.5" font-family="Helvetica,sans-Serif" font-size="10.00">App_MotorCtrl.cpp</text>
</a>
</g>
</g>
<!-- Node2&#45;&gt;Node5 -->
<g id="edge6" class="edge"><title>Node2&#45;&gt;Node5</title>
<path fill="none" stroke="midnightblue" d="M194.465,-103.957C210.502,-80.1184 239.032,-37.7088 251.22,-19.5914"/>
<polygon fill="midnightblue" stroke="midnightblue" points="191.484,-102.118 188.807,-112.368 197.292,-106.025 191.484,-102.118"/>
</g>
<!-- Node7 -->
<g id="node6" class="node"><title>Node7</title>
<g id="a_node6"><a xlink:href="_app___stateflow_8cpp.html" target="_top" xlink:title="Application file for Stateflow. ">
<polygon fill="none" stroke="black" points="247,-56.5 247,-75.5 345,-75.5 345,-56.5 247,-56.5"/>
<text text-anchor="middle" x="296" y="-63.5" font-family="Helvetica,sans-Serif" font-size="10.00">App_Stateflow.cpp</text>
</a>
</g>
</g>
<!-- Node2&#45;&gt;Node7 -->
<g id="edge7" class="edge"><title>Node2&#45;&gt;Node7</title>
<path fill="none" stroke="midnightblue" d="M210.003,-108.096C231.114,-98.0073 259.862,-84.2697 278.179,-75.5164"/>
<polygon fill="midnightblue" stroke="midnightblue" points="208.419,-104.974 200.905,-112.444 211.437,-111.29 208.419,-104.974"/>
</g>
<!-- Node3&#45;&gt;Node4 -->
<g id="edge2" class="edge"><title>Node3&#45;&gt;Node4</title>
<path fill="none" stroke="midnightblue" d="M121.172,-51.5895C101.943,-41.6052 76.2553,-28.2672 59.6679,-19.6545"/>
<polygon fill="midnightblue" stroke="midnightblue" points="119.803,-54.822 130.291,-56.324 123.029,-48.6095 119.803,-54.822"/>
</g>
<!-- Node3&#45;&gt;Node5 -->
<g id="edge3" class="edge"><title>Node3&#45;&gt;Node5</title>
<path fill="none" stroke="midnightblue" d="M173.762,-51.8622C194.159,-41.8492 221.666,-28.3458 239.37,-19.6545"/>
<polygon fill="midnightblue" stroke="midnightblue" points="172.108,-48.7753 164.673,-56.324 175.192,-55.059 172.108,-48.7753"/>
</g>
<!-- Node6 -->
<g id="node5" class="node"><title>Node6</title>
<g id="a_node5"><a xlink:href="_comm___i_c_c_8cpp.html" target="_top" xlink:title="Comm_ICC.cpp">
<polygon fill="none" stroke="black" points="104.5,-0.5 104.5,-19.5 189.5,-19.5 189.5,-0.5 104.5,-0.5"/>
<text text-anchor="middle" x="147" y="-7.5" font-family="Helvetica,sans-Serif" font-size="10.00">Comm_ICC.cpp</text>
</a>
</g>
</g>
<!-- Node3&#45;&gt;Node6 -->
<g id="edge4" class="edge"><title>Node3&#45;&gt;Node6</title>
<path fill="none" stroke="midnightblue" d="M147,-45.8045C147,-36.9102 147,-26.7798 147,-19.7511"/>
<polygon fill="midnightblue" stroke="midnightblue" points="143.5,-46.083 147,-56.083 150.5,-46.083 143.5,-46.083"/>
</g>
</g>
</svg>
