<?xml version="1.0" encoding="UTF-8" standalone="no"?>
<!DOCTYPE svg PUBLIC "-//W3C//DTD SVG 1.1//EN"
 "http://www.w3.org/Graphics/SVG/1.1/DTD/svg11.dtd">
<!-- Generated by graphviz version 2.38.0 (20140413.2041)
 -->
<!-- Title: App_Stateflowtypes.h Pages: 1 -->
<svg width="365pt" height="196pt"
 viewBox="0.00 0.00 365.42 196.00" xmlns="http://www.w3.org/2000/svg" xmlns:xlink="http://www.w3.org/1999/xlink">
<g id="graph0" class="graph" transform="scale(1 1) rotate(0) translate(4 192)">
<title>App_Stateflowtypes.h</title>
<!-- Node1 -->
<g id="node1" class="node"><title>Node1</title>
<polygon fill="#bfbfbf" stroke="black" points="127.5,-168.5 127.5,-187.5 238.5,-187.5 238.5,-168.5 127.5,-168.5"/>
<text text-anchor="middle" x="183" y="-175.5" font-family="Helvetica,sans-Serif" font-size="10.00">App_Stateflowtypes.h</text>
</g>
<!-- Node2 -->
<g id="node2" class="node"><title>Node2</title>
<g id="a_node2"><a xlink:href="_app___stateflow_8h.html" target="_top" xlink:title="Application file for Stateflow. ">
<polygon fill="none" stroke="black" points="175.5,-112.5 175.5,-131.5 262.5,-131.5 262.5,-112.5 175.5,-112.5"/>
<text text-anchor="middle" x="219" y="-119.5" font-family="Helvetica,sans-Serif" font-size="10.00">App_Stateflow.h</text>
</a>
</g>
</g>
<!-- Node1&#45;&gt;Node2 -->
<g id="edge1" class="edge"><title>Node1&#45;&gt;Node2</title>
<path fill="none" stroke="midnightblue" d="M194.623,-159.566C200.817,-150.275 208.168,-139.248 213.166,-131.751"/>
<polygon fill="midnightblue" stroke="midnightblue" points="191.58,-157.821 188.945,-168.083 197.404,-161.704 191.58,-157.821"/>
</g>
<!-- Node3 -->
<g id="node3" class="node"><title>Node3</title>
<g id="a_node3"><a xlink:href="_app___motor_ctrl_8h.html" target="_top" xlink:title="Header file for motor control unit. ">
<polygon fill="none" stroke="black" points="103.5,-56.5 103.5,-75.5 190.5,-75.5 190.5,-56.5 103.5,-56.5"/>
<text text-anchor="middle" x="147" y="-63.5" font-family="Helvetica,sans-Serif" font-size="10.00">App_MotorCtrl.h</text>
</a>
</g>
</g>
<!-- Node1&#45;&gt;Node3 -->
<g id="edge9" class="edge"><title>Node1&#45;&gt;Node3</title>
<path fill="none" stroke="midnightblue" d="M175.785,-158.863C172.633,-150.704 168.984,-140.921 166,-132 159.361,-112.153 152.769,-88.4812 149.368,-75.8983"/>
<polygon fill="midnightblue" stroke="midnightblue" points="172.633,-160.412 179.543,-168.444 179.15,-157.856 172.633,-160.412"/>
</g>
<!-- Node4 -->
<g id="node4" class="node"><title>Node4</title>
<g id="a_node4"><a xlink:href="_a_d_a_s___m_c_u_8ino.html" target="_top" xlink:title="Main file for the NavU of the ADAS project. ">
<polygon fill="none" stroke="black" points="0,-0.5 0,-19.5 86,-19.5 86,-0.5 0,-0.5"/>
<text text-anchor="middle" x="43" y="-7.5" font-family="Helvetica,sans-Serif" font-size="10.00">ADAS_MCU.ino</text>
</a>
</g>
</g>
<!-- Node1&#45;&gt;Node4 -->
<g id="edge10" class="edge"><title>Node1&#45;&gt;Node4</title>
<path fill="none" stroke="midnightblue" d="M162.013,-162.465C137.436,-144.546 96.8112,-112.012 71,-76 57.9724,-57.8238 49.3163,-32.6388 45.4006,-19.5975"/>
<polygon fill="midnightblue" stroke="midnightblue" points="160.115,-165.411 170.284,-168.385 164.189,-159.718 160.115,-165.411"/>
</g>
<!-- Node5 -->
<g id="node5" class="node"><title>Node5</title>
<g id="a_node5"><a xlink:href="_app___motor_ctrl_8cpp.html" target="_top" xlink:title="Application file for environmental data. ">
<polygon fill="none" stroke="black" points="208,-0.5 208,-19.5 306,-19.5 306,-0.5 208,-0.5"/>
<text text-anchor="middle" x="257" y="-7.5" font-family="Helvetica,sans-Serif" font-size="10.00">App_MotorCtrl.cpp</text>
</a>
</g>
</g>
<!-- Node1&#45;&gt;Node5 -->
<g id="edge11" class="edge"><title>Node1&#45;&gt;Node5</title>
<path fill="none" stroke="midnightblue" d="M226.779,-165.397C268.358,-151.725 328.228,-124.478 354,-76 369.178,-47.4504 327.788,-29.2441 294.428,-19.575"/>
<polygon fill="midnightblue" stroke="midnightblue" points="225.645,-162.084 217.159,-168.427 227.748,-168.761 225.645,-162.084"/>
</g>
<!-- Node2&#45;&gt;Node3 -->
<g id="edge2" class="edge"><title>Node2&#45;&gt;Node3</title>
<path fill="none" stroke="midnightblue" d="M199.134,-106.101C186.177,-96.3824 169.703,-84.0269 158.779,-75.8339"/>
<polygon fill="midnightblue" stroke="midnightblue" points="197.332,-109.124 207.432,-112.324 201.532,-103.524 197.332,-109.124"/>
</g>
<!-- Node2&#45;&gt;Node4 -->
<g id="edge6" class="edge"><title>Node2&#45;&gt;Node4</title>
<path fill="none" stroke="midnightblue" d="M168.555,-109.799C144.447,-102.781 116.103,-91.9648 94,-76 72.605,-60.5465 55.6186,-33.7283 47.7562,-19.8655"/>
<polygon fill="midnightblue" stroke="midnightblue" points="167.679,-113.188 178.251,-112.487 169.549,-106.443 167.679,-113.188"/>
</g>
<!-- Node2&#45;&gt;Node5 -->
<g id="edge7" class="edge"><title>Node2&#45;&gt;Node5</title>
<path fill="none" stroke="midnightblue" d="M223.721,-102.784C227.27,-89.6533 232.456,-71.576 238,-56 242.607,-43.0573 248.992,-28.4749 253.059,-19.5109"/>
<polygon fill="midnightblue" stroke="midnightblue" points="220.328,-101.924 221.153,-112.487 227.095,-103.715 220.328,-101.924"/>
</g>
<!-- Node7 -->
<g id="node7" class="node"><title>Node7</title>
<g id="a_node7"><a xlink:href="_app___stateflow_8cpp.html" target="_top" xlink:title="Application file for Stateflow. ">
<polygon fill="none" stroke="black" points="247,-56.5 247,-75.5 345,-75.5 345,-56.5 247,-56.5"/>
<text text-anchor="middle" x="296" y="-63.5" font-family="Helvetica,sans-Serif" font-size="10.00">App_Stateflow.cpp</text>
</a>
</g>
</g>
<!-- Node2&#45;&gt;Node7 -->
<g id="edge8" class="edge"><title>Node2&#45;&gt;Node7</title>
<path fill="none" stroke="midnightblue" d="M239.901,-106.342C253.911,-96.5169 271.883,-83.9132 283.659,-75.6545"/>
<polygon fill="midnightblue" stroke="midnightblue" points="237.549,-103.717 231.371,-112.324 241.568,-109.448 237.549,-103.717"/>
</g>
<!-- Node3&#45;&gt;Node4 -->
<g id="edge3" class="edge"><title>Node3&#45;&gt;Node4</title>
<path fill="none" stroke="midnightblue" d="M121.172,-51.5895C101.943,-41.6052 76.2553,-28.2672 59.6679,-19.6545"/>
<polygon fill="midnightblue" stroke="midnightblue" points="119.803,-54.822 130.291,-56.324 123.029,-48.6095 119.803,-54.822"/>
</g>
<!-- Node3&#45;&gt;Node5 -->
<g id="edge4" class="edge"><title>Node3&#45;&gt;Node5</title>
<path fill="none" stroke="midnightblue" d="M173.762,-51.8622C194.159,-41.8492 221.666,-28.3458 239.37,-19.6545"/>
<polygon fill="midnightblue" stroke="midnightblue" points="172.108,-48.7753 164.673,-56.324 175.192,-55.059 172.108,-48.7753"/>
</g>
<!-- Node6 -->
<g id="node6" class="node"><title>Node6</title>
<g id="a_node6"><a xlink:href="_comm___i_c_c_8cpp.html" target="_top" xlink:title="Comm_ICC.cpp">
<polygon fill="none" stroke="black" points="104.5,-0.5 104.5,-19.5 189.5,-19.5 189.5,-0.5 104.5,-0.5"/>
<text text-anchor="middle" x="147" y="-7.5" font-family="Helvetica,sans-Serif" font-size="10.00">Comm_ICC.cpp</text>
</a>
</g>
</g>
<!-- Node3&#45;&gt;Node6 -->
<g id="edge5" class="edge"><title>Node3&#45;&gt;Node6</title>
<path fill="none" stroke="midnightblue" d="M147,-45.8045C147,-36.9102 147,-26.7798 147,-19.7511"/>
<polygon fill="midnightblue" stroke="midnightblue" points="143.5,-46.083 147,-56.083 150.5,-46.083 143.5,-46.083"/>
</g>
</g>
</svg>
