<?xml version="1.0" encoding="UTF-8" standalone="no"?>
<!DOCTYPE svg PUBLIC "-//W3C//DTD SVG 1.1//EN"
 "http://www.w3.org/Graphics/SVG/1.1/DTD/svg11.dtd">
<!-- Generated by graphviz version 2.38.0 (20140413.2041)
 -->
<!-- Title: App_MotorCtrl.cpp Pages: 1 -->
<!--zoomable 252 -->
<svg id="main" version="1.1" xmlns="http://www.w3.org/2000/svg" xmlns:xlink="http://www.w3.org/1999/xlink" xml:space="preserve" onload="init(evt)">
<style type="text/css"><![CDATA[
.edge:hover path { stroke: red; }
.edge:hover polygon { stroke: red; fill: red; }
]]></style>
<script type="text/javascript"><![CDATA[
var edges = document.getElementsByTagName('g');
if (edges && edges.length) {
  for (var i=0;i<edges.length;i++) {
    if (edges[i].id.substr(0,4)=='edge') {
      edges[i].setAttribute('class','edge');
    }
  }
}
]]></script>
        <defs>
                <circle id="rim" cx="0" cy="0" r="7"/>
                <circle id="rim2" cx="0" cy="0" r="3.5"/>
                <g id="zoomPlus">
                        <use xlink:href="#rim" fill="#404040">
                                <set attributeName="fill" to="#808080" begin="zoomplus.mouseover" end="zoomplus.mouseout"/>
                        </use>
                        <path d="M-4,0h8M0,-4v8" fill="none" stroke="white" stroke-width="1.5" pointer-events="none"/>
                </g>
                <g id="zoomMin">
                        <use xlink:href="#rim" fill="#404040">
                                <set attributeName="fill" to="#808080" begin="zoomminus.mouseover" end="zoomminus.mouseout"/>
                        </use>
                        <path d="M-4,0h8" fill="none" stroke="white" stroke-width="1.5" pointer-events="none"/>
                </g>
                <g id="dirArrow">
                        <path fill="none" stroke="white" stroke-width="1.5" d="M0,-3.0v7 M-2.5,-0.5L0,-3.0L2.5,-0.5"/>
                </g>
               <g id="resetDef">
                       <use xlink:href="#rim2" fill="#404040">
                               <set attributeName="fill" to="#808080" begin="reset.mouseover" end="reset.mouseout"/>
                       </use>
               </g>
        </defs>

<script type="text/javascript">
var viewWidth = 1135;
var viewHeight = 252;
var sectionId = 'dynsection-0';
</script>
<script xlink:href="svgpan.js"/>
<svg id="graph" class="graph">
<g id="viewport">
<title>App_MotorCtrl.cpp</title>
<!-- Node0 -->
<g id="node1" class="node"><title>Node0</title>
<polygon fill="#bfbfbf" stroke="black" points="667,-224.5 667,-243.5 765,-243.5 765,-224.5 667,-224.5"/>
<text text-anchor="middle" x="716" y="-231.5" font-family="Helvetica,sans-Serif" font-size="10.00">App_MotorCtrl.cpp</text>
</g>
<!-- Node1 -->
<g id="node2" class="node"><title>Node1</title>
<g id="a_node2"><a xlink:href="_app___motor_ctrl_8h.html" target="_top" xlink:title="Header file for motor control unit. ">
<polygon fill="none" stroke="black" points="672.5,-168.5 672.5,-187.5 759.5,-187.5 759.5,-168.5 672.5,-168.5"/>
<text text-anchor="middle" x="716" y="-175.5" font-family="Helvetica,sans-Serif" font-size="10.00">App_MotorCtrl.h</text>
</a>
</g>
</g>
<!-- Node0&#45;&gt;Node1 -->
<g id="edge1" class="edge"><title>Node0&#45;&gt;Node1</title>
<path fill="none" stroke="midnightblue" d="M716,-224.083C716,-217.006 716,-206.861 716,-197.986"/>
<polygon fill="midnightblue" stroke="midnightblue" points="719.5,-197.751 716,-187.751 712.5,-197.751 719.5,-197.751"/>
</g>
<!-- Node3 -->
<g id="node4" class="node"><title>Node3</title>
<g id="a_node4"><a xlink:href="_h_a_l___i_m_u_8h.html" target="_top" xlink:title="Application file for IMU. ">
<polygon fill="none" stroke="black" points="323,-112.5 323,-131.5 389,-131.5 389,-112.5 323,-112.5"/>
<text text-anchor="middle" x="356" y="-119.5" font-family="Helvetica,sans-Serif" font-size="10.00">HAL_IMU.h</text>
</a>
</g>
</g>
<!-- Node0&#45;&gt;Node3 -->
<g id="edge27" class="edge"><title>Node0&#45;&gt;Node3</title>
<path fill="none" stroke="midnightblue" d="M666.767,-232.7C609.068,-230.663 511.722,-221.891 436,-188 410.366,-176.527 386.096,-154.693 371.151,-139.513"/>
<polygon fill="midnightblue" stroke="midnightblue" points="373.295,-136.689 363.859,-131.872 368.231,-141.522 373.295,-136.689"/>
</g>
<!-- Node8 -->
<g id="node9" class="node"><title>Node8</title>
<g id="a_node9"><a xlink:href="_h_a_l___p_w_m_8h.html" target="_top" xlink:title="HAL_PWM.h">
<polygon fill="none" stroke="black" points="587,-112.5 587,-131.5 661,-131.5 661,-112.5 587,-112.5"/>
<text text-anchor="middle" x="624" y="-119.5" font-family="Helvetica,sans-Serif" font-size="10.00">HAL_PWM.h</text>
</a>
</g>
</g>
<!-- Node0&#45;&gt;Node8 -->
<g id="edge26" class="edge"><title>Node0&#45;&gt;Node8</title>
<path fill="none" stroke="midnightblue" d="M703.634,-224.338C692.199,-215.927 675.183,-202.358 663,-188 650.651,-173.447 639.777,-154.521 632.67,-140.848"/>
<polygon fill="midnightblue" stroke="midnightblue" points="635.627,-138.938 628.008,-131.576 629.373,-142.082 635.627,-138.938"/>
</g>
<!-- Node9 -->
<g id="node10" class="node"><title>Node9</title>
<g id="a_node10"><a xlink:href="_a_d_a_s___cfg_8h.html" target="_top" xlink:title="This file contains the configuration of the vehicle. ">
<polygon fill="none" stroke="black" points="482.5,-56.5 482.5,-75.5 553.5,-75.5 553.5,-56.5 482.5,-56.5"/>
<text text-anchor="middle" x="518" y="-63.5" font-family="Helvetica,sans-Serif" font-size="10.00">ADAS_Cfg.h</text>
</a>
</g>
</g>
<!-- Node0&#45;&gt;Node9 -->
<g id="edge32" class="edge"><title>Node0&#45;&gt;Node9</title>
<path fill="none" stroke="midnightblue" d="M701.46,-224.344C687.068,-215.617 664.56,-201.536 646,-188 614.368,-164.93 606.455,-158.891 578,-132 561.519,-116.425 544.089,-97.1925 532.288,-83.7034"/>
<polygon fill="midnightblue" stroke="midnightblue" points="534.605,-81.0322 525.412,-75.7646 529.313,-85.615 534.605,-81.0322"/>
</g>
<!-- Node10 -->
<g id="node11" class="node"><title>Node10</title>
<g id="a_node11"><a xlink:href="_app___stateflow_8h.html" target="_top" xlink:title="Application file for Stateflow. ">
<polygon fill="none" stroke="black" points="847.5,-112.5 847.5,-131.5 934.5,-131.5 934.5,-112.5 847.5,-112.5"/>
<text text-anchor="middle" x="891" y="-119.5" font-family="Helvetica,sans-Serif" font-size="10.00">App_Stateflow.h</text>
</a>
</g>
</g>
<!-- Node0&#45;&gt;Node10 -->
<g id="edge28" class="edge"><title>Node0&#45;&gt;Node10</title>
<path fill="none" stroke="midnightblue" d="M729.732,-224.368C759.89,-205.412 832.135,-160.001 868.819,-136.942"/>
<polygon fill="midnightblue" stroke="midnightblue" points="870.728,-139.876 877.332,-131.591 867.003,-133.95 870.728,-139.876"/>
</g>
<!-- Node11 -->
<g id="node12" class="node"><title>Node11</title>
<g id="a_node12"><a xlink:href="_app___stateflowtypes_8h.html" target="_top" xlink:title="Application file for Stateflowtypes. ">
<polygon fill="none" stroke="black" points="866.5,-56.5 866.5,-75.5 977.5,-75.5 977.5,-56.5 866.5,-56.5"/>
<text text-anchor="middle" x="922" y="-63.5" font-family="Helvetica,sans-Serif" font-size="10.00">App_Stateflowtypes.h</text>
</a>
</g>
</g>
<!-- Node0&#45;&gt;Node11 -->
<g id="edge29" class="edge"><title>Node0&#45;&gt;Node11</title>
<path fill="none" stroke="midnightblue" d="M765.032,-226.788C819.169,-217.018 903.837,-192.459 943,-132 952.534,-117.282 944.047,-97.8788 935.176,-84.1144"/>
<polygon fill="midnightblue" stroke="midnightblue" points="937.81,-81.7748 929.191,-75.6128 932.086,-85.8045 937.81,-81.7748"/>
</g>
<!-- Node16 -->
<g id="node17" class="node"><title>Node16</title>
<polygon fill="none" stroke="#bfbfbf" points="991,-168.5 991,-187.5 1049,-187.5 1049,-168.5 991,-168.5"/>
<text text-anchor="middle" x="1020" y="-175.5" font-family="Helvetica,sans-Serif" font-size="10.00">Arduino.h</text>
</g>
<!-- Node0&#45;&gt;Node16 -->
<g id="edge25" class="edge"><title>Node0&#45;&gt;Node16</title>
<path fill="none" stroke="midnightblue" d="M765.161,-225.06C817.697,-216.449 903.379,-202.047 977,-188 978.264,-187.759 979.549,-187.51 980.845,-187.256"/>
<polygon fill="midnightblue" stroke="midnightblue" points="981.769,-190.641 990.884,-185.24 980.39,-183.778 981.769,-190.641"/>
</g>
<!-- Node17 -->
<g id="node18" class="node"><title>Node17</title>
<g id="a_node18"><a xlink:href="_a_d_a_s___debug_8h.html" target="_top" xlink:title="ADAS_Debug.h">
<polygon fill="none" stroke="black" points="445.5,-168.5 445.5,-187.5 530.5,-187.5 530.5,-168.5 445.5,-168.5"/>
<text text-anchor="middle" x="488" y="-175.5" font-family="Helvetica,sans-Serif" font-size="10.00">ADAS_Debug.h</text>
</a>
</g>
</g>
<!-- Node0&#45;&gt;Node17 -->
<g id="edge30" class="edge"><title>Node0&#45;&gt;Node17</title>
<path fill="none" stroke="midnightblue" d="M679.873,-224.444C640.349,-215.083 576.903,-200.056 533.887,-189.868"/>
<polygon fill="midnightblue" stroke="midnightblue" points="534.496,-186.415 523.958,-187.516 532.882,-193.227 534.496,-186.415"/>
</g>
<!-- Node18 -->
<g id="node19" class="node"><title>Node18</title>
<polygon fill="none" stroke="#bfbfbf" points="1067,-168.5 1067,-187.5 1127,-187.5 1127,-168.5 1067,-168.5"/>
<text text-anchor="middle" x="1097" y="-175.5" font-family="Helvetica,sans-Serif" font-size="10.00">FastPID.h</text>
</g>
<!-- Node0&#45;&gt;Node18 -->
<g id="edge33" class="edge"><title>Node0&#45;&gt;Node18</title>
<path fill="none" stroke="midnightblue" d="M765.219,-228.025C829.922,-221.153 947.294,-207.548 1056.92,-188.046"/>
<polygon fill="midnightblue" stroke="midnightblue" points="1057.6,-191.48 1066.83,-186.265 1056.36,-184.591 1057.6,-191.48"/>
</g>
<!-- Node2 -->
<g id="node3" class="node"><title>Node2</title>
<g id="a_node3"><a xlink:href="_a_d_a_s___types_8h.html" target="_top" xlink:title="ADAS_Types.h">
<polygon fill="none" stroke="black" points="578.5,-0.5 578.5,-19.5 661.5,-19.5 661.5,-0.5 578.5,-0.5"/>
<text text-anchor="middle" x="620" y="-7.5" font-family="Helvetica,sans-Serif" font-size="10.00">ADAS_Types.h</text>
</a>
</g>
</g>
<!-- Node1&#45;&gt;Node2 -->
<g id="edge2" class="edge"><title>Node1&#45;&gt;Node2</title>
<path fill="none" stroke="midnightblue" d="M730.467,-168.356C754.276,-153.173 800.886,-119.189 819,-76 822.438,-67.8029 824.549,-62.944 819,-56 800.913,-33.366 724.677,-21.2833 671.997,-15.5096"/>
<polygon fill="midnightblue" stroke="midnightblue" points="672.11,-12.0024 661.799,-14.4378 671.379,-18.964 672.11,-12.0024"/>
</g>
<!-- Node1&#45;&gt;Node3 -->
<g id="edge3" class="edge"><title>Node1&#45;&gt;Node3</title>
<path fill="none" stroke="midnightblue" d="M672.382,-171.817C612.883,-164.529 502.741,-150.265 399.406,-132.15"/>
<polygon fill="midnightblue" stroke="midnightblue" points="399.886,-128.681 389.429,-130.386 398.666,-135.574 399.886,-128.681"/>
</g>
<!-- Node1&#45;&gt;Node8 -->
<g id="edge9" class="edge"><title>Node1&#45;&gt;Node8</title>
<path fill="none" stroke="midnightblue" d="M701.219,-168.324C686.733,-159.822 664.427,-146.729 647.507,-136.797"/>
<polygon fill="midnightblue" stroke="midnightblue" points="649.141,-133.698 638.745,-131.655 645.597,-139.735 649.141,-133.698"/>
</g>
<!-- Node1&#45;&gt;Node10 -->
<g id="edge12" class="edge"><title>Node1&#45;&gt;Node10</title>
<path fill="none" stroke="midnightblue" d="M743.729,-168.444C773.426,-159.28 820.716,-144.688 853.669,-134.519"/>
<polygon fill="midnightblue" stroke="midnightblue" points="854.877,-137.809 863.4,-131.516 852.813,-131.121 854.877,-137.809"/>
</g>
<!-- Node1&#45;&gt;Node11 -->
<g id="edge14" class="edge"><title>Node1&#45;&gt;Node11</title>
<path fill="none" stroke="midnightblue" d="M732.164,-168.368C767.965,-149.251 854.153,-103.229 896.979,-80.361"/>
<polygon fill="midnightblue" stroke="midnightblue" points="898.738,-83.3892 905.911,-75.5914 895.441,-77.2144 898.738,-83.3892"/>
</g>
<!-- Node12 -->
<g id="node13" class="node"><title>Node12</title>
<g id="a_node13"><a xlink:href="_h_a_l___encoder_8h.html" target="_top" xlink:title="HAL_Encoder.h">
<polygon fill="none" stroke="black" points="407.5,-112.5 407.5,-131.5 492.5,-131.5 492.5,-112.5 407.5,-112.5"/>
<text text-anchor="middle" x="450" y="-119.5" font-family="Helvetica,sans-Serif" font-size="10.00">HAL_Encoder.h</text>
</a>
</g>
</g>
<!-- Node1&#45;&gt;Node12 -->
<g id="edge15" class="edge"><title>Node1&#45;&gt;Node12</title>
<path fill="none" stroke="midnightblue" d="M673.852,-168.444C627.254,-158.984 552.156,-143.738 501.955,-133.547"/>
<polygon fill="midnightblue" stroke="midnightblue" points="502.448,-130.076 491.951,-131.516 501.055,-136.936 502.448,-130.076"/>
</g>
<!-- Node13 -->
<g id="node14" class="node"><title>Node13</title>
<g id="a_node14"><a xlink:href="_comm___i_c_c_8h.html" target="_top" xlink:title="Comm_ICC.h">
<polygon fill="none" stroke="black" points="679,-112.5 679,-131.5 753,-131.5 753,-112.5 679,-112.5"/>
<text text-anchor="middle" x="716" y="-119.5" font-family="Helvetica,sans-Serif" font-size="10.00">Comm_ICC.h</text>
</a>
</g>
</g>
<!-- Node1&#45;&gt;Node13 -->
<g id="edge18" class="edge"><title>Node1&#45;&gt;Node13</title>
<path fill="none" stroke="midnightblue" d="M716,-168.083C716,-161.006 716,-150.861 716,-141.986"/>
<polygon fill="midnightblue" stroke="midnightblue" points="719.5,-141.751 716,-131.751 712.5,-141.751 719.5,-141.751"/>
</g>
<!-- Node3&#45;&gt;Node2 -->
<g id="edge8" class="edge"><title>Node3&#45;&gt;Node2</title>
<path fill="none" stroke="midnightblue" d="M366.745,-112.395C384.393,-98.6498 421.055,-71.693 456,-56 492.124,-39.7773 535.414,-28.2012 568.444,-20.8558"/>
<polygon fill="midnightblue" stroke="midnightblue" points="569.313,-24.2487 578.346,-18.7115 567.832,-17.4073 569.313,-24.2487"/>
</g>
<!-- Node4 -->
<g id="node5" class="node"><title>Node4</title>
<polygon fill="none" stroke="#bfbfbf" points="224,-56.5 224,-75.5 324,-75.5 324,-56.5 224,-56.5"/>
<text text-anchor="middle" x="274" y="-63.5" font-family="Helvetica,sans-Serif" font-size="10.00">Adafruit_BNO055.h</text>
</g>
<!-- Node3&#45;&gt;Node4 -->
<g id="edge4" class="edge"><title>Node3&#45;&gt;Node4</title>
<path fill="none" stroke="midnightblue" d="M342.825,-112.324C330.153,-103.979 310.767,-91.2122 295.794,-81.3524"/>
<polygon fill="midnightblue" stroke="midnightblue" points="297.419,-78.2313 287.142,-75.6545 293.569,-84.0776 297.419,-78.2313"/>
</g>
<!-- Node5 -->
<g id="node6" class="node"><title>Node5</title>
<polygon fill="none" stroke="#bfbfbf" points="342.5,-56.5 342.5,-75.5 387.5,-75.5 387.5,-56.5 342.5,-56.5"/>
<text text-anchor="middle" x="365" y="-63.5" font-family="Helvetica,sans-Serif" font-size="10.00">Wire.h</text>
</g>
<!-- Node3&#45;&gt;Node5 -->
<g id="edge5" class="edge"><title>Node3&#45;&gt;Node5</title>
<path fill="none" stroke="midnightblue" d="M357.486,-112.083C358.679,-104.927 360.394,-94.6353 361.885,-85.6911"/>
<polygon fill="midnightblue" stroke="midnightblue" points="365.35,-86.1904 363.541,-75.7511 358.445,-85.0396 365.35,-86.1904"/>
</g>
<!-- Node6 -->
<g id="node7" class="node"><title>Node6</title>
<polygon fill="none" stroke="#bfbfbf" points="0,-56.5 0,-75.5 94,-75.5 94,-56.5 0,-56.5"/>
<text text-anchor="middle" x="47" y="-63.5" font-family="Helvetica,sans-Serif" font-size="10.00">Adafruit_Sensor.h</text>
</g>
<!-- Node3&#45;&gt;Node6 -->
<g id="edge6" class="edge"><title>Node3&#45;&gt;Node6</title>
<path fill="none" stroke="midnightblue" d="M322.932,-115.221C270.69,-106.091 168.408,-88.217 104.114,-76.9812"/>
<polygon fill="midnightblue" stroke="midnightblue" points="104.589,-73.5111 94.1353,-75.2372 103.383,-80.4066 104.589,-73.5111"/>
</g>
<!-- Node7 -->
<g id="node8" class="node"><title>Node7</title>
<polygon fill="none" stroke="#bfbfbf" points="112,-56.5 112,-75.5 206,-75.5 206,-56.5 112,-56.5"/>
<text text-anchor="middle" x="159" y="-63.5" font-family="Helvetica,sans-Serif" font-size="10.00">utility/imumaths.h</text>
</g>
<!-- Node3&#45;&gt;Node7 -->
<g id="edge7" class="edge"><title>Node3&#45;&gt;Node7</title>
<path fill="none" stroke="midnightblue" d="M324.785,-112.444C291.067,-103.201 237.2,-88.4356 200.068,-78.2572"/>
<polygon fill="midnightblue" stroke="midnightblue" points="200.639,-74.7846 190.069,-75.5164 198.788,-81.5356 200.639,-74.7846"/>
</g>
<!-- Node8&#45;&gt;Node2 -->
<g id="edge10" class="edge"><title>Node8&#45;&gt;Node2</title>
<path fill="none" stroke="midnightblue" d="M619.379,-112.339C614.941,-103.493 608.546,-89.22 606,-76 602.964,-60.237 607.358,-42.4191 612.005,-29.4301"/>
<polygon fill="midnightblue" stroke="midnightblue" points="615.388,-30.3927 615.811,-19.8063 608.879,-27.8185 615.388,-30.3927"/>
</g>
<!-- Node8&#45;&gt;Node9 -->
<g id="edge11" class="edge"><title>Node8&#45;&gt;Node9</title>
<path fill="none" stroke="midnightblue" d="M606.969,-112.324C589.97,-103.664 563.624,-90.2424 544.007,-80.249"/>
<polygon fill="midnightblue" stroke="midnightblue" points="545.488,-77.0752 534.988,-75.6545 542.31,-83.3125 545.488,-77.0752"/>
</g>
<!-- Node10&#45;&gt;Node11 -->
<g id="edge13" class="edge"><title>Node10&#45;&gt;Node11</title>
<path fill="none" stroke="midnightblue" d="M896.119,-112.083C900.408,-104.613 906.658,-93.7244 911.942,-84.5199"/>
<polygon fill="midnightblue" stroke="midnightblue" points="915.033,-86.1662 916.976,-75.7511 908.962,-82.6811 915.033,-86.1662"/>
</g>
<!-- Node12&#45;&gt;Node2 -->
<g id="edge16" class="edge"><title>Node12&#45;&gt;Node2</title>
<path fill="none" stroke="midnightblue" d="M450.66,-112.083C452.171,-98.1492 457.094,-71.2357 473,-56 498.542,-31.534 537.031,-20.3394 568.219,-15.2323"/>
<polygon fill="midnightblue" stroke="midnightblue" points="569.102,-18.6402 578.486,-13.7233 568.084,-11.7146 569.102,-18.6402"/>
</g>
<!-- Node12&#45;&gt;Node9 -->
<g id="edge17" class="edge"><title>Node12&#45;&gt;Node9</title>
<path fill="none" stroke="midnightblue" d="M460.925,-112.324C471.175,-104.185 486.721,-91.8395 499.001,-82.0874"/>
<polygon fill="midnightblue" stroke="midnightblue" points="501.221,-84.7937 506.876,-75.8339 496.868,-79.3119 501.221,-84.7937"/>
</g>
<!-- Node13&#45;&gt;Node2 -->
<g id="edge19" class="edge"><title>Node13&#45;&gt;Node2</title>
<path fill="none" stroke="midnightblue" d="M691.843,-112.485C674.746,-105.277 652.535,-93.3267 639,-76 628.606,-62.6944 623.894,-43.862 621.761,-29.8908"/>
<polygon fill="midnightblue" stroke="midnightblue" points="625.23,-29.4283 620.543,-19.9268 618.282,-30.2775 625.23,-29.4283"/>
</g>
<!-- Node13&#45;&gt;Node9 -->
<g id="edge20" class="edge"><title>Node13&#45;&gt;Node9</title>
<path fill="none" stroke="midnightblue" d="M684.626,-112.444C650.737,-103.201 596.597,-88.4356 559.276,-78.2572"/>
<polygon fill="midnightblue" stroke="midnightblue" points="559.795,-74.771 549.227,-75.5164 557.954,-81.5243 559.795,-74.771"/>
</g>
<!-- Node14 -->
<g id="node15" class="node"><title>Node14</title>
<g id="a_node15"><a xlink:href="_h_a_l___serial___i_f_8h.html" target="_top" xlink:title="HAL_Serial_IF.h">
<polygon fill="none" stroke="black" points="648.5,-56.5 648.5,-75.5 735.5,-75.5 735.5,-56.5 648.5,-56.5"/>
<text text-anchor="middle" x="692" y="-63.5" font-family="Helvetica,sans-Serif" font-size="10.00">HAL_Serial_IF.h</text>
</a>
</g>
</g>
<!-- Node13&#45;&gt;Node14 -->
<g id="edge21" class="edge"><title>Node13&#45;&gt;Node14</title>
<path fill="none" stroke="midnightblue" d="M712.037,-112.083C708.787,-104.77 704.081,-94.1814 700.046,-85.1034"/>
<polygon fill="midnightblue" stroke="midnightblue" points="703.149,-83.4677 695.889,-75.7511 696.752,-86.3107 703.149,-83.4677"/>
</g>
<!-- Node15 -->
<g id="node16" class="node"><title>Node15</title>
<g id="a_node16"><a xlink:href="_cbuffer_8h.html" target="_top" xlink:title="CBuffer.h">
<polygon fill="none" stroke="black" points="754,-56.5 754,-75.5 810,-75.5 810,-56.5 754,-56.5"/>
<text text-anchor="middle" x="782" y="-63.5" font-family="Helvetica,sans-Serif" font-size="10.00">CBuffer.h</text>
</a>
</g>
</g>
<!-- Node13&#45;&gt;Node15 -->
<g id="edge23" class="edge"><title>Node13&#45;&gt;Node15</title>
<path fill="none" stroke="midnightblue" d="M726.604,-112.324C736.456,-104.263 751.351,-92.0765 763.215,-82.3695"/>
<polygon fill="midnightblue" stroke="midnightblue" points="765.68,-84.8752 771.203,-75.8339 761.247,-79.4575 765.68,-84.8752"/>
</g>
<!-- Node14&#45;&gt;Node2 -->
<g id="edge22" class="edge"><title>Node14&#45;&gt;Node2</title>
<path fill="none" stroke="midnightblue" d="M680.432,-56.324C669.58,-48.1849 653.119,-35.8395 640.117,-26.0874"/>
<polygon fill="midnightblue" stroke="midnightblue" points="641.879,-23.0339 631.779,-19.8339 637.679,-28.6339 641.879,-23.0339"/>
</g>
<!-- Node15&#45;&gt;Node2 -->
<g id="edge24" class="edge"><title>Node15&#45;&gt;Node2</title>
<path fill="none" stroke="midnightblue" d="M756.331,-56.4435C729.077,-47.3591 685.816,-32.9388 655.349,-22.7831"/>
<polygon fill="midnightblue" stroke="midnightblue" points="656.143,-19.3584 645.549,-19.5164 653.929,-25.9992 656.143,-19.3584"/>
</g>
<!-- Node17&#45;&gt;Node9 -->
<g id="edge31" class="edge"><title>Node17&#45;&gt;Node9</title>
<path fill="none" stroke="midnightblue" d="M490.557,-168.392C493.227,-159.348 497.505,-144.702 501,-132 505.26,-116.517 509.855,-98.8884 513.192,-85.8997"/>
<polygon fill="midnightblue" stroke="midnightblue" points="516.675,-86.4057 515.761,-75.8504 509.893,-84.6719 516.675,-86.4057"/>
</g>
</g>
</svg>
        <g id="navigator" transform="translate(0 0)" fill="#404254">
                <rect fill="#f2f5e9" fill-opacity="0.5" stroke="#606060" stroke-width=".5" x="0" y="0" width="60" height="60"/>
                <use id="zoomplus" xlink:href="#zoomPlus" x="17" y="9" onmousedown="handleZoom(evt,'in')"/>
                <use id="zoomminus" xlink:href="#zoomMin" x="42" y="9" onmousedown="handleZoom(evt,'out')"/>
                <use id="reset" xlink:href="#resetDef" x="30" y="36" onmousedown="handleReset()"/>
                <g id="arrowUp" xlink:href="#dirArrow" transform="translate(30 24)" onmousedown="handlePan(0,-1)">
                  <use xlink:href="#rim" fill="#404040">
                        <set attributeName="fill" to="#808080" begin="arrowUp.mouseover" end="arrowUp.mouseout"/>
                  </use>
                  <path fill="none" stroke="white" stroke-width="1.5" d="M0,-3.0v7 M-2.5,-0.5L0,-3.0L2.5,-0.5"/>
                </g>
                <g id="arrowRight" xlink:href="#dirArrow" transform="rotate(90) translate(36 -43)" onmousedown="handlePan(1,0)">
                  <use xlink:href="#rim" fill="#404040">
                        <set attributeName="fill" to="#808080" begin="arrowRight.mouseover" end="arrowRight.mouseout"/>
                  </use>
                  <path fill="none" stroke="white" stroke-width="1.5" d="M0,-3.0v7 M-2.5,-0.5L0,-3.0L2.5,-0.5"/>
                </g>
                <g id="arrowDown" xlink:href="#dirArrow" transform="rotate(180) translate(-30 -48)" onmousedown="handlePan(0,1)">
                  <use xlink:href="#rim" fill="#404040">
                        <set attributeName="fill" to="#808080" begin="arrowDown.mouseover" end="arrowDown.mouseout"/>
                  </use>
                  <path fill="none" stroke="white" stroke-width="1.5" d="M0,-3.0v7 M-2.5,-0.5L0,-3.0L2.5,-0.5"/>
                </g>
                <g id="arrowLeft" xlink:href="#dirArrow" transform="rotate(270) translate(-36 17)" onmousedown="handlePan(-1,0)">
                  <use xlink:href="#rim" fill="#404040">
                        <set attributeName="fill" to="#808080" begin="arrowLeft.mouseover" end="arrowLeft.mouseout"/>
                  </use>
                  <path fill="none" stroke="white" stroke-width="1.5" d="M0,-3.0v7 M-2.5,-0.5L0,-3.0L2.5,-0.5"/>
                </g>
        </g>
        <svg viewBox="0 0 15 15" width="100%" height="30px" preserveAspectRatio="xMaxYMin meet">
         <g id="arrow_out" transform="scale(0.3 0.3)">
          <a xlink:href="_app___motor_ctrl_8cpp__incl_org.svg" target="_base">
           <rect id="button" ry="5" rx="5" y="6" x="6" height="38" width="38"
                fill="#f2f5e9" fill-opacity="0.5" stroke="#606060" stroke-width="1.0"/>
           <path id="arrow"
             d="M 11.500037,31.436501 C 11.940474,20.09759 22.043105,11.32322 32.158766,21.979434 L 37.068811,17.246167 C 37.068811,17.246167 37.088388,32 37.088388,32 L 22.160133,31.978069 C 22.160133,31.978069 26.997745,27.140456 26.997745,27.140456 C 18.528582,18.264221 13.291696,25.230495 11.500037,31.436501 z"
             style="fill:#404040;"/>
          </a>
         </g>
        </svg>
</svg>
