<?xml version="1.0" encoding="UTF-8" standalone="no"?>
<!DOCTYPE svg PUBLIC "-//W3C//DTD SVG 1.1//EN"
 "http://www.w3.org/Graphics/SVG/1.1/DTD/svg11.dtd">
<!-- Generated by graphviz version 2.38.0 (20140413.2041)
 -->
<!-- Title: App_MotorCtrl.h Pages: 1 -->
<!--zoomable 196 -->
<svg id="main" version="1.1" xmlns="http://www.w3.org/2000/svg" xmlns:xlink="http://www.w3.org/1999/xlink" xml:space="preserve" onload="init(evt)">
<style type="text/css"><![CDATA[
.edge:hover path { stroke: red; }
.edge:hover polygon { stroke: red; fill: red; }
]]></style>
<script type="text/javascript"><![CDATA[
var edges = document.getElementsByTagName('g');
if (edges && edges.length) {
  for (var i=0;i<edges.length;i++) {
    if (edges[i].id.substr(0,4)=='edge') {
      edges[i].setAttribute('class','edge');
    }
  }
}
]]></script>
        <defs>
                <circle id="rim" cx="0" cy="0" r="7"/>
                <circle id="rim2" cx="0" cy="0" r="3.5"/>
                <g id="zoomPlus">
                        <use xlink:href="#rim" fill="#404040">
                                <set attributeName="fill" to="#808080" begin="zoomplus.mouseover" end="zoomplus.mouseout"/>
                        </use>
                        <path d="M-4,0h8M0,-4v8" fill="none" stroke="white" stroke-width="1.5" pointer-events="none"/>
                </g>
                <g id="zoomMin">
                        <use xlink:href="#rim" fill="#404040">
                                <set attributeName="fill" to="#808080" begin="zoomminus.mouseover" end="zoomminus.mouseout"/>
                        </use>
                        <path d="M-4,0h8" fill="none" stroke="white" stroke-width="1.5" pointer-events="none"/>
                </g>
                <g id="dirArrow">
                        <path fill="none" stroke="white" stroke-width="1.5" d="M0,-3.0v7 M-2.5,-0.5L0,-3.0L2.5,-0.5"/>
                </g>
               <g id="resetDef">
                       <use xlink:href="#rim2" fill="#404040">
                               <set attributeName="fill" to="#808080" begin="reset.mouseover" end="reset.mouseout"/>
                       </use>
               </g>
        </defs>

<script type="text/javascript">
var viewWidth = 965;
var viewHeight = 196;
var sectionId = 'dynsection-0';
</script>
<script xlink:href="svgpan.js"/>
<svg id="graph" class="graph">
<g id="viewport">
<title>App_MotorCtrl.h</title>
<!-- Node0 -->
<g id="node1" class="node"><title>Node0</title>
<polygon fill="#bfbfbf" stroke="black" points="534.093,-168.5 534.093,-187.5 621.093,-187.5 621.093,-168.5 534.093,-168.5"/>
<text text-anchor="middle" x="577.593" y="-175.5" font-family="Helvetica,sans-Serif" font-size="10.00">App_MotorCtrl.h</text>
</g>
<!-- Node1 -->
<g id="node2" class="node"><title>Node1</title>
<g id="a_node2"><a xlink:href="_a_d_a_s___types_8h.html" target="_top" xlink:title="ADAS_Types.h">
<polygon fill="none" stroke="black" points="558.093,-0.5 558.093,-19.5 641.093,-19.5 641.093,-0.5 558.093,-0.5"/>
<text text-anchor="middle" x="599.593" y="-7.5" font-family="Helvetica,sans-Serif" font-size="10.00">ADAS_Types.h</text>
</a>
</g>
</g>
<!-- Node0&#45;&gt;Node1 -->
<g id="edge1" class="edge"><title>Node0&#45;&gt;Node1</title>
<path fill="none" stroke="midnightblue" d="M534.074,-174.88C388.921,-167.034 -65.4194,-135.862 8.59258,-56 44.8502,-16.8767 410.085,-11.6084 547.598,-11.019"/>
<polygon fill="midnightblue" stroke="midnightblue" points="547.885,-14.5181 557.872,-10.9819 547.859,-7.51812 547.885,-14.5181"/>
</g>
<!-- Node2 -->
<g id="node3" class="node"><title>Node2</title>
<g id="a_node3"><a xlink:href="_h_a_l___i_m_u_8h.html" target="_top" xlink:title="Application file for IMU. ">
<polygon fill="none" stroke="black" points="269.593,-112.5 269.593,-131.5 335.593,-131.5 335.593,-112.5 269.593,-112.5"/>
<text text-anchor="middle" x="302.593" y="-119.5" font-family="Helvetica,sans-Serif" font-size="10.00">HAL_IMU.h</text>
</a>
</g>
</g>
<!-- Node0&#45;&gt;Node2 -->
<g id="edge2" class="edge"><title>Node0&#45;&gt;Node2</title>
<path fill="none" stroke="midnightblue" d="M534.018,-168.444C482.443,-158.316 397.097,-141.557 345.719,-131.468"/>
<polygon fill="midnightblue" stroke="midnightblue" points="346.093,-127.975 335.606,-129.483 344.744,-134.844 346.093,-127.975"/>
</g>
<!-- Node7 -->
<g id="node8" class="node"><title>Node7</title>
<g id="a_node8"><a xlink:href="_h_a_l___p_w_m_8h.html" target="_top" xlink:title="HAL_PWM.h">
<polygon fill="none" stroke="black" points="442.593,-112.5 442.593,-131.5 516.593,-131.5 516.593,-112.5 442.593,-112.5"/>
<text text-anchor="middle" x="479.593" y="-119.5" font-family="Helvetica,sans-Serif" font-size="10.00">HAL_PWM.h</text>
</a>
</g>
</g>
<!-- Node0&#45;&gt;Node7 -->
<g id="edge8" class="edge"><title>Node0&#45;&gt;Node7</title>
<path fill="none" stroke="midnightblue" d="M561.847,-168.324C546.274,-159.743 522.215,-146.486 504.133,-136.522"/>
<polygon fill="midnightblue" stroke="midnightblue" points="505.746,-133.415 495.299,-131.655 502.368,-139.546 505.746,-133.415"/>
</g>
<!-- Node9 -->
<g id="node10" class="node"><title>Node9</title>
<g id="a_node10"><a xlink:href="_app___stateflow_8h.html" target="_top" xlink:title="Application file for Stateflow. ">
<polygon fill="none" stroke="black" points="747.093,-112.5 747.093,-131.5 834.093,-131.5 834.093,-112.5 747.093,-112.5"/>
<text text-anchor="middle" x="790.593" y="-119.5" font-family="Helvetica,sans-Serif" font-size="10.00">App_Stateflow.h</text>
</a>
</g>
</g>
<!-- Node0&#45;&gt;Node9 -->
<g id="edge11" class="edge"><title>Node0&#45;&gt;Node9</title>
<path fill="none" stroke="midnightblue" d="M611.343,-168.444C648.111,-159.122 707.038,-144.183 747.215,-133.997"/>
<polygon fill="midnightblue" stroke="midnightblue" points="748.167,-137.367 757,-131.516 746.447,-130.581 748.167,-137.367"/>
</g>
<!-- Node10 -->
<g id="node11" class="node"><title>Node10</title>
<g id="a_node11"><a xlink:href="_app___stateflowtypes_8h.html" target="_top" xlink:title="Application file for Stateflowtypes. ">
<polygon fill="none" stroke="black" points="846.093,-56.5 846.093,-75.5 957.093,-75.5 957.093,-56.5 846.093,-56.5"/>
<text text-anchor="middle" x="901.593" y="-63.5" font-family="Helvetica,sans-Serif" font-size="10.00">App_Stateflowtypes.h</text>
</a>
</g>
</g>
<!-- Node0&#45;&gt;Node10 -->
<g id="edge13" class="edge"><title>Node0&#45;&gt;Node10</title>
<path fill="none" stroke="midnightblue" d="M621.346,-173.059C686.469,-166.613 805.243,-152.452 842.593,-132 863.183,-120.725 880.355,-99.4868 890.768,-84.3562"/>
<polygon fill="midnightblue" stroke="midnightblue" points="893.779,-86.1469 896.348,-75.8682 887.93,-82.3014 893.779,-86.1469"/>
</g>
<!-- Node11 -->
<g id="node12" class="node"><title>Node11</title>
<g id="a_node12"><a xlink:href="_h_a_l___encoder_8h.html" target="_top" xlink:title="HAL_Encoder.h">
<polygon fill="none" stroke="black" points="535.093,-112.5 535.093,-131.5 620.093,-131.5 620.093,-112.5 535.093,-112.5"/>
<text text-anchor="middle" x="577.593" y="-119.5" font-family="Helvetica,sans-Serif" font-size="10.00">HAL_Encoder.h</text>
</a>
</g>
</g>
<!-- Node0&#45;&gt;Node11 -->
<g id="edge14" class="edge"><title>Node0&#45;&gt;Node11</title>
<path fill="none" stroke="midnightblue" d="M577.593,-168.083C577.593,-161.006 577.593,-150.861 577.593,-141.986"/>
<polygon fill="midnightblue" stroke="midnightblue" points="581.093,-141.751 577.593,-131.751 574.093,-141.751 581.093,-141.751"/>
</g>
<!-- Node12 -->
<g id="node13" class="node"><title>Node12</title>
<g id="a_node13"><a xlink:href="_comm___i_c_c_8h.html" target="_top" xlink:title="Comm_ICC.h">
<polygon fill="none" stroke="black" points="638.593,-112.5 638.593,-131.5 712.593,-131.5 712.593,-112.5 638.593,-112.5"/>
<text text-anchor="middle" x="675.593" y="-119.5" font-family="Helvetica,sans-Serif" font-size="10.00">Comm_ICC.h</text>
</a>
</g>
</g>
<!-- Node0&#45;&gt;Node12 -->
<g id="edge17" class="edge"><title>Node0&#45;&gt;Node12</title>
<path fill="none" stroke="midnightblue" d="M593.338,-168.324C608.911,-159.743 632.97,-146.486 651.052,-136.522"/>
<polygon fill="midnightblue" stroke="midnightblue" points="652.817,-139.546 659.886,-131.655 649.439,-133.415 652.817,-139.546"/>
</g>
<!-- Node2&#45;&gt;Node1 -->
<g id="edge7" class="edge"><title>Node2&#45;&gt;Node1</title>
<path fill="none" stroke="midnightblue" d="M325.519,-112.466C358.948,-100.026 423.034,-76.1943 477.593,-56 507.737,-44.8422 542.09,-32.1757 566.644,-23.1302"/>
<polygon fill="midnightblue" stroke="midnightblue" points="568.025,-26.3517 576.199,-19.6111 565.605,-19.7831 568.025,-26.3517"/>
</g>
<!-- Node3 -->
<g id="node4" class="node"><title>Node3</title>
<polygon fill="none" stroke="#bfbfbf" points="17.5926,-56.5 17.5926,-75.5 117.593,-75.5 117.593,-56.5 17.5926,-56.5"/>
<text text-anchor="middle" x="67.5926" y="-63.5" font-family="Helvetica,sans-Serif" font-size="10.00">Adafruit_BNO055.h</text>
</g>
<!-- Node2&#45;&gt;Node3 -->
<g id="edge3" class="edge"><title>Node2&#45;&gt;Node3</title>
<path fill="none" stroke="midnightblue" d="M269.421,-113.378C229.076,-104.107 160.697,-88.3942 114.853,-77.8599"/>
<polygon fill="midnightblue" stroke="midnightblue" points="115.39,-74.3922 104.86,-75.5637 113.823,-81.2144 115.39,-74.3922"/>
</g>
<!-- Node4 -->
<g id="node5" class="node"><title>Node4</title>
<polygon fill="none" stroke="#bfbfbf" points="136.093,-56.5 136.093,-75.5 181.093,-75.5 181.093,-56.5 136.093,-56.5"/>
<text text-anchor="middle" x="158.593" y="-63.5" font-family="Helvetica,sans-Serif" font-size="10.00">Wire.h</text>
</g>
<!-- Node2&#45;&gt;Node4 -->
<g id="edge4" class="edge"><title>Node2&#45;&gt;Node4</title>
<path fill="none" stroke="midnightblue" d="M279.775,-112.444C255.761,-103.438 217.764,-89.1891 190.723,-79.049"/>
<polygon fill="midnightblue" stroke="midnightblue" points="191.895,-75.7506 181.303,-75.5164 189.437,-82.3049 191.895,-75.7506"/>
</g>
<!-- Node5 -->
<g id="node6" class="node"><title>Node5</title>
<polygon fill="none" stroke="#bfbfbf" points="199.593,-56.5 199.593,-75.5 293.593,-75.5 293.593,-56.5 199.593,-56.5"/>
<text text-anchor="middle" x="246.593" y="-63.5" font-family="Helvetica,sans-Serif" font-size="10.00">Adafruit_Sensor.h</text>
</g>
<!-- Node2&#45;&gt;Node5 -->
<g id="edge5" class="edge"><title>Node2&#45;&gt;Node5</title>
<path fill="none" stroke="midnightblue" d="M293.595,-112.324C285.398,-104.42 273.087,-92.5482 263.121,-82.9377"/>
<polygon fill="midnightblue" stroke="midnightblue" points="265.382,-80.2558 255.754,-75.8339 260.523,-85.2947 265.382,-80.2558"/>
</g>
<!-- Node6 -->
<g id="node7" class="node"><title>Node6</title>
<polygon fill="none" stroke="#bfbfbf" points="311.593,-56.5 311.593,-75.5 405.593,-75.5 405.593,-56.5 311.593,-56.5"/>
<text text-anchor="middle" x="358.593" y="-63.5" font-family="Helvetica,sans-Serif" font-size="10.00">utility/imumaths.h</text>
</g>
<!-- Node2&#45;&gt;Node6 -->
<g id="edge6" class="edge"><title>Node2&#45;&gt;Node6</title>
<path fill="none" stroke="midnightblue" d="M311.59,-112.324C319.787,-104.42 332.098,-92.5482 342.065,-82.9377"/>
<polygon fill="midnightblue" stroke="midnightblue" points="344.663,-85.2947 349.432,-75.8339 339.804,-80.2558 344.663,-85.2947"/>
</g>
<!-- Node7&#45;&gt;Node1 -->
<g id="edge9" class="edge"><title>Node7&#45;&gt;Node1</title>
<path fill="none" stroke="midnightblue" d="M478.597,-112.374C477.522,-98.8386 477.458,-72.4613 490.593,-56 504.812,-38.1785 527.287,-27.3465 548.144,-20.7955"/>
<polygon fill="midnightblue" stroke="midnightblue" points="549.248,-24.12 557.893,-17.9943 547.315,-17.3922 549.248,-24.12"/>
</g>
<!-- Node8 -->
<g id="node9" class="node"><title>Node8</title>
<g id="a_node9"><a xlink:href="_a_d_a_s___cfg_8h.html" target="_top" xlink:title="This file contains the configuration of the vehicle. ">
<polygon fill="none" stroke="black" points="500.093,-56.5 500.093,-75.5 571.093,-75.5 571.093,-56.5 500.093,-56.5"/>
<text text-anchor="middle" x="535.593" y="-63.5" font-family="Helvetica,sans-Serif" font-size="10.00">ADAS_Cfg.h</text>
</a>
</g>
</g>
<!-- Node7&#45;&gt;Node8 -->
<g id="edge10" class="edge"><title>Node7&#45;&gt;Node8</title>
<path fill="none" stroke="midnightblue" d="M488.59,-112.324C496.787,-104.42 509.098,-92.5482 519.065,-82.9377"/>
<polygon fill="midnightblue" stroke="midnightblue" points="521.663,-85.2947 526.432,-75.8339 516.804,-80.2558 521.663,-85.2947"/>
</g>
<!-- Node9&#45;&gt;Node10 -->
<g id="edge12" class="edge"><title>Node9&#45;&gt;Node10</title>
<path fill="none" stroke="midnightblue" d="M808.427,-112.324C826.308,-103.625 854.068,-90.1202 874.638,-80.113"/>
<polygon fill="midnightblue" stroke="midnightblue" points="876.342,-83.1765 883.803,-75.6545 873.279,-76.8819 876.342,-83.1765"/>
</g>
<!-- Node11&#45;&gt;Node1 -->
<g id="edge15" class="edge"><title>Node11&#45;&gt;Node1</title>
<path fill="none" stroke="midnightblue" d="M579.319,-112.368C582.869,-94.617 591.059,-53.6664 595.873,-29.5974"/>
<polygon fill="midnightblue" stroke="midnightblue" points="599.345,-30.0837 597.874,-19.5914 592.481,-28.7108 599.345,-30.0837"/>
</g>
<!-- Node11&#45;&gt;Node8 -->
<g id="edge16" class="edge"><title>Node11&#45;&gt;Node8</title>
<path fill="none" stroke="midnightblue" d="M570.657,-112.083C564.663,-104.377 555.841,-93.0333 548.545,-83.6531"/>
<polygon fill="midnightblue" stroke="midnightblue" points="551.301,-81.4958 542.399,-75.7511 545.776,-85.7934 551.301,-81.4958"/>
</g>
<!-- Node12&#45;&gt;Node1 -->
<g id="edge18" class="edge"><title>Node12&#45;&gt;Node1</title>
<path fill="none" stroke="midnightblue" d="M669.629,-112.368C657.087,-94.2153 627.783,-51.8015 611.331,-27.9902"/>
<polygon fill="midnightblue" stroke="midnightblue" points="614.092,-25.8292 605.528,-19.5914 608.333,-29.8083 614.092,-25.8292"/>
</g>
<!-- Node12&#45;&gt;Node8 -->
<g id="edge19" class="edge"><title>Node12&#45;&gt;Node8</title>
<path fill="none" stroke="midnightblue" d="M653.409,-112.444C630.164,-103.478 593.444,-89.314 567.177,-79.1827"/>
<polygon fill="midnightblue" stroke="midnightblue" points="568.262,-75.8497 557.672,-75.5164 565.743,-82.3807 568.262,-75.8497"/>
</g>
<!-- Node13 -->
<g id="node14" class="node"><title>Node13</title>
<g id="a_node14"><a xlink:href="_h_a_l___serial___i_f_8h.html" target="_top" xlink:title="HAL_Serial_IF.h">
<polygon fill="none" stroke="black" points="666.093,-56.5 666.093,-75.5 753.093,-75.5 753.093,-56.5 666.093,-56.5"/>
<text text-anchor="middle" x="709.593" y="-63.5" font-family="Helvetica,sans-Serif" font-size="10.00">HAL_Serial_IF.h</text>
</a>
</g>
</g>
<!-- Node12&#45;&gt;Node13 -->
<g id="edge20" class="edge"><title>Node12&#45;&gt;Node13</title>
<path fill="none" stroke="midnightblue" d="M681.207,-112.083C685.96,-104.534 692.911,-93.4948 698.744,-84.2298"/>
<polygon fill="midnightblue" stroke="midnightblue" points="701.716,-86.0783 704.083,-75.7511 695.793,-82.3486 701.716,-86.0783"/>
</g>
<!-- Node14 -->
<g id="node15" class="node"><title>Node14</title>
<g id="a_node15"><a xlink:href="_cbuffer_8h.html" target="_top" xlink:title="CBuffer.h">
<polygon fill="none" stroke="black" points="771.593,-56.5 771.593,-75.5 827.593,-75.5 827.593,-56.5 771.593,-56.5"/>
<text text-anchor="middle" x="799.593" y="-63.5" font-family="Helvetica,sans-Serif" font-size="10.00">CBuffer.h</text>
</a>
</g>
</g>
<!-- Node12&#45;&gt;Node14 -->
<g id="edge22" class="edge"><title>Node12&#45;&gt;Node14</title>
<path fill="none" stroke="midnightblue" d="M695.241,-112.444C715.557,-103.596 747.495,-89.6875 770.69,-79.5865"/>
<polygon fill="midnightblue" stroke="midnightblue" points="772.265,-82.7181 780.036,-75.5164 769.471,-76.3002 772.265,-82.7181"/>
</g>
<!-- Node13&#45;&gt;Node1 -->
<g id="edge21" class="edge"><title>Node13&#45;&gt;Node1</title>
<path fill="none" stroke="midnightblue" d="M691.919,-56.324C674.198,-47.6247 646.689,-34.1202 626.304,-24.113"/>
<polygon fill="midnightblue" stroke="midnightblue" points="627.741,-20.9195 617.222,-19.6545 624.656,-27.2031 627.741,-20.9195"/>
</g>
<!-- Node14&#45;&gt;Node1 -->
<g id="edge23" class="edge"><title>Node14&#45;&gt;Node1</title>
<path fill="none" stroke="midnightblue" d="M771.362,-57.3776C737.458,-48.2238 680.293,-32.7892 641.299,-22.2607"/>
<polygon fill="midnightblue" stroke="midnightblue" points="641.877,-18.7914 631.31,-19.5637 640.052,-25.5494 641.877,-18.7914"/>
</g>
</g>
</svg>
        <g id="navigator" transform="translate(0 0)" fill="#404254">
                <rect fill="#f2f5e9" fill-opacity="0.5" stroke="#606060" stroke-width=".5" x="0" y="0" width="60" height="60"/>
                <use id="zoomplus" xlink:href="#zoomPlus" x="17" y="9" onmousedown="handleZoom(evt,'in')"/>
                <use id="zoomminus" xlink:href="#zoomMin" x="42" y="9" onmousedown="handleZoom(evt,'out')"/>
                <use id="reset" xlink:href="#resetDef" x="30" y="36" onmousedown="handleReset()"/>
                <g id="arrowUp" xlink:href="#dirArrow" transform="translate(30 24)" onmousedown="handlePan(0,-1)">
                  <use xlink:href="#rim" fill="#404040">
                        <set attributeName="fill" to="#808080" begin="arrowUp.mouseover" end="arrowUp.mouseout"/>
                  </use>
                  <path fill="none" stroke="white" stroke-width="1.5" d="M0,-3.0v7 M-2.5,-0.5L0,-3.0L2.5,-0.5"/>
                </g>
                <g id="arrowRight" xlink:href="#dirArrow" transform="rotate(90) translate(36 -43)" onmousedown="handlePan(1,0)">
                  <use xlink:href="#rim" fill="#404040">
                        <set attributeName="fill" to="#808080" begin="arrowRight.mouseover" end="arrowRight.mouseout"/>
                  </use>
                  <path fill="none" stroke="white" stroke-width="1.5" d="M0,-3.0v7 M-2.5,-0.5L0,-3.0L2.5,-0.5"/>
                </g>
                <g id="arrowDown" xlink:href="#dirArrow" transform="rotate(180) translate(-30 -48)" onmousedown="handlePan(0,1)">
                  <use xlink:href="#rim" fill="#404040">
                        <set attributeName="fill" to="#808080" begin="arrowDown.mouseover" end="arrowDown.mouseout"/>
                  </use>
                  <path fill="none" stroke="white" stroke-width="1.5" d="M0,-3.0v7 M-2.5,-0.5L0,-3.0L2.5,-0.5"/>
                </g>
                <g id="arrowLeft" xlink:href="#dirArrow" transform="rotate(270) translate(-36 17)" onmousedown="handlePan(-1,0)">
                  <use xlink:href="#rim" fill="#404040">
                        <set attributeName="fill" to="#808080" begin="arrowLeft.mouseover" end="arrowLeft.mouseout"/>
                  </use>
                  <path fill="none" stroke="white" stroke-width="1.5" d="M0,-3.0v7 M-2.5,-0.5L0,-3.0L2.5,-0.5"/>
                </g>
        </g>
        <svg viewBox="0 0 15 15" width="100%" height="30px" preserveAspectRatio="xMaxYMin meet">
         <g id="arrow_out" transform="scale(0.3 0.3)">
          <a xlink:href="_app___motor_ctrl_8h__incl_org.svg" target="_base">
           <rect id="button" ry="5" rx="5" y="6" x="6" height="38" width="38"
                fill="#f2f5e9" fill-opacity="0.5" stroke="#606060" stroke-width="1.0"/>
           <path id="arrow"
             d="M 11.500037,31.436501 C 11.940474,20.09759 22.043105,11.32322 32.158766,21.979434 L 37.068811,17.246167 C 37.068811,17.246167 37.088388,32 37.088388,32 L 22.160133,31.978069 C 22.160133,31.978069 26.997745,27.140456 26.997745,27.140456 C 18.528582,18.264221 13.291696,25.230495 11.500037,31.436501 z"
             style="fill:#404040;"/>
          </a>
         </g>
        </svg>
</svg>
