<?xml version="1.0" encoding="UTF-8" standalone="no"?>
<!DOCTYPE svg PUBLIC "-//W3C//DTD SVG 1.1//EN"
 "http://www.w3.org/Graphics/SVG/1.1/DTD/svg11.dtd">
<!-- Generated by graphviz version 2.38.0 (20140413.2041)
 -->
<!-- Title: Comm_ICC.cpp Pages: 1 -->
<svg width="962pt" height="252pt"
 viewBox="0.00 0.00 962.37 252.00" xmlns="http://www.w3.org/2000/svg" xmlns:xlink="http://www.w3.org/1999/xlink">
<g id="graph0" class="graph" transform="scale(1 1) rotate(0) translate(4 248)">
<title>Comm_ICC.cpp</title>
<!-- Node0 -->
<g id="node1" class="node"><title>Node0</title>
<polygon fill="#bfbfbf" stroke="black" points="229.367,-224.5 229.367,-243.5 314.367,-243.5 314.367,-224.5 229.367,-224.5"/>
<text text-anchor="middle" x="271.867" y="-231.5" font-family="Helvetica,sans-Serif" font-size="10.00">Comm_ICC.cpp</text>
</g>
<!-- Node1 -->
<g id="node2" class="node"><title>Node1</title>
<g id="a_node2"><a xlink:href="_a_d_a_s___debug_8h.html" target="_top" xlink:title="ADAS_Debug.h">
<polygon fill="none" stroke="black" points="171.367,-168.5 171.367,-187.5 256.367,-187.5 256.367,-168.5 171.367,-168.5"/>
<text text-anchor="middle" x="213.867" y="-175.5" font-family="Helvetica,sans-Serif" font-size="10.00">ADAS_Debug.h</text>
</a>
</g>
</g>
<!-- Node0&#45;&gt;Node1 -->
<g id="edge1" class="edge"><title>Node0&#45;&gt;Node1</title>
<path fill="none" stroke="midnightblue" d="M262.548,-224.324C253.974,-216.341 241.055,-204.313 230.679,-194.653"/>
<polygon fill="midnightblue" stroke="midnightblue" points="233.059,-192.086 223.355,-187.834 228.289,-197.21 233.059,-192.086"/>
</g>
<!-- Node3 -->
<g id="node4" class="node"><title>Node3</title>
<g id="a_node4"><a xlink:href="_comm___i_c_c_8h.html" target="_top" xlink:title="Comm_ICC.h">
<polygon fill="none" stroke="black" points="65.8668,-112.5 65.8668,-131.5 139.867,-131.5 139.867,-112.5 65.8668,-112.5"/>
<text text-anchor="middle" x="102.867" y="-119.5" font-family="Helvetica,sans-Serif" font-size="10.00">Comm_ICC.h</text>
</a>
</g>
</g>
<!-- Node0&#45;&gt;Node3 -->
<g id="edge3" class="edge"><title>Node0&#45;&gt;Node3</title>
<path fill="none" stroke="midnightblue" d="M241.1,-224.485C217.965,-217.154 186.203,-205.046 161.867,-188 143.026,-174.803 125.892,-154.572 115.002,-140.189"/>
<polygon fill="midnightblue" stroke="midnightblue" points="117.526,-137.712 108.792,-131.715 111.88,-141.85 117.526,-137.712"/>
</g>
<!-- Node7 -->
<g id="node8" class="node"><title>Node7</title>
<polygon fill="none" stroke="#bfbfbf" points="392.867,-168.5 392.867,-187.5 450.867,-187.5 450.867,-168.5 392.867,-168.5"/>
<text text-anchor="middle" x="421.867" y="-175.5" font-family="Helvetica,sans-Serif" font-size="10.00">Arduino.h</text>
</g>
<!-- Node0&#45;&gt;Node7 -->
<g id="edge10" class="edge"><title>Node0&#45;&gt;Node7</title>
<path fill="none" stroke="midnightblue" d="M295.635,-224.444C320.76,-215.399 360.578,-201.064 388.767,-190.916"/>
<polygon fill="midnightblue" stroke="midnightblue" points="389.987,-194.197 398.21,-187.516 387.616,-187.611 389.987,-194.197"/>
</g>
<!-- Node8 -->
<g id="node9" class="node"><title>Node8</title>
<g id="a_node9"><a xlink:href="_app___motor_ctrl_8h.html" target="_top" xlink:title="Header file for motor control unit. ">
<polygon fill="none" stroke="black" points="287.367,-168.5 287.367,-187.5 374.367,-187.5 374.367,-168.5 287.367,-168.5"/>
<text text-anchor="middle" x="330.867" y="-175.5" font-family="Helvetica,sans-Serif" font-size="10.00">App_MotorCtrl.h</text>
</a>
</g>
</g>
<!-- Node0&#45;&gt;Node8 -->
<g id="edge11" class="edge"><title>Node0&#45;&gt;Node8</title>
<path fill="none" stroke="midnightblue" d="M281.346,-224.324C290.068,-216.341 303.21,-204.313 313.765,-194.653"/>
<polygon fill="midnightblue" stroke="midnightblue" points="316.201,-197.167 321.215,-187.834 311.475,-192.004 316.201,-197.167"/>
</g>
<!-- Node2 -->
<g id="node3" class="node"><title>Node2</title>
<g id="a_node3"><a xlink:href="_a_d_a_s___cfg_8h.html" target="_top" xlink:title="This file contains the configuration of the vehicle. ">
<polygon fill="none" stroke="black" points="195.367,-56.5 195.367,-75.5 266.367,-75.5 266.367,-56.5 195.367,-56.5"/>
<text text-anchor="middle" x="230.867" y="-63.5" font-family="Helvetica,sans-Serif" font-size="10.00">ADAS_Cfg.h</text>
</a>
</g>
</g>
<!-- Node1&#45;&gt;Node2 -->
<g id="edge2" class="edge"><title>Node1&#45;&gt;Node2</title>
<path fill="none" stroke="midnightblue" d="M205.588,-168.184C194.917,-155.699 178.656,-132.142 186.867,-112 191.667,-100.225 201.195,-89.8564 210.162,-82.0486"/>
<polygon fill="midnightblue" stroke="midnightblue" points="212.517,-84.6448 218.086,-75.6314 208.112,-79.2048 212.517,-84.6448"/>
</g>
<!-- Node3&#45;&gt;Node2 -->
<g id="edge5" class="edge"><title>Node3&#45;&gt;Node2</title>
<path fill="none" stroke="midnightblue" d="M123.149,-112.444C144.214,-103.557 177.384,-89.5632 201.352,-79.4514"/>
<polygon fill="midnightblue" stroke="midnightblue" points="202.826,-82.6283 210.68,-75.5164 200.106,-76.1787 202.826,-82.6283"/>
</g>
<!-- Node4 -->
<g id="node5" class="node"><title>Node4</title>
<g id="a_node5"><a xlink:href="_a_d_a_s___types_8h.html" target="_top" xlink:title="ADAS_Types.h">
<polygon fill="none" stroke="black" points="253.367,-0.5 253.367,-19.5 336.367,-19.5 336.367,-0.5 253.367,-0.5"/>
<text text-anchor="middle" x="294.867" y="-7.5" font-family="Helvetica,sans-Serif" font-size="10.00">ADAS_Types.h</text>
</a>
</g>
</g>
<!-- Node3&#45;&gt;Node4 -->
<g id="edge4" class="edge"><title>Node3&#45;&gt;Node4</title>
<path fill="none" stroke="midnightblue" d="M68.5085,-112.408C32.4119,-101.777 -16.2849,-81.8678 5.86675,-56 35.7946,-21.0515 168.18,-13.0327 242.962,-11.3299"/>
<polygon fill="midnightblue" stroke="midnightblue" points="243.187,-14.8262 253.116,-11.1294 243.048,-7.8276 243.187,-14.8262"/>
</g>
<!-- Node5 -->
<g id="node6" class="node"><title>Node5</title>
<g id="a_node6"><a xlink:href="_h_a_l___serial___i_f_8h.html" target="_top" xlink:title="HAL_Serial_IF.h">
<polygon fill="none" stroke="black" points="15.3668,-56.5 15.3668,-75.5 102.367,-75.5 102.367,-56.5 15.3668,-56.5"/>
<text text-anchor="middle" x="58.8668" y="-63.5" font-family="Helvetica,sans-Serif" font-size="10.00">HAL_Serial_IF.h</text>
</a>
</g>
</g>
<!-- Node3&#45;&gt;Node5 -->
<g id="edge6" class="edge"><title>Node3&#45;&gt;Node5</title>
<path fill="none" stroke="midnightblue" d="M95.601,-112.083C89.3219,-104.377 80.0791,-93.0333 72.4359,-83.6531"/>
<polygon fill="midnightblue" stroke="midnightblue" points="75.0274,-81.2926 65.9973,-75.7511 69.6007,-85.7143 75.0274,-81.2926"/>
</g>
<!-- Node6 -->
<g id="node7" class="node"><title>Node6</title>
<g id="a_node7"><a xlink:href="_cbuffer_8h.html" target="_top" xlink:title="CBuffer.h">
<polygon fill="none" stroke="black" points="120.867,-56.5 120.867,-75.5 176.867,-75.5 176.867,-56.5 120.867,-56.5"/>
<text text-anchor="middle" x="148.867" y="-63.5" font-family="Helvetica,sans-Serif" font-size="10.00">CBuffer.h</text>
</a>
</g>
</g>
<!-- Node3&#45;&gt;Node6 -->
<g id="edge8" class="edge"><title>Node3&#45;&gt;Node6</title>
<path fill="none" stroke="midnightblue" d="M110.463,-112.083C117.094,-104.298 126.888,-92.8015 134.925,-83.3665"/>
<polygon fill="midnightblue" stroke="midnightblue" points="137.592,-85.6332 141.412,-75.7511 132.263,-81.0939 137.592,-85.6332"/>
</g>
<!-- Node5&#45;&gt;Node4 -->
<g id="edge7" class="edge"><title>Node5&#45;&gt;Node4</title>
<path fill="none" stroke="midnightblue" d="M96.2617,-56.4435C137.259,-47.0629 203.121,-31.9926 247.651,-21.8036"/>
<polygon fill="midnightblue" stroke="midnightblue" points="248.679,-25.1588 257.647,-19.5164 247.118,-18.3352 248.679,-25.1588"/>
</g>
<!-- Node6&#45;&gt;Node4 -->
<g id="edge9" class="edge"><title>Node6&#45;&gt;Node4</title>
<path fill="none" stroke="midnightblue" d="M172.001,-56.4435C196.349,-47.4381 234.874,-33.1891 262.29,-23.049"/>
<polygon fill="midnightblue" stroke="midnightblue" points="263.676,-26.2681 271.841,-19.5164 261.248,-19.7028 263.676,-26.2681"/>
</g>
<!-- Node8&#45;&gt;Node3 -->
<g id="edge28" class="edge"><title>Node8&#45;&gt;Node3</title>
<path fill="none" stroke="midnightblue" d="M294.739,-168.444C255.216,-159.083 191.77,-144.056 148.754,-133.868"/>
<polygon fill="midnightblue" stroke="midnightblue" points="149.362,-130.415 138.825,-131.516 147.749,-137.227 149.362,-130.415"/>
</g>
<!-- Node8&#45;&gt;Node4 -->
<g id="edge12" class="edge"><title>Node8&#45;&gt;Node4</title>
<path fill="none" stroke="midnightblue" d="M346.601,-168.236C358.756,-160.481 374.678,-147.929 381.867,-132 385.523,-123.898 384.961,-120.333 381.867,-112 368.425,-75.8003 335.548,-43.8835 314.28,-26.0442"/>
<polygon fill="midnightblue" stroke="midnightblue" points="316.461,-23.3068 306.496,-19.7072 312.041,-28.7352 316.461,-23.3068"/>
</g>
<!-- Node9 -->
<g id="node10" class="node"><title>Node9</title>
<g id="a_node10"><a xlink:href="_h_a_l___i_m_u_8h.html" target="_top" xlink:title="Application file for IMU. ">
<polygon fill="none" stroke="black" points="488.867,-112.5 488.867,-131.5 554.867,-131.5 554.867,-112.5 488.867,-112.5"/>
<text text-anchor="middle" x="521.867" y="-119.5" font-family="Helvetica,sans-Serif" font-size="10.00">HAL_IMU.h</text>
</a>
</g>
</g>
<!-- Node8&#45;&gt;Node9 -->
<g id="edge13" class="edge"><title>Node8&#45;&gt;Node9</title>
<path fill="none" stroke="midnightblue" d="M361.131,-168.444C393.822,-159.201 446.048,-144.436 482.05,-134.257"/>
<polygon fill="midnightblue" stroke="midnightblue" points="483.073,-137.605 491.744,-131.516 481.169,-130.869 483.073,-137.605"/>
</g>
<!-- Node14 -->
<g id="node15" class="node"><title>Node14</title>
<g id="a_node15"><a xlink:href="_h_a_l___p_w_m_8h.html" target="_top" xlink:title="HAL_PWM.h">
<polygon fill="none" stroke="black" points="195.867,-112.5 195.867,-131.5 269.867,-131.5 269.867,-112.5 195.867,-112.5"/>
<text text-anchor="middle" x="232.867" y="-119.5" font-family="Helvetica,sans-Serif" font-size="10.00">HAL_PWM.h</text>
</a>
</g>
</g>
<!-- Node8&#45;&gt;Node14 -->
<g id="edge19" class="edge"><title>Node8&#45;&gt;Node14</title>
<path fill="none" stroke="midnightblue" d="M315.121,-168.324C299.548,-159.743 275.489,-146.486 257.407,-136.522"/>
<polygon fill="midnightblue" stroke="midnightblue" points="259.021,-133.415 248.573,-131.655 255.642,-139.546 259.021,-133.415"/>
</g>
<!-- Node15 -->
<g id="node16" class="node"><title>Node15</title>
<g id="a_node16"><a xlink:href="_app___stateflow_8h.html" target="_top" xlink:title="Application file for Stateflow. ">
<polygon fill="none" stroke="black" points="820.367,-112.5 820.367,-131.5 907.367,-131.5 907.367,-112.5 820.367,-112.5"/>
<text text-anchor="middle" x="863.867" y="-119.5" font-family="Helvetica,sans-Serif" font-size="10.00">App_Stateflow.h</text>
</a>
</g>
</g>
<!-- Node8&#45;&gt;Node15 -->
<g id="edge22" class="edge"><title>Node8&#45;&gt;Node15</title>
<path fill="none" stroke="midnightblue" d="M374.5,-169.325C377.666,-168.85 380.813,-168.402 383.867,-168 537.925,-147.727 720.974,-133.192 809.945,-126.734"/>
<polygon fill="midnightblue" stroke="midnightblue" points="810.341,-130.215 820.064,-126.005 809.838,-123.233 810.341,-130.215"/>
</g>
<!-- Node16 -->
<g id="node17" class="node"><title>Node16</title>
<g id="a_node17"><a xlink:href="_app___stateflowtypes_8h.html" target="_top" xlink:title="Application file for Stateflowtypes. ">
<polygon fill="none" stroke="black" points="843.367,-56.5 843.367,-75.5 954.367,-75.5 954.367,-56.5 843.367,-56.5"/>
<text text-anchor="middle" x="898.867" y="-63.5" font-family="Helvetica,sans-Serif" font-size="10.00">App_Stateflowtypes.h</text>
</a>
</g>
</g>
<!-- Node8&#45;&gt;Node16 -->
<g id="edge24" class="edge"><title>Node8&#45;&gt;Node16</title>
<path fill="none" stroke="midnightblue" d="M374.671,-168.552C421.504,-159.517 497.937,-144.763 563.867,-132 662.97,-112.815 778.552,-90.3745 844.776,-77.5102"/>
<polygon fill="midnightblue" stroke="midnightblue" points="845.821,-80.8725 854.971,-75.5297 844.487,-74.001 845.821,-80.8725"/>
</g>
<!-- Node17 -->
<g id="node18" class="node"><title>Node17</title>
<g id="a_node18"><a xlink:href="_h_a_l___encoder_8h.html" target="_top" xlink:title="HAL_Encoder.h">
<polygon fill="none" stroke="black" points="288.367,-112.5 288.367,-131.5 373.367,-131.5 373.367,-112.5 288.367,-112.5"/>
<text text-anchor="middle" x="330.867" y="-119.5" font-family="Helvetica,sans-Serif" font-size="10.00">HAL_Encoder.h</text>
</a>
</g>
</g>
<!-- Node8&#45;&gt;Node17 -->
<g id="edge25" class="edge"><title>Node8&#45;&gt;Node17</title>
<path fill="none" stroke="midnightblue" d="M330.867,-168.083C330.867,-161.006 330.867,-150.861 330.867,-141.986"/>
<polygon fill="midnightblue" stroke="midnightblue" points="334.367,-141.751 330.867,-131.751 327.367,-141.751 334.367,-141.751"/>
</g>
<!-- Node9&#45;&gt;Node4 -->
<g id="edge18" class="edge"><title>Node9&#45;&gt;Node4</title>
<path fill="none" stroke="midnightblue" d="M503.826,-112.416C484.886,-103.393 454.253,-88.7633 427.867,-76 390.983,-58.159 348.459,-37.3312 321.623,-24.1555"/>
<polygon fill="midnightblue" stroke="midnightblue" points="323.005,-20.9345 312.486,-19.6672 319.919,-27.2175 323.005,-20.9345"/>
</g>
<!-- Node10 -->
<g id="node11" class="node"><title>Node10</title>
<polygon fill="none" stroke="#bfbfbf" points="436.867,-56.5 436.867,-75.5 536.867,-75.5 536.867,-56.5 436.867,-56.5"/>
<text text-anchor="middle" x="486.867" y="-63.5" font-family="Helvetica,sans-Serif" font-size="10.00">Adafruit_BNO055.h</text>
</g>
<!-- Node9&#45;&gt;Node10 -->
<g id="edge14" class="edge"><title>Node9&#45;&gt;Node10</title>
<path fill="none" stroke="midnightblue" d="M516.087,-112.083C511.194,-104.534 504.039,-93.4948 498.034,-84.2298"/>
<polygon fill="midnightblue" stroke="midnightblue" points="500.915,-82.239 492.539,-75.7511 495.041,-86.0463 500.915,-82.239"/>
</g>
<!-- Node11 -->
<g id="node12" class="node"><title>Node11</title>
<polygon fill="none" stroke="#bfbfbf" points="555.367,-56.5 555.367,-75.5 600.367,-75.5 600.367,-56.5 555.367,-56.5"/>
<text text-anchor="middle" x="577.867" y="-63.5" font-family="Helvetica,sans-Serif" font-size="10.00">Wire.h</text>
</g>
<!-- Node9&#45;&gt;Node11 -->
<g id="edge15" class="edge"><title>Node9&#45;&gt;Node11</title>
<path fill="none" stroke="midnightblue" d="M530.864,-112.324C539.061,-104.42 551.372,-92.5482 561.339,-82.9377"/>
<polygon fill="midnightblue" stroke="midnightblue" points="563.937,-85.2947 568.706,-75.8339 559.078,-80.2558 563.937,-85.2947"/>
</g>
<!-- Node12 -->
<g id="node13" class="node"><title>Node12</title>
<polygon fill="none" stroke="#bfbfbf" points="618.867,-56.5 618.867,-75.5 712.867,-75.5 712.867,-56.5 618.867,-56.5"/>
<text text-anchor="middle" x="665.867" y="-63.5" font-family="Helvetica,sans-Serif" font-size="10.00">Adafruit_Sensor.h</text>
</g>
<!-- Node9&#45;&gt;Node12 -->
<g id="edge16" class="edge"><title>Node9&#45;&gt;Node12</title>
<path fill="none" stroke="midnightblue" d="M544.684,-112.444C568.698,-103.438 606.696,-89.1891 633.736,-79.049"/>
<polygon fill="midnightblue" stroke="midnightblue" points="635.022,-82.3049 643.156,-75.5164 632.564,-75.7506 635.022,-82.3049"/>
</g>
<!-- Node13 -->
<g id="node14" class="node"><title>Node13</title>
<polygon fill="none" stroke="#bfbfbf" points="730.867,-56.5 730.867,-75.5 824.867,-75.5 824.867,-56.5 730.867,-56.5"/>
<text text-anchor="middle" x="777.867" y="-63.5" font-family="Helvetica,sans-Serif" font-size="10.00">utility/imumaths.h</text>
</g>
<!-- Node9&#45;&gt;Node13 -->
<g id="edge17" class="edge"><title>Node9&#45;&gt;Node13</title>
<path fill="none" stroke="midnightblue" d="M555.072,-113.996C598.956,-104.739 676.66,-88.3483 727.717,-77.5784"/>
<polygon fill="midnightblue" stroke="midnightblue" points="728.493,-80.9919 737.555,-75.5032 727.048,-74.1426 728.493,-80.9919"/>
</g>
<!-- Node14&#45;&gt;Node2 -->
<g id="edge21" class="edge"><title>Node14&#45;&gt;Node2</title>
<path fill="none" stroke="midnightblue" d="M232.536,-112.083C232.274,-105.006 231.899,-94.8611 231.57,-85.9865"/>
<polygon fill="midnightblue" stroke="midnightblue" points="235.059,-85.6147 231.191,-75.7511 228.063,-85.8738 235.059,-85.6147"/>
</g>
<!-- Node14&#45;&gt;Node4 -->
<g id="edge20" class="edge"><title>Node14&#45;&gt;Node4</title>
<path fill="none" stroke="midnightblue" d="M243.263,-112.37C252.746,-103.982 266.515,-90.4283 274.867,-76 283.184,-61.6303 288.399,-43.434 291.41,-29.9511"/>
<polygon fill="midnightblue" stroke="midnightblue" points="294.886,-30.4173 293.44,-19.9216 288.026,-29.0282 294.886,-30.4173"/>
</g>
<!-- Node15&#45;&gt;Node16 -->
<g id="edge23" class="edge"><title>Node15&#45;&gt;Node16</title>
<path fill="none" stroke="midnightblue" d="M869.646,-112.083C874.539,-104.534 881.694,-93.4948 887.699,-84.2298"/>
<polygon fill="midnightblue" stroke="midnightblue" points="890.693,-86.0463 893.195,-75.7511 884.819,-82.239 890.693,-86.0463"/>
</g>
<!-- Node17&#45;&gt;Node2 -->
<g id="edge27" class="edge"><title>Node17&#45;&gt;Node2</title>
<path fill="none" stroke="midnightblue" d="M314.8,-112.324C298.909,-103.743 274.359,-90.486 255.908,-80.5224"/>
<polygon fill="midnightblue" stroke="midnightblue" points="257.356,-77.3264 246.894,-75.6545 254.03,-83.4857 257.356,-77.3264"/>
</g>
<!-- Node17&#45;&gt;Node4 -->
<g id="edge26" class="edge"><title>Node17&#45;&gt;Node4</title>
<path fill="none" stroke="midnightblue" d="M328.042,-112.368C322.206,-94.5366 308.709,-53.2953 300.847,-29.2717"/>
<polygon fill="midnightblue" stroke="midnightblue" points="304.115,-28.0067 297.678,-19.5914 297.463,-30.1841 304.115,-28.0067"/>
</g>
</g>
</svg>
