<?xml version="1.0" encoding="UTF-8" standalone="no"?>
<!DOCTYPE svg PUBLIC "-//W3C//DTD SVG 1.1//EN"
 "http://www.w3.org/Graphics/SVG/1.1/DTD/svg11.dtd">
<!-- Generated by graphviz version 2.38.0 (20140413.2041)
 -->
<!-- Title: Comm_ICC.h Pages: 1 -->
<svg width="314pt" height="140pt"
 viewBox="0.00 0.00 313.50 140.00" xmlns="http://www.w3.org/2000/svg" xmlns:xlink="http://www.w3.org/1999/xlink">
<g id="graph0" class="graph" transform="scale(1 1) rotate(0) translate(4 136)">
<title>Comm_ICC.h</title>
<!-- Node5 -->
<g id="node1" class="node"><title>Node5</title>
<polygon fill="#bfbfbf" stroke="black" points="116,-112.5 116,-131.5 190,-131.5 190,-112.5 116,-112.5"/>
<text text-anchor="middle" x="153" y="-119.5" font-family="Helvetica,sans-Serif" font-size="10.00">Comm_ICC.h</text>
</g>
<!-- Node6 -->
<g id="node2" class="node"><title>Node6</title>
<g id="a_node2"><a xlink:href="_a_d_a_s___m_c_u_8ino.html" target="_top" xlink:title="Main file for the NavU of the ADAS project. ">
<polygon fill="none" stroke="black" points="0,-0.5 0,-19.5 86,-19.5 86,-0.5 0,-0.5"/>
<text text-anchor="middle" x="43" y="-7.5" font-family="Helvetica,sans-Serif" font-size="10.00">ADAS_MCU.ino</text>
</a>
</g>
</g>
<!-- Node5&#45;&gt;Node6 -->
<g id="edge1" class="edge"><title>Node5&#45;&gt;Node6</title>
<path fill="none" stroke="midnightblue" d="M134.016,-106.023C123.642,-97.5604 110.754,-86.5835 100,-76 80.7446,-57.0497 60.3872,-32.6133 49.997,-19.7743"/>
<polygon fill="midnightblue" stroke="midnightblue" points="132.052,-108.935 142.038,-112.477 136.44,-103.481 132.052,-108.935"/>
</g>
<!-- Node7 -->
<g id="node3" class="node"><title>Node7</title>
<g id="a_node3"><a xlink:href="_app___motor_ctrl_8h.html" target="_top" xlink:title="Header file for motor control unit. ">
<polygon fill="none" stroke="black" points="109.5,-56.5 109.5,-75.5 196.5,-75.5 196.5,-56.5 109.5,-56.5"/>
<text text-anchor="middle" x="153" y="-63.5" font-family="Helvetica,sans-Serif" font-size="10.00">App_MotorCtrl.h</text>
</a>
</g>
</g>
<!-- Node5&#45;&gt;Node7 -->
<g id="edge2" class="edge"><title>Node5&#45;&gt;Node7</title>
<path fill="none" stroke="midnightblue" d="M153,-101.805C153,-92.9102 153,-82.7798 153,-75.7511"/>
<polygon fill="midnightblue" stroke="midnightblue" points="149.5,-102.083 153,-112.083 156.5,-102.083 149.5,-102.083"/>
</g>
<!-- Node9 -->
<g id="node5" class="node"><title>Node9</title>
<g id="a_node5"><a xlink:href="_comm___i_c_c_8cpp.html" target="_top" xlink:title="Comm_ICC.cpp">
<polygon fill="none" stroke="black" points="220.5,-0.5 220.5,-19.5 305.5,-19.5 305.5,-0.5 220.5,-0.5"/>
<text text-anchor="middle" x="263" y="-7.5" font-family="Helvetica,sans-Serif" font-size="10.00">Comm_ICC.cpp</text>
</a>
</g>
</g>
<!-- Node5&#45;&gt;Node9 -->
<g id="edge6" class="edge"><title>Node5&#45;&gt;Node9</title>
<path fill="none" stroke="midnightblue" d="M171.561,-105.936C181.721,-97.4464 194.368,-86.4721 205,-76 224.396,-56.8969 245.19,-32.5225 255.828,-19.7339"/>
<polygon fill="midnightblue" stroke="midnightblue" points="169.195,-103.351 163.712,-112.417 173.651,-108.749 169.195,-103.351"/>
</g>
<!-- Node7&#45;&gt;Node6 -->
<g id="edge3" class="edge"><title>Node7&#45;&gt;Node6</title>
<path fill="none" stroke="midnightblue" d="M126.238,-51.8622C105.841,-41.8492 78.3341,-28.3458 60.6295,-19.6545"/>
<polygon fill="midnightblue" stroke="midnightblue" points="124.808,-55.059 135.327,-56.324 127.892,-48.7753 124.808,-55.059"/>
</g>
<!-- Node8 -->
<g id="node4" class="node"><title>Node8</title>
<g id="a_node4"><a xlink:href="_app___motor_ctrl_8cpp.html" target="_top" xlink:title="Application file for environmental data. ">
<polygon fill="none" stroke="black" points="104,-0.5 104,-19.5 202,-19.5 202,-0.5 104,-0.5"/>
<text text-anchor="middle" x="153" y="-7.5" font-family="Helvetica,sans-Serif" font-size="10.00">App_MotorCtrl.cpp</text>
</a>
</g>
</g>
<!-- Node7&#45;&gt;Node8 -->
<g id="edge4" class="edge"><title>Node7&#45;&gt;Node8</title>
<path fill="none" stroke="midnightblue" d="M153,-45.8045C153,-36.9102 153,-26.7798 153,-19.7511"/>
<polygon fill="midnightblue" stroke="midnightblue" points="149.5,-46.083 153,-56.083 156.5,-46.083 149.5,-46.083"/>
</g>
<!-- Node7&#45;&gt;Node9 -->
<g id="edge5" class="edge"><title>Node7&#45;&gt;Node9</title>
<path fill="none" stroke="midnightblue" d="M179.762,-51.8622C200.159,-41.8492 227.666,-28.3458 245.37,-19.6545"/>
<polygon fill="midnightblue" stroke="midnightblue" points="178.108,-48.7753 170.673,-56.324 181.192,-55.059 178.108,-48.7753"/>
</g>
</g>
</svg>
