<?xml version="1.0" encoding="UTF-8" standalone="no"?>
<!DOCTYPE svg PUBLIC "-//W3C//DTD SVG 1.1//EN"
 "http://www.w3.org/Graphics/SVG/1.1/DTD/svg11.dtd">
<!-- Generated by graphviz version 2.38.0 (20140413.2041)
 -->
<!-- Title: HAL_Serial_IF.cpp Pages: 1 -->
<svg width="304pt" height="140pt"
 viewBox="0.00 0.00 303.50 140.00" xmlns="http://www.w3.org/2000/svg" xmlns:xlink="http://www.w3.org/1999/xlink">
<g id="graph0" class="graph" transform="scale(1 1) rotate(0) translate(4 136)">
<title>HAL_Serial_IF.cpp</title>
<!-- Node0 -->
<g id="node1" class="node"><title>Node0</title>
<polygon fill="#bfbfbf" stroke="black" points="74.5,-112.5 74.5,-131.5 172.5,-131.5 172.5,-112.5 74.5,-112.5"/>
<text text-anchor="middle" x="123.5" y="-119.5" font-family="Helvetica,sans-Serif" font-size="10.00">HAL_Serial_IF.cpp</text>
</g>
<!-- Node1 -->
<g id="node2" class="node"><title>Node1</title>
<g id="a_node2"><a xlink:href="_a_d_a_s___cfg_8h.html" target="_top" xlink:title="This file contains the configuration of the vehicle. ">
<polygon fill="none" stroke="black" points="0,-0.5 0,-19.5 71,-19.5 71,-0.5 0,-0.5"/>
<text text-anchor="middle" x="35.5" y="-7.5" font-family="Helvetica,sans-Serif" font-size="10.00">ADAS_Cfg.h</text>
</a>
</g>
</g>
<!-- Node0&#45;&gt;Node1 -->
<g id="edge1" class="edge"><title>Node0&#45;&gt;Node1</title>
<path fill="none" stroke="midnightblue" d="M75.4507,-112.458C54.5578,-106.101 32.0296,-95.0737 19.5,-76 10.1553,-61.7746 16.7389,-42.5523 24.0846,-28.7061"/>
<polygon fill="midnightblue" stroke="midnightblue" points="27.3131,-30.1193 29.3511,-19.7223 21.2743,-26.5791 27.3131,-30.1193"/>
</g>
<!-- Node2 -->
<g id="node3" class="node"><title>Node2</title>
<g id="a_node3"><a xlink:href="_h_a_l___serial___i_f_8h.html" target="_top" xlink:title="HAL_Serial_IF.h">
<polygon fill="none" stroke="black" points="132,-56.5 132,-75.5 219,-75.5 219,-56.5 132,-56.5"/>
<text text-anchor="middle" x="175.5" y="-63.5" font-family="Helvetica,sans-Serif" font-size="10.00">HAL_Serial_IF.h</text>
</a>
</g>
</g>
<!-- Node0&#45;&gt;Node2 -->
<g id="edge2" class="edge"><title>Node0&#45;&gt;Node2</title>
<path fill="none" stroke="midnightblue" d="M132.087,-112.083C139.659,-104.22 150.878,-92.5688 160.014,-83.0813"/>
<polygon fill="midnightblue" stroke="midnightblue" points="162.658,-85.3821 167.073,-75.7511 157.615,-80.5266 162.658,-85.3821"/>
</g>
<!-- Node4 -->
<g id="node5" class="node"><title>Node4</title>
<g id="a_node5"><a xlink:href="_a_d_a_s___debug_8h.html" target="_top" xlink:title="ADAS_Debug.h">
<polygon fill="none" stroke="black" points="29,-56.5 29,-75.5 114,-75.5 114,-56.5 29,-56.5"/>
<text text-anchor="middle" x="71.5" y="-63.5" font-family="Helvetica,sans-Serif" font-size="10.00">ADAS_Debug.h</text>
</a>
</g>
</g>
<!-- Node0&#45;&gt;Node4 -->
<g id="edge4" class="edge"><title>Node0&#45;&gt;Node4</title>
<path fill="none" stroke="midnightblue" d="M114.913,-112.083C107.341,-104.22 96.1218,-92.5688 86.9856,-83.0813"/>
<polygon fill="midnightblue" stroke="midnightblue" points="89.3845,-80.5266 79.927,-75.7511 84.3423,-85.3821 89.3845,-80.5266"/>
</g>
<!-- Node5 -->
<g id="node6" class="node"><title>Node5</title>
<polygon fill="none" stroke="#bfbfbf" points="237.5,-56.5 237.5,-75.5 295.5,-75.5 295.5,-56.5 237.5,-56.5"/>
<text text-anchor="middle" x="266.5" y="-63.5" font-family="Helvetica,sans-Serif" font-size="10.00">Arduino.h</text>
</g>
<!-- Node0&#45;&gt;Node5 -->
<g id="edge6" class="edge"><title>Node0&#45;&gt;Node5</title>
<path fill="none" stroke="midnightblue" d="M146.159,-112.444C169.902,-103.478 207.409,-89.314 234.238,-79.1827"/>
<polygon fill="midnightblue" stroke="midnightblue" points="235.829,-82.3235 243.947,-75.5164 233.356,-75.7749 235.829,-82.3235"/>
</g>
<!-- Node3 -->
<g id="node4" class="node"><title>Node3</title>
<g id="a_node4"><a xlink:href="_a_d_a_s___types_8h.html" target="_top" xlink:title="ADAS_Types.h">
<polygon fill="none" stroke="black" points="134,-0.5 134,-19.5 217,-19.5 217,-0.5 134,-0.5"/>
<text text-anchor="middle" x="175.5" y="-7.5" font-family="Helvetica,sans-Serif" font-size="10.00">ADAS_Types.h</text>
</a>
</g>
</g>
<!-- Node2&#45;&gt;Node3 -->
<g id="edge3" class="edge"><title>Node2&#45;&gt;Node3</title>
<path fill="none" stroke="midnightblue" d="M175.5,-56.083C175.5,-49.0059 175.5,-38.8611 175.5,-29.9865"/>
<polygon fill="midnightblue" stroke="midnightblue" points="179,-29.751 175.5,-19.7511 172,-29.7511 179,-29.751"/>
</g>
<!-- Node4&#45;&gt;Node1 -->
<g id="edge5" class="edge"><title>Node4&#45;&gt;Node1</title>
<path fill="none" stroke="midnightblue" d="M65.5553,-56.083C60.5227,-48.5341 53.1632,-37.4948 46.9865,-28.2298"/>
<polygon fill="midnightblue" stroke="midnightblue" points="49.7933,-26.1301 41.3341,-19.7511 43.9689,-30.0131 49.7933,-26.1301"/>
</g>
</g>
</svg>
