<?xml version="1.0" encoding="UTF-8" standalone="no"?>
<!DOCTYPE svg PUBLIC "-//W3C//DTD SVG 1.1//EN"
 "http://www.w3.org/Graphics/SVG/1.1/DTD/svg11.dtd">
<!-- Generated by graphviz version 2.38.0 (20140413.2041)
 -->
<!-- Title: HAL_Encoder.cpp Pages: 1 -->
<svg width="322pt" height="140pt"
 viewBox="0.00 0.00 322.00 140.00" xmlns="http://www.w3.org/2000/svg" xmlns:xlink="http://www.w3.org/1999/xlink">
<g id="graph0" class="graph" transform="scale(1 1) rotate(0) translate(4 136)">
<title>HAL_Encoder.cpp</title>
<!-- Node0 -->
<g id="node1" class="node"><title>Node0</title>
<polygon fill="#bfbfbf" stroke="black" points="105,-112.5 105,-131.5 200,-131.5 200,-112.5 105,-112.5"/>
<text text-anchor="middle" x="152.5" y="-119.5" font-family="Helvetica,sans-Serif" font-size="10.00">HAL_Encoder.cpp</text>
</g>
<!-- Node1 -->
<g id="node2" class="node"><title>Node1</title>
<g id="a_node2"><a xlink:href="_h_a_l___encoder_8h.html" target="_top" xlink:title="HAL_Encoder.h">
<polygon fill="none" stroke="black" points="11,-56.5 11,-75.5 96,-75.5 96,-56.5 11,-56.5"/>
<text text-anchor="middle" x="53.5" y="-63.5" font-family="Helvetica,sans-Serif" font-size="10.00">HAL_Encoder.h</text>
</a>
</g>
</g>
<!-- Node0&#45;&gt;Node1 -->
<g id="edge1" class="edge"><title>Node0&#45;&gt;Node1</title>
<path fill="none" stroke="midnightblue" d="M136.594,-112.324C120.862,-103.743 96.5577,-90.486 78.2911,-80.5224"/>
<polygon fill="midnightblue" stroke="midnightblue" points="79.8216,-77.3704 69.3666,-75.6545 76.4696,-83.5157 79.8216,-77.3704"/>
</g>
<!-- Node3 -->
<g id="node4" class="node"><title>Node3</title>
<g id="a_node4"><a xlink:href="_a_d_a_s___cfg_8h.html" target="_top" xlink:title="This file contains the configuration of the vehicle. ">
<polygon fill="none" stroke="black" points="101,-0.5 101,-19.5 172,-19.5 172,-0.5 101,-0.5"/>
<text text-anchor="middle" x="136.5" y="-7.5" font-family="Helvetica,sans-Serif" font-size="10.00">ADAS_Cfg.h</text>
</a>
</g>
</g>
<!-- Node0&#45;&gt;Node3 -->
<g id="edge7" class="edge"><title>Node0&#45;&gt;Node3</title>
<path fill="none" stroke="midnightblue" d="M150.543,-112.414C148.542,-103.389 145.459,-88.7574 143.5,-76 141.129,-60.5552 139.284,-42.9237 138.084,-29.9242"/>
<polygon fill="midnightblue" stroke="midnightblue" points="141.562,-29.5191 137.2,-19.8642 134.589,-30.1323 141.562,-29.5191"/>
</g>
<!-- Node4 -->
<g id="node5" class="node"><title>Node4</title>
<polygon fill="none" stroke="#bfbfbf" points="152.5,-56.5 152.5,-75.5 210.5,-75.5 210.5,-56.5 152.5,-56.5"/>
<text text-anchor="middle" x="181.5" y="-63.5" font-family="Helvetica,sans-Serif" font-size="10.00">Arduino.h</text>
</g>
<!-- Node0&#45;&gt;Node4 -->
<g id="edge4" class="edge"><title>Node0&#45;&gt;Node4</title>
<path fill="none" stroke="midnightblue" d="M157.289,-112.083C161.258,-104.691 167.025,-93.9533 171.935,-84.8111"/>
<polygon fill="midnightblue" stroke="midnightblue" points="175.153,-86.217 176.8,-75.7511 168.986,-82.9051 175.153,-86.217"/>
</g>
<!-- Node5 -->
<g id="node6" class="node"><title>Node5</title>
<g id="a_node6"><a xlink:href="_a_d_a_s___debug_8h.html" target="_top" xlink:title="ADAS_Debug.h">
<polygon fill="none" stroke="black" points="229,-56.5 229,-75.5 314,-75.5 314,-56.5 229,-56.5"/>
<text text-anchor="middle" x="271.5" y="-63.5" font-family="Helvetica,sans-Serif" font-size="10.00">ADAS_Debug.h</text>
</a>
</g>
</g>
<!-- Node0&#45;&gt;Node5 -->
<g id="edge5" class="edge"><title>Node0&#45;&gt;Node5</title>
<path fill="none" stroke="midnightblue" d="M171.356,-112.444C190.766,-103.636 221.23,-89.8116 243.465,-79.722"/>
<polygon fill="midnightblue" stroke="midnightblue" points="245.072,-82.836 252.732,-75.5164 242.18,-76.4615 245.072,-82.836"/>
</g>
<!-- Node2 -->
<g id="node3" class="node"><title>Node2</title>
<g id="a_node3"><a xlink:href="_a_d_a_s___types_8h.html" target="_top" xlink:title="ADAS_Types.h">
<polygon fill="none" stroke="black" points="0,-0.5 0,-19.5 83,-19.5 83,-0.5 0,-0.5"/>
<text text-anchor="middle" x="41.5" y="-7.5" font-family="Helvetica,sans-Serif" font-size="10.00">ADAS_Types.h</text>
</a>
</g>
</g>
<!-- Node1&#45;&gt;Node2 -->
<g id="edge2" class="edge"><title>Node1&#45;&gt;Node2</title>
<path fill="none" stroke="midnightblue" d="M51.5184,-56.083C49.9283,-48.9272 47.6412,-38.6353 45.6536,-29.6911"/>
<polygon fill="midnightblue" stroke="midnightblue" points="49.0307,-28.7537 43.4447,-19.7511 42.1974,-30.2722 49.0307,-28.7537"/>
</g>
<!-- Node1&#45;&gt;Node3 -->
<g id="edge3" class="edge"><title>Node1&#45;&gt;Node3</title>
<path fill="none" stroke="midnightblue" d="M66.8354,-56.324C79.662,-47.979 99.285,-35.2122 114.44,-25.3524"/>
<polygon fill="midnightblue" stroke="midnightblue" points="116.724,-28.0417 123.198,-19.6545 112.907,-22.1742 116.724,-28.0417"/>
</g>
<!-- Node5&#45;&gt;Node3 -->
<g id="edge6" class="edge"><title>Node5&#45;&gt;Node3</title>
<path fill="none" stroke="midnightblue" d="M250.109,-56.4435C227.793,-47.5171 192.597,-33.4387 167.292,-23.3168"/>
<polygon fill="midnightblue" stroke="midnightblue" points="168.376,-19.9807 157.791,-19.5164 165.776,-26.4801 168.376,-19.9807"/>
</g>
</g>
</svg>
