<?xml version="1.0" encoding="UTF-8" standalone="no"?>
<!DOCTYPE svg PUBLIC "-//W3C//DTD SVG 1.1//EN"
 "http://www.w3.org/Graphics/SVG/1.1/DTD/svg11.dtd">
<!-- Generated by graphviz version 2.38.0 (20140413.2041)
 -->
<!-- Title: HAL_IMU.cpp Pages: 1 -->
<svg width="615pt" height="140pt"
 viewBox="0.00 0.00 615.00 140.00" xmlns="http://www.w3.org/2000/svg" xmlns:xlink="http://www.w3.org/1999/xlink">
<g id="graph0" class="graph" transform="scale(1 1) rotate(0) translate(4 136)">
<title>HAL_IMU.cpp</title>
<!-- Node0 -->
<g id="node1" class="node"><title>Node0</title>
<polygon fill="#bfbfbf" stroke="black" points="449.5,-112.5 449.5,-131.5 526.5,-131.5 526.5,-112.5 449.5,-112.5"/>
<text text-anchor="middle" x="488" y="-119.5" font-family="Helvetica,sans-Serif" font-size="10.00">HAL_IMU.cpp</text>
</g>
<!-- Node1 -->
<g id="node2" class="node"><title>Node1</title>
<g id="a_node2"><a xlink:href="_h_a_l___i_m_u_8h.html" target="_top" xlink:title="Application file for IMU. ">
<polygon fill="none" stroke="black" points="251,-56.5 251,-75.5 317,-75.5 317,-56.5 251,-56.5"/>
<text text-anchor="middle" x="284" y="-63.5" font-family="Helvetica,sans-Serif" font-size="10.00">HAL_IMU.h</text>
</a>
</g>
</g>
<!-- Node0&#45;&gt;Node1 -->
<g id="edge1" class="edge"><title>Node0&#45;&gt;Node1</title>
<path fill="none" stroke="midnightblue" d="M455.676,-112.444C420.611,-103.162 364.502,-88.3093 326.035,-78.127"/>
<polygon fill="midnightblue" stroke="midnightblue" points="326.736,-74.692 316.173,-75.5164 324.945,-81.4589 326.736,-74.692"/>
</g>
<!-- Node7 -->
<g id="node8" class="node"><title>Node7</title>
<g id="a_node8"><a xlink:href="_a_d_a_s___debug_8h.html" target="_top" xlink:title="ADAS_Debug.h">
<polygon fill="none" stroke="black" points="445.5,-56.5 445.5,-75.5 530.5,-75.5 530.5,-56.5 445.5,-56.5"/>
<text text-anchor="middle" x="488" y="-63.5" font-family="Helvetica,sans-Serif" font-size="10.00">ADAS_Debug.h</text>
</a>
</g>
</g>
<!-- Node0&#45;&gt;Node7 -->
<g id="edge7" class="edge"><title>Node0&#45;&gt;Node7</title>
<path fill="none" stroke="midnightblue" d="M488,-112.083C488,-105.006 488,-94.8611 488,-85.9865"/>
<polygon fill="midnightblue" stroke="midnightblue" points="491.5,-85.751 488,-75.7511 484.5,-85.7511 491.5,-85.751"/>
</g>
<!-- Node9 -->
<g id="node10" class="node"><title>Node9</title>
<polygon fill="none" stroke="#bfbfbf" points="549,-56.5 549,-75.5 607,-75.5 607,-56.5 549,-56.5"/>
<text text-anchor="middle" x="578" y="-63.5" font-family="Helvetica,sans-Serif" font-size="10.00">Arduino.h</text>
</g>
<!-- Node0&#45;&gt;Node9 -->
<g id="edge9" class="edge"><title>Node0&#45;&gt;Node9</title>
<path fill="none" stroke="midnightblue" d="M502.46,-112.324C516.5,-103.9 538.048,-90.9709 554.543,-81.0741"/>
<polygon fill="midnightblue" stroke="midnightblue" points="556.802,-83.8007 563.576,-75.6545 553.2,-77.7983 556.802,-83.8007"/>
</g>
<!-- Node2 -->
<g id="node3" class="node"><title>Node2</title>
<polygon fill="none" stroke="#bfbfbf" points="0,-0.5 0,-19.5 100,-19.5 100,-0.5 0,-0.5"/>
<text text-anchor="middle" x="50" y="-7.5" font-family="Helvetica,sans-Serif" font-size="10.00">Adafruit_BNO055.h</text>
</g>
<!-- Node1&#45;&gt;Node2 -->
<g id="edge2" class="edge"><title>Node1&#45;&gt;Node2</title>
<path fill="none" stroke="midnightblue" d="M250.97,-57.3776C210.797,-48.1069 142.708,-32.3942 97.0596,-21.8599"/>
<polygon fill="midnightblue" stroke="midnightblue" points="97.6402,-18.402 87.1093,-19.5637 96.0662,-25.2227 97.6402,-18.402"/>
</g>
<!-- Node3 -->
<g id="node4" class="node"><title>Node3</title>
<polygon fill="none" stroke="#bfbfbf" points="118.5,-0.5 118.5,-19.5 163.5,-19.5 163.5,-0.5 118.5,-0.5"/>
<text text-anchor="middle" x="141" y="-7.5" font-family="Helvetica,sans-Serif" font-size="10.00">Wire.h</text>
</g>
<!-- Node1&#45;&gt;Node3 -->
<g id="edge3" class="edge"><title>Node1&#45;&gt;Node3</title>
<path fill="none" stroke="midnightblue" d="M261.341,-56.4435C237.598,-47.4776 200.091,-33.314 173.262,-23.1827"/>
<polygon fill="midnightblue" stroke="midnightblue" points="174.144,-19.7749 163.553,-19.5164 171.671,-26.3235 174.144,-19.7749"/>
</g>
<!-- Node4 -->
<g id="node5" class="node"><title>Node4</title>
<polygon fill="none" stroke="#bfbfbf" points="182,-0.5 182,-19.5 276,-19.5 276,-0.5 182,-0.5"/>
<text text-anchor="middle" x="229" y="-7.5" font-family="Helvetica,sans-Serif" font-size="10.00">Adafruit_Sensor.h</text>
</g>
<!-- Node1&#45;&gt;Node4 -->
<g id="edge4" class="edge"><title>Node1&#45;&gt;Node4</title>
<path fill="none" stroke="midnightblue" d="M274.918,-56.083C266.829,-48.1409 254.805,-36.3354 245.09,-26.7973"/>
<polygon fill="midnightblue" stroke="midnightblue" points="247.501,-24.2595 237.913,-19.7511 242.597,-29.2545 247.501,-24.2595"/>
</g>
<!-- Node5 -->
<g id="node6" class="node"><title>Node5</title>
<polygon fill="none" stroke="#bfbfbf" points="294,-0.5 294,-19.5 388,-19.5 388,-0.5 294,-0.5"/>
<text text-anchor="middle" x="341" y="-7.5" font-family="Helvetica,sans-Serif" font-size="10.00">utility/imumaths.h</text>
</g>
<!-- Node1&#45;&gt;Node5 -->
<g id="edge5" class="edge"><title>Node1&#45;&gt;Node5</title>
<path fill="none" stroke="midnightblue" d="M293.158,-56.324C301.501,-48.4196 314.032,-36.5482 324.177,-26.9377"/>
<polygon fill="midnightblue" stroke="midnightblue" points="326.823,-29.2522 331.675,-19.8339 322.009,-24.1705 326.823,-29.2522"/>
</g>
<!-- Node6 -->
<g id="node7" class="node"><title>Node6</title>
<g id="a_node7"><a xlink:href="_a_d_a_s___types_8h.html" target="_top" xlink:title="ADAS_Types.h">
<polygon fill="none" stroke="black" points="406.5,-0.5 406.5,-19.5 489.5,-19.5 489.5,-0.5 406.5,-0.5"/>
<text text-anchor="middle" x="448" y="-7.5" font-family="Helvetica,sans-Serif" font-size="10.00">ADAS_Types.h</text>
</a>
</g>
</g>
<!-- Node1&#45;&gt;Node6 -->
<g id="edge6" class="edge"><title>Node1&#45;&gt;Node6</title>
<path fill="none" stroke="midnightblue" d="M309.986,-56.4435C337.696,-47.3196 381.752,-32.8133 412.616,-22.6509"/>
<polygon fill="midnightblue" stroke="midnightblue" points="413.732,-25.9684 422.135,-19.5164 411.542,-19.3196 413.732,-25.9684"/>
</g>
<!-- Node8 -->
<g id="node9" class="node"><title>Node8</title>
<g id="a_node9"><a xlink:href="_a_d_a_s___cfg_8h.html" target="_top" xlink:title="This file contains the configuration of the vehicle. ">
<polygon fill="none" stroke="black" points="507.5,-0.5 507.5,-19.5 578.5,-19.5 578.5,-0.5 507.5,-0.5"/>
<text text-anchor="middle" x="543" y="-7.5" font-family="Helvetica,sans-Serif" font-size="10.00">ADAS_Cfg.h</text>
</a>
</g>
</g>
<!-- Node7&#45;&gt;Node8 -->
<g id="edge8" class="edge"><title>Node7&#45;&gt;Node8</title>
<path fill="none" stroke="midnightblue" d="M497.082,-56.083C505.171,-48.1409 517.195,-36.3354 526.91,-26.7973"/>
<polygon fill="midnightblue" stroke="midnightblue" points="529.403,-29.2545 534.087,-19.7511 524.499,-24.2595 529.403,-29.2545"/>
</g>
</g>
</svg>
