<?xml version="1.0" encoding="UTF-8" standalone="no"?>
<!DOCTYPE svg PUBLIC "-//W3C//DTD SVG 1.1//EN"
 "http://www.w3.org/Graphics/SVG/1.1/DTD/svg11.dtd">
<!-- Generated by graphviz version 2.38.0 (20140413.2041)
 -->
<!-- Title: HAL_DriveUnit.cpp Pages: 1 -->
<svg width="172pt" height="140pt"
 viewBox="0.00 0.00 171.50 140.00" xmlns="http://www.w3.org/2000/svg" xmlns:xlink="http://www.w3.org/1999/xlink">
<g id="graph0" class="graph" transform="scale(1 1) rotate(0) translate(4 136)">
<title>HAL_DriveUnit.cpp</title>
<!-- Node0 -->
<g id="node1" class="node"><title>Node0</title>
<polygon fill="#bfbfbf" stroke="black" points="39.5,-112.5 39.5,-131.5 137.5,-131.5 137.5,-112.5 39.5,-112.5"/>
<text text-anchor="middle" x="88.5" y="-119.5" font-family="Helvetica,sans-Serif" font-size="10.00">HAL_DriveUnit.cpp</text>
</g>
<!-- Node1 -->
<g id="node2" class="node"><title>Node1</title>
<g id="a_node2"><a xlink:href="_h_a_l___drive_unit_8h.html" target="_top" xlink:title="HAL_DriveUnit.h">
<polygon fill="none" stroke="black" points="0,-56.5 0,-75.5 87,-75.5 87,-56.5 0,-56.5"/>
<text text-anchor="middle" x="43.5" y="-63.5" font-family="Helvetica,sans-Serif" font-size="10.00">HAL_DriveUnit.h</text>
</a>
</g>
</g>
<!-- Node0&#45;&gt;Node1 -->
<g id="edge1" class="edge"><title>Node0&#45;&gt;Node1</title>
<path fill="none" stroke="midnightblue" d="M81.0692,-112.083C74.6473,-104.377 65.1944,-93.0333 57.3775,-83.6531"/>
<polygon fill="midnightblue" stroke="midnightblue" points="59.8832,-81.1927 50.7926,-75.7511 54.5057,-85.674 59.8832,-81.1927"/>
</g>
<!-- Node3 -->
<g id="node4" class="node"><title>Node3</title>
<polygon fill="none" stroke="#bfbfbf" points="105.5,-56.5 105.5,-75.5 163.5,-75.5 163.5,-56.5 105.5,-56.5"/>
<text text-anchor="middle" x="134.5" y="-63.5" font-family="Helvetica,sans-Serif" font-size="10.00">Arduino.h</text>
</g>
<!-- Node0&#45;&gt;Node3 -->
<g id="edge3" class="edge"><title>Node0&#45;&gt;Node3</title>
<path fill="none" stroke="midnightblue" d="M96.096,-112.083C102.727,-104.298 112.521,-92.8015 120.558,-83.3665"/>
<polygon fill="midnightblue" stroke="midnightblue" points="123.225,-85.6332 127.045,-75.7511 117.896,-81.0939 123.225,-85.6332"/>
</g>
<!-- Node2 -->
<g id="node3" class="node"><title>Node2</title>
<g id="a_node3"><a xlink:href="_a_d_a_s___types_8h.html" target="_top" xlink:title="ADAS_Types.h">
<polygon fill="none" stroke="black" points="2,-0.5 2,-19.5 85,-19.5 85,-0.5 2,-0.5"/>
<text text-anchor="middle" x="43.5" y="-7.5" font-family="Helvetica,sans-Serif" font-size="10.00">ADAS_Types.h</text>
</a>
</g>
</g>
<!-- Node1&#45;&gt;Node2 -->
<g id="edge2" class="edge"><title>Node1&#45;&gt;Node2</title>
<path fill="none" stroke="midnightblue" d="M43.5,-56.083C43.5,-49.0059 43.5,-38.8611 43.5,-29.9865"/>
<polygon fill="midnightblue" stroke="midnightblue" points="47.0001,-29.751 43.5,-19.7511 40.0001,-29.7511 47.0001,-29.751"/>
</g>
</g>
</svg>
