<?xml version="1.0" encoding="UTF-8" standalone="no"?>
<!DOCTYPE svg PUBLIC "-//W3C//DTD SVG 1.1//EN"
 "http://www.w3.org/Graphics/SVG/1.1/DTD/svg11.dtd">
<!-- Generated by graphviz version 2.38.0 (20140413.2041)
 -->
<!-- Title: HAL_Encoder.h Pages: 1 -->
<svg width="314pt" height="140pt"
 viewBox="0.00 0.00 313.50 140.00" xmlns="http://www.w3.org/2000/svg" xmlns:xlink="http://www.w3.org/1999/xlink">
<g id="graph0" class="graph" transform="scale(1 1) rotate(0) translate(4 136)">
<title>HAL_Encoder.h</title>
<!-- Node3 -->
<g id="node1" class="node"><title>Node3</title>
<polygon fill="#bfbfbf" stroke="black" points="100.5,-112.5 100.5,-131.5 185.5,-131.5 185.5,-112.5 100.5,-112.5"/>
<text text-anchor="middle" x="143" y="-119.5" font-family="Helvetica,sans-Serif" font-size="10.00">HAL_Encoder.h</text>
</g>
<!-- Node4 -->
<g id="node2" class="node"><title>Node4</title>
<g id="a_node2"><a xlink:href="_a_d_a_s___m_c_u_8ino.html" target="_top" xlink:title="Main file for the NavU of the ADAS project. ">
<polygon fill="none" stroke="black" points="0,-0.5 0,-19.5 86,-19.5 86,-0.5 0,-0.5"/>
<text text-anchor="middle" x="43" y="-7.5" font-family="Helvetica,sans-Serif" font-size="10.00">ADAS_MCU.ino</text>
</a>
</g>
</g>
<!-- Node3&#45;&gt;Node4 -->
<g id="edge1" class="edge"><title>Node3&#45;&gt;Node4</title>
<path fill="none" stroke="midnightblue" d="M123.222,-106.096C112.8,-97.7901 100.117,-86.938 90,-76 72.9791,-57.5987 56.6577,-32.9392 48.4671,-19.9194"/>
<polygon fill="midnightblue" stroke="midnightblue" points="121.3,-109.035 131.339,-112.42 125.602,-103.513 121.3,-109.035"/>
</g>
<!-- Node5 -->
<g id="node3" class="node"><title>Node5</title>
<g id="a_node3"><a xlink:href="_app___motor_ctrl_8h.html" target="_top" xlink:title="Header file for motor control unit. ">
<polygon fill="none" stroke="black" points="99.5,-56.5 99.5,-75.5 186.5,-75.5 186.5,-56.5 99.5,-56.5"/>
<text text-anchor="middle" x="143" y="-63.5" font-family="Helvetica,sans-Serif" font-size="10.00">App_MotorCtrl.h</text>
</a>
</g>
</g>
<!-- Node3&#45;&gt;Node5 -->
<g id="edge2" class="edge"><title>Node3&#45;&gt;Node5</title>
<path fill="none" stroke="midnightblue" d="M143,-101.805C143,-92.9102 143,-82.7798 143,-75.7511"/>
<polygon fill="midnightblue" stroke="midnightblue" points="139.5,-102.083 143,-112.083 146.5,-102.083 139.5,-102.083"/>
</g>
<!-- Node8 -->
<g id="node6" class="node"><title>Node8</title>
<g id="a_node6"><a xlink:href="_h_a_l___encoder_8cpp.html" target="_top" xlink:title="HAL_Encoder.cpp">
<polygon fill="none" stroke="black" points="204.5,-56.5 204.5,-75.5 299.5,-75.5 299.5,-56.5 204.5,-56.5"/>
<text text-anchor="middle" x="252" y="-63.5" font-family="Helvetica,sans-Serif" font-size="10.00">HAL_Encoder.cpp</text>
</a>
</g>
</g>
<!-- Node3&#45;&gt;Node8 -->
<g id="edge6" class="edge"><title>Node3&#45;&gt;Node8</title>
<path fill="none" stroke="midnightblue" d="M169.519,-107.862C189.73,-97.8492 216.987,-84.3458 234.531,-75.6545"/>
<polygon fill="midnightblue" stroke="midnightblue" points="167.92,-104.748 160.513,-112.324 171.027,-111.021 167.92,-104.748"/>
</g>
<!-- Node5&#45;&gt;Node4 -->
<g id="edge3" class="edge"><title>Node5&#45;&gt;Node4</title>
<path fill="none" stroke="midnightblue" d="M117.912,-51.4526C99.4509,-41.4835 74.9034,-28.2279 59.0269,-19.6545"/>
<polygon fill="midnightblue" stroke="midnightblue" points="116.471,-54.6521 126.933,-56.324 119.797,-48.4928 116.471,-54.6521"/>
</g>
<!-- Node6 -->
<g id="node4" class="node"><title>Node6</title>
<g id="a_node4"><a xlink:href="_app___motor_ctrl_8cpp.html" target="_top" xlink:title="Application file for environmental data. ">
<polygon fill="none" stroke="black" points="104,-0.5 104,-19.5 202,-19.5 202,-0.5 104,-0.5"/>
<text text-anchor="middle" x="153" y="-7.5" font-family="Helvetica,sans-Serif" font-size="10.00">App_MotorCtrl.cpp</text>
</a>
</g>
</g>
<!-- Node5&#45;&gt;Node6 -->
<g id="edge4" class="edge"><title>Node5&#45;&gt;Node6</title>
<path fill="none" stroke="midnightblue" d="M146.5,-46.1005C148.16,-37.1357 150.063,-26.8579 151.379,-19.7511"/>
<polygon fill="midnightblue" stroke="midnightblue" points="143.031,-45.6128 144.651,-56.083 149.914,-46.8875 143.031,-45.6128"/>
</g>
<!-- Node7 -->
<g id="node5" class="node"><title>Node7</title>
<g id="a_node5"><a xlink:href="_comm___i_c_c_8cpp.html" target="_top" xlink:title="Comm_ICC.cpp">
<polygon fill="none" stroke="black" points="220.5,-0.5 220.5,-19.5 305.5,-19.5 305.5,-0.5 220.5,-0.5"/>
<text text-anchor="middle" x="263" y="-7.5" font-family="Helvetica,sans-Serif" font-size="10.00">Comm_ICC.cpp</text>
</a>
</g>
</g>
<!-- Node5&#45;&gt;Node7 -->
<g id="edge5" class="edge"><title>Node5&#45;&gt;Node7</title>
<path fill="none" stroke="midnightblue" d="M171.373,-52.2321C193.82,-42.1312 224.535,-28.3091 244.075,-19.5164"/>
<polygon fill="midnightblue" stroke="midnightblue" points="169.697,-49.1481 162.014,-56.4435 172.57,-55.5316 169.697,-49.1481"/>
</g>
</g>
</svg>
