<?xml version="1.0" encoding="UTF-8" standalone="no"?>
<!DOCTYPE svg PUBLIC "-//W3C//DTD SVG 1.1//EN"
 "http://www.w3.org/Graphics/SVG/1.1/DTD/svg11.dtd">
<!-- Generated by graphviz version 2.38.0 (20140413.2041)
 -->
<!-- Title: CEncoder::ReadCount Pages: 1 -->
<svg width="450pt" height="28pt"
 viewBox="0.00 0.00 450.00 28.00" xmlns="http://www.w3.org/2000/svg" xmlns:xlink="http://www.w3.org/1999/xlink">
<g id="graph0" class="graph" transform="scale(1 1) rotate(0) translate(4 24)">
<title>CEncoder::ReadCount</title>
<!-- Node12 -->
<g id="node1" class="node"><title>Node12</title>
<polygon fill="#bfbfbf" stroke="black" points="0,-0.5 0,-19.5 113,-19.5 113,-0.5 0,-0.5"/>
<text text-anchor="middle" x="56.5" y="-7.5" font-family="Helvetica,sans-Serif" font-size="10.00">CEncoder::ReadCount</text>
</g>
<!-- Node13 -->
<g id="node2" class="node"><title>Node13</title>
<g id="a_node2"><a xlink:href="class_c_motor_ctrl.html#a8a76501cf8eaa85c5131bde5f33b6699" target="_top" xlink:title="Function of the CMotorCtrl where the sum of all peaks and the peaks per 150ms are read out...">
<polygon fill="none" stroke="black" points="149,-0.5 149,-19.5 253,-19.5 253,-0.5 149,-0.5"/>
<text text-anchor="middle" x="201" y="-7.5" font-family="Helvetica,sans-Serif" font-size="10.00">CMotorCtrl::readenc</text>
</a>
</g>
</g>
<!-- Node12&#45;&gt;Node13 -->
<g id="edge1" class="edge"><title>Node12&#45;&gt;Node13</title>
<path fill="none" stroke="midnightblue" d="M123.005,-10C131.595,-10 140.297,-10 148.608,-10"/>
<polygon fill="midnightblue" stroke="midnightblue" points="123.002,-6.5001 113.002,-10 123.002,-13.5001 123.002,-6.5001"/>
</g>
<!-- Node14 -->
<g id="node3" class="node"><title>Node14</title>
<g id="a_node3"><a xlink:href="_a_d_a_s___m_c_u_8ino.html#a9f2f19081d81dba1b47615d1d9363281" target="_top" xlink:title="timerCallback">
<polygon fill="none" stroke="black" points="289,-0.5 289,-19.5 365,-19.5 365,-0.5 289,-0.5"/>
<text text-anchor="middle" x="327" y="-7.5" font-family="Helvetica,sans-Serif" font-size="10.00">timerCallback</text>
</a>
</g>
</g>
<!-- Node13&#45;&gt;Node14 -->
<g id="edge2" class="edge"><title>Node13&#45;&gt;Node14</title>
<path fill="none" stroke="midnightblue" d="M263.375,-10C272.126,-10 280.893,-10 288.98,-10"/>
<polygon fill="midnightblue" stroke="midnightblue" points="263.151,-6.5001 253.151,-10 263.151,-13.5001 263.151,-6.5001"/>
</g>
<!-- Node15 -->
<g id="node4" class="node"><title>Node15</title>
<g id="a_node4"><a xlink:href="_a_d_a_s___m_c_u_8ino.html#a4fc01d736fe50cf5b977f755b675f11d" target="_top" xlink:title="setup">
<polygon fill="none" stroke="black" points="401,-0.5 401,-19.5 442,-19.5 442,-0.5 401,-0.5"/>
<text text-anchor="middle" x="421.5" y="-7.5" font-family="Helvetica,sans-Serif" font-size="10.00">setup</text>
</a>
</g>
</g>
<!-- Node14&#45;&gt;Node15 -->
<g id="edge3" class="edge"><title>Node14&#45;&gt;Node15</title>
<path fill="none" stroke="midnightblue" d="M375.277,-10C384.346,-10 393.361,-10 400.929,-10"/>
<polygon fill="midnightblue" stroke="midnightblue" points="375.09,-6.5001 365.09,-10 375.09,-13.5001 375.09,-6.5001"/>
</g>
</g>
</svg>
