<?xml version="1.0" encoding="UTF-8" standalone="no"?>
<!DOCTYPE svg PUBLIC "-//W3C//DTD SVG 1.1//EN"
 "http://www.w3.org/Graphics/SVG/1.1/DTD/svg11.dtd">
<!-- Generated by graphviz version 2.38.0 (20140413.2041)
 -->
<!-- Title: CPWMUnit::writeDuty Pages: 1 -->
<svg width="475pt" height="66pt"
 viewBox="0.00 0.00 475.00 66.00" xmlns="http://www.w3.org/2000/svg" xmlns:xlink="http://www.w3.org/1999/xlink">
<g id="graph0" class="graph" transform="scale(1 1) rotate(0) translate(4 62)">
<title>CPWMUnit::writeDuty</title>
<!-- Node9 -->
<g id="node1" class="node"><title>Node9</title>
<polygon fill="#bfbfbf" stroke="black" points="0,-19.5 0,-38.5 112,-38.5 112,-19.5 0,-19.5"/>
<text text-anchor="middle" x="56" y="-26.5" font-family="Helvetica,sans-Serif" font-size="10.00">CPWMUnit::writeDuty</text>
</g>
<!-- Node10 -->
<g id="node2" class="node"><title>Node10</title>
<g id="a_node2"><a xlink:href="class_c_motor_ctrl.html#a63e5dd36be027fe8a5e1acee5c1322c8" target="_top" xlink:title="Run function of CMotorCtrl which is executed in every loop. ">
<polygon fill="none" stroke="black" points="305,-38.5 305,-57.5 391,-57.5 391,-38.5 305,-38.5"/>
<text text-anchor="middle" x="348" y="-45.5" font-family="Helvetica,sans-Serif" font-size="10.00">CMotorCtrl::Run</text>
</a>
</g>
</g>
<!-- Node9&#45;&gt;Node10 -->
<g id="edge1" class="edge"><title>Node9&#45;&gt;Node10</title>
<path fill="none" stroke="midnightblue" d="M122.371,-33.2829C178.173,-36.9389 256.782,-42.0892 304.682,-45.2275"/>
<polygon fill="midnightblue" stroke="midnightblue" points="122.437,-29.7798 112.229,-32.6185 121.979,-36.7649 122.437,-29.7798"/>
</g>
<!-- Node12 -->
<g id="node4" class="node"><title>Node12</title>
<g id="a_node4"><a xlink:href="class_c_motor_ctrl.html#af3e047be659fb9f49f1644ba2eca4684" target="_top" xlink:title="API Function of the CMotorCtrl to pause the current action of the motor control. ">
<polygon fill="none" stroke="black" points="148,-0.5 148,-19.5 264,-19.5 264,-0.5 148,-0.5"/>
<text text-anchor="middle" x="206" y="-7.5" font-family="Helvetica,sans-Serif" font-size="10.00">CMotorCtrl::pauseDrive</text>
</a>
</g>
</g>
<!-- Node9&#45;&gt;Node12 -->
<g id="edge3" class="edge"><title>Node9&#45;&gt;Node12</title>
<path fill="none" stroke="midnightblue" d="M122.088,-20.6442C130.675,-19.5417 139.425,-18.4184 147.865,-17.3349"/>
<polygon fill="midnightblue" stroke="midnightblue" points="121.583,-17.1802 112.11,-21.9251 122.474,-24.1232 121.583,-17.1802"/>
</g>
<!-- Node11 -->
<g id="node3" class="node"><title>Node11</title>
<g id="a_node3"><a xlink:href="_a_d_a_s___m_c_u_8ino.html#afe461d27b9c48d5921c00d521181f12f" target="_top" xlink:title="loop">
<polygon fill="none" stroke="black" points="432,-19.5 432,-38.5 467,-38.5 467,-19.5 432,-19.5"/>
<text text-anchor="middle" x="449.5" y="-26.5" font-family="Helvetica,sans-Serif" font-size="10.00">loop</text>
</a>
</g>
</g>
<!-- Node10&#45;&gt;Node11 -->
<g id="edge2" class="edge"><title>Node10&#45;&gt;Node11</title>
<path fill="none" stroke="midnightblue" d="M401.255,-38.0217C412.224,-35.9271 423.03,-33.8636 431.533,-32.2399"/>
<polygon fill="midnightblue" stroke="midnightblue" points="400.363,-34.6287 391.197,-39.9423 401.676,-41.5044 400.363,-34.6287"/>
</g>
<!-- Node13 -->
<g id="node5" class="node"><title>Node13</title>
<g id="a_node5"><a xlink:href="class_c_i_c_c_comms.html#a8b3fa81307b3b9ba0e72b4aee8279c56" target="_top" xlink:title="CICCComms::Run">
<polygon fill="none" stroke="black" points="300,-0.5 300,-19.5 396,-19.5 396,-0.5 300,-0.5"/>
<text text-anchor="middle" x="348" y="-7.5" font-family="Helvetica,sans-Serif" font-size="10.00">CICCComms::Run</text>
</a>
</g>
</g>
<!-- Node12&#45;&gt;Node13 -->
<g id="edge4" class="edge"><title>Node12&#45;&gt;Node13</title>
<path fill="none" stroke="midnightblue" d="M274.373,-10C282.961,-10 291.601,-10 299.776,-10"/>
<polygon fill="midnightblue" stroke="midnightblue" points="274.347,-6.5001 264.347,-10 274.347,-13.5001 274.347,-6.5001"/>
</g>
<!-- Node13&#45;&gt;Node11 -->
<g id="edge5" class="edge"><title>Node13&#45;&gt;Node11</title>
<path fill="none" stroke="midnightblue" d="M406.061,-20.896C415.524,-22.703 424.626,-24.4412 431.958,-25.8412"/>
<polygon fill="midnightblue" stroke="midnightblue" points="406.607,-17.4371 396.128,-18.9992 405.294,-24.3129 406.607,-17.4371"/>
</g>
</g>
</svg>
