<?xml version="1.0" encoding="UTF-8" standalone="no"?>
<!DOCTYPE svg PUBLIC "-//W3C//DTD SVG 1.1//EN"
 "http://www.w3.org/Graphics/SVG/1.1/DTD/svg11.dtd">
<!-- Generated by graphviz version 2.38.0 (20140413.2041)
 -->
<!-- Title: CSerial::ReleaseBuffer Pages: 1 -->
<svg width="451pt" height="28pt"
 viewBox="0.00 0.00 451.00 28.00" xmlns="http://www.w3.org/2000/svg" xmlns:xlink="http://www.w3.org/1999/xlink">
<g id="graph0" class="graph" transform="scale(1 1) rotate(0) translate(4 24)">
<title>CSerial::ReleaseBuffer</title>
<!-- Node19 -->
<g id="node1" class="node"><title>Node19</title>
<polygon fill="#bfbfbf" stroke="black" points="0,-0.5 0,-19.5 114,-19.5 114,-0.5 0,-0.5"/>
<text text-anchor="middle" x="57" y="-7.5" font-family="Helvetica,sans-Serif" font-size="10.00">CSerial::ReleaseBuffer</text>
</g>
<!-- Node20 -->
<g id="node2" class="node"><title>Node20</title>
<g id="a_node2"><a xlink:href="class_c_serial.html#abad86c07f530569b2ceeea75bda485ad" target="_top" xlink:title="CSerial::GetData">
<polygon fill="none" stroke="black" points="150,-0.5 150,-19.5 240,-19.5 240,-0.5 150,-0.5"/>
<text text-anchor="middle" x="195" y="-7.5" font-family="Helvetica,sans-Serif" font-size="10.00">CSerial::GetData</text>
</a>
</g>
</g>
<!-- Node19&#45;&gt;Node20 -->
<g id="edge1" class="edge"><title>Node19&#45;&gt;Node20</title>
<path fill="none" stroke="midnightblue" d="M124.188,-10C132.823,-10 141.498,-10 149.654,-10"/>
<polygon fill="midnightblue" stroke="midnightblue" points="124.102,-6.5001 114.102,-10 124.102,-13.5001 124.102,-6.5001"/>
</g>
<!-- Node21 -->
<g id="node3" class="node"><title>Node21</title>
<g id="a_node3"><a xlink:href="class_c_i_c_c_comms.html#a8b3fa81307b3b9ba0e72b4aee8279c56" target="_top" xlink:title="CICCComms::Run">
<polygon fill="none" stroke="black" points="276,-0.5 276,-19.5 372,-19.5 372,-0.5 276,-0.5"/>
<text text-anchor="middle" x="324" y="-7.5" font-family="Helvetica,sans-Serif" font-size="10.00">CICCComms::Run</text>
</a>
</g>
</g>
<!-- Node20&#45;&gt;Node21 -->
<g id="edge2" class="edge"><title>Node20&#45;&gt;Node21</title>
<path fill="none" stroke="midnightblue" d="M250.324,-10C258.864,-10 267.631,-10 275.988,-10"/>
<polygon fill="midnightblue" stroke="midnightblue" points="250.062,-6.5001 240.062,-10 250.062,-13.5001 250.062,-6.5001"/>
</g>
<!-- Node22 -->
<g id="node4" class="node"><title>Node22</title>
<g id="a_node4"><a xlink:href="_a_d_a_s___m_c_u_8ino.html#afe461d27b9c48d5921c00d521181f12f" target="_top" xlink:title="loop">
<polygon fill="none" stroke="black" points="408,-0.5 408,-19.5 443,-19.5 443,-0.5 408,-0.5"/>
<text text-anchor="middle" x="425.5" y="-7.5" font-family="Helvetica,sans-Serif" font-size="10.00">loop</text>
</a>
</g>
</g>
<!-- Node21&#45;&gt;Node22 -->
<g id="edge3" class="edge"><title>Node21&#45;&gt;Node22</title>
<path fill="none" stroke="midnightblue" d="M382.359,-10C391.715,-10 400.703,-10 407.958,-10"/>
<polygon fill="midnightblue" stroke="midnightblue" points="382.128,-6.5001 372.128,-10 382.128,-13.5001 382.128,-6.5001"/>
</g>
</g>
</svg>
