<?xml version="1.0" encoding="UTF-8" standalone="no"?>
<!DOCTYPE svg PUBLIC "-//W3C//DTD SVG 1.1//EN"
 "http://www.w3.org/Graphics/SVG/1.1/DTD/svg11.dtd">
<!-- Generated by graphviz version 2.38.0 (20140413.2041)
 -->
<!-- Title: ChartModelClass Pages: 1 -->
<svg width="247pt" height="248pt"
 viewBox="0.00 0.00 246.50 248.00" xmlns="http://www.w3.org/2000/svg" xmlns:xlink="http://www.w3.org/1999/xlink">
<g id="graph0" class="graph" transform="scale(1 1) rotate(0) translate(4 244)">
<title>ChartModelClass</title>
<!-- Node1 -->
<g id="node1" class="node"><title>Node1</title>
<polygon fill="#bfbfbf" stroke="black" points="76.5,-0.5 76.5,-101.5 188.5,-101.5 188.5,-0.5 76.5,-0.5"/>
<text text-anchor="middle" x="132.5" y="-89.5" font-family="Helvetica,sans-Serif" font-size="10.00">ChartModelClass</text>
<polyline fill="none" stroke="black" points="76.5,-82.5 188.5,-82.5 "/>
<text text-anchor="middle" x="132.5" y="-70.5" font-family="Helvetica,sans-Serif" font-size="10.00"> </text>
<polyline fill="none" stroke="black" points="76.5,-63.5 188.5,-63.5 "/>
<text text-anchor="start" x="84.5" y="-51.5" font-family="Helvetica,sans-Serif" font-size="10.00">+ initialize()</text>
<text text-anchor="start" x="84.5" y="-40.5" font-family="Helvetica,sans-Serif" font-size="10.00">+ step()</text>
<text text-anchor="start" x="84.5" y="-29.5" font-family="Helvetica,sans-Serif" font-size="10.00">+ ChartModelClass()</text>
<text text-anchor="start" x="84.5" y="-18.5" font-family="Helvetica,sans-Serif" font-size="10.00">+ ~ChartModelClass()</text>
<text text-anchor="start" x="84.5" y="-7.5" font-family="Helvetica,sans-Serif" font-size="10.00">+ getRTM()</text>
</g>
<!-- Node2 -->
<g id="node2" class="node"><title>Node2</title>
<g id="a_node2"><a xlink:href="struct_d_w.html" target="_top" xlink:title="Local signals for Stateflow. ">
<polygon fill="none" stroke="black" points="0,-155 0,-234 77,-234 77,-155 0,-155"/>
<text text-anchor="middle" x="38.5" y="-222" font-family="Helvetica,sans-Serif" font-size="10.00">DW</text>
<polyline fill="none" stroke="black" points="0,-215 77,-215 "/>
<text text-anchor="start" x="8" y="-203" font-family="Helvetica,sans-Serif" font-size="10.00">+ curr_angle</text>
<text text-anchor="start" x="8" y="-192" font-family="Helvetica,sans-Serif" font-size="10.00">+ op</text>
<text text-anchor="start" x="8" y="-181" font-family="Helvetica,sans-Serif" font-size="10.00">+ is_c3_Chart</text>
<polyline fill="none" stroke="black" points="0,-174 77,-174 "/>
<text text-anchor="middle" x="38.5" y="-162" font-family="Helvetica,sans-Serif" font-size="10.00"> </text>
</a>
</g>
</g>
<!-- Node2&#45;&gt;Node1 -->
<g id="edge1" class="edge"><title>Node2&#45;&gt;Node1</title>
<path fill="none" stroke="#404040" d="M64.1859,-154.835C73.0634,-141.471 83.2279,-126.17 92.9553,-111.527"/>
<polygon fill="none" stroke="#404040" points="92.9585,-111.523 92.9467,-104.311 99.5986,-101.527 99.6104,-108.738 92.9585,-111.523"/>
<text text-anchor="middle" x="101.5" y="-123" font-family="Helvetica,sans-Serif" font-size="10.00"> +rtDW</text>
</g>
<!-- Node3 -->
<g id="node3" class="node"><title>Node3</title>
<g id="a_node3"><a xlink:href="struct_ext_u.html" target="_top" xlink:title="External inputs for Stateflow. ">
<polygon fill="none" stroke="black" points="95,-155 95,-234 170,-234 170,-155 95,-155"/>
<text text-anchor="middle" x="132.5" y="-222" font-family="Helvetica,sans-Serif" font-size="10.00">ExtU</text>
<polyline fill="none" stroke="black" points="95,-215 170,-215 "/>
<text text-anchor="start" x="103" y="-203" font-family="Helvetica,sans-Serif" font-size="10.00">+ gyro_signal</text>
<text text-anchor="start" x="103" y="-192" font-family="Helvetica,sans-Serif" font-size="10.00">+ turn</text>
<text text-anchor="start" x="103" y="-181" font-family="Helvetica,sans-Serif" font-size="10.00">+ dist</text>
<polyline fill="none" stroke="black" points="95,-174 170,-174 "/>
<text text-anchor="middle" x="132.5" y="-162" font-family="Helvetica,sans-Serif" font-size="10.00"> </text>
</a>
</g>
</g>
<!-- Node3&#45;&gt;Node1 -->
<g id="edge2" class="edge"><title>Node3&#45;&gt;Node1</title>
<path fill="none" stroke="#404040" d="M132.5,-154.835C132.5,-142.114 132.5,-127.637 132.5,-113.644"/>
<polygon fill="none" stroke="#404040" points="132.5,-113.527 128.5,-107.527 132.5,-101.527 136.5,-107.527 132.5,-113.527"/>
<text text-anchor="middle" x="143.5" y="-123" font-family="Helvetica,sans-Serif" font-size="10.00"> +rtU</text>
</g>
<!-- Node4 -->
<g id="node4" class="node"><title>Node4</title>
<g id="a_node4"><a xlink:href="struct_ext_y.html" target="_top" xlink:title="External outputs for Stateflow. ">
<polygon fill="none" stroke="black" points="188.5,-149.5 188.5,-239.5 238.5,-239.5 238.5,-149.5 188.5,-149.5"/>
<text text-anchor="middle" x="213.5" y="-227.5" font-family="Helvetica,sans-Serif" font-size="10.00">ExtY</text>
<polyline fill="none" stroke="black" points="188.5,-220.5 238.5,-220.5 "/>
<text text-anchor="start" x="196.5" y="-208.5" font-family="Helvetica,sans-Serif" font-size="10.00">+ mot_r</text>
<text text-anchor="start" x="196.5" y="-197.5" font-family="Helvetica,sans-Serif" font-size="10.00">+ dir_l</text>
<text text-anchor="start" x="196.5" y="-186.5" font-family="Helvetica,sans-Serif" font-size="10.00">+ dir_r</text>
<text text-anchor="start" x="196.5" y="-175.5" font-family="Helvetica,sans-Serif" font-size="10.00">+ mot_l</text>
<polyline fill="none" stroke="black" points="188.5,-168.5 238.5,-168.5 "/>
<text text-anchor="middle" x="213.5" y="-156.5" font-family="Helvetica,sans-Serif" font-size="10.00"> </text>
</a>
</g>
</g>
<!-- Node4&#45;&gt;Node1 -->
<g id="edge3" class="edge"><title>Node4&#45;&gt;Node1</title>
<path fill="none" stroke="#404040" d="M188.315,-149.504C181.598,-137.77 174.222,-124.885 167.096,-112.435"/>
<polygon fill="none" stroke="#404040" points="166.881,-112.061 160.429,-108.841 160.92,-101.647 167.372,-104.867 166.881,-112.061"/>
<text text-anchor="middle" x="186.5" y="-123" font-family="Helvetica,sans-Serif" font-size="10.00"> +rtY</text>
</g>
</g>
</svg>
