<?xml version="1.0" encoding="UTF-8" standalone="no"?>
<!DOCTYPE svg PUBLIC "-//W3C//DTD SVG 1.1//EN"
 "http://www.w3.org/Graphics/SVG/1.1/DTD/svg11.dtd">
<!-- Generated by graphviz version 2.38.0 (20140413.2041)
 -->
<!-- Title: CEncoder::reset Pages: 1 -->
<svg width="455pt" height="28pt"
 viewBox="0.00 0.00 455.00 28.00" xmlns="http://www.w3.org/2000/svg" xmlns:xlink="http://www.w3.org/1999/xlink">
<g id="graph0" class="graph" transform="scale(1 1) rotate(0) translate(4 24)">
<title>CEncoder::reset</title>
<!-- Node22 -->
<g id="node1" class="node"><title>Node22</title>
<polygon fill="#bfbfbf" stroke="black" points="0,-0.5 0,-19.5 87,-19.5 87,-0.5 0,-0.5"/>
<text text-anchor="middle" x="43.5" y="-7.5" font-family="Helvetica,sans-Serif" font-size="10.00">CEncoder::reset</text>
</g>
<!-- Node23 -->
<g id="node2" class="node"><title>Node23</title>
<g id="a_node2"><a xlink:href="class_c_motor_ctrl.html#a0ae095bb6003ee63086361661f32ad3a" target="_top" xlink:title="API Function of the CMotorCtrl to start driving. ">
<polygon fill="none" stroke="black" points="123,-0.5 123,-19.5 244,-19.5 244,-0.5 123,-0.5"/>
<text text-anchor="middle" x="183.5" y="-7.5" font-family="Helvetica,sans-Serif" font-size="10.00">CMotorCtrl::setDistance</text>
</a>
</g>
</g>
<!-- Node22&#45;&gt;Node23 -->
<g id="edge1" class="edge"><title>Node22&#45;&gt;Node23</title>
<path fill="none" stroke="midnightblue" d="M97.096,-10C105.518,-10 114.287,-10 122.859,-10"/>
<polygon fill="midnightblue" stroke="midnightblue" points="97.0306,-6.5001 87.0306,-10 97.0306,-13.5001 97.0306,-6.5001"/>
</g>
<!-- Node24 -->
<g id="node3" class="node"><title>Node24</title>
<g id="a_node3"><a xlink:href="class_c_i_c_c_comms.html#a8b3fa81307b3b9ba0e72b4aee8279c56" target="_top" xlink:title="CICCComms::Run">
<polygon fill="none" stroke="black" points="280,-0.5 280,-19.5 376,-19.5 376,-0.5 280,-0.5"/>
<text text-anchor="middle" x="328" y="-7.5" font-family="Helvetica,sans-Serif" font-size="10.00">CICCComms::Run</text>
</a>
</g>
</g>
<!-- Node23&#45;&gt;Node24 -->
<g id="edge2" class="edge"><title>Node23&#45;&gt;Node24</title>
<path fill="none" stroke="midnightblue" d="M254.221,-10C262.874,-10 271.557,-10 279.76,-10"/>
<polygon fill="midnightblue" stroke="midnightblue" points="254.107,-6.5001 244.107,-10 254.107,-13.5001 254.107,-6.5001"/>
</g>
<!-- Node25 -->
<g id="node4" class="node"><title>Node25</title>
<g id="a_node4"><a xlink:href="_a_d_a_s___m_c_u_8ino.html#afe461d27b9c48d5921c00d521181f12f" target="_top" xlink:title="loop">
<polygon fill="none" stroke="black" points="412,-0.5 412,-19.5 447,-19.5 447,-0.5 412,-0.5"/>
<text text-anchor="middle" x="429.5" y="-7.5" font-family="Helvetica,sans-Serif" font-size="10.00">loop</text>
</a>
</g>
</g>
<!-- Node24&#45;&gt;Node25 -->
<g id="edge3" class="edge"><title>Node24&#45;&gt;Node25</title>
<path fill="none" stroke="midnightblue" d="M386.359,-10C395.715,-10 404.703,-10 411.958,-10"/>
<polygon fill="midnightblue" stroke="midnightblue" points="386.128,-6.5001 376.128,-10 386.128,-13.5001 386.128,-6.5001"/>
</g>
</g>
</svg>
