<?xml version="1.0" encoding="UTF-8" standalone="no"?>
<!DOCTYPE svg PUBLIC "-//W3C//DTD SVG 1.1//EN"
 "http://www.w3.org/Graphics/SVG/1.1/DTD/svg11.dtd">
<!-- Generated by graphviz version 2.38.0 (20140413.2041)
 -->
<!-- Title: CMotorCtrl::readenc Pages: 1 -->
<svg width="261pt" height="66pt"
 viewBox="0.00 0.00 261.00 66.00" xmlns="http://www.w3.org/2000/svg" xmlns:xlink="http://www.w3.org/1999/xlink">
<g id="graph0" class="graph" transform="scale(1 1) rotate(0) translate(4 62)">
<title>CMotorCtrl::readenc</title>
<!-- Node19 -->
<g id="node1" class="node"><title>Node19</title>
<polygon fill="#bfbfbf" stroke="black" points="0,-19.5 0,-38.5 104,-38.5 104,-19.5 0,-19.5"/>
<text text-anchor="middle" x="52" y="-26.5" font-family="Helvetica,sans-Serif" font-size="10.00">CMotorCtrl::readenc</text>
</g>
<!-- Node20 -->
<g id="node2" class="node"><title>Node20</title>
<g id="a_node2"><a xlink:href="class_c_encoder.html#a5911a289a7ed8a32e0a89e6191e1651c" target="_top" xlink:title="Function to read out the peak count per 150ms. ">
<polygon fill="none" stroke="black" points="140,-38.5 140,-57.5 253,-57.5 253,-38.5 140,-38.5"/>
<text text-anchor="middle" x="196.5" y="-45.5" font-family="Helvetica,sans-Serif" font-size="10.00">CEncoder::ReadCount</text>
</a>
</g>
</g>
<!-- Node19&#45;&gt;Node20 -->
<g id="edge1" class="edge"><title>Node19&#45;&gt;Node20</title>
<path fill="none" stroke="midnightblue" d="M104.043,-35.8058C112.424,-36.9232 121.211,-38.0948 129.886,-39.2514"/>
<polygon fill="midnightblue" stroke="midnightblue" points="129.612,-42.7458 139.987,-40.5982 130.537,-35.8072 129.612,-42.7458"/>
</g>
<!-- Node21 -->
<g id="node3" class="node"><title>Node21</title>
<g id="a_node3"><a xlink:href="class_c_encoder.html#aa38f17afea1ce9b6efd9d95335a95d26" target="_top" xlink:title="Function to sum up the counted peaks. ">
<polygon fill="none" stroke="black" points="142.5,-0.5 142.5,-19.5 250.5,-19.5 250.5,-0.5 142.5,-0.5"/>
<text text-anchor="middle" x="196.5" y="-7.5" font-family="Helvetica,sans-Serif" font-size="10.00">CEncoder::ReadSum</text>
</a>
</g>
</g>
<!-- Node19&#45;&gt;Node21 -->
<g id="edge2" class="edge"><title>Node19&#45;&gt;Node21</title>
<path fill="none" stroke="midnightblue" d="M104.043,-22.1942C113.192,-20.9744 122.826,-19.6899 132.269,-18.4307"/>
<polygon fill="midnightblue" stroke="midnightblue" points="132.96,-21.8697 142.41,-17.0787 132.035,-14.9311 132.96,-21.8697"/>
</g>
</g>
</svg>
