<?xml version="1.0" encoding="UTF-8" standalone="no"?>
<!DOCTYPE svg PUBLIC "-//W3C//DTD SVG 1.1//EN"
 "http://www.w3.org/Graphics/SVG/1.1/DTD/svg11.dtd">
<!-- Generated by graphviz version 2.38.0 (20140413.2041)
 -->
<!-- Title: CEncoder::ReadSum Pages: 1 -->
<svg width="445pt" height="28pt"
 viewBox="0.00 0.00 445.00 28.00" xmlns="http://www.w3.org/2000/svg" xmlns:xlink="http://www.w3.org/1999/xlink">
<g id="graph0" class="graph" transform="scale(1 1) rotate(0) translate(4 24)">
<title>CEncoder::ReadSum</title>
<!-- Node17 -->
<g id="node1" class="node"><title>Node17</title>
<polygon fill="#bfbfbf" stroke="black" points="0,-0.5 0,-19.5 108,-19.5 108,-0.5 0,-0.5"/>
<text text-anchor="middle" x="54" y="-7.5" font-family="Helvetica,sans-Serif" font-size="10.00">CEncoder::ReadSum</text>
</g>
<!-- Node18 -->
<g id="node2" class="node"><title>Node18</title>
<g id="a_node2"><a xlink:href="class_c_motor_ctrl.html#a8a76501cf8eaa85c5131bde5f33b6699" target="_top" xlink:title="Function of the CMotorCtrl where the sum of all peaks and the peaks per 150ms are read out...">
<polygon fill="none" stroke="black" points="144,-0.5 144,-19.5 248,-19.5 248,-0.5 144,-0.5"/>
<text text-anchor="middle" x="196" y="-7.5" font-family="Helvetica,sans-Serif" font-size="10.00">CMotorCtrl::readenc</text>
</a>
</g>
</g>
<!-- Node17&#45;&gt;Node18 -->
<g id="edge1" class="edge"><title>Node17&#45;&gt;Node18</title>
<path fill="none" stroke="midnightblue" d="M118.508,-10C126.933,-10 135.485,-10 143.669,-10"/>
<polygon fill="midnightblue" stroke="midnightblue" points="118.327,-6.5001 108.327,-10 118.327,-13.5001 118.327,-6.5001"/>
</g>
<!-- Node19 -->
<g id="node3" class="node"><title>Node19</title>
<g id="a_node3"><a xlink:href="_a_d_a_s___m_c_u_8ino.html#a9f2f19081d81dba1b47615d1d9363281" target="_top" xlink:title="timerCallback">
<polygon fill="none" stroke="black" points="284,-0.5 284,-19.5 360,-19.5 360,-0.5 284,-0.5"/>
<text text-anchor="middle" x="322" y="-7.5" font-family="Helvetica,sans-Serif" font-size="10.00">timerCallback</text>
</a>
</g>
</g>
<!-- Node18&#45;&gt;Node19 -->
<g id="edge2" class="edge"><title>Node18&#45;&gt;Node19</title>
<path fill="none" stroke="midnightblue" d="M258.375,-10C267.126,-10 275.893,-10 283.98,-10"/>
<polygon fill="midnightblue" stroke="midnightblue" points="258.151,-6.5001 248.151,-10 258.151,-13.5001 258.151,-6.5001"/>
</g>
<!-- Node20 -->
<g id="node4" class="node"><title>Node20</title>
<g id="a_node4"><a xlink:href="_a_d_a_s___m_c_u_8ino.html#a4fc01d736fe50cf5b977f755b675f11d" target="_top" xlink:title="setup">
<polygon fill="none" stroke="black" points="396,-0.5 396,-19.5 437,-19.5 437,-0.5 396,-0.5"/>
<text text-anchor="middle" x="416.5" y="-7.5" font-family="Helvetica,sans-Serif" font-size="10.00">setup</text>
</a>
</g>
</g>
<!-- Node19&#45;&gt;Node20 -->
<g id="edge3" class="edge"><title>Node19&#45;&gt;Node20</title>
<path fill="none" stroke="midnightblue" d="M370.277,-10C379.346,-10 388.361,-10 395.929,-10"/>
<polygon fill="midnightblue" stroke="midnightblue" points="370.09,-6.5001 360.09,-10 370.09,-13.5001 370.09,-6.5001"/>
</g>
</g>
</svg>
