<?xml version="1.0" encoding="UTF-8" standalone="no"?>
<!DOCTYPE svg PUBLIC "-//W3C//DTD SVG 1.1//EN"
 "http://www.w3.org/Graphics/SVG/1.1/DTD/svg11.dtd">
<!-- Generated by graphviz version 2.38.0 (20140413.2041)
 -->
<!-- Title: CIMUUnit::ReturnGyro Pages: 1 -->
<svg width="314pt" height="28pt"
 viewBox="0.00 0.00 314.00 28.00" xmlns="http://www.w3.org/2000/svg" xmlns:xlink="http://www.w3.org/1999/xlink">
<g id="graph0" class="graph" transform="scale(1 1) rotate(0) translate(4 24)">
<title>CIMUUnit::ReturnGyro</title>
<!-- Node9 -->
<g id="node1" class="node"><title>Node9</title>
<polygon fill="#bfbfbf" stroke="black" points="0,-0.5 0,-19.5 113,-19.5 113,-0.5 0,-0.5"/>
<text text-anchor="middle" x="56.5" y="-7.5" font-family="Helvetica,sans-Serif" font-size="10.00">CIMUUnit::ReturnGyro</text>
</g>
<!-- Node10 -->
<g id="node2" class="node"><title>Node10</title>
<g id="a_node2"><a xlink:href="class_c_motor_ctrl.html#a63e5dd36be027fe8a5e1acee5c1322c8" target="_top" xlink:title="Run function of CMotorCtrl which is executed in every loop. ">
<polygon fill="none" stroke="black" points="149,-0.5 149,-19.5 235,-19.5 235,-0.5 149,-0.5"/>
<text text-anchor="middle" x="192" y="-7.5" font-family="Helvetica,sans-Serif" font-size="10.00">CMotorCtrl::Run</text>
</a>
</g>
</g>
<!-- Node9&#45;&gt;Node10 -->
<g id="edge1" class="edge"><title>Node9&#45;&gt;Node10</title>
<path fill="none" stroke="midnightblue" d="M123.427,-10C132.055,-10 140.701,-10 148.788,-10"/>
<polygon fill="midnightblue" stroke="midnightblue" points="123.343,-6.5001 113.342,-10 123.342,-13.5001 123.343,-6.5001"/>
</g>
<!-- Node11 -->
<g id="node3" class="node"><title>Node11</title>
<g id="a_node3"><a xlink:href="_a_d_a_s___m_c_u_8ino.html#afe461d27b9c48d5921c00d521181f12f" target="_top" xlink:title="loop">
<polygon fill="none" stroke="black" points="271,-0.5 271,-19.5 306,-19.5 306,-0.5 271,-0.5"/>
<text text-anchor="middle" x="288.5" y="-7.5" font-family="Helvetica,sans-Serif" font-size="10.00">loop</text>
</a>
</g>
</g>
<!-- Node10&#45;&gt;Node11 -->
<g id="edge2" class="edge"><title>Node10&#45;&gt;Node11</title>
<path fill="none" stroke="midnightblue" d="M245.333,-10C254.57,-10 263.544,-10 270.823,-10"/>
<polygon fill="midnightblue" stroke="midnightblue" points="245.275,-6.5001 235.275,-10 245.275,-13.5001 245.275,-6.5001"/>
</g>
</g>
</svg>
