<?xml version="1.0" encoding="UTF-8" standalone="no"?>
<!DOCTYPE svg PUBLIC "-//W3C//DTD SVG 1.1//EN"
 "http://www.w3.org/Graphics/SVG/1.1/DTD/svg11.dtd">
<!-- Generated by graphviz version 2.38.0 (20140413.2041)
 -->
<!-- Title: CMotorCtrl::readenc Pages: 1 -->
<svg width="301pt" height="28pt"
 viewBox="0.00 0.00 301.00 28.00" xmlns="http://www.w3.org/2000/svg" xmlns:xlink="http://www.w3.org/1999/xlink">
<g id="graph0" class="graph" transform="scale(1 1) rotate(0) translate(4 24)">
<title>CMotorCtrl::readenc</title>
<!-- Node22 -->
<g id="node1" class="node"><title>Node22</title>
<polygon fill="#bfbfbf" stroke="black" points="0,-0.5 0,-19.5 104,-19.5 104,-0.5 0,-0.5"/>
<text text-anchor="middle" x="52" y="-7.5" font-family="Helvetica,sans-Serif" font-size="10.00">CMotorCtrl::readenc</text>
</g>
<!-- Node23 -->
<g id="node2" class="node"><title>Node23</title>
<g id="a_node2"><a xlink:href="_a_d_a_s___m_c_u_8ino.html#a9f2f19081d81dba1b47615d1d9363281" target="_top" xlink:title="timerCallback">
<polygon fill="none" stroke="black" points="140,-0.5 140,-19.5 216,-19.5 216,-0.5 140,-0.5"/>
<text text-anchor="middle" x="178" y="-7.5" font-family="Helvetica,sans-Serif" font-size="10.00">timerCallback</text>
</a>
</g>
</g>
<!-- Node22&#45;&gt;Node23 -->
<g id="edge1" class="edge"><title>Node22&#45;&gt;Node23</title>
<path fill="none" stroke="midnightblue" d="M114.375,-10C123.126,-10 131.893,-10 139.98,-10"/>
<polygon fill="midnightblue" stroke="midnightblue" points="114.151,-6.5001 104.151,-10 114.151,-13.5001 114.151,-6.5001"/>
</g>
<!-- Node24 -->
<g id="node3" class="node"><title>Node24</title>
<g id="a_node3"><a xlink:href="_a_d_a_s___m_c_u_8ino.html#a4fc01d736fe50cf5b977f755b675f11d" target="_top" xlink:title="setup">
<polygon fill="none" stroke="black" points="252,-0.5 252,-19.5 293,-19.5 293,-0.5 252,-0.5"/>
<text text-anchor="middle" x="272.5" y="-7.5" font-family="Helvetica,sans-Serif" font-size="10.00">setup</text>
</a>
</g>
</g>
<!-- Node23&#45;&gt;Node24 -->
<g id="edge2" class="edge"><title>Node23&#45;&gt;Node24</title>
<path fill="none" stroke="midnightblue" d="M226.277,-10C235.346,-10 244.361,-10 251.929,-10"/>
<polygon fill="midnightblue" stroke="midnightblue" points="226.09,-6.5001 216.09,-10 226.09,-13.5001 226.09,-6.5001"/>
</g>
</g>
</svg>
