<?xml version="1.0" encoding="UTF-8" standalone="no"?>
<!DOCTYPE svg PUBLIC "-//W3C//DTD SVG 1.1//EN"
 "http://www.w3.org/Graphics/SVG/1.1/DTD/svg11.dtd">
<!-- Generated by graphviz version 2.38.0 (20140413.2041)
 -->
<!-- Title: CMotorCtrl::Run Pages: 1 -->
<svg width="261pt" height="104pt"
 viewBox="0.00 0.00 261.00 104.00" xmlns="http://www.w3.org/2000/svg" xmlns:xlink="http://www.w3.org/1999/xlink">
<g id="graph0" class="graph" transform="scale(1 1) rotate(0) translate(4 100)">
<title>CMotorCtrl::Run</title>
<!-- Node25 -->
<g id="node1" class="node"><title>Node25</title>
<polygon fill="#bfbfbf" stroke="black" points="0,-38.5 0,-57.5 86,-57.5 86,-38.5 0,-38.5"/>
<text text-anchor="middle" x="43" y="-45.5" font-family="Helvetica,sans-Serif" font-size="10.00">CMotorCtrl::Run</text>
</g>
<!-- Node26 -->
<g id="node2" class="node"><title>Node26</title>
<g id="a_node2"><a xlink:href="class_chart_model_class.html#a77ef9eda8f1e119f93ad3c87b3a54bbd" target="_top" xlink:title="Real&#45;Time Model get method. ">
<polygon fill="none" stroke="black" points="122,-76.5 122,-95.5 253,-95.5 253,-76.5 122,-76.5"/>
<text text-anchor="middle" x="187.5" y="-83.5" font-family="Helvetica,sans-Serif" font-size="10.00">ChartModelClass::getRTM</text>
</a>
</g>
</g>
<!-- Node25&#45;&gt;Node26 -->
<g id="edge1" class="edge"><title>Node25&#45;&gt;Node26</title>
<path fill="none" stroke="midnightblue" d="M79.9588,-57.589C98.4385,-62.5169 121.156,-68.5749 140.859,-73.8291"/>
<polygon fill="midnightblue" stroke="midnightblue" points="139.989,-77.2192 150.553,-76.4141 141.792,-70.4555 139.989,-77.2192"/>
</g>
<!-- Node27 -->
<g id="node3" class="node"><title>Node27</title>
<g id="a_node3"><a xlink:href="class_c_i_m_u_unit.html#a396b045fac007e169289409ca213ac39" target="_top" xlink:title="Return function of IMU Unit Return Gyro Signal. ">
<polygon fill="none" stroke="black" points="131,-38.5 131,-57.5 244,-57.5 244,-38.5 131,-38.5"/>
<text text-anchor="middle" x="187.5" y="-45.5" font-family="Helvetica,sans-Serif" font-size="10.00">CIMUUnit::ReturnGyro</text>
</a>
</g>
</g>
<!-- Node25&#45;&gt;Node27 -->
<g id="edge2" class="edge"><title>Node25&#45;&gt;Node27</title>
<path fill="none" stroke="midnightblue" d="M86.3689,-48C97.156,-48 109.006,-48 120.662,-48"/>
<polygon fill="midnightblue" stroke="midnightblue" points="120.824,-51.5001 130.824,-48 120.824,-44.5001 120.824,-51.5001"/>
</g>
<!-- Node28 -->
<g id="node4" class="node"><title>Node28</title>
<g id="a_node4"><a xlink:href="class_c_p_w_m_unit.html#a60f8be5eabf779f57e6392a0432bf7f2" target="_top" xlink:title="Function write duty cycle. ">
<polygon fill="none" stroke="black" points="131.5,-0.5 131.5,-19.5 243.5,-19.5 243.5,-0.5 131.5,-0.5"/>
<text text-anchor="middle" x="187.5" y="-7.5" font-family="Helvetica,sans-Serif" font-size="10.00">CPWMUnit::writeDuty</text>
</a>
</g>
</g>
<!-- Node25&#45;&gt;Node28 -->
<g id="edge3" class="edge"><title>Node25&#45;&gt;Node28</title>
<path fill="none" stroke="midnightblue" d="M79.9588,-38.411C98.4385,-33.4831 121.156,-27.4251 140.859,-22.1709"/>
<polygon fill="midnightblue" stroke="midnightblue" points="141.792,-25.5445 150.553,-19.5859 139.989,-18.7808 141.792,-25.5445"/>
</g>
</g>
</svg>
