<?xml version="1.0" encoding="UTF-8" standalone="no"?>
<!DOCTYPE svg PUBLIC "-//W3C//DTD SVG 1.1//EN"
 "http://www.w3.org/Graphics/SVG/1.1/DTD/svg11.dtd">
<!-- Generated by graphviz version 2.38.0 (20140413.2041)
 -->
<!-- Title: CEncoder::EncISR Pages: 1 -->
<svg width="286pt" height="66pt"
 viewBox="0.00 0.00 286.00 66.00" xmlns="http://www.w3.org/2000/svg" xmlns:xlink="http://www.w3.org/1999/xlink">
<g id="graph0" class="graph" transform="scale(1 1) rotate(0) translate(4 62)">
<title>CEncoder::EncISR</title>
<!-- Node5 -->
<g id="node1" class="node"><title>Node5</title>
<polygon fill="#bfbfbf" stroke="black" points="0,-19.5 0,-38.5 98,-38.5 98,-19.5 0,-19.5"/>
<text text-anchor="middle" x="49" y="-26.5" font-family="Helvetica,sans-Serif" font-size="10.00">CEncoder::EncISR</text>
</g>
<!-- Node6 -->
<g id="node2" class="node"><title>Node6</title>
<g id="a_node2"><a xlink:href="_a_d_a_s___m_c_u_8ino.html#a13fba9b7b9c02542e403a1142b5ad344" target="_top" xlink:title="Enc_ISR_R">
<polygon fill="none" stroke="black" points="134,-38.5 134,-57.5 201,-57.5 201,-38.5 134,-38.5"/>
<text text-anchor="middle" x="167.5" y="-45.5" font-family="Helvetica,sans-Serif" font-size="10.00">Enc_ISR_R</text>
</a>
</g>
</g>
<!-- Node5&#45;&gt;Node6 -->
<g id="edge1" class="edge"><title>Node5&#45;&gt;Node6</title>
<path fill="none" stroke="midnightblue" d="M108.02,-38.4625C116.885,-39.9083 125.758,-41.3553 133.816,-42.6695"/>
<polygon fill="midnightblue" stroke="midnightblue" points="108.491,-34.9931 98.0576,-36.8377 107.364,-41.9018 108.491,-34.9931"/>
</g>
<!-- Node8 -->
<g id="node4" class="node"><title>Node8</title>
<g id="a_node4"><a xlink:href="_a_d_a_s___m_c_u_8ino.html#a89c135c3ad9390c0a5c08c78a9c985d1" target="_top" xlink:title="Enc_ISR_L">
<polygon fill="none" stroke="black" points="135,-0.5 135,-19.5 200,-19.5 200,-0.5 135,-0.5"/>
<text text-anchor="middle" x="167.5" y="-7.5" font-family="Helvetica,sans-Serif" font-size="10.00">Enc_ISR_L</text>
</a>
</g>
</g>
<!-- Node5&#45;&gt;Node8 -->
<g id="edge3" class="edge"><title>Node5&#45;&gt;Node8</title>
<path fill="none" stroke="midnightblue" d="M108.038,-19.5346C117.279,-18.0275 126.526,-16.5193 134.851,-15.1616"/>
<polygon fill="midnightblue" stroke="midnightblue" points="107.364,-16.0982 98.0576,-21.1623 108.491,-23.0069 107.364,-16.0982"/>
</g>
<!-- Node7 -->
<g id="node3" class="node"><title>Node7</title>
<g id="a_node3"><a xlink:href="_a_d_a_s___m_c_u_8ino.html#a4fc01d736fe50cf5b977f755b675f11d" target="_top" xlink:title="setup">
<polygon fill="none" stroke="black" points="237,-19.5 237,-38.5 278,-38.5 278,-19.5 237,-19.5"/>
<text text-anchor="middle" x="257.5" y="-26.5" font-family="Helvetica,sans-Serif" font-size="10.00">setup</text>
</a>
</g>
</g>
<!-- Node6&#45;&gt;Node7 -->
<g id="edge2" class="edge"><title>Node6&#45;&gt;Node7</title>
<path fill="none" stroke="midnightblue" d="M211.235,-38.7731C220.159,-36.8464 229.152,-34.9048 236.744,-33.2655"/>
<polygon fill="midnightblue" stroke="midnightblue" points="210.304,-35.3934 201.268,-40.9251 211.781,-42.2357 210.304,-35.3934"/>
</g>
<!-- Node8&#45;&gt;Node7 -->
<g id="edge4" class="edge"><title>Node8&#45;&gt;Node7</title>
<path fill="none" stroke="midnightblue" d="M210.21,-19.0055C219.492,-21.0096 228.91,-23.043 236.806,-24.7479"/>
<polygon fill="midnightblue" stroke="midnightblue" points="210.783,-15.5488 200.27,-16.8594 209.306,-22.3911 210.783,-15.5488"/>
</g>
</g>
</svg>
