<?xml version="1.0" encoding="UTF-8" standalone="no"?>
<!DOCTYPE svg PUBLIC "-//W3C//DTD SVG 1.1//EN"
 "http://www.w3.org/Graphics/SVG/1.1/DTD/svg11.dtd">
<!-- Generated by graphviz version 2.38.0 (20140413.2041)
 -->
<!-- Title: CIMUUnit::Init Pages: 1 -->
<svg width="280pt" height="28pt"
 viewBox="0.00 0.00 280.00 28.00" xmlns="http://www.w3.org/2000/svg" xmlns:xlink="http://www.w3.org/1999/xlink">
<g id="graph0" class="graph" transform="scale(1 1) rotate(0) translate(4 24)">
<title>CIMUUnit::Init</title>
<!-- Node5 -->
<g id="node1" class="node"><title>Node5</title>
<polygon fill="#bfbfbf" stroke="black" points="0,-0.5 0,-19.5 77,-19.5 77,-0.5 0,-0.5"/>
<text text-anchor="middle" x="38.5" y="-7.5" font-family="Helvetica,sans-Serif" font-size="10.00">CIMUUnit::Init</text>
</g>
<!-- Node6 -->
<g id="node2" class="node"><title>Node6</title>
<g id="a_node2"><a xlink:href="class_c_motor_ctrl.html#af4b1bec8e07e766aa2537d966f025e7a" target="_top" xlink:title="Initialization function of CMotorCtrl. ">
<polygon fill="none" stroke="black" points="113,-0.5 113,-19.5 195,-19.5 195,-0.5 113,-0.5"/>
<text text-anchor="middle" x="154" y="-7.5" font-family="Helvetica,sans-Serif" font-size="10.00">CMotorCtrl::Init</text>
</a>
</g>
</g>
<!-- Node5&#45;&gt;Node6 -->
<g id="edge1" class="edge"><title>Node5&#45;&gt;Node6</title>
<path fill="none" stroke="midnightblue" d="M87.3713,-10C95.7835,-10 104.463,-10 112.645,-10"/>
<polygon fill="midnightblue" stroke="midnightblue" points="87.2939,-6.5001 77.2939,-10 87.2938,-13.5001 87.2939,-6.5001"/>
</g>
<!-- Node7 -->
<g id="node3" class="node"><title>Node7</title>
<g id="a_node3"><a xlink:href="_a_d_a_s___m_c_u_8ino.html#a4fc01d736fe50cf5b977f755b675f11d" target="_top" xlink:title="setup">
<polygon fill="none" stroke="black" points="231,-0.5 231,-19.5 272,-19.5 272,-0.5 231,-0.5"/>
<text text-anchor="middle" x="251.5" y="-7.5" font-family="Helvetica,sans-Serif" font-size="10.00">setup</text>
</a>
</g>
</g>
<!-- Node6&#45;&gt;Node7 -->
<g id="edge2" class="edge"><title>Node6&#45;&gt;Node7</title>
<path fill="none" stroke="midnightblue" d="M205.428,-10C214.479,-10 223.401,-10 230.889,-10"/>
<polygon fill="midnightblue" stroke="midnightblue" points="205.224,-6.5001 195.224,-10 205.224,-13.5001 205.224,-6.5001"/>
</g>
</g>
</svg>
