<?xml version="1.0" encoding="UTF-8" standalone="no"?>
<!DOCTYPE svg PUBLIC "-//W3C//DTD SVG 1.1//EN"
 "http://www.w3.org/Graphics/SVG/1.1/DTD/svg11.dtd">
<!-- Generated by graphviz version 2.38.0 (20140413.2041)
 -->
<!-- Title: CMotorCtrl::Init Pages: 1 -->
<svg width="258pt" height="104pt"
 viewBox="0.00 0.00 258.00 104.00" xmlns="http://www.w3.org/2000/svg" xmlns:xlink="http://www.w3.org/1999/xlink">
<g id="graph0" class="graph" transform="scale(1 1) rotate(0) translate(4 100)">
<title>CMotorCtrl::Init</title>
<!-- Node8 -->
<g id="node1" class="node"><title>Node8</title>
<polygon fill="#bfbfbf" stroke="black" points="0,-38.5 0,-57.5 82,-57.5 82,-38.5 0,-38.5"/>
<text text-anchor="middle" x="41" y="-45.5" font-family="Helvetica,sans-Serif" font-size="10.00">CMotorCtrl::Init</text>
</g>
<!-- Node9 -->
<g id="node2" class="node"><title>Node9</title>
<g id="a_node2"><a xlink:href="class_c_p_w_m_unit.html#aa36627883e91d3dec4a76fe187588071" target="_top" xlink:title="Function to initialize timers for 10&#45;bit PWM. ">
<polygon fill="none" stroke="black" points="118.5,-76.5 118.5,-95.5 249.5,-95.5 249.5,-76.5 118.5,-76.5"/>
<text text-anchor="middle" x="184" y="-83.5" font-family="Helvetica,sans-Serif" font-size="10.00">CPWMUnit::setupPWM10</text>
</a>
</g>
</g>
<!-- Node8&#45;&gt;Node9 -->
<g id="edge1" class="edge"><title>Node8&#45;&gt;Node9</title>
<path fill="none" stroke="midnightblue" d="M77.5803,-57.589C95.782,-62.4944 118.138,-68.5196 137.572,-73.7571"/>
<polygon fill="midnightblue" stroke="midnightblue" points="136.865,-77.1912 147.431,-76.4141 138.686,-70.4324 136.865,-77.1912"/>
</g>
<!-- Node10 -->
<g id="node3" class="node"><title>Node10</title>
<g id="a_node3"><a xlink:href="class_c_i_m_u_unit.html#a589ccc2afbaadbdf9dbef34c5025a42f" target="_top" xlink:title="Intitialization function of IMU Unit. ">
<polygon fill="none" stroke="black" points="145.5,-38.5 145.5,-57.5 222.5,-57.5 222.5,-38.5 145.5,-38.5"/>
<text text-anchor="middle" x="184" y="-45.5" font-family="Helvetica,sans-Serif" font-size="10.00">CIMUUnit::Init</text>
</a>
</g>
</g>
<!-- Node8&#45;&gt;Node10 -->
<g id="edge2" class="edge"><title>Node8&#45;&gt;Node10</title>
<path fill="none" stroke="midnightblue" d="M82.0278,-48C98.4792,-48 117.672,-48 134.88,-48"/>
<polygon fill="midnightblue" stroke="midnightblue" points="135.296,-51.5001 145.296,-48 135.296,-44.5001 135.296,-51.5001"/>
</g>
<!-- Node11 -->
<g id="node4" class="node"><title>Node11</title>
<g id="a_node4"><a xlink:href="class_chart_model_class.html#ab32e055f4e5692dd69685b4befbea75d" target="_top" xlink:title="model initialize function ">
<polygon fill="none" stroke="black" points="118,-0.5 118,-19.5 250,-19.5 250,-0.5 118,-0.5"/>
<text text-anchor="middle" x="184" y="-7.5" font-family="Helvetica,sans-Serif" font-size="10.00">ChartModelClass::initialize</text>
</a>
</g>
</g>
<!-- Node8&#45;&gt;Node11 -->
<g id="edge3" class="edge"><title>Node8&#45;&gt;Node11</title>
<path fill="none" stroke="midnightblue" d="M77.5803,-38.411C95.782,-33.5056 118.138,-27.4804 137.572,-22.2429"/>
<polygon fill="midnightblue" stroke="midnightblue" points="138.686,-25.5676 147.431,-19.5859 136.865,-18.8088 138.686,-25.5676"/>
</g>
</g>
</svg>
