<?xml version="1.0" encoding="UTF-8" standalone="no"?>
<!DOCTYPE svg PUBLIC "-//W3C//DTD SVG 1.1//EN"
 "http://www.w3.org/Graphics/SVG/1.1/DTD/svg11.dtd">
<!-- Generated by graphviz version 2.38.0 (20140413.2041)
 -->
<!-- Title: CICCComms::Run Pages: 1 -->
<svg width="415pt" height="218pt"
 viewBox="0.00 0.00 415.00 218.00" xmlns="http://www.w3.org/2000/svg" xmlns:xlink="http://www.w3.org/1999/xlink">
<g id="graph0" class="graph" transform="scale(1 1) rotate(0) translate(4 214)">
<title>CICCComms::Run</title>
<!-- Node9 -->
<g id="node1" class="node"><title>Node9</title>
<polygon fill="#bfbfbf" stroke="black" points="0,-95.5 0,-114.5 96,-114.5 96,-95.5 0,-95.5"/>
<text text-anchor="middle" x="48" y="-102.5" font-family="Helvetica,sans-Serif" font-size="10.00">CICCComms::Run</text>
</g>
<!-- Node10 -->
<g id="node2" class="node"><title>Node10</title>
<g id="a_node2"><a xlink:href="class_c_serial.html#abb43734223d937a86e7616636ea16024" target="_top" xlink:title="CSerial::Available">
<polygon fill="none" stroke="black" points="148.5,-190.5 148.5,-209.5 240.5,-209.5 240.5,-190.5 148.5,-190.5"/>
<text text-anchor="middle" x="194.5" y="-197.5" font-family="Helvetica,sans-Serif" font-size="10.00">CSerial::Available</text>
</a>
</g>
</g>
<!-- Node9&#45;&gt;Node10 -->
<g id="edge1" class="edge"><title>Node9&#45;&gt;Node10</title>
<path fill="none" stroke="midnightblue" d="M56.9306,-114.627C70.6257,-130.652 100.303,-162.829 132,-181 135.708,-183.126 139.681,-185.041 143.758,-186.76"/>
<polygon fill="midnightblue" stroke="midnightblue" points="142.788,-190.136 153.379,-190.424 145.279,-183.594 142.788,-190.136"/>
</g>
<!-- Node11 -->
<g id="node3" class="node"><title>Node11</title>
<g id="a_node3"><a xlink:href="class_c_serial.html#abad86c07f530569b2ceeea75bda485ad" target="_top" xlink:title="CSerial::GetData">
<polygon fill="none" stroke="black" points="149.5,-152.5 149.5,-171.5 239.5,-171.5 239.5,-152.5 149.5,-152.5"/>
<text text-anchor="middle" x="194.5" y="-159.5" font-family="Helvetica,sans-Serif" font-size="10.00">CSerial::GetData</text>
</a>
</g>
</g>
<!-- Node9&#45;&gt;Node11 -->
<g id="edge2" class="edge"><title>Node9&#45;&gt;Node11</title>
<path fill="none" stroke="midnightblue" d="M68.1508,-114.629C84.782,-122.781 109.641,-134.469 132,-143 137.824,-145.222 144.03,-147.378 150.175,-149.391"/>
<polygon fill="midnightblue" stroke="midnightblue" points="149.127,-152.73 159.717,-152.425 151.248,-146.059 149.127,-152.73"/>
</g>
<!-- Node13 -->
<g id="node5" class="node"><title>Node13</title>
<g id="a_node5"><a xlink:href="class_c_motor_ctrl.html#a0ae095bb6003ee63086361661f32ad3a" target="_top" xlink:title="API Function of the CMotorCtrl to start driving. ">
<polygon fill="none" stroke="black" points="134,-114.5 134,-133.5 255,-133.5 255,-114.5 134,-114.5"/>
<text text-anchor="middle" x="194.5" y="-121.5" font-family="Helvetica,sans-Serif" font-size="10.00">CMotorCtrl::setDistance</text>
</a>
</g>
</g>
<!-- Node9&#45;&gt;Node13 -->
<g id="edge4" class="edge"><title>Node9&#45;&gt;Node13</title>
<path fill="none" stroke="midnightblue" d="M96.3147,-111.221C105.14,-112.382 114.531,-113.616 123.863,-114.844"/>
<polygon fill="midnightblue" stroke="midnightblue" points="123.567,-118.335 133.938,-116.168 124.479,-111.394 123.567,-118.335"/>
</g>
<!-- Node15 -->
<g id="node7" class="node"><title>Node15</title>
<g id="a_node7"><a xlink:href="class_c_motor_ctrl.html#a1ee991f9511437a2e64ee75161063020" target="_top" xlink:title="API Function of the CMotorCtrl to start a rotation. ">
<polygon fill="none" stroke="black" points="132,-76.5 132,-95.5 257,-95.5 257,-76.5 132,-76.5"/>
<text text-anchor="middle" x="194.5" y="-83.5" font-family="Helvetica,sans-Serif" font-size="10.00">CMotorCtrl::startRotation</text>
</a>
</g>
</g>
<!-- Node9&#45;&gt;Node15 -->
<g id="edge6" class="edge"><title>Node9&#45;&gt;Node15</title>
<path fill="none" stroke="midnightblue" d="M96.3147,-98.7787C104.479,-97.7052 113.127,-96.5681 121.765,-95.4322"/>
<polygon fill="midnightblue" stroke="midnightblue" points="122.414,-98.8772 131.872,-94.1033 121.501,-91.937 122.414,-98.8772"/>
</g>
<!-- Node16 -->
<g id="node8" class="node"><title>Node16</title>
<g id="a_node8"><a xlink:href="class_c_motor_ctrl.html#af3e047be659fb9f49f1644ba2eca4684" target="_top" xlink:title="API Function of the CMotorCtrl to pause the current action of the motor control. ">
<polygon fill="none" stroke="black" points="136.5,-38.5 136.5,-57.5 252.5,-57.5 252.5,-38.5 136.5,-38.5"/>
<text text-anchor="middle" x="194.5" y="-45.5" font-family="Helvetica,sans-Serif" font-size="10.00">CMotorCtrl::pauseDrive</text>
</a>
</g>
</g>
<!-- Node9&#45;&gt;Node16 -->
<g id="edge7" class="edge"><title>Node9&#45;&gt;Node16</title>
<path fill="none" stroke="midnightblue" d="M68.1508,-95.3713C84.782,-87.2187 109.641,-75.5307 132,-67 137.824,-64.7779 144.03,-62.622 150.175,-60.6091"/>
<polygon fill="midnightblue" stroke="midnightblue" points="151.248,-63.9406 159.717,-57.5746 149.127,-57.2698 151.248,-63.9406"/>
</g>
<!-- Node18 -->
<g id="node10" class="node"><title>Node18</title>
<g id="a_node10"><a xlink:href="class_c_motor_ctrl.html#a6b67180c355c2acf76d641f2817db66d" target="_top" xlink:title="API Function of the CMotorCtrl to continue the previously paused action of the motor control...">
<polygon fill="none" stroke="black" points="140,-0.5 140,-19.5 249,-19.5 249,-0.5 140,-0.5"/>
<text text-anchor="middle" x="194.5" y="-7.5" font-family="Helvetica,sans-Serif" font-size="10.00">CMotorCtrl::contDrive</text>
</a>
</g>
</g>
<!-- Node9&#45;&gt;Node18 -->
<g id="edge9" class="edge"><title>Node9&#45;&gt;Node18</title>
<path fill="none" stroke="midnightblue" d="M56.9306,-95.3728C70.6257,-79.3475 100.303,-47.1706 132,-29 135.708,-26.8742 139.681,-24.9594 143.758,-23.2402"/>
<polygon fill="midnightblue" stroke="midnightblue" points="145.279,-26.4059 153.379,-19.576 142.788,-19.8643 145.279,-26.4059"/>
</g>
<!-- Node12 -->
<g id="node4" class="node"><title>Node12</title>
<g id="a_node4"><a xlink:href="class_c_serial.html#a941e5cae2ca04518925a3b32f51110a6" target="_top" xlink:title="CSerial::ReleaseBuffer">
<polygon fill="none" stroke="black" points="293,-152.5 293,-171.5 407,-171.5 407,-152.5 293,-152.5"/>
<text text-anchor="middle" x="350" y="-159.5" font-family="Helvetica,sans-Serif" font-size="10.00">CSerial::ReleaseBuffer</text>
</a>
</g>
</g>
<!-- Node11&#45;&gt;Node12 -->
<g id="edge3" class="edge"><title>Node11&#45;&gt;Node12</title>
<path fill="none" stroke="midnightblue" d="M239.899,-162C253.222,-162 268.138,-162 282.56,-162"/>
<polygon fill="midnightblue" stroke="midnightblue" points="282.943,-165.5 292.943,-162 282.943,-158.5 282.943,-165.5"/>
</g>
<!-- Node14 -->
<g id="node6" class="node"><title>Node14</title>
<g id="a_node6"><a xlink:href="class_c_encoder.html#ab71d6281e3f4d9f875f45368a3434980" target="_top" xlink:title="Function to reset all values of the encoder. ">
<polygon fill="none" stroke="black" points="306.5,-114.5 306.5,-133.5 393.5,-133.5 393.5,-114.5 306.5,-114.5"/>
<text text-anchor="middle" x="350" y="-121.5" font-family="Helvetica,sans-Serif" font-size="10.00">CEncoder::reset</text>
</a>
</g>
</g>
<!-- Node13&#45;&gt;Node14 -->
<g id="edge5" class="edge"><title>Node13&#45;&gt;Node14</title>
<path fill="none" stroke="midnightblue" d="M255.287,-124C268.704,-124 282.85,-124 295.97,-124"/>
<polygon fill="midnightblue" stroke="midnightblue" points="296.239,-127.5 306.239,-124 296.238,-120.5 296.239,-127.5"/>
</g>
<!-- Node17 -->
<g id="node9" class="node"><title>Node17</title>
<g id="a_node9"><a xlink:href="class_c_p_w_m_unit.html#a60f8be5eabf779f57e6392a0432bf7f2" target="_top" xlink:title="Function write duty cycle. ">
<polygon fill="none" stroke="black" points="294,-38.5 294,-57.5 406,-57.5 406,-38.5 294,-38.5"/>
<text text-anchor="middle" x="350" y="-45.5" font-family="Helvetica,sans-Serif" font-size="10.00">CPWMUnit::writeDuty</text>
</a>
</g>
</g>
<!-- Node16&#45;&gt;Node17 -->
<g id="edge8" class="edge"><title>Node16&#45;&gt;Node17</title>
<path fill="none" stroke="midnightblue" d="M252.658,-48C262.759,-48 273.345,-48 283.65,-48"/>
<polygon fill="midnightblue" stroke="midnightblue" points="283.834,-51.5001 293.834,-48 283.834,-44.5001 283.834,-51.5001"/>
</g>
</g>
</svg>
