<?xml version="1.0" encoding="utf-8"?>
<!-- Generator: Adobe Illustrator 15.0.0, SVG Export Plug-In . SVG Version: 6.00 Build 0)  -->
<!DOCTYPE svg PUBLIC "-//W3C//DTD SVG 1.1//EN" "http://www.w3.org/Graphics/SVG/1.1/DTD/svg11.dtd">
<svg version="1.1" id="Ebene_1" xmlns="http://www.w3.org/2000/svg" xmlns:xlink="http://www.w3.org/1999/xlink" x="0px" y="0px"
	 width="414px" height="517px" viewBox="0 0 414 517" enable-background="new 0 0 414 517" xml:space="preserve">
<g>
	<g>
		<defs>
			<rect id="SVGID_1_" x="186.824" y="427.564" width="31.508" height="82.302"/>
		</defs>
		<clipPath id="SVGID_2_">
			<use xlink:href="#SVGID_1_"  overflow="visible"/>
		</clipPath>
		<path clip-path="url(#SVGID_2_)" fill="#D6D5D5" d="M202.578,429.064L202.578,429.064c7.872,0,14.254,6.382,14.254,14.254l0,0
			v50.795c0,7.872-6.382,14.253-14.254,14.253l0,0c-7.873,0-14.254-6.381-14.254-14.253l0,0v-50.795
			C188.324,435.446,194.706,429.064,202.578,429.064L202.578,429.064z"/>
		<path clip-path="url(#SVGID_2_)" fill="none" stroke="#000000" stroke-width="1.1" d="M202.578,429.064L202.578,429.064
			c7.872,0,14.254,6.382,14.254,14.254l0,0v50.795l0,0c0,7.872-6.382,14.253-14.254,14.253l0,0c-7.873,0-14.254-6.381-14.254-14.253
			l0,0v-50.795C188.324,435.446,194.706,429.064,202.578,429.064L202.578,429.064z"/>
	</g>
	<g>
		<defs>
			<rect id="SVGID_3_" x="156.007" y="9.133" width="95.95" height="103.353"/>
		</defs>
		<clipPath id="SVGID_4_">
			<use xlink:href="#SVGID_3_"  overflow="visible"/>
		</clipPath>
		<rect x="157.507" y="10.633" clip-path="url(#SVGID_4_)" fill="#929292" width="92.95" height="100.353"/>
		<rect x="157.507" y="10.633" clip-path="url(#SVGID_4_)" fill="none" stroke="#000000" width="92.95" height="100.353"/>
	</g>
	<g>
		<defs>
			<rect id="SVGID_5_" x="63.947" y="108.747" width="284.048" height="138.099"/>
		</defs>
		<clipPath id="SVGID_6_">
			<use xlink:href="#SVGID_5_"  overflow="visible"/>
		</clipPath>
		<rect x="65.447" y="110.248" clip-path="url(#SVGID_6_)" fill="#929292" width="281.048" height="135.099"/>
		<rect x="65.447" y="110.248" clip-path="url(#SVGID_6_)" fill="none" stroke="#000000" width="281.048" height="135.099"/>
	</g>
	<g>
		<defs>
			<rect id="SVGID_7_" x="8.14" y="63.849" width="58.518" height="230.361"/>
		</defs>
		<clipPath id="SVGID_8_">
			<use xlink:href="#SVGID_7_"  overflow="visible"/>
		</clipPath>
		<path clip-path="url(#SVGID_8_)" fill="#D6D5D5" d="M37.399,65.349L37.399,65.349c15.331,0,27.759,12.428,27.759,27.759l0,0
			v171.843c0,15.33-12.428,27.759-27.759,27.759l0,0c-15.331,0-27.759-12.429-27.759-27.759l0,0V93.108
			C9.64,77.777,22.068,65.349,37.399,65.349L37.399,65.349z"/>
		<path clip-path="url(#SVGID_8_)" fill="none" stroke="#000000" stroke-width="1.1" d="M37.399,65.349L37.399,65.349
			c15.331,0,27.759,12.428,27.759,27.759l0,0v171.843c0,15.33-12.428,27.759-27.759,27.759l0,0
			c-15.331,0-27.759-12.429-27.759-27.759l0,0V93.108C9.64,77.777,22.068,65.349,37.399,65.349L37.399,65.349z"/>
	</g>
	<g>
		<defs>
			<rect id="SVGID_9_" x="345.342" y="63.849" width="58.518" height="230.361"/>
		</defs>
		<clipPath id="SVGID_10_">
			<use xlink:href="#SVGID_9_"  overflow="visible"/>
		</clipPath>
		<path clip-path="url(#SVGID_10_)" fill="#D6D5D5" d="M374.601,65.349L374.601,65.349c15.331,0,27.759,12.428,27.759,27.759l0,0
			v171.843c0,15.33-12.428,27.759-27.759,27.759l0,0c-15.33,0-27.759-12.429-27.759-27.759l0,0V93.108
			C346.842,77.777,359.271,65.349,374.601,65.349L374.601,65.349z"/>
		<path clip-path="url(#SVGID_10_)" fill="none" stroke="#000000" stroke-width="1.1" d="M374.601,65.349L374.601,65.349
			c15.331,0,27.759,12.428,27.759,27.759l0,0v171.843c0,15.33-12.428,27.759-27.759,27.759l0,0
			c-15.33,0-27.759-12.429-27.759-27.759l0,0V93.108C346.842,77.777,359.271,65.349,374.601,65.349L374.601,65.349z"/>
	</g>
	<g>
		<defs>
			<rect id="SVGID_11_" x="194.918" y="244.846" width="15.319" height="245.07"/>
		</defs>
		<clipPath id="SVGID_12_">
			<use xlink:href="#SVGID_11_"  overflow="visible"/>
		</clipPath>
		<rect x="196.418" y="246.346" clip-path="url(#SVGID_12_)" fill="#929292" width="12.319" height="242.07"/>
		<rect x="196.418" y="246.346" clip-path="url(#SVGID_12_)" fill="none" stroke="#000000" width="12.319" height="242.07"/>
	</g>
</g>
</svg>
