<?xml version="1.0" encoding="utf-8"?>
<!-- Generator: Adobe Illustrator 15.0.0, SVG Export Plug-In . SVG Version: 6.00 Build 0)  -->
<!DOCTYPE svg PUBLIC "-//W3C//DTD SVG 1.1//EN" "http://www.w3.org/Graphics/SVG/1.1/DTD/svg11.dtd">
<svg version="1.1" id="Ebene_1" xmlns="http://www.w3.org/2000/svg" xmlns:xlink="http://www.w3.org/1999/xlink" x="0px" y="0px"
	 width="595.28px" height="841.89px" viewBox="0 0 595.28 841.89" enable-background="new 0 0 595.28 841.89" xml:space="preserve">
<g>
	<defs>
		<rect id="SVGID_1_" x="277.824" y="561.564" width="31.508" height="82.302"/>
	</defs>
	<clipPath id="SVGID_2_">
		<use xlink:href="#SVGID_1_"  overflow="visible"/>
	</clipPath>
	<path clip-path="url(#SVGID_2_)" fill="#D6D5D5" d="M293.578,563.064L293.578,563.064c7.872,0,14.254,6.382,14.254,14.254l0,0
		v50.795c0,7.872-6.382,14.253-14.254,14.253l0,0c-7.873,0-14.254-6.381-14.254-14.253l0,0v-50.795
		C279.324,569.446,285.706,563.064,293.578,563.064L293.578,563.064z"/>
	<path clip-path="url(#SVGID_2_)" fill="none" stroke="#000000" stroke-width="1.1" d="M293.578,563.064L293.578,563.064
		c7.872,0,14.254,6.382,14.254,14.254l0,0v50.795l0,0c0,7.872-6.382,14.253-14.254,14.253l0,0c-7.873,0-14.254-6.381-14.254-14.253
		l0,0v-50.795C279.324,569.446,285.706,563.064,293.578,563.064L293.578,563.064z"/>
</g>
<g>
	<defs>
		<rect id="SVGID_3_" x="99.14" y="197.849" width="58.518" height="230.361"/>
	</defs>
	<clipPath id="SVGID_4_">
		<use xlink:href="#SVGID_3_"  overflow="visible"/>
	</clipPath>
	<path clip-path="url(#SVGID_4_)" fill="#D6D5D5" d="M128.399,199.349L128.399,199.349c15.331,0,27.759,12.428,27.759,27.759l0,0
		v171.843c0,15.33-12.428,27.759-27.759,27.759l0,0c-15.331,0-27.759-12.429-27.759-27.759l0,0V227.108
		C100.64,211.777,113.068,199.349,128.399,199.349L128.399,199.349z"/>
	<path clip-path="url(#SVGID_4_)" fill="none" stroke="#000000" stroke-width="1.1" d="M128.399,199.349L128.399,199.349
		c15.331,0,27.759,12.428,27.759,27.759l0,0v171.843c0,15.33-12.428,27.759-27.759,27.759l0,0
		c-15.331,0-27.759-12.429-27.759-27.759l0,0V227.108C100.64,211.777,113.068,199.349,128.399,199.349L128.399,199.349z"/>
</g>
<g>
	<defs>
		<rect id="SVGID_5_" x="436.342" y="197.849" width="58.518" height="230.361"/>
	</defs>
	<clipPath id="SVGID_6_">
		<use xlink:href="#SVGID_5_"  overflow="visible"/>
	</clipPath>
	<path clip-path="url(#SVGID_6_)" fill="#D6D5D5" d="M465.601,199.349L465.601,199.349c15.331,0,27.759,12.428,27.759,27.759l0,0
		v171.843c0,15.33-12.428,27.759-27.759,27.759l0,0c-15.33,0-27.759-12.429-27.759-27.759l0,0V227.108
		C437.842,211.777,450.271,199.349,465.601,199.349L465.601,199.349z"/>
	<path clip-path="url(#SVGID_6_)" fill="none" stroke="#000000" stroke-width="1.1" d="M465.601,199.349L465.601,199.349
		c15.331,0,27.759,12.428,27.759,27.759l0,0v171.843c0,15.33-12.428,27.759-27.759,27.759l0,0c-15.33,0-27.759-12.429-27.759-27.759
		l0,0V227.108C437.842,211.777,450.271,199.349,465.601,199.349L465.601,199.349z"/>
</g>
</svg>
