<?xml version="1.0" encoding="UTF-8" standalone="no"?>
<!DOCTYPE svg PUBLIC "-//W3C//DTD SVG 1.1//EN"
 "http://www.w3.org/Graphics/SVG/1.1/DTD/svg11.dtd">
<!-- Generated by graphviz version 2.38.0 (20140413.2041)
 -->
<!-- Title: setup Pages: 1 -->
<svg width="316pt" height="180pt"
 viewBox="0.00 0.00 316.00 180.00" xmlns="http://www.w3.org/2000/svg" xmlns:xlink="http://www.w3.org/1999/xlink">
<g id="graph0" class="graph" transform="scale(1 1) rotate(0) translate(4 176)">
<title>setup</title>
<!-- Node12 -->
<g id="node1" class="node"><title>Node12</title>
<polygon fill="#bfbfbf" stroke="black" points="0,-76.5 0,-95.5 41,-95.5 41,-76.5 0,-76.5"/>
<text text-anchor="middle" x="20.5" y="-83.5" font-family="Helvetica,sans-Serif" font-size="10.00">setup</text>
</g>
<!-- Node13 -->
<g id="node2" class="node"><title>Node13</title>
<g id="a_node2"><a xlink:href="class_c_serial.html#aed500bd204c4b37665d6d228333edafb" target="_top" xlink:title="Initialization function of CSerial. ">
<polygon fill="none" stroke="black" points="94,-152.5 94,-171.5 161,-171.5 161,-152.5 94,-152.5"/>
<text text-anchor="middle" x="127.5" y="-159.5" font-family="Helvetica,sans-Serif" font-size="10.00">CSerial::Init</text>
</a>
</g>
</g>
<!-- Node12&#45;&gt;Node13 -->
<g id="edge1" class="edge"><title>Node12&#45;&gt;Node13</title>
<path fill="none" stroke="midnightblue" d="M28.7581,-95.7281C38.5043,-108.196 56.932,-129.777 77,-143 79.8932,-144.906 83.0058,-146.663 86.2107,-148.272"/>
<polygon fill="midnightblue" stroke="midnightblue" points="84.8279,-151.488 95.3815,-152.422 87.7133,-145.111 84.8279,-151.488"/>
</g>
<!-- Node14 -->
<g id="node3" class="node"><title>Node14</title>
<g id="a_node3"><a xlink:href="class_c_p_l_s_comms.html#ae7f8d87ea15de35a120d65a7a8bbbb76" target="_top" xlink:title="CPLSComms::Init">
<polygon fill="none" stroke="black" points="80,-114.5 80,-133.5 175,-133.5 175,-114.5 80,-114.5"/>
<text text-anchor="middle" x="127.5" y="-121.5" font-family="Helvetica,sans-Serif" font-size="10.00">CPLSComms::Init</text>
</a>
</g>
</g>
<!-- Node12&#45;&gt;Node14 -->
<g id="edge2" class="edge"><title>Node12&#45;&gt;Node14</title>
<path fill="none" stroke="midnightblue" d="M41.2497,-93.1475C55.0245,-98.1327 73.8075,-104.93 90.2373,-110.876"/>
<polygon fill="midnightblue" stroke="midnightblue" points="89.503,-114.333 100.097,-114.445 91.8852,-107.751 89.503,-114.333"/>
</g>
<!-- Node16 -->
<g id="node5" class="node"><title>Node16</title>
<g id="a_node5"><a xlink:href="class_c_i_c_c_comms.html#ad1d35d2145363d2ab970f9f5cd1dfc23" target="_top" xlink:title="Initialization function of CICCComms. ">
<polygon fill="none" stroke="black" points="81.5,-76.5 81.5,-95.5 173.5,-95.5 173.5,-76.5 81.5,-76.5"/>
<text text-anchor="middle" x="127.5" y="-83.5" font-family="Helvetica,sans-Serif" font-size="10.00">CICCComms::Init</text>
</a>
</g>
</g>
<!-- Node12&#45;&gt;Node16 -->
<g id="edge4" class="edge"><title>Node12&#45;&gt;Node16</title>
<path fill="none" stroke="midnightblue" d="M41.2497,-86C49.8033,-86 60.2879,-86 70.9411,-86"/>
<polygon fill="midnightblue" stroke="midnightblue" points="71.1492,-89.5001 81.1491,-86 71.1491,-82.5001 71.1492,-89.5001"/>
</g>
<!-- Node17 -->
<g id="node6" class="node"><title>Node17</title>
<g id="a_node6"><a xlink:href="class_c_task_ctrl.html#a20457bd4d4a033c8aeeb44e9d4dc3c7c" target="_top" xlink:title="CTaskCtrl::Register">
<polygon fill="none" stroke="black" points="77,-38.5 77,-57.5 178,-57.5 178,-38.5 77,-38.5"/>
<text text-anchor="middle" x="127.5" y="-45.5" font-family="Helvetica,sans-Serif" font-size="10.00">CTaskCtrl::Register</text>
</a>
</g>
</g>
<!-- Node12&#45;&gt;Node17 -->
<g id="edge5" class="edge"><title>Node12&#45;&gt;Node17</title>
<path fill="none" stroke="midnightblue" d="M41.2497,-78.8525C55.0245,-73.8673 73.8075,-67.0697 90.2373,-61.1236"/>
<polygon fill="midnightblue" stroke="midnightblue" points="91.8852,-64.2495 100.097,-57.5553 89.503,-57.6673 91.8852,-64.2495"/>
</g>
<!-- Node18 -->
<g id="node7" class="node"><title>Node18</title>
<g id="a_node7"><a xlink:href="class_c_task_ctrl.html#a12ec6e8d4a490eba9ebdf22d32cf292b" target="_top" xlink:title="CTaskCtrl::Init">
<polygon fill="none" stroke="black" points="88.5,-0.5 88.5,-19.5 166.5,-19.5 166.5,-0.5 88.5,-0.5"/>
<text text-anchor="middle" x="127.5" y="-7.5" font-family="Helvetica,sans-Serif" font-size="10.00">CTaskCtrl::Init</text>
</a>
</g>
</g>
<!-- Node12&#45;&gt;Node18 -->
<g id="edge6" class="edge"><title>Node12&#45;&gt;Node18</title>
<path fill="none" stroke="midnightblue" d="M28.7581,-76.2719C38.5043,-63.8036 56.932,-42.223 77,-29 79.8932,-27.0936 83.0058,-25.3371 86.2107,-23.7275"/>
<polygon fill="midnightblue" stroke="midnightblue" points="87.7133,-26.8893 95.3815,-19.5783 84.8279,-20.5116 87.7133,-26.8893"/>
</g>
<!-- Node15 -->
<g id="node4" class="node"><title>Node15</title>
<g id="a_node4"><a xlink:href="class_c_buff_adas.html#a2ff1ee5f1dfa56117d76b17027d7b7e8" target="_top" xlink:title="CBuffAdas::Reset">
<polygon fill="none" stroke="black" points="214,-114.5 214,-133.5 308,-133.5 308,-114.5 214,-114.5"/>
<text text-anchor="middle" x="261" y="-121.5" font-family="Helvetica,sans-Serif" font-size="10.00">CBuffAdas::Reset</text>
</a>
</g>
</g>
<!-- Node14&#45;&gt;Node15 -->
<g id="edge3" class="edge"><title>Node14&#45;&gt;Node15</title>
<path fill="none" stroke="midnightblue" d="M175.232,-124C184.448,-124 194.21,-124 203.703,-124"/>
<polygon fill="midnightblue" stroke="midnightblue" points="203.861,-127.5 213.86,-124 203.86,-120.5 203.861,-127.5"/>
</g>
<!-- Node19 -->
<g id="node8" class="node"><title>Node19</title>
<g id="a_node8"><a xlink:href="class_i_task___i_f.html#a28f608bdb9b19658403f7b9b7421968d" target="_top" xlink:title="ITask_IF::Init">
<polygon fill="none" stroke="black" points="225,-0.5 225,-19.5 297,-19.5 297,-0.5 225,-0.5"/>
<text text-anchor="middle" x="261" y="-7.5" font-family="Helvetica,sans-Serif" font-size="10.00">ITask_IF::Init</text>
</a>
</g>
</g>
<!-- Node18&#45;&gt;Node19 -->
<g id="edge7" class="edge"><title>Node18&#45;&gt;Node19</title>
<path fill="none" stroke="midnightblue" d="M166.535,-10C181.593,-10 199.025,-10 214.727,-10"/>
<polygon fill="midnightblue" stroke="midnightblue" points="214.752,-13.5001 224.752,-10 214.752,-6.5001 214.752,-13.5001"/>
</g>
</g>
</svg>
