<?xml version="1.0" encoding="UTF-8" standalone="no"?>
<!DOCTYPE svg PUBLIC "-//W3C//DTD SVG 1.1//EN"
 "http://www.w3.org/Graphics/SVG/1.1/DTD/svg11.dtd">
<!-- Generated by graphviz version 2.38.0 (20140413.2041)
 -->
<!-- Title: ADAS_Types.h Pages: 1 -->
<!--zoomable 308 -->
<svg id="main" version="1.1" xmlns="http://www.w3.org/2000/svg" xmlns:xlink="http://www.w3.org/1999/xlink" xml:space="preserve" onload="init(evt)">
<style type="text/css"><![CDATA[
.edge:hover path { stroke: red; }
.edge:hover polygon { stroke: red; fill: red; }
]]></style>
<script type="text/javascript"><![CDATA[
var edges = document.getElementsByTagName('g');
if (edges && edges.length) {
  for (var i=0;i<edges.length;i++) {
    if (edges[i].id.substr(0,4)=='edge') {
      edges[i].setAttribute('class','edge');
    }
  }
}
]]></script>
        <defs>
                <circle id="rim" cx="0" cy="0" r="7"/>
                <circle id="rim2" cx="0" cy="0" r="3.5"/>
                <g id="zoomPlus">
                        <use xlink:href="#rim" fill="#404040">
                                <set attributeName="fill" to="#808080" begin="zoomplus.mouseover" end="zoomplus.mouseout"/>
                        </use>
                        <path d="M-4,0h8M0,-4v8" fill="none" stroke="white" stroke-width="1.5" pointer-events="none"/>
                </g>
                <g id="zoomMin">
                        <use xlink:href="#rim" fill="#404040">
                                <set attributeName="fill" to="#808080" begin="zoomminus.mouseover" end="zoomminus.mouseout"/>
                        </use>
                        <path d="M-4,0h8" fill="none" stroke="white" stroke-width="1.5" pointer-events="none"/>
                </g>
                <g id="dirArrow">
                        <path fill="none" stroke="white" stroke-width="1.5" d="M0,-3.0v7 M-2.5,-0.5L0,-3.0L2.5,-0.5"/>
                </g>
               <g id="resetDef">
                       <use xlink:href="#rim2" fill="#404040">
                               <set attributeName="fill" to="#808080" begin="reset.mouseover" end="reset.mouseout"/>
                       </use>
               </g>
        </defs>

<script type="text/javascript">
var viewWidth = 1500;
var viewHeight = 308;
var sectionId = 'dynsection-0';
</script>
<script xlink:href="svgpan.js"/>
<svg id="graph" class="graph">
<g id="viewport">
<title>ADAS_Types.h</title>
<!-- Node1 -->
<g id="node1" class="node"><title>Node1</title>
<polygon fill="#bfbfbf" stroke="black" points="832.5,-280.5 832.5,-299.5 915.5,-299.5 915.5,-280.5 832.5,-280.5"/>
<text text-anchor="middle" x="874" y="-287.5" font-family="Helvetica,sans-Serif" font-size="10.00">ADAS_Types.h</text>
</g>
<!-- Node2 -->
<g id="node2" class="node"><title>Node2</title>
<g id="a_node2"><a xlink:href="_a_d_a_s___nav_u_8ino.html" target="_top" xlink:title="Main file for the NavU of the ADAS project. ">
<polygon fill="none" stroke="black" points="658.5,-0.5 658.5,-19.5 745.5,-19.5 745.5,-0.5 658.5,-0.5"/>
<text text-anchor="middle" x="702" y="-7.5" font-family="Helvetica,sans-Serif" font-size="10.00">ADAS_NavU.ino</text>
</a>
</g>
</g>
<!-- Node1&#45;&gt;Node2 -->
<g id="edge1" class="edge"><title>Node1&#45;&gt;Node2</title>
<path fill="none" stroke="midnightblue" d="M822.249,-289.177C688.549,-288.246 342,-276.435 342,-179 342,-179 342,-179 342,-121 342,-85.0879 359.179,-74.4323 390,-56 434.444,-29.4204 583.686,-17.5466 658.491,-13.1616"/>
<polygon fill="midnightblue" stroke="midnightblue" points="822.237,-292.676 832.255,-289.228 822.273,-285.677 822.237,-292.676"/>
</g>
<!-- Node3 -->
<g id="node3" class="node"><title>Node3</title>
<g id="a_node3"><a xlink:href="_h_a_l___a_d_c_8h.html" target="_top" xlink:title="Hardware Abstraction Layer (HAL) to interface ADC. ">
<polygon fill="none" stroke="black" points="105.5,-168.5 105.5,-187.5 174.5,-187.5 174.5,-168.5 105.5,-168.5"/>
<text text-anchor="middle" x="140" y="-175.5" font-family="Helvetica,sans-Serif" font-size="10.00">HAL_ADC.h</text>
</a>
</g>
</g>
<!-- Node1&#45;&gt;Node3 -->
<g id="edge2" class="edge"><title>Node1&#45;&gt;Node3</title>
<path fill="none" stroke="midnightblue" d="M821.73,-287.987C693.231,-285.045 364.762,-274.669 260,-244 217.251,-231.485 172.573,-202.297 151.854,-187.673"/>
<polygon fill="midnightblue" stroke="midnightblue" points="822.008,-291.494 832.083,-288.218 822.164,-284.495 822.008,-291.494"/>
</g>
<!-- Node4 -->
<g id="node4" class="node"><title>Node4</title>
<g id="a_node4"><a xlink:href="_app___environmental_data_8h.html" target="_top" xlink:title="Application file for environmental data. ">
<polygon fill="none" stroke="black" points="180,-112.5 180,-131.5 308,-131.5 308,-112.5 180,-112.5"/>
<text text-anchor="middle" x="244" y="-119.5" font-family="Helvetica,sans-Serif" font-size="10.00">App_EnvironmentalData.h</text>
</a>
</g>
</g>
<!-- Node1&#45;&gt;Node4 -->
<g id="edge48" class="edge"><title>Node1&#45;&gt;Node4</title>
<path fill="none" stroke="midnightblue" d="M822.174,-287.235C694.138,-282.523 370.174,-268.321 328,-244 282.143,-217.555 255.524,-154.764 247.014,-131.695"/>
<polygon fill="midnightblue" stroke="midnightblue" points="822.376,-290.745 832.497,-287.61 822.63,-283.75 822.376,-290.745"/>
</g>
<!-- Node7 -->
<g id="node7" class="node"><title>Node7</title>
<g id="a_node7"><a xlink:href="_h_a_l___serial___i_f_8h.html" target="_top" xlink:title="Hardware Abstraction Layer (HAL) to serial interface. ">
<polygon fill="none" stroke="black" points="1041.5,-224.5 1041.5,-243.5 1128.5,-243.5 1128.5,-224.5 1041.5,-224.5"/>
<text text-anchor="middle" x="1085" y="-231.5" font-family="Helvetica,sans-Serif" font-size="10.00">HAL_Serial_IF.h</text>
</a>
</g>
</g>
<!-- Node1&#45;&gt;Node7 -->
<g id="edge8" class="edge"><title>Node1&#45;&gt;Node7</title>
<path fill="none" stroke="midnightblue" d="M917.142,-277.959C956.994,-267.76 1015.36,-252.822 1051.72,-243.516"/>
<polygon fill="midnightblue" stroke="midnightblue" points="916.254,-274.573 907.434,-280.444 917.989,-281.355 916.254,-274.573"/>
</g>
<!-- Node8 -->
<g id="node8" class="node"><title>Node8</title>
<g id="a_node8"><a xlink:href="_comm___p_l_s_8h.html" target="_top" xlink:title="Comm_PLS.h">
<polygon fill="none" stroke="black" points="1263.5,-168.5 1263.5,-187.5 1340.5,-187.5 1340.5,-168.5 1263.5,-168.5"/>
<text text-anchor="middle" x="1302" y="-175.5" font-family="Helvetica,sans-Serif" font-size="10.00">Comm_PLS.h</text>
</a>
</g>
</g>
<!-- Node1&#45;&gt;Node8 -->
<g id="edge25" class="edge"><title>Node1&#45;&gt;Node8</title>
<path fill="none" stroke="midnightblue" d="M926.008,-286.191C1011.16,-280.967 1176.14,-268.039 1229,-244 1258.04,-230.794 1283.8,-201.929 1295.43,-187.527"/>
<polygon fill="midnightblue" stroke="midnightblue" points="925.556,-282.712 915.784,-286.805 925.976,-289.699 925.556,-282.712"/>
</g>
<!-- Node9 -->
<g id="node9" class="node"><title>Node9</title>
<g id="a_node9"><a xlink:href="_app___virtual_mapping_8h.html" target="_top" xlink:title="App_VirtualMapping.h">
<polygon fill="none" stroke="black" points="1202,-56.5 1202,-75.5 1314,-75.5 1314,-56.5 1202,-56.5"/>
<text text-anchor="middle" x="1258" y="-63.5" font-family="Helvetica,sans-Serif" font-size="10.00">App_VirtualMapping.h</text>
</a>
</g>
</g>
<!-- Node1&#45;&gt;Node9 -->
<g id="edge47" class="edge"><title>Node1&#45;&gt;Node9</title>
<path fill="none" stroke="midnightblue" d="M925.817,-289.933C1001.1,-289.745 1144.14,-283.528 1258,-244 1302.86,-228.425 1325.83,-229.456 1349,-188 1374.52,-142.339 1305.37,-94.5506 1273.32,-75.5336"/>
<polygon fill="midnightblue" stroke="midnightblue" points="925.658,-286.433 915.654,-289.922 925.651,-293.433 925.658,-286.433"/>
</g>
<!-- Node12 -->
<g id="node12" class="node"><title>Node12</title>
<g id="a_node12"><a xlink:href="_comm___i_c_c_8h.html" target="_top" xlink:title="Communication file for Inter&#45;Controller Communication (ICC) ">
<polygon fill="none" stroke="black" points="1048,-168.5 1048,-187.5 1122,-187.5 1122,-168.5 1048,-168.5"/>
<text text-anchor="middle" x="1085" y="-175.5" font-family="Helvetica,sans-Serif" font-size="10.00">Comm_ICC.h</text>
</a>
</g>
</g>
<!-- Node1&#45;&gt;Node12 -->
<g id="edge30" class="edge"><title>Node1&#45;&gt;Node12</title>
<path fill="none" stroke="midnightblue" d="M899.445,-275.735C943.277,-252.884 1031.85,-206.711 1068.52,-187.591"/>
<polygon fill="midnightblue" stroke="midnightblue" points="897.806,-272.642 890.557,-280.368 901.042,-278.849 897.806,-272.642"/>
</g>
<!-- Node13 -->
<g id="node13" class="node"><title>Node13</title>
<g id="a_node13"><a xlink:href="_app___navigation_8h.html" target="_top" xlink:title="Application file for navigation. ">
<polygon fill="none" stroke="black" points="926,-112.5 926,-131.5 1018,-131.5 1018,-112.5 926,-112.5"/>
<text text-anchor="middle" x="972" y="-119.5" font-family="Helvetica,sans-Serif" font-size="10.00">App_Navigation.h</text>
</a>
</g>
</g>
<!-- Node1&#45;&gt;Node13 -->
<g id="edge44" class="edge"><title>Node1&#45;&gt;Node13</title>
<path fill="none" stroke="midnightblue" d="M878.701,-270.555C885.626,-245.698 900.263,-200.785 923,-168 933.136,-153.384 948.809,-140.068 959.69,-131.778"/>
<polygon fill="midnightblue" stroke="midnightblue" points="875.257,-269.886 876.06,-280.45 882.02,-271.691 875.257,-269.886"/>
</g>
<!-- Node17 -->
<g id="node17" class="node"><title>Node17</title>
<g id="a_node17"><a xlink:href="_cbuffer_8h.html" target="_top" xlink:title="Cbuffer.h">
<polygon fill="none" stroke="black" points="1165.5,-224.5 1165.5,-243.5 1220.5,-243.5 1220.5,-224.5 1165.5,-224.5"/>
<text text-anchor="middle" x="1193" y="-231.5" font-family="Helvetica,sans-Serif" font-size="10.00">Cbuffer.h</text>
</a>
</g>
</g>
<!-- Node1&#45;&gt;Node17 -->
<g id="edge26" class="edge"><title>Node1&#45;&gt;Node17</title>
<path fill="none" stroke="midnightblue" d="M925.823,-280.227C994.175,-268.657 1112.02,-248.708 1165.35,-239.68"/>
<polygon fill="midnightblue" stroke="midnightblue" points="924.979,-276.82 915.704,-281.94 926.148,-283.722 924.979,-276.82"/>
</g>
<!-- Node19 -->
<g id="node19" class="node"><title>Node19</title>
<g id="a_node19"><a xlink:href="_task___i_f_8h.html" target="_top" xlink:title="Task_IF.h">
<polygon fill="none" stroke="black" points="758.5,-168.5 758.5,-187.5 817.5,-187.5 817.5,-168.5 758.5,-168.5"/>
<text text-anchor="middle" x="788" y="-175.5" font-family="Helvetica,sans-Serif" font-size="10.00">Task_IF.h</text>
</a>
</g>
</g>
<!-- Node1&#45;&gt;Node19 -->
<g id="edge31" class="edge"><title>Node1&#45;&gt;Node19</title>
<path fill="none" stroke="midnightblue" d="M860.922,-272.272C842.332,-248.494 808.944,-205.789 794.717,-187.591"/>
<polygon fill="midnightblue" stroke="midnightblue" points="858.335,-274.646 867.252,-280.368 863.85,-270.335 858.335,-274.646"/>
</g>
<!-- Node20 -->
<g id="node20" class="node"><title>Node20</title>
<g id="a_node20"><a xlink:href="_app___positioning_8h.html" target="_top" xlink:title="App_Positioning.h">
<polygon fill="none" stroke="black" points="450.5,-112.5 450.5,-131.5 545.5,-131.5 545.5,-112.5 450.5,-112.5"/>
<text text-anchor="middle" x="498" y="-119.5" font-family="Helvetica,sans-Serif" font-size="10.00">App_Positioning.h</text>
</a>
</g>
</g>
<!-- Node1&#45;&gt;Node20 -->
<g id="edge45" class="edge"><title>Node1&#45;&gt;Node20</title>
<path fill="none" stroke="midnightblue" d="M845.023,-276.207C771.554,-243.771 579.445,-158.957 517.533,-131.624"/>
<polygon fill="midnightblue" stroke="midnightblue" points="844.015,-279.588 854.576,-280.425 846.842,-273.184 844.015,-279.588"/>
</g>
<!-- Node22 -->
<g id="node22" class="node"><title>Node22</title>
<g id="a_node22"><a xlink:href="_app___user_interface_8h.html" target="_top" xlink:title="App_UserInterface.h">
<polygon fill="none" stroke="black" points="736,-112.5 736,-131.5 840,-131.5 840,-112.5 736,-112.5"/>
<text text-anchor="middle" x="788" y="-119.5" font-family="Helvetica,sans-Serif" font-size="10.00">App_UserInterface.h</text>
</a>
</g>
</g>
<!-- Node1&#45;&gt;Node22 -->
<g id="edge46" class="edge"><title>Node1&#45;&gt;Node22</title>
<path fill="none" stroke="midnightblue" d="M868.748,-270.588C861.316,-246.103 846.335,-201.966 826,-168 817.701,-154.138 805.171,-140.246 796.794,-131.641"/>
<polygon fill="midnightblue" stroke="midnightblue" points="865.44,-271.745 871.624,-280.348 872.155,-269.767 865.44,-271.745"/>
</g>
<!-- Node24 -->
<g id="node24" class="node"><title>Node24</title>
<g id="a_node24"><a xlink:href="_o_s_a_l___task_ctrl_8h.html" target="_top" xlink:title="OSAL_TaskCtrl.h">
<polygon fill="none" stroke="black" points="601,-112.5 601,-131.5 693,-131.5 693,-112.5 601,-112.5"/>
<text text-anchor="middle" x="647" y="-119.5" font-family="Helvetica,sans-Serif" font-size="10.00">OSAL_TaskCtrl.h</text>
</a>
</g>
</g>
<!-- Node1&#45;&gt;Node24 -->
<g id="edge49" class="edge"><title>Node1&#45;&gt;Node24</title>
<path fill="none" stroke="midnightblue" d="M853.796,-274.225C807.591,-240.437 695.381,-158.38 658.767,-131.605"/>
<polygon fill="midnightblue" stroke="midnightblue" points="851.977,-277.231 862.115,-280.309 856.109,-271.581 851.977,-277.231"/>
</g>
<!-- Node26 -->
<g id="node26" class="node"><title>Node26</title>
<g id="a_node26"><a xlink:href="_h_a_l___p_w_m_8h.html" target="_top" xlink:title="Hardware Abstraction Layer (HAL) for the 10&#45;bit PWM outputs. ">
<polygon fill="none" stroke="black" points="1410,-224.5 1410,-243.5 1484,-243.5 1484,-224.5 1410,-224.5"/>
<text text-anchor="middle" x="1447" y="-231.5" font-family="Helvetica,sans-Serif" font-size="10.00">HAL_PWM.h</text>
</a>
</g>
</g>
<!-- Node1&#45;&gt;Node26 -->
<g id="edge50" class="edge"><title>Node1&#45;&gt;Node26</title>
<path fill="none" stroke="midnightblue" d="M925.633,-285.938C1019.24,-280.074 1223.11,-265.866 1394,-244 1399.18,-243.337 1404.64,-242.533 1409.99,-241.682"/>
<polygon fill="midnightblue" stroke="midnightblue" points="925.342,-282.449 915.578,-286.562 925.775,-289.436 925.342,-282.449"/>
</g>
<!-- Node3&#45;&gt;Node2 -->
<g id="edge3" class="edge"><title>Node3&#45;&gt;Node2</title>
<path fill="none" stroke="midnightblue" d="M136.107,-158.404C131.696,-131.572 128.336,-82.3347 156,-56 192.081,-21.6529 534.77,-13.3853 658.073,-11.5151"/>
<polygon fill="midnightblue" stroke="midnightblue" points="132.698,-159.213 137.974,-168.4 139.579,-157.927 132.698,-159.213"/>
</g>
<!-- Node3&#45;&gt;Node4 -->
<g id="edge4" class="edge"><title>Node3&#45;&gt;Node4</title>
<path fill="none" stroke="midnightblue" d="M165.828,-163.59C185.057,-153.605 210.745,-140.267 227.332,-131.655"/>
<polygon fill="midnightblue" stroke="midnightblue" points="163.971,-160.61 156.709,-168.324 167.197,-166.822 163.971,-160.61"/>
</g>
<!-- Node6 -->
<g id="node6" class="node"><title>Node6</title>
<g id="a_node6"><a xlink:href="_h_a_l___a_d_c_8cpp.html" target="_top" xlink:title="Hardware Abstraction Layer (HAL) to interface ADC. ">
<polygon fill="none" stroke="black" points="0,-112.5 0,-131.5 80,-131.5 80,-112.5 0,-112.5"/>
<text text-anchor="middle" x="40" y="-119.5" font-family="Helvetica,sans-Serif" font-size="10.00">HAL_ADC.cpp</text>
</a>
</g>
</g>
<!-- Node3&#45;&gt;Node6 -->
<g id="edge7" class="edge"><title>Node3&#45;&gt;Node6</title>
<path fill="none" stroke="midnightblue" d="M114.912,-163.453C96.4509,-153.483 71.9034,-140.228 56.0269,-131.655"/>
<polygon fill="midnightblue" stroke="midnightblue" points="113.471,-166.652 123.933,-168.324 116.797,-160.493 113.471,-166.652"/>
</g>
<!-- Node4&#45;&gt;Node2 -->
<g id="edge5" class="edge"><title>Node4&#45;&gt;Node2</title>
<path fill="none" stroke="midnightblue" d="M209.351,-108.617C180.212,-96.3788 146.096,-76.5539 165,-56 198.13,-19.9772 535.878,-12.7781 658.13,-11.35"/>
<polygon fill="midnightblue" stroke="midnightblue" points="208.374,-111.996 218.959,-112.467 210.978,-105.498 208.374,-111.996"/>
</g>
<!-- Node5 -->
<g id="node5" class="node"><title>Node5</title>
<g id="a_node5"><a xlink:href="_app___environmental_data_8cpp.html" target="_top" xlink:title="Application file for environmental data. ">
<polygon fill="none" stroke="black" points="174.5,-56.5 174.5,-75.5 313.5,-75.5 313.5,-56.5 174.5,-56.5"/>
<text text-anchor="middle" x="244" y="-63.5" font-family="Helvetica,sans-Serif" font-size="10.00">App_EnvironmentalData.cpp</text>
</a>
</g>
</g>
<!-- Node4&#45;&gt;Node5 -->
<g id="edge6" class="edge"><title>Node4&#45;&gt;Node5</title>
<path fill="none" stroke="midnightblue" d="M244,-101.805C244,-92.9102 244,-82.7798 244,-75.7511"/>
<polygon fill="midnightblue" stroke="midnightblue" points="240.5,-102.083 244,-112.083 247.5,-102.083 240.5,-102.083"/>
</g>
<!-- Node7&#45;&gt;Node2 -->
<g id="edge9" class="edge"><title>Node7&#45;&gt;Node2</title>
<path fill="none" stroke="midnightblue" d="M1106.15,-218.294C1115.56,-210.483 1125.69,-200.014 1131,-188 1154.72,-134.313 1174.3,-99.595 1135,-56 1109.22,-27.4056 850.192,-15.8222 745.529,-12.285"/>
<polygon fill="midnightblue" stroke="midnightblue" points="1103.97,-215.554 1098.21,-224.445 1108.26,-221.088 1103.97,-215.554"/>
</g>
<!-- Node7&#45;&gt;Node8 -->
<g id="edge10" class="edge"><title>Node7&#45;&gt;Node8</title>
<path fill="none" stroke="midnightblue" d="M1129.11,-222.024C1170.1,-211.823 1230.3,-196.841 1267.78,-187.516"/>
<polygon fill="midnightblue" stroke="midnightblue" points="1128.24,-218.632 1119.38,-224.444 1129.93,-225.425 1128.24,-218.632"/>
</g>
<!-- Node7&#45;&gt;Node12 -->
<g id="edge16" class="edge"><title>Node7&#45;&gt;Node12</title>
<path fill="none" stroke="midnightblue" d="M1085,-213.805C1085,-204.91 1085,-194.78 1085,-187.751"/>
<polygon fill="midnightblue" stroke="midnightblue" points="1081.5,-214.083 1085,-224.083 1088.5,-214.083 1081.5,-214.083"/>
</g>
<!-- Node16 -->
<g id="node16" class="node"><title>Node16</title>
<g id="a_node16"><a xlink:href="_h_a_l___serial___i_f_8cpp.html" target="_top" xlink:title="Hardware Abstraction Layer (HAL) to serial interface. ">
<polygon fill="none" stroke="black" points="932,-168.5 932,-187.5 1030,-187.5 1030,-168.5 932,-168.5"/>
<text text-anchor="middle" x="981" y="-175.5" font-family="Helvetica,sans-Serif" font-size="10.00">HAL_Serial_IF.cpp</text>
</a>
</g>
</g>
<!-- Node7&#45;&gt;Node16 -->
<g id="edge24" class="edge"><title>Node7&#45;&gt;Node16</title>
<path fill="none" stroke="midnightblue" d="M1059.17,-219.59C1039.94,-209.605 1014.26,-196.267 997.668,-187.655"/>
<polygon fill="midnightblue" stroke="midnightblue" points="1057.8,-222.822 1068.29,-224.324 1061.03,-216.61 1057.8,-222.822"/>
</g>
<!-- Node8&#45;&gt;Node2 -->
<g id="edge11" class="edge"><title>Node8&#45;&gt;Node2</title>
<path fill="none" stroke="midnightblue" d="M1312.93,-159.54C1327.72,-133.463 1349.4,-84.3782 1323,-56 1283.84,-13.9027 880.874,-10.6964 745.833,-10.8146"/>
<polygon fill="midnightblue" stroke="midnightblue" points="1309.81,-157.933 1307.71,-168.317 1315.83,-161.509 1309.81,-157.933"/>
</g>
<!-- Node8&#45;&gt;Node9 -->
<g id="edge12" class="edge"><title>Node8&#45;&gt;Node9</title>
<path fill="none" stroke="midnightblue" d="M1298.63,-158.506C1295.86,-145.242 1291.36,-127.12 1285,-112 1279.35,-98.5627 1270.21,-84.3439 1264.16,-75.5694"/>
<polygon fill="midnightblue" stroke="midnightblue" points="1295.2,-159.188 1300.55,-168.332 1302.07,-157.847 1295.2,-159.188"/>
</g>
<!-- Node11 -->
<g id="node11" class="node"><title>Node11</title>
<g id="a_node11"><a xlink:href="_comm___p_l_s_8cpp.html" target="_top" xlink:title="Comm_PLS.cpp">
<polygon fill="none" stroke="black" points="1188,-112.5 1188,-131.5 1276,-131.5 1276,-112.5 1188,-112.5"/>
<text text-anchor="middle" x="1232" y="-119.5" font-family="Helvetica,sans-Serif" font-size="10.00">Comm_PLS.cpp</text>
</a>
</g>
</g>
<!-- Node8&#45;&gt;Node11 -->
<g id="edge15" class="edge"><title>Node8&#45;&gt;Node11</title>
<path fill="none" stroke="midnightblue" d="M1282.69,-162.101C1270.09,-152.382 1254.07,-140.027 1243.45,-131.834"/>
<polygon fill="midnightblue" stroke="midnightblue" points="1280.7,-164.987 1290.75,-168.324 1284.97,-159.445 1280.7,-164.987"/>
</g>
<!-- Node9&#45;&gt;Node2 -->
<g id="edge13" class="edge"><title>Node9&#45;&gt;Node2</title>
<path fill="none" stroke="midnightblue" d="M1191.84,-56.4302C1190.55,-56.2837 1189.27,-56.1401 1188,-56 1025.03,-37.9841 830.761,-21.4936 745.618,-14.5155"/>
<polygon fill="midnightblue" stroke="midnightblue" points="1191.52,-59.9167 1201.86,-57.6033 1192.33,-52.9642 1191.52,-59.9167"/>
</g>
<!-- Node10 -->
<g id="node10" class="node"><title>Node10</title>
<g id="a_node10"><a xlink:href="_app___virtual_mapping_8cpp.html" target="_top" xlink:title="App_VirtualMapping.cpp">
<polygon fill="none" stroke="black" points="1197,-0.5 1197,-19.5 1319,-19.5 1319,-0.5 1197,-0.5"/>
<text text-anchor="middle" x="1258" y="-7.5" font-family="Helvetica,sans-Serif" font-size="10.00">App_VirtualMapping.cpp</text>
</a>
</g>
</g>
<!-- Node9&#45;&gt;Node10 -->
<g id="edge14" class="edge"><title>Node9&#45;&gt;Node10</title>
<path fill="none" stroke="midnightblue" d="M1258,-45.8045C1258,-36.9102 1258,-26.7798 1258,-19.7511"/>
<polygon fill="midnightblue" stroke="midnightblue" points="1254.5,-46.083 1258,-56.083 1261.5,-46.083 1254.5,-46.083"/>
</g>
<!-- Node12&#45;&gt;Node2 -->
<g id="edge17" class="edge"><title>Node12&#45;&gt;Node2</title>
<path fill="none" stroke="midnightblue" d="M1097.71,-160.122C1115.4,-134.451 1142.44,-85.4702 1116,-56 1091.59,-28.7903 847.346,-16.4868 745.859,-12.5198"/>
<polygon fill="midnightblue" stroke="midnightblue" points="1094.72,-158.282 1091.74,-168.446 1100.41,-162.364 1094.72,-158.282"/>
</g>
<!-- Node12&#45;&gt;Node13 -->
<g id="edge18" class="edge"><title>Node12&#45;&gt;Node13</title>
<path fill="none" stroke="midnightblue" d="M1058,-164.096C1036.89,-154.007 1008.14,-140.27 989.821,-131.516"/>
<polygon fill="midnightblue" stroke="midnightblue" points="1056.56,-167.29 1067.09,-168.444 1059.58,-160.974 1056.56,-167.29"/>
</g>
<!-- Node15 -->
<g id="node15" class="node"><title>Node15</title>
<g id="a_node15"><a xlink:href="_comm___i_c_c_8cpp.html" target="_top" xlink:title="Communication file for Inter&#45;Controller Communication (ICC) ">
<polygon fill="none" stroke="black" points="1022.5,-56.5 1022.5,-75.5 1107.5,-75.5 1107.5,-56.5 1022.5,-56.5"/>
<text text-anchor="middle" x="1065" y="-63.5" font-family="Helvetica,sans-Serif" font-size="10.00">Comm_ICC.cpp</text>
</a>
</g>
</g>
<!-- Node12&#45;&gt;Node15 -->
<g id="edge23" class="edge"><title>Node12&#45;&gt;Node15</title>
<path fill="none" stroke="midnightblue" d="M1081.61,-158.348C1077.23,-134.254 1069.78,-93.3079 1066.56,-75.5914"/>
<polygon fill="midnightblue" stroke="midnightblue" points="1078.2,-159.156 1083.43,-168.368 1085.09,-157.904 1078.2,-159.156"/>
</g>
<!-- Node13&#45;&gt;Node2 -->
<g id="edge19" class="edge"><title>Node13&#45;&gt;Node2</title>
<path fill="none" stroke="midnightblue" d="M979.044,-102.459C983.174,-88.1144 985.718,-68.629 975,-56 946.094,-21.9394 815.077,-13.6179 745.589,-11.6138"/>
<polygon fill="midnightblue" stroke="midnightblue" points="975.629,-101.634 975.77,-112.228 982.267,-103.859 975.629,-101.634"/>
</g>
<!-- Node13&#45;&gt;Node9 -->
<g id="edge20" class="edge"><title>Node13&#45;&gt;Node9</title>
<path fill="none" stroke="midnightblue" d="M1027.41,-110.537C1081.47,-100.332 1162.67,-84.9992 1212.89,-75.5164"/>
<polygon fill="midnightblue" stroke="midnightblue" points="1026.49,-107.149 1017.32,-112.444 1027.79,-114.027 1026.49,-107.149"/>
</g>
<!-- Node14 -->
<g id="node14" class="node"><title>Node14</title>
<g id="a_node14"><a xlink:href="_app___navigation_8cpp.html" target="_top" xlink:title="Application file for navigation. ">
<polygon fill="none" stroke="black" points="864,-56.5 864,-75.5 966,-75.5 966,-56.5 864,-56.5"/>
<text text-anchor="middle" x="915" y="-63.5" font-family="Helvetica,sans-Serif" font-size="10.00">App_Navigation.cpp</text>
</a>
</g>
</g>
<!-- Node13&#45;&gt;Node14 -->
<g id="edge21" class="edge"><title>Node13&#45;&gt;Node14</title>
<path fill="none" stroke="midnightblue" d="M955.379,-105.253C945.266,-95.6731 932.723,-83.7906 924.325,-75.8339"/>
<polygon fill="midnightblue" stroke="midnightblue" points="953.175,-107.987 962.842,-112.324 957.99,-102.906 953.175,-107.987"/>
</g>
<!-- Node13&#45;&gt;Node15 -->
<g id="edge22" class="edge"><title>Node13&#45;&gt;Node15</title>
<path fill="none" stroke="midnightblue" d="M995.806,-107.177C1012.92,-97.2407 1035.47,-84.1492 1050.1,-75.6545"/>
<polygon fill="midnightblue" stroke="midnightblue" points="993.832,-104.276 986.942,-112.324 997.347,-110.329 993.832,-104.276"/>
</g>
<!-- Node17&#45;&gt;Node8 -->
<g id="edge27" class="edge"><title>Node17&#45;&gt;Node8</title>
<path fill="none" stroke="midnightblue" d="M1219.52,-219.862C1239.73,-209.849 1266.99,-196.346 1284.53,-187.655"/>
<polygon fill="midnightblue" stroke="midnightblue" points="1217.92,-216.748 1210.51,-224.324 1221.03,-223.021 1217.92,-216.748"/>
</g>
<!-- Node17&#45;&gt;Node12 -->
<g id="edge28" class="edge"><title>Node17&#45;&gt;Node12</title>
<path fill="none" stroke="midnightblue" d="M1166.45,-219.726C1146.45,-209.727 1119.61,-196.307 1102.31,-187.655"/>
<polygon fill="midnightblue" stroke="midnightblue" points="1165.14,-222.982 1175.65,-224.324 1168.27,-216.721 1165.14,-222.982"/>
</g>
<!-- Node18 -->
<g id="node18" class="node"><title>Node18</title>
<g id="a_node18"><a xlink:href="_cbuffer_8cpp.html" target="_top" xlink:title="Cbuffer.cpp">
<polygon fill="none" stroke="black" points="1180.5,-168.5 1180.5,-187.5 1245.5,-187.5 1245.5,-168.5 1180.5,-168.5"/>
<text text-anchor="middle" x="1213" y="-175.5" font-family="Helvetica,sans-Serif" font-size="10.00">Cbuffer.cpp</text>
</a>
</g>
</g>
<!-- Node17&#45;&gt;Node18 -->
<g id="edge29" class="edge"><title>Node17&#45;&gt;Node18</title>
<path fill="none" stroke="midnightblue" d="M1199.78,-214.69C1203.15,-205.589 1207.07,-195.014 1209.76,-187.751"/>
<polygon fill="midnightblue" stroke="midnightblue" points="1196.49,-213.49 1196.3,-224.083 1203.06,-215.921 1196.49,-213.49"/>
</g>
<!-- Node19&#45;&gt;Node4 -->
<g id="edge40" class="edge"><title>Node19&#45;&gt;Node4</title>
<path fill="none" stroke="midnightblue" d="M748.234,-173.053C655.088,-163.807 422.084,-140.677 308.406,-129.393"/>
<polygon fill="midnightblue" stroke="midnightblue" points="748.069,-176.553 758.366,-174.058 748.761,-169.588 748.069,-176.553"/>
</g>
<!-- Node19&#45;&gt;Node9 -->
<g id="edge39" class="edge"><title>Node19&#45;&gt;Node9</title>
<path fill="none" stroke="midnightblue" d="M827.505,-170.66C875.081,-162.773 957.297,-148.335 1027,-132 1101.23,-114.604 1187.38,-88.8638 1230.47,-75.5983"/>
<polygon fill="midnightblue" stroke="midnightblue" points="826.909,-167.211 817.611,-172.289 828.046,-174.118 826.909,-167.211"/>
</g>
<!-- Node19&#45;&gt;Node13 -->
<g id="edge32" class="edge"><title>Node19&#45;&gt;Node13</title>
<path fill="none" stroke="midnightblue" d="M826.954,-165.568C861.665,-155.381 911.677,-140.703 942.981,-131.516"/>
<polygon fill="midnightblue" stroke="midnightblue" points="825.765,-162.269 817.155,-168.444 827.736,-168.986 825.765,-162.269"/>
</g>
<!-- Node19&#45;&gt;Node20 -->
<g id="edge33" class="edge"><title>Node19&#45;&gt;Node20</title>
<path fill="none" stroke="midnightblue" d="M748.216,-169.592C694.786,-159.643 600.064,-142.005 543.748,-131.519"/>
<polygon fill="midnightblue" stroke="midnightblue" points="747.856,-173.085 758.328,-171.475 749.137,-166.203 747.856,-173.085"/>
</g>
<!-- Node19&#45;&gt;Node22 -->
<g id="edge36" class="edge"><title>Node19&#45;&gt;Node22</title>
<path fill="none" stroke="midnightblue" d="M788,-157.805C788,-148.91 788,-138.78 788,-131.751"/>
<polygon fill="midnightblue" stroke="midnightblue" points="784.5,-158.083 788,-168.083 791.5,-158.083 784.5,-158.083"/>
</g>
<!-- Node19&#45;&gt;Node24 -->
<g id="edge41" class="edge"><title>Node19&#45;&gt;Node24</title>
<path fill="none" stroke="midnightblue" d="M756.071,-164.772C729.586,-154.629 692.608,-140.467 669.237,-131.516"/>
<polygon fill="midnightblue" stroke="midnightblue" points="755.068,-168.136 765.658,-168.444 757.571,-161.599 755.068,-168.136"/>
</g>
<!-- Node20&#45;&gt;Node2 -->
<g id="edge34" class="edge"><title>Node20&#45;&gt;Node2</title>
<path fill="none" stroke="midnightblue" d="M452.912,-109.492C417.884,-98.4127 378.44,-79.8388 399,-56 431.953,-17.7917 582.522,-11.5015 658.246,-10.8047"/>
<polygon fill="midnightblue" stroke="midnightblue" points="452.037,-112.884 462.621,-112.417 454.056,-106.181 452.037,-112.884"/>
</g>
<!-- Node21 -->
<g id="node21" class="node"><title>Node21</title>
<g id="a_node21"><a xlink:href="_app___positioning_8cpp.html" target="_top" xlink:title="App_Positioning.cpp">
<polygon fill="none" stroke="black" points="408,-56.5 408,-75.5 514,-75.5 514,-56.5 408,-56.5"/>
<text text-anchor="middle" x="461" y="-63.5" font-family="Helvetica,sans-Serif" font-size="10.00">App_Positioning.cpp</text>
</a>
</g>
</g>
<!-- Node20&#45;&gt;Node21 -->
<g id="edge35" class="edge"><title>Node20&#45;&gt;Node21</title>
<path fill="none" stroke="midnightblue" d="M486.054,-103.566C479.688,-94.2747 472.133,-83.2484 466.996,-75.7511"/>
<polygon fill="midnightblue" stroke="midnightblue" points="483.351,-105.812 491.89,-112.083 489.125,-101.855 483.351,-105.812"/>
</g>
<!-- Node22&#45;&gt;Node2 -->
<g id="edge37" class="edge"><title>Node22&#45;&gt;Node2</title>
<path fill="none" stroke="midnightblue" d="M759.308,-107.619C745.923,-100.057 730.818,-89.4125 721,-76 708.361,-58.7337 704.09,-33.1649 702.677,-19.8256"/>
<polygon fill="midnightblue" stroke="midnightblue" points="757.741,-110.75 768.213,-112.358 761.029,-104.571 757.741,-110.75"/>
</g>
<!-- Node23 -->
<g id="node23" class="node"><title>Node23</title>
<g id="a_node23"><a xlink:href="_app___user_interface_8cpp.html" target="_top" xlink:title="App_UserInterface.cpp">
<polygon fill="none" stroke="black" points="730.5,-56.5 730.5,-75.5 845.5,-75.5 845.5,-56.5 730.5,-56.5"/>
<text text-anchor="middle" x="788" y="-63.5" font-family="Helvetica,sans-Serif" font-size="10.00">App_UserInterface.cpp</text>
</a>
</g>
</g>
<!-- Node22&#45;&gt;Node23 -->
<g id="edge38" class="edge"><title>Node22&#45;&gt;Node23</title>
<path fill="none" stroke="midnightblue" d="M788,-101.805C788,-92.9102 788,-82.7798 788,-75.7511"/>
<polygon fill="midnightblue" stroke="midnightblue" points="784.5,-102.083 788,-112.083 791.5,-102.083 784.5,-102.083"/>
</g>
<!-- Node24&#45;&gt;Node2 -->
<g id="edge42" class="edge"><title>Node24&#45;&gt;Node2</title>
<path fill="none" stroke="midnightblue" d="M607.937,-109.017C577.903,-97.7001 544.164,-79.0456 561,-56 583.055,-25.8107 625.587,-15.4017 658.195,-12.0405"/>
<polygon fill="midnightblue" stroke="midnightblue" points="606.894,-112.362 617.489,-112.43 609.25,-105.77 606.894,-112.362"/>
</g>
<!-- Node25 -->
<g id="node25" class="node"><title>Node25</title>
<g id="a_node25"><a xlink:href="_o_s_a_l___task_ctrl_8cpp.html" target="_top" xlink:title="OSAL_TaskCtrl.cpp">
<polygon fill="none" stroke="black" points="570.5,-56.5 570.5,-75.5 673.5,-75.5 673.5,-56.5 570.5,-56.5"/>
<text text-anchor="middle" x="622" y="-63.5" font-family="Helvetica,sans-Serif" font-size="10.00">OSAL_TaskCtrl.cpp</text>
</a>
</g>
</g>
<!-- Node24&#45;&gt;Node25 -->
<g id="edge43" class="edge"><title>Node24&#45;&gt;Node25</title>
<path fill="none" stroke="midnightblue" d="M638.659,-102.983C634.415,-93.8168 629.45,-83.0922 626.051,-75.7511"/>
<polygon fill="midnightblue" stroke="midnightblue" points="635.494,-104.479 642.872,-112.083 641.847,-101.538 635.494,-104.479"/>
</g>
<!-- Node27 -->
<g id="node27" class="node"><title>Node27</title>
<g id="a_node27"><a xlink:href="_h_a_l___p_w_m_8cpp.html" target="_top" xlink:title="Hardware Abstraction Layer (HAL) for the 10&#45;bit PWM outputs. ">
<polygon fill="none" stroke="black" points="1408,-168.5 1408,-187.5 1492,-187.5 1492,-168.5 1408,-168.5"/>
<text text-anchor="middle" x="1450" y="-175.5" font-family="Helvetica,sans-Serif" font-size="10.00">HAL_PWM.cpp</text>
</a>
</g>
</g>
<!-- Node26&#45;&gt;Node27 -->
<g id="edge51" class="edge"><title>Node26&#45;&gt;Node27</title>
<path fill="none" stroke="midnightblue" d="M1448.07,-213.805C1448.56,-204.91 1449.12,-194.78 1449.51,-187.751"/>
<polygon fill="midnightblue" stroke="midnightblue" points="1444.56,-213.904 1447.5,-224.083 1451.54,-214.293 1444.56,-213.904"/>
</g>
</g>
</svg>
        <g id="navigator" transform="translate(0 0)" fill="#404254">
                <rect fill="#f2f5e9" fill-opacity="0.5" stroke="#606060" stroke-width=".5" x="0" y="0" width="60" height="60"/>
                <use id="zoomplus" xlink:href="#zoomPlus" x="17" y="9" onmousedown="handleZoom(evt,'in')"/>
                <use id="zoomminus" xlink:href="#zoomMin" x="42" y="9" onmousedown="handleZoom(evt,'out')"/>
                <use id="reset" xlink:href="#resetDef" x="30" y="36" onmousedown="handleReset()"/>
                <g id="arrowUp" xlink:href="#dirArrow" transform="translate(30 24)" onmousedown="handlePan(0,-1)">
                  <use xlink:href="#rim" fill="#404040">
                        <set attributeName="fill" to="#808080" begin="arrowUp.mouseover" end="arrowUp.mouseout"/>
                  </use>
                  <path fill="none" stroke="white" stroke-width="1.5" d="M0,-3.0v7 M-2.5,-0.5L0,-3.0L2.5,-0.5"/>
                </g>
                <g id="arrowRight" xlink:href="#dirArrow" transform="rotate(90) translate(36 -43)" onmousedown="handlePan(1,0)">
                  <use xlink:href="#rim" fill="#404040">
                        <set attributeName="fill" to="#808080" begin="arrowRight.mouseover" end="arrowRight.mouseout"/>
                  </use>
                  <path fill="none" stroke="white" stroke-width="1.5" d="M0,-3.0v7 M-2.5,-0.5L0,-3.0L2.5,-0.5"/>
                </g>
                <g id="arrowDown" xlink:href="#dirArrow" transform="rotate(180) translate(-30 -48)" onmousedown="handlePan(0,1)">
                  <use xlink:href="#rim" fill="#404040">
                        <set attributeName="fill" to="#808080" begin="arrowDown.mouseover" end="arrowDown.mouseout"/>
                  </use>
                  <path fill="none" stroke="white" stroke-width="1.5" d="M0,-3.0v7 M-2.5,-0.5L0,-3.0L2.5,-0.5"/>
                </g>
                <g id="arrowLeft" xlink:href="#dirArrow" transform="rotate(270) translate(-36 17)" onmousedown="handlePan(-1,0)">
                  <use xlink:href="#rim" fill="#404040">
                        <set attributeName="fill" to="#808080" begin="arrowLeft.mouseover" end="arrowLeft.mouseout"/>
                  </use>
                  <path fill="none" stroke="white" stroke-width="1.5" d="M0,-3.0v7 M-2.5,-0.5L0,-3.0L2.5,-0.5"/>
                </g>
        </g>
        <svg viewBox="0 0 15 15" width="100%" height="30px" preserveAspectRatio="xMaxYMin meet">
         <g id="arrow_out" transform="scale(0.3 0.3)">
          <a xlink:href="_a_d_a_s___types_8h__dep__incl_org.svg" target="_base">
           <rect id="button" ry="5" rx="5" y="6" x="6" height="38" width="38"
                fill="#f2f5e9" fill-opacity="0.5" stroke="#606060" stroke-width="1.0"/>
           <path id="arrow"
             d="M 11.500037,31.436501 C 11.940474,20.09759 22.043105,11.32322 32.158766,21.979434 L 37.068811,17.246167 C 37.068811,17.246167 37.088388,32 37.088388,32 L 22.160133,31.978069 C 22.160133,31.978069 26.997745,27.140456 26.997745,27.140456 C 18.528582,18.264221 13.291696,25.230495 11.500037,31.436501 z"
             style="fill:#404040;"/>
          </a>
         </g>
        </svg>
</svg>
