<?xml version="1.0" encoding="UTF-8" standalone="no"?>
<!DOCTYPE svg PUBLIC "-//W3C//DTD SVG 1.1//EN"
 "http://www.w3.org/Graphics/SVG/1.1/DTD/svg11.dtd">
<!-- Generated by graphviz version 2.38.0 (20140413.2041)
 -->
<!-- Title: ADAS_Debug.h Pages: 1 -->
<svg width="829pt" height="196pt"
 viewBox="0.00 0.00 828.84 196.00" xmlns="http://www.w3.org/2000/svg" xmlns:xlink="http://www.w3.org/1999/xlink">
<g id="graph0" class="graph" transform="scale(1 1) rotate(0) translate(4 192)">
<title>ADAS_Debug.h</title>
<!-- Node2 -->
<g id="node1" class="node"><title>Node2</title>
<g id="a_node1"><a xlink:title="This file contains redefinition of the serial functions for debugging purpose.">
<polygon fill="#bfbfbf" stroke="black" points="475.336,-168.5 475.336,-187.5 560.336,-187.5 560.336,-168.5 475.336,-168.5"/>
<text text-anchor="middle" x="517.836" y="-175.5" font-family="Helvetica,sans-Serif" font-size="10.00">ADAS_Debug.h</text>
</a>
</g>
</g>
<!-- Node3 -->
<g id="node2" class="node"><title>Node3</title>
<g id="a_node2"><a xlink:href="_a_d_a_s___nav_u_8ino.html" target="_top" xlink:title="Main file for the NavU of the ADAS project.">
<polygon fill="none" stroke="black" points="115.336,-0.5 115.336,-19.5 202.336,-19.5 202.336,-0.5 115.336,-0.5"/>
<text text-anchor="middle" x="158.836" y="-7.5" font-family="Helvetica,sans-Serif" font-size="10.00">ADAS_NavU.ino</text>
</a>
</g>
</g>
<!-- Node2&#45;&gt;Node3 -->
<g id="edge1" class="edge"><title>Node2&#45;&gt;Node3</title>
<path fill="none" stroke="midnightblue" d="M465.116,-175.58C344.97,-171.865 58.6653,-160.133 25.8359,-132 -0.24412,-109.651 -8.589,-83.613 11.8359,-56 35.4057,-24.1354 81.0949,-14.0966 115.311,-11.2845"/>
<polygon fill="midnightblue" stroke="midnightblue" points="465.086,-179.08 475.188,-175.884 465.298,-172.083 465.086,-179.08"/>
</g>
<!-- Node4 -->
<g id="node3" class="node"><title>Node4</title>
<g id="a_node3"><a xlink:href="_app___navigation_8h.html" target="_top" xlink:title="Application file for navigation.">
<polygon fill="none" stroke="black" points="354.836,-112.5 354.836,-131.5 446.836,-131.5 446.836,-112.5 354.836,-112.5"/>
<text text-anchor="middle" x="400.836" y="-119.5" font-family="Helvetica,sans-Serif" font-size="10.00">App_Navigation.h</text>
</a>
</g>
</g>
<!-- Node2&#45;&gt;Node4 -->
<g id="edge2" class="edge"><title>Node2&#45;&gt;Node4</title>
<path fill="none" stroke="midnightblue" d="M490.172,-164.232C468.287,-154.131 438.339,-140.309 419.288,-131.516"/>
<polygon fill="midnightblue" stroke="midnightblue" points="488.751,-167.431 499.297,-168.444 491.684,-161.075 488.751,-167.431"/>
</g>
<!-- Node6 -->
<g id="node5" class="node"><title>Node6</title>
<g id="a_node5"><a xlink:href="_app___virtual_mapping_8cpp.html" target="_top" xlink:title="Virtual mapping application source file.">
<polygon fill="none" stroke="black" points="433.836,-0.5 433.836,-19.5 555.836,-19.5 555.836,-0.5 433.836,-0.5"/>
<text text-anchor="middle" x="494.836" y="-7.5" font-family="Helvetica,sans-Serif" font-size="10.00">App_VirtualMapping.cpp</text>
</a>
</g>
</g>
<!-- Node2&#45;&gt;Node6 -->
<g id="edge12" class="edge"><title>Node2&#45;&gt;Node6</title>
<path fill="none" stroke="midnightblue" d="M533.972,-161.082C555.905,-137.435 590.192,-91.9526 569.836,-56 559.661,-38.0293 539.13,-26.4522 522.118,-19.5474"/>
<polygon fill="midnightblue" stroke="midnightblue" points="531.257,-158.855 526.839,-168.485 536.298,-163.712 531.257,-158.855"/>
</g>
<!-- Node8 -->
<g id="node7" class="node"><title>Node8</title>
<g id="a_node7"><a xlink:href="_comm___i_c_c_8cpp.html" target="_top" xlink:title="Communication file for Inter&#45;Controller Communication (ICC)">
<polygon fill="none" stroke="black" points="475.336,-56.5 475.336,-75.5 560.336,-75.5 560.336,-56.5 475.336,-56.5"/>
<text text-anchor="middle" x="517.836" y="-63.5" font-family="Helvetica,sans-Serif" font-size="10.00">Comm_ICC.cpp</text>
</a>
</g>
</g>
<!-- Node2&#45;&gt;Node8 -->
<g id="edge13" class="edge"><title>Node2&#45;&gt;Node8</title>
<path fill="none" stroke="midnightblue" d="M517.836,-158.348C517.836,-134.254 517.836,-93.3079 517.836,-75.5914"/>
<polygon fill="midnightblue" stroke="midnightblue" points="514.336,-158.368 517.836,-168.368 521.336,-158.369 514.336,-158.368"/>
</g>
<!-- Node9 -->
<g id="node8" class="node"><title>Node9</title>
<g id="a_node8"><a xlink:href="_app___environmental_data_8h.html" target="_top" xlink:title="Application file for environmental data.">
<polygon fill="none" stroke="black" points="34.8359,-112.5 34.8359,-131.5 162.836,-131.5 162.836,-112.5 34.8359,-112.5"/>
<text text-anchor="middle" x="98.8359" y="-119.5" font-family="Helvetica,sans-Serif" font-size="10.00">App_EnvironmentalData.h</text>
</a>
</g>
</g>
<!-- Node2&#45;&gt;Node9 -->
<g id="edge9" class="edge"><title>Node2&#45;&gt;Node9</title>
<path fill="none" stroke="midnightblue" d="M465.028,-170.194C388.227,-160.296 245.873,-141.95 163.092,-131.281"/>
<polygon fill="midnightblue" stroke="midnightblue" points="464.599,-173.668 474.965,-171.475 465.494,-166.725 464.599,-173.668"/>
</g>
<!-- Node11 -->
<g id="node10" class="node"><title>Node11</title>
<g id="a_node10"><a xlink:href="_comm___p_l_s_8cpp.html" target="_top" xlink:title=" ">
<polygon fill="none" stroke="black" points="616.836,-112.5 616.836,-131.5 704.836,-131.5 704.836,-112.5 616.836,-112.5"/>
<text text-anchor="middle" x="660.836" y="-119.5" font-family="Helvetica,sans-Serif" font-size="10.00">Comm_PLS.cpp</text>
</a>
</g>
</g>
<!-- Node2&#45;&gt;Node11 -->
<g id="edge14" class="edge"><title>Node2&#45;&gt;Node11</title>
<path fill="none" stroke="midnightblue" d="M549.863,-164.906C576.748,-154.754 614.477,-140.506 638.283,-131.516"/>
<polygon fill="midnightblue" stroke="midnightblue" points="548.613,-161.636 540.495,-168.444 551.086,-168.185 548.613,-161.636"/>
</g>
<!-- Node12 -->
<g id="node11" class="node"><title>Node12</title>
<g id="a_node11"><a xlink:href="_h_a_l___serial___i_f_8cpp.html" target="_top" xlink:title="Hardware Abstraction Layer (HAL) to serial interface.">
<polygon fill="none" stroke="black" points="722.836,-112.5 722.836,-131.5 820.836,-131.5 820.836,-112.5 722.836,-112.5"/>
<text text-anchor="middle" x="771.836" y="-119.5" font-family="Helvetica,sans-Serif" font-size="10.00">HAL_Serial_IF.cpp</text>
</a>
</g>
</g>
<!-- Node2&#45;&gt;Node12 -->
<g id="edge15" class="edge"><title>Node2&#45;&gt;Node12</title>
<path fill="none" stroke="midnightblue" d="M567.951,-166.346C615.953,-156.141 687.451,-140.94 731.777,-131.516"/>
<polygon fill="midnightblue" stroke="midnightblue" points="567.136,-162.94 558.083,-168.444 568.592,-169.787 567.136,-162.94"/>
</g>
<!-- Node4&#45;&gt;Node3 -->
<g id="edge3" class="edge"><title>Node4&#45;&gt;Node3</title>
<path fill="none" stroke="midnightblue" d="M381.006,-106.37C360.871,-92.0338 328.39,-70.3105 297.836,-56 263.495,-39.916 221.859,-27.2709 193.16,-19.5334"/>
<polygon fill="midnightblue" stroke="midnightblue" points="379.181,-109.369 389.338,-112.383 383.278,-103.693 379.181,-109.369"/>
</g>
<!-- Node5 -->
<g id="node4" class="node"><title>Node5</title>
<g id="a_node4"><a xlink:href="_app___virtual_mapping_8h.html" target="_top" xlink:title="Virtual mapping application header file.">
<polygon fill="none" stroke="black" points="344.836,-56.5 344.836,-75.5 456.836,-75.5 456.836,-56.5 344.836,-56.5"/>
<text text-anchor="middle" x="400.836" y="-63.5" font-family="Helvetica,sans-Serif" font-size="10.00">App_VirtualMapping.h</text>
</a>
</g>
</g>
<!-- Node4&#45;&gt;Node5 -->
<g id="edge4" class="edge"><title>Node4&#45;&gt;Node5</title>
<path fill="none" stroke="midnightblue" d="M400.836,-101.805C400.836,-92.9102 400.836,-82.7798 400.836,-75.7511"/>
<polygon fill="midnightblue" stroke="midnightblue" points="397.336,-102.083 400.836,-112.083 404.336,-102.083 397.336,-102.083"/>
</g>
<!-- Node7 -->
<g id="node6" class="node"><title>Node7</title>
<g id="a_node6"><a xlink:href="_app___navigation_8cpp.html" target="_top" xlink:title="Application file for navigation.">
<polygon fill="none" stroke="black" points="186.836,-56.5 186.836,-75.5 288.836,-75.5 288.836,-56.5 186.836,-56.5"/>
<text text-anchor="middle" x="237.836" y="-63.5" font-family="Helvetica,sans-Serif" font-size="10.00">App_Navigation.cpp</text>
</a>
</g>
</g>
<!-- Node4&#45;&gt;Node7 -->
<g id="edge7" class="edge"><title>Node4&#45;&gt;Node7</title>
<path fill="none" stroke="midnightblue" d="M365.133,-109.172C334.44,-99.0039 290.917,-84.5852 263.543,-75.5164"/>
<polygon fill="midnightblue" stroke="midnightblue" points="364.415,-112.621 375.008,-112.444 366.616,-105.976 364.415,-112.621"/>
</g>
<!-- Node4&#45;&gt;Node8 -->
<g id="edge8" class="edge"><title>Node4&#45;&gt;Node8</title>
<path fill="none" stroke="midnightblue" d="M428.5,-108.232C450.385,-98.1312 480.333,-84.3091 499.384,-75.5164"/>
<polygon fill="midnightblue" stroke="midnightblue" points="426.988,-105.075 419.375,-112.444 429.921,-111.431 426.988,-105.075"/>
</g>
<!-- Node5&#45;&gt;Node3 -->
<g id="edge5" class="edge"><title>Node5&#45;&gt;Node3</title>
<path fill="none" stroke="midnightblue" d="M352.513,-54.2172C306.785,-44.0134 239.057,-28.9006 197.002,-19.5164"/>
<polygon fill="midnightblue" stroke="midnightblue" points="351.968,-57.6816 362.49,-56.4435 353.493,-50.8496 351.968,-57.6816"/>
</g>
<!-- Node5&#45;&gt;Node6 -->
<g id="edge6" class="edge"><title>Node5&#45;&gt;Node6</title>
<path fill="none" stroke="midnightblue" d="M424.898,-51.1774C442.195,-41.2407 464.984,-28.1492 479.771,-19.6545"/>
<polygon fill="midnightblue" stroke="midnightblue" points="422.866,-48.3078 415.939,-56.324 426.353,-54.3775 422.866,-48.3078"/>
</g>
<!-- Node9&#45;&gt;Node3 -->
<g id="edge10" class="edge"><title>Node9&#45;&gt;Node3</title>
<path fill="none" stroke="midnightblue" d="M63.2229,-108.667C35.3609,-97.0033 3.80843,-78.0352 19.8359,-56 41.4701,-26.2564 83.1902,-15.77 115.302,-12.2682"/>
<polygon fill="midnightblue" stroke="midnightblue" points="62.2542,-112.048 72.8401,-112.481 64.8348,-105.541 62.2542,-112.048"/>
</g>
<!-- Node10 -->
<g id="node9" class="node"><title>Node10</title>
<g id="a_node9"><a xlink:href="_app___environmental_data_8cpp.html" target="_top" xlink:title="Application file for environmental data.">
<polygon fill="none" stroke="black" points="29.3359,-56.5 29.3359,-75.5 168.336,-75.5 168.336,-56.5 29.3359,-56.5"/>
<text text-anchor="middle" x="98.8359" y="-63.5" font-family="Helvetica,sans-Serif" font-size="10.00">App_EnvironmentalData.cpp</text>
</a>
</g>
</g>
<!-- Node9&#45;&gt;Node10 -->
<g id="edge11" class="edge"><title>Node9&#45;&gt;Node10</title>
<path fill="none" stroke="midnightblue" d="M98.8359,-101.805C98.8359,-92.9102 98.8359,-82.7798 98.8359,-75.7511"/>
<polygon fill="midnightblue" stroke="midnightblue" points="95.336,-102.083 98.8359,-112.083 102.336,-102.083 95.336,-102.083"/>
</g>
</g>
</svg>
