<?xml version="1.0" encoding="UTF-8" standalone="no"?>
<!DOCTYPE svg PUBLIC "-//W3C//DTD SVG 1.1//EN"
 "http://www.w3.org/Graphics/SVG/1.1/DTD/svg11.dtd">
<!-- Generated by graphviz version 2.38.0 (20140413.2041)
 -->
<!-- Title: loop Pages: 1 -->
<svg width="381pt" height="78pt"
 viewBox="0.00 0.00 381.00 77.50" xmlns="http://www.w3.org/2000/svg" xmlns:xlink="http://www.w3.org/1999/xlink">
<g id="graph0" class="graph" transform="scale(1 1) rotate(0) translate(4 73.5)">
<title>loop</title>
<!-- Node6 -->
<g id="node1" class="node"><title>Node6</title>
<polygon fill="#bfbfbf" stroke="black" points="0,-22.5 0,-41.5 35,-41.5 35,-22.5 0,-22.5"/>
<text text-anchor="middle" x="17.5" y="-29.5" font-family="Helvetica,sans-Serif" font-size="10.00">loop</text>
</g>
<!-- Node7 -->
<g id="node2" class="node"><title>Node7</title>
<g id="a_node2"><a xlink:href="class_c_navigation.html#ac491c77788ba2e953a704b6ad622a665" target="_top" xlink:title="Debug function to print current status of state flow if changed. ">
<polygon fill="none" stroke="black" points="71,-39 71,-69 202,-69 202,-39 71,-39"/>
<text text-anchor="start" x="79" y="-57" font-family="Helvetica,sans-Serif" font-size="10.00">CNavigation::printChanged</text>
<text text-anchor="middle" x="136.5" y="-46" font-family="Helvetica,sans-Serif" font-size="10.00">DebugInfo</text>
</a>
</g>
</g>
<!-- Node6&#45;&gt;Node7 -->
<g id="edge1" class="edge"><title>Node6&#45;&gt;Node7</title>
<path fill="none" stroke="midnightblue" d="M35.0151,-35.1054C42.2432,-36.4645 51.2788,-38.1635 60.9486,-39.9818"/>
<polygon fill="midnightblue" stroke="midnightblue" points="60.3117,-43.4233 70.7863,-41.8316 61.6053,-36.5439 60.3117,-43.4233"/>
</g>
<!-- Node9 -->
<g id="node4" class="node"><title>Node9</title>
<g id="a_node4"><a xlink:href="class_c_task_ctrl.html#ab36ffef43b3bd33303ed7d068b2e89cf" target="_top" xlink:title="CTaskCtrl::Run">
<polygon fill="none" stroke="black" points="95,-0.5 95,-19.5 178,-19.5 178,-0.5 95,-0.5"/>
<text text-anchor="middle" x="136.5" y="-7.5" font-family="Helvetica,sans-Serif" font-size="10.00">CTaskCtrl::Run</text>
</a>
</g>
</g>
<!-- Node6&#45;&gt;Node9 -->
<g id="edge3" class="edge"><title>Node6&#45;&gt;Node9</title>
<path fill="none" stroke="midnightblue" d="M35.0151,-28.8946C47.9685,-26.4589 66.7265,-22.9318 84.5367,-19.5828"/>
<polygon fill="midnightblue" stroke="midnightblue" points="85.6816,-22.929 94.8626,-17.6412 84.388,-16.0495 85.6816,-22.929"/>
</g>
<!-- Node8 -->
<g id="node3" class="node"><title>Node8</title>
<g id="a_node3"><a xlink:href="class_c_navigation.html#a84e320cd8975593ab6f966e8794b2886" target="_top" xlink:title="Debug function to print current status of state flow. ">
<polygon fill="none" stroke="black" points="238,-44.5 238,-63.5 373,-63.5 373,-44.5 238,-44.5"/>
<text text-anchor="middle" x="305.5" y="-51.5" font-family="Helvetica,sans-Serif" font-size="10.00">CNavigation::printDebugInfo</text>
</a>
</g>
</g>
<!-- Node7&#45;&gt;Node8 -->
<g id="edge2" class="edge"><title>Node7&#45;&gt;Node8</title>
<path fill="none" stroke="midnightblue" d="M202.067,-54C210.511,-54 219.228,-54 227.847,-54"/>
<polygon fill="midnightblue" stroke="midnightblue" points="227.897,-57.5001 237.897,-54 227.897,-50.5001 227.897,-57.5001"/>
</g>
<!-- Node10 -->
<g id="node5" class="node"><title>Node10</title>
<g id="a_node5"><a xlink:href="class_i_task___i_f.html#ab73cc5879a61d00fc59b72cce32cc6f7" target="_top" xlink:title="ITask_IF::Run">
<polygon fill="none" stroke="black" points="267,-0.5 267,-19.5 344,-19.5 344,-0.5 267,-0.5"/>
<text text-anchor="middle" x="305.5" y="-7.5" font-family="Helvetica,sans-Serif" font-size="10.00">ITask_IF::Run</text>
</a>
</g>
</g>
<!-- Node9&#45;&gt;Node10 -->
<g id="edge4" class="edge"><title>Node9&#45;&gt;Node10</title>
<path fill="none" stroke="midnightblue" d="M178.353,-10C202.011,-10 231.912,-10 256.665,-10"/>
<polygon fill="midnightblue" stroke="midnightblue" points="256.924,-13.5001 266.924,-10 256.924,-6.5001 256.924,-13.5001"/>
</g>
</g>
</svg>
