<?xml version="1.0" encoding="UTF-8" standalone="no"?>
<!DOCTYPE svg PUBLIC "-//W3C//DTD SVG 1.1//EN"
 "http://www.w3.org/Graphics/SVG/1.1/DTD/svg11.dtd">
<!-- Generated by graphviz version 2.38.0 (20140413.2041)
 -->
<!-- Title: ADAS_NavU.ino Pages: 1 -->
<svg width="1067pt" height="308pt"
 viewBox="0.00 0.00 1067.20 308.00" xmlns="http://www.w3.org/2000/svg" xmlns:xlink="http://www.w3.org/1999/xlink">
<g id="graph0" class="graph" transform="scale(1 1) rotate(0) translate(4 304)">
<title>ADAS_NavU.ino</title>
<!-- Node0 -->
<g id="node1" class="node"><title>Node0</title>
<g id="a_node1"><a xlink:title="Main file for the NavU of the ADAS project.">
<polygon fill="#bfbfbf" stroke="black" points="409.698,-280.5 409.698,-299.5 496.698,-299.5 496.698,-280.5 409.698,-280.5"/>
<text text-anchor="middle" x="453.198" y="-287.5" font-family="Helvetica,sans-Serif" font-size="10.00">ADAS_NavU.ino</text>
</a>
</g>
</g>
<!-- Node1 -->
<g id="node2" class="node"><title>Node1</title>
<g id="a_node2"><a xlink:href="_a_d_a_s___types_8h.html" target="_top" xlink:title="internal datatype mapping file">
<polygon fill="none" stroke="black" points="530.698,-0.5 530.698,-19.5 613.698,-19.5 613.698,-0.5 530.698,-0.5"/>
<text text-anchor="middle" x="572.198" y="-7.5" font-family="Helvetica,sans-Serif" font-size="10.00">ADAS_Types.h</text>
</a>
</g>
</g>
<!-- Node0&#45;&gt;Node1 -->
<g id="edge1" class="edge"><title>Node0&#45;&gt;Node1</title>
<path fill="none" stroke="midnightblue" d="M496.78,-285.708C635.73,-274.638 1059.2,-236.206 1059.2,-179 1059.2,-179 1059.2,-179 1059.2,-121 1059.2,-32.4761 749.166,-15.1877 623.84,-11.8155"/>
<polygon fill="midnightblue" stroke="midnightblue" points="623.803,-8.31359 613.719,-11.5628 623.629,-15.3114 623.803,-8.31359"/>
</g>
<!-- Node2 -->
<g id="node3" class="node"><title>Node2</title>
<g id="a_node3"><a xlink:href="_a_d_a_s___cfg_8h.html" target="_top" xlink:title="This file contains the configuration of the vehicle.">
<polygon fill="none" stroke="black" points="402.698,-56.5 402.698,-75.5 473.698,-75.5 473.698,-56.5 402.698,-56.5"/>
<text text-anchor="middle" x="438.198" y="-63.5" font-family="Helvetica,sans-Serif" font-size="10.00">ADAS_Cfg.h</text>
</a>
</g>
</g>
<!-- Node0&#45;&gt;Node2 -->
<g id="edge2" class="edge"><title>Node0&#45;&gt;Node2</title>
<path fill="none" stroke="midnightblue" d="M455.037,-280.155C457.655,-267.635 462.645,-244.037 467.198,-224 478.438,-174.532 510.064,-158.239 489.198,-112 483.582,-99.5553 472.635,-89.1723 462.319,-81.5273"/>
<polygon fill="midnightblue" stroke="midnightblue" points="464.156,-78.5431 453.932,-75.7643 460.191,-84.3123 464.156,-78.5431"/>
</g>
<!-- Node3 -->
<g id="node4" class="node"><title>Node3</title>
<g id="a_node4"><a xlink:href="_a_d_a_s___debug_8h.html" target="_top" xlink:title="This file contains redefinition of the serial functions for debugging purpose.">
<polygon fill="none" stroke="black" points="395.698,-112.5 395.698,-131.5 480.698,-131.5 480.698,-112.5 395.698,-112.5"/>
<text text-anchor="middle" x="438.198" y="-119.5" font-family="Helvetica,sans-Serif" font-size="10.00">ADAS_Debug.h</text>
</a>
</g>
</g>
<!-- Node0&#45;&gt;Node3 -->
<g id="edge3" class="edge"><title>Node0&#45;&gt;Node3</title>
<path fill="none" stroke="midnightblue" d="M449.62,-280.218C446.182,-271.279 441.218,-256.934 439.198,-244 433.598,-208.147 435.1,-165.589 436.669,-141.697"/>
<polygon fill="midnightblue" stroke="midnightblue" points="440.17,-141.808 437.414,-131.578 433.189,-141.294 440.17,-141.808"/>
</g>
<!-- Node4 -->
<g id="node5" class="node"><title>Node4</title>
<g id="a_node5"><a xlink:href="_h_a_l___a_d_c_8h.html" target="_top" xlink:title="Hardware Abstraction Layer (HAL) to interface ADC.">
<polygon fill="none" stroke="black" points="537.698,-112.5 537.698,-131.5 606.698,-131.5 606.698,-112.5 537.698,-112.5"/>
<text text-anchor="middle" x="572.198" y="-119.5" font-family="Helvetica,sans-Serif" font-size="10.00">HAL_ADC.h</text>
</a>
</g>
</g>
<!-- Node0&#45;&gt;Node4 -->
<g id="edge5" class="edge"><title>Node0&#45;&gt;Node4</title>
<path fill="none" stroke="midnightblue" d="M455.65,-280.257C461.908,-259.118 480.134,-204.308 510.198,-168 520.573,-155.47 535.187,-144.641 547.621,-136.748"/>
<polygon fill="midnightblue" stroke="midnightblue" points="549.469,-139.72 556.198,-131.536 545.834,-133.738 549.469,-139.72"/>
</g>
<!-- Node5 -->
<g id="node6" class="node"><title>Node5</title>
<g id="a_node6"><a xlink:href="_h_a_l___serial___i_f_8h.html" target="_top" xlink:title="Hardware Abstraction Layer (HAL) to serial interface.">
<polygon fill="none" stroke="black" points="14.6978,-56.5 14.6978,-75.5 101.698,-75.5 101.698,-56.5 14.6978,-56.5"/>
<text text-anchor="middle" x="58.1978" y="-63.5" font-family="Helvetica,sans-Serif" font-size="10.00">HAL_Serial_IF.h</text>
</a>
</g>
</g>
<!-- Node0&#45;&gt;Node5 -->
<g id="edge7" class="edge"><title>Node0&#45;&gt;Node5</title>
<path fill="none" stroke="midnightblue" d="M409.574,-288.382C351.672,-286.196 247.199,-277.451 165.198,-244 85.8338,-211.625 47.4416,-208.202 8.19782,-132 -1.57176,-113.03 17.2354,-93.9931 34.5073,-81.4697"/>
<polygon fill="midnightblue" stroke="midnightblue" points="36.9269,-84.0578 43.24,-75.5493 32.9989,-78.2638 36.9269,-84.0578"/>
</g>
<!-- Node6 -->
<g id="node7" class="node"><title>Node6</title>
<g id="a_node7"><a xlink:href="_comm___p_l_s_8h.html" target="_top" xlink:title=" ">
<polygon fill="none" stroke="black" points="17.6978,-112.5 17.6978,-131.5 94.6978,-131.5 94.6978,-112.5 17.6978,-112.5"/>
<text text-anchor="middle" x="56.1978" y="-119.5" font-family="Helvetica,sans-Serif" font-size="10.00">Comm_PLS.h</text>
</a>
</g>
</g>
<!-- Node0&#45;&gt;Node6 -->
<g id="edge9" class="edge"><title>Node0&#45;&gt;Node6</title>
<path fill="none" stroke="midnightblue" d="M409.373,-287.686C358.023,-284.685 271.416,-274.997 204.198,-244 148.175,-218.166 95.4794,-166.054 70.8159,-139.445"/>
<polygon fill="midnightblue" stroke="midnightblue" points="73.1454,-136.805 63.8246,-131.768 67.9698,-141.518 73.1454,-136.805"/>
</g>
<!-- Node8 -->
<g id="node9" class="node"><title>Node8</title>
<g id="a_node9"><a xlink:href="_comm___i_c_c_8h.html" target="_top" xlink:title="Communication file for Inter&#45;Controller Communication (ICC)">
<polygon fill="none" stroke="black" points="113.198,-112.5 113.198,-131.5 187.198,-131.5 187.198,-112.5 113.198,-112.5"/>
<text text-anchor="middle" x="150.198" y="-119.5" font-family="Helvetica,sans-Serif" font-size="10.00">Comm_ICC.h</text>
</a>
</g>
</g>
<!-- Node0&#45;&gt;Node8 -->
<g id="edge15" class="edge"><title>Node0&#45;&gt;Node8</title>
<path fill="none" stroke="midnightblue" d="M409.502,-284.343C352.656,-277.601 257.174,-263.73 228.198,-244 190.628,-218.418 167.073,-168.119 156.582,-141.131"/>
<polygon fill="midnightblue" stroke="midnightblue" points="159.853,-139.885 153.092,-131.728 153.29,-142.321 159.853,-139.885"/>
</g>
<!-- Node9 -->
<g id="node10" class="node"><title>Node9</title>
<g id="a_node10"><a xlink:href="_app___navigation_8h.html" target="_top" xlink:title="Application file for navigation.">
<polygon fill="none" stroke="black" points="289.198,-168.5 289.198,-187.5 381.198,-187.5 381.198,-168.5 289.198,-168.5"/>
<text text-anchor="middle" x="335.198" y="-175.5" font-family="Helvetica,sans-Serif" font-size="10.00">App_Navigation.h</text>
</a>
</g>
</g>
<!-- Node0&#45;&gt;Node9 -->
<g id="edge20" class="edge"><title>Node0&#45;&gt;Node9</title>
<path fill="none" stroke="midnightblue" d="M442.665,-280.229C432.036,-271.297 415.232,-256.959 401.198,-244 383.585,-227.737 364.106,-208.375 350.906,-195.037"/>
<polygon fill="midnightblue" stroke="midnightblue" points="353.083,-192.26 343.571,-187.592 348.096,-197.172 353.083,-192.26"/>
</g>
<!-- Node12 -->
<g id="node13" class="node"><title>Node12</title>
<g id="a_node13"><a xlink:href="_app___positioning_8h.html" target="_top" xlink:title="template header file for positioning application">
<polygon fill="none" stroke="black" points="813.698,-168.5 813.698,-187.5 908.698,-187.5 908.698,-168.5 813.698,-168.5"/>
<text text-anchor="middle" x="861.198" y="-175.5" font-family="Helvetica,sans-Serif" font-size="10.00">App_Positioning.h</text>
</a>
</g>
</g>
<!-- Node0&#45;&gt;Node12 -->
<g id="edge28" class="edge"><title>Node0&#45;&gt;Node12</title>
<path fill="none" stroke="midnightblue" d="M484.873,-280.46C557.935,-260.762 738.228,-212.154 819.858,-190.146"/>
<polygon fill="midnightblue" stroke="midnightblue" points="820.798,-193.517 829.542,-187.535 818.976,-186.758 820.798,-193.517"/>
</g>
<!-- Node13 -->
<g id="node14" class="node"><title>Node13</title>
<g id="a_node14"><a xlink:href="_app___user_interface_8h.html" target="_top" xlink:title="template header file for uner interface application">
<polygon fill="none" stroke="black" points="927.198,-168.5 927.198,-187.5 1031.2,-187.5 1031.2,-168.5 927.198,-168.5"/>
<text text-anchor="middle" x="979.198" y="-175.5" font-family="Helvetica,sans-Serif" font-size="10.00">App_UserInterface.h</text>
</a>
</g>
</g>
<!-- Node0&#45;&gt;Node13 -->
<g id="edge31" class="edge"><title>Node0&#45;&gt;Node13</title>
<path fill="none" stroke="midnightblue" d="M495.001,-280.428C538.894,-271.414 609.913,-256.792 671.198,-244 761.974,-225.052 867.729,-202.666 928.724,-189.723"/>
<polygon fill="midnightblue" stroke="midnightblue" points="929.794,-193.074 938.849,-187.575 928.34,-186.227 929.794,-193.074"/>
</g>
<!-- Node14 -->
<g id="node15" class="node"><title>Node14</title>
<g id="a_node15"><a xlink:href="_app___virtual_mapping_8h.html" target="_top" xlink:title="Virtual mapping application header file.">
<polygon fill="none" stroke="black" points="237.198,-224.5 237.198,-243.5 349.198,-243.5 349.198,-224.5 237.198,-224.5"/>
<text text-anchor="middle" x="293.198" y="-231.5" font-family="Helvetica,sans-Serif" font-size="10.00">App_VirtualMapping.h</text>
</a>
</g>
</g>
<!-- Node0&#45;&gt;Node14 -->
<g id="edge34" class="edge"><title>Node0&#45;&gt;Node14</title>
<path fill="none" stroke="midnightblue" d="M427.845,-280.444C400.928,-271.359 358.202,-256.939 328.111,-246.783"/>
<polygon fill="midnightblue" stroke="midnightblue" points="329.026,-243.398 318.432,-243.516 326.787,-250.031 329.026,-243.398"/>
</g>
<!-- Node15 -->
<g id="node16" class="node"><title>Node15</title>
<g id="a_node16"><a xlink:href="_app___environmental_data_8h.html" target="_top" xlink:title="Application file for environmental data.">
<polygon fill="none" stroke="black" points="519.198,-168.5 519.198,-187.5 647.198,-187.5 647.198,-168.5 519.198,-168.5"/>
<text text-anchor="middle" x="583.198" y="-175.5" font-family="Helvetica,sans-Serif" font-size="10.00">App_EnvironmentalData.h</text>
</a>
</g>
</g>
<!-- Node0&#45;&gt;Node15 -->
<g id="edge39" class="edge"><title>Node0&#45;&gt;Node15</title>
<path fill="none" stroke="midnightblue" d="M463.399,-280.368C485.422,-261.733 537.66,-217.532 565.312,-194.134"/>
<polygon fill="midnightblue" stroke="midnightblue" points="567.671,-196.723 573.044,-187.591 563.15,-191.379 567.671,-196.723"/>
</g>
<!-- Node16 -->
<g id="node17" class="node"><title>Node16</title>
<g id="a_node17"><a xlink:href="_o_s_a_l___task_ctrl_8h.html" target="_top" xlink:title="Task controller header file.">
<polygon fill="none" stroke="black" points="703.198,-168.5 703.198,-187.5 795.198,-187.5 795.198,-168.5 703.198,-168.5"/>
<text text-anchor="middle" x="749.198" y="-175.5" font-family="Helvetica,sans-Serif" font-size="10.00">OSAL_TaskCtrl.h</text>
</a>
</g>
</g>
<!-- Node0&#45;&gt;Node16 -->
<g id="edge45" class="edge"><title>Node0&#45;&gt;Node16</title>
<path fill="none" stroke="midnightblue" d="M476.424,-280.368C528.839,-260.89 656.418,-213.479 716.667,-191.089"/>
<polygon fill="midnightblue" stroke="midnightblue" points="717.925,-194.356 726.079,-187.591 715.486,-187.794 717.925,-194.356"/>
</g>
<!-- Node3&#45;&gt;Node2 -->
<g id="edge4" class="edge"><title>Node3&#45;&gt;Node2</title>
<path fill="none" stroke="midnightblue" d="M438.198,-112.083C438.198,-105.006 438.198,-94.8611 438.198,-85.9865"/>
<polygon fill="midnightblue" stroke="midnightblue" points="441.698,-85.751 438.198,-75.7511 434.698,-85.7511 441.698,-85.751"/>
</g>
<!-- Node4&#45;&gt;Node1 -->
<g id="edge6" class="edge"><title>Node4&#45;&gt;Node1</title>
<path fill="none" stroke="midnightblue" d="M572.198,-112.368C572.198,-94.617 572.198,-53.6664 572.198,-29.5974"/>
<polygon fill="midnightblue" stroke="midnightblue" points="575.698,-29.5914 572.198,-19.5914 568.698,-29.5915 575.698,-29.5914"/>
</g>
<!-- Node5&#45;&gt;Node1 -->
<g id="edge8" class="edge"><title>Node5&#45;&gt;Node1</title>
<path fill="none" stroke="midnightblue" d="M101.833,-57.3381C104.999,-56.8598 108.145,-56.4077 111.198,-56 259.065,-36.2535 434.711,-21.4951 520.225,-14.8649"/>
<polygon fill="midnightblue" stroke="midnightblue" points="520.745,-18.3354 530.447,-14.078 520.207,-11.3561 520.745,-18.3354"/>
</g>
<!-- Node6&#45;&gt;Node1 -->
<g id="edge10" class="edge"><title>Node6&#45;&gt;Node1</title>
<path fill="none" stroke="midnightblue" d="M41.0944,-112.442C20.37,-99.6671 -12.419,-75.0703 5.19782,-56 39.7337,-18.6146 386.383,-12.2594 520.033,-11.2018"/>
<polygon fill="midnightblue" stroke="midnightblue" points="520.437,-14.699 530.412,-11.127 520.387,-7.69921 520.437,-14.699"/>
</g>
<!-- Node6&#45;&gt;Node2 -->
<g id="edge11" class="edge"><title>Node6&#45;&gt;Node2</title>
<path fill="none" stroke="midnightblue" d="M94.9406,-113.559C98.0692,-113.012 101.184,-112.485 104.198,-112 206.798,-95.4808 327.803,-80.2226 392.288,-72.4272"/>
<polygon fill="midnightblue" stroke="midnightblue" points="393.009,-75.8658 402.519,-71.1958 392.172,-68.9159 393.009,-75.8658"/>
</g>
<!-- Node6&#45;&gt;Node5 -->
<g id="edge12" class="edge"><title>Node6&#45;&gt;Node5</title>
<path fill="none" stroke="midnightblue" d="M56.5281,-112.083C56.7902,-105.006 57.1659,-94.8611 57.4946,-85.9865"/>
<polygon fill="midnightblue" stroke="midnightblue" points="61.0011,-85.8738 57.8737,-75.7511 54.0059,-85.6147 61.0011,-85.8738"/>
</g>
<!-- Node7 -->
<g id="node8" class="node"><title>Node7</title>
<g id="a_node8"><a xlink:href="_cbuffer_8h.html" target="_top" xlink:title="general purpose buffer">
<polygon fill="none" stroke="black" points="120.198,-56.5 120.198,-75.5 176.198,-75.5 176.198,-56.5 120.198,-56.5"/>
<text text-anchor="middle" x="148.198" y="-63.5" font-family="Helvetica,sans-Serif" font-size="10.00">CBuffer.h</text>
</a>
</g>
</g>
<!-- Node6&#45;&gt;Node7 -->
<g id="edge13" class="edge"><title>Node6&#45;&gt;Node7</title>
<path fill="none" stroke="midnightblue" d="M70.9792,-112.324C85.4649,-103.822 107.771,-90.7288 124.691,-80.7975"/>
<polygon fill="midnightblue" stroke="midnightblue" points="126.601,-83.735 133.453,-75.6545 123.057,-77.6981 126.601,-83.735"/>
</g>
<!-- Node7&#45;&gt;Node1 -->
<g id="edge14" class="edge"><title>Node7&#45;&gt;Node1</title>
<path fill="none" stroke="midnightblue" d="M176.595,-58.5374C181.132,-57.6142 185.784,-56.7313 190.198,-56 307.462,-36.5731 446.333,-22.4064 520.074,-15.5768"/>
<polygon fill="midnightblue" stroke="midnightblue" points="520.833,-19.022 530.471,-14.6227 520.193,-12.0513 520.833,-19.022"/>
</g>
<!-- Node8&#45;&gt;Node1 -->
<g id="edge16" class="edge"><title>Node8&#45;&gt;Node1</title>
<path fill="none" stroke="midnightblue" d="M157.358,-112.489C170.003,-98.1114 197.837,-69.2828 228.198,-56 279.462,-33.5721 437.523,-19.9953 520.351,-14.236"/>
<polygon fill="midnightblue" stroke="midnightblue" points="520.813,-17.7127 530.551,-13.5398 520.336,-10.7289 520.813,-17.7127"/>
</g>
<!-- Node8&#45;&gt;Node2 -->
<g id="edge17" class="edge"><title>Node8&#45;&gt;Node2</title>
<path fill="none" stroke="midnightblue" d="M187.259,-114.051C239.748,-104.209 335.663,-86.2252 392.496,-75.5691"/>
<polygon fill="midnightblue" stroke="midnightblue" points="393.45,-78.9512 402.634,-73.6682 392.16,-72.0711 393.45,-78.9512"/>
</g>
<!-- Node8&#45;&gt;Node5 -->
<g id="edge18" class="edge"><title>Node8&#45;&gt;Node5</title>
<path fill="none" stroke="midnightblue" d="M135.416,-112.324C120.931,-103.822 98.6247,-90.7288 81.7046,-80.7975"/>
<polygon fill="midnightblue" stroke="midnightblue" points="83.3384,-77.6981 72.9425,-75.6545 79.795,-83.735 83.3384,-77.6981"/>
</g>
<!-- Node8&#45;&gt;Node7 -->
<g id="edge19" class="edge"><title>Node8&#45;&gt;Node7</title>
<path fill="none" stroke="midnightblue" d="M149.868,-112.083C149.605,-105.006 149.23,-94.8611 148.901,-85.9865"/>
<polygon fill="midnightblue" stroke="midnightblue" points="152.39,-85.6147 148.522,-75.7511 145.395,-85.8738 152.39,-85.6147"/>
</g>
<!-- Node9&#45;&gt;Node1 -->
<g id="edge24" class="edge"><title>Node9&#45;&gt;Node1</title>
<path fill="none" stroke="midnightblue" d="M336.714,-168.426C341.112,-146.194 356.001,-86.321 393.198,-56 429.107,-26.7283 481.55,-16.1667 520.397,-12.518"/>
<polygon fill="midnightblue" stroke="midnightblue" points="520.782,-15.9984 530.464,-11.6971 520.213,-9.02154 520.782,-15.9984"/>
</g>
<!-- Node9&#45;&gt;Node2 -->
<g id="edge25" class="edge"><title>Node9&#45;&gt;Node2</title>
<path fill="none" stroke="midnightblue" d="M341.304,-168.157C350.408,-155.232 368.385,-130.69 386.198,-112 396.365,-101.332 408.817,-90.4894 418.987,-82.1209"/>
<polygon fill="midnightblue" stroke="midnightblue" points="421.315,-84.7394 426.893,-75.7314 416.915,-79.2953 421.315,-84.7394"/>
</g>
<!-- Node9&#45;&gt;Node3 -->
<g id="edge26" class="edge"><title>Node9&#45;&gt;Node3</title>
<path fill="none" stroke="midnightblue" d="M351.747,-168.324C368.189,-159.703 393.633,-146.364 412.666,-136.386"/>
<polygon fill="midnightblue" stroke="midnightblue" points="414.459,-139.398 421.69,-131.655 411.208,-133.198 414.459,-139.398"/>
</g>
<!-- Node9&#45;&gt;Node8 -->
<g id="edge27" class="edge"><title>Node9&#45;&gt;Node8</title>
<path fill="none" stroke="midnightblue" d="M305.884,-168.444C274.355,-159.241 224.066,-144.562 189.212,-134.388"/>
<polygon fill="midnightblue" stroke="midnightblue" points="189.955,-130.959 179.374,-131.516 187.993,-137.678 189.955,-130.959"/>
</g>
<!-- Node10 -->
<g id="node11" class="node"><title>Node10</title>
<g id="a_node11"><a xlink:title=" ">
<polygon fill="none" stroke="#bfbfbf" points="243.198,-112.5 243.198,-131.5 301.198,-131.5 301.198,-112.5 243.198,-112.5"/>
<text text-anchor="middle" x="272.198" y="-119.5" font-family="Helvetica,sans-Serif" font-size="10.00">Arduino.h</text>
</a>
</g>
</g>
<!-- Node9&#45;&gt;Node10 -->
<g id="edge21" class="edge"><title>Node9&#45;&gt;Node10</title>
<path fill="none" stroke="midnightblue" d="M325.076,-168.324C315.671,-160.263 301.454,-148.077 290.129,-138.369"/>
<polygon fill="midnightblue" stroke="midnightblue" points="292.374,-135.684 282.504,-131.834 287.819,-140.999 292.374,-135.684"/>
</g>
<!-- Node11 -->
<g id="node12" class="node"><title>Node11</title>
<g id="a_node12"><a xlink:href="_task___i_f_8h.html" target="_top" xlink:title="Task controller interface header.">
<polygon fill="none" stroke="black" points="739.198,-112.5 739.198,-131.5 795.198,-131.5 795.198,-112.5 739.198,-112.5"/>
<text text-anchor="middle" x="767.198" y="-119.5" font-family="Helvetica,sans-Serif" font-size="10.00">Task_if.h</text>
</a>
</g>
</g>
<!-- Node9&#45;&gt;Node11 -->
<g id="edge22" class="edge"><title>Node9&#45;&gt;Node11</title>
<path fill="none" stroke="midnightblue" d="M381.429,-171.221C467.254,-160.493 649.678,-137.69 729.016,-127.773"/>
<polygon fill="midnightblue" stroke="midnightblue" points="729.573,-131.23 739.061,-126.517 728.704,-124.285 729.573,-131.23"/>
</g>
<!-- Node11&#45;&gt;Node1 -->
<g id="edge23" class="edge"><title>Node11&#45;&gt;Node1</title>
<path fill="none" stroke="midnightblue" d="M758.524,-112.402C744.529,-98.9049 715.647,-72.5792 687.198,-56 663.156,-41.989 633.931,-30.6179 610.96,-22.8114"/>
<polygon fill="midnightblue" stroke="midnightblue" points="611.803,-19.4037 601.209,-19.5829 609.602,-26.0489 611.803,-19.4037"/>
</g>
<!-- Node12&#45;&gt;Node1 -->
<g id="edge30" class="edge"><title>Node12&#45;&gt;Node1</title>
<path fill="none" stroke="midnightblue" d="M857.925,-168.189C848.958,-145.386 821.662,-84.2512 777.198,-56 730.788,-26.5124 667.861,-16.1525 624.016,-12.6161"/>
<polygon fill="midnightblue" stroke="midnightblue" points="624.081,-9.11195 613.857,-11.8908 623.582,-16.0942 624.081,-9.11195"/>
</g>
<!-- Node12&#45;&gt;Node11 -->
<g id="edge29" class="edge"><title>Node12&#45;&gt;Node11</title>
<path fill="none" stroke="midnightblue" d="M846.095,-168.324C831.295,-159.822 808.504,-146.729 791.216,-136.797"/>
<polygon fill="midnightblue" stroke="midnightblue" points="792.678,-133.601 782.263,-131.655 789.191,-139.671 792.678,-133.601"/>
</g>
<!-- Node13&#45;&gt;Node1 -->
<g id="edge33" class="edge"><title>Node13&#45;&gt;Node1</title>
<path fill="none" stroke="midnightblue" d="M969.805,-168.333C944.911,-145.877 874.333,-85.5097 804.198,-56 745.36,-31.2438 672.348,-19.9576 624.123,-14.9125"/>
<polygon fill="midnightblue" stroke="midnightblue" points="624.22,-11.405 613.923,-13.8999 623.528,-18.3708 624.22,-11.405"/>
</g>
<!-- Node13&#45;&gt;Node11 -->
<g id="edge32" class="edge"><title>Node13&#45;&gt;Node11</title>
<path fill="none" stroke="midnightblue" d="M945.606,-168.444C907.37,-158.704 845.056,-142.832 805.109,-132.657"/>
<polygon fill="midnightblue" stroke="midnightblue" points="805.771,-129.214 795.216,-130.137 804.043,-135.997 805.771,-129.214"/>
</g>
<!-- Node14&#45;&gt;Node1 -->
<g id="edge36" class="edge"><title>Node14&#45;&gt;Node1</title>
<path fill="none" stroke="midnightblue" d="M282.91,-224.347C259.808,-203.857 207.828,-151.159 234.198,-112 266.372,-64.2218 433.751,-32.1265 520.272,-18.4626"/>
<polygon fill="midnightblue" stroke="midnightblue" points="521.064,-21.8817 530.408,-16.8879 519.989,-14.9647 521.064,-21.8817"/>
</g>
<!-- Node14&#45;&gt;Node6 -->
<g id="edge37" class="edge"><title>Node14&#45;&gt;Node6</title>
<path fill="none" stroke="midnightblue" d="M274.601,-224.368C233.153,-205.131 133.003,-158.648 84.0591,-135.931"/>
<polygon fill="midnightblue" stroke="midnightblue" points="85.2526,-132.627 74.7084,-131.591 82.3055,-138.976 85.2526,-132.627"/>
</g>
<!-- Node14&#45;&gt;Node9 -->
<g id="edge38" class="edge"><title>Node14&#45;&gt;Node9</title>
<path fill="none" stroke="midnightblue" d="M300.133,-224.083C306.127,-216.377 314.95,-205.033 322.245,-195.653"/>
<polygon fill="midnightblue" stroke="midnightblue" points="325.015,-197.793 328.391,-187.751 319.489,-193.496 325.015,-197.793"/>
</g>
<!-- Node14&#45;&gt;Node11 -->
<g id="edge35" class="edge"><title>Node14&#45;&gt;Node11</title>
<path fill="none" stroke="midnightblue" d="M349.484,-233.003C422.203,-231.449 551.842,-223.342 656.198,-188 665.502,-184.849 714.455,-155.322 744.158,-137.166"/>
<polygon fill="midnightblue" stroke="midnightblue" points="746.352,-139.926 753.051,-131.718 742.695,-133.957 746.352,-139.926"/>
</g>
<!-- Node15&#45;&gt;Node1 -->
<g id="edge41" class="edge"><title>Node15&#45;&gt;Node1</title>
<path fill="none" stroke="midnightblue" d="M597.859,-168.402C609.604,-160.585 625.229,-147.862 632.198,-132 635.773,-123.862 634.552,-120.572 632.198,-112 623.245,-79.4015 600.733,-46.6758 585.973,-27.653"/>
<polygon fill="midnightblue" stroke="midnightblue" points="588.601,-25.3349 579.628,-19.701 583.129,-29.7007 588.601,-25.3349"/>
</g>
<!-- Node15&#45;&gt;Node2 -->
<g id="edge42" class="edge"><title>Node15&#45;&gt;Node2</title>
<path fill="none" stroke="midnightblue" d="M593.196,-168.376C607.148,-155.301 629.25,-130.072 615.198,-112 599.196,-91.4208 530.724,-78.7126 483.79,-72.2544"/>
<polygon fill="midnightblue" stroke="midnightblue" points="484.209,-68.7794 473.836,-70.9331 483.288,-75.7186 484.209,-68.7794"/>
</g>
<!-- Node15&#45;&gt;Node3 -->
<g id="edge43" class="edge"><title>Node15&#45;&gt;Node3</title>
<path fill="none" stroke="midnightblue" d="M560.222,-168.444C536.041,-159.438 497.78,-145.189 470.552,-135.049"/>
<polygon fill="midnightblue" stroke="midnightblue" points="471.659,-131.727 461.066,-131.516 469.216,-138.286 471.659,-131.727"/>
</g>
<!-- Node15&#45;&gt;Node4 -->
<g id="edge44" class="edge"><title>Node15&#45;&gt;Node4</title>
<path fill="none" stroke="midnightblue" d="M581.381,-168.083C579.924,-160.927 577.827,-150.635 576.005,-141.691"/>
<polygon fill="midnightblue" stroke="midnightblue" points="579.406,-140.851 573.98,-131.751 572.547,-142.248 579.406,-140.851"/>
</g>
<!-- Node15&#45;&gt;Node11 -->
<g id="edge40" class="edge"><title>Node15&#45;&gt;Node11</title>
<path fill="none" stroke="midnightblue" d="M612.353,-168.444C643.988,-159.159 694.613,-144.302 729.308,-134.12"/>
<polygon fill="midnightblue" stroke="midnightblue" points="730.474,-137.425 739.084,-131.251 728.503,-130.709 730.474,-137.425"/>
</g>
<!-- Node16&#45;&gt;Node1 -->
<g id="edge46" class="edge"><title>Node16&#45;&gt;Node1</title>
<path fill="none" stroke="midnightblue" d="M765.971,-168.407C786.374,-156.725 816.646,-134.677 804.198,-112 768.974,-47.8337 681.314,-24.4084 624.402,-15.8728"/>
<polygon fill="midnightblue" stroke="midnightblue" points="624.54,-12.3583 614.153,-14.4458 623.575,-19.2914 624.54,-12.3583"/>
</g>
<!-- Node16&#45;&gt;Node2 -->
<g id="edge48" class="edge"><title>Node16&#45;&gt;Node2</title>
<path fill="none" stroke="midnightblue" d="M736.448,-168.338C715.552,-154.512 672.315,-127.445 632.198,-112 583.074,-93.087 523.764,-80.7538 483.759,-73.8635"/>
<polygon fill="midnightblue" stroke="midnightblue" points="484.211,-70.3905 473.77,-72.1871 483.052,-77.294 484.211,-70.3905"/>
</g>
<!-- Node16&#45;&gt;Node11 -->
<g id="edge47" class="edge"><title>Node16&#45;&gt;Node11</title>
<path fill="none" stroke="midnightblue" d="M752.17,-168.083C754.582,-160.849 758.062,-150.409 761.066,-141.397"/>
<polygon fill="midnightblue" stroke="midnightblue" points="764.439,-142.345 764.281,-131.751 757.798,-140.131 764.439,-142.345"/>
</g>
</g>
</svg>
