<?xml version="1.0" encoding="UTF-8" standalone="no"?>
<!DOCTYPE svg PUBLIC "-//W3C//DTD SVG 1.1//EN"
 "http://www.w3.org/Graphics/SVG/1.1/DTD/svg11.dtd">
<!-- Generated by graphviz version 2.38.0 (20140413.2041)
 -->
<!-- Title: ADAS_Cfg.h Pages: 1 -->
<svg width="930pt" height="252pt"
 viewBox="0.00 0.00 930.38 252.00" xmlns="http://www.w3.org/2000/svg" xmlns:xlink="http://www.w3.org/1999/xlink">
<g id="graph0" class="graph" transform="scale(1 1) rotate(0) translate(4 248)">
<title>ADAS_Cfg.h</title>
<!-- Node1 -->
<g id="node1" class="node"><title>Node1</title>
<polygon fill="#bfbfbf" stroke="black" points="360.5,-224.5 360.5,-243.5 431.5,-243.5 431.5,-224.5 360.5,-224.5"/>
<text text-anchor="middle" x="396" y="-231.5" font-family="Helvetica,sans-Serif" font-size="10.00">ADAS_Cfg.h</text>
</g>
<!-- Node2 -->
<g id="node2" class="node"><title>Node2</title>
<g id="a_node2"><a xlink:href="_a_d_a_s___debug_8h.html" target="_top" xlink:title="This file contains redefinition of the serial functions for debugging purpose. ">
<polygon fill="none" stroke="black" points="353.5,-168.5 353.5,-187.5 438.5,-187.5 438.5,-168.5 353.5,-168.5"/>
<text text-anchor="middle" x="396" y="-175.5" font-family="Helvetica,sans-Serif" font-size="10.00">ADAS_Debug.h</text>
</a>
</g>
</g>
<!-- Node1&#45;&gt;Node2 -->
<g id="edge1" class="edge"><title>Node1&#45;&gt;Node2</title>
<path fill="none" stroke="midnightblue" d="M396,-213.805C396,-204.91 396,-194.78 396,-187.751"/>
<polygon fill="midnightblue" stroke="midnightblue" points="392.5,-214.083 396,-224.083 399.5,-214.083 392.5,-214.083"/>
</g>
<!-- Node3 -->
<g id="node3" class="node"><title>Node3</title>
<g id="a_node3"><a xlink:href="_a_d_a_s___nav_u_8ino.html" target="_top" xlink:title="Main file for the NavU of the ADAS project. ">
<polygon fill="none" stroke="black" points="517.5,-0.5 517.5,-19.5 604.5,-19.5 604.5,-0.5 517.5,-0.5"/>
<text text-anchor="middle" x="561" y="-7.5" font-family="Helvetica,sans-Serif" font-size="10.00">ADAS_NavU.ino</text>
</a>
</g>
</g>
<!-- Node1&#45;&gt;Node3 -->
<g id="edge18" class="edge"><title>Node1&#45;&gt;Node3</title>
<path fill="none" stroke="midnightblue" d="M441.994,-231.658C559.492,-227.845 863.993,-215.403 900,-188 921.152,-171.902 916.257,-158.155 921,-132 929.983,-82.4619 883.851,-74.4315 837,-56 758.84,-25.2513 660.275,-15.5108 604.577,-12.4269"/>
<polygon fill="midnightblue" stroke="midnightblue" points="441.762,-228.164 431.879,-231.98 441.985,-235.16 441.762,-228.164"/>
</g>
<!-- Node4 -->
<g id="node4" class="node"><title>Node4</title>
<g id="a_node4"><a xlink:href="_app___navigation_8h.html" target="_top" xlink:title="Application file for navigation. ">
<polygon fill="none" stroke="black" points="23,-112.5 23,-131.5 115,-131.5 115,-112.5 23,-112.5"/>
<text text-anchor="middle" x="69" y="-119.5" font-family="Helvetica,sans-Serif" font-size="10.00">App_Navigation.h</text>
</a>
</g>
</g>
<!-- Node1&#45;&gt;Node4 -->
<g id="edge27" class="edge"><title>Node1&#45;&gt;Node4</title>
<path fill="none" stroke="midnightblue" d="M350.566,-223.671C314.238,-215.698 262.247,-203.131 218,-188 168.864,-171.198 113.387,-144.97 86.0685,-131.545"/>
<polygon fill="midnightblue" stroke="midnightblue" points="349.863,-227.1 360.378,-225.796 351.345,-220.258 349.863,-227.1"/>
</g>
<!-- Node9 -->
<g id="node9" class="node"><title>Node9</title>
<g id="a_node9"><a xlink:href="_app___environmental_data_8h.html" target="_top" xlink:title="Application file for environmental data. ">
<polygon fill="none" stroke="black" points="609,-112.5 609,-131.5 737,-131.5 737,-112.5 609,-112.5"/>
<text text-anchor="middle" x="673" y="-119.5" font-family="Helvetica,sans-Serif" font-size="10.00">App_EnvironmentalData.h</text>
</a>
</g>
</g>
<!-- Node1&#45;&gt;Node9 -->
<g id="edge28" class="edge"><title>Node1&#45;&gt;Node9</title>
<path fill="none" stroke="midnightblue" d="M441.821,-226.633C480.018,-220.203 535.223,-208.262 580,-188 613.381,-172.895 647.349,-145.426 663.43,-131.534"/>
<polygon fill="midnightblue" stroke="midnightblue" points="440.832,-223.247 431.521,-228.302 441.952,-230.157 440.832,-223.247"/>
</g>
<!-- Node13 -->
<g id="node13" class="node"><title>Node13</title>
<g id="a_node13"><a xlink:href="_h_a_l___serial___i_f_8cpp.html" target="_top" xlink:title="Hardware Abstraction Layer (HAL) to serial interface. ">
<polygon fill="none" stroke="black" points="133,-112.5 133,-131.5 231,-131.5 231,-112.5 133,-112.5"/>
<text text-anchor="middle" x="182" y="-119.5" font-family="Helvetica,sans-Serif" font-size="10.00">HAL_Serial_IF.cpp</text>
</a>
</g>
</g>
<!-- Node1&#45;&gt;Node13 -->
<g id="edge34" class="edge"><title>Node1&#45;&gt;Node13</title>
<path fill="none" stroke="midnightblue" d="M350.246,-225.261C319.476,-218.641 278.872,-207.077 247,-188 221.53,-172.755 198.758,-145.35 188.209,-131.502"/>
<polygon fill="midnightblue" stroke="midnightblue" points="349.777,-228.737 360.277,-227.32 351.185,-221.88 349.777,-228.737"/>
</g>
<!-- Node14 -->
<g id="node14" class="node"><title>Node14</title>
<g id="a_node14"><a xlink:href="_comm___p_l_s_8h.html" target="_top" xlink:title="Comm_PLS.h">
<polygon fill="none" stroke="black" points="494.5,-168.5 494.5,-187.5 571.5,-187.5 571.5,-168.5 494.5,-168.5"/>
<text text-anchor="middle" x="533" y="-175.5" font-family="Helvetica,sans-Serif" font-size="10.00">Comm_PLS.h</text>
</a>
</g>
</g>
<!-- Node1&#45;&gt;Node14 -->
<g id="edge19" class="edge"><title>Node1&#45;&gt;Node14</title>
<path fill="none" stroke="midnightblue" d="M427.023,-220.772C452.757,-210.629 488.686,-196.467 511.394,-187.516"/>
<polygon fill="midnightblue" stroke="midnightblue" points="425.728,-217.52 417.708,-224.444 428.295,-224.033 425.728,-217.52"/>
</g>
<!-- Node15 -->
<g id="node15" class="node"><title>Node15</title>
<g id="a_node15"><a xlink:href="_comm___i_c_c_8h.html" target="_top" xlink:title="Communication file for Inter&#45;Controller Communication (ICC) ">
<polygon fill="none" stroke="black" points="0,-168.5 0,-187.5 74,-187.5 74,-168.5 0,-168.5"/>
<text text-anchor="middle" x="37" y="-175.5" font-family="Helvetica,sans-Serif" font-size="10.00">Comm_ICC.h</text>
</a>
</g>
</g>
<!-- Node1&#45;&gt;Node15 -->
<g id="edge23" class="edge"><title>Node1&#45;&gt;Node15</title>
<path fill="none" stroke="midnightblue" d="M350.152,-226.104C278.247,-215.288 140.353,-194.546 74.1983,-184.595"/>
<polygon fill="midnightblue" stroke="midnightblue" points="349.856,-229.598 360.265,-227.625 350.897,-222.676 349.856,-229.598"/>
</g>
<!-- Node16 -->
<g id="node16" class="node"><title>Node16</title>
<g id="a_node16"><a xlink:href="_o_s_a_l___task_ctrl_8h.html" target="_top" xlink:title="OSAL_TaskCtrl.h">
<polygon fill="none" stroke="black" points="799,-168.5 799,-187.5 891,-187.5 891,-168.5 799,-168.5"/>
<text text-anchor="middle" x="845" y="-175.5" font-family="Helvetica,sans-Serif" font-size="10.00">OSAL_TaskCtrl.h</text>
</a>
</g>
</g>
<!-- Node1&#45;&gt;Node16 -->
<g id="edge29" class="edge"><title>Node1&#45;&gt;Node16</title>
<path fill="none" stroke="midnightblue" d="M441.581,-227.518C527.498,-217.185 712.513,-194.934 798.859,-184.549"/>
<polygon fill="midnightblue" stroke="midnightblue" points="441.118,-224.048 431.608,-228.718 441.954,-230.998 441.118,-224.048"/>
</g>
<!-- Node18 -->
<g id="node18" class="node"><title>Node18</title>
<g id="a_node18"><a xlink:href="_h_a_l___p_w_m_8h.html" target="_top" xlink:title="Hardware Abstraction Layer (HAL) for the 10&#45;bit PWM outputs. ">
<polygon fill="none" stroke="black" points="256,-168.5 256,-187.5 330,-187.5 330,-168.5 256,-168.5"/>
<text text-anchor="middle" x="293" y="-175.5" font-family="Helvetica,sans-Serif" font-size="10.00">HAL_PWM.h</text>
</a>
</g>
</g>
<!-- Node1&#45;&gt;Node18 -->
<g id="edge32" class="edge"><title>Node1&#45;&gt;Node18</title>
<path fill="none" stroke="midnightblue" d="M370.421,-219.59C351.377,-209.605 325.936,-196.267 309.508,-187.655"/>
<polygon fill="midnightblue" stroke="midnightblue" points="368.969,-222.78 379.451,-224.324 372.22,-216.581 368.969,-222.78"/>
</g>
<!-- Node2&#45;&gt;Node3 -->
<g id="edge2" class="edge"><title>Node2&#45;&gt;Node3</title>
<path fill="none" stroke="midnightblue" d="M409.429,-160.22C420.954,-146.396 438.439,-126.742 456,-112 478.662,-92.976 490.312,-96.127 512,-76 530.853,-58.5041 547.665,-33.0321 555.81,-19.768"/>
<polygon fill="midnightblue" stroke="midnightblue" points="406.4,-158.395 402.776,-168.351 411.817,-162.828 406.4,-158.395"/>
</g>
<!-- Node2&#45;&gt;Node4 -->
<g id="edge3" class="edge"><title>Node2&#45;&gt;Node4</title>
<path fill="none" stroke="midnightblue" d="M343.099,-168.264C279.914,-157.83 175.246,-140.545 115.187,-130.627"/>
<polygon fill="midnightblue" stroke="midnightblue" points="342.814,-171.764 353.25,-169.94 343.954,-164.858 342.814,-171.764"/>
</g>
<!-- Node6 -->
<g id="node6" class="node"><title>Node6</title>
<g id="a_node6"><a xlink:href="_app___virtual_mapping_8cpp.html" target="_top" xlink:title="App_VirtualMapping.cpp">
<polygon fill="none" stroke="black" points="355,-0.5 355,-19.5 477,-19.5 477,-0.5 355,-0.5"/>
<text text-anchor="middle" x="416" y="-7.5" font-family="Helvetica,sans-Serif" font-size="10.00">App_VirtualMapping.cpp</text>
</a>
</g>
</g>
<!-- Node2&#45;&gt;Node6 -->
<g id="edge13" class="edge"><title>Node2&#45;&gt;Node6</title>
<path fill="none" stroke="midnightblue" d="M389.053,-158.574C381.011,-134.4 370.282,-90.9481 382,-56 386.856,-41.5174 398.419,-27.9752 406.712,-19.6053"/>
<polygon fill="midnightblue" stroke="midnightblue" points="385.832,-159.966 392.468,-168.225 392.431,-157.63 385.832,-159.966"/>
</g>
<!-- Node8 -->
<g id="node8" class="node"><title>Node8</title>
<g id="a_node8"><a xlink:href="_comm___i_c_c_8cpp.html" target="_top" xlink:title="Communication file for Inter&#45;Controller Communication (ICC) ">
<polygon fill="none" stroke="black" points="61.5,-56.5 61.5,-75.5 146.5,-75.5 146.5,-56.5 61.5,-56.5"/>
<text text-anchor="middle" x="104" y="-63.5" font-family="Helvetica,sans-Serif" font-size="10.00">Comm_ICC.cpp</text>
</a>
</g>
</g>
<!-- Node2&#45;&gt;Node8 -->
<g id="edge14" class="edge"><title>Node2&#45;&gt;Node8</title>
<path fill="none" stroke="midnightblue" d="M386.125,-159.307C376.767,-144.268 361.288,-123.359 342,-112 337.788,-109.519 214.058,-86.8882 146.708,-74.6973"/>
<polygon fill="midnightblue" stroke="midnightblue" points="383.27,-161.355 391.37,-168.184 389.296,-157.794 383.27,-161.355"/>
</g>
<!-- Node2&#45;&gt;Node9 -->
<g id="edge10" class="edge"><title>Node2&#45;&gt;Node9</title>
<path fill="none" stroke="midnightblue" d="M448.771,-166.713C501.134,-156.505 580.444,-141.043 629.363,-131.507"/>
<polygon fill="midnightblue" stroke="midnightblue" points="447.82,-163.332 438.674,-168.681 449.159,-170.203 447.82,-163.332"/>
</g>
<!-- Node11 -->
<g id="node11" class="node"><title>Node11</title>
<g id="a_node11"><a xlink:href="_comm___p_l_s_8cpp.html" target="_top" xlink:title="Comm_PLS.cpp">
<polygon fill="none" stroke="black" points="465,-112.5 465,-131.5 553,-131.5 553,-112.5 465,-112.5"/>
<text text-anchor="middle" x="509" y="-119.5" font-family="Helvetica,sans-Serif" font-size="10.00">Comm_PLS.cpp</text>
</a>
</g>
</g>
<!-- Node2&#45;&gt;Node11 -->
<g id="edge15" class="edge"><title>Node2&#45;&gt;Node11</title>
<path fill="none" stroke="midnightblue" d="M423.003,-164.096C444.114,-154.007 472.862,-140.27 491.179,-131.516"/>
<polygon fill="midnightblue" stroke="midnightblue" points="421.419,-160.974 413.905,-168.444 424.437,-167.29 421.419,-160.974"/>
</g>
<!-- Node12 -->
<g id="node12" class="node"><title>Node12</title>
<g id="a_node12"><a xlink:href="_h_a_l___p_w_m_8cpp.html" target="_top" xlink:title="Hardware Abstraction Layer (HAL) for the 10&#45;bit PWM outputs. ">
<polygon fill="none" stroke="black" points="249,-112.5 249,-131.5 333,-131.5 333,-112.5 249,-112.5"/>
<text text-anchor="middle" x="291" y="-119.5" font-family="Helvetica,sans-Serif" font-size="10.00">HAL_PWM.cpp</text>
</a>
</g>
</g>
<!-- Node2&#45;&gt;Node12 -->
<g id="edge16" class="edge"><title>Node2&#45;&gt;Node12</title>
<path fill="none" stroke="midnightblue" d="M370.19,-163.726C350.747,-153.727 324.652,-140.307 307.828,-131.655"/>
<polygon fill="midnightblue" stroke="midnightblue" points="368.636,-166.863 379.13,-168.324 371.838,-160.638 368.636,-166.863"/>
</g>
<!-- Node2&#45;&gt;Node13 -->
<g id="edge17" class="edge"><title>Node2&#45;&gt;Node13</title>
<path fill="none" stroke="midnightblue" d="M352.245,-165.959C311.826,-155.76 252.627,-140.822 215.75,-131.516"/>
<polygon fill="midnightblue" stroke="midnightblue" points="351.539,-169.39 362.091,-168.444 353.251,-162.603 351.539,-169.39"/>
</g>
<!-- Node4&#45;&gt;Node3 -->
<g id="edge4" class="edge"><title>Node4&#45;&gt;Node3</title>
<path fill="none" stroke="midnightblue" d="M56.7356,-103.688C48.1228,-89.2281 40.0765,-68.9535 52,-56 84.7707,-20.3985 437.859,-24.8834 486,-20 496.177,-18.9677 507.115,-17.7289 517.405,-16.5053"/>
<polygon fill="midnightblue" stroke="midnightblue" points="53.8912,-105.734 62.2729,-112.215 59.7619,-101.922 53.8912,-105.734"/>
</g>
<!-- Node5 -->
<g id="node5" class="node"><title>Node5</title>
<g id="a_node5"><a xlink:href="_app___virtual_mapping_8h.html" target="_top" xlink:title="App_VirtualMapping.h">
<polygon fill="none" stroke="black" points="391,-56.5 391,-75.5 503,-75.5 503,-56.5 391,-56.5"/>
<text text-anchor="middle" x="447" y="-63.5" font-family="Helvetica,sans-Serif" font-size="10.00">App_VirtualMapping.h</text>
</a>
</g>
</g>
<!-- Node4&#45;&gt;Node5 -->
<g id="edge5" class="edge"><title>Node4&#45;&gt;Node5</title>
<path fill="none" stroke="midnightblue" d="M125.109,-111.86C224.463,-96.8913 328.533,-82.7279 390.924,-74.401"/>
<polygon fill="midnightblue" stroke="midnightblue" points="124.565,-108.403 115.201,-113.358 125.612,-115.324 124.565,-108.403"/>
</g>
<!-- Node7 -->
<g id="node7" class="node"><title>Node7</title>
<g id="a_node7"><a xlink:href="_app___navigation_8cpp.html" target="_top" xlink:title="Application file for navigation. ">
<polygon fill="none" stroke="black" points="165,-56.5 165,-75.5 267,-75.5 267,-56.5 165,-56.5"/>
<text text-anchor="middle" x="216" y="-63.5" font-family="Helvetica,sans-Serif" font-size="10.00">App_Navigation.cpp</text>
</a>
</g>
</g>
<!-- Node4&#45;&gt;Node7 -->
<g id="edge8" class="edge"><title>Node4&#45;&gt;Node7</title>
<path fill="none" stroke="midnightblue" d="M101.923,-108.906C129.56,-98.7536 168.344,-84.5063 192.816,-75.5164"/>
<polygon fill="midnightblue" stroke="midnightblue" points="100.472,-105.71 92.2926,-112.444 102.886,-112.281 100.472,-105.71"/>
</g>
<!-- Node4&#45;&gt;Node8 -->
<g id="edge9" class="edge"><title>Node4&#45;&gt;Node8</title>
<path fill="none" stroke="midnightblue" d="M80.3001,-103.566C86.3219,-94.2747 93.4686,-83.2484 98.328,-75.7511"/>
<polygon fill="midnightblue" stroke="midnightblue" points="77.2815,-101.788 74.7795,-112.083 83.1556,-105.595 77.2815,-101.788"/>
</g>
<!-- Node5&#45;&gt;Node3 -->
<g id="edge6" class="edge"><title>Node5&#45;&gt;Node3</title>
<path fill="none" stroke="midnightblue" d="M474.242,-52.096C495.54,-42.0073 524.542,-28.2697 543.021,-19.5164"/>
<polygon fill="midnightblue" stroke="midnightblue" points="472.603,-48.9995 465.064,-56.4435 475.599,-55.3257 472.603,-48.9995"/>
</g>
<!-- Node5&#45;&gt;Node6 -->
<g id="edge7" class="edge"><title>Node5&#45;&gt;Node6</title>
<path fill="none" stroke="midnightblue" d="M436.824,-47.2747C431.526,-38.0454 425.283,-27.1703 421.024,-19.7511"/>
<polygon fill="midnightblue" stroke="midnightblue" points="433.867,-49.153 441.881,-56.083 439.938,-45.6679 433.867,-49.153"/>
</g>
<!-- Node9&#45;&gt;Node3 -->
<g id="edge11" class="edge"><title>Node9&#45;&gt;Node3</title>
<path fill="none" stroke="midnightblue" d="M691.372,-104.829C704.637,-91.1664 718.381,-71.417 707,-56 683.686,-24.4178 638.531,-14.3122 604.582,-11.4066"/>
<polygon fill="midnightblue" stroke="midnightblue" points="688.598,-102.64 683.81,-112.092 693.447,-107.689 688.598,-102.64"/>
</g>
<!-- Node10 -->
<g id="node10" class="node"><title>Node10</title>
<g id="a_node10"><a xlink:href="_app___environmental_data_8cpp.html" target="_top" xlink:title="Application file for environmental data. ">
<polygon fill="none" stroke="black" points="559.5,-56.5 559.5,-75.5 698.5,-75.5 698.5,-56.5 559.5,-56.5"/>
<text text-anchor="middle" x="629" y="-63.5" font-family="Helvetica,sans-Serif" font-size="10.00">App_EnvironmentalData.cpp</text>
</a>
</g>
</g>
<!-- Node9&#45;&gt;Node10 -->
<g id="edge12" class="edge"><title>Node9&#45;&gt;Node10</title>
<path fill="none" stroke="midnightblue" d="M659.265,-104.144C651.599,-94.7357 642.367,-83.4046 636.131,-75.7511"/>
<polygon fill="midnightblue" stroke="midnightblue" points="656.704,-106.541 665.734,-112.083 662.131,-102.12 656.704,-106.541"/>
</g>
<!-- Node14&#45;&gt;Node3 -->
<g id="edge20" class="edge"><title>Node14&#45;&gt;Node3</title>
<path fill="none" stroke="midnightblue" d="M581.721,-173.66C638.072,-168.664 725.72,-157.012 746,-132 762.68,-111.428 741.595,-71.8388 724,-56 691.162,-26.4402 640.599,-16.0835 604.501,-12.5677"/>
<polygon fill="midnightblue" stroke="midnightblue" points="581.256,-170.187 571.587,-174.517 581.846,-177.162 581.256,-170.187"/>
</g>
<!-- Node14&#45;&gt;Node5 -->
<g id="edge21" class="edge"><title>Node14&#45;&gt;Node5</title>
<path fill="none" stroke="midnightblue" d="M549.389,-160.414C560.843,-146.748 572.384,-127.214 562,-112 548.645,-92.4327 525.393,-81.3734 503.276,-75.1229"/>
<polygon fill="midnightblue" stroke="midnightblue" points="546.575,-158.307 542.465,-168.073 551.768,-163.001 546.575,-158.307"/>
</g>
<!-- Node14&#45;&gt;Node11 -->
<g id="edge22" class="edge"><title>Node14&#45;&gt;Node11</title>
<path fill="none" stroke="midnightblue" d="M524.862,-158.69C520.817,-149.589 516.117,-139.014 512.889,-131.751"/>
<polygon fill="midnightblue" stroke="midnightblue" points="521.777,-160.366 529.037,-168.083 528.174,-157.523 521.777,-160.366"/>
</g>
<!-- Node15&#45;&gt;Node3 -->
<g id="edge24" class="edge"><title>Node15&#45;&gt;Node3</title>
<path fill="none" stroke="midnightblue" d="M22.5011,-160.398C16.4523,-152.388 10.1171,-142.295 7,-132 -3.77636,-96.4081 10.2298,-75.328 42,-56 126.57,-4.55036 387.506,-29.899 486,-20 496.178,-18.9771 507.116,-17.742 517.407,-16.519"/>
<polygon fill="midnightblue" stroke="midnightblue" points="19.7813,-162.601 28.7864,-168.182 25.2277,-158.203 19.7813,-162.601"/>
</g>
<!-- Node15&#45;&gt;Node4 -->
<g id="edge25" class="edge"><title>Node15&#45;&gt;Node4</title>
<path fill="none" stroke="midnightblue" d="M47.5039,-159.275C52.9731,-150.045 59.4176,-139.17 63.8142,-131.751"/>
<polygon fill="midnightblue" stroke="midnightblue" points="44.3712,-157.696 42.2841,-168.083 50.3932,-161.264 44.3712,-157.696"/>
</g>
<!-- Node15&#45;&gt;Node8 -->
<g id="edge26" class="edge"><title>Node15&#45;&gt;Node8</title>
<path fill="none" stroke="midnightblue" d="M23.4467,-160.46C13.9903,-146.78 4.60447,-127.202 14,-112 25.572,-93.2761 47.5552,-82.0823 66.8978,-75.5421"/>
<polygon fill="midnightblue" stroke="midnightblue" points="20.6728,-162.594 29.4745,-168.492 26.2716,-158.393 20.6728,-162.594"/>
</g>
<!-- Node16&#45;&gt;Node3 -->
<g id="edge30" class="edge"><title>Node16&#45;&gt;Node3</title>
<path fill="none" stroke="midnightblue" d="M872.608,-163.691C894.692,-151.186 919.852,-131.524 906,-112 870.835,-62.4358 689.512,-29.8312 604.759,-17.0666"/>
<polygon fill="midnightblue" stroke="midnightblue" points="870.924,-160.622 863.765,-168.432 874.232,-166.791 870.924,-160.622"/>
</g>
<!-- Node17 -->
<g id="node17" class="node"><title>Node17</title>
<g id="a_node17"><a xlink:href="_o_s_a_l___task_ctrl_8cpp.html" target="_top" xlink:title="OSAL_TaskCtrl.cpp">
<polygon fill="none" stroke="black" points="793.5,-112.5 793.5,-131.5 896.5,-131.5 896.5,-112.5 793.5,-112.5"/>
<text text-anchor="middle" x="845" y="-119.5" font-family="Helvetica,sans-Serif" font-size="10.00">OSAL_TaskCtrl.cpp</text>
</a>
</g>
</g>
<!-- Node16&#45;&gt;Node17 -->
<g id="edge31" class="edge"><title>Node16&#45;&gt;Node17</title>
<path fill="none" stroke="midnightblue" d="M845,-157.805C845,-148.91 845,-138.78 845,-131.751"/>
<polygon fill="midnightblue" stroke="midnightblue" points="841.5,-158.083 845,-168.083 848.5,-158.083 841.5,-158.083"/>
</g>
<!-- Node18&#45;&gt;Node12 -->
<g id="edge33" class="edge"><title>Node18&#45;&gt;Node12</title>
<path fill="none" stroke="midnightblue" d="M292.289,-157.805C291.96,-148.91 291.584,-138.78 291.324,-131.751"/>
<polygon fill="midnightblue" stroke="midnightblue" points="288.802,-158.219 292.67,-168.083 295.797,-157.96 288.802,-158.219"/>
</g>
</g>
</svg>
