<?xml version="1.0" encoding="UTF-8" standalone="no"?>
<!DOCTYPE svg PUBLIC "-//W3C//DTD SVG 1.1//EN"
 "http://www.w3.org/Graphics/SVG/1.1/DTD/svg11.dtd">
<!-- Generated by graphviz version 2.38.0 (20140413.2041)
 -->
<!-- Title: ADAS_Cfg.h Pages: 1 -->
<!--zoomable 252 -->
<svg id="main" version="1.1" xmlns="http://www.w3.org/2000/svg" xmlns:xlink="http://www.w3.org/1999/xlink" xml:space="preserve" onload="init(evt)">
<style type="text/css"><![CDATA[
.edge:hover path { stroke: red; }
.edge:hover polygon { stroke: red; fill: red; }
]]></style>
<script type="text/javascript"><![CDATA[
var edges = document.getElementsByTagName('g');
if (edges && edges.length) {
  for (var i=0;i<edges.length;i++) {
    if (edges[i].id.substr(0,4)=='edge') {
      edges[i].setAttribute('class','edge');
    }
  }
}
]]></script>
        <defs>
                <circle id="rim" cx="0" cy="0" r="7"/>
                <circle id="rim2" cx="0" cy="0" r="3.5"/>
                <g id="zoomPlus">
                        <use xlink:href="#rim" fill="#404040">
                                <set attributeName="fill" to="#808080" begin="zoomplus.mouseover" end="zoomplus.mouseout"/>
                        </use>
                        <path d="M-4,0h8M0,-4v8" fill="none" stroke="white" stroke-width="1.5" pointer-events="none"/>
                </g>
                <g id="zoomMin">
                        <use xlink:href="#rim" fill="#404040">
                                <set attributeName="fill" to="#808080" begin="zoomminus.mouseover" end="zoomminus.mouseout"/>
                        </use>
                        <path d="M-4,0h8" fill="none" stroke="white" stroke-width="1.5" pointer-events="none"/>
                </g>
                <g id="dirArrow">
                        <path fill="none" stroke="white" stroke-width="1.5" d="M0,-3.0v7 M-2.5,-0.5L0,-3.0L2.5,-0.5"/>
                </g>
               <g id="resetDef">
                       <use xlink:href="#rim2" fill="#404040">
                               <set attributeName="fill" to="#808080" begin="reset.mouseover" end="reset.mouseout"/>
                       </use>
               </g>
        </defs>

<script type="text/javascript">
var viewWidth = 884;
var viewHeight = 252;
var sectionId = 'dynsection-0';
</script>
<script xlink:href="svgpan.js"/>
<svg id="graph" class="graph">
<g id="viewport">
<title>ADAS_Cfg.h</title>
<!-- Node1 -->
<g id="node1" class="node"><title>Node1</title>
<g id="a_node1"><a xlink:title="This file contains the configuration of the vehicle.">
<polygon fill="#bfbfbf" stroke="black" points="368.276,-224.5 368.276,-243.5 439.276,-243.5 439.276,-224.5 368.276,-224.5"/>
<text text-anchor="middle" x="403.776" y="-231.5" font-family="Helvetica,sans-Serif" font-size="10.00">ADAS_Cfg.h</text>
</a>
</g>
</g>
<!-- Node2 -->
<g id="node2" class="node"><title>Node2</title>
<g id="a_node2"><a xlink:href="_a_d_a_s___debug_8h.html" target="_top" xlink:title="This file contains redefinition of the serial functions for debugging purpose.">
<polygon fill="none" stroke="black" points="303.276,-168.5 303.276,-187.5 388.276,-187.5 388.276,-168.5 303.276,-168.5"/>
<text text-anchor="middle" x="345.776" y="-175.5" font-family="Helvetica,sans-Serif" font-size="10.00">ADAS_Debug.h</text>
</a>
</g>
</g>
<!-- Node1&#45;&gt;Node2 -->
<g id="edge1" class="edge"><title>Node1&#45;&gt;Node2</title>
<path fill="none" stroke="midnightblue" d="M386.863,-217.253C376.573,-207.673 363.81,-195.791 355.264,-187.834"/>
<polygon fill="midnightblue" stroke="midnightblue" points="384.753,-220.071 394.457,-224.324 389.523,-214.948 384.753,-220.071"/>
</g>
<!-- Node3 -->
<g id="node3" class="node"><title>Node3</title>
<g id="a_node3"><a xlink:href="_a_d_a_s___nav_u_8ino.html" target="_top" xlink:title="Main file for the NavU of the ADAS project.">
<polygon fill="none" stroke="black" points="438.276,-0.5 438.276,-19.5 525.276,-19.5 525.276,-0.5 438.276,-0.5"/>
<text text-anchor="middle" x="481.776" y="-7.5" font-family="Helvetica,sans-Serif" font-size="10.00">ADAS_NavU.ino</text>
</a>
</g>
</g>
<!-- Node1&#45;&gt;Node3 -->
<g id="edge17" class="edge"><title>Node1&#45;&gt;Node3</title>
<path fill="none" stroke="midnightblue" d="M449.524,-230.294C537.41,-224.661 726.571,-210.314 787.776,-188 830.279,-172.504 851.32,-171.828 872.776,-132 907.402,-67.7211 634.483,-28.6697 525.461,-15.764"/>
<polygon fill="midnightblue" stroke="midnightblue" points="449.083,-226.815 439.323,-230.938 449.524,-233.801 449.083,-226.815"/>
</g>
<!-- Node4 -->
<g id="node4" class="node"><title>Node4</title>
<g id="a_node4"><a xlink:href="_app___navigation_8h.html" target="_top" xlink:title="Application file for navigation.">
<polygon fill="none" stroke="black" points="54.7757,-112.5 54.7757,-131.5 146.776,-131.5 146.776,-112.5 54.7757,-112.5"/>
<text text-anchor="middle" x="100.776" y="-119.5" font-family="Helvetica,sans-Serif" font-size="10.00">App_Navigation.h</text>
</a>
</g>
</g>
<!-- Node1&#45;&gt;Node4 -->
<g id="edge26" class="edge"><title>Node1&#45;&gt;Node4</title>
<path fill="none" stroke="midnightblue" d="M365.361,-221.565C336.866,-212.884 297.166,-200.369 262.776,-188 211.019,-169.385 151.221,-144.493 120.8,-131.581"/>
<polygon fill="midnightblue" stroke="midnightblue" points="364.36,-224.919 374.945,-224.469 366.39,-218.22 364.36,-224.919"/>
</g>
<!-- Node9 -->
<g id="node9" class="node"><title>Node9</title>
<g id="a_node9"><a xlink:href="_app___environmental_data_8h.html" target="_top" xlink:title="Application file for environmental data.">
<polygon fill="none" stroke="black" points="538.776,-112.5 538.776,-131.5 666.776,-131.5 666.776,-112.5 538.776,-112.5"/>
<text text-anchor="middle" x="602.776" y="-119.5" font-family="Helvetica,sans-Serif" font-size="10.00">App_EnvironmentalData.h</text>
</a>
</g>
</g>
<!-- Node1&#45;&gt;Node9 -->
<g id="edge27" class="edge"><title>Node1&#45;&gt;Node9</title>
<path fill="none" stroke="midnightblue" d="M437.588,-220.729C458.835,-212.515 486.524,-200.876 509.776,-188 541.311,-170.536 575.284,-144.825 592.095,-131.582"/>
<polygon fill="midnightblue" stroke="midnightblue" points="436.126,-217.54 428.022,-224.365 438.613,-224.084 436.126,-217.54"/>
</g>
<!-- Node12 -->
<g id="node12" class="node"><title>Node12</title>
<g id="a_node12"><a xlink:href="_h_a_l___serial___i_f_8cpp.html" target="_top" xlink:title="Hardware Abstraction Layer (HAL) to serial interface.">
<polygon fill="none" stroke="black" points="164.776,-112.5 164.776,-131.5 262.776,-131.5 262.776,-112.5 164.776,-112.5"/>
<text text-anchor="middle" x="213.776" y="-119.5" font-family="Helvetica,sans-Serif" font-size="10.00">HAL_Serial_IF.cpp</text>
</a>
</g>
</g>
<!-- Node1&#45;&gt;Node12 -->
<g id="edge31" class="edge"><title>Node1&#45;&gt;Node12</title>
<path fill="none" stroke="midnightblue" d="M366.871,-220.986C344.886,-213.087 316.861,-201.691 293.776,-188 265.454,-171.203 236.517,-144.973 222.48,-131.547"/>
<polygon fill="midnightblue" stroke="midnightblue" points="365.913,-224.359 376.508,-224.364 368.229,-217.753 365.913,-224.359"/>
</g>
<!-- Node13 -->
<g id="node13" class="node"><title>Node13</title>
<g id="a_node13"><a xlink:href="_comm___p_l_s_8h.html" target="_top" xlink:title=" ">
<polygon fill="none" stroke="black" points="424.276,-168.5 424.276,-187.5 501.276,-187.5 501.276,-168.5 424.276,-168.5"/>
<text text-anchor="middle" x="462.776" y="-175.5" font-family="Helvetica,sans-Serif" font-size="10.00">Comm_PLS.h</text>
</a>
</g>
</g>
<!-- Node1&#45;&gt;Node13 -->
<g id="edge18" class="edge"><title>Node1&#45;&gt;Node13</title>
<path fill="none" stroke="midnightblue" d="M420.67,-217.537C431.19,-207.909 444.344,-195.869 453.124,-187.834"/>
<polygon fill="midnightblue" stroke="midnightblue" points="418.269,-214.99 413.255,-224.324 422.995,-220.154 418.269,-214.99"/>
</g>
<!-- Node14 -->
<g id="node14" class="node"><title>Node14</title>
<g id="a_node14"><a xlink:href="_comm___i_c_c_8h.html" target="_top" xlink:title="Communication file for Inter&#45;Controller Communication (ICC)">
<polygon fill="none" stroke="black" points="31.7757,-168.5 31.7757,-187.5 105.776,-187.5 105.776,-168.5 31.7757,-168.5"/>
<text text-anchor="middle" x="68.7757" y="-175.5" font-family="Helvetica,sans-Serif" font-size="10.00">Comm_ICC.h</text>
</a>
</g>
</g>
<!-- Node1&#45;&gt;Node14 -->
<g id="edge22" class="edge"><title>Node1&#45;&gt;Node14</title>
<path fill="none" stroke="midnightblue" d="M357.999,-225.621C291.047,-214.829 167.692,-194.945 105.98,-184.997"/>
<polygon fill="midnightblue" stroke="midnightblue" points="357.812,-229.136 368.242,-227.272 358.926,-222.225 357.812,-229.136"/>
</g>
<!-- Node15 -->
<g id="node15" class="node"><title>Node15</title>
<g id="a_node15"><a xlink:href="_o_s_a_l___task_ctrl_8h.html" target="_top" xlink:title="Task controller header file.">
<polygon fill="none" stroke="black" points="686.776,-168.5 686.776,-187.5 778.776,-187.5 778.776,-168.5 686.776,-168.5"/>
<text text-anchor="middle" x="732.776" y="-175.5" font-family="Helvetica,sans-Serif" font-size="10.00">OSAL_TaskCtrl.h</text>
</a>
</g>
</g>
<!-- Node1&#45;&gt;Node15 -->
<g id="edge28" class="edge"><title>Node1&#45;&gt;Node15</title>
<path fill="none" stroke="midnightblue" d="M449.266,-225.533C511.811,-215.268 623.741,-196.896 686.629,-186.574"/>
<polygon fill="midnightblue" stroke="midnightblue" points="448.598,-222.096 439.297,-227.17 449.732,-229.004 448.598,-222.096"/>
</g>
<!-- Node2&#45;&gt;Node3 -->
<g id="edge2" class="edge"><title>Node2&#45;&gt;Node3</title>
<path fill="none" stroke="midnightblue" d="M354.297,-159.355C361.493,-145.543 372.698,-126.337 385.776,-112 403.746,-92.2981 414.99,-94.9261 433.776,-76 451.762,-57.8798 468.435,-32.6712 476.571,-19.6115"/>
<polygon fill="midnightblue" stroke="midnightblue" points="351.159,-157.806 349.797,-168.313 357.414,-160.948 351.159,-157.806"/>
</g>
<!-- Node2&#45;&gt;Node4 -->
<g id="edge3" class="edge"><title>Node2&#45;&gt;Node4</title>
<path fill="none" stroke="midnightblue" d="M297.145,-166.281C250.847,-156.077 182.081,-140.92 139.415,-131.516"/>
<polygon fill="midnightblue" stroke="midnightblue" points="296.436,-169.709 306.955,-168.444 297.943,-162.873 296.436,-169.709"/>
</g>
<!-- Node6 -->
<g id="node6" class="node"><title>Node6</title>
<g id="a_node6"><a xlink:href="_app___virtual_mapping_8cpp.html" target="_top" xlink:title="Virtual mapping application source file.">
<polygon fill="none" stroke="black" points="256.776,-0.5 256.776,-19.5 378.776,-19.5 378.776,-0.5 256.776,-0.5"/>
<text text-anchor="middle" x="317.776" y="-7.5" font-family="Helvetica,sans-Serif" font-size="10.00">App_VirtualMapping.cpp</text>
</a>
</g>
</g>
<!-- Node2&#45;&gt;Node6 -->
<g id="edge13" class="edge"><title>Node2&#45;&gt;Node6</title>
<path fill="none" stroke="midnightblue" d="M333.589,-160.182C313.257,-132.085 274.549,-78.4175 273.776,-76 271.067,-67.5339 270.42,-64.2312 273.776,-56 280.045,-40.6205 294.381,-27.6399 304.995,-19.6314"/>
<polygon fill="midnightblue" stroke="midnightblue" points="330.773,-162.261 339.473,-168.308 336.443,-158.155 330.773,-162.261"/>
</g>
<!-- Node8 -->
<g id="node8" class="node"><title>Node8</title>
<g id="a_node8"><a xlink:href="_comm___i_c_c_8cpp.html" target="_top" xlink:title="Communication file for Inter&#45;Controller Communication (ICC)">
<polygon fill="none" stroke="black" points="139.276,-56.5 139.276,-75.5 224.276,-75.5 224.276,-56.5 139.276,-56.5"/>
<text text-anchor="middle" x="181.776" y="-63.5" font-family="Helvetica,sans-Serif" font-size="10.00">Comm_ICC.cpp</text>
</a>
</g>
</g>
<!-- Node2&#45;&gt;Node8 -->
<g id="edge14" class="edge"><title>Node2&#45;&gt;Node8</title>
<path fill="none" stroke="midnightblue" d="M330.178,-161.147C315.839,-147.119 293.563,-126.657 271.776,-112 249.454,-96.9834 221.419,-83.7491 202.623,-75.587"/>
<polygon fill="midnightblue" stroke="midnightblue" points="327.714,-163.633 337.274,-168.201 332.649,-158.668 327.714,-163.633"/>
</g>
<!-- Node2&#45;&gt;Node9 -->
<g id="edge10" class="edge"><title>Node2&#45;&gt;Node9</title>
<path fill="none" stroke="midnightblue" d="M396.483,-166.346C445.051,-156.141 517.395,-140.94 562.244,-131.516"/>
<polygon fill="midnightblue" stroke="midnightblue" points="395.565,-162.962 386.498,-168.444 397.004,-169.812 395.565,-162.962"/>
</g>
<!-- Node11 -->
<g id="node11" class="node"><title>Node11</title>
<g id="a_node11"><a xlink:href="_comm___p_l_s_8cpp.html" target="_top" xlink:title=" ">
<polygon fill="none" stroke="black" points="394.776,-112.5 394.776,-131.5 482.776,-131.5 482.776,-112.5 394.776,-112.5"/>
<text text-anchor="middle" x="438.776" y="-119.5" font-family="Helvetica,sans-Serif" font-size="10.00">Comm_PLS.cpp</text>
</a>
</g>
</g>
<!-- Node2&#45;&gt;Node11 -->
<g id="edge15" class="edge"><title>Node2&#45;&gt;Node11</title>
<path fill="none" stroke="midnightblue" d="M369.581,-163.177C386.695,-153.241 409.241,-140.149 423.871,-131.655"/>
<polygon fill="midnightblue" stroke="midnightblue" points="367.608,-160.276 360.718,-168.324 371.123,-166.329 367.608,-160.276"/>
</g>
<!-- Node2&#45;&gt;Node12 -->
<g id="edge16" class="edge"><title>Node2&#45;&gt;Node12</title>
<path fill="none" stroke="midnightblue" d="M315.557,-164.638C290.786,-154.504 256.376,-140.427 234.594,-131.516"/>
<polygon fill="midnightblue" stroke="midnightblue" points="314.279,-167.897 324.86,-168.444 316.93,-161.418 314.279,-167.897"/>
</g>
<!-- Node4&#45;&gt;Node3 -->
<g id="edge4" class="edge"><title>Node4&#45;&gt;Node3</title>
<path fill="none" stroke="midnightblue" d="M156.883,-111.921C267.952,-96.4413 304.934,-120.074 403.776,-76 433.72,-62.6474 461.327,-34.3848 474.186,-19.927"/>
<polygon fill="midnightblue" stroke="midnightblue" points="156.364,-108.46 146.98,-113.377 157.382,-115.386 156.364,-108.46"/>
</g>
<!-- Node5 -->
<g id="node5" class="node"><title>Node5</title>
<g id="a_node5"><a xlink:href="_app___virtual_mapping_8h.html" target="_top" xlink:title="Virtual mapping application header file.">
<polygon fill="none" stroke="black" points="282.776,-56.5 282.776,-75.5 394.776,-75.5 394.776,-56.5 282.776,-56.5"/>
<text text-anchor="middle" x="338.776" y="-63.5" font-family="Helvetica,sans-Serif" font-size="10.00">App_VirtualMapping.h</text>
</a>
</g>
</g>
<!-- Node4&#45;&gt;Node5 -->
<g id="edge5" class="edge"><title>Node4&#45;&gt;Node5</title>
<path fill="none" stroke="midnightblue" d="M148.3,-110.217C193.272,-100.013 259.881,-84.9006 301.24,-75.5164"/>
<polygon fill="midnightblue" stroke="midnightblue" points="147.465,-106.818 138.488,-112.444 149.014,-113.644 147.465,-106.818"/>
</g>
<!-- Node7 -->
<g id="node7" class="node"><title>Node7</title>
<g id="a_node7"><a xlink:href="_app___navigation_8cpp.html" target="_top" xlink:title="Application file for navigation.">
<polygon fill="none" stroke="black" points="18.7757,-56.5 18.7757,-75.5 120.776,-75.5 120.776,-56.5 18.7757,-56.5"/>
<text text-anchor="middle" x="69.7757" y="-63.5" font-family="Helvetica,sans-Serif" font-size="10.00">App_Navigation.cpp</text>
</a>
</g>
</g>
<!-- Node4&#45;&gt;Node7 -->
<g id="edge8" class="edge"><title>Node4&#45;&gt;Node7</title>
<path fill="none" stroke="midnightblue" d="M90.6001,-103.275C85.3018,-94.0454 79.0587,-83.1703 74.7995,-75.7511"/>
<polygon fill="midnightblue" stroke="midnightblue" points="87.6426,-105.153 95.6567,-112.083 93.7134,-101.668 87.6426,-105.153"/>
</g>
<!-- Node4&#45;&gt;Node8 -->
<g id="edge9" class="edge"><title>Node4&#45;&gt;Node8</title>
<path fill="none" stroke="midnightblue" d="M122.343,-106.622C137.14,-96.7574 156.288,-83.9919 168.794,-75.6545"/>
<polygon fill="midnightblue" stroke="midnightblue" points="120.169,-103.865 113.79,-112.324 124.052,-109.689 120.169,-103.865"/>
</g>
<!-- Node5&#45;&gt;Node3 -->
<g id="edge6" class="edge"><title>Node5&#45;&gt;Node3</title>
<path fill="none" stroke="midnightblue" d="M370.803,-52.9058C397.688,-42.7536 435.416,-28.5063 459.223,-19.5164"/>
<polygon fill="midnightblue" stroke="midnightblue" points="369.553,-49.6364 361.434,-56.4435 372.026,-56.1851 369.553,-49.6364"/>
</g>
<!-- Node5&#45;&gt;Node6 -->
<g id="edge7" class="edge"><title>Node5&#45;&gt;Node6</title>
<path fill="none" stroke="midnightblue" d="M331.655,-46.6897C328.116,-37.589 324.003,-27.0141 321.179,-19.7511"/>
<polygon fill="midnightblue" stroke="midnightblue" points="328.421,-48.0315 335.308,-56.083 334.945,-45.4944 328.421,-48.0315"/>
</g>
<!-- Node9&#45;&gt;Node3 -->
<g id="edge11" class="edge"><title>Node9&#45;&gt;Node3</title>
<path fill="none" stroke="midnightblue" d="M620.769,-105.235C634.208,-91.5287 648.411,-71.4932 636.776,-56 623.357,-38.131 566.49,-25.06 525.525,-17.7448"/>
<polygon fill="midnightblue" stroke="midnightblue" points="617.975,-103.062 613.145,-112.492 622.801,-108.133 617.975,-103.062"/>
</g>
<!-- Node10 -->
<g id="node10" class="node"><title>Node10</title>
<g id="a_node10"><a xlink:href="_app___environmental_data_8cpp.html" target="_top" xlink:title="Application file for environmental data.">
<polygon fill="none" stroke="black" points="489.276,-56.5 489.276,-75.5 628.276,-75.5 628.276,-56.5 489.276,-56.5"/>
<text text-anchor="middle" x="558.776" y="-63.5" font-family="Helvetica,sans-Serif" font-size="10.00">App_EnvironmentalData.cpp</text>
</a>
</g>
</g>
<!-- Node9&#45;&gt;Node10 -->
<g id="edge12" class="edge"><title>Node9&#45;&gt;Node10</title>
<path fill="none" stroke="midnightblue" d="M589.041,-104.144C581.375,-94.7357 572.142,-83.4046 565.906,-75.7511"/>
<polygon fill="midnightblue" stroke="midnightblue" points="586.48,-106.541 595.51,-112.083 591.907,-102.12 586.48,-106.541"/>
</g>
<!-- Node13&#45;&gt;Node3 -->
<g id="edge19" class="edge"><title>Node13&#45;&gt;Node3</title>
<path fill="none" stroke="midnightblue" d="M511.497,-173.66C567.848,-168.664 655.496,-157.012 675.776,-132 692.489,-111.387 671.471,-71.7148 653.776,-56 618.349,-24.5392 563.567,-14.6279 525.379,-11.7346"/>
<polygon fill="midnightblue" stroke="midnightblue" points="511.032,-170.187 501.363,-174.517 511.622,-177.162 511.032,-170.187"/>
</g>
<!-- Node13&#45;&gt;Node5 -->
<g id="edge20" class="edge"><title>Node13&#45;&gt;Node5</title>
<path fill="none" stroke="midnightblue" d="M479.117,-160.628C490.901,-146.796 502.933,-126.912 491.776,-112 479.501,-95.5951 430.282,-83.1181 390.938,-75.5103"/>
<polygon fill="midnightblue" stroke="midnightblue" points="476.204,-158.626 472.022,-168.36 481.362,-163.359 476.204,-158.626"/>
</g>
<!-- Node13&#45;&gt;Node11 -->
<g id="edge21" class="edge"><title>Node13&#45;&gt;Node11</title>
<path fill="none" stroke="midnightblue" d="M454.638,-158.69C450.593,-149.589 445.893,-139.014 442.665,-131.751"/>
<polygon fill="midnightblue" stroke="midnightblue" points="451.553,-160.366 458.813,-168.083 457.95,-157.523 451.553,-160.366"/>
</g>
<!-- Node14&#45;&gt;Node3 -->
<g id="edge23" class="edge"><title>Node14&#45;&gt;Node3</title>
<path fill="none" stroke="midnightblue" d="M50.9123,-161.573C24.3938,-136.868 -19.2922,-87.9678 9.77572,-56 38.1592,-24.7849 345.777,-24.0105 387.776,-20 404.259,-18.426 422.367,-16.6931 438.253,-15.1717"/>
<polygon fill="midnightblue" stroke="midnightblue" points="48.7241,-164.312 58.4915,-168.417 53.4157,-159.117 48.7241,-164.312"/>
</g>
<!-- Node14&#45;&gt;Node4 -->
<g id="edge24" class="edge"><title>Node14&#45;&gt;Node4</title>
<path fill="none" stroke="midnightblue" d="M79.2796,-159.275C84.7488,-150.045 91.1933,-139.17 95.5899,-131.751"/>
<polygon fill="midnightblue" stroke="midnightblue" points="76.1469,-157.696 74.0599,-168.083 82.169,-161.264 76.1469,-157.696"/>
</g>
<!-- Node14&#45;&gt;Node8 -->
<g id="edge25" class="edge"><title>Node14&#45;&gt;Node8</title>
<path fill="none" stroke="midnightblue" d="M54.6648,-160.086C44.874,-146.183 35.3102,-126.486 45.7757,-112 56.9536,-96.5275 103.623,-83.431 139.203,-75.424"/>
<polygon fill="midnightblue" stroke="midnightblue" points="52.0693,-162.454 60.9233,-168.273 57.6304,-158.203 52.0693,-162.454"/>
</g>
<!-- Node15&#45;&gt;Node3 -->
<g id="edge29" class="edge"><title>Node15&#45;&gt;Node3</title>
<path fill="none" stroke="midnightblue" d="M729.311,-158.393C723.306,-131.548 708.342,-82.2941 675.776,-56 632.869,-21.3566 568.12,-12.4137 525.402,-10.5942"/>
<polygon fill="midnightblue" stroke="midnightblue" points="725.924,-159.301 731.361,-168.395 732.782,-157.896 725.924,-159.301"/>
</g>
<!-- Node16 -->
<g id="node16" class="node"><title>Node16</title>
<g id="a_node16"><a xlink:href="_o_s_a_l___task_ctrl_8cpp.html" target="_top" xlink:title="Task controller source file.">
<polygon fill="none" stroke="black" points="761.276,-112.5 761.276,-131.5 864.276,-131.5 864.276,-112.5 761.276,-112.5"/>
<text text-anchor="middle" x="812.776" y="-119.5" font-family="Helvetica,sans-Serif" font-size="10.00">OSAL_TaskCtrl.cpp</text>
</a>
</g>
</g>
<!-- Node15&#45;&gt;Node16 -->
<g id="edge30" class="edge"><title>Node15&#45;&gt;Node16</title>
<path fill="none" stroke="midnightblue" d="M754.076,-162.622C768.691,-152.757 787.603,-139.992 799.954,-131.655"/>
<polygon fill="midnightblue" stroke="midnightblue" points="751.959,-159.828 745.629,-168.324 755.876,-165.63 751.959,-159.828"/>
</g>
</g>
</svg>
        <g id="navigator" transform="translate(0 0)" fill="#404254">
                <rect fill="#f2f5e9" fill-opacity="0.5" stroke="#606060" stroke-width=".5" x="0" y="0" width="60" height="60"/>
                <use id="zoomplus" xlink:href="#zoomPlus" x="17" y="9" onmousedown="handleZoom(evt,'in')"/>
                <use id="zoomminus" xlink:href="#zoomMin" x="42" y="9" onmousedown="handleZoom(evt,'out')"/>
                <use id="reset" xlink:href="#resetDef" x="30" y="36" onmousedown="handleReset()"/>
                <g id="arrowUp" xlink:href="#dirArrow" transform="translate(30 24)" onmousedown="handlePan(0,-1)">
                  <use xlink:href="#rim" fill="#404040">
                        <set attributeName="fill" to="#808080" begin="arrowUp.mouseover" end="arrowUp.mouseout"/>
                  </use>
                  <path fill="none" stroke="white" stroke-width="1.5" d="M0,-3.0v7 M-2.5,-0.5L0,-3.0L2.5,-0.5"/>
                </g>
                <g id="arrowRight" xlink:href="#dirArrow" transform="rotate(90) translate(36 -43)" onmousedown="handlePan(1,0)">
                  <use xlink:href="#rim" fill="#404040">
                        <set attributeName="fill" to="#808080" begin="arrowRight.mouseover" end="arrowRight.mouseout"/>
                  </use>
                  <path fill="none" stroke="white" stroke-width="1.5" d="M0,-3.0v7 M-2.5,-0.5L0,-3.0L2.5,-0.5"/>
                </g>
                <g id="arrowDown" xlink:href="#dirArrow" transform="rotate(180) translate(-30 -48)" onmousedown="handlePan(0,1)">
                  <use xlink:href="#rim" fill="#404040">
                        <set attributeName="fill" to="#808080" begin="arrowDown.mouseover" end="arrowDown.mouseout"/>
                  </use>
                  <path fill="none" stroke="white" stroke-width="1.5" d="M0,-3.0v7 M-2.5,-0.5L0,-3.0L2.5,-0.5"/>
                </g>
                <g id="arrowLeft" xlink:href="#dirArrow" transform="rotate(270) translate(-36 17)" onmousedown="handlePan(-1,0)">
                  <use xlink:href="#rim" fill="#404040">
                        <set attributeName="fill" to="#808080" begin="arrowLeft.mouseover" end="arrowLeft.mouseout"/>
                  </use>
                  <path fill="none" stroke="white" stroke-width="1.5" d="M0,-3.0v7 M-2.5,-0.5L0,-3.0L2.5,-0.5"/>
                </g>
        </g>
        <svg viewBox="0 0 15 15" width="100%" height="30px" preserveAspectRatio="xMaxYMin meet">
         <g id="arrow_out" transform="scale(0.3 0.3)">
          <a xlink:href="_a_d_a_s___cfg_8h__dep__incl_org.svg" target="_base">
           <rect id="button" ry="5" rx="5" y="6" x="6" height="38" width="38"
                fill="#f2f5e9" fill-opacity="0.5" stroke="#606060" stroke-width="1.0"/>
           <path id="arrow"
             d="M 11.500037,31.436501 C 11.940474,20.09759 22.043105,11.32322 32.158766,21.979434 L 37.068811,17.246167 C 37.068811,17.246167 37.088388,32 37.088388,32 L 22.160133,31.978069 C 22.160133,31.978069 26.997745,27.140456 26.997745,27.140456 C 18.528582,18.264221 13.291696,25.230495 11.500037,31.436501 z"
             style="fill:#404040;"/>
          </a>
         </g>
        </svg>
</svg>
