<?xml version="1.0" encoding="UTF-8" standalone="no"?>
<!DOCTYPE svg PUBLIC "-//W3C//DTD SVG 1.1//EN"
 "http://www.w3.org/Graphics/SVG/1.1/DTD/svg11.dtd">
<!-- Generated by graphviz version 2.38.0 (20140413.2041)
 -->
<!-- Title: setup Pages: 1 -->
<svg width="310pt" height="104pt"
 viewBox="0.00 0.00 310.00 104.00" xmlns="http://www.w3.org/2000/svg" xmlns:xlink="http://www.w3.org/1999/xlink">
<g id="graph0" class="graph" transform="scale(1 1) rotate(0) translate(4 100)">
<title>setup</title>
<!-- Node12 -->
<g id="node1" class="node"><title>Node12</title>
<polygon fill="#bfbfbf" stroke="black" points="0,-38.5 0,-57.5 41,-57.5 41,-38.5 0,-38.5"/>
<text text-anchor="middle" x="20.5" y="-45.5" font-family="Helvetica,sans-Serif" font-size="10.00">setup</text>
</g>
<!-- Node13 -->
<g id="node2" class="node"><title>Node13</title>
<g id="a_node2"><a xlink:href="class_c_serial.html#aed500bd204c4b37665d6d228333edafb" target="_top" xlink:title="Initialization function of CSerial. ">
<polygon fill="none" stroke="black" points="91,-76.5 91,-95.5 158,-95.5 158,-76.5 91,-76.5"/>
<text text-anchor="middle" x="124.5" y="-83.5" font-family="Helvetica,sans-Serif" font-size="10.00">CSerial::Init</text>
</a>
</g>
</g>
<!-- Node12&#45;&gt;Node13 -->
<g id="edge1" class="edge"><title>Node12&#45;&gt;Node13</title>
<path fill="none" stroke="midnightblue" d="M41.1666,-55.3268C54.4941,-60.2919 72.4826,-66.9935 88.2459,-72.8661"/>
<polygon fill="midnightblue" stroke="midnightblue" points="87.1189,-76.1812 97.7117,-76.3926 89.5627,-69.6216 87.1189,-76.1812"/>
</g>
<!-- Node14 -->
<g id="node3" class="node"><title>Node14</title>
<g id="a_node3"><a xlink:href="class_c_p_l_s_comms.html#ae7f8d87ea15de35a120d65a7a8bbbb76" target="_top" xlink:title="PLS communication initialization. ">
<polygon fill="none" stroke="black" points="77,-38.5 77,-57.5 172,-57.5 172,-38.5 77,-38.5"/>
<text text-anchor="middle" x="124.5" y="-45.5" font-family="Helvetica,sans-Serif" font-size="10.00">CPLSComms::Init</text>
</a>
</g>
</g>
<!-- Node12&#45;&gt;Node14 -->
<g id="edge2" class="edge"><title>Node12&#45;&gt;Node14</title>
<path fill="none" stroke="midnightblue" d="M41.1666,-48C48.649,-48 57.6005,-48 66.8025,-48"/>
<polygon fill="midnightblue" stroke="midnightblue" points="66.8284,-51.5001 76.8284,-48 66.8283,-44.5001 66.8284,-51.5001"/>
</g>
<!-- Node16 -->
<g id="node5" class="node"><title>Node16</title>
<g id="a_node5"><a xlink:href="class_c_task_ctrl.html#a12ec6e8d4a490eba9ebdf22d32cf292b" target="_top" xlink:title="Initialization function task controller. ">
<polygon fill="none" stroke="black" points="85.5,-0.5 85.5,-19.5 163.5,-19.5 163.5,-0.5 85.5,-0.5"/>
<text text-anchor="middle" x="124.5" y="-7.5" font-family="Helvetica,sans-Serif" font-size="10.00">CTaskCtrl::Init</text>
</a>
</g>
</g>
<!-- Node12&#45;&gt;Node16 -->
<g id="edge4" class="edge"><title>Node12&#45;&gt;Node16</title>
<path fill="none" stroke="midnightblue" d="M41.1666,-40.6732C54.4941,-35.7081 72.4826,-29.0065 88.2459,-23.1339"/>
<polygon fill="midnightblue" stroke="midnightblue" points="89.5627,-26.3784 97.7117,-19.6074 87.1189,-19.8188 89.5627,-26.3784"/>
</g>
<!-- Node15 -->
<g id="node4" class="node"><title>Node15</title>
<g id="a_node4"><a xlink:href="class_c_buff_adas.html#a2ff1ee5f1dfa56117d76b17027d7b7e8" target="_top" xlink:title="reset buffer ">
<polygon fill="none" stroke="black" points="208,-38.5 208,-57.5 302,-57.5 302,-38.5 208,-38.5"/>
<text text-anchor="middle" x="255" y="-45.5" font-family="Helvetica,sans-Serif" font-size="10.00">CBuffAdas::Reset</text>
</a>
</g>
</g>
<!-- Node14&#45;&gt;Node15 -->
<g id="edge3" class="edge"><title>Node14&#45;&gt;Node15</title>
<path fill="none" stroke="midnightblue" d="M172.255,-48C180.52,-48 189.203,-48 197.697,-48"/>
<polygon fill="midnightblue" stroke="midnightblue" points="197.925,-51.5001 207.925,-48 197.925,-44.5001 197.925,-51.5001"/>
</g>
<!-- Node17 -->
<g id="node6" class="node"><title>Node17</title>
<g id="a_node6"><a xlink:href="class_i_task___i_f.html#a28f608bdb9b19658403f7b9b7421968d" target="_top" xlink:title="Initialization pure virtual method. ">
<polygon fill="none" stroke="black" points="219,-0.5 219,-19.5 291,-19.5 291,-0.5 219,-0.5"/>
<text text-anchor="middle" x="255" y="-7.5" font-family="Helvetica,sans-Serif" font-size="10.00">ITask_IF::Init</text>
</a>
</g>
</g>
<!-- Node16&#45;&gt;Node17 -->
<g id="edge5" class="edge"><title>Node16&#45;&gt;Node17</title>
<path fill="none" stroke="midnightblue" d="M163.706,-10C177.756,-10 193.805,-10 208.438,-10"/>
<polygon fill="midnightblue" stroke="midnightblue" points="208.794,-13.5001 218.794,-10 208.794,-6.5001 208.794,-13.5001"/>
</g>
</g>
</svg>
