<?xml version="1.0" encoding="UTF-8" standalone="no"?>
<!DOCTYPE svg PUBLIC "-//W3C//DTD SVG 1.1//EN"
 "http://www.w3.org/Graphics/SVG/1.1/DTD/svg11.dtd">
<!-- Generated by graphviz version 2.38.0 (20140413.2041)
 -->
<!-- Title: ADAS_Debug.h Pages: 1 -->
<svg width="920pt" height="196pt"
 viewBox="0.00 0.00 919.98 196.00" xmlns="http://www.w3.org/2000/svg" xmlns:xlink="http://www.w3.org/1999/xlink">
<g id="graph0" class="graph" transform="scale(1 1) rotate(0) translate(4 192)">
<title>ADAS_Debug.h</title>
<!-- Node2 -->
<g id="node1" class="node"><title>Node2</title>
<polygon fill="#bfbfbf" stroke="black" points="508.483,-168.5 508.483,-187.5 593.483,-187.5 593.483,-168.5 508.483,-168.5"/>
<text text-anchor="middle" x="550.983" y="-175.5" font-family="Helvetica,sans-Serif" font-size="10.00">ADAS_Debug.h</text>
</g>
<!-- Node3 -->
<g id="node2" class="node"><title>Node3</title>
<g id="a_node2"><a xlink:href="_a_d_a_s___nav_u_8ino.html" target="_top" xlink:title="Main file for the NavU of the ADAS project. ">
<polygon fill="none" stroke="black" points="53.4828,-0.5 53.4828,-19.5 140.483,-19.5 140.483,-0.5 53.4828,-0.5"/>
<text text-anchor="middle" x="96.9828" y="-7.5" font-family="Helvetica,sans-Serif" font-size="10.00">ADAS_NavU.ino</text>
</a>
</g>
</g>
<!-- Node2&#45;&gt;Node3 -->
<g id="edge1" class="edge"><title>Node2&#45;&gt;Node3</title>
<path fill="none" stroke="midnightblue" d="M498.089,-175.959C371.563,-172.985 59.2955,-162.595 23.9828,-132 -1.9169,-109.561 -6.76379,-85.3152 10.9828,-56 22.2401,-37.4042 43.9894,-26.123 62.7983,-19.5065"/>
<polygon fill="midnightblue" stroke="midnightblue" points="498.232,-179.464 508.309,-176.193 498.392,-172.465 498.232,-179.464"/>
</g>
<!-- Node4 -->
<g id="node3" class="node"><title>Node4</title>
<g id="a_node3"><a xlink:href="_app___navigation_8h.html" target="_top" xlink:title="Application file for navigation. ">
<polygon fill="none" stroke="black" points="352.983,-112.5 352.983,-131.5 444.983,-131.5 444.983,-112.5 352.983,-112.5"/>
<text text-anchor="middle" x="398.983" y="-119.5" font-family="Helvetica,sans-Serif" font-size="10.00">App_Navigation.h</text>
</a>
</g>
</g>
<!-- Node2&#45;&gt;Node4 -->
<g id="edge2" class="edge"><title>Node2&#45;&gt;Node4</title>
<path fill="none" stroke="midnightblue" d="M517.315,-165.039C488.715,-154.879 448.371,-140.546 422.955,-131.516"/>
<polygon fill="midnightblue" stroke="midnightblue" points="516.303,-168.394 526.898,-168.444 518.647,-161.798 516.303,-168.394"/>
</g>
<!-- Node6 -->
<g id="node5" class="node"><title>Node6</title>
<g id="a_node5"><a xlink:href="_app___virtual_mapping_8cpp.html" target="_top" xlink:title="App_VirtualMapping.cpp">
<polygon fill="none" stroke="black" points="431.983,-0.5 431.983,-19.5 553.983,-19.5 553.983,-0.5 431.983,-0.5"/>
<text text-anchor="middle" x="492.983" y="-7.5" font-family="Helvetica,sans-Serif" font-size="10.00">App_VirtualMapping.cpp</text>
</a>
</g>
</g>
<!-- Node2&#45;&gt;Node6 -->
<g id="edge12" class="edge"><title>Node2&#45;&gt;Node6</title>
<path fill="none" stroke="midnightblue" d="M560.008,-159.14C571.166,-134.329 586.548,-88.7892 567.983,-56 557.808,-38.0293 537.277,-26.4522 520.265,-19.5474"/>
<polygon fill="midnightblue" stroke="midnightblue" points="556.734,-157.874 555.595,-168.407 563.054,-160.883 556.734,-157.874"/>
</g>
<!-- Node8 -->
<g id="node7" class="node"><title>Node8</title>
<g id="a_node7"><a xlink:href="_comm___i_c_c_8cpp.html" target="_top" xlink:title="Communication file for Inter&#45;Controller Communication (ICC) ">
<polygon fill="none" stroke="black" points="473.483,-56.5 473.483,-75.5 558.483,-75.5 558.483,-56.5 473.483,-56.5"/>
<text text-anchor="middle" x="515.983" y="-63.5" font-family="Helvetica,sans-Serif" font-size="10.00">Comm_ICC.cpp</text>
</a>
</g>
</g>
<!-- Node2&#45;&gt;Node8 -->
<g id="edge13" class="edge"><title>Node2&#45;&gt;Node8</title>
<path fill="none" stroke="midnightblue" d="M545.152,-158.674C537.5,-134.625 524.379,-93.3881 518.716,-75.5914"/>
<polygon fill="midnightblue" stroke="midnightblue" points="541.869,-159.9 548.236,-168.368 548.54,-157.778 541.869,-159.9"/>
</g>
<!-- Node9 -->
<g id="node8" class="node"><title>Node9</title>
<g id="a_node8"><a xlink:href="_app___environmental_data_8h.html" target="_top" xlink:title="Application file for environmental data. ">
<polygon fill="none" stroke="black" points="32.9828,-112.5 32.9828,-131.5 160.983,-131.5 160.983,-112.5 32.9828,-112.5"/>
<text text-anchor="middle" x="96.9828" y="-119.5" font-family="Helvetica,sans-Serif" font-size="10.00">App_EnvironmentalData.h</text>
</a>
</g>
</g>
<!-- Node2&#45;&gt;Node9 -->
<g id="edge9" class="edge"><title>Node2&#45;&gt;Node9</title>
<path fill="none" stroke="midnightblue" d="M498.225,-170.725C414.537,-160.771 251.605,-141.391 161.237,-130.643"/>
<polygon fill="midnightblue" stroke="midnightblue" points="497.928,-174.214 508.272,-171.92 498.755,-167.263 497.928,-174.214"/>
</g>
<!-- Node11 -->
<g id="node10" class="node"><title>Node11</title>
<g id="a_node10"><a xlink:href="_comm___p_l_s_8cpp.html" target="_top" xlink:title="Comm_PLS.cpp">
<polygon fill="none" stroke="black" points="605.983,-112.5 605.983,-131.5 693.983,-131.5 693.983,-112.5 605.983,-112.5"/>
<text text-anchor="middle" x="649.983" y="-119.5" font-family="Helvetica,sans-Serif" font-size="10.00">Comm_PLS.cpp</text>
</a>
</g>
</g>
<!-- Node2&#45;&gt;Node11 -->
<g id="edge14" class="edge"><title>Node2&#45;&gt;Node11</title>
<path fill="none" stroke="midnightblue" d="M575.82,-163.453C594.096,-153.483 618.398,-140.228 634.116,-131.655"/>
<polygon fill="midnightblue" stroke="midnightblue" points="573.992,-160.463 566.889,-168.324 577.344,-166.608 573.992,-160.463"/>
</g>
<!-- Node12 -->
<g id="node11" class="node"><title>Node12</title>
<g id="a_node11"><a xlink:href="_h_a_l___p_w_m_8cpp.html" target="_top" xlink:title="Hardware Abstraction Layer (HAL) for the 10&#45;bit PWM outputs. ">
<polygon fill="none" stroke="black" points="711.983,-112.5 711.983,-131.5 795.983,-131.5 795.983,-112.5 711.983,-112.5"/>
<text text-anchor="middle" x="753.983" y="-119.5" font-family="Helvetica,sans-Serif" font-size="10.00">HAL_PWM.cpp</text>
</a>
</g>
</g>
<!-- Node2&#45;&gt;Node12 -->
<g id="edge15" class="edge"><title>Node2&#45;&gt;Node12</title>
<path fill="none" stroke="midnightblue" d="M592.977,-165.829C631.306,-155.633 687.134,-140.782 721.967,-131.516"/>
<polygon fill="midnightblue" stroke="midnightblue" points="591.913,-162.49 583.149,-168.444 593.712,-169.255 591.913,-162.49"/>
</g>
<!-- Node13 -->
<g id="node12" class="node"><title>Node13</title>
<g id="a_node12"><a xlink:href="_h_a_l___serial___i_f_8cpp.html" target="_top" xlink:title="Hardware Abstraction Layer (HAL) to serial interface. ">
<polygon fill="none" stroke="black" points="813.983,-112.5 813.983,-131.5 911.983,-131.5 911.983,-112.5 813.983,-112.5"/>
<text text-anchor="middle" x="862.983" y="-119.5" font-family="Helvetica,sans-Serif" font-size="10.00">HAL_Serial_IF.cpp</text>
</a>
</g>
</g>
<!-- Node2&#45;&gt;Node13 -->
<g id="edge16" class="edge"><title>Node2&#45;&gt;Node13</title>
<path fill="none" stroke="midnightblue" d="M603.893,-167.842C662.631,-157.676 756.669,-141.4 813.842,-131.505"/>
<polygon fill="midnightblue" stroke="midnightblue" points="602.967,-164.451 593.711,-169.605 604.161,-171.348 602.967,-164.451"/>
</g>
<!-- Node4&#45;&gt;Node3 -->
<g id="edge3" class="edge"><title>Node4&#45;&gt;Node3</title>
<path fill="none" stroke="midnightblue" d="M342.525,-111.359C305.253,-104.007 255.768,-92.3442 213.983,-76 203.433,-71.8735 141.07,-36.3195 111.949,-19.61"/>
<polygon fill="midnightblue" stroke="midnightblue" points="342.215,-114.863 352.697,-113.318 343.54,-107.99 342.215,-114.863"/>
</g>
<!-- Node5 -->
<g id="node4" class="node"><title>Node5</title>
<g id="a_node4"><a xlink:href="_app___virtual_mapping_8h.html" target="_top" xlink:title="App_VirtualMapping.h">
<polygon fill="none" stroke="black" points="342.983,-56.5 342.983,-75.5 454.983,-75.5 454.983,-56.5 342.983,-56.5"/>
<text text-anchor="middle" x="398.983" y="-63.5" font-family="Helvetica,sans-Serif" font-size="10.00">App_VirtualMapping.h</text>
</a>
</g>
</g>
<!-- Node4&#45;&gt;Node5 -->
<g id="edge4" class="edge"><title>Node4&#45;&gt;Node5</title>
<path fill="none" stroke="midnightblue" d="M398.983,-101.805C398.983,-92.9102 398.983,-82.7798 398.983,-75.7511"/>
<polygon fill="midnightblue" stroke="midnightblue" points="395.483,-102.083 398.983,-112.083 402.483,-102.083 395.483,-102.083"/>
</g>
<!-- Node7 -->
<g id="node6" class="node"><title>Node7</title>
<g id="a_node6"><a xlink:href="_app___navigation_8cpp.html" target="_top" xlink:title="Application file for navigation. ">
<polygon fill="none" stroke="black" points="222.983,-56.5 222.983,-75.5 324.983,-75.5 324.983,-56.5 222.983,-56.5"/>
<text text-anchor="middle" x="273.983" y="-63.5" font-family="Helvetica,sans-Serif" font-size="10.00">App_Navigation.cpp</text>
</a>
</g>
</g>
<!-- Node4&#45;&gt;Node7 -->
<g id="edge7" class="edge"><title>Node4&#45;&gt;Node7</title>
<path fill="none" stroke="midnightblue" d="M369.741,-108.368C346.333,-98.2553 314.142,-84.3486 293.697,-75.5164"/>
<polygon fill="midnightblue" stroke="midnightblue" points="368.608,-111.691 379.176,-112.444 371.384,-105.265 368.608,-111.691"/>
</g>
<!-- Node4&#45;&gt;Node8 -->
<g id="edge8" class="edge"><title>Node4&#45;&gt;Node8</title>
<path fill="none" stroke="midnightblue" d="M426.647,-108.232C448.532,-98.1312 478.48,-84.3091 497.53,-75.5164"/>
<polygon fill="midnightblue" stroke="midnightblue" points="425.135,-105.075 417.522,-112.444 428.068,-111.431 425.135,-105.075"/>
</g>
<!-- Node5&#45;&gt;Node3 -->
<g id="edge5" class="edge"><title>Node5&#45;&gt;Node3</title>
<path fill="none" stroke="midnightblue" d="M340.937,-54.6209C282.437,-44.1607 193.472,-28.2531 140.689,-18.8151"/>
<polygon fill="midnightblue" stroke="midnightblue" points="340.67,-58.1287 351.13,-56.4435 341.902,-51.2379 340.67,-58.1287"/>
</g>
<!-- Node5&#45;&gt;Node6 -->
<g id="edge6" class="edge"><title>Node5&#45;&gt;Node6</title>
<path fill="none" stroke="midnightblue" d="M423.044,-51.1774C440.342,-41.2407 463.13,-28.1492 477.918,-19.6545"/>
<polygon fill="midnightblue" stroke="midnightblue" points="421.013,-48.3078 414.085,-56.324 424.5,-54.3775 421.013,-48.3078"/>
</g>
<!-- Node9&#45;&gt;Node3 -->
<g id="edge10" class="edge"><title>Node9&#45;&gt;Node3</title>
<path fill="none" stroke="midnightblue" d="M60.7176,-108.659C34.0461,-97.4077 4.58867,-79.0442 17.9828,-56 28.5321,-37.85 49.4432,-26.4129 67.102,-19.6125"/>
<polygon fill="midnightblue" stroke="midnightblue" points="59.7477,-112.04 70.3334,-112.478 62.3315,-105.534 59.7477,-112.04"/>
</g>
<!-- Node10 -->
<g id="node9" class="node"><title>Node10</title>
<g id="a_node9"><a xlink:href="_app___environmental_data_8cpp.html" target="_top" xlink:title="Application file for environmental data. ">
<polygon fill="none" stroke="black" points="27.4828,-56.5 27.4828,-75.5 166.483,-75.5 166.483,-56.5 27.4828,-56.5"/>
<text text-anchor="middle" x="96.9828" y="-63.5" font-family="Helvetica,sans-Serif" font-size="10.00">App_EnvironmentalData.cpp</text>
</a>
</g>
</g>
<!-- Node9&#45;&gt;Node10 -->
<g id="edge11" class="edge"><title>Node9&#45;&gt;Node10</title>
<path fill="none" stroke="midnightblue" d="M96.9828,-101.805C96.9828,-92.9102 96.9828,-82.7798 96.9828,-75.7511"/>
<polygon fill="midnightblue" stroke="midnightblue" points="93.4829,-102.083 96.9828,-112.083 100.483,-102.083 93.4829,-102.083"/>
</g>
</g>
</svg>
