<?xml version="1.0" encoding="UTF-8" standalone="no"?>
<!DOCTYPE svg PUBLIC "-//W3C//DTD SVG 1.1//EN"
 "http://www.w3.org/Graphics/SVG/1.1/DTD/svg11.dtd">
<!-- Generated by graphviz version 2.38.0 (20140413.2041)
 -->
<!-- Title: ADAS_Types.h Pages: 1 -->
<svg width="1365pt" height="308pt"
 viewBox="0.00 0.00 1365.00 308.00" xmlns="http://www.w3.org/2000/svg" xmlns:xlink="http://www.w3.org/1999/xlink">
<g id="graph0" class="graph" transform="scale(1 1) rotate(0) translate(4 304)">
<title>ADAS_Types.h</title>
<!-- Node1 -->
<g id="node1" class="node"><title>Node1</title>
<g id="a_node1"><a xlink:title="internal datatype mapping file">
<polygon fill="#bfbfbf" stroke="black" points="794.5,-280.5 794.5,-299.5 877.5,-299.5 877.5,-280.5 794.5,-280.5"/>
<text text-anchor="middle" x="836" y="-287.5" font-family="Helvetica,sans-Serif" font-size="10.00">ADAS_Types.h</text>
</a>
</g>
</g>
<!-- Node2 -->
<g id="node2" class="node"><title>Node2</title>
<g id="a_node2"><a xlink:href="_a_d_a_s___nav_u_8ino.html" target="_top" xlink:title="Main file for the NavU of the ADAS project.">
<polygon fill="none" stroke="black" points="792.5,-0.5 792.5,-19.5 879.5,-19.5 879.5,-0.5 792.5,-0.5"/>
<text text-anchor="middle" x="836" y="-7.5" font-family="Helvetica,sans-Serif" font-size="10.00">ADAS_NavU.ino</text>
</a>
</g>
</g>
<!-- Node1&#45;&gt;Node2 -->
<g id="edge1" class="edge"><title>Node1&#45;&gt;Node2</title>
<path fill="none" stroke="midnightblue" d="M836,-270.251C836,-248.357 836,-211.052 836,-179 836,-179 836,-179 836,-121 836,-83.1875 836,-38.0636 836,-19.5578"/>
<polygon fill="midnightblue" stroke="midnightblue" points="832.5,-270.442 836,-280.442 839.5,-270.442 832.5,-270.442"/>
</g>
<!-- Node3 -->
<g id="node3" class="node"><title>Node3</title>
<g id="a_node3"><a xlink:href="_h_a_l___a_d_c_8h.html" target="_top" xlink:title="Hardware Abstraction Layer (HAL) to interface ADC.">
<polygon fill="none" stroke="black" points="94.5,-168.5 94.5,-187.5 163.5,-187.5 163.5,-168.5 94.5,-168.5"/>
<text text-anchor="middle" x="129" y="-175.5" font-family="Helvetica,sans-Serif" font-size="10.00">HAL_ADC.h</text>
</a>
</g>
</g>
<!-- Node1&#45;&gt;Node3 -->
<g id="edge2" class="edge"><title>Node1&#45;&gt;Node3</title>
<path fill="none" stroke="midnightblue" d="M784.38,-285.773C703.064,-280.208 540.353,-267.118 404,-244 314.035,-228.747 209.63,-201.345 159.26,-187.501"/>
<polygon fill="midnightblue" stroke="midnightblue" points="784.146,-289.266 794.359,-286.446 784.617,-282.281 784.146,-289.266"/>
</g>
<!-- Node4 -->
<g id="node4" class="node"><title>Node4</title>
<g id="a_node4"><a xlink:href="_app___environmental_data_8h.html" target="_top" xlink:title="Application file for environmental data.">
<polygon fill="none" stroke="black" points="240,-112.5 240,-131.5 368,-131.5 368,-112.5 240,-112.5"/>
<text text-anchor="middle" x="304" y="-119.5" font-family="Helvetica,sans-Serif" font-size="10.00">App_EnvironmentalData.h</text>
</a>
</g>
</g>
<!-- Node1&#45;&gt;Node4 -->
<g id="edge48" class="edge"><title>Node1&#45;&gt;Node4</title>
<path fill="none" stroke="midnightblue" d="M798.738,-277.373C697.604,-245.816 419.64,-159.083 331.318,-131.524"/>
<polygon fill="midnightblue" stroke="midnightblue" points="797.929,-280.787 808.518,-280.425 800.014,-274.105 797.929,-280.787"/>
</g>
<!-- Node7 -->
<g id="node7" class="node"><title>Node7</title>
<g id="a_node7"><a xlink:href="_h_a_l___serial___i_f_8h.html" target="_top" xlink:title="Hardware Abstraction Layer (HAL) to serial interface.">
<polygon fill="none" stroke="black" points="907.5,-224.5 907.5,-243.5 994.5,-243.5 994.5,-224.5 907.5,-224.5"/>
<text text-anchor="middle" x="951" y="-231.5" font-family="Helvetica,sans-Serif" font-size="10.00">HAL_Serial_IF.h</text>
</a>
</g>
</g>
<!-- Node1&#45;&gt;Node7 -->
<g id="edge8" class="edge"><title>Node1&#45;&gt;Node7</title>
<path fill="none" stroke="midnightblue" d="M863.481,-276.096C884.966,-266.007 914.222,-252.27 932.863,-243.516"/>
<polygon fill="midnightblue" stroke="midnightblue" points="861.786,-273.025 854.222,-280.444 864.762,-279.361 861.786,-273.025"/>
</g>
<!-- Node8 -->
<g id="node8" class="node"><title>Node8</title>
<g id="a_node8"><a xlink:href="_comm___p_l_s_8h.html" target="_top" xlink:title=" ">
<polygon fill="none" stroke="black" points="1231.5,-168.5 1231.5,-187.5 1308.5,-187.5 1308.5,-168.5 1231.5,-168.5"/>
<text text-anchor="middle" x="1270" y="-175.5" font-family="Helvetica,sans-Serif" font-size="10.00">Comm_PLS.h</text>
</a>
</g>
</g>
<!-- Node1&#45;&gt;Node8 -->
<g id="edge25" class="edge"><title>Node1&#45;&gt;Node8</title>
<path fill="none" stroke="midnightblue" d="M887.791,-287.574C978.22,-284.317 1160.57,-274.12 1216,-244 1240.23,-230.832 1258,-201.95 1265.72,-187.535"/>
<polygon fill="midnightblue" stroke="midnightblue" points="887.631,-284.077 877.758,-287.92 887.873,-291.073 887.631,-284.077"/>
</g>
<!-- Node9 -->
<g id="node9" class="node"><title>Node9</title>
<g id="a_node9"><a xlink:href="_app___virtual_mapping_8h.html" target="_top" xlink:title="Virtual mapping application header file.">
<polygon fill="none" stroke="black" points="1240,-56.5 1240,-75.5 1352,-75.5 1352,-56.5 1240,-56.5"/>
<text text-anchor="middle" x="1296" y="-63.5" font-family="Helvetica,sans-Serif" font-size="10.00">App_VirtualMapping.h</text>
</a>
</g>
</g>
<!-- Node1&#45;&gt;Node9 -->
<g id="edge47" class="edge"><title>Node1&#45;&gt;Node9</title>
<path fill="none" stroke="midnightblue" d="M887.688,-286.556C981.913,-281.558 1177.74,-268.518 1241,-244 1305.77,-218.9 1332.17,-199.133 1350,-132 1352.28,-123.409 1353.77,-120.05 1350,-112 1342.34,-95.644 1325.49,-83.1593 1312.63,-75.5364"/>
<polygon fill="midnightblue" stroke="midnightblue" points="887.336,-283.069 877.532,-287.084 887.7,-290.06 887.336,-283.069"/>
</g>
<!-- Node12 -->
<g id="node12" class="node"><title>Node12</title>
<g id="a_node12"><a xlink:href="_comm___i_c_c_8h.html" target="_top" xlink:title="Communication file for Inter&#45;Controller Communication (ICC)">
<polygon fill="none" stroke="black" points="1018,-168.5 1018,-187.5 1092,-187.5 1092,-168.5 1018,-168.5"/>
<text text-anchor="middle" x="1055" y="-175.5" font-family="Helvetica,sans-Serif" font-size="10.00">Comm_ICC.h</text>
</a>
</g>
</g>
<!-- Node1&#45;&gt;Node12 -->
<g id="edge30" class="edge"><title>Node1&#45;&gt;Node12</title>
<path fill="none" stroke="midnightblue" d="M887.721,-283.584C922.585,-277.981 968.359,-266.678 1003,-244 1025.49,-229.278 1042.75,-201.636 1050.51,-187.62"/>
<polygon fill="midnightblue" stroke="midnightblue" points="887.107,-280.137 877.737,-285.082 888.146,-287.059 887.107,-280.137"/>
</g>
<!-- Node13 -->
<g id="node13" class="node"><title>Node13</title>
<g id="a_node13"><a xlink:href="_app___navigation_8h.html" target="_top" xlink:title="Application file for navigation.">
<polygon fill="none" stroke="black" points="1049,-112.5 1049,-131.5 1141,-131.5 1141,-112.5 1049,-112.5"/>
<text text-anchor="middle" x="1095" y="-119.5" font-family="Helvetica,sans-Serif" font-size="10.00">App_Navigation.h</text>
</a>
</g>
</g>
<!-- Node1&#45;&gt;Node13 -->
<g id="edge44" class="edge"><title>Node1&#45;&gt;Node13</title>
<path fill="none" stroke="midnightblue" d="M887.775,-282.926C927.582,-276.845 983.169,-265.232 1028,-244 1064.96,-226.498 1082.91,-224.673 1101,-188 1110.12,-169.502 1103.24,-144.453 1098.5,-131.517"/>
<polygon fill="midnightblue" stroke="midnightblue" points="887.144,-279.481 877.756,-284.391 888.157,-286.407 887.144,-279.481"/>
</g>
<!-- Node17 -->
<g id="node17" class="node"><title>Node17</title>
<g id="a_node17"><a xlink:href="_cbuffer_8h.html" target="_top" xlink:title="general purpose buffer">
<polygon fill="none" stroke="black" points="1151.5,-224.5 1151.5,-243.5 1206.5,-243.5 1206.5,-224.5 1151.5,-224.5"/>
<text text-anchor="middle" x="1179" y="-231.5" font-family="Helvetica,sans-Serif" font-size="10.00">Cbuffer.h</text>
</a>
</g>
</g>
<!-- Node1&#45;&gt;Node17 -->
<g id="edge26" class="edge"><title>Node1&#45;&gt;Node17</title>
<path fill="none" stroke="midnightblue" d="M887.83,-281.935C947.374,-273.642 1047.95,-259.094 1134,-244 1139.65,-243.009 1145.68,-241.863 1151.43,-240.729"/>
<polygon fill="midnightblue" stroke="midnightblue" points="886.985,-278.519 877.561,-283.36 887.947,-285.452 886.985,-278.519"/>
</g>
<!-- Node19 -->
<g id="node19" class="node"><title>Node19</title>
<g id="a_node19"><a xlink:href="_task___i_f_8h.html" target="_top" xlink:title="Task controller interface header.">
<polygon fill="none" stroke="black" points="710.5,-168.5 710.5,-187.5 769.5,-187.5 769.5,-168.5 710.5,-168.5"/>
<text text-anchor="middle" x="740" y="-175.5" font-family="Helvetica,sans-Serif" font-size="10.00">Task_IF.h</text>
</a>
</g>
</g>
<!-- Node1&#45;&gt;Node19 -->
<g id="edge31" class="edge"><title>Node1&#45;&gt;Node19</title>
<path fill="none" stroke="midnightblue" d="M816.483,-274.161C806.225,-265.873 793.786,-255.018 784,-244 767.53,-225.457 752.239,-200.427 744.776,-187.505"/>
<polygon fill="midnightblue" stroke="midnightblue" points="814.46,-277.023 824.48,-280.466 818.794,-271.526 814.46,-277.023"/>
</g>
<!-- Node20 -->
<g id="node20" class="node"><title>Node20</title>
<g id="a_node20"><a xlink:href="_app___positioning_8h.html" target="_top" xlink:title="template header file for positioning application">
<polygon fill="none" stroke="black" points="581.5,-112.5 581.5,-131.5 676.5,-131.5 676.5,-112.5 581.5,-112.5"/>
<text text-anchor="middle" x="629" y="-119.5" font-family="Helvetica,sans-Serif" font-size="10.00">App_Positioning.h</text>
</a>
</g>
</g>
<!-- Node1&#45;&gt;Node20 -->
<g id="edge45" class="edge"><title>Node1&#45;&gt;Node20</title>
<path fill="none" stroke="midnightblue" d="M812.497,-275.032C798.644,-266.521 780.957,-255.165 766,-244 714.632,-205.655 659.03,-152.486 637.859,-131.762"/>
<polygon fill="midnightblue" stroke="midnightblue" points="811.03,-278.236 821.395,-280.433 814.662,-272.252 811.03,-278.236"/>
</g>
<!-- Node22 -->
<g id="node22" class="node"><title>Node22</title>
<g id="a_node22"><a xlink:href="_app___user_interface_8h.html" target="_top" xlink:title="template header file for uner interface application">
<polygon fill="none" stroke="black" points="701,-112.5 701,-131.5 805,-131.5 805,-112.5 701,-112.5"/>
<text text-anchor="middle" x="753" y="-119.5" font-family="Helvetica,sans-Serif" font-size="10.00">App_UserInterface.h</text>
</a>
</g>
</g>
<!-- Node1&#45;&gt;Node22 -->
<g id="edge46" class="edge"><title>Node1&#45;&gt;Node22</title>
<path fill="none" stroke="midnightblue" d="M827.893,-271.238C816.969,-247.506 796.728,-204.235 778,-168 771.352,-155.138 763.107,-140.534 757.948,-131.544"/>
<polygon fill="midnightblue" stroke="midnightblue" points="824.747,-272.773 832.096,-280.405 831.11,-269.856 824.747,-272.773"/>
</g>
<!-- Node24 -->
<g id="node24" class="node"><title>Node24</title>
<g id="a_node24"><a xlink:href="_o_s_a_l___task_ctrl_8h.html" target="_top" xlink:title="Task controller header file.">
<polygon fill="none" stroke="black" points="444,-112.5 444,-131.5 536,-131.5 536,-112.5 444,-112.5"/>
<text text-anchor="middle" x="490" y="-119.5" font-family="Helvetica,sans-Serif" font-size="10.00">OSAL_TaskCtrl.h</text>
</a>
</g>
</g>
<!-- Node1&#45;&gt;Node24 -->
<g id="edge49" class="edge"><title>Node1&#45;&gt;Node24</title>
<path fill="none" stroke="midnightblue" d="M807.19,-276.169C787.383,-267.283 760.515,-255.101 737,-244 649.99,-202.924 546.926,-151.546 506.987,-131.532"/>
<polygon fill="midnightblue" stroke="midnightblue" points="806.017,-279.478 816.574,-280.369 808.877,-273.089 806.017,-279.478"/>
</g>
<!-- Node3&#45;&gt;Node2 -->
<g id="edge3" class="edge"><title>Node3&#45;&gt;Node2</title>
<path fill="none" stroke="midnightblue" d="M121.76,-158.707C112.645,-132.288 101.094,-83.602 127,-56 149.856,-31.6479 641.703,-16.2871 792.463,-12.1379"/>
<polygon fill="midnightblue" stroke="midnightblue" points="118.535,-160.079 125.284,-168.246 125.101,-157.653 118.535,-160.079"/>
</g>
<!-- Node3&#45;&gt;Node4 -->
<g id="edge4" class="edge"><title>Node3&#45;&gt;Node4</title>
<path fill="none" stroke="midnightblue" d="M166.475,-165.436C199.47,-155.255 246.756,-140.664 276.4,-131.516"/>
<polygon fill="midnightblue" stroke="midnightblue" points="165.253,-162.151 156.729,-168.444 167.317,-168.839 165.253,-162.151"/>
</g>
<!-- Node6 -->
<g id="node6" class="node"><title>Node6</title>
<g id="a_node6"><a xlink:href="_h_a_l___a_d_c_8cpp.html" target="_top" xlink:title="Hardware Abstraction Layer (HAL) to interface ADC.">
<polygon fill="none" stroke="black" points="0,-112.5 0,-131.5 80,-131.5 80,-112.5 0,-112.5"/>
<text text-anchor="middle" x="40" y="-119.5" font-family="Helvetica,sans-Serif" font-size="10.00">HAL_ADC.cpp</text>
</a>
</g>
</g>
<!-- Node3&#45;&gt;Node6 -->
<g id="edge7" class="edge"><title>Node3&#45;&gt;Node6</title>
<path fill="none" stroke="midnightblue" d="M105.762,-162.901C89.4422,-152.999 68.1348,-140.071 54.2639,-131.655"/>
<polygon fill="midnightblue" stroke="midnightblue" points="104.336,-166.129 114.701,-168.324 107.967,-160.144 104.336,-166.129"/>
</g>
<!-- Node4&#45;&gt;Node2 -->
<g id="edge5" class="edge"><title>Node4&#45;&gt;Node2</title>
<path fill="none" stroke="midnightblue" d="M304.103,-102.013C305.286,-87.0948 309.527,-67.0513 323,-56 358.945,-26.5165 675.14,-15.2367 792.449,-12.0432"/>
<polygon fill="midnightblue" stroke="midnightblue" points="300.598,-102.056 303.692,-112.189 307.593,-102.338 300.598,-102.056"/>
</g>
<!-- Node5 -->
<g id="node5" class="node"><title>Node5</title>
<g id="a_node5"><a xlink:href="_app___environmental_data_8cpp.html" target="_top" xlink:title="Application file for environmental data.">
<polygon fill="none" stroke="black" points="136.5,-56.5 136.5,-75.5 275.5,-75.5 275.5,-56.5 136.5,-56.5"/>
<text text-anchor="middle" x="206" y="-63.5" font-family="Helvetica,sans-Serif" font-size="10.00">App_EnvironmentalData.cpp</text>
</a>
</g>
</g>
<!-- Node4&#45;&gt;Node5 -->
<g id="edge6" class="edge"><title>Node4&#45;&gt;Node5</title>
<path fill="none" stroke="midnightblue" d="M279.414,-107.453C261.322,-97.4835 237.265,-84.2279 221.706,-75.6545"/>
<polygon fill="midnightblue" stroke="midnightblue" points="277.807,-110.563 288.255,-112.324 281.185,-104.432 277.807,-110.563"/>
</g>
<!-- Node7&#45;&gt;Node2 -->
<g id="edge9" class="edge"><title>Node7&#45;&gt;Node2</title>
<path fill="none" stroke="midnightblue" d="M926.812,-219.062C915.142,-211.253 901.801,-200.559 893,-188 890.441,-184.348 849.821,-55.0914 838.762,-19.816"/>
<polygon fill="midnightblue" stroke="midnightblue" points="924.988,-222.049 935.306,-224.453 928.739,-216.139 924.988,-222.049"/>
</g>
<!-- Node7&#45;&gt;Node8 -->
<g id="edge10" class="edge"><title>Node7&#45;&gt;Node8</title>
<path fill="none" stroke="midnightblue" d="M1005.07,-224.466C1060.01,-215.699 1147.52,-201.467 1223,-188 1225.7,-187.518 1228.48,-187.011 1231.29,-186.494"/>
<polygon fill="midnightblue" stroke="midnightblue" points="1004.2,-221.062 994.87,-226.091 1005.3,-227.975 1004.2,-221.062"/>
</g>
<!-- Node7&#45;&gt;Node12 -->
<g id="edge16" class="edge"><title>Node7&#45;&gt;Node12</title>
<path fill="none" stroke="midnightblue" d="M976.828,-219.59C996.057,-209.605 1021.74,-196.267 1038.33,-187.655"/>
<polygon fill="midnightblue" stroke="midnightblue" points="974.971,-216.61 967.709,-224.324 978.197,-222.822 974.971,-216.61"/>
</g>
<!-- Node16 -->
<g id="node16" class="node"><title>Node16</title>
<g id="a_node16"><a xlink:href="_h_a_l___serial___i_f_8cpp.html" target="_top" xlink:title="Hardware Abstraction Layer (HAL) to serial interface.">
<polygon fill="none" stroke="black" points="902,-168.5 902,-187.5 1000,-187.5 1000,-168.5 902,-168.5"/>
<text text-anchor="middle" x="951" y="-175.5" font-family="Helvetica,sans-Serif" font-size="10.00">HAL_Serial_IF.cpp</text>
</a>
</g>
</g>
<!-- Node7&#45;&gt;Node16 -->
<g id="edge24" class="edge"><title>Node7&#45;&gt;Node16</title>
<path fill="none" stroke="midnightblue" d="M951,-213.805C951,-204.91 951,-194.78 951,-187.751"/>
<polygon fill="midnightblue" stroke="midnightblue" points="947.5,-214.083 951,-224.083 954.5,-214.083 947.5,-214.083"/>
</g>
<!-- Node8&#45;&gt;Node2 -->
<g id="edge11" class="edge"><title>Node8&#45;&gt;Node2</title>
<path fill="none" stroke="midnightblue" d="M1254.67,-160.929C1246.8,-152.489 1237.17,-141.873 1229,-132 1202.08,-99.4688 1208.43,-77.3526 1172,-56 1123.32,-27.4641 959.057,-16.4297 879.671,-12.6884"/>
<polygon fill="midnightblue" stroke="midnightblue" points="1252.17,-163.38 1261.58,-168.258 1257.27,-158.58 1252.17,-163.38"/>
</g>
<!-- Node8&#45;&gt;Node9 -->
<g id="edge12" class="edge"><title>Node8&#45;&gt;Node9</title>
<path fill="none" stroke="midnightblue" d="M1301.02,-163.667C1313.99,-156.348 1327.72,-145.892 1335,-132 1345.87,-111.251 1322.77,-87.931 1307.68,-75.6468"/>
<polygon fill="midnightblue" stroke="midnightblue" points="1299.07,-160.734 1291.81,-168.447 1302.3,-166.947 1299.07,-160.734"/>
</g>
<!-- Node11 -->
<g id="node11" class="node"><title>Node11</title>
<g id="a_node11"><a xlink:href="_comm___p_l_s_8cpp.html" target="_top" xlink:title=" ">
<polygon fill="none" stroke="black" points="1238,-112.5 1238,-131.5 1326,-131.5 1326,-112.5 1238,-112.5"/>
<text text-anchor="middle" x="1282" y="-119.5" font-family="Helvetica,sans-Serif" font-size="10.00">Comm_PLS.cpp</text>
</a>
</g>
</g>
<!-- Node8&#45;&gt;Node11 -->
<g id="edge15" class="edge"><title>Node8&#45;&gt;Node11</title>
<path fill="none" stroke="midnightblue" d="M1274.2,-158.101C1276.19,-149.136 1278.48,-138.858 1280.06,-131.751"/>
<polygon fill="midnightblue" stroke="midnightblue" points="1270.73,-157.562 1271.98,-168.083 1277.57,-159.08 1270.73,-157.562"/>
</g>
<!-- Node9&#45;&gt;Node2 -->
<g id="edge13" class="edge"><title>Node9&#45;&gt;Node2</title>
<path fill="none" stroke="midnightblue" d="M1229.83,-56.4697C1228.54,-56.3111 1227.27,-56.1544 1226,-56 1100.33,-40.6715 951.703,-23.8959 879.596,-15.8433"/>
<polygon fill="midnightblue" stroke="midnightblue" points="1229.49,-59.9538 1239.84,-57.7148 1230.35,-53.0073 1229.49,-59.9538"/>
</g>
<!-- Node10 -->
<g id="node10" class="node"><title>Node10</title>
<g id="a_node10"><a xlink:href="_app___virtual_mapping_8cpp.html" target="_top" xlink:title="Virtual mapping application source file.">
<polygon fill="none" stroke="black" points="1235,-0.5 1235,-19.5 1357,-19.5 1357,-0.5 1235,-0.5"/>
<text text-anchor="middle" x="1296" y="-7.5" font-family="Helvetica,sans-Serif" font-size="10.00">App_VirtualMapping.cpp</text>
</a>
</g>
</g>
<!-- Node9&#45;&gt;Node10 -->
<g id="edge14" class="edge"><title>Node9&#45;&gt;Node10</title>
<path fill="none" stroke="midnightblue" d="M1296,-45.8045C1296,-36.9102 1296,-26.7798 1296,-19.7511"/>
<polygon fill="midnightblue" stroke="midnightblue" points="1292.5,-46.083 1296,-56.083 1299.5,-46.083 1292.5,-46.083"/>
</g>
<!-- Node12&#45;&gt;Node2 -->
<g id="edge17" class="edge"><title>Node12&#45;&gt;Node2</title>
<path fill="none" stroke="midnightblue" d="M1035.51,-162.225C990.932,-128.437 882.676,-46.3797 847.353,-19.6051"/>
<polygon fill="midnightblue" stroke="midnightblue" points="1033.45,-165.057 1043.53,-168.309 1037.68,-159.479 1033.45,-165.057"/>
</g>
<!-- Node12&#45;&gt;Node13 -->
<g id="edge18" class="edge"><title>Node12&#45;&gt;Node13</title>
<path fill="none" stroke="midnightblue" d="M1067.7,-159.855C1074.63,-150.505 1082.91,-139.327 1088.52,-131.751"/>
<polygon fill="midnightblue" stroke="midnightblue" points="1064.75,-157.964 1061.61,-168.083 1070.37,-162.131 1064.75,-157.964"/>
</g>
<!-- Node15 -->
<g id="node15" class="node"><title>Node15</title>
<g id="a_node15"><a xlink:href="_comm___i_c_c_8cpp.html" target="_top" xlink:title="Communication file for Inter&#45;Controller Communication (ICC)">
<polygon fill="none" stroke="black" points="940.5,-56.5 940.5,-75.5 1025.5,-75.5 1025.5,-56.5 940.5,-56.5"/>
<text text-anchor="middle" x="983" y="-63.5" font-family="Helvetica,sans-Serif" font-size="10.00">Comm_ICC.cpp</text>
</a>
</g>
</g>
<!-- Node12&#45;&gt;Node15 -->
<g id="edge23" class="edge"><title>Node12&#45;&gt;Node15</title>
<path fill="none" stroke="midnightblue" d="M1043.84,-159.957C1028.24,-136.118 1000.48,-93.7088 988.623,-75.5914"/>
<polygon fill="midnightblue" stroke="midnightblue" points="1040.95,-161.918 1049.35,-168.368 1046.8,-158.085 1040.95,-161.918"/>
</g>
<!-- Node13&#45;&gt;Node2 -->
<g id="edge19" class="edge"><title>Node13&#45;&gt;Node2</title>
<path fill="none" stroke="midnightblue" d="M1122.31,-107.384C1144.85,-94.3812 1170.76,-74.1367 1155,-56 1119.83,-15.521 958.376,-10.4348 879.549,-10.4315"/>
<polygon fill="midnightblue" stroke="midnightblue" points="1120.39,-104.444 1113.31,-112.321 1123.76,-110.582 1120.39,-104.444"/>
</g>
<!-- Node13&#45;&gt;Node9 -->
<g id="edge20" class="edge"><title>Node13&#45;&gt;Node9</title>
<path fill="none" stroke="midnightblue" d="M1136.58,-109.829C1174.53,-99.6333 1229.81,-84.7823 1264.3,-75.5164"/>
<polygon fill="midnightblue" stroke="midnightblue" points="1135.6,-106.469 1126.85,-112.444 1137.41,-113.229 1135.6,-106.469"/>
</g>
<!-- Node14 -->
<g id="node14" class="node"><title>Node14</title>
<g id="a_node14"><a xlink:href="_app___navigation_8cpp.html" target="_top" xlink:title="Application file for navigation.">
<polygon fill="none" stroke="black" points="1044,-56.5 1044,-75.5 1146,-75.5 1146,-56.5 1044,-56.5"/>
<text text-anchor="middle" x="1095" y="-63.5" font-family="Helvetica,sans-Serif" font-size="10.00">App_Navigation.cpp</text>
</a>
</g>
</g>
<!-- Node13&#45;&gt;Node14 -->
<g id="edge21" class="edge"><title>Node13&#45;&gt;Node14</title>
<path fill="none" stroke="midnightblue" d="M1095,-101.805C1095,-92.9102 1095,-82.7798 1095,-75.7511"/>
<polygon fill="midnightblue" stroke="midnightblue" points="1091.5,-102.083 1095,-112.083 1098.5,-102.083 1091.5,-102.083"/>
</g>
<!-- Node13&#45;&gt;Node15 -->
<g id="edge22" class="edge"><title>Node13&#45;&gt;Node15</title>
<path fill="none" stroke="midnightblue" d="M1067.75,-107.862C1046.98,-97.8492 1018.98,-84.3458 1000.95,-75.6545"/>
<polygon fill="midnightblue" stroke="midnightblue" points="1066.48,-111.134 1077.01,-112.324 1069.52,-104.828 1066.48,-111.134"/>
</g>
<!-- Node17&#45;&gt;Node8 -->
<g id="edge27" class="edge"><title>Node17&#45;&gt;Node8</title>
<path fill="none" stroke="midnightblue" d="M1202.29,-219.177C1219.04,-209.241 1241.1,-196.149 1255.42,-187.655"/>
<polygon fill="midnightblue" stroke="midnightblue" points="1200.43,-216.211 1193.62,-224.324 1204.01,-222.231 1200.43,-216.211"/>
</g>
<!-- Node17&#45;&gt;Node12 -->
<g id="edge28" class="edge"><title>Node17&#45;&gt;Node12</title>
<path fill="none" stroke="midnightblue" d="M1149.99,-220.368C1126.77,-210.255 1094.84,-196.349 1074.56,-187.516"/>
<polygon fill="midnightblue" stroke="midnightblue" points="1148.79,-223.66 1159.35,-224.444 1151.58,-217.242 1148.79,-223.66"/>
</g>
<!-- Node18 -->
<g id="node18" class="node"><title>Node18</title>
<g id="a_node18"><a xlink:href="_cbuffer_8cpp.html" target="_top" xlink:title=" ">
<polygon fill="none" stroke="black" points="1148.5,-168.5 1148.5,-187.5 1213.5,-187.5 1213.5,-168.5 1148.5,-168.5"/>
<text text-anchor="middle" x="1181" y="-175.5" font-family="Helvetica,sans-Serif" font-size="10.00">Cbuffer.cpp</text>
</a>
</g>
</g>
<!-- Node17&#45;&gt;Node18 -->
<g id="edge29" class="edge"><title>Node17&#45;&gt;Node18</title>
<path fill="none" stroke="midnightblue" d="M1179.71,-213.805C1180.04,-204.91 1180.42,-194.78 1180.68,-187.751"/>
<polygon fill="midnightblue" stroke="midnightblue" points="1176.2,-213.96 1179.33,-224.083 1183.2,-214.219 1176.2,-213.96"/>
</g>
<!-- Node19&#45;&gt;Node4 -->
<g id="edge40" class="edge"><title>Node19&#45;&gt;Node4</title>
<path fill="none" stroke="midnightblue" d="M700.332,-172.087C624.832,-162.736 459.859,-142.304 368.353,-130.97"/>
<polygon fill="midnightblue" stroke="midnightblue" points="700.02,-175.575 710.375,-173.331 700.881,-168.628 700.02,-175.575"/>
</g>
<!-- Node19&#45;&gt;Node9 -->
<g id="edge39" class="edge"><title>Node19&#45;&gt;Node9</title>
<path fill="none" stroke="midnightblue" d="M779.877,-174.2C868.762,-167.704 1080.75,-150.725 1150,-132 1200.09,-118.457 1254.9,-90.0162 1280.81,-75.669"/>
<polygon fill="midnightblue" stroke="midnightblue" points="779.386,-170.726 769.665,-174.94 779.892,-177.708 779.386,-170.726"/>
</g>
<!-- Node19&#45;&gt;Node13 -->
<g id="edge32" class="edge"><title>Node19&#45;&gt;Node13</title>
<path fill="none" stroke="midnightblue" d="M779.698,-170.961C845.945,-160.884 978.677,-140.694 1048.93,-130.007"/>
<polygon fill="midnightblue" stroke="midnightblue" points="779.016,-167.525 769.657,-172.489 780.069,-174.445 779.016,-167.525"/>
</g>
<!-- Node19&#45;&gt;Node20 -->
<g id="edge33" class="edge"><title>Node19&#45;&gt;Node20</title>
<path fill="none" stroke="midnightblue" d="M712.995,-163.862C692.412,-153.849 664.655,-140.346 646.79,-131.655"/>
<polygon fill="midnightblue" stroke="midnightblue" points="711.642,-167.097 722.166,-168.324 714.705,-160.802 711.642,-167.097"/>
</g>
<!-- Node19&#45;&gt;Node22 -->
<g id="edge36" class="edge"><title>Node19&#45;&gt;Node22</title>
<path fill="none" stroke="midnightblue" d="M744.55,-158.101C746.708,-149.136 749.182,-138.858 750.893,-131.751"/>
<polygon fill="midnightblue" stroke="midnightblue" points="741.085,-157.542 742.147,-168.083 747.89,-159.18 741.085,-157.542"/>
</g>
<!-- Node19&#45;&gt;Node24 -->
<g id="edge41" class="edge"><title>Node19&#45;&gt;Node24</title>
<path fill="none" stroke="midnightblue" d="M700.564,-168.482C653.79,-158.379 576.28,-141.636 529.484,-131.529"/>
<polygon fill="midnightblue" stroke="midnightblue" points="699.826,-171.903 710.34,-170.593 701.304,-165.061 699.826,-171.903"/>
</g>
<!-- Node20&#45;&gt;Node2 -->
<g id="edge34" class="edge"><title>Node20&#45;&gt;Node2</title>
<path fill="none" stroke="midnightblue" d="M628.633,-102.151C629.397,-87.6051 632.879,-68.0005 645,-56 665.517,-35.6863 742.598,-22.5449 792.344,-15.9834"/>
<polygon fill="midnightblue" stroke="midnightblue" points="625.129,-102.442 628.489,-112.489 632.128,-102.539 625.129,-102.442"/>
</g>
<!-- Node21 -->
<g id="node21" class="node"><title>Node21</title>
<g id="a_node21"><a xlink:href="_app___positioning_8cpp.html" target="_top" xlink:title="template source file for positioning application">
<polygon fill="none" stroke="black" points="492,-56.5 492,-75.5 598,-75.5 598,-56.5 492,-56.5"/>
<text text-anchor="middle" x="545" y="-63.5" font-family="Helvetica,sans-Serif" font-size="10.00">App_Positioning.cpp</text>
</a>
</g>
</g>
<!-- Node20&#45;&gt;Node21 -->
<g id="edge35" class="edge"><title>Node20&#45;&gt;Node21</title>
<path fill="none" stroke="midnightblue" d="M607.068,-106.901C591.665,-96.9986 571.554,-84.0705 558.463,-75.6545"/>
<polygon fill="midnightblue" stroke="midnightblue" points="605.199,-109.86 615.504,-112.324 608.985,-103.972 605.199,-109.86"/>
</g>
<!-- Node22&#45;&gt;Node2 -->
<g id="edge37" class="edge"><title>Node22&#45;&gt;Node2</title>
<path fill="none" stroke="midnightblue" d="M765.622,-104.272C783.563,-80.4942 815.787,-37.7889 829.517,-19.5914"/>
<polygon fill="midnightblue" stroke="midnightblue" points="762.742,-102.278 759.513,-112.368 768.33,-106.494 762.742,-102.278"/>
</g>
<!-- Node23 -->
<g id="node23" class="node"><title>Node23</title>
<g id="a_node23"><a xlink:href="_app___user_interface_8cpp.html" target="_top" xlink:title="template source file for unser interface application">
<polygon fill="none" stroke="black" points="654.5,-56.5 654.5,-75.5 769.5,-75.5 769.5,-56.5 654.5,-56.5"/>
<text text-anchor="middle" x="712" y="-63.5" font-family="Helvetica,sans-Serif" font-size="10.00">App_UserInterface.cpp</text>
</a>
</g>
</g>
<!-- Node22&#45;&gt;Node23 -->
<g id="edge38" class="edge"><title>Node22&#45;&gt;Node23</title>
<path fill="none" stroke="midnightblue" d="M739.983,-103.855C732.883,-94.5048 724.396,-83.3265 718.644,-75.7511"/>
<polygon fill="midnightblue" stroke="midnightblue" points="737.395,-106.235 746.23,-112.083 742.97,-102.002 737.395,-106.235"/>
</g>
<!-- Node24&#45;&gt;Node2 -->
<g id="edge42" class="edge"><title>Node24&#45;&gt;Node2</title>
<path fill="none" stroke="midnightblue" d="M481.393,-102.805C475.976,-88.3784 471.894,-68.6119 483,-56 503.16,-33.107 702.315,-18.7537 792.283,-13.3893"/>
<polygon fill="midnightblue" stroke="midnightblue" points="478.246,-104.349 485.375,-112.187 484.69,-101.614 478.246,-104.349"/>
</g>
<!-- Node25 -->
<g id="node25" class="node"><title>Node25</title>
<g id="a_node25"><a xlink:href="_o_s_a_l___task_ctrl_8cpp.html" target="_top" xlink:title="Task controller source file.">
<polygon fill="none" stroke="black" points="332.5,-56.5 332.5,-75.5 435.5,-75.5 435.5,-56.5 332.5,-56.5"/>
<text text-anchor="middle" x="384" y="-63.5" font-family="Helvetica,sans-Serif" font-size="10.00">OSAL_TaskCtrl.cpp</text>
</a>
</g>
</g>
<!-- Node24&#45;&gt;Node25 -->
<g id="edge43" class="edge"><title>Node24&#45;&gt;Node25</title>
<path fill="none" stroke="midnightblue" d="M463.944,-107.726C444.316,-97.7271 417.972,-84.3065 400.988,-75.6545"/>
<polygon fill="midnightblue" stroke="midnightblue" points="462.47,-110.903 472.969,-112.324 465.648,-104.666 462.47,-110.903"/>
</g>
</g>
</svg>
