<?xml version="1.0" encoding="UTF-8" standalone="no"?>
<!DOCTYPE svg PUBLIC "-//W3C//DTD SVG 1.1//EN"
 "http://www.w3.org/Graphics/SVG/1.1/DTD/svg11.dtd">
<!-- Generated by graphviz version 2.38.0 (20140413.2041)
 -->
<!-- Title: App_EnvironmentalData.h Pages: 1 -->
<svg width="252pt" height="84pt"
 viewBox="0.00 0.00 252.00 84.00" xmlns="http://www.w3.org/2000/svg" xmlns:xlink="http://www.w3.org/1999/xlink">
<g id="graph0" class="graph" transform="scale(1 1) rotate(0) translate(4 80)">
<title>App_EnvironmentalData.h</title>
<!-- Node6 -->
<g id="node1" class="node"><title>Node6</title>
<g id="a_node1"><a xlink:title="Application file for environmental data.">
<polygon fill="#bfbfbf" stroke="black" points="44.5,-56.5 44.5,-75.5 172.5,-75.5 172.5,-56.5 44.5,-56.5"/>
<text text-anchor="middle" x="108.5" y="-63.5" font-family="Helvetica,sans-Serif" font-size="10.00">App_EnvironmentalData.h</text>
</a>
</g>
</g>
<!-- Node7 -->
<g id="node2" class="node"><title>Node7</title>
<g id="a_node2"><a xlink:href="_a_d_a_s___nav_u_8ino.html" target="_top" xlink:title="Main file for the NavU of the ADAS project.">
<polygon fill="none" stroke="black" points="0,-0.5 0,-19.5 87,-19.5 87,-0.5 0,-0.5"/>
<text text-anchor="middle" x="43.5" y="-7.5" font-family="Helvetica,sans-Serif" font-size="10.00">ADAS_NavU.ino</text>
</a>
</g>
</g>
<!-- Node6&#45;&gt;Node7 -->
<g id="edge1" class="edge"><title>Node6&#45;&gt;Node7</title>
<path fill="none" stroke="midnightblue" d="M90.2274,-49.8197C78.5822,-40.1452 63.9005,-27.9481 54.1334,-19.8339"/>
<polygon fill="midnightblue" stroke="midnightblue" points="88.1281,-52.6259 98.0566,-56.324 92.6013,-47.2416 88.1281,-52.6259"/>
</g>
<!-- Node8 -->
<g id="node3" class="node"><title>Node8</title>
<g id="a_node3"><a xlink:href="_app___environmental_data_8cpp.html" target="_top" xlink:title="Application file for environmental data.">
<polygon fill="none" stroke="black" points="105,-0.5 105,-19.5 244,-19.5 244,-0.5 105,-0.5"/>
<text text-anchor="middle" x="174.5" y="-7.5" font-family="Helvetica,sans-Serif" font-size="10.00">App_EnvironmentalData.cpp</text>
</a>
</g>
</g>
<!-- Node6&#45;&gt;Node8 -->
<g id="edge2" class="edge"><title>Node6&#45;&gt;Node8</title>
<path fill="none" stroke="midnightblue" d="M127.054,-49.8197C138.878,-40.1452 153.786,-27.9481 163.703,-19.8339"/>
<polygon fill="midnightblue" stroke="midnightblue" points="124.627,-47.2827 119.104,-56.324 129.06,-52.7004 124.627,-47.2827"/>
</g>
</g>
</svg>
