<?xml version="1.0" encoding="UTF-8" standalone="no"?>
<!DOCTYPE svg PUBLIC "-//W3C//DTD SVG 1.1//EN"
 "http://www.w3.org/Graphics/SVG/1.1/DTD/svg11.dtd">
<!-- Generated by graphviz version 2.38.0 (20140413.2041)
 -->
<!-- Title: App_VirtualMapping.cpp Pages: 1 -->
<!--zoomable 308 -->
<svg id="main" version="1.1" xmlns="http://www.w3.org/2000/svg" xmlns:xlink="http://www.w3.org/1999/xlink" xml:space="preserve" onload="init(evt)">
<style type="text/css"><![CDATA[
.edge:hover path { stroke: red; }
.edge:hover polygon { stroke: red; fill: red; }
]]></style>
<script type="text/javascript"><![CDATA[
var edges = document.getElementsByTagName('g');
if (edges && edges.length) {
  for (var i=0;i<edges.length;i++) {
    if (edges[i].id.substr(0,4)=='edge') {
      edges[i].setAttribute('class','edge');
    }
  }
}
]]></script>
        <defs>
                <circle id="rim" cx="0" cy="0" r="7"/>
                <circle id="rim2" cx="0" cy="0" r="3.5"/>
                <g id="zoomPlus">
                        <use xlink:href="#rim" fill="#404040">
                                <set attributeName="fill" to="#808080" begin="zoomplus.mouseover" end="zoomplus.mouseout"/>
                        </use>
                        <path d="M-4,0h8M0,-4v8" fill="none" stroke="white" stroke-width="1.5" pointer-events="none"/>
                </g>
                <g id="zoomMin">
                        <use xlink:href="#rim" fill="#404040">
                                <set attributeName="fill" to="#808080" begin="zoomminus.mouseover" end="zoomminus.mouseout"/>
                        </use>
                        <path d="M-4,0h8" fill="none" stroke="white" stroke-width="1.5" pointer-events="none"/>
                </g>
                <g id="dirArrow">
                        <path fill="none" stroke="white" stroke-width="1.5" d="M0,-3.0v7 M-2.5,-0.5L0,-3.0L2.5,-0.5"/>
                </g>
               <g id="resetDef">
                       <use xlink:href="#rim2" fill="#404040">
                               <set attributeName="fill" to="#808080" begin="reset.mouseover" end="reset.mouseout"/>
                       </use>
               </g>
        </defs>

<script type="text/javascript">
var viewWidth = 525;
var viewHeight = 308;
var sectionId = 'dynsection-0';
</script>
<script xlink:href="svgpan.js"/>
<svg id="graph" class="graph">
<g id="viewport">
<title>App_VirtualMapping.cpp</title>
<!-- Node0 -->
<g id="node1" class="node"><title>Node0</title>
<g id="a_node1"><a xlink:title="Virtual mapping application source file.">
<polygon fill="#bfbfbf" stroke="black" points="58,-280.5 58,-299.5 180,-299.5 180,-280.5 58,-280.5"/>
<text text-anchor="middle" x="119" y="-287.5" font-family="Helvetica,sans-Serif" font-size="10.00">App_VirtualMapping.cpp</text>
</a>
</g>
</g>
<!-- Node1 -->
<g id="node2" class="node"><title>Node1</title>
<g id="a_node2"><a xlink:title=" ">
<polygon fill="none" stroke="#bfbfbf" points="0,-112.5 0,-131.5 58,-131.5 58,-112.5 0,-112.5"/>
<text text-anchor="middle" x="29" y="-119.5" font-family="Helvetica,sans-Serif" font-size="10.00">Arduino.h</text>
</a>
</g>
</g>
<!-- Node0&#45;&gt;Node1 -->
<g id="edge1" class="edge"><title>Node0&#45;&gt;Node1</title>
<path fill="none" stroke="midnightblue" d="M114.161,-280.075C99.8718,-253.719 57.6688,-175.878 38.5751,-140.661"/>
<polygon fill="midnightblue" stroke="midnightblue" points="41.4885,-138.691 33.6454,-131.568 35.3348,-142.027 41.4885,-138.691"/>
</g>
<!-- Node2 -->
<g id="node3" class="node"><title>Node2</title>
<g id="a_node3"><a xlink:href="_a_d_a_s___debug_8h.html" target="_top" xlink:title="This file contains redefinition of the serial functions for debugging purpose.">
<polygon fill="none" stroke="black" points="76.5,-112.5 76.5,-131.5 161.5,-131.5 161.5,-112.5 76.5,-112.5"/>
<text text-anchor="middle" x="119" y="-119.5" font-family="Helvetica,sans-Serif" font-size="10.00">ADAS_Debug.h</text>
</a>
</g>
</g>
<!-- Node0&#45;&gt;Node2 -->
<g id="edge2" class="edge"><title>Node0&#45;&gt;Node2</title>
<path fill="none" stroke="midnightblue" d="M119,-280.075C119,-253.945 119,-177.211 119,-141.577"/>
<polygon fill="midnightblue" stroke="midnightblue" points="122.5,-141.568 119,-131.568 115.5,-141.568 122.5,-141.568"/>
</g>
<!-- Node4 -->
<g id="node5" class="node"><title>Node4</title>
<g id="a_node5"><a xlink:href="_app___virtual_mapping_8h.html" target="_top" xlink:title="Virtual mapping application header file.">
<polygon fill="none" stroke="black" points="293,-224.5 293,-243.5 405,-243.5 405,-224.5 293,-224.5"/>
<text text-anchor="middle" x="349" y="-231.5" font-family="Helvetica,sans-Serif" font-size="10.00">App_VirtualMapping.h</text>
</a>
</g>
</g>
<!-- Node0&#45;&gt;Node4 -->
<g id="edge4" class="edge"><title>Node0&#45;&gt;Node4</title>
<path fill="none" stroke="midnightblue" d="M155.444,-280.444C195.399,-271.063 259.587,-255.993 302.985,-245.804"/>
<polygon fill="midnightblue" stroke="midnightblue" points="303.791,-249.21 312.726,-243.516 302.191,-242.395 303.791,-249.21"/>
</g>
<!-- Node3 -->
<g id="node4" class="node"><title>Node3</title>
<g id="a_node4"><a xlink:href="_a_d_a_s___cfg_8h.html" target="_top" xlink:title="This file contains the configuration of the vehicle.">
<polygon fill="none" stroke="black" points="83.5,-56.5 83.5,-75.5 154.5,-75.5 154.5,-56.5 83.5,-56.5"/>
<text text-anchor="middle" x="119" y="-63.5" font-family="Helvetica,sans-Serif" font-size="10.00">ADAS_Cfg.h</text>
</a>
</g>
</g>
<!-- Node2&#45;&gt;Node3 -->
<g id="edge3" class="edge"><title>Node2&#45;&gt;Node3</title>
<path fill="none" stroke="midnightblue" d="M119,-112.083C119,-105.006 119,-94.8611 119,-85.9865"/>
<polygon fill="midnightblue" stroke="midnightblue" points="122.5,-85.751 119,-75.7511 115.5,-85.7511 122.5,-85.751"/>
</g>
<!-- Node5 -->
<g id="node6" class="node"><title>Node5</title>
<g id="a_node6"><a xlink:href="_task___i_f_8h.html" target="_top" xlink:title="Task controller interface header.">
<polygon fill="none" stroke="black" points="446,-112.5 446,-131.5 502,-131.5 502,-112.5 446,-112.5"/>
<text text-anchor="middle" x="474" y="-119.5" font-family="Helvetica,sans-Serif" font-size="10.00">Task_if.h</text>
</a>
</g>
</g>
<!-- Node4&#45;&gt;Node5 -->
<g id="edge5" class="edge"><title>Node4&#45;&gt;Node5</title>
<path fill="none" stroke="midnightblue" d="M358.809,-224.368C379.893,-205.814 429.781,-161.913 456.457,-138.438"/>
<polygon fill="midnightblue" stroke="midnightblue" points="459.042,-140.825 464.237,-131.591 454.418,-135.57 459.042,-140.825"/>
</g>
<!-- Node6 -->
<g id="node7" class="node"><title>Node6</title>
<g id="a_node7"><a xlink:href="_a_d_a_s___types_8h.html" target="_top" xlink:title="internal datatype mapping file">
<polygon fill="none" stroke="black" points="359.5,-0.5 359.5,-19.5 442.5,-19.5 442.5,-0.5 359.5,-0.5"/>
<text text-anchor="middle" x="401" y="-7.5" font-family="Helvetica,sans-Serif" font-size="10.00">ADAS_Types.h</text>
</a>
</g>
</g>
<!-- Node4&#45;&gt;Node6 -->
<g id="edge7" class="edge"><title>Node4&#45;&gt;Node6</title>
<path fill="none" stroke="midnightblue" d="M378.758,-224.489C417.429,-211.626 483.277,-183.135 511,-132 535.615,-86.5974 469.701,-44.621 429.489,-24.1281"/>
<polygon fill="midnightblue" stroke="midnightblue" points="430.889,-20.9159 420.373,-19.623 427.788,-27.1914 430.889,-20.9159"/>
</g>
<!-- Node7 -->
<g id="node8" class="node"><title>Node7</title>
<g id="a_node8"><a xlink:href="_comm___p_l_s_8h.html" target="_top" xlink:title=" ">
<polygon fill="none" stroke="black" points="310.5,-112.5 310.5,-131.5 387.5,-131.5 387.5,-112.5 310.5,-112.5"/>
<text text-anchor="middle" x="349" y="-119.5" font-family="Helvetica,sans-Serif" font-size="10.00">Comm_PLS.h</text>
</a>
</g>
</g>
<!-- Node4&#45;&gt;Node7 -->
<g id="edge8" class="edge"><title>Node4&#45;&gt;Node7</title>
<path fill="none" stroke="midnightblue" d="M349,-224.368C349,-206.617 349,-165.666 349,-141.597"/>
<polygon fill="midnightblue" stroke="midnightblue" points="352.5,-141.591 349,-131.591 345.5,-141.591 352.5,-141.591"/>
</g>
<!-- Node10 -->
<g id="node11" class="node"><title>Node10</title>
<g id="a_node11"><a xlink:href="_app___navigation_8h.html" target="_top" xlink:title="Application file for navigation.">
<polygon fill="none" stroke="black" points="209,-168.5 209,-187.5 301,-187.5 301,-168.5 209,-168.5"/>
<text text-anchor="middle" x="255" y="-175.5" font-family="Helvetica,sans-Serif" font-size="10.00">App_Navigation.h</text>
</a>
</g>
</g>
<!-- Node4&#45;&gt;Node10 -->
<g id="edge15" class="edge"><title>Node4&#45;&gt;Node10</title>
<path fill="none" stroke="midnightblue" d="M333.897,-224.324C319.097,-215.822 296.306,-202.729 279.018,-192.797"/>
<polygon fill="midnightblue" stroke="midnightblue" points="280.48,-189.601 270.065,-187.655 276.993,-195.671 280.48,-189.601"/>
</g>
<!-- Node5&#45;&gt;Node6 -->
<g id="edge6" class="edge"><title>Node5&#45;&gt;Node6</title>
<path fill="none" stroke="midnightblue" d="M472.738,-112.357C470.504,-99.2563 464.918,-73.9948 453,-56 445.172,-44.1799 433.417,-33.6429 423.063,-25.742"/>
<polygon fill="midnightblue" stroke="midnightblue" points="424.961,-22.7952 414.812,-19.755 420.85,-28.4608 424.961,-22.7952"/>
</g>
<!-- Node7&#45;&gt;Node3 -->
<g id="edge10" class="edge"><title>Node7&#45;&gt;Node3</title>
<path fill="none" stroke="midnightblue" d="M312.556,-112.444C272.451,-103.028 207.929,-87.8791 164.526,-77.6887"/>
<polygon fill="midnightblue" stroke="midnightblue" points="165.053,-74.2174 154.518,-75.339 163.453,-81.0321 165.053,-74.2174"/>
</g>
<!-- Node7&#45;&gt;Node6 -->
<g id="edge9" class="edge"><title>Node7&#45;&gt;Node6</title>
<path fill="none" stroke="midnightblue" d="M356.826,-112.3C364.242,-103.65 375.224,-89.7257 382,-76 389.319,-61.1749 394.33,-43.0235 397.361,-29.6736"/>
<polygon fill="midnightblue" stroke="midnightblue" points="400.811,-30.2742 399.447,-19.7675 393.961,-28.8311 400.811,-30.2742"/>
</g>
<!-- Node8 -->
<g id="node9" class="node"><title>Node8</title>
<g id="a_node9"><a xlink:href="_h_a_l___serial___i_f_8h.html" target="_top" xlink:title="Hardware Abstraction Layer (HAL) to serial interface.">
<polygon fill="none" stroke="black" points="211.5,-56.5 211.5,-75.5 298.5,-75.5 298.5,-56.5 211.5,-56.5"/>
<text text-anchor="middle" x="255" y="-63.5" font-family="Helvetica,sans-Serif" font-size="10.00">HAL_Serial_IF.h</text>
</a>
</g>
</g>
<!-- Node7&#45;&gt;Node8 -->
<g id="edge11" class="edge"><title>Node7&#45;&gt;Node8</title>
<path fill="none" stroke="midnightblue" d="M333.897,-112.324C319.097,-103.822 296.306,-90.7288 279.018,-80.7975"/>
<polygon fill="midnightblue" stroke="midnightblue" points="280.48,-77.6009 270.065,-75.6545 276.993,-83.6707 280.48,-77.6009"/>
</g>
<!-- Node9 -->
<g id="node10" class="node"><title>Node9</title>
<g id="a_node10"><a xlink:href="_cbuffer_8h.html" target="_top" xlink:title="general purpose buffer">
<polygon fill="none" stroke="black" points="317,-56.5 317,-75.5 373,-75.5 373,-56.5 317,-56.5"/>
<text text-anchor="middle" x="345" y="-63.5" font-family="Helvetica,sans-Serif" font-size="10.00">CBuffer.h</text>
</a>
</g>
</g>
<!-- Node7&#45;&gt;Node9 -->
<g id="edge13" class="edge"><title>Node7&#45;&gt;Node9</title>
<path fill="none" stroke="midnightblue" d="M348.339,-112.083C347.815,-105.006 347.064,-94.8611 346.406,-85.9865"/>
<polygon fill="midnightblue" stroke="midnightblue" points="349.877,-85.4652 345.648,-75.7511 342.897,-85.9823 349.877,-85.4652"/>
</g>
<!-- Node8&#45;&gt;Node6 -->
<g id="edge12" class="edge"><title>Node8&#45;&gt;Node6</title>
<path fill="none" stroke="midnightblue" d="M278.134,-56.4435C302.482,-47.4381 341.007,-33.1891 368.423,-23.049"/>
<polygon fill="midnightblue" stroke="midnightblue" points="369.809,-26.2681 377.974,-19.5164 367.381,-19.7028 369.809,-26.2681"/>
</g>
<!-- Node9&#45;&gt;Node6 -->
<g id="edge14" class="edge"><title>Node9&#45;&gt;Node6</title>
<path fill="none" stroke="midnightblue" d="M353.997,-56.324C362.194,-48.4196 374.506,-36.5482 384.472,-26.9377"/>
<polygon fill="midnightblue" stroke="midnightblue" points="387.07,-29.2947 391.839,-19.8339 382.211,-24.2558 387.07,-29.2947"/>
</g>
<!-- Node10&#45;&gt;Node1 -->
<g id="edge16" class="edge"><title>Node10&#45;&gt;Node1</title>
<path fill="none" stroke="midnightblue" d="M219.19,-168.444C178.025,-158.608 110.683,-142.517 68.1588,-132.357"/>
<polygon fill="midnightblue" stroke="midnightblue" points="68.7145,-128.891 58.1748,-129.971 67.0876,-135.699 68.7145,-128.891"/>
</g>
<!-- Node10&#45;&gt;Node2 -->
<g id="edge20" class="edge"><title>Node10&#45;&gt;Node2</title>
<path fill="none" stroke="midnightblue" d="M233.45,-168.444C210.969,-159.517 175.512,-145.439 150.02,-135.317"/>
<polygon fill="midnightblue" stroke="midnightblue" points="151.035,-131.954 140.449,-131.516 148.451,-138.46 151.035,-131.954"/>
</g>
<!-- Node10&#45;&gt;Node3 -->
<g id="edge19" class="edge"><title>Node10&#45;&gt;Node3</title>
<path fill="none" stroke="midnightblue" d="M244.328,-168.368C221.289,-149.733 166.64,-105.532 137.711,-82.1338"/>
<polygon fill="midnightblue" stroke="midnightblue" points="139.598,-79.1589 129.622,-75.5914 135.196,-84.6014 139.598,-79.1589"/>
</g>
<!-- Node10&#45;&gt;Node5 -->
<g id="edge17" class="edge"><title>Node10&#45;&gt;Node5</title>
<path fill="none" stroke="midnightblue" d="M289.701,-168.444C329.506,-158.629 394.571,-142.585 435.792,-132.421"/>
<polygon fill="midnightblue" stroke="midnightblue" points="436.858,-135.763 445.729,-129.971 435.182,-128.967 436.858,-135.763"/>
</g>
<!-- Node10&#45;&gt;Node6 -->
<g id="edge18" class="edge"><title>Node10&#45;&gt;Node6</title>
<path fill="none" stroke="midnightblue" d="M301.18,-175.571C333.521,-171.886 374.782,-161.239 397,-132 419.598,-102.262 412.751,-55.5055 406.448,-29.6869"/>
<polygon fill="midnightblue" stroke="midnightblue" points="409.748,-28.4794 403.783,-19.7234 402.986,-30.2882 409.748,-28.4794"/>
</g>
<!-- Node11 -->
<g id="node12" class="node"><title>Node11</title>
<g id="a_node12"><a xlink:href="_comm___i_c_c_8h.html" target="_top" xlink:title="Communication file for Inter&#45;Controller Communication (ICC)">
<polygon fill="none" stroke="black" points="218,-112.5 218,-131.5 292,-131.5 292,-112.5 218,-112.5"/>
<text text-anchor="middle" x="255" y="-119.5" font-family="Helvetica,sans-Serif" font-size="10.00">Comm_ICC.h</text>
</a>
</g>
</g>
<!-- Node10&#45;&gt;Node11 -->
<g id="edge21" class="edge"><title>Node10&#45;&gt;Node11</title>
<path fill="none" stroke="midnightblue" d="M255,-168.083C255,-161.006 255,-150.861 255,-141.986"/>
<polygon fill="midnightblue" stroke="midnightblue" points="258.5,-141.751 255,-131.751 251.5,-141.751 258.5,-141.751"/>
</g>
<!-- Node11&#45;&gt;Node3 -->
<g id="edge23" class="edge"><title>Node11&#45;&gt;Node3</title>
<path fill="none" stroke="midnightblue" d="M233.45,-112.444C210.969,-103.517 175.512,-89.4387 150.02,-79.3168"/>
<polygon fill="midnightblue" stroke="midnightblue" points="151.035,-75.9539 140.449,-75.5164 148.451,-82.4598 151.035,-75.9539"/>
</g>
<!-- Node11&#45;&gt;Node6 -->
<g id="edge22" class="edge"><title>Node11&#45;&gt;Node6</title>
<path fill="none" stroke="midnightblue" d="M239.084,-112.422C218.124,-100.027 185.729,-76.3609 202,-56 220.087,-33.366 296.323,-21.2833 349.003,-15.5096"/>
<polygon fill="midnightblue" stroke="midnightblue" points="349.621,-18.964 359.201,-14.4378 348.89,-12.0024 349.621,-18.964"/>
</g>
<!-- Node11&#45;&gt;Node8 -->
<g id="edge24" class="edge"><title>Node11&#45;&gt;Node8</title>
<path fill="none" stroke="midnightblue" d="M255,-112.083C255,-105.006 255,-94.8611 255,-85.9865"/>
<polygon fill="midnightblue" stroke="midnightblue" points="258.5,-85.751 255,-75.7511 251.5,-85.7511 258.5,-85.751"/>
</g>
<!-- Node11&#45;&gt;Node9 -->
<g id="edge25" class="edge"><title>Node11&#45;&gt;Node9</title>
<path fill="none" stroke="midnightblue" d="M269.46,-112.324C283.5,-103.9 305.048,-90.9709 321.543,-81.0741"/>
<polygon fill="midnightblue" stroke="midnightblue" points="323.802,-83.8007 330.576,-75.6545 320.2,-77.7983 323.802,-83.8007"/>
</g>
</g>
</svg>
        <g id="navigator" transform="translate(0 0)" fill="#404254">
                <rect fill="#f2f5e9" fill-opacity="0.5" stroke="#606060" stroke-width=".5" x="0" y="0" width="60" height="60"/>
                <use id="zoomplus" xlink:href="#zoomPlus" x="17" y="9" onmousedown="handleZoom(evt,'in')"/>
                <use id="zoomminus" xlink:href="#zoomMin" x="42" y="9" onmousedown="handleZoom(evt,'out')"/>
                <use id="reset" xlink:href="#resetDef" x="30" y="36" onmousedown="handleReset()"/>
                <g id="arrowUp" xlink:href="#dirArrow" transform="translate(30 24)" onmousedown="handlePan(0,-1)">
                  <use xlink:href="#rim" fill="#404040">
                        <set attributeName="fill" to="#808080" begin="arrowUp.mouseover" end="arrowUp.mouseout"/>
                  </use>
                  <path fill="none" stroke="white" stroke-width="1.5" d="M0,-3.0v7 M-2.5,-0.5L0,-3.0L2.5,-0.5"/>
                </g>
                <g id="arrowRight" xlink:href="#dirArrow" transform="rotate(90) translate(36 -43)" onmousedown="handlePan(1,0)">
                  <use xlink:href="#rim" fill="#404040">
                        <set attributeName="fill" to="#808080" begin="arrowRight.mouseover" end="arrowRight.mouseout"/>
                  </use>
                  <path fill="none" stroke="white" stroke-width="1.5" d="M0,-3.0v7 M-2.5,-0.5L0,-3.0L2.5,-0.5"/>
                </g>
                <g id="arrowDown" xlink:href="#dirArrow" transform="rotate(180) translate(-30 -48)" onmousedown="handlePan(0,1)">
                  <use xlink:href="#rim" fill="#404040">
                        <set attributeName="fill" to="#808080" begin="arrowDown.mouseover" end="arrowDown.mouseout"/>
                  </use>
                  <path fill="none" stroke="white" stroke-width="1.5" d="M0,-3.0v7 M-2.5,-0.5L0,-3.0L2.5,-0.5"/>
                </g>
                <g id="arrowLeft" xlink:href="#dirArrow" transform="rotate(270) translate(-36 17)" onmousedown="handlePan(-1,0)">
                  <use xlink:href="#rim" fill="#404040">
                        <set attributeName="fill" to="#808080" begin="arrowLeft.mouseover" end="arrowLeft.mouseout"/>
                  </use>
                  <path fill="none" stroke="white" stroke-width="1.5" d="M0,-3.0v7 M-2.5,-0.5L0,-3.0L2.5,-0.5"/>
                </g>
        </g>
        <svg viewBox="0 0 15 15" width="100%" height="30px" preserveAspectRatio="xMaxYMin meet">
         <g id="arrow_out" transform="scale(0.3 0.3)">
          <a xlink:href="_app___virtual_mapping_8cpp__incl_org.svg" target="_base">
           <rect id="button" ry="5" rx="5" y="6" x="6" height="38" width="38"
                fill="#f2f5e9" fill-opacity="0.5" stroke="#606060" stroke-width="1.0"/>
           <path id="arrow"
             d="M 11.500037,31.436501 C 11.940474,20.09759 22.043105,11.32322 32.158766,21.979434 L 37.068811,17.246167 C 37.068811,17.246167 37.088388,32 37.088388,32 L 22.160133,31.978069 C 22.160133,31.978069 26.997745,27.140456 26.997745,27.140456 C 18.528582,18.264221 13.291696,25.230495 11.500037,31.436501 z"
             style="fill:#404040;"/>
          </a>
         </g>
        </svg>
</svg>
