<?xml version="1.0" encoding="UTF-8" standalone="no"?>
<!DOCTYPE svg PUBLIC "-//W3C//DTD SVG 1.1//EN"
 "http://www.w3.org/Graphics/SVG/1.1/DTD/svg11.dtd">
<!-- Generated by graphviz version 2.38.0 (20140413.2041)
 -->
<!-- Title: App_EnvironmentalData.cpp Pages: 1 -->
<svg width="332pt" height="196pt"
 viewBox="0.00 0.00 331.50 196.00" xmlns="http://www.w3.org/2000/svg" xmlns:xlink="http://www.w3.org/1999/xlink">
<g id="graph0" class="graph" transform="scale(1 1) rotate(0) translate(4 192)">
<title>App_EnvironmentalData.cpp</title>
<!-- Node0 -->
<g id="node1" class="node"><title>Node0</title>
<polygon fill="#bfbfbf" stroke="black" points="132.5,-168.5 132.5,-187.5 271.5,-187.5 271.5,-168.5 132.5,-168.5"/>
<text text-anchor="middle" x="202" y="-175.5" font-family="Helvetica,sans-Serif" font-size="10.00">App_EnvironmentalData.cpp</text>
</g>
<!-- Node1 -->
<g id="node2" class="node"><title>Node1</title>
<g id="a_node2"><a xlink:href="_app___environmental_data_8h.html" target="_top" xlink:title="Application file for environmental data. ">
<polygon fill="none" stroke="black" points="83,-112.5 83,-131.5 211,-131.5 211,-112.5 83,-112.5"/>
<text text-anchor="middle" x="147" y="-119.5" font-family="Helvetica,sans-Serif" font-size="10.00">App_EnvironmentalData.h</text>
</a>
</g>
</g>
<!-- Node0&#45;&gt;Node1 -->
<g id="edge1" class="edge"><title>Node0&#45;&gt;Node1</title>
<path fill="none" stroke="midnightblue" d="M192.918,-168.083C184.829,-160.141 172.805,-148.335 163.09,-138.797"/>
<polygon fill="midnightblue" stroke="midnightblue" points="165.501,-136.26 155.913,-131.751 160.597,-141.254 165.501,-136.26"/>
</g>
<!-- Node7 -->
<g id="node8" class="node"><title>Node7</title>
<polygon fill="none" stroke="#bfbfbf" points="229,-112.5 229,-131.5 287,-131.5 287,-112.5 229,-112.5"/>
<text text-anchor="middle" x="258" y="-119.5" font-family="Helvetica,sans-Serif" font-size="10.00">Arduino.h</text>
</g>
<!-- Node0&#45;&gt;Node7 -->
<g id="edge10" class="edge"><title>Node0&#45;&gt;Node7</title>
<path fill="none" stroke="midnightblue" d="M210.997,-168.324C219.194,-160.42 231.506,-148.548 241.472,-138.938"/>
<polygon fill="midnightblue" stroke="midnightblue" points="244.07,-141.295 248.839,-131.834 239.211,-136.256 244.07,-141.295"/>
</g>
<!-- Node2 -->
<g id="node3" class="node"><title>Node2</title>
<g id="a_node3"><a xlink:href="_task___i_f_8h.html" target="_top" xlink:title="Task_if.h">
<polygon fill="none" stroke="black" points="0,-56.5 0,-75.5 56,-75.5 56,-56.5 0,-56.5"/>
<text text-anchor="middle" x="28" y="-63.5" font-family="Helvetica,sans-Serif" font-size="10.00">Task_if.h</text>
</a>
</g>
</g>
<!-- Node1&#45;&gt;Node2 -->
<g id="edge2" class="edge"><title>Node1&#45;&gt;Node2</title>
<path fill="none" stroke="midnightblue" d="M128.144,-112.444C108.734,-103.636 78.2699,-89.8116 56.0355,-79.722"/>
<polygon fill="midnightblue" stroke="midnightblue" points="57.3203,-76.4615 46.7677,-75.5164 54.4277,-82.836 57.3203,-76.4615"/>
</g>
<!-- Node3 -->
<g id="node4" class="node"><title>Node3</title>
<g id="a_node4"><a xlink:href="_a_d_a_s___types_8h.html" target="_top" xlink:title="ADAS_Types.h">
<polygon fill="none" stroke="black" points="42.5,-0.5 42.5,-19.5 125.5,-19.5 125.5,-0.5 42.5,-0.5"/>
<text text-anchor="middle" x="84" y="-7.5" font-family="Helvetica,sans-Serif" font-size="10.00">ADAS_Types.h</text>
</a>
</g>
</g>
<!-- Node1&#45;&gt;Node3 -->
<g id="edge4" class="edge"><title>Node1&#45;&gt;Node3</title>
<path fill="none" stroke="midnightblue" d="M135.657,-112.179C125.693,-103.859 111.496,-90.5244 103,-76 94.5595,-61.5704 89.6337,-43.1178 86.9222,-29.5626"/>
<polygon fill="midnightblue" stroke="midnightblue" points="90.3338,-28.7564 85.1367,-19.5238 83.442,-29.9822 90.3338,-28.7564"/>
</g>
<!-- Node4 -->
<g id="node5" class="node"><title>Node4</title>
<g id="a_node5"><a xlink:href="_a_d_a_s___cfg_8h.html" target="_top" xlink:title="This file contains the configuration of the vehicle. ">
<polygon fill="none" stroke="black" points="209.5,-0.5 209.5,-19.5 280.5,-19.5 280.5,-0.5 209.5,-0.5"/>
<text text-anchor="middle" x="245" y="-7.5" font-family="Helvetica,sans-Serif" font-size="10.00">ADAS_Cfg.h</text>
</a>
</g>
</g>
<!-- Node1&#45;&gt;Node4 -->
<g id="edge5" class="edge"><title>Node1&#45;&gt;Node4</title>
<path fill="none" stroke="midnightblue" d="M155.728,-112.185C164.532,-103.219 178.439,-88.8551 190,-76 204.596,-59.7709 220.652,-40.639 231.628,-27.352"/>
<polygon fill="midnightblue" stroke="midnightblue" points="234.392,-29.5007 238.041,-19.5538 228.986,-25.0546 234.392,-29.5007"/>
</g>
<!-- Node5 -->
<g id="node6" class="node"><title>Node5</title>
<g id="a_node6"><a xlink:href="_a_d_a_s___debug_8h.html" target="_top" xlink:title="This file contains redefinition of the serial functions for debugging purpose. ">
<polygon fill="none" stroke="black" points="238.5,-56.5 238.5,-75.5 323.5,-75.5 323.5,-56.5 238.5,-56.5"/>
<text text-anchor="middle" x="281" y="-63.5" font-family="Helvetica,sans-Serif" font-size="10.00">ADAS_Debug.h</text>
</a>
</g>
</g>
<!-- Node1&#45;&gt;Node5 -->
<g id="edge6" class="edge"><title>Node1&#45;&gt;Node5</title>
<path fill="none" stroke="midnightblue" d="M168.233,-112.444C190.384,-103.517 225.319,-89.4387 250.436,-79.3168"/>
<polygon fill="midnightblue" stroke="midnightblue" points="251.9,-82.5006 259.867,-75.5164 249.283,-76.0079 251.9,-82.5006"/>
</g>
<!-- Node6 -->
<g id="node7" class="node"><title>Node6</title>
<g id="a_node7"><a xlink:href="_h_a_l___a_d_c_8h.html" target="_top" xlink:title="Hardware Abstraction Layer (HAL) to interface ADC. ">
<polygon fill="none" stroke="black" points="112.5,-56.5 112.5,-75.5 181.5,-75.5 181.5,-56.5 112.5,-56.5"/>
<text text-anchor="middle" x="147" y="-63.5" font-family="Helvetica,sans-Serif" font-size="10.00">HAL_ADC.h</text>
</a>
</g>
</g>
<!-- Node1&#45;&gt;Node6 -->
<g id="edge8" class="edge"><title>Node1&#45;&gt;Node6</title>
<path fill="none" stroke="midnightblue" d="M147,-112.083C147,-105.006 147,-94.8611 147,-85.9865"/>
<polygon fill="midnightblue" stroke="midnightblue" points="150.5,-85.751 147,-75.7511 143.5,-85.7511 150.5,-85.751"/>
</g>
<!-- Node2&#45;&gt;Node3 -->
<g id="edge3" class="edge"><title>Node2&#45;&gt;Node3</title>
<path fill="none" stroke="midnightblue" d="M36.9974,-56.324C45.1944,-48.4196 57.5055,-36.5482 67.472,-26.9377"/>
<polygon fill="midnightblue" stroke="midnightblue" points="70.0699,-29.2947 74.8389,-19.8339 65.211,-24.2558 70.0699,-29.2947"/>
</g>
<!-- Node5&#45;&gt;Node4 -->
<g id="edge7" class="edge"><title>Node5&#45;&gt;Node4</title>
<path fill="none" stroke="midnightblue" d="M275.055,-56.083C270.023,-48.5341 262.663,-37.4948 256.487,-28.2298"/>
<polygon fill="midnightblue" stroke="midnightblue" points="259.293,-26.1301 250.834,-19.7511 253.469,-30.0131 259.293,-26.1301"/>
</g>
<!-- Node6&#45;&gt;Node3 -->
<g id="edge9" class="edge"><title>Node6&#45;&gt;Node3</title>
<path fill="none" stroke="midnightblue" d="M136.878,-56.324C127.474,-48.2631 113.256,-36.0765 101.931,-26.3695"/>
<polygon fill="midnightblue" stroke="midnightblue" points="104.177,-23.6844 94.3062,-19.8339 99.621,-28.9993 104.177,-23.6844"/>
</g>
</g>
</svg>
