<?xml version="1.0" encoding="UTF-8" standalone="no"?>
<!DOCTYPE svg PUBLIC "-//W3C//DTD SVG 1.1//EN"
 "http://www.w3.org/Graphics/SVG/1.1/DTD/svg11.dtd">
<!-- Generated by graphviz version 2.38.0 (20140413.2041)
 -->
<!-- Title: App_UserInterface.cpp Pages: 1 -->
<svg width="192pt" height="196pt"
 viewBox="0.00 0.00 192.00 196.00" xmlns="http://www.w3.org/2000/svg" xmlns:xlink="http://www.w3.org/1999/xlink">
<g id="graph0" class="graph" transform="scale(1 1) rotate(0) translate(4 192)">
<title>App_UserInterface.cpp</title>
<!-- Node0 -->
<g id="node1" class="node"><title>Node0</title>
<polygon fill="#bfbfbf" stroke="black" points="47.5,-168.5 47.5,-187.5 162.5,-187.5 162.5,-168.5 47.5,-168.5"/>
<text text-anchor="middle" x="105" y="-175.5" font-family="Helvetica,sans-Serif" font-size="10.00">App_UserInterface.cpp</text>
</g>
<!-- Node1 -->
<g id="node2" class="node"><title>Node1</title>
<g id="a_node2"><a xlink:href="_app___user_interface_8h.html" target="_top" xlink:title="App_UserInterface.h">
<polygon fill="none" stroke="black" points="4,-112.5 4,-131.5 108,-131.5 108,-112.5 4,-112.5"/>
<text text-anchor="middle" x="56" y="-119.5" font-family="Helvetica,sans-Serif" font-size="10.00">App_UserInterface.h</text>
</a>
</g>
</g>
<!-- Node0&#45;&gt;Node1 -->
<g id="edge1" class="edge"><title>Node0&#45;&gt;Node1</title>
<path fill="none" stroke="midnightblue" d="M96.9086,-168.083C89.8446,-160.298 79.4124,-148.801 70.8511,-139.367"/>
<polygon fill="midnightblue" stroke="midnightblue" points="73.2527,-136.805 63.9408,-131.751 68.0688,-141.509 73.2527,-136.805"/>
</g>
<!-- Node4 -->
<g id="node5" class="node"><title>Node4</title>
<polygon fill="none" stroke="#bfbfbf" points="126,-112.5 126,-131.5 184,-131.5 184,-112.5 126,-112.5"/>
<text text-anchor="middle" x="155" y="-119.5" font-family="Helvetica,sans-Serif" font-size="10.00">Arduino.h</text>
</g>
<!-- Node0&#45;&gt;Node4 -->
<g id="edge5" class="edge"><title>Node0&#45;&gt;Node4</title>
<path fill="none" stroke="midnightblue" d="M113.256,-168.083C120.465,-160.298 131.11,-148.801 139.846,-139.367"/>
<polygon fill="midnightblue" stroke="midnightblue" points="142.671,-141.467 146.897,-131.751 137.535,-136.711 142.671,-141.467"/>
</g>
<!-- Node2 -->
<g id="node3" class="node"><title>Node2</title>
<g id="a_node3"><a xlink:href="_task___i_f_8h.html" target="_top" xlink:title="Task_if.h">
<polygon fill="none" stroke="black" points="0,-56.5 0,-75.5 56,-75.5 56,-56.5 0,-56.5"/>
<text text-anchor="middle" x="28" y="-63.5" font-family="Helvetica,sans-Serif" font-size="10.00">Task_if.h</text>
</a>
</g>
</g>
<!-- Node1&#45;&gt;Node2 -->
<g id="edge2" class="edge"><title>Node1&#45;&gt;Node2</title>
<path fill="none" stroke="midnightblue" d="M51.3764,-112.083C47.5437,-104.691 41.9758,-93.9533 37.2354,-84.8111"/>
<polygon fill="midnightblue" stroke="midnightblue" points="40.248,-83.0175 32.5376,-75.7511 34.0337,-86.2398 40.248,-83.0175"/>
</g>
<!-- Node3 -->
<g id="node4" class="node"><title>Node3</title>
<g id="a_node4"><a xlink:href="_a_d_a_s___types_8h.html" target="_top" xlink:title="ADAS_Types.h">
<polygon fill="none" stroke="black" points="14.5,-0.5 14.5,-19.5 97.5,-19.5 97.5,-0.5 14.5,-0.5"/>
<text text-anchor="middle" x="56" y="-7.5" font-family="Helvetica,sans-Serif" font-size="10.00">ADAS_Types.h</text>
</a>
</g>
</g>
<!-- Node1&#45;&gt;Node3 -->
<g id="edge4" class="edge"><title>Node1&#45;&gt;Node3</title>
<path fill="none" stroke="midnightblue" d="M58.5539,-112.195C61.8665,-99.7219 66.9982,-76.1798 65,-56 64.1256,-47.1697 62.3086,-37.5054 60.5346,-29.4041"/>
<polygon fill="midnightblue" stroke="midnightblue" points="63.9162,-28.4935 58.2348,-19.5508 57.0994,-30.0846 63.9162,-28.4935"/>
</g>
<!-- Node2&#45;&gt;Node3 -->
<g id="edge3" class="edge"><title>Node2&#45;&gt;Node3</title>
<path fill="none" stroke="midnightblue" d="M32.6236,-56.083C36.4563,-48.6913 42.0242,-37.9533 46.7646,-28.8111"/>
<polygon fill="midnightblue" stroke="midnightblue" points="49.9663,-30.2398 51.4624,-19.7511 43.752,-27.0175 49.9663,-30.2398"/>
</g>
</g>
</svg>
