<?xml version="1.0" encoding="UTF-8" standalone="no"?>
<!DOCTYPE svg PUBLIC "-//W3C//DTD SVG 1.1//EN"
 "http://www.w3.org/Graphics/SVG/1.1/DTD/svg11.dtd">
<!-- Generated by graphviz version 2.38.0 (20140413.2041)
 -->
<!-- Title: App_Navigation.cpp Pages: 1 -->
<svg width="453pt" height="252pt"
 viewBox="0.00 0.00 453.00 252.00" xmlns="http://www.w3.org/2000/svg" xmlns:xlink="http://www.w3.org/1999/xlink">
<g id="graph0" class="graph" transform="scale(1 1) rotate(0) translate(4 248)">
<title>App_Navigation.cpp</title>
<!-- Node0 -->
<g id="node1" class="node"><title>Node0</title>
<polygon fill="#bfbfbf" stroke="black" points="31,-224.5 31,-243.5 133,-243.5 133,-224.5 31,-224.5"/>
<text text-anchor="middle" x="82" y="-231.5" font-family="Helvetica,sans-Serif" font-size="10.00">App_Navigation.cpp</text>
</g>
<!-- Node1 -->
<g id="node2" class="node"><title>Node1</title>
<g id="a_node2"><a xlink:href="_app___navigation_8h.html" target="_top" xlink:title="Application file for navigation. ">
<polygon fill="none" stroke="black" points="78,-168.5 78,-187.5 170,-187.5 170,-168.5 78,-168.5"/>
<text text-anchor="middle" x="124" y="-175.5" font-family="Helvetica,sans-Serif" font-size="10.00">App_Navigation.h</text>
</a>
</g>
</g>
<!-- Node0&#45;&gt;Node1 -->
<g id="edge1" class="edge"><title>Node0&#45;&gt;Node1</title>
<path fill="none" stroke="midnightblue" d="M88.9354,-224.083C94.9292,-216.377 103.752,-205.033 111.048,-195.653"/>
<polygon fill="midnightblue" stroke="midnightblue" points="113.817,-197.793 117.194,-187.751 108.291,-193.496 113.817,-197.793"/>
</g>
<!-- Node2 -->
<g id="node3" class="node"><title>Node2</title>
<polygon fill="none" stroke="#bfbfbf" points="0,-112.5 0,-131.5 58,-131.5 58,-112.5 0,-112.5"/>
<text text-anchor="middle" x="29" y="-119.5" font-family="Helvetica,sans-Serif" font-size="10.00">Arduino.h</text>
</g>
<!-- Node0&#45;&gt;Node2 -->
<g id="edge16" class="edge"><title>Node0&#45;&gt;Node2</title>
<path fill="none" stroke="midnightblue" d="M77.8412,-224.368C69.1721,-206.376 49.0197,-164.55 37.4929,-140.627"/>
<polygon fill="midnightblue" stroke="midnightblue" points="40.6333,-139.081 33.1395,-131.591 34.3271,-142.119 40.6333,-139.081"/>
</g>
<!-- Node1&#45;&gt;Node2 -->
<g id="edge2" class="edge"><title>Node1&#45;&gt;Node2</title>
<path fill="none" stroke="midnightblue" d="M108.737,-168.324C93.7786,-159.822 70.7452,-146.729 53.2733,-136.797"/>
<polygon fill="midnightblue" stroke="midnightblue" points="54.6488,-133.553 44.2255,-131.655 51.1896,-139.639 54.6488,-133.553"/>
</g>
<!-- Node3 -->
<g id="node4" class="node"><title>Node3</title>
<g id="a_node4"><a xlink:href="_task___i_f_8h.html" target="_top" xlink:title="Task controller interface header. ">
<polygon fill="none" stroke="black" points="40,-56.5 40,-75.5 96,-75.5 96,-56.5 40,-56.5"/>
<text text-anchor="middle" x="68" y="-63.5" font-family="Helvetica,sans-Serif" font-size="10.00">Task_if.h</text>
</a>
</g>
</g>
<!-- Node1&#45;&gt;Node3 -->
<g id="edge3" class="edge"><title>Node1&#45;&gt;Node3</title>
<path fill="none" stroke="midnightblue" d="M119.606,-168.368C110.446,-150.376 89.1529,-108.55 76.9736,-84.6267"/>
<polygon fill="midnightblue" stroke="midnightblue" points="80.0298,-82.9152 72.3738,-75.5914 73.7916,-86.091 80.0298,-82.9152"/>
</g>
<!-- Node4 -->
<g id="node5" class="node"><title>Node4</title>
<g id="a_node5"><a xlink:href="_a_d_a_s___types_8h.html" target="_top" xlink:title="internal datatype mapping file ">
<polygon fill="none" stroke="black" points="213.5,-0.5 213.5,-19.5 296.5,-19.5 296.5,-0.5 213.5,-0.5"/>
<text text-anchor="middle" x="255" y="-7.5" font-family="Helvetica,sans-Serif" font-size="10.00">ADAS_Types.h</text>
</a>
</g>
</g>
<!-- Node1&#45;&gt;Node4 -->
<g id="edge5" class="edge"><title>Node1&#45;&gt;Node4</title>
<path fill="none" stroke="midnightblue" d="M122.966,-168.245C120.909,-146.6 118.627,-89.8806 146,-56 160.328,-38.2656 182.817,-27.445 203.656,-20.8789"/>
<polygon fill="midnightblue" stroke="midnightblue" points="204.755,-24.2044 213.393,-18.0689 202.815,-17.4789 204.755,-24.2044"/>
</g>
<!-- Node5 -->
<g id="node6" class="node"><title>Node5</title>
<g id="a_node6"><a xlink:href="_a_d_a_s___cfg_8h.html" target="_top" xlink:title="This file contains the configuration of the vehicle. ">
<polygon fill="none" stroke="black" points="155.5,-56.5 155.5,-75.5 226.5,-75.5 226.5,-56.5 155.5,-56.5"/>
<text text-anchor="middle" x="191" y="-63.5" font-family="Helvetica,sans-Serif" font-size="10.00">ADAS_Cfg.h</text>
</a>
</g>
</g>
<!-- Node1&#45;&gt;Node5 -->
<g id="edge6" class="edge"><title>Node1&#45;&gt;Node5</title>
<path fill="none" stroke="midnightblue" d="M129.257,-168.368C140.265,-150.296 165.92,-108.176 180.458,-84.3074"/>
<polygon fill="midnightblue" stroke="midnightblue" points="183.554,-85.9526 185.767,-75.5914 177.576,-82.3112 183.554,-85.9526"/>
</g>
<!-- Node6 -->
<g id="node7" class="node"><title>Node6</title>
<g id="a_node7"><a xlink:href="_a_d_a_s___debug_8h.html" target="_top" xlink:title="This file contains redefinition of the serial functions for debugging purpose. ">
<polygon fill="none" stroke="black" points="190.5,-112.5 190.5,-131.5 275.5,-131.5 275.5,-112.5 190.5,-112.5"/>
<text text-anchor="middle" x="233" y="-119.5" font-family="Helvetica,sans-Serif" font-size="10.00">ADAS_Debug.h</text>
</a>
</g>
</g>
<!-- Node1&#45;&gt;Node6 -->
<g id="edge7" class="edge"><title>Node1&#45;&gt;Node6</title>
<path fill="none" stroke="midnightblue" d="M141.513,-168.324C159.072,-159.625 186.331,-146.12 206.531,-136.113"/>
<polygon fill="midnightblue" stroke="midnightblue" points="208.124,-139.23 215.531,-131.655 205.016,-132.958 208.124,-139.23"/>
</g>
<!-- Node7 -->
<g id="node8" class="node"><title>Node7</title>
<g id="a_node8"><a xlink:href="_comm___i_c_c_8h.html" target="_top" xlink:title="Communication file for Inter&#45;Controller Communication (ICC) ">
<polygon fill="none" stroke="black" points="294,-112.5 294,-131.5 368,-131.5 368,-112.5 294,-112.5"/>
<text text-anchor="middle" x="331" y="-119.5" font-family="Helvetica,sans-Serif" font-size="10.00">Comm_ICC.h</text>
</a>
</g>
</g>
<!-- Node1&#45;&gt;Node7 -->
<g id="edge9" class="edge"><title>Node1&#45;&gt;Node7</title>
<path fill="none" stroke="midnightblue" d="M156.8,-168.444C192.38,-159.162 249.314,-144.309 288.347,-134.127"/>
<polygon fill="midnightblue" stroke="midnightblue" points="289.561,-137.427 298.354,-131.516 287.794,-130.654 289.561,-137.427"/>
</g>
<!-- Node3&#45;&gt;Node4 -->
<g id="edge4" class="edge"><title>Node3&#45;&gt;Node4</title>
<path fill="none" stroke="midnightblue" d="M96.4013,-56.7986C128.248,-47.6021 180.098,-32.6294 215.794,-22.3216"/>
<polygon fill="midnightblue" stroke="midnightblue" points="216.767,-25.6837 225.403,-19.5467 214.825,-18.9585 216.767,-25.6837"/>
</g>
<!-- Node6&#45;&gt;Node5 -->
<g id="edge8" class="edge"><title>Node6&#45;&gt;Node5</title>
<path fill="none" stroke="midnightblue" d="M226.065,-112.083C220.071,-104.377 211.248,-93.0333 203.952,-83.6531"/>
<polygon fill="midnightblue" stroke="midnightblue" points="206.709,-81.4958 197.806,-75.7511 201.183,-85.7934 206.709,-81.4958"/>
</g>
<!-- Node7&#45;&gt;Node4 -->
<g id="edge10" class="edge"><title>Node7&#45;&gt;Node4</title>
<path fill="none" stroke="midnightblue" d="M315.472,-112.465C302.565,-104.603 284.647,-91.783 274,-76 264.652,-62.1414 259.826,-43.6255 257.384,-29.9012"/>
<polygon fill="midnightblue" stroke="midnightblue" points="260.799,-29.0728 255.845,-19.707 253.877,-30.1174 260.799,-29.0728"/>
</g>
<!-- Node7&#45;&gt;Node5 -->
<g id="edge11" class="edge"><title>Node7&#45;&gt;Node5</title>
<path fill="none" stroke="midnightblue" d="M308.817,-112.444C285.572,-103.478 248.851,-89.314 222.585,-79.1827"/>
<polygon fill="midnightblue" stroke="midnightblue" points="223.669,-75.8497 213.08,-75.5164 221.15,-82.3807 223.669,-75.8497"/>
</g>
<!-- Node8 -->
<g id="node9" class="node"><title>Node8</title>
<g id="a_node9"><a xlink:href="_h_a_l___serial___i_f_8h.html" target="_top" xlink:title="Hardware Abstraction Layer (HAL) to serial interface. ">
<polygon fill="none" stroke="black" points="283.5,-56.5 283.5,-75.5 370.5,-75.5 370.5,-56.5 283.5,-56.5"/>
<text text-anchor="middle" x="327" y="-63.5" font-family="Helvetica,sans-Serif" font-size="10.00">HAL_Serial_IF.h</text>
</a>
</g>
</g>
<!-- Node7&#45;&gt;Node8 -->
<g id="edge12" class="edge"><title>Node7&#45;&gt;Node8</title>
<path fill="none" stroke="midnightblue" d="M330.339,-112.083C329.815,-105.006 329.064,-94.8611 328.406,-85.9865"/>
<polygon fill="midnightblue" stroke="midnightblue" points="331.877,-85.4652 327.648,-75.7511 324.897,-85.9823 331.877,-85.4652"/>
</g>
<!-- Node9 -->
<g id="node10" class="node"><title>Node9</title>
<g id="a_node10"><a xlink:href="_cbuffer_8h.html" target="_top" xlink:title="general purpose buffer ">
<polygon fill="none" stroke="black" points="389,-56.5 389,-75.5 445,-75.5 445,-56.5 389,-56.5"/>
<text text-anchor="middle" x="417" y="-63.5" font-family="Helvetica,sans-Serif" font-size="10.00">CBuffer.h</text>
</a>
</g>
</g>
<!-- Node7&#45;&gt;Node9 -->
<g id="edge14" class="edge"><title>Node7&#45;&gt;Node9</title>
<path fill="none" stroke="midnightblue" d="M344.817,-112.324C358.233,-103.9 378.824,-90.9709 394.586,-81.0741"/>
<polygon fill="midnightblue" stroke="midnightblue" points="396.609,-83.9364 403.217,-75.6545 392.887,-78.0081 396.609,-83.9364"/>
</g>
<!-- Node8&#45;&gt;Node4 -->
<g id="edge13" class="edge"><title>Node8&#45;&gt;Node4</title>
<path fill="none" stroke="midnightblue" d="M315.432,-56.324C304.58,-48.1849 288.119,-35.8395 275.117,-26.0874"/>
<polygon fill="midnightblue" stroke="midnightblue" points="276.879,-23.0339 266.779,-19.8339 272.679,-28.6339 276.879,-23.0339"/>
</g>
<!-- Node9&#45;&gt;Node4 -->
<g id="edge15" class="edge"><title>Node9&#45;&gt;Node4</title>
<path fill="none" stroke="midnightblue" d="M391.331,-56.4435C364.077,-47.3591 320.816,-32.9388 290.349,-22.7831"/>
<polygon fill="midnightblue" stroke="midnightblue" points="291.143,-19.3584 280.549,-19.5164 288.929,-25.9992 291.143,-19.3584"/>
</g>
</g>
</svg>
