<?xml version="1.0" encoding="UTF-8" standalone="no"?>
<!DOCTYPE svg PUBLIC "-//W3C//DTD SVG 1.1//EN"
 "http://www.w3.org/Graphics/SVG/1.1/DTD/svg11.dtd">
<!-- Generated by graphviz version 2.38.0 (20140413.2041)
 -->
<!-- Title: App_Positioning.h Pages: 1 -->
<svg width="220pt" height="84pt"
 viewBox="0.00 0.00 219.50 84.00" xmlns="http://www.w3.org/2000/svg" xmlns:xlink="http://www.w3.org/1999/xlink">
<g id="graph0" class="graph" transform="scale(1 1) rotate(0) translate(4 80)">
<title>App_Positioning.h</title>
<!-- Node3 -->
<g id="node1" class="node"><title>Node3</title>
<g id="a_node1"><a xlink:title="template header file for positioning application">
<polygon fill="#bfbfbf" stroke="black" points="53,-56.5 53,-75.5 148,-75.5 148,-56.5 53,-56.5"/>
<text text-anchor="middle" x="100.5" y="-63.5" font-family="Helvetica,sans-Serif" font-size="10.00">App_Positioning.h</text>
</a>
</g>
</g>
<!-- Node4 -->
<g id="node2" class="node"><title>Node4</title>
<g id="a_node2"><a xlink:href="_a_d_a_s___nav_u_8ino.html" target="_top" xlink:title="Main file for the NavU of the ADAS project.">
<polygon fill="none" stroke="black" points="0,-0.5 0,-19.5 87,-19.5 87,-0.5 0,-0.5"/>
<text text-anchor="middle" x="43.5" y="-7.5" font-family="Helvetica,sans-Serif" font-size="10.00">ADAS_NavU.ino</text>
</a>
</g>
</g>
<!-- Node3&#45;&gt;Node4 -->
<g id="edge1" class="edge"><title>Node3&#45;&gt;Node4</title>
<path fill="none" stroke="midnightblue" d="M83.8785,-49.2533C73.766,-39.6731 61.2234,-27.7906 52.8247,-19.8339"/>
<polygon fill="midnightblue" stroke="midnightblue" points="81.6753,-51.9873 91.342,-56.324 86.4895,-46.9056 81.6753,-51.9873"/>
</g>
<!-- Node5 -->
<g id="node3" class="node"><title>Node5</title>
<g id="a_node3"><a xlink:href="_app___positioning_8cpp.html" target="_top" xlink:title="template source file for positioning application">
<polygon fill="none" stroke="black" points="105.5,-0.5 105.5,-19.5 211.5,-19.5 211.5,-0.5 105.5,-0.5"/>
<text text-anchor="middle" x="158.5" y="-7.5" font-family="Helvetica,sans-Serif" font-size="10.00">App_Positioning.cpp</text>
</a>
</g>
</g>
<!-- Node3&#45;&gt;Node5 -->
<g id="edge2" class="edge"><title>Node3&#45;&gt;Node5</title>
<path fill="none" stroke="midnightblue" d="M117.413,-49.2533C127.703,-39.6731 140.466,-27.7906 149.012,-19.8339"/>
<polygon fill="midnightblue" stroke="midnightblue" points="114.753,-46.9481 109.819,-56.324 119.523,-52.0714 114.753,-46.9481"/>
</g>
</g>
</svg>
