<?xml version="1.0" encoding="UTF-8" standalone="no"?>
<!DOCTYPE svg PUBLIC "-//W3C//DTD SVG 1.1//EN"
 "http://www.w3.org/Graphics/SVG/1.1/DTD/svg11.dtd">
<!-- Generated by graphviz version 2.38.0 (20140413.2041)
 -->
<!-- Title: App_VirtualMapping.h Pages: 1 -->
<!--zoomable 252 -->
<svg id="main" version="1.1" xmlns="http://www.w3.org/2000/svg" xmlns:xlink="http://www.w3.org/1999/xlink" xml:space="preserve" onload="init(evt)">
<style type="text/css"><![CDATA[
.edge:hover path { stroke: red; }
.edge:hover polygon { stroke: red; fill: red; }
]]></style>
<script type="text/javascript"><![CDATA[
var edges = document.getElementsByTagName('g');
if (edges && edges.length) {
  for (var i=0;i<edges.length;i++) {
    if (edges[i].id.substr(0,4)=='edge') {
      edges[i].setAttribute('class','edge');
    }
  }
}
]]></script>
        <defs>
                <circle id="rim" cx="0" cy="0" r="7"/>
                <circle id="rim2" cx="0" cy="0" r="3.5"/>
                <g id="zoomPlus">
                        <use xlink:href="#rim" fill="#404040">
                                <set attributeName="fill" to="#808080" begin="zoomplus.mouseover" end="zoomplus.mouseout"/>
                        </use>
                        <path d="M-4,0h8M0,-4v8" fill="none" stroke="white" stroke-width="1.5" pointer-events="none"/>
                </g>
                <g id="zoomMin">
                        <use xlink:href="#rim" fill="#404040">
                                <set attributeName="fill" to="#808080" begin="zoomminus.mouseover" end="zoomminus.mouseout"/>
                        </use>
                        <path d="M-4,0h8" fill="none" stroke="white" stroke-width="1.5" pointer-events="none"/>
                </g>
                <g id="dirArrow">
                        <path fill="none" stroke="white" stroke-width="1.5" d="M0,-3.0v7 M-2.5,-0.5L0,-3.0L2.5,-0.5"/>
                </g>
               <g id="resetDef">
                       <use xlink:href="#rim2" fill="#404040">
                               <set attributeName="fill" to="#808080" begin="reset.mouseover" end="reset.mouseout"/>
                       </use>
               </g>
        </defs>

<script type="text/javascript">
var viewWidth = 535;
var viewHeight = 252;
var sectionId = 'dynsection-0';
</script>
<script xlink:href="svgpan.js"/>
<svg id="graph" class="graph">
<g id="viewport">
<title>App_VirtualMapping.h</title>
<!-- Node0 -->
<g id="node1" class="node"><title>Node0</title>
<polygon fill="#bfbfbf" stroke="black" points="378.556,-224.5 378.556,-243.5 490.556,-243.5 490.556,-224.5 378.556,-224.5"/>
<text text-anchor="middle" x="434.556" y="-231.5" font-family="Helvetica,sans-Serif" font-size="10.00">App_VirtualMapping.h</text>
</g>
<!-- Node1 -->
<g id="node2" class="node"><title>Node1</title>
<g id="a_node2"><a xlink:href="_task___i_f_8h.html" target="_top" xlink:title="Task_if.h">
<polygon fill="none" stroke="black" points="458.556,-112.5 458.556,-131.5 514.556,-131.5 514.556,-112.5 458.556,-112.5"/>
<text text-anchor="middle" x="486.556" y="-119.5" font-family="Helvetica,sans-Serif" font-size="10.00">Task_if.h</text>
</a>
</g>
</g>
<!-- Node0&#45;&gt;Node1 -->
<g id="edge1" class="edge"><title>Node0&#45;&gt;Node1</title>
<path fill="none" stroke="midnightblue" d="M438.636,-224.368C447.104,-206.456 466.737,-164.923 478.071,-140.948"/>
<polygon fill="midnightblue" stroke="midnightblue" points="481.385,-142.128 482.494,-131.591 475.056,-139.136 481.385,-142.128"/>
</g>
<!-- Node2 -->
<g id="node3" class="node"><title>Node2</title>
<g id="a_node3"><a xlink:href="_a_d_a_s___types_8h.html" target="_top" xlink:title="ADAS_Types.h">
<polygon fill="none" stroke="black" points="162.056,-0.5 162.056,-19.5 245.056,-19.5 245.056,-0.5 162.056,-0.5"/>
<text text-anchor="middle" x="203.556" y="-7.5" font-family="Helvetica,sans-Serif" font-size="10.00">ADAS_Types.h</text>
</a>
</g>
</g>
<!-- Node0&#45;&gt;Node2 -->
<g id="edge3" class="edge"><title>Node0&#45;&gt;Node2</title>
<path fill="none" stroke="midnightblue" d="M449.657,-224.258C479.815,-205.571 543.001,-159.55 523.556,-112 510.351,-79.7103 499.478,-72.1498 468.556,-56 400.746,-20.5848 311.113,-12.0739 255.414,-10.5328"/>
<polygon fill="midnightblue" stroke="midnightblue" points="255.154,-7.02667 245.083,-10.3163 255.007,-14.0251 255.154,-7.02667"/>
</g>
<!-- Node3 -->
<g id="node4" class="node"><title>Node3</title>
<g id="a_node4"><a xlink:href="_comm___p_l_s_8h.html" target="_top" xlink:title="Comm_PLS.h">
<polygon fill="none" stroke="black" points="15.0557,-112.5 15.0557,-131.5 92.0557,-131.5 92.0557,-112.5 15.0557,-112.5"/>
<text text-anchor="middle" x="53.5557" y="-119.5" font-family="Helvetica,sans-Serif" font-size="10.00">Comm_PLS.h</text>
</a>
</g>
</g>
<!-- Node0&#45;&gt;Node3 -->
<g id="edge4" class="edge"><title>Node0&#45;&gt;Node3</title>
<path fill="none" stroke="midnightblue" d="M404.976,-224.46C336.958,-204.822 169.414,-156.45 92.8601,-134.348"/>
<polygon fill="midnightblue" stroke="midnightblue" points="93.6947,-130.946 83.1162,-131.535 91.7529,-137.671 93.6947,-130.946"/>
</g>
<!-- Node7 -->
<g id="node8" class="node"><title>Node7</title>
<g id="a_node8"><a xlink:href="_app___navigation_8h.html" target="_top" xlink:title="Application file for navigation. ">
<polygon fill="none" stroke="black" points="346.556,-168.5 346.556,-187.5 438.556,-187.5 438.556,-168.5 346.556,-168.5"/>
<text text-anchor="middle" x="392.556" y="-175.5" font-family="Helvetica,sans-Serif" font-size="10.00">App_Navigation.h</text>
</a>
</g>
</g>
<!-- Node0&#45;&gt;Node7 -->
<g id="edge11" class="edge"><title>Node0&#45;&gt;Node7</title>
<path fill="none" stroke="midnightblue" d="M427.62,-224.083C421.626,-216.377 412.804,-205.033 405.508,-195.653"/>
<polygon fill="midnightblue" stroke="midnightblue" points="408.264,-193.496 399.362,-187.751 402.739,-197.793 408.264,-193.496"/>
</g>
<!-- Node1&#45;&gt;Node2 -->
<g id="edge2" class="edge"><title>Node1&#45;&gt;Node2</title>
<path fill="none" stroke="midnightblue" d="M483.507,-112.201C478.077,-97.9263 465.309,-69.9214 444.556,-56 414.316,-35.7149 316.841,-22.4435 255.514,-15.8719"/>
<polygon fill="midnightblue" stroke="midnightblue" points="255.564,-12.3581 245.254,-14.7986 254.836,-19.3201 255.564,-12.3581"/>
</g>
<!-- Node3&#45;&gt;Node2 -->
<g id="edge5" class="edge"><title>Node3&#45;&gt;Node2</title>
<path fill="none" stroke="midnightblue" d="M38.9653,-112.469C19.3517,-99.934 -11.3244,-75.872 4.55565,-56 22.6429,-33.366 98.8788,-21.2833 151.559,-15.5096"/>
<polygon fill="midnightblue" stroke="midnightblue" points="152.177,-18.964 161.756,-14.4378 151.445,-12.0024 152.177,-18.964"/>
</g>
<!-- Node4 -->
<g id="node5" class="node"><title>Node4</title>
<g id="a_node5"><a xlink:href="_a_d_a_s___cfg_8h.html" target="_top" xlink:title="This file contains the configuration of the vehicle. ">
<polygon fill="none" stroke="black" points="232.056,-56.5 232.056,-75.5 303.056,-75.5 303.056,-56.5 232.056,-56.5"/>
<text text-anchor="middle" x="267.556" y="-63.5" font-family="Helvetica,sans-Serif" font-size="10.00">ADAS_Cfg.h</text>
</a>
</g>
</g>
<!-- Node3&#45;&gt;Node4 -->
<g id="edge6" class="edge"><title>Node3&#45;&gt;Node4</title>
<path fill="none" stroke="midnightblue" d="M87.4646,-112.444C124.405,-103.122 183.609,-88.1828 223.974,-77.9972"/>
<polygon fill="midnightblue" stroke="midnightblue" points="224.966,-81.3568 233.805,-75.5164 223.253,-74.5695 224.966,-81.3568"/>
</g>
<!-- Node5 -->
<g id="node6" class="node"><title>Node5</title>
<g id="a_node6"><a xlink:href="_h_a_l___serial___i_f_8h.html" target="_top" xlink:title="Hardware Abstraction Layer (HAL) to serial interface. ">
<polygon fill="none" stroke="black" points="14.0557,-56.5 14.0557,-75.5 101.056,-75.5 101.056,-56.5 14.0557,-56.5"/>
<text text-anchor="middle" x="57.5557" y="-63.5" font-family="Helvetica,sans-Serif" font-size="10.00">HAL_Serial_IF.h</text>
</a>
</g>
</g>
<!-- Node3&#45;&gt;Node5 -->
<g id="edge7" class="edge"><title>Node3&#45;&gt;Node5</title>
<path fill="none" stroke="midnightblue" d="M54.2162,-112.083C54.7404,-105.006 55.4919,-94.8611 56.1492,-85.9865"/>
<polygon fill="midnightblue" stroke="midnightblue" points="59.6591,-85.9823 56.9074,-75.7511 52.6782,-85.4652 59.6591,-85.9823"/>
</g>
<!-- Node6 -->
<g id="node7" class="node"><title>Node6</title>
<g id="a_node7"><a xlink:href="_cbuffer_8h.html" target="_top" xlink:title="CBuffer.h">
<polygon fill="none" stroke="black" points="119.556,-56.5 119.556,-75.5 175.556,-75.5 175.556,-56.5 119.556,-56.5"/>
<text text-anchor="middle" x="147.556" y="-63.5" font-family="Helvetica,sans-Serif" font-size="10.00">CBuffer.h</text>
</a>
</g>
</g>
<!-- Node3&#45;&gt;Node6 -->
<g id="edge9" class="edge"><title>Node3&#45;&gt;Node6</title>
<path fill="none" stroke="midnightblue" d="M68.6584,-112.324C83.459,-103.822 106.25,-90.7288 123.538,-80.7975"/>
<polygon fill="midnightblue" stroke="midnightblue" points="125.563,-83.6707 132.49,-75.6545 122.076,-77.6009 125.563,-83.6707"/>
</g>
<!-- Node5&#45;&gt;Node2 -->
<g id="edge8" class="edge"><title>Node5&#45;&gt;Node2</title>
<path fill="none" stroke="midnightblue" d="M80.6898,-56.4435C105.038,-47.4381 143.563,-33.1891 170.979,-23.049"/>
<polygon fill="midnightblue" stroke="midnightblue" points="172.365,-26.2681 180.53,-19.5164 169.937,-19.7028 172.365,-26.2681"/>
</g>
<!-- Node6&#45;&gt;Node2 -->
<g id="edge10" class="edge"><title>Node6&#45;&gt;Node2</title>
<path fill="none" stroke="midnightblue" d="M156.553,-56.324C164.75,-48.4196 177.061,-36.5482 187.028,-26.9377"/>
<polygon fill="midnightblue" stroke="midnightblue" points="189.626,-29.2947 194.395,-19.8339 184.767,-24.2558 189.626,-29.2947"/>
</g>
<!-- Node7&#45;&gt;Node1 -->
<g id="edge13" class="edge"><title>Node7&#45;&gt;Node1</title>
<path fill="none" stroke="midnightblue" d="M407.658,-168.324C422.459,-159.822 445.25,-146.729 462.538,-136.797"/>
<polygon fill="midnightblue" stroke="midnightblue" points="464.563,-139.671 471.49,-131.655 461.076,-133.601 464.563,-139.671"/>
</g>
<!-- Node7&#45;&gt;Node2 -->
<g id="edge14" class="edge"><title>Node7&#45;&gt;Node2</title>
<path fill="none" stroke="midnightblue" d="M395.162,-168.399C398.595,-155.354 403.147,-130.164 393.556,-112 366.255,-60.2955 301.315,-34.0607 254.966,-21.4787"/>
<polygon fill="midnightblue" stroke="midnightblue" points="255.644,-18.0389 245.086,-18.925 253.892,-24.8162 255.644,-18.0389"/>
</g>
<!-- Node7&#45;&gt;Node4 -->
<g id="edge15" class="edge"><title>Node7&#45;&gt;Node4</title>
<path fill="none" stroke="midnightblue" d="M392.304,-168.303C391.457,-154.672 387.931,-128.165 373.556,-112 357.843,-94.3309 334.024,-83.3831 312.943,-76.7175"/>
<polygon fill="midnightblue" stroke="midnightblue" points="313.757,-73.3089 303.176,-73.8631 311.793,-80.0278 313.757,-73.3089"/>
</g>
<!-- Node8 -->
<g id="node9" class="node"><title>Node8</title>
<polygon fill="none" stroke="#bfbfbf" points="306.556,-112.5 306.556,-131.5 364.556,-131.5 364.556,-112.5 306.556,-112.5"/>
<text text-anchor="middle" x="335.556" y="-119.5" font-family="Helvetica,sans-Serif" font-size="10.00">Arduino.h</text>
</g>
<!-- Node7&#45;&gt;Node8 -->
<g id="edge12" class="edge"><title>Node7&#45;&gt;Node8</title>
<path fill="none" stroke="midnightblue" d="M383.398,-168.324C375.054,-160.42 362.523,-148.548 352.379,-138.938"/>
<polygon fill="midnightblue" stroke="midnightblue" points="354.547,-136.171 344.88,-131.834 349.733,-141.252 354.547,-136.171"/>
</g>
<!-- Node9 -->
<g id="node10" class="node"><title>Node9</title>
<g id="a_node10"><a xlink:href="_a_d_a_s___debug_8h.html" target="_top" xlink:title="This file contains redefinition of the serial functions for debugging purpose. ">
<polygon fill="none" stroke="black" points="203.056,-112.5 203.056,-131.5 288.056,-131.5 288.056,-112.5 203.056,-112.5"/>
<text text-anchor="middle" x="245.556" y="-119.5" font-family="Helvetica,sans-Serif" font-size="10.00">ADAS_Debug.h</text>
</a>
</g>
</g>
<!-- Node7&#45;&gt;Node9 -->
<g id="edge16" class="edge"><title>Node7&#45;&gt;Node9</title>
<path fill="none" stroke="midnightblue" d="M369.263,-168.444C344.748,-159.438 305.959,-145.189 278.356,-135.049"/>
<polygon fill="midnightblue" stroke="midnightblue" points="279.333,-131.679 268.739,-131.516 276.919,-138.25 279.333,-131.679"/>
</g>
<!-- Node10 -->
<g id="node11" class="node"><title>Node10</title>
<g id="a_node11"><a xlink:href="_comm___i_c_c_8h.html" target="_top" xlink:title="Communication file for Inter&#45;Controller Communication (ICC) ">
<polygon fill="none" stroke="black" points="110.556,-112.5 110.556,-131.5 184.556,-131.5 184.556,-112.5 110.556,-112.5"/>
<text text-anchor="middle" x="147.556" y="-119.5" font-family="Helvetica,sans-Serif" font-size="10.00">Comm_ICC.h</text>
</a>
</g>
</g>
<!-- Node7&#45;&gt;Node10 -->
<g id="edge18" class="edge"><title>Node7&#45;&gt;Node10</title>
<path fill="none" stroke="midnightblue" d="M353.735,-168.444C310.492,-158.913 240.602,-143.508 194.367,-133.318"/>
<polygon fill="midnightblue" stroke="midnightblue" points="195.11,-129.897 184.591,-131.163 193.603,-136.733 195.11,-129.897"/>
</g>
<!-- Node9&#45;&gt;Node4 -->
<g id="edge17" class="edge"><title>Node9&#45;&gt;Node4</title>
<path fill="none" stroke="midnightblue" d="M249.189,-112.083C252.168,-104.77 256.482,-94.1814 260.18,-85.1034"/>
<polygon fill="midnightblue" stroke="midnightblue" points="263.459,-86.3326 263.99,-75.7511 256.976,-83.6914 263.459,-86.3326"/>
</g>
<!-- Node10&#45;&gt;Node2 -->
<g id="edge19" class="edge"><title>Node10&#45;&gt;Node2</title>
<path fill="none" stroke="midnightblue" d="M156.388,-112.477C164.744,-103.958 177.088,-90.1281 184.556,-76 192.282,-61.3832 197.253,-43.2113 200.165,-29.8006"/>
<polygon fill="midnightblue" stroke="midnightblue" points="203.628,-30.3279 202.141,-19.838 196.762,-28.9657 203.628,-30.3279"/>
</g>
<!-- Node10&#45;&gt;Node4 -->
<g id="edge20" class="edge"><title>Node10&#45;&gt;Node4</title>
<path fill="none" stroke="midnightblue" d="M166.57,-112.444C186.143,-103.636 216.863,-89.8116 239.285,-79.722"/>
<polygon fill="midnightblue" stroke="midnightblue" points="240.947,-82.8119 248.63,-75.5164 238.075,-76.4284 240.947,-82.8119"/>
</g>
<!-- Node10&#45;&gt;Node5 -->
<g id="edge21" class="edge"><title>Node10&#45;&gt;Node5</title>
<path fill="none" stroke="midnightblue" d="M133.096,-112.324C119.056,-103.9 97.5072,-90.9709 81.0126,-81.0741"/>
<polygon fill="midnightblue" stroke="midnightblue" points="82.3555,-77.7983 71.9798,-75.6545 78.754,-83.8007 82.3555,-77.7983"/>
</g>
<!-- Node10&#45;&gt;Node6 -->
<g id="edge22" class="edge"><title>Node10&#45;&gt;Node6</title>
<path fill="none" stroke="midnightblue" d="M147.556,-112.083C147.556,-105.006 147.556,-94.8611 147.556,-85.9865"/>
<polygon fill="midnightblue" stroke="midnightblue" points="151.056,-85.751 147.556,-75.7511 144.056,-85.7511 151.056,-85.751"/>
</g>
</g>
</svg>
        <g id="navigator" transform="translate(0 0)" fill="#404254">
                <rect fill="#f2f5e9" fill-opacity="0.5" stroke="#606060" stroke-width=".5" x="0" y="0" width="60" height="60"/>
                <use id="zoomplus" xlink:href="#zoomPlus" x="17" y="9" onmousedown="handleZoom(evt,'in')"/>
                <use id="zoomminus" xlink:href="#zoomMin" x="42" y="9" onmousedown="handleZoom(evt,'out')"/>
                <use id="reset" xlink:href="#resetDef" x="30" y="36" onmousedown="handleReset()"/>
                <g id="arrowUp" xlink:href="#dirArrow" transform="translate(30 24)" onmousedown="handlePan(0,-1)">
                  <use xlink:href="#rim" fill="#404040">
                        <set attributeName="fill" to="#808080" begin="arrowUp.mouseover" end="arrowUp.mouseout"/>
                  </use>
                  <path fill="none" stroke="white" stroke-width="1.5" d="M0,-3.0v7 M-2.5,-0.5L0,-3.0L2.5,-0.5"/>
                </g>
                <g id="arrowRight" xlink:href="#dirArrow" transform="rotate(90) translate(36 -43)" onmousedown="handlePan(1,0)">
                  <use xlink:href="#rim" fill="#404040">
                        <set attributeName="fill" to="#808080" begin="arrowRight.mouseover" end="arrowRight.mouseout"/>
                  </use>
                  <path fill="none" stroke="white" stroke-width="1.5" d="M0,-3.0v7 M-2.5,-0.5L0,-3.0L2.5,-0.5"/>
                </g>
                <g id="arrowDown" xlink:href="#dirArrow" transform="rotate(180) translate(-30 -48)" onmousedown="handlePan(0,1)">
                  <use xlink:href="#rim" fill="#404040">
                        <set attributeName="fill" to="#808080" begin="arrowDown.mouseover" end="arrowDown.mouseout"/>
                  </use>
                  <path fill="none" stroke="white" stroke-width="1.5" d="M0,-3.0v7 M-2.5,-0.5L0,-3.0L2.5,-0.5"/>
                </g>
                <g id="arrowLeft" xlink:href="#dirArrow" transform="rotate(270) translate(-36 17)" onmousedown="handlePan(-1,0)">
                  <use xlink:href="#rim" fill="#404040">
                        <set attributeName="fill" to="#808080" begin="arrowLeft.mouseover" end="arrowLeft.mouseout"/>
                  </use>
                  <path fill="none" stroke="white" stroke-width="1.5" d="M0,-3.0v7 M-2.5,-0.5L0,-3.0L2.5,-0.5"/>
                </g>
        </g>
        <svg viewBox="0 0 15 15" width="100%" height="30px" preserveAspectRatio="xMaxYMin meet">
         <g id="arrow_out" transform="scale(0.3 0.3)">
          <a xlink:href="_app___virtual_mapping_8h__incl_org.svg" target="_base">
           <rect id="button" ry="5" rx="5" y="6" x="6" height="38" width="38"
                fill="#f2f5e9" fill-opacity="0.5" stroke="#606060" stroke-width="1.0"/>
           <path id="arrow"
             d="M 11.500037,31.436501 C 11.940474,20.09759 22.043105,11.32322 32.158766,21.979434 L 37.068811,17.246167 C 37.068811,17.246167 37.088388,32 37.088388,32 L 22.160133,31.978069 C 22.160133,31.978069 26.997745,27.140456 26.997745,27.140456 C 18.528582,18.264221 13.291696,25.230495 11.500037,31.436501 z"
             style="fill:#404040;"/>
          </a>
         </g>
        </svg>
</svg>
