<?xml version="1.0" encoding="UTF-8" standalone="no"?>
<!DOCTYPE svg PUBLIC "-//W3C//DTD SVG 1.1//EN"
 "http://www.w3.org/Graphics/SVG/1.1/DTD/svg11.dtd">
<!-- Generated by graphviz version 2.38.0 (20140413.2041)
 -->
<!-- Title: App_Navigation.h Pages: 1 -->
<svg width="415pt" height="140pt"
 viewBox="0.00 0.00 415.00 140.00" xmlns="http://www.w3.org/2000/svg" xmlns:xlink="http://www.w3.org/1999/xlink">
<g id="graph0" class="graph" transform="scale(1 1) rotate(0) translate(4 136)">
<title>App_Navigation.h</title>
<!-- Node9 -->
<g id="node1" class="node"><title>Node9</title>
<polygon fill="#bfbfbf" stroke="black" points="143.5,-112.5 143.5,-131.5 235.5,-131.5 235.5,-112.5 143.5,-112.5"/>
<text text-anchor="middle" x="189.5" y="-119.5" font-family="Helvetica,sans-Serif" font-size="10.00">App_Navigation.h</text>
</g>
<!-- Node10 -->
<g id="node2" class="node"><title>Node10</title>
<g id="a_node2"><a xlink:href="_a_d_a_s___nav_u_8ino.html" target="_top" xlink:title="Main file for the NavU of the ADAS project. ">
<polygon fill="none" stroke="black" points="0,-0.5 0,-19.5 87,-19.5 87,-0.5 0,-0.5"/>
<text text-anchor="middle" x="43.5" y="-7.5" font-family="Helvetica,sans-Serif" font-size="10.00">ADAS_NavU.ino</text>
</a>
</g>
</g>
<!-- Node9&#45;&gt;Node10 -->
<g id="edge1" class="edge"><title>Node9&#45;&gt;Node10</title>
<path fill="none" stroke="midnightblue" d="M133.266,-112.897C108.551,-106.641 81.0022,-95.5712 62.5,-76 47.6387,-60.28 44.3251,-33.5784 43.6367,-19.8022"/>
<polygon fill="midnightblue" stroke="midnightblue" points="132.757,-116.371 143.289,-115.218 134.337,-109.552 132.757,-116.371"/>
</g>
<!-- Node11 -->
<g id="node3" class="node"><title>Node11</title>
<g id="a_node3"><a xlink:href="_app___virtual_mapping_8h.html" target="_top" xlink:title="Virtual mapping application header file. ">
<polygon fill="none" stroke="black" points="71.5,-56.5 71.5,-75.5 183.5,-75.5 183.5,-56.5 71.5,-56.5"/>
<text text-anchor="middle" x="127.5" y="-63.5" font-family="Helvetica,sans-Serif" font-size="10.00">App_VirtualMapping.h</text>
</a>
</g>
</g>
<!-- Node9&#45;&gt;Node11 -->
<g id="edge2" class="edge"><title>Node9&#45;&gt;Node11</title>
<path fill="none" stroke="midnightblue" d="M171.746,-105.537C160.692,-95.9087 146.869,-83.8694 137.643,-75.8339"/>
<polygon fill="midnightblue" stroke="midnightblue" points="169.699,-108.395 179.539,-112.324 174.297,-103.117 169.699,-108.395"/>
</g>
<!-- Node13 -->
<g id="node5" class="node"><title>Node13</title>
<g id="a_node5"><a xlink:href="_app___navigation_8cpp.html" target="_top" xlink:title="Application file for navigation. ">
<polygon fill="none" stroke="black" points="201.5,-56.5 201.5,-75.5 303.5,-75.5 303.5,-56.5 201.5,-56.5"/>
<text text-anchor="middle" x="252.5" y="-63.5" font-family="Helvetica,sans-Serif" font-size="10.00">App_Navigation.cpp</text>
</a>
</g>
</g>
<!-- Node9&#45;&gt;Node13 -->
<g id="edge5" class="edge"><title>Node9&#45;&gt;Node13</title>
<path fill="none" stroke="midnightblue" d="M207.54,-105.537C218.773,-95.9087 232.819,-83.8694 242.194,-75.8339"/>
<polygon fill="midnightblue" stroke="midnightblue" points="204.937,-103.159 199.622,-112.324 209.492,-108.473 204.937,-103.159"/>
</g>
<!-- Node14 -->
<g id="node6" class="node"><title>Node14</title>
<g id="a_node6"><a xlink:href="_comm___i_c_c_8cpp.html" target="_top" xlink:title="Communication file for Inter&#45;Controller Communication (ICC) ">
<polygon fill="none" stroke="black" points="322,-56.5 322,-75.5 407,-75.5 407,-56.5 322,-56.5"/>
<text text-anchor="middle" x="364.5" y="-63.5" font-family="Helvetica,sans-Serif" font-size="10.00">Comm_ICC.cpp</text>
</a>
</g>
</g>
<!-- Node9&#45;&gt;Node14 -->
<g id="edge6" class="edge"><title>Node9&#45;&gt;Node14</title>
<path fill="none" stroke="midnightblue" d="M226.975,-109.436C259.97,-99.2551 307.256,-84.664 336.9,-75.5164"/>
<polygon fill="midnightblue" stroke="midnightblue" points="225.753,-106.151 217.229,-112.444 227.817,-112.839 225.753,-106.151"/>
</g>
<!-- Node11&#45;&gt;Node10 -->
<g id="edge3" class="edge"><title>Node11&#45;&gt;Node10</title>
<path fill="none" stroke="midnightblue" d="M105.568,-50.9005C90.1645,-40.9986 70.0542,-28.0705 56.9626,-19.6545"/>
<polygon fill="midnightblue" stroke="midnightblue" points="103.699,-53.8605 114.004,-56.324 107.485,-47.9722 103.699,-53.8605"/>
</g>
<!-- Node12 -->
<g id="node4" class="node"><title>Node12</title>
<g id="a_node4"><a xlink:href="_app___virtual_mapping_8cpp.html" target="_top" xlink:title="Virtual mapping application source file. ">
<polygon fill="none" stroke="black" points="105.5,-0.5 105.5,-19.5 227.5,-19.5 227.5,-0.5 105.5,-0.5"/>
<text text-anchor="middle" x="166.5" y="-7.5" font-family="Helvetica,sans-Serif" font-size="10.00">App_VirtualMapping.cpp</text>
</a>
</g>
</g>
<!-- Node11&#45;&gt;Node12 -->
<g id="edge4" class="edge"><title>Node11&#45;&gt;Node12</title>
<path fill="none" stroke="midnightblue" d="M139.882,-47.8554C146.635,-38.5048 154.709,-27.3265 160.18,-19.7511"/>
<polygon fill="midnightblue" stroke="midnightblue" points="136.958,-45.927 133.94,-56.083 142.632,-50.0254 136.958,-45.927"/>
</g>
</g>
</svg>
