<?xml version="1.0" encoding="UTF-8" standalone="no"?>
<!DOCTYPE svg PUBLIC "-//W3C//DTD SVG 1.1//EN"
 "http://www.w3.org/Graphics/SVG/1.1/DTD/svg11.dtd">
<!-- Generated by graphviz version 2.38.0 (20140413.2041)
 -->
<!-- Title: App_UserInterface.h Pages: 1 -->
<svg width="228pt" height="84pt"
 viewBox="0.00 0.00 228.00 84.00" xmlns="http://www.w3.org/2000/svg" xmlns:xlink="http://www.w3.org/1999/xlink">
<g id="graph0" class="graph" transform="scale(1 1) rotate(0) translate(4 80)">
<title>App_UserInterface.h</title>
<!-- Node3 -->
<g id="node1" class="node"><title>Node3</title>
<g id="a_node1"><a xlink:title="template header file for uner interface application">
<polygon fill="#bfbfbf" stroke="black" points="50.5,-56.5 50.5,-75.5 154.5,-75.5 154.5,-56.5 50.5,-56.5"/>
<text text-anchor="middle" x="102.5" y="-63.5" font-family="Helvetica,sans-Serif" font-size="10.00">App_UserInterface.h</text>
</a>
</g>
</g>
<!-- Node4 -->
<g id="node2" class="node"><title>Node4</title>
<g id="a_node2"><a xlink:href="_a_d_a_s___nav_u_8ino.html" target="_top" xlink:title="Main file for the NavU of the ADAS project.">
<polygon fill="none" stroke="black" points="0,-0.5 0,-19.5 87,-19.5 87,-0.5 0,-0.5"/>
<text text-anchor="middle" x="43.5" y="-7.5" font-family="Helvetica,sans-Serif" font-size="10.00">ADAS_NavU.ino</text>
</a>
</g>
</g>
<!-- Node3&#45;&gt;Node4 -->
<g id="edge1" class="edge"><title>Node3&#45;&gt;Node4</title>
<path fill="none" stroke="midnightblue" d="M85.6055,-49.5372C75.0855,-39.9087 61.9313,-27.8694 53.1519,-19.8339"/>
<polygon fill="midnightblue" stroke="midnightblue" points="83.2808,-52.1542 93.0206,-56.324 88.0069,-46.9905 83.2808,-52.1542"/>
</g>
<!-- Node5 -->
<g id="node3" class="node"><title>Node5</title>
<g id="a_node3"><a xlink:href="_app___user_interface_8cpp.html" target="_top" xlink:title="template source file for unser interface application">
<polygon fill="none" stroke="black" points="105,-0.5 105,-19.5 220,-19.5 220,-0.5 105,-0.5"/>
<text text-anchor="middle" x="162.5" y="-7.5" font-family="Helvetica,sans-Serif" font-size="10.00">App_UserInterface.cpp</text>
</a>
</g>
</g>
<!-- Node3&#45;&gt;Node5 -->
<g id="edge2" class="edge"><title>Node3&#45;&gt;Node5</title>
<path fill="none" stroke="midnightblue" d="M119.681,-49.5372C130.379,-39.9087 143.756,-27.8694 152.685,-19.8339"/>
<polygon fill="midnightblue" stroke="midnightblue" points="117.232,-47.0327 112.14,-56.324 121.914,-52.2358 117.232,-47.0327"/>
</g>
</g>
</svg>
