<?xml version="1.0" encoding="UTF-8" standalone="no"?>
<!DOCTYPE svg PUBLIC "-//W3C//DTD SVG 1.1//EN"
 "http://www.w3.org/Graphics/SVG/1.1/DTD/svg11.dtd">
<!-- Generated by graphviz version 2.38.0 (20140413.2041)
 -->
<!-- Title: App_Navigation.h Pages: 1 -->
<svg width="453pt" height="196pt"
 viewBox="0.00 0.00 453.00 196.00" xmlns="http://www.w3.org/2000/svg" xmlns:xlink="http://www.w3.org/1999/xlink">
<g id="graph0" class="graph" transform="scale(1 1) rotate(0) translate(4 192)">
<title>App_Navigation.h</title>
<!-- Node0 -->
<g id="node1" class="node"><title>Node0</title>
<polygon fill="#bfbfbf" stroke="black" points="97,-168.5 97,-187.5 189,-187.5 189,-168.5 97,-168.5"/>
<text text-anchor="middle" x="143" y="-175.5" font-family="Helvetica,sans-Serif" font-size="10.00">App_Navigation.h</text>
</g>
<!-- Node1 -->
<g id="node2" class="node"><title>Node1</title>
<polygon fill="none" stroke="#bfbfbf" points="0,-112.5 0,-131.5 58,-131.5 58,-112.5 0,-112.5"/>
<text text-anchor="middle" x="29" y="-119.5" font-family="Helvetica,sans-Serif" font-size="10.00">Arduino.h</text>
</g>
<!-- Node0&#45;&gt;Node1 -->
<g id="edge1" class="edge"><title>Node0&#45;&gt;Node1</title>
<path fill="none" stroke="midnightblue" d="M124.936,-168.444C106.425,-159.675 77.4193,-145.935 56.1445,-135.858"/>
<polygon fill="midnightblue" stroke="midnightblue" points="57.5148,-132.634 46.9791,-131.516 54.5182,-138.96 57.5148,-132.634"/>
</g>
<!-- Node2 -->
<g id="node3" class="node"><title>Node2</title>
<g id="a_node3"><a xlink:href="_task___i_f_8h.html" target="_top" xlink:title="Task controller interface header. ">
<polygon fill="none" stroke="black" points="40,-56.5 40,-75.5 96,-75.5 96,-56.5 40,-56.5"/>
<text text-anchor="middle" x="68" y="-63.5" font-family="Helvetica,sans-Serif" font-size="10.00">Task_if.h</text>
</a>
</g>
</g>
<!-- Node0&#45;&gt;Node2 -->
<g id="edge2" class="edge"><title>Node0&#45;&gt;Node2</title>
<path fill="none" stroke="midnightblue" d="M136.521,-168.482C129.753,-159.512 118.903,-144.925 110,-132 98.9603,-115.974 86.9678,-97.2747 78.6347,-84.0576"/>
<polygon fill="midnightblue" stroke="midnightblue" points="81.558,-82.1311 73.2797,-75.519 75.6277,-85.8503 81.558,-82.1311"/>
</g>
<!-- Node3 -->
<g id="node4" class="node"><title>Node3</title>
<g id="a_node4"><a xlink:href="_a_d_a_s___types_8h.html" target="_top" xlink:title="internal datatype mapping file ">
<polygon fill="none" stroke="black" points="213.5,-0.5 213.5,-19.5 296.5,-19.5 296.5,-0.5 213.5,-0.5"/>
<text text-anchor="middle" x="255" y="-7.5" font-family="Helvetica,sans-Serif" font-size="10.00">ADAS_Types.h</text>
</a>
</g>
</g>
<!-- Node0&#45;&gt;Node3 -->
<g id="edge4" class="edge"><title>Node0&#45;&gt;Node3</title>
<path fill="none" stroke="midnightblue" d="M140.316,-168.424C134.233,-147.189 121.724,-91.3308 146,-56 159.171,-36.8314 182.117,-25.8138 203.569,-19.4878"/>
<polygon fill="midnightblue" stroke="midnightblue" points="204.518,-22.8569 213.279,-16.8989 202.715,-16.0931 204.518,-22.8569"/>
</g>
<!-- Node4 -->
<g id="node5" class="node"><title>Node4</title>
<g id="a_node5"><a xlink:href="_a_d_a_s___cfg_8h.html" target="_top" xlink:title="This file contains the configuration of the vehicle. ">
<polygon fill="none" stroke="black" points="155.5,-56.5 155.5,-75.5 226.5,-75.5 226.5,-56.5 155.5,-56.5"/>
<text text-anchor="middle" x="191" y="-63.5" font-family="Helvetica,sans-Serif" font-size="10.00">ADAS_Cfg.h</text>
</a>
</g>
</g>
<!-- Node0&#45;&gt;Node4 -->
<g id="edge5" class="edge"><title>Node0&#45;&gt;Node4</title>
<path fill="none" stroke="midnightblue" d="M146.766,-168.368C154.583,-150.456 172.706,-108.923 183.168,-84.9482"/>
<polygon fill="midnightblue" stroke="midnightblue" points="186.459,-86.1566 187.251,-75.5914 180.044,-83.357 186.459,-86.1566"/>
</g>
<!-- Node5 -->
<g id="node6" class="node"><title>Node5</title>
<g id="a_node6"><a xlink:href="_a_d_a_s___debug_8h.html" target="_top" xlink:title="This file contains redefinition of the serial functions for debugging purpose. ">
<polygon fill="none" stroke="black" points="190.5,-112.5 190.5,-131.5 275.5,-131.5 275.5,-112.5 190.5,-112.5"/>
<text text-anchor="middle" x="233" y="-119.5" font-family="Helvetica,sans-Serif" font-size="10.00">ADAS_Debug.h</text>
</a>
</g>
</g>
<!-- Node0&#45;&gt;Node5 -->
<g id="edge6" class="edge"><title>Node0&#45;&gt;Node5</title>
<path fill="none" stroke="midnightblue" d="M157.46,-168.324C171.5,-159.9 193.048,-146.971 209.543,-137.074"/>
<polygon fill="midnightblue" stroke="midnightblue" points="211.802,-139.801 218.576,-131.655 208.2,-133.798 211.802,-139.801"/>
</g>
<!-- Node6 -->
<g id="node7" class="node"><title>Node6</title>
<g id="a_node7"><a xlink:href="_comm___i_c_c_8h.html" target="_top" xlink:title="Communication file for Inter&#45;Controller Communication (ICC) ">
<polygon fill="none" stroke="black" points="294,-112.5 294,-131.5 368,-131.5 368,-112.5 294,-112.5"/>
<text text-anchor="middle" x="331" y="-119.5" font-family="Helvetica,sans-Serif" font-size="10.00">Comm_ICC.h</text>
</a>
</g>
</g>
<!-- Node0&#45;&gt;Node6 -->
<g id="edge8" class="edge"><title>Node0&#45;&gt;Node6</title>
<path fill="none" stroke="midnightblue" d="M172.789,-168.444C204.829,-159.241 255.933,-144.562 291.353,-134.388"/>
<polygon fill="midnightblue" stroke="midnightblue" points="292.705,-137.641 301.35,-131.516 290.773,-130.913 292.705,-137.641"/>
</g>
<!-- Node2&#45;&gt;Node3 -->
<g id="edge3" class="edge"><title>Node2&#45;&gt;Node3</title>
<path fill="none" stroke="midnightblue" d="M96.4013,-56.7986C128.248,-47.6021 180.098,-32.6294 215.794,-22.3216"/>
<polygon fill="midnightblue" stroke="midnightblue" points="216.767,-25.6837 225.403,-19.5467 214.825,-18.9585 216.767,-25.6837"/>
</g>
<!-- Node5&#45;&gt;Node4 -->
<g id="edge7" class="edge"><title>Node5&#45;&gt;Node4</title>
<path fill="none" stroke="midnightblue" d="M226.065,-112.083C220.071,-104.377 211.248,-93.0333 203.952,-83.6531"/>
<polygon fill="midnightblue" stroke="midnightblue" points="206.709,-81.4958 197.806,-75.7511 201.183,-85.7934 206.709,-81.4958"/>
</g>
<!-- Node6&#45;&gt;Node3 -->
<g id="edge9" class="edge"><title>Node6&#45;&gt;Node3</title>
<path fill="none" stroke="midnightblue" d="M315.472,-112.465C302.565,-104.603 284.647,-91.783 274,-76 264.652,-62.1414 259.826,-43.6255 257.384,-29.9012"/>
<polygon fill="midnightblue" stroke="midnightblue" points="260.799,-29.0728 255.845,-19.707 253.877,-30.1174 260.799,-29.0728"/>
</g>
<!-- Node6&#45;&gt;Node4 -->
<g id="edge10" class="edge"><title>Node6&#45;&gt;Node4</title>
<path fill="none" stroke="midnightblue" d="M308.817,-112.444C285.572,-103.478 248.851,-89.314 222.585,-79.1827"/>
<polygon fill="midnightblue" stroke="midnightblue" points="223.669,-75.8497 213.08,-75.5164 221.15,-82.3807 223.669,-75.8497"/>
</g>
<!-- Node7 -->
<g id="node8" class="node"><title>Node7</title>
<g id="a_node8"><a xlink:href="_h_a_l___serial___i_f_8h.html" target="_top" xlink:title="Hardware Abstraction Layer (HAL) to serial interface. ">
<polygon fill="none" stroke="black" points="283.5,-56.5 283.5,-75.5 370.5,-75.5 370.5,-56.5 283.5,-56.5"/>
<text text-anchor="middle" x="327" y="-63.5" font-family="Helvetica,sans-Serif" font-size="10.00">HAL_Serial_IF.h</text>
</a>
</g>
</g>
<!-- Node6&#45;&gt;Node7 -->
<g id="edge11" class="edge"><title>Node6&#45;&gt;Node7</title>
<path fill="none" stroke="midnightblue" d="M330.339,-112.083C329.815,-105.006 329.064,-94.8611 328.406,-85.9865"/>
<polygon fill="midnightblue" stroke="midnightblue" points="331.877,-85.4652 327.648,-75.7511 324.897,-85.9823 331.877,-85.4652"/>
</g>
<!-- Node8 -->
<g id="node9" class="node"><title>Node8</title>
<g id="a_node9"><a xlink:href="_cbuffer_8h.html" target="_top" xlink:title="general purpose buffer ">
<polygon fill="none" stroke="black" points="389,-56.5 389,-75.5 445,-75.5 445,-56.5 389,-56.5"/>
<text text-anchor="middle" x="417" y="-63.5" font-family="Helvetica,sans-Serif" font-size="10.00">CBuffer.h</text>
</a>
</g>
</g>
<!-- Node6&#45;&gt;Node8 -->
<g id="edge13" class="edge"><title>Node6&#45;&gt;Node8</title>
<path fill="none" stroke="midnightblue" d="M344.817,-112.324C358.233,-103.9 378.824,-90.9709 394.586,-81.0741"/>
<polygon fill="midnightblue" stroke="midnightblue" points="396.609,-83.9364 403.217,-75.6545 392.887,-78.0081 396.609,-83.9364"/>
</g>
<!-- Node7&#45;&gt;Node3 -->
<g id="edge12" class="edge"><title>Node7&#45;&gt;Node3</title>
<path fill="none" stroke="midnightblue" d="M315.432,-56.324C304.58,-48.1849 288.119,-35.8395 275.117,-26.0874"/>
<polygon fill="midnightblue" stroke="midnightblue" points="276.879,-23.0339 266.779,-19.8339 272.679,-28.6339 276.879,-23.0339"/>
</g>
<!-- Node8&#45;&gt;Node3 -->
<g id="edge14" class="edge"><title>Node8&#45;&gt;Node3</title>
<path fill="none" stroke="midnightblue" d="M391.331,-56.4435C364.077,-47.3591 320.816,-32.9388 290.349,-22.7831"/>
<polygon fill="midnightblue" stroke="midnightblue" points="291.143,-19.3584 280.549,-19.5164 288.929,-25.9992 291.143,-19.3584"/>
</g>
</g>
</svg>
