<?xml version="1.0" encoding="UTF-8" standalone="no"?>
<!DOCTYPE svg PUBLIC "-//W3C//DTD SVG 1.1//EN"
 "http://www.w3.org/Graphics/SVG/1.1/DTD/svg11.dtd">
<!-- Generated by graphviz version 2.38.0 (20140413.2041)
 -->
<!-- Title: Cbuffer.h Pages: 1 -->
<!--zoomable 252 -->
<svg id="main" version="1.1" xmlns="http://www.w3.org/2000/svg" xmlns:xlink="http://www.w3.org/1999/xlink" xml:space="preserve" onload="init(evt)">
<style type="text/css"><![CDATA[
.edge:hover path { stroke: red; }
.edge:hover polygon { stroke: red; fill: red; }
]]></style>
<script type="text/javascript"><![CDATA[
var edges = document.getElementsByTagName('g');
if (edges && edges.length) {
  for (var i=0;i<edges.length;i++) {
    if (edges[i].id.substr(0,4)=='edge') {
      edges[i].setAttribute('class','edge');
    }
  }
}
]]></script>
        <defs>
                <circle id="rim" cx="0" cy="0" r="7"/>
                <circle id="rim2" cx="0" cy="0" r="3.5"/>
                <g id="zoomPlus">
                        <use xlink:href="#rim" fill="#404040">
                                <set attributeName="fill" to="#808080" begin="zoomplus.mouseover" end="zoomplus.mouseout"/>
                        </use>
                        <path d="M-4,0h8M0,-4v8" fill="none" stroke="white" stroke-width="1.5" pointer-events="none"/>
                </g>
                <g id="zoomMin">
                        <use xlink:href="#rim" fill="#404040">
                                <set attributeName="fill" to="#808080" begin="zoomminus.mouseover" end="zoomminus.mouseout"/>
                        </use>
                        <path d="M-4,0h8" fill="none" stroke="white" stroke-width="1.5" pointer-events="none"/>
                </g>
                <g id="dirArrow">
                        <path fill="none" stroke="white" stroke-width="1.5" d="M0,-3.0v7 M-2.5,-0.5L0,-3.0L2.5,-0.5"/>
                </g>
               <g id="resetDef">
                       <use xlink:href="#rim2" fill="#404040">
                               <set attributeName="fill" to="#808080" begin="reset.mouseover" end="reset.mouseout"/>
                       </use>
               </g>
        </defs>

<script type="text/javascript">
var viewWidth = 521;
var viewHeight = 252;
var sectionId = 'dynsection-1';
</script>
<script xlink:href="svgpan.js"/>
<svg id="graph" class="graph">
<g id="viewport">
<title>Cbuffer.h</title>
<!-- Node2 -->
<g id="node1" class="node"><title>Node2</title>
<polygon fill="#bfbfbf" stroke="black" points="358.666,-224.5 358.666,-243.5 413.666,-243.5 413.666,-224.5 358.666,-224.5"/>
<text text-anchor="middle" x="386.166" y="-231.5" font-family="Helvetica,sans-Serif" font-size="10.00">Cbuffer.h</text>
</g>
<!-- Node3 -->
<g id="node2" class="node"><title>Node3</title>
<g id="a_node2"><a xlink:href="_comm___p_l_s_8h.html" target="_top" xlink:title="Comm_PLS.h">
<polygon fill="none" stroke="black" points="79.6655,-112.5 79.6655,-131.5 156.666,-131.5 156.666,-112.5 79.6655,-112.5"/>
<text text-anchor="middle" x="118.166" y="-119.5" font-family="Helvetica,sans-Serif" font-size="10.00">Comm_PLS.h</text>
</a>
</g>
</g>
<!-- Node2&#45;&gt;Node3 -->
<g id="edge1" class="edge"><title>Node2&#45;&gt;Node3</title>
<path fill="none" stroke="midnightblue" d="M355.579,-220.446C300.54,-197.855 186.168,-150.911 139.097,-131.591"/>
<polygon fill="midnightblue" stroke="midnightblue" points="354.556,-223.809 365.136,-224.368 357.214,-217.333 354.556,-223.809"/>
</g>
<!-- Node8 -->
<g id="node7" class="node"><title>Node8</title>
<g id="a_node7"><a xlink:href="_comm___i_c_c_8h.html" target="_top" xlink:title="Communication file for Inter&#45;Controller Communication (ICC) ">
<polygon fill="none" stroke="black" points="349.166,-168.5 349.166,-187.5 423.166,-187.5 423.166,-168.5 349.166,-168.5"/>
<text text-anchor="middle" x="386.166" y="-175.5" font-family="Helvetica,sans-Serif" font-size="10.00">Comm_ICC.h</text>
</a>
</g>
</g>
<!-- Node2&#45;&gt;Node8 -->
<g id="edge7" class="edge"><title>Node2&#45;&gt;Node8</title>
<path fill="none" stroke="midnightblue" d="M386.166,-213.805C386.166,-204.91 386.166,-194.78 386.166,-187.751"/>
<polygon fill="midnightblue" stroke="midnightblue" points="382.666,-214.083 386.166,-224.083 389.666,-214.083 382.666,-214.083"/>
</g>
<!-- Node12 -->
<g id="node11" class="node"><title>Node12</title>
<g id="a_node11"><a xlink:href="_cbuffer_8cpp.html" target="_top" xlink:title="Cbuffer.cpp">
<polygon fill="none" stroke="black" points="441.666,-168.5 441.666,-187.5 506.666,-187.5 506.666,-168.5 441.666,-168.5"/>
<text text-anchor="middle" x="474.166" y="-175.5" font-family="Helvetica,sans-Serif" font-size="10.00">Cbuffer.cpp</text>
</a>
</g>
</g>
<!-- Node2&#45;&gt;Node12 -->
<g id="edge15" class="edge"><title>Node2&#45;&gt;Node12</title>
<path fill="none" stroke="midnightblue" d="M409.142,-218.901C425.279,-208.999 446.347,-196.071 460.062,-187.655"/>
<polygon fill="midnightblue" stroke="midnightblue" points="406.997,-216.111 400.304,-224.324 410.658,-222.077 406.997,-216.111"/>
</g>
<!-- Node4 -->
<g id="node3" class="node"><title>Node4</title>
<g id="a_node3"><a xlink:href="_a_d_a_s___nav_u_8ino.html" target="_top" xlink:title="Main file for the NavU of the ADAS project. ">
<polygon fill="none" stroke="black" points="217.666,-0.5 217.666,-19.5 304.666,-19.5 304.666,-0.5 217.666,-0.5"/>
<text text-anchor="middle" x="261.166" y="-7.5" font-family="Helvetica,sans-Serif" font-size="10.00">ADAS_NavU.ino</text>
</a>
</g>
</g>
<!-- Node3&#45;&gt;Node4 -->
<g id="edge2" class="edge"><title>Node3&#45;&gt;Node4</title>
<path fill="none" stroke="midnightblue" d="M69.4202,-111.163C29.7498,-100.972 -16.2802,-82.7536 6.16554,-56 7.01656,-54.9857 144.87,-31.067 217.507,-18.5242"/>
<polygon fill="midnightblue" stroke="midnightblue" points="68.7785,-114.609 79.3234,-113.581 70.4391,-107.809 68.7785,-114.609"/>
</g>
<!-- Node5 -->
<g id="node4" class="node"><title>Node5</title>
<g id="a_node4"><a xlink:href="_app___virtual_mapping_8h.html" target="_top" xlink:title="App_VirtualMapping.h">
<polygon fill="none" stroke="black" points="121.166,-56.5 121.166,-75.5 233.166,-75.5 233.166,-56.5 121.166,-56.5"/>
<text text-anchor="middle" x="177.166" y="-63.5" font-family="Helvetica,sans-Serif" font-size="10.00">App_VirtualMapping.h</text>
</a>
</g>
</g>
<!-- Node3&#45;&gt;Node5 -->
<g id="edge3" class="edge"><title>Node3&#45;&gt;Node5</title>
<path fill="none" stroke="midnightblue" d="M135.06,-105.537C145.58,-95.9087 158.734,-83.8694 167.514,-75.8339"/>
<polygon fill="midnightblue" stroke="midnightblue" points="132.659,-102.99 127.645,-112.324 137.385,-108.154 132.659,-102.99"/>
</g>
<!-- Node7 -->
<g id="node6" class="node"><title>Node7</title>
<g id="a_node6"><a xlink:href="_comm___p_l_s_8cpp.html" target="_top" xlink:title="Comm_PLS.cpp">
<polygon fill="none" stroke="black" points="15.1655,-56.5 15.1655,-75.5 103.166,-75.5 103.166,-56.5 15.1655,-56.5"/>
<text text-anchor="middle" x="59.1655" y="-63.5" font-family="Helvetica,sans-Serif" font-size="10.00">Comm_PLS.cpp</text>
</a>
</g>
</g>
<!-- Node3&#45;&gt;Node7 -->
<g id="edge6" class="edge"><title>Node3&#45;&gt;Node7</title>
<path fill="none" stroke="midnightblue" d="M101.271,-105.537C90.751,-95.9087 77.5969,-83.8694 68.8174,-75.8339"/>
<polygon fill="midnightblue" stroke="midnightblue" points="98.9463,-108.154 108.686,-112.324 103.672,-102.99 98.9463,-108.154"/>
</g>
<!-- Node5&#45;&gt;Node4 -->
<g id="edge4" class="edge"><title>Node5&#45;&gt;Node4</title>
<path fill="none" stroke="midnightblue" d="M199.098,-50.9005C214.501,-40.9986 234.611,-28.0705 247.703,-19.6545"/>
<polygon fill="midnightblue" stroke="midnightblue" points="197.181,-47.9722 190.662,-56.324 200.966,-53.8605 197.181,-47.9722"/>
</g>
<!-- Node6 -->
<g id="node5" class="node"><title>Node6</title>
<g id="a_node5"><a xlink:href="_app___virtual_mapping_8cpp.html" target="_top" xlink:title="App_VirtualMapping.cpp">
<polygon fill="none" stroke="black" points="77.1655,-0.5 77.1655,-19.5 199.166,-19.5 199.166,-0.5 77.1655,-0.5"/>
<text text-anchor="middle" x="138.166" y="-7.5" font-family="Helvetica,sans-Serif" font-size="10.00">App_VirtualMapping.cpp</text>
</a>
</g>
</g>
<!-- Node5&#45;&gt;Node6 -->
<g id="edge5" class="edge"><title>Node5&#45;&gt;Node6</title>
<path fill="none" stroke="midnightblue" d="M164.783,-47.8554C158.03,-38.5048 149.957,-27.3265 144.486,-19.7511"/>
<polygon fill="midnightblue" stroke="midnightblue" points="162.033,-50.0254 170.725,-56.083 167.708,-45.927 162.033,-50.0254"/>
</g>
<!-- Node8&#45;&gt;Node4 -->
<g id="edge8" class="edge"><title>Node8&#45;&gt;Node4</title>
<path fill="none" stroke="midnightblue" d="M415.453,-164.305C460.749,-142.943 539.114,-98.0151 504.166,-56 479.3,-26.1074 367.835,-15.9858 304.861,-12.6236"/>
<polygon fill="midnightblue" stroke="midnightblue" points="413.964,-161.137 406.342,-168.496 416.89,-167.497 413.964,-161.137"/>
</g>
<!-- Node9 -->
<g id="node8" class="node"><title>Node9</title>
<g id="a_node8"><a xlink:href="_app___navigation_8h.html" target="_top" xlink:title="Application file for navigation. ">
<polygon fill="none" stroke="black" points="294.166,-112.5 294.166,-131.5 386.166,-131.5 386.166,-112.5 294.166,-112.5"/>
<text text-anchor="middle" x="340.166" y="-119.5" font-family="Helvetica,sans-Serif" font-size="10.00">App_Navigation.h</text>
</a>
</g>
</g>
<!-- Node8&#45;&gt;Node9 -->
<g id="edge9" class="edge"><title>Node8&#45;&gt;Node9</title>
<path fill="none" stroke="midnightblue" d="M372.052,-160.431C363.99,-150.967 354.206,-139.483 347.62,-131.751"/>
<polygon fill="midnightblue" stroke="midnightblue" points="369.421,-162.74 378.57,-168.083 374.749,-158.201 369.421,-162.74"/>
</g>
<!-- Node11 -->
<g id="node10" class="node"><title>Node11</title>
<g id="a_node10"><a xlink:href="_comm___i_c_c_8cpp.html" target="_top" xlink:title="Communication file for Inter&#45;Controller Communication (ICC) ">
<polygon fill="none" stroke="black" points="409.666,-56.5 409.666,-75.5 494.666,-75.5 494.666,-56.5 409.666,-56.5"/>
<text text-anchor="middle" x="452.166" y="-63.5" font-family="Helvetica,sans-Serif" font-size="10.00">Comm_ICC.cpp</text>
</a>
</g>
</g>
<!-- Node8&#45;&gt;Node11 -->
<g id="edge14" class="edge"><title>Node8&#45;&gt;Node11</title>
<path fill="none" stroke="midnightblue" d="M396.582,-159.64C410.919,-135.744 436.188,-93.6286 447.011,-75.5914"/>
<polygon fill="midnightblue" stroke="midnightblue" points="393.488,-157.993 391.344,-168.368 399.491,-161.594 393.488,-157.993"/>
</g>
<!-- Node9&#45;&gt;Node4 -->
<g id="edge10" class="edge"><title>Node9&#45;&gt;Node4</title>
<path fill="none" stroke="midnightblue" d="M314.507,-107.023C302.514,-99.3088 288.969,-88.7087 280.166,-76 267.981,-58.4106 263.518,-32.9781 261.956,-19.7446"/>
<polygon fill="midnightblue" stroke="midnightblue" points="312.908,-110.146 323.272,-112.346 316.542,-104.163 312.908,-110.146"/>
</g>
<!-- Node9&#45;&gt;Node5 -->
<g id="edge11" class="edge"><title>Node9&#45;&gt;Node5</title>
<path fill="none" stroke="midnightblue" d="M304.463,-109.172C273.77,-99.0039 230.247,-84.5852 202.873,-75.5164"/>
<polygon fill="midnightblue" stroke="midnightblue" points="303.744,-112.621 314.338,-112.444 305.946,-105.976 303.744,-112.621"/>
</g>
<!-- Node10 -->
<g id="node9" class="node"><title>Node10</title>
<g id="a_node9"><a xlink:href="_app___navigation_8cpp.html" target="_top" xlink:title="Application file for navigation. ">
<polygon fill="none" stroke="black" points="289.166,-56.5 289.166,-75.5 391.166,-75.5 391.166,-56.5 289.166,-56.5"/>
<text text-anchor="middle" x="340.166" y="-63.5" font-family="Helvetica,sans-Serif" font-size="10.00">App_Navigation.cpp</text>
</a>
</g>
</g>
<!-- Node9&#45;&gt;Node10 -->
<g id="edge12" class="edge"><title>Node9&#45;&gt;Node10</title>
<path fill="none" stroke="midnightblue" d="M340.166,-101.805C340.166,-92.9102 340.166,-82.7798 340.166,-75.7511"/>
<polygon fill="midnightblue" stroke="midnightblue" points="336.666,-102.083 340.166,-112.083 343.666,-102.083 336.666,-102.083"/>
</g>
<!-- Node9&#45;&gt;Node11 -->
<g id="edge13" class="edge"><title>Node9&#45;&gt;Node11</title>
<path fill="none" stroke="midnightblue" d="M367.414,-107.862C388.182,-97.8492 416.189,-84.3458 434.215,-75.6545"/>
<polygon fill="midnightblue" stroke="midnightblue" points="365.648,-104.828 358.16,-112.324 368.688,-111.134 365.648,-104.828"/>
</g>
</g>
</svg>
        <g id="navigator" transform="translate(0 0)" fill="#404254">
                <rect fill="#f2f5e9" fill-opacity="0.5" stroke="#606060" stroke-width=".5" x="0" y="0" width="60" height="60"/>
                <use id="zoomplus" xlink:href="#zoomPlus" x="17" y="9" onmousedown="handleZoom(evt,'in')"/>
                <use id="zoomminus" xlink:href="#zoomMin" x="42" y="9" onmousedown="handleZoom(evt,'out')"/>
                <use id="reset" xlink:href="#resetDef" x="30" y="36" onmousedown="handleReset()"/>
                <g id="arrowUp" xlink:href="#dirArrow" transform="translate(30 24)" onmousedown="handlePan(0,-1)">
                  <use xlink:href="#rim" fill="#404040">
                        <set attributeName="fill" to="#808080" begin="arrowUp.mouseover" end="arrowUp.mouseout"/>
                  </use>
                  <path fill="none" stroke="white" stroke-width="1.5" d="M0,-3.0v7 M-2.5,-0.5L0,-3.0L2.5,-0.5"/>
                </g>
                <g id="arrowRight" xlink:href="#dirArrow" transform="rotate(90) translate(36 -43)" onmousedown="handlePan(1,0)">
                  <use xlink:href="#rim" fill="#404040">
                        <set attributeName="fill" to="#808080" begin="arrowRight.mouseover" end="arrowRight.mouseout"/>
                  </use>
                  <path fill="none" stroke="white" stroke-width="1.5" d="M0,-3.0v7 M-2.5,-0.5L0,-3.0L2.5,-0.5"/>
                </g>
                <g id="arrowDown" xlink:href="#dirArrow" transform="rotate(180) translate(-30 -48)" onmousedown="handlePan(0,1)">
                  <use xlink:href="#rim" fill="#404040">
                        <set attributeName="fill" to="#808080" begin="arrowDown.mouseover" end="arrowDown.mouseout"/>
                  </use>
                  <path fill="none" stroke="white" stroke-width="1.5" d="M0,-3.0v7 M-2.5,-0.5L0,-3.0L2.5,-0.5"/>
                </g>
                <g id="arrowLeft" xlink:href="#dirArrow" transform="rotate(270) translate(-36 17)" onmousedown="handlePan(-1,0)">
                  <use xlink:href="#rim" fill="#404040">
                        <set attributeName="fill" to="#808080" begin="arrowLeft.mouseover" end="arrowLeft.mouseout"/>
                  </use>
                  <path fill="none" stroke="white" stroke-width="1.5" d="M0,-3.0v7 M-2.5,-0.5L0,-3.0L2.5,-0.5"/>
                </g>
        </g>
        <svg viewBox="0 0 15 15" width="100%" height="30px" preserveAspectRatio="xMaxYMin meet">
         <g id="arrow_out" transform="scale(0.3 0.3)">
          <a xlink:href="_cbuffer_8h__dep__incl_org.svg" target="_base">
           <rect id="button" ry="5" rx="5" y="6" x="6" height="38" width="38"
                fill="#f2f5e9" fill-opacity="0.5" stroke="#606060" stroke-width="1.0"/>
           <path id="arrow"
             d="M 11.500037,31.436501 C 11.940474,20.09759 22.043105,11.32322 32.158766,21.979434 L 37.068811,17.246167 C 37.068811,17.246167 37.088388,32 37.088388,32 L 22.160133,31.978069 C 22.160133,31.978069 26.997745,27.140456 26.997745,27.140456 C 18.528582,18.264221 13.291696,25.230495 11.500037,31.436501 z"
             style="fill:#404040;"/>
          </a>
         </g>
        </svg>
</svg>
