<?xml version="1.0" encoding="UTF-8" standalone="no"?>
<!DOCTYPE svg PUBLIC "-//W3C//DTD SVG 1.1//EN"
 "http://www.w3.org/Graphics/SVG/1.1/DTD/svg11.dtd">
<!-- Generated by graphviz version 2.38.0 (20140413.2041)
 -->
<!-- Title: Comm_ICC.cpp Pages: 1 -->
<svg width="461pt" height="252pt"
 viewBox="0.00 0.00 460.50 252.00" xmlns="http://www.w3.org/2000/svg" xmlns:xlink="http://www.w3.org/1999/xlink">
<g id="graph0" class="graph" transform="scale(1 1) rotate(0) translate(4 248)">
<title>Comm_ICC.cpp</title>
<!-- Node0 -->
<g id="node1" class="node"><title>Node0</title>
<polygon fill="#bfbfbf" stroke="black" points="214,-224.5 214,-243.5 299,-243.5 299,-224.5 214,-224.5"/>
<text text-anchor="middle" x="256.5" y="-231.5" font-family="Helvetica,sans-Serif" font-size="10.00">Comm_ICC.cpp</text>
</g>
<!-- Node1 -->
<g id="node2" class="node"><title>Node1</title>
<g id="a_node2"><a xlink:href="_a_d_a_s___debug_8h.html" target="_top" xlink:title="This file contains redefinition of the serial functions for debugging purpose. ">
<polygon fill="none" stroke="black" points="177,-112.5 177,-131.5 262,-131.5 262,-112.5 177,-112.5"/>
<text text-anchor="middle" x="219.5" y="-119.5" font-family="Helvetica,sans-Serif" font-size="10.00">ADAS_Debug.h</text>
</a>
</g>
</g>
<!-- Node0&#45;&gt;Node1 -->
<g id="edge1" class="edge"><title>Node0&#45;&gt;Node1</title>
<path fill="none" stroke="midnightblue" d="M252.801,-224.466C248.975,-215.483 242.949,-200.885 238.5,-188 233.164,-172.546 228.019,-154.701 224.432,-141.623"/>
<polygon fill="midnightblue" stroke="midnightblue" points="227.797,-140.661 221.815,-131.916 221.038,-142.483 227.797,-140.661"/>
</g>
<!-- Node3 -->
<g id="node4" class="node"><title>Node3</title>
<g id="a_node4"><a xlink:href="_comm___i_c_c_8h.html" target="_top" xlink:title="Communication file for Inter&#45;Controller Communication (ICC) ">
<polygon fill="none" stroke="black" points="84.5,-112.5 84.5,-131.5 158.5,-131.5 158.5,-112.5 84.5,-112.5"/>
<text text-anchor="middle" x="121.5" y="-119.5" font-family="Helvetica,sans-Serif" font-size="10.00">Comm_ICC.h</text>
</a>
</g>
</g>
<!-- Node0&#45;&gt;Node3 -->
<g id="edge3" class="edge"><title>Node0&#45;&gt;Node3</title>
<path fill="none" stroke="midnightblue" d="M245.907,-224.368C223.036,-205.733 168.79,-161.532 140.073,-138.134"/>
<polygon fill="midnightblue" stroke="midnightblue" points="142.007,-135.195 132.044,-131.591 137.586,-140.622 142.007,-135.195"/>
</g>
<!-- Node7 -->
<g id="node8" class="node"><title>Node7</title>
<polygon fill="none" stroke="#bfbfbf" points="394.5,-112.5 394.5,-131.5 452.5,-131.5 452.5,-112.5 394.5,-112.5"/>
<text text-anchor="middle" x="423.5" y="-119.5" font-family="Helvetica,sans-Serif" font-size="10.00">Arduino.h</text>
</g>
<!-- Node0&#45;&gt;Node7 -->
<g id="edge10" class="edge"><title>Node0&#45;&gt;Node7</title>
<path fill="none" stroke="midnightblue" d="M277.801,-224.457C297.01,-216.324 325.664,-203.109 348.5,-188 370.567,-173.4 393.147,-152.927 407.684,-138.881"/>
<polygon fill="midnightblue" stroke="midnightblue" points="410.195,-141.32 414.879,-131.816 405.291,-136.325 410.195,-141.32"/>
</g>
<!-- Node8 -->
<g id="node9" class="node"><title>Node8</title>
<g id="a_node9"><a xlink:href="_app___navigation_8h.html" target="_top" xlink:title="Application file for navigation. ">
<polygon fill="none" stroke="black" points="247.5,-168.5 247.5,-187.5 339.5,-187.5 339.5,-168.5 247.5,-168.5"/>
<text text-anchor="middle" x="293.5" y="-175.5" font-family="Helvetica,sans-Serif" font-size="10.00">App_Navigation.h</text>
</a>
</g>
</g>
<!-- Node0&#45;&gt;Node8 -->
<g id="edge11" class="edge"><title>Node0&#45;&gt;Node8</title>
<path fill="none" stroke="midnightblue" d="M262.61,-224.083C267.782,-216.534 275.346,-205.495 281.694,-196.23"/>
<polygon fill="midnightblue" stroke="midnightblue" points="284.739,-197.979 287.504,-187.751 278.964,-194.022 284.739,-197.979"/>
</g>
<!-- Node2 -->
<g id="node3" class="node"><title>Node2</title>
<g id="a_node3"><a xlink:href="_a_d_a_s___cfg_8h.html" target="_top" xlink:title="This file contains the configuration of the vehicle. ">
<polygon fill="none" stroke="black" points="218,-56.5 218,-75.5 289,-75.5 289,-56.5 218,-56.5"/>
<text text-anchor="middle" x="253.5" y="-63.5" font-family="Helvetica,sans-Serif" font-size="10.00">ADAS_Cfg.h</text>
</a>
</g>
</g>
<!-- Node1&#45;&gt;Node2 -->
<g id="edge2" class="edge"><title>Node1&#45;&gt;Node2</title>
<path fill="none" stroke="midnightblue" d="M225.114,-112.083C229.867,-104.534 236.818,-93.4948 242.652,-84.2298"/>
<polygon fill="midnightblue" stroke="midnightblue" points="245.624,-86.0783 247.99,-75.7511 239.7,-82.3486 245.624,-86.0783"/>
</g>
<!-- Node3&#45;&gt;Node2 -->
<g id="edge5" class="edge"><title>Node3&#45;&gt;Node2</title>
<path fill="none" stroke="midnightblue" d="M142.416,-112.444C164.236,-103.517 198.65,-89.4387 223.392,-79.3168"/>
<polygon fill="midnightblue" stroke="midnightblue" points="224.752,-82.5422 232.682,-75.5164 222.101,-76.0634 224.752,-82.5422"/>
</g>
<!-- Node4 -->
<g id="node5" class="node"><title>Node4</title>
<g id="a_node5"><a xlink:href="_a_d_a_s___types_8h.html" target="_top" xlink:title="ADAS_Types.h">
<polygon fill="none" stroke="black" points="148,-0.5 148,-19.5 231,-19.5 231,-0.5 148,-0.5"/>
<text text-anchor="middle" x="189.5" y="-7.5" font-family="Helvetica,sans-Serif" font-size="10.00">ADAS_Types.h</text>
</a>
</g>
</g>
<!-- Node3&#45;&gt;Node4 -->
<g id="edge4" class="edge"><title>Node3&#45;&gt;Node4</title>
<path fill="none" stroke="midnightblue" d="M134.166,-112.456C145.285,-104.322 161.11,-91.1064 170.5,-76 179.325,-61.8025 184.208,-43.3242 186.806,-29.7002"/>
<polygon fill="midnightblue" stroke="midnightblue" points="190.298,-30.0372 188.487,-19.5983 183.393,-28.8882 190.298,-30.0372"/>
</g>
<!-- Node5 -->
<g id="node6" class="node"><title>Node5</title>
<g id="a_node6"><a xlink:href="_h_a_l___serial___i_f_8h.html" target="_top" xlink:title="Hardware Abstraction Layer (HAL) to serial interface. ">
<polygon fill="none" stroke="black" points="0,-56.5 0,-75.5 87,-75.5 87,-56.5 0,-56.5"/>
<text text-anchor="middle" x="43.5" y="-63.5" font-family="Helvetica,sans-Serif" font-size="10.00">HAL_Serial_IF.h</text>
</a>
</g>
</g>
<!-- Node3&#45;&gt;Node5 -->
<g id="edge6" class="edge"><title>Node3&#45;&gt;Node5</title>
<path fill="none" stroke="midnightblue" d="M108.968,-112.324C96.9141,-103.979 78.4732,-91.2122 64.2313,-81.3524"/>
<polygon fill="midnightblue" stroke="midnightblue" points="66.2151,-78.469 56.0009,-75.6545 62.2306,-84.2243 66.2151,-78.469"/>
</g>
<!-- Node6 -->
<g id="node7" class="node"><title>Node6</title>
<g id="a_node7"><a xlink:href="_cbuffer_8h.html" target="_top" xlink:title="CBuffer.h">
<polygon fill="none" stroke="black" points="105.5,-56.5 105.5,-75.5 161.5,-75.5 161.5,-56.5 105.5,-56.5"/>
<text text-anchor="middle" x="133.5" y="-63.5" font-family="Helvetica,sans-Serif" font-size="10.00">CBuffer.h</text>
</a>
</g>
</g>
<!-- Node3&#45;&gt;Node6 -->
<g id="edge8" class="edge"><title>Node3&#45;&gt;Node6</title>
<path fill="none" stroke="midnightblue" d="M123.482,-112.083C125.072,-104.927 127.359,-94.6353 129.346,-85.6911"/>
<polygon fill="midnightblue" stroke="midnightblue" points="132.803,-86.2722 131.555,-75.7511 125.969,-84.7537 132.803,-86.2722"/>
</g>
<!-- Node5&#45;&gt;Node4 -->
<g id="edge7" class="edge"><title>Node5&#45;&gt;Node4</title>
<path fill="none" stroke="midnightblue" d="M66.6341,-56.4435C90.9822,-47.4381 129.507,-33.1891 156.923,-23.049"/>
<polygon fill="midnightblue" stroke="midnightblue" points="158.309,-26.2681 166.474,-19.5164 155.881,-19.7028 158.309,-26.2681"/>
</g>
<!-- Node6&#45;&gt;Node4 -->
<g id="edge9" class="edge"><title>Node6&#45;&gt;Node4</title>
<path fill="none" stroke="midnightblue" d="M142.497,-56.324C150.694,-48.4196 163.006,-36.5482 172.972,-26.9377"/>
<polygon fill="midnightblue" stroke="midnightblue" points="175.57,-29.2947 180.339,-19.8339 170.711,-24.2558 175.57,-29.2947"/>
</g>
<!-- Node8&#45;&gt;Node1 -->
<g id="edge17" class="edge"><title>Node8&#45;&gt;Node1</title>
<path fill="none" stroke="midnightblue" d="M281.611,-168.324C270.35,-160.107 253.213,-147.602 239.791,-137.807"/>
<polygon fill="midnightblue" stroke="midnightblue" points="241.747,-134.901 231.606,-131.834 237.62,-140.556 241.747,-134.901"/>
</g>
<!-- Node8&#45;&gt;Node2 -->
<g id="edge16" class="edge"><title>Node8&#45;&gt;Node2</title>
<path fill="none" stroke="midnightblue" d="M290.434,-168.147C286.08,-155.619 277.819,-132.011 270.5,-112 267.269,-103.165 263.59,-93.3931 260.483,-85.2188"/>
<polygon fill="midnightblue" stroke="midnightblue" points="263.649,-83.7008 256.813,-75.6067 257.11,-86.1974 263.649,-83.7008"/>
</g>
<!-- Node8&#45;&gt;Node3 -->
<g id="edge18" class="edge"><title>Node8&#45;&gt;Node3</title>
<path fill="none" stroke="midnightblue" d="M266.246,-168.444C237.059,-159.28 190.579,-144.688 158.191,-134.519"/>
<polygon fill="midnightblue" stroke="midnightblue" points="159.216,-131.173 148.626,-131.516 157.119,-137.851 159.216,-131.173"/>
</g>
<!-- Node8&#45;&gt;Node4 -->
<g id="edge15" class="edge"><title>Node8&#45;&gt;Node4</title>
<path fill="none" stroke="midnightblue" d="M296.872,-168.467C304.622,-147.33 321.284,-91.6763 297.5,-56 284.758,-36.8867 262.197,-25.8785 240.98,-19.5444"/>
<polygon fill="midnightblue" stroke="midnightblue" points="241.61,-16.0897 231.045,-16.8731 239.793,-22.8497 241.61,-16.0897"/>
</g>
<!-- Node8&#45;&gt;Node7 -->
<g id="edge12" class="edge"><title>Node8&#45;&gt;Node7</title>
<path fill="none" stroke="midnightblue" d="M314.099,-168.444C335.493,-159.557 369.181,-145.563 393.524,-135.451"/>
<polygon fill="midnightblue" stroke="midnightblue" points="395.105,-138.585 402.997,-131.516 392.42,-132.12 395.105,-138.585"/>
</g>
<!-- Node9 -->
<g id="node10" class="node"><title>Node9</title>
<g id="a_node10"><a xlink:href="_task___i_f_8h.html" target="_top" xlink:title="Task_if.h">
<polygon fill="none" stroke="black" points="356.5,-56.5 356.5,-75.5 412.5,-75.5 412.5,-56.5 356.5,-56.5"/>
<text text-anchor="middle" x="384.5" y="-63.5" font-family="Helvetica,sans-Serif" font-size="10.00">Task_if.h</text>
</a>
</g>
</g>
<!-- Node8&#45;&gt;Node9 -->
<g id="edge13" class="edge"><title>Node8&#45;&gt;Node9</title>
<path fill="none" stroke="midnightblue" d="M304.371,-168.397C314.825,-159.821 330.733,-145.948 342.5,-132 355.049,-117.126 366.843,-98.275 374.719,-84.7091"/>
<polygon fill="midnightblue" stroke="midnightblue" points="377.827,-86.3226 379.716,-75.8974 371.738,-82.8693 377.827,-86.3226"/>
</g>
<!-- Node9&#45;&gt;Node4 -->
<g id="edge14" class="edge"><title>Node9&#45;&gt;Node4</title>
<path fill="none" stroke="midnightblue" d="M356.145,-57.1479C322.983,-47.9646 267.834,-32.6924 230.129,-22.2512"/>
<polygon fill="midnightblue" stroke="midnightblue" points="231.039,-18.8714 220.467,-19.5756 229.171,-25.6175 231.039,-18.8714"/>
</g>
</g>
</svg>
