<?xml version="1.0" encoding="UTF-8" standalone="no"?>
<!DOCTYPE svg PUBLIC "-//W3C//DTD SVG 1.1//EN"
 "http://www.w3.org/Graphics/SVG/1.1/DTD/svg11.dtd">
<!-- Generated by graphviz version 2.38.0 (20140413.2041)
 -->
<!-- Title: Comm_ICC.h Pages: 1 -->
<svg width="434pt" height="196pt"
 viewBox="0.00 0.00 434.00 196.00" xmlns="http://www.w3.org/2000/svg" xmlns:xlink="http://www.w3.org/1999/xlink">
<g id="graph0" class="graph" transform="scale(1 1) rotate(0) translate(4 192)">
<title>Comm_ICC.h</title>
<!-- Node5 -->
<g id="node1" class="node"><title>Node5</title>
<polygon fill="#bfbfbf" stroke="black" points="150.5,-168.5 150.5,-187.5 224.5,-187.5 224.5,-168.5 150.5,-168.5"/>
<text text-anchor="middle" x="187.5" y="-175.5" font-family="Helvetica,sans-Serif" font-size="10.00">Comm_ICC.h</text>
</g>
<!-- Node6 -->
<g id="node2" class="node"><title>Node6</title>
<g id="a_node2"><a xlink:href="_a_d_a_s___nav_u_8ino.html" target="_top" xlink:title="Main file for the NavU of the ADAS project. ">
<polygon fill="none" stroke="black" points="0,-0.5 0,-19.5 87,-19.5 87,-0.5 0,-0.5"/>
<text text-anchor="middle" x="43.5" y="-7.5" font-family="Helvetica,sans-Serif" font-size="10.00">ADAS_NavU.ino</text>
</a>
</g>
</g>
<!-- Node5&#45;&gt;Node6 -->
<g id="edge1" class="edge"><title>Node5&#45;&gt;Node6</title>
<path fill="none" stroke="midnightblue" d="M162.561,-163.231C134.207,-146.316 88.493,-115.007 62.5,-76 50.6345,-58.1936 46.037,-32.8526 44.3706,-19.6902"/>
<polygon fill="midnightblue" stroke="midnightblue" points="161.054,-166.403 171.458,-168.406 164.573,-160.352 161.054,-166.403"/>
</g>
<!-- Node7 -->
<g id="node3" class="node"><title>Node7</title>
<g id="a_node3"><a xlink:href="_app___navigation_8h.html" target="_top" xlink:title="Application file for navigation. ">
<polygon fill="none" stroke="black" points="141.5,-112.5 141.5,-131.5 233.5,-131.5 233.5,-112.5 141.5,-112.5"/>
<text text-anchor="middle" x="187.5" y="-119.5" font-family="Helvetica,sans-Serif" font-size="10.00">App_Navigation.h</text>
</a>
</g>
</g>
<!-- Node5&#45;&gt;Node7 -->
<g id="edge2" class="edge"><title>Node5&#45;&gt;Node7</title>
<path fill="none" stroke="midnightblue" d="M187.5,-157.805C187.5,-148.91 187.5,-138.78 187.5,-131.751"/>
<polygon fill="midnightblue" stroke="midnightblue" points="184,-158.083 187.5,-168.083 191,-158.083 184,-158.083"/>
</g>
<!-- Node11 -->
<g id="node7" class="node"><title>Node11</title>
<g id="a_node7"><a xlink:href="_comm___i_c_c_8cpp.html" target="_top" xlink:title="Communication file for Inter&#45;Controller Communication (ICC) ">
<polygon fill="none" stroke="black" points="341,-56.5 341,-75.5 426,-75.5 426,-56.5 341,-56.5"/>
<text text-anchor="middle" x="383.5" y="-63.5" font-family="Helvetica,sans-Serif" font-size="10.00">Comm_ICC.cpp</text>
</a>
</g>
</g>
<!-- Node5&#45;&gt;Node11 -->
<g id="edge9" class="edge"><title>Node5&#45;&gt;Node11</title>
<path fill="none" stroke="midnightblue" d="M211.65,-163.446C252.541,-140.497 334.267,-94.6307 368.192,-75.5914"/>
<polygon fill="midnightblue" stroke="midnightblue" points="209.887,-160.422 202.88,-168.368 213.313,-166.526 209.887,-160.422"/>
</g>
<!-- Node7&#45;&gt;Node6 -->
<g id="edge3" class="edge"><title>Node7&#45;&gt;Node6</title>
<path fill="none" stroke="midnightblue" d="M143.15,-109.251C122.66,-102.157 99.0419,-91.4357 81.5,-76 63.4434,-60.1113 51.7123,-33.4835 46.5419,-19.7622"/>
<polygon fill="midnightblue" stroke="midnightblue" points="142.325,-112.663 152.918,-112.447 144.502,-106.01 142.325,-112.663"/>
</g>
<!-- Node8 -->
<g id="node4" class="node"><title>Node8</title>
<g id="a_node4"><a xlink:href="_app___virtual_mapping_8h.html" target="_top" xlink:title="App_VirtualMapping.h">
<polygon fill="none" stroke="black" points="90.5,-56.5 90.5,-75.5 202.5,-75.5 202.5,-56.5 90.5,-56.5"/>
<text text-anchor="middle" x="146.5" y="-63.5" font-family="Helvetica,sans-Serif" font-size="10.00">App_VirtualMapping.h</text>
</a>
</g>
</g>
<!-- Node7&#45;&gt;Node8 -->
<g id="edge4" class="edge"><title>Node7&#45;&gt;Node8</title>
<path fill="none" stroke="midnightblue" d="M174.483,-103.855C167.383,-94.5048 158.896,-83.3265 153.144,-75.7511"/>
<polygon fill="midnightblue" stroke="midnightblue" points="171.895,-106.235 180.73,-112.083 177.47,-102.002 171.895,-106.235"/>
</g>
<!-- Node10 -->
<g id="node6" class="node"><title>Node10</title>
<g id="a_node6"><a xlink:href="_app___navigation_8cpp.html" target="_top" xlink:title="Application file for navigation. ">
<polygon fill="none" stroke="black" points="220.5,-56.5 220.5,-75.5 322.5,-75.5 322.5,-56.5 220.5,-56.5"/>
<text text-anchor="middle" x="271.5" y="-63.5" font-family="Helvetica,sans-Serif" font-size="10.00">App_Navigation.cpp</text>
</a>
</g>
</g>
<!-- Node7&#45;&gt;Node10 -->
<g id="edge7" class="edge"><title>Node7&#45;&gt;Node10</title>
<path fill="none" stroke="midnightblue" d="M209.432,-106.901C224.835,-96.9986 244.946,-84.0705 258.037,-75.6545"/>
<polygon fill="midnightblue" stroke="midnightblue" points="207.515,-103.972 200.996,-112.324 211.301,-109.86 207.515,-103.972"/>
</g>
<!-- Node7&#45;&gt;Node11 -->
<g id="edge8" class="edge"><title>Node7&#45;&gt;Node11</title>
<path fill="none" stroke="midnightblue" d="M228.52,-109.699C265.511,-99.507 319.1,-84.7429 352.589,-75.5164"/>
<polygon fill="midnightblue" stroke="midnightblue" points="227.268,-106.413 218.557,-112.444 229.127,-113.162 227.268,-106.413"/>
</g>
<!-- Node8&#45;&gt;Node6 -->
<g id="edge5" class="edge"><title>Node8&#45;&gt;Node6</title>
<path fill="none" stroke="midnightblue" d="M120.921,-51.5895C101.877,-41.6052 76.4356,-28.2672 60.0077,-19.6545"/>
<polygon fill="midnightblue" stroke="midnightblue" points="119.469,-54.7805 129.951,-56.324 122.72,-48.5808 119.469,-54.7805"/>
</g>
<!-- Node9 -->
<g id="node5" class="node"><title>Node9</title>
<g id="a_node5"><a xlink:href="_app___virtual_mapping_8cpp.html" target="_top" xlink:title="App_VirtualMapping.cpp">
<polygon fill="none" stroke="black" points="105.5,-0.5 105.5,-19.5 227.5,-19.5 227.5,-0.5 105.5,-0.5"/>
<text text-anchor="middle" x="166.5" y="-7.5" font-family="Helvetica,sans-Serif" font-size="10.00">App_VirtualMapping.cpp</text>
</a>
</g>
</g>
<!-- Node8&#45;&gt;Node9 -->
<g id="edge6" class="edge"><title>Node8&#45;&gt;Node9</title>
<path fill="none" stroke="midnightblue" d="M153.282,-46.6897C156.652,-37.589 160.569,-27.0141 163.259,-19.7511"/>
<polygon fill="midnightblue" stroke="midnightblue" points="149.994,-45.4899 149.803,-56.083 156.558,-47.9211 149.994,-45.4899"/>
</g>
</g>
</svg>
