<?xml version="1.0" encoding="UTF-8" standalone="no"?>
<!DOCTYPE svg PUBLIC "-//W3C//DTD SVG 1.1//EN"
 "http://www.w3.org/Graphics/SVG/1.1/DTD/svg11.dtd">
<!-- Generated by graphviz version 2.38.0 (20140413.2041)
 -->
<!-- Title: Comm_PLS.h Pages: 1 -->
<svg width="273pt" height="140pt"
 viewBox="0.00 0.00 272.94 140.00" xmlns="http://www.w3.org/2000/svg" xmlns:xlink="http://www.w3.org/1999/xlink">
<g id="graph0" class="graph" transform="scale(1 1) rotate(0) translate(4 136)">
<title>Comm_PLS.h</title>
<!-- Node0 -->
<g id="node1" class="node"><title>Node0</title>
<polygon fill="#bfbfbf" stroke="black" points="59.4409,-112.5 59.4409,-131.5 136.441,-131.5 136.441,-112.5 59.4409,-112.5"/>
<text text-anchor="middle" x="97.9409" y="-119.5" font-family="Helvetica,sans-Serif" font-size="10.00">Comm_PLS.h</text>
</g>
<!-- Node1 -->
<g id="node2" class="node"><title>Node1</title>
<g id="a_node2"><a xlink:href="_a_d_a_s___types_8h.html" target="_top" xlink:title="ADAS_Types.h">
<polygon fill="none" stroke="black" points="105.441,-0.5 105.441,-19.5 188.441,-19.5 188.441,-0.5 105.441,-0.5"/>
<text text-anchor="middle" x="146.941" y="-7.5" font-family="Helvetica,sans-Serif" font-size="10.00">ADAS_Types.h</text>
</a>
</g>
</g>
<!-- Node0&#45;&gt;Node1 -->
<g id="edge1" class="edge"><title>Node0&#45;&gt;Node1</title>
<path fill="none" stroke="midnightblue" d="M64.6834,-112.425C30.7336,-102 -14.4337,-82.464 4.94088,-56 25.4803,-27.945 63.6128,-16.9463 95.1936,-12.8266"/>
<polygon fill="midnightblue" stroke="midnightblue" points="95.6333,-16.2994 105.186,-11.7178 94.8613,-9.34205 95.6333,-16.2994"/>
</g>
<!-- Node2 -->
<g id="node3" class="node"><title>Node2</title>
<g id="a_node3"><a xlink:href="_a_d_a_s___cfg_8h.html" target="_top" xlink:title="This file contains the configuration of the vehicle. ">
<polygon fill="none" stroke="black" points="14.4409,-56.5 14.4409,-75.5 85.4409,-75.5 85.4409,-56.5 14.4409,-56.5"/>
<text text-anchor="middle" x="49.9409" y="-63.5" font-family="Helvetica,sans-Serif" font-size="10.00">ADAS_Cfg.h</text>
</a>
</g>
</g>
<!-- Node0&#45;&gt;Node2 -->
<g id="edge2" class="edge"><title>Node0&#45;&gt;Node2</title>
<path fill="none" stroke="midnightblue" d="M90.0147,-112.083C83.0948,-104.298 72.8755,-92.8015 64.4889,-83.3665"/>
<polygon fill="midnightblue" stroke="midnightblue" points="66.9792,-80.8999 57.7196,-75.7511 61.7473,-85.5505 66.9792,-80.8999"/>
</g>
<!-- Node3 -->
<g id="node4" class="node"><title>Node3</title>
<g id="a_node4"><a xlink:href="_h_a_l___serial___i_f_8h.html" target="_top" xlink:title="Hardware Abstraction Layer (HAL) to serial interface. ">
<polygon fill="none" stroke="black" points="103.441,-56.5 103.441,-75.5 190.441,-75.5 190.441,-56.5 103.441,-56.5"/>
<text text-anchor="middle" x="146.941" y="-63.5" font-family="Helvetica,sans-Serif" font-size="10.00">HAL_Serial_IF.h</text>
</a>
</g>
</g>
<!-- Node0&#45;&gt;Node3 -->
<g id="edge3" class="edge"><title>Node0&#45;&gt;Node3</title>
<path fill="none" stroke="midnightblue" d="M106.032,-112.083C113.096,-104.298 123.528,-92.8015 132.09,-83.3665"/>
<polygon fill="midnightblue" stroke="midnightblue" points="134.872,-85.5087 139,-75.7511 129.688,-80.8047 134.872,-85.5087"/>
</g>
<!-- Node4 -->
<g id="node5" class="node"><title>Node4</title>
<g id="a_node5"><a xlink:href="_cbuffer_8h.html" target="_top" xlink:title="CBuffer.h">
<polygon fill="none" stroke="black" points="208.941,-56.5 208.941,-75.5 264.941,-75.5 264.941,-56.5 208.941,-56.5"/>
<text text-anchor="middle" x="236.941" y="-63.5" font-family="Helvetica,sans-Serif" font-size="10.00">CBuffer.h</text>
</a>
</g>
</g>
<!-- Node0&#45;&gt;Node4 -->
<g id="edge5" class="edge"><title>Node0&#45;&gt;Node4</title>
<path fill="none" stroke="midnightblue" d="M119.966,-112.444C143.045,-103.478 179.503,-89.314 205.582,-79.1827"/>
<polygon fill="midnightblue" stroke="midnightblue" points="206.965,-82.4002 215.019,-75.5164 204.43,-75.8753 206.965,-82.4002"/>
</g>
<!-- Node3&#45;&gt;Node1 -->
<g id="edge4" class="edge"><title>Node3&#45;&gt;Node1</title>
<path fill="none" stroke="midnightblue" d="M146.941,-56.083C146.941,-49.0059 146.941,-38.8611 146.941,-29.9865"/>
<polygon fill="midnightblue" stroke="midnightblue" points="150.441,-29.751 146.941,-19.7511 143.441,-29.7511 150.441,-29.751"/>
</g>
<!-- Node4&#45;&gt;Node1 -->
<g id="edge6" class="edge"><title>Node4&#45;&gt;Node1</title>
<path fill="none" stroke="midnightblue" d="M222.481,-56.324C208.441,-47.9002 186.892,-34.9709 170.398,-25.0741"/>
<polygon fill="midnightblue" stroke="midnightblue" points="171.741,-21.7983 161.365,-19.6545 168.139,-27.8007 171.741,-21.7983"/>
</g>
</g>
</svg>
