<?xml version="1.0" encoding="UTF-8" standalone="no"?>
<!DOCTYPE svg PUBLIC "-//W3C//DTD SVG 1.1//EN"
 "http://www.w3.org/Graphics/SVG/1.1/DTD/svg11.dtd">
<!-- Generated by graphviz version 2.38.0 (20140413.2041)
 -->
<!-- Title: Comm_PLS.cpp Pages: 1 -->
<svg width="305pt" height="196pt"
 viewBox="0.00 0.00 304.50 196.00" xmlns="http://www.w3.org/2000/svg" xmlns:xlink="http://www.w3.org/1999/xlink">
<g id="graph0" class="graph" transform="scale(1 1) rotate(0) translate(4 192)">
<title>Comm_PLS.cpp</title>
<!-- Node0 -->
<g id="node1" class="node"><title>Node0</title>
<polygon fill="#bfbfbf" stroke="black" points="97.5,-168.5 97.5,-187.5 185.5,-187.5 185.5,-168.5 97.5,-168.5"/>
<text text-anchor="middle" x="141.5" y="-175.5" font-family="Helvetica,sans-Serif" font-size="10.00">Comm_PLS.cpp</text>
</g>
<!-- Node1 -->
<g id="node2" class="node"><title>Node1</title>
<g id="a_node2"><a xlink:href="_a_d_a_s___debug_8h.html" target="_top" xlink:title="This file contains redefinition of the serial functions for debugging purpose. ">
<polygon fill="none" stroke="black" points="0,-112.5 0,-131.5 85,-131.5 85,-112.5 0,-112.5"/>
<text text-anchor="middle" x="42.5" y="-119.5" font-family="Helvetica,sans-Serif" font-size="10.00">ADAS_Debug.h</text>
</a>
</g>
</g>
<!-- Node0&#45;&gt;Node1 -->
<g id="edge1" class="edge"><title>Node0&#45;&gt;Node1</title>
<path fill="none" stroke="midnightblue" d="M125.594,-168.324C109.862,-159.743 85.5577,-146.486 67.2911,-136.522"/>
<polygon fill="midnightblue" stroke="midnightblue" points="68.8216,-133.37 58.3666,-131.655 65.4696,-139.516 68.8216,-133.37"/>
</g>
<!-- Node3 -->
<g id="node4" class="node"><title>Node3</title>
<g id="a_node4"><a xlink:href="_comm___p_l_s_8h.html" target="_top" xlink:title="Comm_PLS.h">
<polygon fill="none" stroke="black" points="103,-112.5 103,-131.5 180,-131.5 180,-112.5 103,-112.5"/>
<text text-anchor="middle" x="141.5" y="-119.5" font-family="Helvetica,sans-Serif" font-size="10.00">Comm_PLS.h</text>
</a>
</g>
</g>
<!-- Node0&#45;&gt;Node3 -->
<g id="edge3" class="edge"><title>Node0&#45;&gt;Node3</title>
<path fill="none" stroke="midnightblue" d="M141.5,-168.083C141.5,-161.006 141.5,-150.861 141.5,-141.986"/>
<polygon fill="midnightblue" stroke="midnightblue" points="145,-141.751 141.5,-131.751 138,-141.751 145,-141.751"/>
</g>
<!-- Node7 -->
<g id="node8" class="node"><title>Node7</title>
<polygon fill="none" stroke="#bfbfbf" points="198.5,-112.5 198.5,-131.5 256.5,-131.5 256.5,-112.5 198.5,-112.5"/>
<text text-anchor="middle" x="227.5" y="-119.5" font-family="Helvetica,sans-Serif" font-size="10.00">Arduino.h</text>
</g>
<!-- Node0&#45;&gt;Node7 -->
<g id="edge10" class="edge"><title>Node0&#45;&gt;Node7</title>
<path fill="none" stroke="midnightblue" d="M155.317,-168.324C168.733,-159.9 189.324,-146.971 205.086,-137.074"/>
<polygon fill="midnightblue" stroke="midnightblue" points="207.109,-139.936 213.717,-131.655 203.387,-134.008 207.109,-139.936"/>
</g>
<!-- Node2 -->
<g id="node3" class="node"><title>Node2</title>
<g id="a_node3"><a xlink:href="_a_d_a_s___cfg_8h.html" target="_top" xlink:title="This file contains the configuration of the vehicle. ">
<polygon fill="none" stroke="black" points="7,-56.5 7,-75.5 78,-75.5 78,-56.5 7,-56.5"/>
<text text-anchor="middle" x="42.5" y="-63.5" font-family="Helvetica,sans-Serif" font-size="10.00">ADAS_Cfg.h</text>
</a>
</g>
</g>
<!-- Node1&#45;&gt;Node2 -->
<g id="edge2" class="edge"><title>Node1&#45;&gt;Node2</title>
<path fill="none" stroke="midnightblue" d="M42.5,-112.083C42.5,-105.006 42.5,-94.8611 42.5,-85.9865"/>
<polygon fill="midnightblue" stroke="midnightblue" points="46.0001,-85.751 42.5,-75.7511 39.0001,-85.7511 46.0001,-85.751"/>
</g>
<!-- Node3&#45;&gt;Node2 -->
<g id="edge5" class="edge"><title>Node3&#45;&gt;Node2</title>
<path fill="none" stroke="midnightblue" d="M125.594,-112.324C109.862,-103.743 85.5577,-90.486 67.2911,-80.5224"/>
<polygon fill="midnightblue" stroke="midnightblue" points="68.8216,-77.3704 58.3666,-75.6545 65.4696,-83.5157 68.8216,-77.3704"/>
</g>
<!-- Node4 -->
<g id="node5" class="node"><title>Node4</title>
<g id="a_node5"><a xlink:href="_a_d_a_s___types_8h.html" target="_top" xlink:title="internal datatype mapping file ">
<polygon fill="none" stroke="black" points="137,-0.5 137,-19.5 220,-19.5 220,-0.5 137,-0.5"/>
<text text-anchor="middle" x="178.5" y="-7.5" font-family="Helvetica,sans-Serif" font-size="10.00">ADAS_Types.h</text>
</a>
</g>
</g>
<!-- Node3&#45;&gt;Node4 -->
<g id="edge4" class="edge"><title>Node3&#45;&gt;Node4</title>
<path fill="none" stroke="midnightblue" d="M135.784,-112.235C128.194,-99.4071 116.714,-74.9845 125.5,-56 131.42,-43.2072 142.968,-32.7216 153.778,-25.1003"/>
<polygon fill="midnightblue" stroke="midnightblue" points="155.714,-28.0161 162.166,-19.613 151.882,-22.1581 155.714,-28.0161"/>
</g>
<!-- Node5 -->
<g id="node6" class="node"><title>Node5</title>
<g id="a_node6"><a xlink:href="_h_a_l___serial___i_f_8h.html" target="_top" xlink:title="Hardware Abstraction Layer (HAL) to serial interface. ">
<polygon fill="none" stroke="black" points="135,-56.5 135,-75.5 222,-75.5 222,-56.5 135,-56.5"/>
<text text-anchor="middle" x="178.5" y="-63.5" font-family="Helvetica,sans-Serif" font-size="10.00">HAL_Serial_IF.h</text>
</a>
</g>
</g>
<!-- Node3&#45;&gt;Node5 -->
<g id="edge6" class="edge"><title>Node3&#45;&gt;Node5</title>
<path fill="none" stroke="midnightblue" d="M147.61,-112.083C152.782,-104.534 160.346,-93.4948 166.694,-84.2298"/>
<polygon fill="midnightblue" stroke="midnightblue" points="169.739,-85.9787 172.504,-75.7511 163.964,-82.0221 169.739,-85.9787"/>
</g>
<!-- Node6 -->
<g id="node7" class="node"><title>Node6</title>
<g id="a_node7"><a xlink:href="_cbuffer_8h.html" target="_top" xlink:title="general purpose buffer ">
<polygon fill="none" stroke="black" points="240.5,-56.5 240.5,-75.5 296.5,-75.5 296.5,-56.5 240.5,-56.5"/>
<text text-anchor="middle" x="268.5" y="-63.5" font-family="Helvetica,sans-Serif" font-size="10.00">CBuffer.h</text>
</a>
</g>
</g>
<!-- Node3&#45;&gt;Node6 -->
<g id="edge8" class="edge"><title>Node3&#45;&gt;Node6</title>
<path fill="none" stroke="midnightblue" d="M161.624,-112.444C182.524,-103.557 215.435,-89.5632 239.216,-79.4514"/>
<polygon fill="midnightblue" stroke="midnightblue" points="240.638,-82.6504 248.471,-75.5164 237.898,-76.2085 240.638,-82.6504"/>
</g>
<!-- Node5&#45;&gt;Node4 -->
<g id="edge7" class="edge"><title>Node5&#45;&gt;Node4</title>
<path fill="none" stroke="midnightblue" d="M178.5,-56.083C178.5,-49.0059 178.5,-38.8611 178.5,-29.9865"/>
<polygon fill="midnightblue" stroke="midnightblue" points="182,-29.751 178.5,-19.7511 175,-29.7511 182,-29.751"/>
</g>
<!-- Node6&#45;&gt;Node4 -->
<g id="edge9" class="edge"><title>Node6&#45;&gt;Node4</title>
<path fill="none" stroke="midnightblue" d="M254.04,-56.324C240,-47.9002 218.452,-34.9709 201.957,-25.0741"/>
<polygon fill="midnightblue" stroke="midnightblue" points="203.3,-21.7983 192.924,-19.6545 199.698,-27.8007 203.3,-21.7983"/>
</g>
</g>
</svg>
