<?xml version="1.0" encoding="UTF-8" standalone="no"?>
<!DOCTYPE svg PUBLIC "-//W3C//DTD SVG 1.1//EN"
 "http://www.w3.org/Graphics/SVG/1.1/DTD/svg11.dtd">
<!-- Generated by graphviz version 2.38.0 (20140413.2041)
 -->
<!-- Title: Comm_PLS.h Pages: 1 -->
<svg width="298pt" height="140pt"
 viewBox="0.00 0.00 297.50 140.00" xmlns="http://www.w3.org/2000/svg" xmlns:xlink="http://www.w3.org/1999/xlink">
<g id="graph0" class="graph" transform="scale(1 1) rotate(0) translate(4 136)">
<title>Comm_PLS.h</title>
<!-- Node5 -->
<g id="node1" class="node"><title>Node5</title>
<g id="a_node1"><a xlink:title=" ">
<polygon fill="#bfbfbf" stroke="black" points="89,-112.5 89,-131.5 166,-131.5 166,-112.5 89,-112.5"/>
<text text-anchor="middle" x="127.5" y="-119.5" font-family="Helvetica,sans-Serif" font-size="10.00">Comm_PLS.h</text>
</a>
</g>
</g>
<!-- Node6 -->
<g id="node2" class="node"><title>Node6</title>
<g id="a_node2"><a xlink:href="_a_d_a_s___nav_u_8ino.html" target="_top" xlink:title="Main file for the NavU of the ADAS project.">
<polygon fill="none" stroke="black" points="0,-0.5 0,-19.5 87,-19.5 87,-0.5 0,-0.5"/>
<text text-anchor="middle" x="43.5" y="-7.5" font-family="Helvetica,sans-Serif" font-size="10.00">ADAS_NavU.ino</text>
</a>
</g>
</g>
<!-- Node5&#45;&gt;Node6 -->
<g id="edge1" class="edge"><title>Node5&#45;&gt;Node6</title>
<path fill="none" stroke="midnightblue" d="M99.553,-107.376C86.5952,-99.7748 71.9969,-89.168 62.5,-76 49.9835,-58.645 45.6607,-33.1136 44.2074,-19.8033"/>
<polygon fill="midnightblue" stroke="midnightblue" points="98.156,-110.603 108.602,-112.373 101.54,-104.475 98.156,-110.603"/>
</g>
<!-- Node7 -->
<g id="node3" class="node"><title>Node7</title>
<g id="a_node3"><a xlink:href="_app___virtual_mapping_8h.html" target="_top" xlink:title="Virtual mapping application header file.">
<polygon fill="none" stroke="black" points="71.5,-56.5 71.5,-75.5 183.5,-75.5 183.5,-56.5 71.5,-56.5"/>
<text text-anchor="middle" x="127.5" y="-63.5" font-family="Helvetica,sans-Serif" font-size="10.00">App_VirtualMapping.h</text>
</a>
</g>
</g>
<!-- Node5&#45;&gt;Node7 -->
<g id="edge2" class="edge"><title>Node5&#45;&gt;Node7</title>
<path fill="none" stroke="midnightblue" d="M127.5,-101.805C127.5,-92.9102 127.5,-82.7798 127.5,-75.7511"/>
<polygon fill="midnightblue" stroke="midnightblue" points="124,-102.083 127.5,-112.083 131,-102.083 124,-102.083"/>
</g>
<!-- Node9 -->
<g id="node5" class="node"><title>Node9</title>
<g id="a_node5"><a xlink:href="_comm___p_l_s_8cpp.html" target="_top" xlink:title=" ">
<polygon fill="none" stroke="black" points="201.5,-56.5 201.5,-75.5 289.5,-75.5 289.5,-56.5 201.5,-56.5"/>
<text text-anchor="middle" x="245.5" y="-63.5" font-family="Helvetica,sans-Serif" font-size="10.00">Comm_PLS.cpp</text>
</a>
</g>
</g>
<!-- Node5&#45;&gt;Node9 -->
<g id="edge5" class="edge"><title>Node5&#45;&gt;Node9</title>
<path fill="none" stroke="midnightblue" d="M155.4,-108.232C177.473,-98.1312 207.676,-84.3091 226.89,-75.5164"/>
<polygon fill="midnightblue" stroke="midnightblue" points="153.834,-105.1 146.197,-112.444 156.747,-111.465 153.834,-105.1"/>
</g>
<!-- Node7&#45;&gt;Node6 -->
<g id="edge3" class="edge"><title>Node7&#45;&gt;Node6</title>
<path fill="none" stroke="midnightblue" d="M105.568,-50.9005C90.1645,-40.9986 70.0542,-28.0705 56.9626,-19.6545"/>
<polygon fill="midnightblue" stroke="midnightblue" points="103.699,-53.8605 114.004,-56.324 107.485,-47.9722 103.699,-53.8605"/>
</g>
<!-- Node8 -->
<g id="node4" class="node"><title>Node8</title>
<g id="a_node4"><a xlink:href="_app___virtual_mapping_8cpp.html" target="_top" xlink:title="Virtual mapping application source file.">
<polygon fill="none" stroke="black" points="105.5,-0.5 105.5,-19.5 227.5,-19.5 227.5,-0.5 105.5,-0.5"/>
<text text-anchor="middle" x="166.5" y="-7.5" font-family="Helvetica,sans-Serif" font-size="10.00">App_VirtualMapping.cpp</text>
</a>
</g>
</g>
<!-- Node7&#45;&gt;Node8 -->
<g id="edge4" class="edge"><title>Node7&#45;&gt;Node8</title>
<path fill="none" stroke="midnightblue" d="M139.882,-47.8554C146.635,-38.5048 154.709,-27.3265 160.18,-19.7511"/>
<polygon fill="midnightblue" stroke="midnightblue" points="136.958,-45.927 133.94,-56.083 142.632,-50.0254 136.958,-45.927"/>
</g>
</g>
</svg>
