<?xml version="1.0" encoding="UTF-8" standalone="no"?>
<!DOCTYPE svg PUBLIC "-//W3C//DTD SVG 1.1//EN"
 "http://www.w3.org/Graphics/SVG/1.1/DTD/svg11.dtd">
<!-- Generated by graphviz version 2.38.0 (20140413.2041)
 -->
<!-- Title: HAL_ADC.cpp Pages: 1 -->
<svg width="161pt" height="140pt"
 viewBox="0.00 0.00 160.50 140.00" xmlns="http://www.w3.org/2000/svg" xmlns:xlink="http://www.w3.org/1999/xlink">
<g id="graph0" class="graph" transform="scale(1 1) rotate(0) translate(4 136)">
<title>HAL_ADC.cpp</title>
<!-- Node0 -->
<g id="node1" class="node"><title>Node0</title>
<polygon fill="#bfbfbf" stroke="black" points="42.5,-112.5 42.5,-131.5 122.5,-131.5 122.5,-112.5 42.5,-112.5"/>
<text text-anchor="middle" x="82.5" y="-119.5" font-family="Helvetica,sans-Serif" font-size="10.00">HAL_ADC.cpp</text>
</g>
<!-- Node1 -->
<g id="node2" class="node"><title>Node1</title>
<g id="a_node2"><a xlink:href="_h_a_l___a_d_c_8h.html" target="_top" xlink:title="Hardware Abstraction Layer (HAL) to interface ADC. ">
<polygon fill="none" stroke="black" points="7,-56.5 7,-75.5 76,-75.5 76,-56.5 7,-56.5"/>
<text text-anchor="middle" x="41.5" y="-63.5" font-family="Helvetica,sans-Serif" font-size="10.00">HAL_ADC.h</text>
</a>
</g>
</g>
<!-- Node0&#45;&gt;Node1 -->
<g id="edge1" class="edge"><title>Node0&#45;&gt;Node1</title>
<path fill="none" stroke="midnightblue" d="M75.7297,-112.083C69.9384,-104.455 61.4415,-93.2645 54.3625,-83.9408"/>
<polygon fill="midnightblue" stroke="midnightblue" points="56.979,-81.5991 48.1443,-75.7511 51.4039,-85.8321 56.979,-81.5991"/>
</g>
<!-- Node3 -->
<g id="node4" class="node"><title>Node3</title>
<polygon fill="none" stroke="#bfbfbf" points="94.5,-56.5 94.5,-75.5 152.5,-75.5 152.5,-56.5 94.5,-56.5"/>
<text text-anchor="middle" x="123.5" y="-63.5" font-family="Helvetica,sans-Serif" font-size="10.00">Arduino.h</text>
</g>
<!-- Node0&#45;&gt;Node3 -->
<g id="edge3" class="edge"><title>Node0&#45;&gt;Node3</title>
<path fill="none" stroke="midnightblue" d="M89.2703,-112.083C95.0616,-104.455 103.558,-93.2645 110.638,-83.9408"/>
<polygon fill="midnightblue" stroke="midnightblue" points="113.596,-85.8321 116.856,-75.7511 108.021,-81.5991 113.596,-85.8321"/>
</g>
<!-- Node2 -->
<g id="node3" class="node"><title>Node2</title>
<g id="a_node3"><a xlink:href="_a_d_a_s___types_8h.html" target="_top" xlink:title="internal datatype mapping file ">
<polygon fill="none" stroke="black" points="0,-0.5 0,-19.5 83,-19.5 83,-0.5 0,-0.5"/>
<text text-anchor="middle" x="41.5" y="-7.5" font-family="Helvetica,sans-Serif" font-size="10.00">ADAS_Types.h</text>
</a>
</g>
</g>
<!-- Node1&#45;&gt;Node2 -->
<g id="edge2" class="edge"><title>Node1&#45;&gt;Node2</title>
<path fill="none" stroke="midnightblue" d="M41.5,-56.083C41.5,-49.0059 41.5,-38.8611 41.5,-29.9865"/>
<polygon fill="midnightblue" stroke="midnightblue" points="45.0001,-29.751 41.5,-19.7511 38.0001,-29.7511 45.0001,-29.751"/>
</g>
</g>
</svg>
