<?xml version="1.0" encoding="UTF-8" standalone="no"?>
<!DOCTYPE svg PUBLIC "-//W3C//DTD SVG 1.1//EN"
 "http://www.w3.org/Graphics/SVG/1.1/DTD/svg11.dtd">
<!-- Generated by graphviz version 2.38.0 (20140413.2041)
 -->
<!-- Title: HAL_ADC.h Pages: 1 -->
<svg width="306pt" height="140pt"
 viewBox="0.00 0.00 305.50 140.00" xmlns="http://www.w3.org/2000/svg" xmlns:xlink="http://www.w3.org/1999/xlink">
<g id="graph0" class="graph" transform="scale(1 1) rotate(0) translate(4 136)">
<title>HAL_ADC.h</title>
<!-- Node2 -->
<g id="node1" class="node"><title>Node2</title>
<polygon fill="#bfbfbf" stroke="black" points="101,-112.5 101,-131.5 170,-131.5 170,-112.5 101,-112.5"/>
<text text-anchor="middle" x="135.5" y="-119.5" font-family="Helvetica,sans-Serif" font-size="10.00">HAL_ADC.h</text>
</g>
<!-- Node3 -->
<g id="node2" class="node"><title>Node3</title>
<g id="a_node2"><a xlink:href="_a_d_a_s___nav_u_8ino.html" target="_top" xlink:title="Main file for the NavU of the ADAS project. ">
<polygon fill="none" stroke="black" points="0,-0.5 0,-19.5 87,-19.5 87,-0.5 0,-0.5"/>
<text text-anchor="middle" x="43.5" y="-7.5" font-family="Helvetica,sans-Serif" font-size="10.00">ADAS_NavU.ino</text>
</a>
</g>
</g>
<!-- Node2&#45;&gt;Node3 -->
<g id="edge1" class="edge"><title>Node2&#45;&gt;Node3</title>
<path fill="none" stroke="midnightblue" d="M104.063,-108.072C89.5278,-100.646 73.1625,-89.9857 62.5,-76 49.5269,-58.9836 45.3967,-33.3093 44.093,-19.8882"/>
<polygon fill="midnightblue" stroke="midnightblue" points="102.741,-111.319 113.272,-112.487 105.768,-105.007 102.741,-111.319"/>
</g>
<!-- Node4 -->
<g id="node3" class="node"><title>Node4</title>
<g id="a_node3"><a xlink:href="_app___environmental_data_8h.html" target="_top" xlink:title="Application file for environmental data. ">
<polygon fill="none" stroke="black" points="71.5,-56.5 71.5,-75.5 199.5,-75.5 199.5,-56.5 71.5,-56.5"/>
<text text-anchor="middle" x="135.5" y="-63.5" font-family="Helvetica,sans-Serif" font-size="10.00">App_EnvironmentalData.h</text>
</a>
</g>
</g>
<!-- Node2&#45;&gt;Node4 -->
<g id="edge2" class="edge"><title>Node2&#45;&gt;Node4</title>
<path fill="none" stroke="midnightblue" d="M135.5,-101.805C135.5,-92.9102 135.5,-82.7798 135.5,-75.7511"/>
<polygon fill="midnightblue" stroke="midnightblue" points="132,-102.083 135.5,-112.083 139,-102.083 132,-102.083"/>
</g>
<!-- Node6 -->
<g id="node5" class="node"><title>Node6</title>
<g id="a_node5"><a xlink:href="_h_a_l___a_d_c_8cpp.html" target="_top" xlink:title="Hardware Abstraction Layer (HAL) to interface ADC. ">
<polygon fill="none" stroke="black" points="217.5,-56.5 217.5,-75.5 297.5,-75.5 297.5,-56.5 217.5,-56.5"/>
<text text-anchor="middle" x="257.5" y="-63.5" font-family="Helvetica,sans-Serif" font-size="10.00">HAL_ADC.cpp</text>
</a>
</g>
</g>
<!-- Node2&#45;&gt;Node6 -->
<g id="edge5" class="edge"><title>Node2&#45;&gt;Node6</title>
<path fill="none" stroke="midnightblue" d="M164.039,-108.368C186.886,-98.2553 218.305,-84.3486 238.259,-75.5164"/>
<polygon fill="midnightblue" stroke="midnightblue" points="162.559,-105.196 154.831,-112.444 165.392,-111.597 162.559,-105.196"/>
</g>
<!-- Node4&#45;&gt;Node3 -->
<g id="edge3" class="edge"><title>Node4&#45;&gt;Node3</title>
<path fill="none" stroke="midnightblue" d="M111.95,-51.1774C95.0211,-41.2407 72.7172,-28.1492 58.2447,-19.6545"/>
<polygon fill="midnightblue" stroke="midnightblue" points="110.323,-54.2804 120.719,-56.324 113.866,-48.2435 110.323,-54.2804"/>
</g>
<!-- Node5 -->
<g id="node4" class="node"><title>Node5</title>
<g id="a_node4"><a xlink:href="_app___environmental_data_8cpp.html" target="_top" xlink:title="Application file for environmental data. ">
<polygon fill="none" stroke="black" points="105,-0.5 105,-19.5 244,-19.5 244,-0.5 105,-0.5"/>
<text text-anchor="middle" x="174.5" y="-7.5" font-family="Helvetica,sans-Serif" font-size="10.00">App_EnvironmentalData.cpp</text>
</a>
</g>
</g>
<!-- Node4&#45;&gt;Node5 -->
<g id="edge4" class="edge"><title>Node4&#45;&gt;Node5</title>
<path fill="none" stroke="midnightblue" d="M147.882,-47.8554C154.635,-38.5048 162.709,-27.3265 168.18,-19.7511"/>
<polygon fill="midnightblue" stroke="midnightblue" points="144.958,-45.927 141.94,-56.083 150.632,-50.0254 144.958,-45.927"/>
</g>
</g>
</svg>
