<?xml version="1.0" encoding="UTF-8" standalone="no"?>
<!DOCTYPE svg PUBLIC "-//W3C//DTD SVG 1.1//EN"
 "http://www.w3.org/Graphics/SVG/1.1/DTD/svg11.dtd">
<!-- Generated by graphviz version 2.38.0 (20140413.2041)
 -->
<!-- Title: HAL_Serial_IF.h Pages: 1 -->
<!--zoomable 252 -->
<svg id="main" version="1.1" xmlns="http://www.w3.org/2000/svg" xmlns:xlink="http://www.w3.org/1999/xlink" xml:space="preserve" onload="init(evt)">
<style type="text/css"><![CDATA[
.edge:hover path { stroke: red; }
.edge:hover polygon { stroke: red; fill: red; }
]]></style>
<script type="text/javascript"><![CDATA[
var edges = document.getElementsByTagName('g');
if (edges && edges.length) {
  for (var i=0;i<edges.length;i++) {
    if (edges[i].id.substr(0,4)=='edge') {
      edges[i].setAttribute('class','edge');
    }
  }
}
]]></script>
        <defs>
                <circle id="rim" cx="0" cy="0" r="7"/>
                <circle id="rim2" cx="0" cy="0" r="3.5"/>
                <g id="zoomPlus">
                        <use xlink:href="#rim" fill="#404040">
                                <set attributeName="fill" to="#808080" begin="zoomplus.mouseover" end="zoomplus.mouseout"/>
                        </use>
                        <path d="M-4,0h8M0,-4v8" fill="none" stroke="white" stroke-width="1.5" pointer-events="none"/>
                </g>
                <g id="zoomMin">
                        <use xlink:href="#rim" fill="#404040">
                                <set attributeName="fill" to="#808080" begin="zoomminus.mouseover" end="zoomminus.mouseout"/>
                        </use>
                        <path d="M-4,0h8" fill="none" stroke="white" stroke-width="1.5" pointer-events="none"/>
                </g>
                <g id="dirArrow">
                        <path fill="none" stroke="white" stroke-width="1.5" d="M0,-3.0v7 M-2.5,-0.5L0,-3.0L2.5,-0.5"/>
                </g>
               <g id="resetDef">
                       <use xlink:href="#rim2" fill="#404040">
                               <set attributeName="fill" to="#808080" begin="reset.mouseover" end="reset.mouseout"/>
                       </use>
               </g>
        </defs>

<script type="text/javascript">
var viewWidth = 584;
var viewHeight = 252;
var sectionId = 'dynsection-1';
</script>
<script xlink:href="svgpan.js"/>
<svg id="graph" class="graph">
<g id="viewport">
<title>HAL_Serial_IF.h</title>
<!-- Node2 -->
<g id="node1" class="node"><title>Node2</title>
<g id="a_node1"><a xlink:title="Hardware Abstraction Layer (HAL) to serial interface.">
<polygon fill="#bfbfbf" stroke="black" points="277.5,-224.5 277.5,-243.5 364.5,-243.5 364.5,-224.5 277.5,-224.5"/>
<text text-anchor="middle" x="321" y="-231.5" font-family="Helvetica,sans-Serif" font-size="10.00">HAL_Serial_IF.h</text>
</a>
</g>
</g>
<!-- Node3 -->
<g id="node2" class="node"><title>Node3</title>
<g id="a_node2"><a xlink:href="_a_d_a_s___nav_u_8ino.html" target="_top" xlink:title="Main file for the NavU of the ADAS project.">
<polygon fill="none" stroke="black" points="259.5,-0.5 259.5,-19.5 346.5,-19.5 346.5,-0.5 259.5,-0.5"/>
<text text-anchor="middle" x="303" y="-7.5" font-family="Helvetica,sans-Serif" font-size="10.00">ADAS_NavU.ino</text>
</a>
</g>
</g>
<!-- Node2&#45;&gt;Node3 -->
<g id="edge1" class="edge"><title>Node2&#45;&gt;Node3</title>
<path fill="none" stroke="midnightblue" d="M319.483,-214.295C315.782,-168.644 306.394,-52.8537 303.72,-19.8837"/>
<polygon fill="midnightblue" stroke="midnightblue" points="315.998,-214.613 320.294,-224.297 322.975,-214.047 315.998,-214.613"/>
</g>
<!-- Node4 -->
<g id="node3" class="node"><title>Node4</title>
<g id="a_node3"><a xlink:href="_comm___p_l_s_8h.html" target="_top" xlink:title=" ">
<polygon fill="none" stroke="black" points="119.5,-112.5 119.5,-131.5 196.5,-131.5 196.5,-112.5 119.5,-112.5"/>
<text text-anchor="middle" x="158" y="-119.5" font-family="Helvetica,sans-Serif" font-size="10.00">Comm_PLS.h</text>
</a>
</g>
</g>
<!-- Node2&#45;&gt;Node4 -->
<g id="edge2" class="edge"><title>Node2&#45;&gt;Node4</title>
<path fill="none" stroke="midnightblue" d="M299.831,-218.714C265.483,-195.535 198.647,-150.43 170.731,-131.591"/>
<polygon fill="midnightblue" stroke="midnightblue" points="297.963,-221.676 308.21,-224.368 301.878,-215.873 297.963,-221.676"/>
</g>
<!-- Node8 -->
<g id="node7" class="node"><title>Node8</title>
<g id="a_node7"><a xlink:href="_comm___i_c_c_8h.html" target="_top" xlink:title="Communication file for Inter&#45;Controller Communication (ICC)">
<polygon fill="none" stroke="black" points="342,-168.5 342,-187.5 416,-187.5 416,-168.5 342,-168.5"/>
<text text-anchor="middle" x="379" y="-175.5" font-family="Helvetica,sans-Serif" font-size="10.00">Comm_ICC.h</text>
</a>
</g>
</g>
<!-- Node2&#45;&gt;Node8 -->
<g id="edge8" class="edge"><title>Node2&#45;&gt;Node8</title>
<path fill="none" stroke="midnightblue" d="M337.913,-217.253C348.203,-207.673 360.966,-195.791 369.512,-187.834"/>
<polygon fill="midnightblue" stroke="midnightblue" points="335.253,-214.948 330.319,-224.324 340.023,-220.071 335.253,-214.948"/>
</g>
<!-- Node12 -->
<g id="node11" class="node"><title>Node12</title>
<g id="a_node11"><a xlink:href="_h_a_l___serial___i_f_8cpp.html" target="_top" xlink:title="Hardware Abstraction Layer (HAL) to serial interface.">
<polygon fill="none" stroke="black" points="434,-168.5 434,-187.5 532,-187.5 532,-168.5 434,-168.5"/>
<text text-anchor="middle" x="483" y="-175.5" font-family="Helvetica,sans-Serif" font-size="10.00">HAL_Serial_IF.cpp</text>
</a>
</g>
</g>
<!-- Node2&#45;&gt;Node12 -->
<g id="edge16" class="edge"><title>Node2&#45;&gt;Node12</title>
<path fill="none" stroke="midnightblue" d="M356.484,-221.172C386.988,-211.004 430.245,-196.585 457.451,-187.516"/>
<polygon fill="midnightblue" stroke="midnightblue" points="355.049,-217.961 346.669,-224.444 357.263,-224.602 355.049,-217.961"/>
</g>
<!-- Node4&#45;&gt;Node3 -->
<g id="edge3" class="edge"><title>Node4&#45;&gt;Node3</title>
<path fill="none" stroke="midnightblue" d="M143.673,-103.926C133.753,-89.9262 124.12,-70.1778 135,-56 142.767,-45.8793 213.494,-29.5098 260.67,-19.5525"/>
<polygon fill="midnightblue" stroke="midnightblue" points="141.15,-106.386 150.021,-112.179 146.698,-102.118 141.15,-106.386"/>
</g>
<!-- Node5 -->
<g id="node4" class="node"><title>Node5</title>
<g id="a_node4"><a xlink:href="_app___virtual_mapping_8h.html" target="_top" xlink:title="Virtual mapping application header file.">
<polygon fill="none" stroke="black" points="144,-56.5 144,-75.5 256,-75.5 256,-56.5 144,-56.5"/>
<text text-anchor="middle" x="200" y="-63.5" font-family="Helvetica,sans-Serif" font-size="10.00">App_VirtualMapping.h</text>
</a>
</g>
</g>
<!-- Node4&#45;&gt;Node5 -->
<g id="edge4" class="edge"><title>Node4&#45;&gt;Node5</title>
<path fill="none" stroke="midnightblue" d="M171.11,-104.144C178.428,-94.7357 187.241,-83.4046 193.194,-75.7511"/>
<polygon fill="midnightblue" stroke="midnightblue" points="168.312,-102.041 164.935,-112.083 173.838,-106.338 168.312,-102.041"/>
</g>
<!-- Node7 -->
<g id="node6" class="node"><title>Node7</title>
<g id="a_node6"><a xlink:href="_comm___p_l_s_8cpp.html" target="_top" xlink:title=" ">
<polygon fill="none" stroke="black" points="0,-56.5 0,-75.5 88,-75.5 88,-56.5 0,-56.5"/>
<text text-anchor="middle" x="44" y="-63.5" font-family="Helvetica,sans-Serif" font-size="10.00">Comm_PLS.cpp</text>
</a>
</g>
</g>
<!-- Node4&#45;&gt;Node7 -->
<g id="edge7" class="edge"><title>Node4&#45;&gt;Node7</title>
<path fill="none" stroke="midnightblue" d="M130.758,-108.096C109.46,-98.0073 80.4583,-84.2697 61.9791,-75.5164"/>
<polygon fill="midnightblue" stroke="midnightblue" points="129.401,-111.326 139.936,-112.444 132.397,-105 129.401,-111.326"/>
</g>
<!-- Node5&#45;&gt;Node3 -->
<g id="edge5" class="edge"><title>Node5&#45;&gt;Node3</title>
<path fill="none" stroke="midnightblue" d="M225.579,-51.5895C244.623,-41.6052 270.064,-28.2672 286.492,-19.6545"/>
<polygon fill="midnightblue" stroke="midnightblue" points="223.78,-48.5808 216.549,-56.324 227.031,-54.7805 223.78,-48.5808"/>
</g>
<!-- Node6 -->
<g id="node5" class="node"><title>Node6</title>
<g id="a_node5"><a xlink:href="_app___virtual_mapping_8cpp.html" target="_top" xlink:title="Virtual mapping application source file.">
<polygon fill="none" stroke="black" points="119,-0.5 119,-19.5 241,-19.5 241,-0.5 119,-0.5"/>
<text text-anchor="middle" x="180" y="-7.5" font-family="Helvetica,sans-Serif" font-size="10.00">App_VirtualMapping.cpp</text>
</a>
</g>
</g>
<!-- Node5&#45;&gt;Node6 -->
<g id="edge6" class="edge"><title>Node5&#45;&gt;Node6</title>
<path fill="none" stroke="midnightblue" d="M193.218,-46.6897C189.848,-37.589 185.931,-27.0141 183.241,-19.7511"/>
<polygon fill="midnightblue" stroke="midnightblue" points="189.942,-47.9211 196.697,-56.083 196.506,-45.4899 189.942,-47.9211"/>
</g>
<!-- Node8&#45;&gt;Node3 -->
<g id="edge9" class="edge"><title>Node8&#45;&gt;Node3</title>
<path fill="none" stroke="midnightblue" d="M426.024,-166.45C494.968,-148.875 610.612,-110.114 565,-56 537.598,-23.4903 413.922,-14.4665 346.749,-11.962"/>
<polygon fill="midnightblue" stroke="midnightblue" points="425.076,-163.079 416.216,-168.888 426.765,-169.872 425.076,-163.079"/>
</g>
<!-- Node9 -->
<g id="node8" class="node"><title>Node9</title>
<g id="a_node8"><a xlink:href="_app___navigation_8h.html" target="_top" xlink:title="Application file for navigation.">
<polygon fill="none" stroke="black" points="333,-112.5 333,-131.5 425,-131.5 425,-112.5 333,-112.5"/>
<text text-anchor="middle" x="379" y="-119.5" font-family="Helvetica,sans-Serif" font-size="10.00">App_Navigation.h</text>
</a>
</g>
</g>
<!-- Node8&#45;&gt;Node9 -->
<g id="edge10" class="edge"><title>Node8&#45;&gt;Node9</title>
<path fill="none" stroke="midnightblue" d="M379,-157.805C379,-148.91 379,-138.78 379,-131.751"/>
<polygon fill="midnightblue" stroke="midnightblue" points="375.5,-158.083 379,-168.083 382.5,-158.083 375.5,-158.083"/>
</g>
<!-- Node11 -->
<g id="node10" class="node"><title>Node11</title>
<g id="a_node10"><a xlink:href="_comm___i_c_c_8cpp.html" target="_top" xlink:title="Communication file for Inter&#45;Controller Communication (ICC)">
<polygon fill="none" stroke="black" points="470.5,-56.5 470.5,-75.5 555.5,-75.5 555.5,-56.5 470.5,-56.5"/>
<text text-anchor="middle" x="513" y="-63.5" font-family="Helvetica,sans-Serif" font-size="10.00">Comm_ICC.cpp</text>
</a>
</g>
</g>
<!-- Node8&#45;&gt;Node11 -->
<g id="edge15" class="edge"><title>Node8&#45;&gt;Node11</title>
<path fill="none" stroke="midnightblue" d="M397.387,-161.977C408.078,-153.237 421.808,-142.003 434,-132 458.578,-111.834 487.409,-88.09 502.529,-75.6309"/>
<polygon fill="midnightblue" stroke="midnightblue" points="395.079,-159.343 389.551,-168.382 399.509,-164.763 395.079,-159.343"/>
</g>
<!-- Node9&#45;&gt;Node3 -->
<g id="edge11" class="edge"><title>Node9&#45;&gt;Node3</title>
<path fill="none" stroke="midnightblue" d="M364.216,-104.878C356.873,-96.5352 348.081,-86.0212 341,-76 327.422,-56.7841 314.151,-32.4556 307.469,-19.7041"/>
<polygon fill="midnightblue" stroke="midnightblue" points="361.678,-107.29 370.96,-112.399 366.89,-102.617 361.678,-107.29"/>
</g>
<!-- Node9&#45;&gt;Node5 -->
<g id="edge12" class="edge"><title>Node9&#45;&gt;Node5</title>
<path fill="none" stroke="midnightblue" d="M340.669,-109.436C306.92,-99.2551 258.553,-84.664 228.23,-75.5164"/>
<polygon fill="midnightblue" stroke="midnightblue" points="340.052,-112.906 350.637,-112.444 342.074,-106.204 340.052,-112.906"/>
</g>
<!-- Node10 -->
<g id="node9" class="node"><title>Node10</title>
<g id="a_node9"><a xlink:href="_app___navigation_8cpp.html" target="_top" xlink:title="Application file for navigation.">
<polygon fill="none" stroke="black" points="350,-56.5 350,-75.5 452,-75.5 452,-56.5 350,-56.5"/>
<text text-anchor="middle" x="401" y="-63.5" font-family="Helvetica,sans-Serif" font-size="10.00">App_Navigation.cpp</text>
</a>
</g>
</g>
<!-- Node9&#45;&gt;Node10 -->
<g id="edge13" class="edge"><title>Node9&#45;&gt;Node10</title>
<path fill="none" stroke="midnightblue" d="M386.46,-102.69C390.167,-93.589 394.476,-83.0141 397.435,-75.7511"/>
<polygon fill="midnightblue" stroke="midnightblue" points="383.165,-101.502 382.633,-112.083 389.647,-104.143 383.165,-101.502"/>
</g>
<!-- Node9&#45;&gt;Node11 -->
<g id="edge14" class="edge"><title>Node9&#45;&gt;Node11</title>
<path fill="none" stroke="midnightblue" d="M409.677,-108.638C434.823,-98.504 469.754,-84.4274 491.867,-75.5164"/>
<polygon fill="midnightblue" stroke="midnightblue" points="408.2,-105.459 400.233,-112.444 410.816,-111.952 408.2,-105.459"/>
</g>
</g>
</svg>
        <g id="navigator" transform="translate(0 0)" fill="#404254">
                <rect fill="#f2f5e9" fill-opacity="0.5" stroke="#606060" stroke-width=".5" x="0" y="0" width="60" height="60"/>
                <use id="zoomplus" xlink:href="#zoomPlus" x="17" y="9" onmousedown="handleZoom(evt,'in')"/>
                <use id="zoomminus" xlink:href="#zoomMin" x="42" y="9" onmousedown="handleZoom(evt,'out')"/>
                <use id="reset" xlink:href="#resetDef" x="30" y="36" onmousedown="handleReset()"/>
                <g id="arrowUp" xlink:href="#dirArrow" transform="translate(30 24)" onmousedown="handlePan(0,-1)">
                  <use xlink:href="#rim" fill="#404040">
                        <set attributeName="fill" to="#808080" begin="arrowUp.mouseover" end="arrowUp.mouseout"/>
                  </use>
                  <path fill="none" stroke="white" stroke-width="1.5" d="M0,-3.0v7 M-2.5,-0.5L0,-3.0L2.5,-0.5"/>
                </g>
                <g id="arrowRight" xlink:href="#dirArrow" transform="rotate(90) translate(36 -43)" onmousedown="handlePan(1,0)">
                  <use xlink:href="#rim" fill="#404040">
                        <set attributeName="fill" to="#808080" begin="arrowRight.mouseover" end="arrowRight.mouseout"/>
                  </use>
                  <path fill="none" stroke="white" stroke-width="1.5" d="M0,-3.0v7 M-2.5,-0.5L0,-3.0L2.5,-0.5"/>
                </g>
                <g id="arrowDown" xlink:href="#dirArrow" transform="rotate(180) translate(-30 -48)" onmousedown="handlePan(0,1)">
                  <use xlink:href="#rim" fill="#404040">
                        <set attributeName="fill" to="#808080" begin="arrowDown.mouseover" end="arrowDown.mouseout"/>
                  </use>
                  <path fill="none" stroke="white" stroke-width="1.5" d="M0,-3.0v7 M-2.5,-0.5L0,-3.0L2.5,-0.5"/>
                </g>
                <g id="arrowLeft" xlink:href="#dirArrow" transform="rotate(270) translate(-36 17)" onmousedown="handlePan(-1,0)">
                  <use xlink:href="#rim" fill="#404040">
                        <set attributeName="fill" to="#808080" begin="arrowLeft.mouseover" end="arrowLeft.mouseout"/>
                  </use>
                  <path fill="none" stroke="white" stroke-width="1.5" d="M0,-3.0v7 M-2.5,-0.5L0,-3.0L2.5,-0.5"/>
                </g>
        </g>
        <svg viewBox="0 0 15 15" width="100%" height="30px" preserveAspectRatio="xMaxYMin meet">
         <g id="arrow_out" transform="scale(0.3 0.3)">
          <a xlink:href="_h_a_l___serial___i_f_8h__dep__incl_org.svg" target="_base">
           <rect id="button" ry="5" rx="5" y="6" x="6" height="38" width="38"
                fill="#f2f5e9" fill-opacity="0.5" stroke="#606060" stroke-width="1.0"/>
           <path id="arrow"
             d="M 11.500037,31.436501 C 11.940474,20.09759 22.043105,11.32322 32.158766,21.979434 L 37.068811,17.246167 C 37.068811,17.246167 37.088388,32 37.088388,32 L 22.160133,31.978069 C 22.160133,31.978069 26.997745,27.140456 26.997745,27.140456 C 18.528582,18.264221 13.291696,25.230495 11.500037,31.436501 z"
             style="fill:#404040;"/>
          </a>
         </g>
        </svg>
</svg>
