<?xml version="1.0" encoding="UTF-8" standalone="no"?>
<!DOCTYPE svg PUBLIC "-//W3C//DTD SVG 1.1//EN"
 "http://www.w3.org/Graphics/SVG/1.1/DTD/svg11.dtd">
<!-- Generated by graphviz version 2.38.0 (20140413.2041)
 -->
<!-- Title: OSAL_TaskCtrl.cpp Pages: 1 -->
<svg width="201pt" height="196pt"
 viewBox="0.00 0.00 200.50 196.00" xmlns="http://www.w3.org/2000/svg" xmlns:xlink="http://www.w3.org/1999/xlink">
<g id="graph0" class="graph" transform="scale(1 1) rotate(0) translate(4 192)">
<title>OSAL_TaskCtrl.cpp</title>
<!-- Node0 -->
<g id="node1" class="node"><title>Node0</title>
<polygon fill="#bfbfbf" stroke="black" points="65,-168.5 65,-187.5 168,-187.5 168,-168.5 65,-168.5"/>
<text text-anchor="middle" x="116.5" y="-175.5" font-family="Helvetica,sans-Serif" font-size="10.00">OSAL_TaskCtrl.cpp</text>
</g>
<!-- Node1 -->
<g id="node2" class="node"><title>Node1</title>
<g id="a_node2"><a xlink:href="_o_s_a_l___task_ctrl_8h.html" target="_top" xlink:title="OSAL_TaskCtrl.h">
<polygon fill="none" stroke="black" points="24.5,-112.5 24.5,-131.5 116.5,-131.5 116.5,-112.5 24.5,-112.5"/>
<text text-anchor="middle" x="70.5" y="-119.5" font-family="Helvetica,sans-Serif" font-size="10.00">OSAL_TaskCtrl.h</text>
</a>
</g>
</g>
<!-- Node0&#45;&gt;Node1 -->
<g id="edge1" class="edge"><title>Node0&#45;&gt;Node1</title>
<path fill="none" stroke="midnightblue" d="M108.904,-168.083C102.273,-160.298 92.479,-148.801 84.4419,-139.367"/>
<polygon fill="midnightblue" stroke="midnightblue" points="87.1037,-137.094 77.9546,-131.751 81.775,-141.633 87.1037,-137.094"/>
</g>
<!-- Node5 -->
<g id="node6" class="node"><title>Node5</title>
<polygon fill="none" stroke="#bfbfbf" points="134.5,-112.5 134.5,-131.5 192.5,-131.5 192.5,-112.5 134.5,-112.5"/>
<text text-anchor="middle" x="163.5" y="-119.5" font-family="Helvetica,sans-Serif" font-size="10.00">Arduino.h</text>
</g>
<!-- Node0&#45;&gt;Node5 -->
<g id="edge6" class="edge"><title>Node0&#45;&gt;Node5</title>
<path fill="none" stroke="midnightblue" d="M124.261,-168.083C131.037,-160.298 141.043,-148.801 149.255,-139.367"/>
<polygon fill="midnightblue" stroke="midnightblue" points="151.958,-141.592 155.883,-131.751 146.678,-136.996 151.958,-141.592"/>
</g>
<!-- Node2 -->
<g id="node3" class="node"><title>Node2</title>
<g id="a_node3"><a xlink:href="_a_d_a_s___types_8h.html" target="_top" xlink:title="ADAS_Types.h">
<polygon fill="none" stroke="black" points="0,-0.5 0,-19.5 83,-19.5 83,-0.5 0,-0.5"/>
<text text-anchor="middle" x="41.5" y="-7.5" font-family="Helvetica,sans-Serif" font-size="10.00">ADAS_Types.h</text>
</a>
</g>
</g>
<!-- Node1&#45;&gt;Node2 -->
<g id="edge2" class="edge"><title>Node1&#45;&gt;Node2</title>
<path fill="none" stroke="midnightblue" d="M59.5098,-112.365C50.0474,-104.171 37.0645,-90.9168 31.5,-76 25.8322,-60.8063 29.5317,-42.4639 33.9489,-29.1436"/>
<polygon fill="midnightblue" stroke="midnightblue" points="37.2583,-30.2861 37.4801,-19.6936 30.7011,-27.8359 37.2583,-30.2861"/>
</g>
<!-- Node3 -->
<g id="node4" class="node"><title>Node3</title>
<g id="a_node4"><a xlink:href="_task___i_f_8h.html" target="_top" xlink:title="Task_IF.h">
<polygon fill="none" stroke="black" points="41,-56.5 41,-75.5 100,-75.5 100,-56.5 41,-56.5"/>
<text text-anchor="middle" x="70.5" y="-63.5" font-family="Helvetica,sans-Serif" font-size="10.00">Task_IF.h</text>
</a>
</g>
</g>
<!-- Node1&#45;&gt;Node3 -->
<g id="edge3" class="edge"><title>Node1&#45;&gt;Node3</title>
<path fill="none" stroke="midnightblue" d="M70.5,-112.083C70.5,-105.006 70.5,-94.8611 70.5,-85.9865"/>
<polygon fill="midnightblue" stroke="midnightblue" points="74.0001,-85.751 70.5,-75.7511 67.0001,-85.7511 74.0001,-85.751"/>
</g>
<!-- Node4 -->
<g id="node5" class="node"><title>Node4</title>
<g id="a_node5"><a xlink:href="_a_d_a_s___cfg_8h.html" target="_top" xlink:title="This file contains the configuration of the vehicle. ">
<polygon fill="none" stroke="black" points="118,-56.5 118,-75.5 189,-75.5 189,-56.5 118,-56.5"/>
<text text-anchor="middle" x="153.5" y="-63.5" font-family="Helvetica,sans-Serif" font-size="10.00">ADAS_Cfg.h</text>
</a>
</g>
</g>
<!-- Node1&#45;&gt;Node4 -->
<g id="edge5" class="edge"><title>Node1&#45;&gt;Node4</title>
<path fill="none" stroke="midnightblue" d="M83.8354,-112.324C96.662,-103.979 116.285,-91.2122 131.44,-81.3524"/>
<polygon fill="midnightblue" stroke="midnightblue" points="133.724,-84.0417 140.198,-75.6545 129.907,-78.1742 133.724,-84.0417"/>
</g>
<!-- Node3&#45;&gt;Node2 -->
<g id="edge4" class="edge"><title>Node3&#45;&gt;Node2</title>
<path fill="none" stroke="midnightblue" d="M65.7112,-56.083C61.7416,-48.6913 55.9749,-37.9533 51.0652,-28.8111"/>
<polygon fill="midnightblue" stroke="midnightblue" points="54.0145,-26.9051 46.1997,-19.7511 47.8475,-30.217 54.0145,-26.9051"/>
</g>
</g>
</svg>
