<?xml version="1.0" encoding="UTF-8" standalone="no"?>
<!DOCTYPE svg PUBLIC "-//W3C//DTD SVG 1.1//EN"
 "http://www.w3.org/Graphics/SVG/1.1/DTD/svg11.dtd">
<!-- Generated by graphviz version 2.38.0 (20140413.2041)
 -->
<!-- Title: Task_IF.h Pages: 1 -->
<svg width="1077pt" height="196pt"
 viewBox="0.00 0.00 1076.50 196.00" xmlns="http://www.w3.org/2000/svg" xmlns:xlink="http://www.w3.org/1999/xlink">
<g id="graph0" class="graph" transform="scale(1 1) rotate(0) translate(4 192)">
<title>Task_IF.h</title>
<!-- Node2 -->
<g id="node1" class="node"><title>Node2</title>
<polygon fill="#bfbfbf" stroke="black" points="498.5,-168.5 498.5,-187.5 557.5,-187.5 557.5,-168.5 498.5,-168.5"/>
<text text-anchor="middle" x="528" y="-175.5" font-family="Helvetica,sans-Serif" font-size="10.00">Task_IF.h</text>
</g>
<!-- Node3 -->
<g id="node2" class="node"><title>Node3</title>
<g id="a_node2"><a xlink:href="_app___navigation_8h.html" target="_top" xlink:title="Application file for navigation. ">
<polygon fill="none" stroke="black" points="178,-112.5 178,-131.5 270,-131.5 270,-112.5 178,-112.5"/>
<text text-anchor="middle" x="224" y="-119.5" font-family="Helvetica,sans-Serif" font-size="10.00">App_Navigation.h</text>
</a>
</g>
</g>
<!-- Node2&#45;&gt;Node3 -->
<g id="edge1" class="edge"><title>Node2&#45;&gt;Node3</title>
<path fill="none" stroke="midnightblue" d="M488.366,-169.96C432.171,-159.978 329.571,-141.753 270.063,-131.182"/>
<polygon fill="midnightblue" stroke="midnightblue" points="487.84,-173.421 498.298,-171.724 489.064,-166.529 487.84,-173.421"/>
</g>
<!-- Node5 -->
<g id="node4" class="node"><title>Node5</title>
<g id="a_node4"><a xlink:href="_app___virtual_mapping_8h.html" target="_top" xlink:title="App_VirtualMapping.h">
<polygon fill="none" stroke="black" points="5,-56.5 5,-75.5 117,-75.5 117,-56.5 5,-56.5"/>
<text text-anchor="middle" x="61" y="-63.5" font-family="Helvetica,sans-Serif" font-size="10.00">App_VirtualMapping.h</text>
</a>
</g>
</g>
<!-- Node2&#45;&gt;Node5 -->
<g id="edge14" class="edge"><title>Node2&#45;&gt;Node5</title>
<path fill="none" stroke="midnightblue" d="M488.005,-177.329C420.387,-176.723 279.998,-170.422 169,-132 130.328,-118.614 90.5264,-90.101 71.8801,-75.7033"/>
<polygon fill="midnightblue" stroke="midnightblue" points="488.199,-180.83 498.217,-177.381 488.235,-173.83 488.199,-180.83"/>
</g>
<!-- Node9 -->
<g id="node8" class="node"><title>Node9</title>
<g id="a_node8"><a xlink:href="_app___positioning_8h.html" target="_top" xlink:title="App_Positioning.h">
<polygon fill="none" stroke="black" points="421.5,-112.5 421.5,-131.5 516.5,-131.5 516.5,-112.5 421.5,-112.5"/>
<text text-anchor="middle" x="469" y="-119.5" font-family="Helvetica,sans-Serif" font-size="10.00">App_Positioning.h</text>
</a>
</g>
</g>
<!-- Node2&#45;&gt;Node9 -->
<g id="edge8" class="edge"><title>Node2&#45;&gt;Node9</title>
<path fill="none" stroke="midnightblue" d="M511.105,-161.537C500.585,-151.909 487.431,-139.869 478.652,-131.834"/>
<polygon fill="midnightblue" stroke="midnightblue" points="508.781,-164.154 518.521,-168.324 513.507,-158.99 508.781,-164.154"/>
</g>
<!-- Node11 -->
<g id="node10" class="node"><title>Node11</title>
<g id="a_node10"><a xlink:href="_app___user_interface_8h.html" target="_top" xlink:title="App_UserInterface.h">
<polygon fill="none" stroke="black" points="535,-112.5 535,-131.5 639,-131.5 639,-112.5 535,-112.5"/>
<text text-anchor="middle" x="587" y="-119.5" font-family="Helvetica,sans-Serif" font-size="10.00">App_UserInterface.h</text>
</a>
</g>
</g>
<!-- Node2&#45;&gt;Node11 -->
<g id="edge11" class="edge"><title>Node2&#45;&gt;Node11</title>
<path fill="none" stroke="midnightblue" d="M544.895,-161.537C555.415,-151.909 568.569,-139.869 577.348,-131.834"/>
<polygon fill="midnightblue" stroke="midnightblue" points="542.493,-158.99 537.479,-168.324 547.219,-164.154 542.493,-158.99"/>
</g>
<!-- Node13 -->
<g id="node12" class="node"><title>Node13</title>
<g id="a_node12"><a xlink:href="_app___environmental_data_8h.html" target="_top" xlink:title="Application file for environmental data. ">
<polygon fill="none" stroke="black" points="677,-112.5 677,-131.5 805,-131.5 805,-112.5 677,-112.5"/>
<text text-anchor="middle" x="741" y="-119.5" font-family="Helvetica,sans-Serif" font-size="10.00">App_EnvironmentalData.h</text>
</a>
</g>
</g>
<!-- Node2&#45;&gt;Node13 -->
<g id="edge15" class="edge"><title>Node2&#45;&gt;Node13</title>
<path fill="none" stroke="midnightblue" d="M567.354,-167.023C607.591,-156.822 669.425,-141.146 707.426,-131.512"/>
<polygon fill="midnightblue" stroke="midnightblue" points="566.45,-163.641 557.617,-169.492 568.17,-170.427 566.45,-163.641"/>
</g>
<!-- Node15 -->
<g id="node14" class="node"><title>Node15</title>
<g id="a_node14"><a xlink:href="_o_s_a_l___task_ctrl_8h.html" target="_top" xlink:title="OSAL_TaskCtrl.h">
<polygon fill="none" stroke="black" points="891,-112.5 891,-131.5 983,-131.5 983,-112.5 891,-112.5"/>
<text text-anchor="middle" x="937" y="-119.5" font-family="Helvetica,sans-Serif" font-size="10.00">OSAL_TaskCtrl.h</text>
</a>
</g>
</g>
<!-- Node2&#45;&gt;Node15 -->
<g id="edge18" class="edge"><title>Node2&#45;&gt;Node15</title>
<path fill="none" stroke="midnightblue" d="M567.889,-171.733C644.139,-161.666 810.17,-139.745 890.977,-129.076"/>
<polygon fill="midnightblue" stroke="midnightblue" points="567.2,-168.294 557.744,-173.073 568.116,-175.234 567.2,-168.294"/>
</g>
<!-- Node4 -->
<g id="node3" class="node"><title>Node4</title>
<g id="a_node3"><a xlink:href="_a_d_a_s___nav_u_8ino.html" target="_top" xlink:title="Main file for the NavU of the ADAS project. ">
<polygon fill="none" stroke="black" points="444.5,-0.5 444.5,-19.5 531.5,-19.5 531.5,-0.5 444.5,-0.5"/>
<text text-anchor="middle" x="488" y="-7.5" font-family="Helvetica,sans-Serif" font-size="10.00">ADAS_NavU.ino</text>
</a>
</g>
</g>
<!-- Node3&#45;&gt;Node4 -->
<g id="edge2" class="edge"><title>Node3&#45;&gt;Node4</title>
<path fill="none" stroke="midnightblue" d="M196.678,-107.376C174.137,-94.3681 148.223,-74.1199 164,-56 199.847,-14.8299 364.578,-10.1169 444.399,-10.3227"/>
<polygon fill="midnightblue" stroke="midnightblue" points="195.234,-110.576 205.685,-112.316 198.6,-104.439 195.234,-110.576"/>
</g>
<!-- Node3&#45;&gt;Node5 -->
<g id="edge3" class="edge"><title>Node3&#45;&gt;Node5</title>
<path fill="none" stroke="midnightblue" d="M188.297,-109.172C157.604,-99.0039 114.081,-84.5852 86.707,-75.5164"/>
<polygon fill="midnightblue" stroke="midnightblue" points="187.579,-112.621 198.172,-112.444 189.78,-105.976 187.579,-112.621"/>
</g>
<!-- Node7 -->
<g id="node6" class="node"><title>Node7</title>
<g id="a_node6"><a xlink:href="_app___navigation_8cpp.html" target="_top" xlink:title="Application file for navigation. ">
<polygon fill="none" stroke="black" points="173,-56.5 173,-75.5 275,-75.5 275,-56.5 173,-56.5"/>
<text text-anchor="middle" x="224" y="-63.5" font-family="Helvetica,sans-Serif" font-size="10.00">App_Navigation.cpp</text>
</a>
</g>
</g>
<!-- Node3&#45;&gt;Node7 -->
<g id="edge6" class="edge"><title>Node3&#45;&gt;Node7</title>
<path fill="none" stroke="midnightblue" d="M224,-101.805C224,-92.9102 224,-82.7798 224,-75.7511"/>
<polygon fill="midnightblue" stroke="midnightblue" points="220.5,-102.083 224,-112.083 227.5,-102.083 220.5,-102.083"/>
</g>
<!-- Node8 -->
<g id="node7" class="node"><title>Node8</title>
<g id="a_node7"><a xlink:href="_comm___i_c_c_8cpp.html" target="_top" xlink:title="Communication file for Inter&#45;Controller Communication (ICC) ">
<polygon fill="none" stroke="black" points="293.5,-56.5 293.5,-75.5 378.5,-75.5 378.5,-56.5 293.5,-56.5"/>
<text text-anchor="middle" x="336" y="-63.5" font-family="Helvetica,sans-Serif" font-size="10.00">Comm_ICC.cpp</text>
</a>
</g>
</g>
<!-- Node3&#45;&gt;Node8 -->
<g id="edge7" class="edge"><title>Node3&#45;&gt;Node8</title>
<path fill="none" stroke="midnightblue" d="M251.249,-107.862C272.016,-97.8492 300.023,-84.3458 318.05,-75.6545"/>
<polygon fill="midnightblue" stroke="midnightblue" points="249.482,-104.828 241.995,-112.324 252.523,-111.134 249.482,-104.828"/>
</g>
<!-- Node5&#45;&gt;Node4 -->
<g id="edge4" class="edge"><title>Node5&#45;&gt;Node4</title>
<path fill="none" stroke="midnightblue" d="M127.17,-56.488C128.457,-56.3238 129.735,-56.161 131,-56 243.939,-41.6216 377.008,-24.9086 444.305,-16.4724"/>
<polygon fill="midnightblue" stroke="midnightblue" points="126.638,-53.0274 117.162,-57.7667 127.525,-59.971 126.638,-53.0274"/>
</g>
<!-- Node6 -->
<g id="node5" class="node"><title>Node6</title>
<g id="a_node5"><a xlink:href="_app___virtual_mapping_8cpp.html" target="_top" xlink:title="App_VirtualMapping.cpp">
<polygon fill="none" stroke="black" points="0,-0.5 0,-19.5 122,-19.5 122,-0.5 0,-0.5"/>
<text text-anchor="middle" x="61" y="-7.5" font-family="Helvetica,sans-Serif" font-size="10.00">App_VirtualMapping.cpp</text>
</a>
</g>
</g>
<!-- Node5&#45;&gt;Node6 -->
<g id="edge5" class="edge"><title>Node5&#45;&gt;Node6</title>
<path fill="none" stroke="midnightblue" d="M61,-45.8045C61,-36.9102 61,-26.7798 61,-19.7511"/>
<polygon fill="midnightblue" stroke="midnightblue" points="57.5001,-46.083 61,-56.083 64.5001,-46.083 57.5001,-46.083"/>
</g>
<!-- Node9&#45;&gt;Node4 -->
<g id="edge9" class="edge"><title>Node9&#45;&gt;Node4</title>
<path fill="none" stroke="midnightblue" d="M448.048,-105.928C432.986,-93.1216 416.822,-74.0024 426,-56 434.699,-38.9372 453.229,-26.8318 467.777,-19.5055"/>
<polygon fill="midnightblue" stroke="midnightblue" points="446.126,-108.871 456.135,-112.346 450.478,-103.388 446.126,-108.871"/>
</g>
<!-- Node10 -->
<g id="node9" class="node"><title>Node10</title>
<g id="a_node9"><a xlink:href="_app___positioning_8cpp.html" target="_top" xlink:title="App_Positioning.cpp">
<polygon fill="none" stroke="black" points="435,-56.5 435,-75.5 541,-75.5 541,-56.5 435,-56.5"/>
<text text-anchor="middle" x="488" y="-63.5" font-family="Helvetica,sans-Serif" font-size="10.00">App_Positioning.cpp</text>
</a>
</g>
</g>
<!-- Node9&#45;&gt;Node10 -->
<g id="edge10" class="edge"><title>Node9&#45;&gt;Node10</title>
<path fill="none" stroke="midnightblue" d="M475.546,-102.396C478.724,-93.362 482.393,-82.936 484.921,-75.7511"/>
<polygon fill="midnightblue" stroke="midnightblue" points="472.155,-101.488 472.137,-112.083 478.758,-103.812 472.155,-101.488"/>
</g>
<!-- Node11&#45;&gt;Node4 -->
<g id="edge12" class="edge"><title>Node11&#45;&gt;Node4</title>
<path fill="none" stroke="midnightblue" d="M579.251,-102.857C572.766,-89.0256 562.562,-70.0304 550,-56 536.426,-40.8392 516.931,-27.7266 503.441,-19.6293"/>
<polygon fill="midnightblue" stroke="midnightblue" points="576.181,-104.565 583.464,-112.26 582.57,-101.703 576.181,-104.565"/>
</g>
<!-- Node12 -->
<g id="node11" class="node"><title>Node12</title>
<g id="a_node11"><a xlink:href="_app___user_interface_8cpp.html" target="_top" xlink:title="App_UserInterface.cpp">
<polygon fill="none" stroke="black" points="597.5,-56.5 597.5,-75.5 712.5,-75.5 712.5,-56.5 597.5,-56.5"/>
<text text-anchor="middle" x="655" y="-63.5" font-family="Helvetica,sans-Serif" font-size="10.00">App_UserInterface.cpp</text>
</a>
</g>
</g>
<!-- Node11&#45;&gt;Node12 -->
<g id="edge13" class="edge"><title>Node11&#45;&gt;Node12</title>
<path fill="none" stroke="midnightblue" d="M605.762,-106.101C618,-96.3824 633.559,-84.0269 643.876,-75.8339"/>
<polygon fill="midnightblue" stroke="midnightblue" points="603.58,-103.364 597.925,-112.324 607.933,-108.846 603.58,-103.364"/>
</g>
<!-- Node13&#45;&gt;Node4 -->
<g id="edge16" class="edge"><title>Node13&#45;&gt;Node4</title>
<path fill="none" stroke="midnightblue" d="M740.275,-102.353C738.67,-87.6328 734.023,-67.6903 721,-56 693.638,-31.437 591.153,-19.2498 531.61,-14.122"/>
<polygon fill="midnightblue" stroke="midnightblue" points="736.787,-102.646 740.997,-112.369 743.769,-102.143 736.787,-102.646"/>
</g>
<!-- Node14 -->
<g id="node13" class="node"><title>Node14</title>
<g id="a_node13"><a xlink:href="_app___environmental_data_8cpp.html" target="_top" xlink:title="Application file for environmental data. ">
<polygon fill="none" stroke="black" points="769.5,-56.5 769.5,-75.5 908.5,-75.5 908.5,-56.5 769.5,-56.5"/>
<text text-anchor="middle" x="839" y="-63.5" font-family="Helvetica,sans-Serif" font-size="10.00">App_EnvironmentalData.cpp</text>
</a>
</g>
</g>
<!-- Node13&#45;&gt;Node14 -->
<g id="edge17" class="edge"><title>Node13&#45;&gt;Node14</title>
<path fill="none" stroke="midnightblue" d="M765.586,-107.453C783.678,-97.4835 807.735,-84.2279 823.294,-75.6545"/>
<polygon fill="midnightblue" stroke="midnightblue" points="763.815,-104.432 756.745,-112.324 767.193,-110.563 763.815,-104.432"/>
</g>
<!-- Node15&#45;&gt;Node4 -->
<g id="edge19" class="edge"><title>Node15&#45;&gt;Node4</title>
<path fill="none" stroke="midnightblue" d="M936.536,-102.049C935.084,-87.1508 930.515,-67.1178 917,-56 887.65,-31.8548 635.092,-17.7064 531.776,-12.883"/>
<polygon fill="midnightblue" stroke="midnightblue" points="933.053,-102.431 937.136,-112.207 940.041,-102.019 933.053,-102.431"/>
</g>
<!-- Node16 -->
<g id="node15" class="node"><title>Node16</title>
<g id="a_node15"><a xlink:href="_o_s_a_l___task_ctrl_8cpp.html" target="_top" xlink:title="OSAL_TaskCtrl.cpp">
<polygon fill="none" stroke="black" points="965.5,-56.5 965.5,-75.5 1068.5,-75.5 1068.5,-56.5 965.5,-56.5"/>
<text text-anchor="middle" x="1017" y="-63.5" font-family="Helvetica,sans-Serif" font-size="10.00">OSAL_TaskCtrl.cpp</text>
</a>
</g>
</g>
<!-- Node15&#45;&gt;Node16 -->
<g id="edge20" class="edge"><title>Node15&#45;&gt;Node16</title>
<path fill="none" stroke="midnightblue" d="M958.301,-106.622C972.915,-96.7574 991.827,-83.9919 1004.18,-75.6545"/>
<polygon fill="midnightblue" stroke="midnightblue" points="956.184,-103.828 949.853,-112.324 960.1,-109.63 956.184,-103.828"/>
</g>
</g>
</svg>
