<?xml version="1.0" encoding="UTF-8" standalone="no"?>
<!DOCTYPE svg PUBLIC "-//W3C//DTD SVG 1.1//EN"
 "http://www.w3.org/Graphics/SVG/1.1/DTD/svg11.dtd">
<!-- Generated by graphviz version 2.38.0 (20140413.2041)
 -->
<!-- Title: ITask_IF::Init Pages: 1 -->
<svg width="271pt" height="28pt"
 viewBox="0.00 0.00 271.00 28.00" xmlns="http://www.w3.org/2000/svg" xmlns:xlink="http://www.w3.org/1999/xlink">
<g id="graph0" class="graph" transform="scale(1 1) rotate(0) translate(4 24)">
<title>ITask_IF::Init</title>
<!-- Node1 -->
<g id="node1" class="node"><title>Node1</title>
<g id="a_node1"><a xlink:title="Initialization pure virtual method.">
<polygon fill="#bfbfbf" stroke="black" points="191,-0.5 191,-19.5 263,-19.5 263,-0.5 191,-0.5"/>
<text text-anchor="middle" x="227" y="-7.5" font-family="Helvetica,sans-Serif" font-size="10.00">ITask_IF::Init</text>
</a>
</g>
</g>
<!-- Node2 -->
<g id="node2" class="node"><title>Node2</title>
<g id="a_node2"><a xlink:href="class_c_task_ctrl.html#a12ec6e8d4a490eba9ebdf22d32cf292b" target="_top" xlink:title="Initialization function task controller.">
<polygon fill="none" stroke="black" points="77,-0.5 77,-19.5 155,-19.5 155,-0.5 77,-0.5"/>
<text text-anchor="middle" x="116" y="-7.5" font-family="Helvetica,sans-Serif" font-size="10.00">CTaskCtrl::Init</text>
</a>
</g>
</g>
<!-- Node1&#45;&gt;Node2 -->
<g id="edge1" class="edge"><title>Node1&#45;&gt;Node2</title>
<path fill="none" stroke="midnightblue" d="M180.71,-10C172.173,-10 163.324,-10 155.037,-10"/>
<polygon fill="midnightblue" stroke="midnightblue" points="180.912,-13.5001 190.912,-10 180.912,-6.5001 180.912,-13.5001"/>
</g>
<!-- Node3 -->
<g id="node3" class="node"><title>Node3</title>
<g id="a_node3"><a xlink:href="_a_d_a_s___nav_u_8ino.html#a4fc01d736fe50cf5b977f755b675f11d" target="_top" xlink:title=" ">
<polygon fill="none" stroke="black" points="0,-0.5 0,-19.5 41,-19.5 41,-0.5 0,-0.5"/>
<text text-anchor="middle" x="20.5" y="-7.5" font-family="Helvetica,sans-Serif" font-size="10.00">setup</text>
</a>
</g>
</g>
<!-- Node2&#45;&gt;Node3 -->
<g id="edge2" class="edge"><title>Node2&#45;&gt;Node3</title>
<path fill="none" stroke="midnightblue" d="M66.7356,-10C57.6345,-10 48.61,-10 41.0437,-10"/>
<polygon fill="midnightblue" stroke="midnightblue" points="66.97,-13.5001 76.97,-10 66.9699,-6.5001 66.97,-13.5001"/>
</g>
</g>
</svg>
