<?xml version="1.0" encoding="UTF-8" standalone="no"?>
<!DOCTYPE svg PUBLIC "-//W3C//DTD SVG 1.1//EN"
 "http://www.w3.org/Graphics/SVG/1.1/DTD/svg11.dtd">
<!-- Generated by graphviz version 2.38.0 (20140413.2041)
 -->
<!-- Title: CSerial::GetDataLen Pages: 1 -->
<svg width="422pt" height="28pt"
 viewBox="0.00 0.00 422.00 28.00" xmlns="http://www.w3.org/2000/svg" xmlns:xlink="http://www.w3.org/1999/xlink">
<g id="graph0" class="graph" transform="scale(1 1) rotate(0) translate(4 24)">
<title>CSerial::GetDataLen</title>
<!-- Node19 -->
<g id="node1" class="node"><title>Node19</title>
<g id="a_node1"><a xlink:title="Function to get length of data.">
<polygon fill="#bfbfbf" stroke="black" points="308,-0.5 308,-19.5 414,-19.5 414,-0.5 308,-0.5"/>
<text text-anchor="middle" x="361" y="-7.5" font-family="Helvetica,sans-Serif" font-size="10.00">CSerial::GetDataLen</text>
</a>
</g>
</g>
<!-- Node20 -->
<g id="node2" class="node"><title>Node20</title>
<g id="a_node2"><a xlink:href="class_c_p_l_s_comms.html#a3124eaa4549706962c7024c7c97e82b0" target="_top" xlink:title="Get asynchronous data recieved from PLS.">
<polygon fill="none" stroke="black" points="126,-0.5 126,-19.5 272,-19.5 272,-0.5 126,-0.5"/>
<text text-anchor="middle" x="199" y="-7.5" font-family="Helvetica,sans-Serif" font-size="10.00">CPLSComms::GetAsyncData</text>
</a>
</g>
</g>
<!-- Node19&#45;&gt;Node20 -->
<g id="edge1" class="edge"><title>Node19&#45;&gt;Node20</title>
<path fill="none" stroke="midnightblue" d="M297.351,-10C289.122,-10 280.635,-10 272.262,-10"/>
<polygon fill="midnightblue" stroke="midnightblue" points="297.61,-13.5001 307.61,-10 297.61,-6.5001 297.61,-13.5001"/>
</g>
<!-- Node21 -->
<g id="node3" class="node"><title>Node21</title>
<g id="a_node3"><a xlink:href="class_c_v_mapping.html#a8f064fcfd01953d7072efd5de23f89ef" target="_top" xlink:title="Run function of virtual mapping Application.">
<polygon fill="none" stroke="black" points="0,-0.5 0,-19.5 90,-19.5 90,-0.5 0,-0.5"/>
<text text-anchor="middle" x="45" y="-7.5" font-family="Helvetica,sans-Serif" font-size="10.00">CVMapping::Run</text>
</a>
</g>
</g>
<!-- Node20&#45;&gt;Node21 -->
<g id="edge2" class="edge"><title>Node20&#45;&gt;Node21</title>
<path fill="none" stroke="midnightblue" d="M115.367,-10C106.704,-10 98.1576,-10 90.1816,-10"/>
<polygon fill="midnightblue" stroke="midnightblue" points="115.561,-13.5001 125.561,-10 115.561,-6.5001 115.561,-13.5001"/>
</g>
</g>
</svg>
