<?xml version="1.0" encoding="UTF-8" standalone="no"?>
<!DOCTYPE svg PUBLIC "-//W3C//DTD SVG 1.1//EN"
 "http://www.w3.org/Graphics/SVG/1.1/DTD/svg11.dtd">
<!-- Generated by graphviz version 2.38.0 (20140413.2041)
 -->
<!-- Title: CVMapping::Run Pages: 1 -->
<svg width="633pt" height="256pt"
 viewBox="0.00 0.00 633.00 256.00" xmlns="http://www.w3.org/2000/svg" xmlns:xlink="http://www.w3.org/1999/xlink">
<g id="graph0" class="graph" transform="scale(1 1) rotate(0) translate(4 252)">
<title>CVMapping::Run</title>
<!-- Node6 -->
<g id="node1" class="node"><title>Node6</title>
<polygon fill="#bfbfbf" stroke="black" points="0,-128.5 0,-147.5 90,-147.5 90,-128.5 0,-128.5"/>
<text text-anchor="middle" x="45" y="-135.5" font-family="Helvetica,sans-Serif" font-size="10.00">CVMapping::Run</text>
</g>
<!-- Node7 -->
<g id="node2" class="node"><title>Node7</title>
<g id="a_node2"><a xlink:href="class_c_navigation.html#aa984fc062deefed13a85d866d997de73" target="_top" xlink:title="Function to return if cornerMode is active. ">
<polygon fill="none" stroke="black" points="150,-223.5 150,-242.5 284,-242.5 284,-223.5 150,-223.5"/>
<text text-anchor="middle" x="217" y="-230.5" font-family="Helvetica,sans-Serif" font-size="10.00">CNavigation::isCornerMode</text>
</a>
</g>
</g>
<!-- Node6&#45;&gt;Node7 -->
<g id="edge1" class="edge"><title>Node6&#45;&gt;Node7</title>
<path fill="none" stroke="midnightblue" d="M53.1869,-147.691C65.9191,-164.111 94.1198,-197.244 126,-214 130.479,-216.354 135.229,-218.417 140.112,-220.224"/>
<polygon fill="midnightblue" stroke="midnightblue" points="139.041,-223.556 149.635,-223.393 141.252,-216.914 139.041,-223.556"/>
</g>
<!-- Node8 -->
<g id="node3" class="node"><title>Node8</title>
<g id="a_node3"><a xlink:href="class_c_p_l_s_comms.html#ae9d000eff184034954829d76162654a5" target="_top" xlink:title="CPLSComms::DataAvailable">
<polygon fill="none" stroke="black" points="147,-185.5 147,-204.5 287,-204.5 287,-185.5 147,-185.5"/>
<text text-anchor="middle" x="217" y="-192.5" font-family="Helvetica,sans-Serif" font-size="10.00">CPLSComms::DataAvailable</text>
</a>
</g>
</g>
<!-- Node6&#45;&gt;Node8 -->
<g id="edge2" class="edge"><title>Node6&#45;&gt;Node8</title>
<path fill="none" stroke="midnightblue" d="M62.9876,-147.516C78.8559,-156.051 103.42,-168.373 126,-176 133.938,-178.681 142.403,-181.062 150.845,-183.152"/>
<polygon fill="midnightblue" stroke="midnightblue" points="150.177,-186.59 160.713,-185.473 151.78,-179.776 150.177,-186.59"/>
</g>
<!-- Node10 -->
<g id="node5" class="node"><title>Node10</title>
<g id="a_node5"><a xlink:href="class_c_p_l_s_comms.html#a3124eaa4549706962c7024c7c97e82b0" target="_top" xlink:title="CPLSComms::GetAsyncData">
<polygon fill="none" stroke="black" points="144,-147.5 144,-166.5 290,-166.5 290,-147.5 144,-147.5"/>
<text text-anchor="middle" x="217" y="-154.5" font-family="Helvetica,sans-Serif" font-size="10.00">CPLSComms::GetAsyncData</text>
</a>
</g>
</g>
<!-- Node6&#45;&gt;Node10 -->
<g id="edge4" class="edge"><title>Node6&#45;&gt;Node10</title>
<path fill="none" stroke="midnightblue" d="M90.2217,-142.942C103.491,-144.425 118.497,-146.103 133.405,-147.769"/>
<polygon fill="midnightblue" stroke="midnightblue" points="133.36,-151.285 143.687,-148.918 134.138,-144.329 133.36,-151.285"/>
</g>
<!-- Node15 -->
<g id="node10" class="node"><title>Node15</title>
<g id="a_node10"><a xlink:href="class_c_navigation.html#a53f0409677e36f62ef232f7e15b32948" target="_top" xlink:title="Function to set the current value of offset position to wall, current angle of the wall and current d...">
<polygon fill="none" stroke="black" points="154.5,-109.5 154.5,-128.5 279.5,-128.5 279.5,-109.5 154.5,-109.5"/>
<text text-anchor="middle" x="217" y="-116.5" font-family="Helvetica,sans-Serif" font-size="10.00">CNavigation::setPLSdata</text>
</a>
</g>
</g>
<!-- Node6&#45;&gt;Node15 -->
<g id="edge11" class="edge"><title>Node6&#45;&gt;Node15</title>
<path fill="none" stroke="midnightblue" d="M90.2217,-133.058C106.74,-131.211 125.951,-129.064 144.313,-127.012"/>
<polygon fill="midnightblue" stroke="midnightblue" points="144.854,-130.473 154.404,-125.884 144.077,-123.517 144.854,-130.473"/>
</g>
<!-- Node16 -->
<g id="node11" class="node"><title>Node16</title>
<g id="a_node11"><a xlink:href="class_c_p_l_s_comms.html#ae8f7e9acdf4243b76f3c7f61cf766cfc" target="_top" xlink:title="CPLSComms::RequestMeasurements">
<polygon fill="none" stroke="black" points="126,-66.5 126,-85.5 308,-85.5 308,-66.5 126,-66.5"/>
<text text-anchor="middle" x="217" y="-73.5" font-family="Helvetica,sans-Serif" font-size="10.00">CPLSComms::RequestMeasurements</text>
</a>
</g>
</g>
<!-- Node6&#45;&gt;Node16 -->
<g id="edge12" class="edge"><title>Node6&#45;&gt;Node16</title>
<path fill="none" stroke="midnightblue" d="M63.706,-128.435C79.6548,-120.101 103.917,-108.112 126,-100 138.097,-95.5564 151.385,-91.5535 163.949,-88.1476"/>
<polygon fill="midnightblue" stroke="midnightblue" points="165.053,-91.4763 173.834,-85.5471 163.272,-84.7066 165.053,-91.4763"/>
</g>
<!-- Node18 -->
<g id="node13" class="node"><title>Node18</title>
<g id="a_node13"><a xlink:href="class_c_navigation.html#a27649dc6324360829d42aea67e88e3ee" target="_top" xlink:title="Pause drive due to obstacle detection. ">
<polygon fill="none" stroke="black" points="156.5,-19.5 156.5,-38.5 277.5,-38.5 277.5,-19.5 156.5,-19.5"/>
<text text-anchor="middle" x="217" y="-26.5" font-family="Helvetica,sans-Serif" font-size="10.00">CNavigation::pauseDrive</text>
</a>
</g>
</g>
<!-- Node6&#45;&gt;Node18 -->
<g id="edge14" class="edge"><title>Node6&#45;&gt;Node18</title>
<path fill="none" stroke="midnightblue" d="M53.0132,-128.25C65.691,-111.314 94.0873,-76.4175 126,-57 136.485,-50.6206 148.551,-45.5759 160.371,-41.6314"/>
<polygon fill="midnightblue" stroke="midnightblue" points="161.695,-44.8851 170.203,-38.5716 159.615,-38.2013 161.695,-44.8851"/>
</g>
<!-- Node9 -->
<g id="node4" class="node"><title>Node9</title>
<g id="a_node4"><a xlink:href="class_c_serial.html#abb43734223d937a86e7616636ea16024" target="_top" xlink:title="Function to check availability of received data. ">
<polygon fill="none" stroke="black" points="363.5,-228.5 363.5,-247.5 455.5,-247.5 455.5,-228.5 363.5,-228.5"/>
<text text-anchor="middle" x="409.5" y="-235.5" font-family="Helvetica,sans-Serif" font-size="10.00">CSerial::Available</text>
</a>
</g>
</g>
<!-- Node8&#45;&gt;Node9 -->
<g id="edge3" class="edge"><title>Node8&#45;&gt;Node9</title>
<path fill="none" stroke="midnightblue" d="M264.299,-204.53C278.352,-207.489 293.822,-210.811 308,-214 324.812,-217.781 343.158,-222.104 359.52,-226.03"/>
<polygon fill="midnightblue" stroke="midnightblue" points="358.878,-229.475 369.419,-228.414 360.517,-222.67 358.878,-229.475"/>
</g>
<!-- Node10&#45;&gt;Node9 -->
<g id="edge5" class="edge"><title>Node10&#45;&gt;Node9</title>
<path fill="none" stroke="midnightblue" d="M287.148,-166.586C294.461,-169.049 301.566,-172.135 308,-176 329.366,-188.834 323.153,-205.338 344,-219 347.112,-221.04 350.449,-222.866 353.907,-224.5"/>
<polygon fill="midnightblue" stroke="midnightblue" points="352.693,-227.786 363.27,-228.393 355.381,-221.322 352.693,-227.786"/>
</g>
<!-- Node11 -->
<g id="node6" class="node"><title>Node11</title>
<g id="a_node6"><a xlink:href="class_c_serial.html#a4327d6041fe9a390612b214709027cbb" target="_top" xlink:title="Function to get length of data. ">
<polygon fill="none" stroke="black" points="356.5,-190.5 356.5,-209.5 462.5,-209.5 462.5,-190.5 356.5,-190.5"/>
<text text-anchor="middle" x="409.5" y="-197.5" font-family="Helvetica,sans-Serif" font-size="10.00">CSerial::GetDataLen</text>
</a>
</g>
</g>
<!-- Node10&#45;&gt;Node11 -->
<g id="edge6" class="edge"><title>Node10&#45;&gt;Node11</title>
<path fill="none" stroke="midnightblue" d="M264.299,-166.53C278.352,-169.489 293.822,-172.811 308,-176 324.812,-179.781 343.158,-184.104 359.52,-188.03"/>
<polygon fill="midnightblue" stroke="midnightblue" points="358.878,-191.475 369.419,-190.414 360.517,-184.67 358.878,-191.475"/>
</g>
<!-- Node12 -->
<g id="node7" class="node"><title>Node12</title>
<g id="a_node7"><a xlink:href="class_c_serial.html#abad86c07f530569b2ceeea75bda485ad" target="_top" xlink:title="Function to read data from buffer. ">
<polygon fill="none" stroke="black" points="364.5,-152.5 364.5,-171.5 454.5,-171.5 454.5,-152.5 364.5,-152.5"/>
<text text-anchor="middle" x="409.5" y="-159.5" font-family="Helvetica,sans-Serif" font-size="10.00">CSerial::GetData</text>
</a>
</g>
</g>
<!-- Node10&#45;&gt;Node12 -->
<g id="edge7" class="edge"><title>Node10&#45;&gt;Node12</title>
<path fill="none" stroke="midnightblue" d="M290.02,-158.89C311.284,-159.448 334.194,-160.05 354.148,-160.573"/>
<polygon fill="midnightblue" stroke="midnightblue" points="354.2,-164.076 364.289,-160.84 354.384,-157.078 354.2,-164.076"/>
</g>
<!-- Node13 -->
<g id="node8" class="node"><title>Node13</title>
<g id="a_node8"><a xlink:href="class_c_serial.html#a941e5cae2ca04518925a3b32f51110a6" target="_top" xlink:title="Function to release buffer. ">
<polygon fill="none" stroke="black" points="511,-133.5 511,-152.5 625,-152.5 625,-133.5 511,-133.5"/>
<text text-anchor="middle" x="568" y="-140.5" font-family="Helvetica,sans-Serif" font-size="10.00">CSerial::ReleaseBuffer</text>
</a>
</g>
</g>
<!-- Node10&#45;&gt;Node13 -->
<g id="edge10" class="edge"><title>Node10&#45;&gt;Node13</title>
<path fill="none" stroke="midnightblue" d="M290.179,-147.592C307.758,-145.684 326.529,-143.968 344,-143 396.539,-140.09 456.147,-140.27 500.509,-141.079"/>
<polygon fill="midnightblue" stroke="midnightblue" points="500.52,-144.58 510.588,-141.278 500.659,-137.581 500.52,-144.58"/>
</g>
<!-- Node14 -->
<g id="node9" class="node"><title>Node14</title>
<g id="a_node9"><a xlink:href="class_c_p_l_s_comms.html#ae0cd51de8a24b261389b6f89b4b80e51" target="_top" xlink:title="CPLSComms::SearchMsg">
<polygon fill="none" stroke="black" points="344,-76.5 344,-95.5 475,-95.5 475,-76.5 344,-76.5"/>
<text text-anchor="middle" x="409.5" y="-83.5" font-family="Helvetica,sans-Serif" font-size="10.00">CPLSComms::SearchMsg</text>
</a>
</g>
</g>
<!-- Node10&#45;&gt;Node14 -->
<g id="edge9" class="edge"><title>Node10&#45;&gt;Node14</title>
<path fill="none" stroke="midnightblue" d="M281.157,-147.482C290.384,-145.007 299.599,-141.899 308,-138 326.386,-129.466 326.296,-119.871 344,-110 351.345,-105.905 359.526,-102.247 367.529,-99.0964"/>
<polygon fill="midnightblue" stroke="midnightblue" points="368.991,-102.287 377.135,-95.5088 366.542,-95.729 368.991,-102.287"/>
</g>
<!-- Node12&#45;&gt;Node13 -->
<g id="edge8" class="edge"><title>Node12&#45;&gt;Node13</title>
<path fill="none" stroke="midnightblue" d="M454.51,-156.657C468.824,-154.919 485.041,-152.95 500.616,-151.059"/>
<polygon fill="midnightblue" stroke="midnightblue" points="501.227,-154.511 510.732,-149.831 500.383,-147.562 501.227,-154.511"/>
</g>
<!-- Node17 -->
<g id="node12" class="node"><title>Node17</title>
<g id="a_node12"><a xlink:href="class_c_buff_adas.html#a2ff1ee5f1dfa56117d76b17027d7b7e8" target="_top" xlink:title="CBuffAdas::Reset">
<polygon fill="none" stroke="black" points="362.5,-38.5 362.5,-57.5 456.5,-57.5 456.5,-38.5 362.5,-38.5"/>
<text text-anchor="middle" x="409.5" y="-45.5" font-family="Helvetica,sans-Serif" font-size="10.00">CBuffAdas::Reset</text>
</a>
</g>
</g>
<!-- Node16&#45;&gt;Node17 -->
<g id="edge13" class="edge"><title>Node16&#45;&gt;Node17</title>
<path fill="none" stroke="midnightblue" d="M282.76,-66.4814C305.295,-63.1693 330.374,-59.4831 352.17,-56.2795"/>
<polygon fill="midnightblue" stroke="midnightblue" points="352.87,-59.7142 362.255,-54.7971 351.852,-52.7886 352.87,-59.7142"/>
</g>
<!-- Node19 -->
<g id="node14" class="node"><title>Node19</title>
<g id="a_node14"><a xlink:href="class_c_i_c_c_comms.html#ab925dd7ff82f30ccd9f770ab2281b3ab" target="_top" xlink:title="Function to append message which shall be sent. ">
<polygon fill="none" stroke="black" points="347.5,-0.5 347.5,-19.5 471.5,-19.5 471.5,-0.5 347.5,-0.5"/>
<text text-anchor="middle" x="409.5" y="-7.5" font-family="Helvetica,sans-Serif" font-size="10.00">CICCComms::addTxMsg</text>
</a>
</g>
</g>
<!-- Node18&#45;&gt;Node19 -->
<g id="edge15" class="edge"><title>Node18&#45;&gt;Node19</title>
<path fill="none" stroke="midnightblue" d="M277.753,-23.0404C296.615,-21.1591 317.645,-19.0616 337.229,-17.1084"/>
<polygon fill="midnightblue" stroke="midnightblue" points="337.715,-20.5773 347.319,-16.1021 337.021,-13.6119 337.715,-20.5773"/>
</g>
</g>
</svg>
