<?xml version="1.0" encoding="UTF-8" standalone="no"?>
<!DOCTYPE svg PUBLIC "-//W3C//DTD SVG 1.1//EN"
 "http://www.w3.org/Graphics/SVG/1.1/DTD/svg11.dtd">
<!-- Generated by graphviz version 2.38.0 (20140413.2041)
 -->
<!-- Title: CADC::ReadADCValue Pages: 1 -->
<svg width="429pt" height="39pt"
 viewBox="0.00 0.00 429.00 39.00" xmlns="http://www.w3.org/2000/svg" xmlns:xlink="http://www.w3.org/1999/xlink">
<g id="graph0" class="graph" transform="scale(1 1) rotate(0) translate(4 35)">
<title>CADC::ReadADCValue</title>
<!-- Node7 -->
<g id="node1" class="node"><title>Node7</title>
<polygon fill="#bfbfbf" stroke="black" points="0,-6 0,-25 117,-25 117,-6 0,-6"/>
<text text-anchor="middle" x="58.5" y="-13" font-family="Helvetica,sans-Serif" font-size="10.00">CADC::ReadADCValue</text>
</g>
<!-- Node8 -->
<g id="node2" class="node"><title>Node8</title>
<g id="a_node2"><a xlink:href="class_c_environmental_data.html#a12a6d60a2a0aa406beb82375fa60e875" target="_top" xlink:title="Function to convert ADC value into mV. ">
<polygon fill="none" stroke="black" points="153,-0.5 153,-30.5 257,-30.5 257,-0.5 153,-0.5"/>
<text text-anchor="start" x="161" y="-18.5" font-family="Helvetica,sans-Serif" font-size="10.00">CEnvironmentalData</text>
<text text-anchor="middle" x="205" y="-7.5" font-family="Helvetica,sans-Serif" font-size="10.00">::GetVbat</text>
</a>
</g>
</g>
<!-- Node7&#45;&gt;Node8 -->
<g id="edge1" class="edge"><title>Node7&#45;&gt;Node8</title>
<path fill="none" stroke="midnightblue" d="M127.087,-15.5C135.718,-15.5 144.438,-15.5 152.751,-15.5"/>
<polygon fill="midnightblue" stroke="midnightblue" points="127.025,-12.0001 117.025,-15.5 127.025,-19.0001 127.025,-12.0001"/>
</g>
<!-- Node9 -->
<g id="node3" class="node"><title>Node9</title>
<g id="a_node3"><a xlink:href="class_c_environmental_data.html#a586a729d3aab2873812517d950c91242" target="_top" xlink:title="Run function of CEnvironmentalData which is periodically called by CTaskCtrl. ">
<polygon fill="none" stroke="black" points="293,-6 293,-25 421,-25 421,-6 293,-6"/>
<text text-anchor="middle" x="357" y="-13" font-family="Helvetica,sans-Serif" font-size="10.00">CEnvironmentalData::Run</text>
</a>
</g>
</g>
<!-- Node8&#45;&gt;Node9 -->
<g id="edge2" class="edge"><title>Node8&#45;&gt;Node9</title>
<path fill="none" stroke="midnightblue" d="M267.315,-15.5C275.727,-15.5 284.377,-15.5 292.822,-15.5"/>
<polygon fill="midnightblue" stroke="midnightblue" points="267.202,-12.0001 257.202,-15.5 267.202,-19.0001 267.202,-12.0001"/>
</g>
</g>
</svg>
