<?xml version="1.0" encoding="UTF-8" standalone="no"?>
<!DOCTYPE svg PUBLIC "-//W3C//DTD SVG 1.1//EN"
 "http://www.w3.org/Graphics/SVG/1.1/DTD/svg11.dtd">
<!-- Generated by graphviz version 2.38.0 (20140413.2041)
 -->
<!-- Title: CEnvironmentalData::Run Pages: 1 -->
<svg width="429pt" height="39pt"
 viewBox="0.00 0.00 429.00 39.00" xmlns="http://www.w3.org/2000/svg" xmlns:xlink="http://www.w3.org/1999/xlink">
<g id="graph0" class="graph" transform="scale(1 1) rotate(0) translate(4 35)">
<title>CEnvironmentalData::Run</title>
<!-- Node10 -->
<g id="node1" class="node"><title>Node10</title>
<g id="a_node1"><a xlink:title="Run function of CEnvironmentalData which is periodically called by CTaskCtrl.">
<polygon fill="#bfbfbf" stroke="black" points="0,-6 0,-25 128,-25 128,-6 0,-6"/>
<text text-anchor="middle" x="64" y="-13" font-family="Helvetica,sans-Serif" font-size="10.00">CEnvironmentalData::Run</text>
</a>
</g>
</g>
<!-- Node11 -->
<g id="node2" class="node"><title>Node11</title>
<g id="a_node2"><a xlink:href="class_c_environmental_data.html#a12a6d60a2a0aa406beb82375fa60e875" target="_top" xlink:title="Function to convert ADC value into mV.">
<polygon fill="none" stroke="black" points="164,-0.5 164,-30.5 268,-30.5 268,-0.5 164,-0.5"/>
<text text-anchor="start" x="172" y="-18.5" font-family="Helvetica,sans-Serif" font-size="10.00">CEnvironmentalData</text>
<text text-anchor="middle" x="216" y="-7.5" font-family="Helvetica,sans-Serif" font-size="10.00">::GetVbat</text>
</a>
</g>
</g>
<!-- Node10&#45;&gt;Node11 -->
<g id="edge1" class="edge"><title>Node10&#45;&gt;Node11</title>
<path fill="none" stroke="midnightblue" d="M128.179,-15.5C136.603,-15.5 145.232,-15.5 153.625,-15.5"/>
<polygon fill="midnightblue" stroke="midnightblue" points="153.716,-19.0001 163.716,-15.5 153.716,-12.0001 153.716,-19.0001"/>
</g>
<!-- Node12 -->
<g id="node3" class="node"><title>Node12</title>
<g id="a_node3"><a xlink:href="class_c_a_d_c.html#ac2f897fc64f605751ac3ffe7d2704ba6" target="_top" xlink:title="Function to read ADC value.">
<polygon fill="none" stroke="black" points="304,-6 304,-25 421,-25 421,-6 304,-6"/>
<text text-anchor="middle" x="362.5" y="-13" font-family="Helvetica,sans-Serif" font-size="10.00">CADC::ReadADCValue</text>
</a>
</g>
</g>
<!-- Node11&#45;&gt;Node12 -->
<g id="edge2" class="edge"><title>Node11&#45;&gt;Node12</title>
<path fill="none" stroke="midnightblue" d="M268.352,-15.5C276.631,-15.5 285.311,-15.5 293.903,-15.5"/>
<polygon fill="midnightblue" stroke="midnightblue" points="293.919,-19.0001 303.919,-15.5 293.919,-12.0001 293.919,-19.0001"/>
</g>
</g>
</svg>
