<?xml version="1.0" encoding="UTF-8" standalone="no"?>
<!DOCTYPE svg PUBLIC "-//W3C//DTD SVG 1.1//EN"
 "http://www.w3.org/Graphics/SVG/1.1/DTD/svg11.dtd">
<!-- Generated by graphviz version 2.38.0 (20140413.2041)
 -->
<!-- Title: CICCComms Pages: 1 -->
<svg width="135pt" height="226pt"
 viewBox="0.00 0.00 135.00 226.00" xmlns="http://www.w3.org/2000/svg" xmlns:xlink="http://www.w3.org/1999/xlink">
<g id="graph0" class="graph" transform="scale(1 1) rotate(0) translate(4 222)">
<title>CICCComms</title>
<!-- Node1 -->
<g id="node1" class="node"><title>Node1</title>
<g id="a_node1"><a xlink:title="Inter&#45;Controller Communication Class.">
<polygon fill="#bfbfbf" stroke="black" points="16.5,-0.5 16.5,-101.5 110.5,-101.5 110.5,-0.5 16.5,-0.5"/>
<text text-anchor="middle" x="63.5" y="-89.5" font-family="Helvetica,sans-Serif" font-size="10.00">CICCComms</text>
<polyline fill="none" stroke="black" points="16.5,-82.5 110.5,-82.5 "/>
<text text-anchor="middle" x="63.5" y="-70.5" font-family="Helvetica,sans-Serif" font-size="10.00"> </text>
<polyline fill="none" stroke="black" points="16.5,-63.5 110.5,-63.5 "/>
<text text-anchor="start" x="24.5" y="-51.5" font-family="Helvetica,sans-Serif" font-size="10.00">+ CICCComms()</text>
<text text-anchor="start" x="24.5" y="-40.5" font-family="Helvetica,sans-Serif" font-size="10.00">+ ~CICCComms()</text>
<text text-anchor="start" x="24.5" y="-29.5" font-family="Helvetica,sans-Serif" font-size="10.00">+ Init()</text>
<text text-anchor="start" x="24.5" y="-18.5" font-family="Helvetica,sans-Serif" font-size="10.00">+ Run()</text>
<text text-anchor="start" x="24.5" y="-7.5" font-family="Helvetica,sans-Serif" font-size="10.00">+ addTxMsg()</text>
</a>
</g>
</g>
<!-- Node2 -->
<g id="node2" class="node"><title>Node2</title>
<g id="a_node2"><a xlink:href="struct_c_i_c_c_comms_1_1_message__t.html" target="_top" xlink:title="Structure for ICC messages.">
<polygon fill="none" stroke="black" points="0,-149.5 0,-217.5 127,-217.5 127,-149.5 0,-149.5"/>
<text text-anchor="middle" x="63.5" y="-205.5" font-family="Helvetica,sans-Serif" font-size="10.00">CICCComms::Message_t</text>
<polyline fill="none" stroke="black" points="0,-198.5 127,-198.5 "/>
<text text-anchor="start" x="8" y="-186.5" font-family="Helvetica,sans-Serif" font-size="10.00">+ cmd</text>
<text text-anchor="start" x="8" y="-175.5" font-family="Helvetica,sans-Serif" font-size="10.00">+ data</text>
<polyline fill="none" stroke="black" points="0,-168.5 127,-168.5 "/>
<text text-anchor="middle" x="63.5" y="-156.5" font-family="Helvetica,sans-Serif" font-size="10.00"> </text>
</a>
</g>
</g>
<!-- Node2&#45;&gt;Node1 -->
<g id="edge1" class="edge"><title>Node2&#45;&gt;Node1</title>
<path fill="none" stroke="#404040" d="M63.5,-149.232C63.5,-138.471 63.5,-126.168 63.5,-114.015"/>
<polygon fill="none" stroke="#404040" points="63.5001,-113.975 59.5,-107.975 63.5,-101.975 67.5,-107.975 63.5001,-113.975"/>
<text text-anchor="middle" x="77.5" y="-123" font-family="Helvetica,sans-Serif" font-size="10.00"> +msg</text>
</g>
</g>
</svg>
