<?xml version="1.0" encoding="UTF-8" standalone="no"?>
<!DOCTYPE svg PUBLIC "-//W3C//DTD SVG 1.1//EN"
 "http://www.w3.org/Graphics/SVG/1.1/DTD/svg11.dtd">
<!-- Generated by graphviz version 2.38.0 (20140413.2041)
 -->
<!-- Title: CNavigation::Run Pages: 1 -->
<svg width="544pt" height="85pt"
 viewBox="0.00 0.00 544.00 85.00" xmlns="http://www.w3.org/2000/svg" xmlns:xlink="http://www.w3.org/1999/xlink">
<g id="graph0" class="graph" transform="scale(1 1) rotate(0) translate(4 81)">
<title>CNavigation::Run</title>
<!-- Node31 -->
<g id="node1" class="node"><title>Node31</title>
<g id="a_node1"><a xlink:title="Run function of CNavigation which is periodically called by CTaskCtrl.">
<polygon fill="#bfbfbf" stroke="black" points="0,-19.5 0,-38.5 91,-38.5 91,-19.5 0,-19.5"/>
<text text-anchor="middle" x="45.5" y="-26.5" font-family="Helvetica,sans-Serif" font-size="10.00">CNavigation::Run</text>
</a>
</g>
</g>
<!-- Node32 -->
<g id="node2" class="node"><title>Node32</title>
<g id="a_node2"><a xlink:href="class_c_i_c_c_comms.html#a8b3fa81307b3b9ba0e72b4aee8279c56" target="_top" xlink:title="Run function of CICCComms which is periodically called by CNavigation.">
<polygon fill="none" stroke="black" points="144.5,-38.5 144.5,-57.5 240.5,-57.5 240.5,-38.5 144.5,-38.5"/>
<text text-anchor="middle" x="192.5" y="-45.5" font-family="Helvetica,sans-Serif" font-size="10.00">CICCComms::Run</text>
</a>
</g>
</g>
<!-- Node31&#45;&gt;Node32 -->
<g id="edge1" class="edge"><title>Node31&#45;&gt;Node32</title>
<path fill="none" stroke="midnightblue" d="M91.1879,-34.8557C104.781,-36.6368 119.911,-38.6194 134.214,-40.4935"/>
<polygon fill="midnightblue" stroke="midnightblue" points="134.078,-44.0056 144.448,-41.8346 134.988,-37.065 134.078,-44.0056"/>
</g>
<!-- Node36 -->
<g id="node6" class="node"><title>Node36</title>
<g id="a_node6"><a xlink:href="class_c_navigation.html#afef253f37646558a755d956ecf2fc6e9" target="_top" xlink:title="Function to get next state.">
<polygon fill="none" stroke="black" points="127,-0.5 127,-19.5 258,-19.5 258,-0.5 127,-0.5"/>
<text text-anchor="middle" x="192.5" y="-7.5" font-family="Helvetica,sans-Serif" font-size="10.00">CNavigation::getNextState</text>
</a>
</g>
</g>
<!-- Node31&#45;&gt;Node36 -->
<g id="edge5" class="edge"><title>Node31&#45;&gt;Node36</title>
<path fill="none" stroke="midnightblue" d="M91.1879,-23.1443C99.4103,-22.0669 108.195,-20.9158 117.019,-19.7595"/>
<polygon fill="midnightblue" stroke="midnightblue" points="117.51,-23.2252 126.971,-18.4556 116.601,-16.2846 117.51,-23.2252"/>
</g>
<!-- Node33 -->
<g id="node3" class="node"><title>Node33</title>
<g id="a_node3"><a xlink:href="class_c_serial.html#abb43734223d937a86e7616636ea16024" target="_top" xlink:title="Function to check availability of received data.">
<polygon fill="none" stroke="black" points="294,-57.5 294,-76.5 386,-76.5 386,-57.5 294,-57.5"/>
<text text-anchor="middle" x="340" y="-64.5" font-family="Helvetica,sans-Serif" font-size="10.00">CSerial::Available</text>
</a>
</g>
</g>
<!-- Node32&#45;&gt;Node33 -->
<g id="edge2" class="edge"><title>Node32&#45;&gt;Node33</title>
<path fill="none" stroke="midnightblue" d="M240.74,-54.1688C254.495,-55.9649 269.643,-57.943 283.84,-59.797"/>
<polygon fill="midnightblue" stroke="midnightblue" points="283.607,-63.2962 293.976,-61.1206 284.514,-56.3552 283.607,-63.2962"/>
</g>
<!-- Node34 -->
<g id="node4" class="node"><title>Node34</title>
<g id="a_node4"><a xlink:href="class_c_serial.html#abad86c07f530569b2ceeea75bda485ad" target="_top" xlink:title="Function to read data from buffer.">
<polygon fill="none" stroke="black" points="295,-19.5 295,-38.5 385,-38.5 385,-19.5 295,-19.5"/>
<text text-anchor="middle" x="340" y="-26.5" font-family="Helvetica,sans-Serif" font-size="10.00">CSerial::GetData</text>
</a>
</g>
</g>
<!-- Node32&#45;&gt;Node34 -->
<g id="edge3" class="edge"><title>Node32&#45;&gt;Node34</title>
<path fill="none" stroke="midnightblue" d="M240.74,-41.8312C254.762,-40.0002 270.232,-37.9801 284.666,-36.0952"/>
<polygon fill="midnightblue" stroke="midnightblue" points="285.495,-39.5166 294.958,-34.7512 284.589,-32.5756 285.495,-39.5166"/>
</g>
<!-- Node35 -->
<g id="node5" class="node"><title>Node35</title>
<g id="a_node5"><a xlink:href="class_c_serial.html#a941e5cae2ca04518925a3b32f51110a6" target="_top" xlink:title="Function to release buffer.">
<polygon fill="none" stroke="black" points="422,-19.5 422,-38.5 536,-38.5 536,-19.5 422,-19.5"/>
<text text-anchor="middle" x="479" y="-26.5" font-family="Helvetica,sans-Serif" font-size="10.00">CSerial::ReleaseBuffer</text>
</a>
</g>
</g>
<!-- Node34&#45;&gt;Node35 -->
<g id="edge4" class="edge"><title>Node34&#45;&gt;Node35</title>
<path fill="none" stroke="midnightblue" d="M385.102,-29C393.627,-29 402.732,-29 411.783,-29"/>
<polygon fill="midnightblue" stroke="midnightblue" points="411.946,-32.5001 421.946,-29 411.946,-25.5001 411.946,-32.5001"/>
</g>
</g>
</svg>
