<?xml version="1.0" encoding="UTF-8" standalone="no"?>
<!DOCTYPE svg PUBLIC "-//W3C//DTD SVG 1.1//EN"
 "http://www.w3.org/Graphics/SVG/1.1/DTD/svg11.dtd">
<!-- Generated by graphviz version 2.38.0 (20140413.2041)
 -->
<!-- Title: CNavigation::printDebugInfo Pages: 1 -->
<svg width="381pt" height="39pt"
 viewBox="0.00 0.00 381.00 39.00" xmlns="http://www.w3.org/2000/svg" xmlns:xlink="http://www.w3.org/1999/xlink">
<g id="graph0" class="graph" transform="scale(1 1) rotate(0) translate(4 35)">
<title>CNavigation::printDebugInfo</title>
<!-- Node28 -->
<g id="node1" class="node"><title>Node28</title>
<g id="a_node1"><a xlink:title="Debug function to print current status of state flow.">
<polygon fill="#bfbfbf" stroke="black" points="238,-6 238,-25 373,-25 373,-6 238,-6"/>
<text text-anchor="middle" x="305.5" y="-13" font-family="Helvetica,sans-Serif" font-size="10.00">CNavigation::printDebugInfo</text>
</a>
</g>
</g>
<!-- Node29 -->
<g id="node2" class="node"><title>Node29</title>
<g id="a_node2"><a xlink:href="class_c_navigation.html#ac491c77788ba2e953a704b6ad622a665" target="_top" xlink:title="Debug function to print current status of state flow if changed.">
<polygon fill="none" stroke="black" points="71,-0.5 71,-30.5 202,-30.5 202,-0.5 71,-0.5"/>
<text text-anchor="start" x="79" y="-18.5" font-family="Helvetica,sans-Serif" font-size="10.00">CNavigation::printChanged</text>
<text text-anchor="middle" x="136.5" y="-7.5" font-family="Helvetica,sans-Serif" font-size="10.00">DebugInfo</text>
</a>
</g>
</g>
<!-- Node28&#45;&gt;Node29 -->
<g id="edge1" class="edge"><title>Node28&#45;&gt;Node29</title>
<path fill="none" stroke="midnightblue" d="M227.296,-15.5C218.846,-15.5 210.309,-15.5 202.035,-15.5"/>
<polygon fill="midnightblue" stroke="midnightblue" points="227.537,-19.0001 237.537,-15.5 227.537,-12.0001 227.537,-19.0001"/>
</g>
<!-- Node30 -->
<g id="node3" class="node"><title>Node30</title>
<g id="a_node3"><a xlink:href="_a_d_a_s___nav_u_8ino.html#afe461d27b9c48d5921c00d521181f12f" target="_top" xlink:title=" ">
<polygon fill="none" stroke="black" points="0,-6 0,-25 35,-25 35,-6 0,-6"/>
<text text-anchor="middle" x="17.5" y="-13" font-family="Helvetica,sans-Serif" font-size="10.00">loop</text>
</a>
</g>
</g>
<!-- Node29&#45;&gt;Node30 -->
<g id="edge2" class="edge"><title>Node29&#45;&gt;Node30</title>
<path fill="none" stroke="midnightblue" d="M60.832,-15.5C51.3958,-15.5 42.5686,-15.5 35.4425,-15.5"/>
<polygon fill="midnightblue" stroke="midnightblue" points="60.8403,-19.0001 70.8402,-15.5 60.8402,-12.0001 60.8403,-19.0001"/>
</g>
</g>
</svg>
