<?xml version="1.0" encoding="UTF-8" standalone="no"?>
<!DOCTYPE svg PUBLIC "-//W3C//DTD SVG 1.1//EN"
 "http://www.w3.org/Graphics/SVG/1.1/DTD/svg11.dtd">
<!-- Generated by graphviz version 2.38.0 (20140413.2041)
 -->
<!-- Title: CSerial::Available Pages: 1 -->
<svg width="409pt" height="104pt"
 viewBox="0.00 0.00 409.00 104.00" xmlns="http://www.w3.org/2000/svg" xmlns:xlink="http://www.w3.org/1999/xlink">
<g id="graph0" class="graph" transform="scale(1 1) rotate(0) translate(4 100)">
<title>CSerial::Available</title>
<!-- Node5 -->
<g id="node1" class="node"><title>Node5</title>
<polygon fill="#bfbfbf" stroke="black" points="0,-38.5 0,-57.5 92,-57.5 92,-38.5 0,-38.5"/>
<text text-anchor="middle" x="46" y="-45.5" font-family="Helvetica,sans-Serif" font-size="10.00">CSerial::Available</text>
</g>
<!-- Node6 -->
<g id="node2" class="node"><title>Node6</title>
<g id="a_node2"><a xlink:href="class_c_i_c_c_comms.html#a8b3fa81307b3b9ba0e72b4aee8279c56" target="_top" xlink:title="Run function of CICCComms which is periodically called by CNavigation. ">
<polygon fill="none" stroke="black" points="153,-76.5 153,-95.5 249,-95.5 249,-76.5 153,-76.5"/>
<text text-anchor="middle" x="201" y="-83.5" font-family="Helvetica,sans-Serif" font-size="10.00">CICCComms::Run</text>
</a>
</g>
</g>
<!-- Node5&#45;&gt;Node6 -->
<g id="edge1" class="edge"><title>Node5&#45;&gt;Node6</title>
<path fill="none" stroke="midnightblue" d="M95.4768,-60.04C116.852,-65.3488 141.613,-71.4988 161.669,-76.4799"/>
<polygon fill="midnightblue" stroke="midnightblue" points="96.1572,-56.6027 85.6084,-57.589 94.4698,-63.3963 96.1572,-56.6027"/>
</g>
<!-- Node8 -->
<g id="node4" class="node"><title>Node8</title>
<g id="a_node4"><a xlink:href="class_c_p_l_s_comms.html#a3124eaa4549706962c7024c7c97e82b0" target="_top" xlink:title="CPLSComms::GetAsyncData">
<polygon fill="none" stroke="black" points="128,-38.5 128,-57.5 274,-57.5 274,-38.5 128,-38.5"/>
<text text-anchor="middle" x="201" y="-45.5" font-family="Helvetica,sans-Serif" font-size="10.00">CPLSComms::GetAsyncData</text>
</a>
</g>
</g>
<!-- Node5&#45;&gt;Node8 -->
<g id="edge3" class="edge"><title>Node5&#45;&gt;Node8</title>
<path fill="none" stroke="midnightblue" d="M102.108,-48C110.508,-48 119.283,-48 127.98,-48"/>
<polygon fill="midnightblue" stroke="midnightblue" points="102.078,-44.5001 92.0775,-48 102.077,-51.5001 102.078,-44.5001"/>
</g>
<!-- Node10 -->
<g id="node6" class="node"><title>Node10</title>
<g id="a_node6"><a xlink:href="class_c_p_l_s_comms.html#ae9d000eff184034954829d76162654a5" target="_top" xlink:title="CPLSComms::DataAvailable">
<polygon fill="none" stroke="black" points="131,-0.5 131,-19.5 271,-19.5 271,-0.5 131,-0.5"/>
<text text-anchor="middle" x="201" y="-7.5" font-family="Helvetica,sans-Serif" font-size="10.00">CPLSComms::DataAvailable</text>
</a>
</g>
</g>
<!-- Node5&#45;&gt;Node10 -->
<g id="edge5" class="edge"><title>Node5&#45;&gt;Node10</title>
<path fill="none" stroke="midnightblue" d="M95.4768,-35.96C116.852,-30.6512 141.613,-24.5012 161.669,-19.5201"/>
<polygon fill="midnightblue" stroke="midnightblue" points="94.4698,-32.6037 85.6084,-38.411 96.1572,-39.3973 94.4698,-32.6037"/>
</g>
<!-- Node7 -->
<g id="node3" class="node"><title>Node7</title>
<g id="a_node3"><a xlink:href="class_c_navigation.html#a86acb1521aab400e542465c8eabed671" target="_top" xlink:title="Run function of CNavigation which is periodically called by CTaskCtrl. ">
<polygon fill="none" stroke="black" points="310,-76.5 310,-95.5 401,-95.5 401,-76.5 310,-76.5"/>
<text text-anchor="middle" x="355.5" y="-83.5" font-family="Helvetica,sans-Serif" font-size="10.00">CNavigation::Run</text>
</a>
</g>
</g>
<!-- Node6&#45;&gt;Node7 -->
<g id="edge2" class="edge"><title>Node6&#45;&gt;Node7</title>
<path fill="none" stroke="midnightblue" d="M259.605,-86C276.283,-86 294.228,-86 309.976,-86"/>
<polygon fill="midnightblue" stroke="midnightblue" points="259.416,-82.5001 249.416,-86 259.416,-89.5001 259.416,-82.5001"/>
</g>
<!-- Node9 -->
<g id="node5" class="node"><title>Node9</title>
<g id="a_node5"><a xlink:href="class_c_v_mapping.html#a8f064fcfd01953d7072efd5de23f89ef" target="_top" xlink:title="CVMapping::Run">
<polygon fill="none" stroke="black" points="310.5,-19.5 310.5,-38.5 400.5,-38.5 400.5,-19.5 310.5,-19.5"/>
<text text-anchor="middle" x="355.5" y="-26.5" font-family="Helvetica,sans-Serif" font-size="10.00">CVMapping::Run</text>
</a>
</g>
</g>
<!-- Node8&#45;&gt;Node9 -->
<g id="edge4" class="edge"><title>Node8&#45;&gt;Node9</title>
<path fill="none" stroke="midnightblue" d="M284.34,-37.7412C293.275,-36.628 302.098,-35.5287 310.314,-34.5052"/>
<polygon fill="midnightblue" stroke="midnightblue" points="283.721,-34.2912 274.231,-39.0008 284.587,-41.2375 283.721,-34.2912"/>
</g>
<!-- Node10&#45;&gt;Node9 -->
<g id="edge6" class="edge"><title>Node10&#45;&gt;Node9</title>
<path fill="none" stroke="midnightblue" d="M281.07,-19.8513C291.032,-21.0926 300.931,-22.3258 310.083,-23.4661"/>
<polygon fill="midnightblue" stroke="midnightblue" points="281.467,-16.3738 271.111,-18.6105 280.601,-23.3201 281.467,-16.3738"/>
</g>
</g>
</svg>
