<?xml version="1.0" encoding="UTF-8" standalone="no"?>
<!DOCTYPE svg PUBLIC "-//W3C//DTD SVG 1.1//EN"
 "http://www.w3.org/Graphics/SVG/1.1/DTD/svg11.dtd">
<!-- Generated by graphviz version 2.38.0 (20140413.2041)
 -->
<!-- Title: CNavigation::printDebugInfo Pages: 1 -->
<svg width="381pt" height="39pt"
 viewBox="0.00 0.00 381.00 39.00" xmlns="http://www.w3.org/2000/svg" xmlns:xlink="http://www.w3.org/1999/xlink">
<g id="graph0" class="graph" transform="scale(1 1) rotate(0) translate(4 35)">
<title>CNavigation::printDebugInfo</title>
<!-- Node28 -->
<g id="node1" class="node"><title>Node28</title>
<polygon fill="#bfbfbf" stroke="black" points="0,-6 0,-25 135,-25 135,-6 0,-6"/>
<text text-anchor="middle" x="67.5" y="-13" font-family="Helvetica,sans-Serif" font-size="10.00">CNavigation::printDebugInfo</text>
</g>
<!-- Node29 -->
<g id="node2" class="node"><title>Node29</title>
<g id="a_node2"><a xlink:href="class_c_navigation.html#ac491c77788ba2e953a704b6ad622a665" target="_top" xlink:title="Debug function to print current status of state flow if changed. ">
<polygon fill="none" stroke="black" points="171,-0.5 171,-30.5 302,-30.5 302,-0.5 171,-0.5"/>
<text text-anchor="start" x="179" y="-18.5" font-family="Helvetica,sans-Serif" font-size="10.00">CNavigation::printChanged</text>
<text text-anchor="middle" x="236.5" y="-7.5" font-family="Helvetica,sans-Serif" font-size="10.00">DebugInfo</text>
</a>
</g>
</g>
<!-- Node28&#45;&gt;Node29 -->
<g id="edge1" class="edge"><title>Node28&#45;&gt;Node29</title>
<path fill="none" stroke="midnightblue" d="M145.704,-15.5C154.154,-15.5 162.691,-15.5 170.965,-15.5"/>
<polygon fill="midnightblue" stroke="midnightblue" points="145.463,-12.0001 135.463,-15.5 145.463,-19.0001 145.463,-12.0001"/>
</g>
<!-- Node30 -->
<g id="node3" class="node"><title>Node30</title>
<g id="a_node3"><a xlink:href="_a_d_a_s___nav_u_8ino.html#afe461d27b9c48d5921c00d521181f12f" target="_top" xlink:title="loop">
<polygon fill="none" stroke="black" points="338,-6 338,-25 373,-25 373,-6 338,-6"/>
<text text-anchor="middle" x="355.5" y="-13" font-family="Helvetica,sans-Serif" font-size="10.00">loop</text>
</a>
</g>
</g>
<!-- Node29&#45;&gt;Node30 -->
<g id="edge2" class="edge"><title>Node29&#45;&gt;Node30</title>
<path fill="none" stroke="midnightblue" d="M312.168,-15.5C321.604,-15.5 330.431,-15.5 337.558,-15.5"/>
<polygon fill="midnightblue" stroke="midnightblue" points="312.16,-12.0001 302.16,-15.5 312.16,-19.0001 312.16,-12.0001"/>
</g>
</g>
</svg>
