<?xml version="1.0" encoding="UTF-8" standalone="no"?>
<!DOCTYPE svg PUBLIC "-//W3C//DTD SVG 1.1//EN"
 "http://www.w3.org/Graphics/SVG/1.1/DTD/svg11.dtd">
<!-- Generated by graphviz version 2.38.0 (20140413.2041)
 -->
<!-- Title: CBuffAdas::Reset Pages: 1 -->
<svg width="446pt" height="66pt"
 viewBox="0.00 0.00 446.00 66.00" xmlns="http://www.w3.org/2000/svg" xmlns:xlink="http://www.w3.org/1999/xlink">
<g id="graph0" class="graph" transform="scale(1 1) rotate(0) translate(4 62)">
<title>CBuffAdas::Reset</title>
<!-- Node13 -->
<g id="node1" class="node"><title>Node13</title>
<polygon fill="#bfbfbf" stroke="black" points="0,-19.5 0,-38.5 94,-38.5 94,-19.5 0,-19.5"/>
<text text-anchor="middle" x="47" y="-26.5" font-family="Helvetica,sans-Serif" font-size="10.00">CBuffAdas::Reset</text>
</g>
<!-- Node14 -->
<g id="node2" class="node"><title>Node14</title>
<g id="a_node2"><a xlink:href="class_c_p_l_s_comms.html#ae7f8d87ea15de35a120d65a7a8bbbb76" target="_top" xlink:title="PLS communication initialization. ">
<polygon fill="none" stroke="black" points="173.5,-38.5 173.5,-57.5 268.5,-57.5 268.5,-38.5 173.5,-38.5"/>
<text text-anchor="middle" x="221" y="-45.5" font-family="Helvetica,sans-Serif" font-size="10.00">CPLSComms::Init</text>
</a>
</g>
</g>
<!-- Node13&#45;&gt;Node14 -->
<g id="edge1" class="edge"><title>Node13&#45;&gt;Node14</title>
<path fill="none" stroke="midnightblue" d="M104.156,-35.2032C126.587,-37.6811 152.111,-40.5006 173.481,-42.8613"/>
<polygon fill="midnightblue" stroke="midnightblue" points="104.417,-31.7109 94.0928,-34.0917 103.648,-38.6686 104.417,-31.7109"/>
</g>
<!-- Node16 -->
<g id="node4" class="node"><title>Node16</title>
<g id="a_node4"><a xlink:href="class_c_p_l_s_comms.html#ab69a49f5c4cd7b4b9f63fa16c7792920" target="_top" xlink:title="Request measurement from PLS. ">
<polygon fill="none" stroke="black" points="130,-0.5 130,-19.5 312,-19.5 312,-0.5 130,-0.5"/>
<text text-anchor="middle" x="221" y="-7.5" font-family="Helvetica,sans-Serif" font-size="10.00">CPLSComms::RequestMeasurements</text>
</a>
</g>
</g>
<!-- Node13&#45;&gt;Node16 -->
<g id="edge3" class="edge"><title>Node13&#45;&gt;Node16</title>
<path fill="none" stroke="midnightblue" d="M104.197,-22.7922C113.735,-21.7385 123.832,-20.6233 133.929,-19.5078"/>
<polygon fill="midnightblue" stroke="midnightblue" points="103.648,-19.3314 94.0928,-23.9083 104.417,-26.2891 103.648,-19.3314"/>
</g>
<!-- Node15 -->
<g id="node3" class="node"><title>Node15</title>
<g id="a_node3"><a xlink:href="_a_d_a_s___nav_u_8ino.html#a4fc01d736fe50cf5b977f755b675f11d" target="_top" xlink:title="setup">
<polygon fill="none" stroke="black" points="372.5,-38.5 372.5,-57.5 413.5,-57.5 413.5,-38.5 372.5,-38.5"/>
<text text-anchor="middle" x="393" y="-45.5" font-family="Helvetica,sans-Serif" font-size="10.00">setup</text>
</a>
</g>
</g>
<!-- Node14&#45;&gt;Node15 -->
<g id="edge2" class="edge"><title>Node14&#45;&gt;Node15</title>
<path fill="none" stroke="midnightblue" d="M279.132,-48C311.37,-48 349.623,-48 372.295,-48"/>
<polygon fill="midnightblue" stroke="midnightblue" points="278.903,-44.5001 268.903,-48 278.903,-51.5001 278.903,-44.5001"/>
</g>
<!-- Node17 -->
<g id="node5" class="node"><title>Node17</title>
<g id="a_node5"><a xlink:href="class_c_v_mapping.html#a8f064fcfd01953d7072efd5de23f89ef" target="_top" xlink:title="Run function of virtual mapping Application. ">
<polygon fill="none" stroke="black" points="348,-0.5 348,-19.5 438,-19.5 438,-0.5 348,-0.5"/>
<text text-anchor="middle" x="393" y="-7.5" font-family="Helvetica,sans-Serif" font-size="10.00">CVMapping::Run</text>
</a>
</g>
</g>
<!-- Node16&#45;&gt;Node17 -->
<g id="edge4" class="edge"><title>Node16&#45;&gt;Node17</title>
<path fill="none" stroke="midnightblue" d="M322.72,-10C331.378,-10 339.811,-10 347.641,-10"/>
<polygon fill="midnightblue" stroke="midnightblue" points="322.475,-6.5001 312.475,-10 322.475,-13.5001 322.475,-6.5001"/>
</g>
</g>
</svg>
