<?xml version="1.0" encoding="UTF-8" standalone="no"?>
<!DOCTYPE svg PUBLIC "-//W3C//DTD SVG 1.1//EN"
 "http://www.w3.org/Graphics/SVG/1.1/DTD/svg11.dtd">
<!-- Generated by graphviz version 2.38.0 (20140413.2041)
 -->
<!-- Title: ITask_IF Pages: 1 -->
<svg width="595pt" height="347pt"
 viewBox="0.00 0.00 594.50 347.00" xmlns="http://www.w3.org/2000/svg" xmlns:xlink="http://www.w3.org/1999/xlink">
<g id="graph0" class="graph" transform="scale(1 1) rotate(0) translate(4 343)">
<title>ITask_IF</title>
<!-- Node0 -->
<g id="node1" class="node"><title>Node0</title>
<polygon fill="#bfbfbf" stroke="black" points="312,-259.5 312,-338.5 365,-338.5 365,-259.5 312,-259.5"/>
<text text-anchor="middle" x="338.5" y="-326.5" font-family="Helvetica,sans-Serif" font-size="10.00">ITask_IF</text>
<polyline fill="none" stroke="black" points="312,-319.5 365,-319.5 "/>
<text text-anchor="middle" x="338.5" y="-307.5" font-family="Helvetica,sans-Serif" font-size="10.00"> </text>
<polyline fill="none" stroke="black" points="312,-300.5 365,-300.5 "/>
<text text-anchor="start" x="320" y="-288.5" font-family="Helvetica,sans-Serif" font-size="10.00">+ Init()</text>
<text text-anchor="start" x="320" y="-277.5" font-family="Helvetica,sans-Serif" font-size="10.00">+ Run()</text>
<text text-anchor="start" x="320" y="-266.5" font-family="Helvetica,sans-Serif" font-size="10.00">+ Stop()</text>
</g>
<!-- Node1 -->
<g id="node2" class="node"><title>Node1</title>
<g id="a_node2"><a xlink:href="class_c_environmental_data.html" target="_top" xlink:title="Environmental Data Class. ">
<polygon fill="none" stroke="black" points="0,-55.5 0,-167.5 125,-167.5 125,-55.5 0,-55.5"/>
<text text-anchor="middle" x="62.5" y="-155.5" font-family="Helvetica,sans-Serif" font-size="10.00">CEnvironmentalData</text>
<polyline fill="none" stroke="black" points="0,-148.5 125,-148.5 "/>
<text text-anchor="middle" x="62.5" y="-136.5" font-family="Helvetica,sans-Serif" font-size="10.00"> </text>
<polyline fill="none" stroke="black" points="0,-129.5 125,-129.5 "/>
<text text-anchor="start" x="8" y="-117.5" font-family="Helvetica,sans-Serif" font-size="10.00">+ CEnvironmentalData()</text>
<text text-anchor="start" x="8" y="-106.5" font-family="Helvetica,sans-Serif" font-size="10.00">+ ~CEnvironmentalData()</text>
<text text-anchor="start" x="8" y="-95.5" font-family="Helvetica,sans-Serif" font-size="10.00">+ Init()</text>
<text text-anchor="start" x="8" y="-84.5" font-family="Helvetica,sans-Serif" font-size="10.00">+ Run()</text>
<text text-anchor="start" x="8" y="-73.5" font-family="Helvetica,sans-Serif" font-size="10.00">+ Stop()</text>
<text text-anchor="start" x="8" y="-62.5" font-family="Helvetica,sans-Serif" font-size="10.00">+ GetVbat()</text>
</a>
</g>
</g>
<!-- Node0&#45;&gt;Node1 -->
<g id="edge1" class="edge"><title>Node0&#45;&gt;Node1</title>
<path fill="none" stroke="midnightblue" d="M301.931,-291.982C257.988,-283.21 183.891,-263.351 133.5,-223 115.078,-208.248 99.9462,-187.363 88.4558,-167.714"/>
<polygon fill="none" stroke="midnightblue" points="301.412,-295.446 311.891,-293.882 302.724,-288.57 301.412,-295.446"/>
</g>
<!-- Node2 -->
<g id="node3" class="node"><title>Node2</title>
<g id="a_node3"><a xlink:href="class_c_navigation.html" target="_top" xlink:title="Navigation algorithm class. ">
<polygon fill="none" stroke="black" points="143,-0.5 143,-222.5 274,-222.5 274,-0.5 143,-0.5"/>
<text text-anchor="middle" x="208.5" y="-210.5" font-family="Helvetica,sans-Serif" font-size="10.00">CNavigation</text>
<polyline fill="none" stroke="black" points="143,-203.5 274,-203.5 "/>
<text text-anchor="start" x="151" y="-191.5" font-family="Helvetica,sans-Serif" font-size="10.00">+ rotationDone</text>
<text text-anchor="start" x="151" y="-180.5" font-family="Helvetica,sans-Serif" font-size="10.00">+ distanceDone</text>
<polyline fill="none" stroke="black" points="143,-173.5 274,-173.5 "/>
<text text-anchor="start" x="151" y="-161.5" font-family="Helvetica,sans-Serif" font-size="10.00">+ CNavigation()</text>
<text text-anchor="start" x="151" y="-150.5" font-family="Helvetica,sans-Serif" font-size="10.00">+ ~CNavigation()</text>
<text text-anchor="start" x="151" y="-139.5" font-family="Helvetica,sans-Serif" font-size="10.00">+ Init()</text>
<text text-anchor="start" x="151" y="-128.5" font-family="Helvetica,sans-Serif" font-size="10.00">+ Run()</text>
<text text-anchor="start" x="151" y="-117.5" font-family="Helvetica,sans-Serif" font-size="10.00">+ Stop()</text>
<text text-anchor="start" x="151" y="-106.5" font-family="Helvetica,sans-Serif" font-size="10.00">+ setPLSdata()</text>
<text text-anchor="start" x="151" y="-95.5" font-family="Helvetica,sans-Serif" font-size="10.00">+ contDrive()</text>
<text text-anchor="start" x="151" y="-84.5" font-family="Helvetica,sans-Serif" font-size="10.00">+ pauseDrive()</text>
<text text-anchor="start" x="151" y="-73.5" font-family="Helvetica,sans-Serif" font-size="10.00">+ getCurrentState()</text>
<text text-anchor="start" x="151" y="-62.5" font-family="Helvetica,sans-Serif" font-size="10.00">+ getNextState()</text>
<text text-anchor="start" x="151" y="-51.5" font-family="Helvetica,sans-Serif" font-size="10.00">+ printChangedDebugInfo()</text>
<text text-anchor="start" x="151" y="-40.5" font-family="Helvetica,sans-Serif" font-size="10.00">+ printDebugInfo()</text>
<text text-anchor="start" x="151" y="-29.5" font-family="Helvetica,sans-Serif" font-size="10.00">+ stopDrive()</text>
<text text-anchor="start" x="151" y="-18.5" font-family="Helvetica,sans-Serif" font-size="10.00">+ continueDrive()</text>
<text text-anchor="start" x="151" y="-7.5" font-family="Helvetica,sans-Serif" font-size="10.00">+ isCornerMode()</text>
</a>
</g>
</g>
<!-- Node0&#45;&gt;Node2 -->
<g id="edge2" class="edge"><title>Node0&#45;&gt;Node2</title>
<path fill="none" stroke="midnightblue" d="M305.821,-254C298.412,-243.868 290.628,-233.101 283.5,-223 280.425,-218.643 277.298,-214.177 274.152,-209.657"/>
<polygon fill="none" stroke="midnightblue" points="303.198,-256.34 311.935,-262.332 308.841,-252.199 303.198,-256.34"/>
</g>
<!-- Node3 -->
<g id="node4" class="node"><title>Node3</title>
<g id="a_node4"><a xlink:href="class_c_positioning.html" target="_top" xlink:title="{CPositioning\n||+ CPositioning()\l+ ~CPositioning()\l+ Init()\l+ Run()\l+ Stop()\l}">
<polygon fill="none" stroke="black" points="292.5,-61 292.5,-162 384.5,-162 384.5,-61 292.5,-61"/>
<text text-anchor="middle" x="338.5" y="-150" font-family="Helvetica,sans-Serif" font-size="10.00">CPositioning</text>
<polyline fill="none" stroke="black" points="292.5,-143 384.5,-143 "/>
<text text-anchor="middle" x="338.5" y="-131" font-family="Helvetica,sans-Serif" font-size="10.00"> </text>
<polyline fill="none" stroke="black" points="292.5,-124 384.5,-124 "/>
<text text-anchor="start" x="300.5" y="-112" font-family="Helvetica,sans-Serif" font-size="10.00">+ CPositioning()</text>
<text text-anchor="start" x="300.5" y="-101" font-family="Helvetica,sans-Serif" font-size="10.00">+ ~CPositioning()</text>
<text text-anchor="start" x="300.5" y="-90" font-family="Helvetica,sans-Serif" font-size="10.00">+ Init()</text>
<text text-anchor="start" x="300.5" y="-79" font-family="Helvetica,sans-Serif" font-size="10.00">+ Run()</text>
<text text-anchor="start" x="300.5" y="-68" font-family="Helvetica,sans-Serif" font-size="10.00">+ Stop()</text>
</a>
</g>
</g>
<!-- Node0&#45;&gt;Node3 -->
<g id="edge3" class="edge"><title>Node0&#45;&gt;Node3</title>
<path fill="none" stroke="midnightblue" d="M338.5,-248.827C338.5,-222.095 338.5,-189.113 338.5,-162.286"/>
<polygon fill="none" stroke="midnightblue" points="335,-249.113 338.5,-259.113 342,-249.113 335,-249.113"/>
</g>
<!-- Node4 -->
<g id="node5" class="node"><title>Node4</title>
<g id="a_node5"><a xlink:href="class_c_user___i_f.html" target="_top" xlink:title="{CUser_IF\n||+ CUser_IF()\l+ ~CUser_IF()\l+ Init()\l+ Run()\l+ Stop()\l}">
<polygon fill="none" stroke="black" points="402.5,-61 402.5,-162 480.5,-162 480.5,-61 402.5,-61"/>
<text text-anchor="middle" x="441.5" y="-150" font-family="Helvetica,sans-Serif" font-size="10.00">CUser_IF</text>
<polyline fill="none" stroke="black" points="402.5,-143 480.5,-143 "/>
<text text-anchor="middle" x="441.5" y="-131" font-family="Helvetica,sans-Serif" font-size="10.00"> </text>
<polyline fill="none" stroke="black" points="402.5,-124 480.5,-124 "/>
<text text-anchor="start" x="410.5" y="-112" font-family="Helvetica,sans-Serif" font-size="10.00">+ CUser_IF()</text>
<text text-anchor="start" x="410.5" y="-101" font-family="Helvetica,sans-Serif" font-size="10.00">+ ~CUser_IF()</text>
<text text-anchor="start" x="410.5" y="-90" font-family="Helvetica,sans-Serif" font-size="10.00">+ Init()</text>
<text text-anchor="start" x="410.5" y="-79" font-family="Helvetica,sans-Serif" font-size="10.00">+ Run()</text>
<text text-anchor="start" x="410.5" y="-68" font-family="Helvetica,sans-Serif" font-size="10.00">+ Stop()</text>
</a>
</g>
</g>
<!-- Node0&#45;&gt;Node4 -->
<g id="edge4" class="edge"><title>Node0&#45;&gt;Node4</title>
<path fill="none" stroke="midnightblue" d="M371.257,-256.782C379.036,-246.094 386.965,-234.38 393.5,-223 404.541,-203.774 414.668,-181.524 422.745,-162.052"/>
<polygon fill="none" stroke="midnightblue" points="368.227,-254.992 365.079,-265.108 373.849,-259.162 368.227,-254.992"/>
</g>
<!-- Node5 -->
<g id="node6" class="node"><title>Node5</title>
<g id="a_node6"><a xlink:href="class_c_v_mapping.html" target="_top" xlink:title="Virtual mapping application class. ">
<polygon fill="none" stroke="black" points="498.5,-61 498.5,-162 586.5,-162 586.5,-61 498.5,-61"/>
<text text-anchor="middle" x="542.5" y="-150" font-family="Helvetica,sans-Serif" font-size="10.00">CVMapping</text>
<polyline fill="none" stroke="black" points="498.5,-143 586.5,-143 "/>
<text text-anchor="middle" x="542.5" y="-131" font-family="Helvetica,sans-Serif" font-size="10.00"> </text>
<polyline fill="none" stroke="black" points="498.5,-124 586.5,-124 "/>
<text text-anchor="start" x="506.5" y="-112" font-family="Helvetica,sans-Serif" font-size="10.00">+ CVMapping()</text>
<text text-anchor="start" x="506.5" y="-101" font-family="Helvetica,sans-Serif" font-size="10.00">+ ~CVMapping()</text>
<text text-anchor="start" x="506.5" y="-90" font-family="Helvetica,sans-Serif" font-size="10.00">+ Init()</text>
<text text-anchor="start" x="506.5" y="-79" font-family="Helvetica,sans-Serif" font-size="10.00">+ Run()</text>
<text text-anchor="start" x="506.5" y="-68" font-family="Helvetica,sans-Serif" font-size="10.00">+ Stop()</text>
</a>
</g>
</g>
<!-- Node0&#45;&gt;Node5 -->
<g id="edge5" class="edge"><title>Node0&#45;&gt;Node5</title>
<path fill="none" stroke="midnightblue" d="M375.024,-287.463C408.456,-276.215 457.46,-255.484 489.5,-223 506.159,-206.11 518.361,-182.971 526.827,-162.23"/>
<polygon fill="none" stroke="midnightblue" points="373.618,-284.239 365.184,-290.652 375.776,-290.898 373.618,-284.239"/>
</g>
</g>
</svg>
