<?xml version="1.0" encoding="UTF-8" standalone="no"?>
<!DOCTYPE svg PUBLIC "-//W3C//DTD SVG 1.1//EN"
 "http://www.w3.org/Graphics/SVG/1.1/DTD/svg11.dtd">
<!-- Generated by graphviz version 2.38.0 (20140413.2041)
 -->
<!-- Title: CUser_IF Pages: 1 -->
<svg width="86pt" height="226pt"
 viewBox="0.00 0.00 86.00 226.00" xmlns="http://www.w3.org/2000/svg" xmlns:xlink="http://www.w3.org/1999/xlink">
<g id="graph0" class="graph" transform="scale(1 1) rotate(0) translate(4 222)">
<title>CUser_IF</title>
<!-- Node2 -->
<g id="node1" class="node"><title>Node2</title>
<polygon fill="#bfbfbf" stroke="black" points="0,-0.5 0,-101.5 78,-101.5 78,-0.5 0,-0.5"/>
<text text-anchor="middle" x="39" y="-89.5" font-family="Helvetica,sans-Serif" font-size="10.00">CUser_IF</text>
<polyline fill="none" stroke="black" points="0,-82.5 78,-82.5 "/>
<text text-anchor="middle" x="39" y="-70.5" font-family="Helvetica,sans-Serif" font-size="10.00"> </text>
<polyline fill="none" stroke="black" points="0,-63.5 78,-63.5 "/>
<text text-anchor="start" x="8" y="-51.5" font-family="Helvetica,sans-Serif" font-size="10.00">+ CUser_IF()</text>
<text text-anchor="start" x="8" y="-40.5" font-family="Helvetica,sans-Serif" font-size="10.00">+ ~CUser_IF()</text>
<text text-anchor="start" x="8" y="-29.5" font-family="Helvetica,sans-Serif" font-size="10.00">+ Init()</text>
<text text-anchor="start" x="8" y="-18.5" font-family="Helvetica,sans-Serif" font-size="10.00">+ Run()</text>
<text text-anchor="start" x="8" y="-7.5" font-family="Helvetica,sans-Serif" font-size="10.00">+ Stop()</text>
</g>
<!-- Node3 -->
<g id="node2" class="node"><title>Node3</title>
<g id="a_node2"><a xlink:href="class_i_task___i_f.html" target="_top" xlink:title="{ITask_IF\n||+ Init()\l+ Run()\l+ Stop()\l}">
<polygon fill="none" stroke="black" points="12.5,-138.5 12.5,-217.5 65.5,-217.5 65.5,-138.5 12.5,-138.5"/>
<text text-anchor="middle" x="39" y="-205.5" font-family="Helvetica,sans-Serif" font-size="10.00">ITask_IF</text>
<polyline fill="none" stroke="black" points="12.5,-198.5 65.5,-198.5 "/>
<text text-anchor="middle" x="39" y="-186.5" font-family="Helvetica,sans-Serif" font-size="10.00"> </text>
<polyline fill="none" stroke="black" points="12.5,-179.5 65.5,-179.5 "/>
<text text-anchor="start" x="20.5" y="-167.5" font-family="Helvetica,sans-Serif" font-size="10.00">+ Init()</text>
<text text-anchor="start" x="20.5" y="-156.5" font-family="Helvetica,sans-Serif" font-size="10.00">+ Run()</text>
<text text-anchor="start" x="20.5" y="-145.5" font-family="Helvetica,sans-Serif" font-size="10.00">+ Stop()</text>
</a>
</g>
</g>
<!-- Node3&#45;&gt;Node2 -->
<g id="edge1" class="edge"><title>Node3&#45;&gt;Node2</title>
<path fill="none" stroke="midnightblue" d="M39,-128.406C39,-119.639 39,-110.488 39,-101.691"/>
<polygon fill="none" stroke="midnightblue" points="35.5001,-128.476 39,-138.476 42.5001,-128.476 35.5001,-128.476"/>
</g>
</g>
</svg>
