<?xml version="1.0" encoding="UTF-8" standalone="no"?>
<!DOCTYPE svg PUBLIC "-//W3C//DTD SVG 1.1//EN"
 "http://www.w3.org/Graphics/SVG/1.1/DTD/svg11.dtd">
<!-- Generated by graphviz version 2.38.0 (20140413.2041)
 -->
<!-- Title: CSerial::GetData Pages: 1 -->
<svg width="407pt" height="66pt"
 viewBox="0.00 0.00 407.00 66.00" xmlns="http://www.w3.org/2000/svg" xmlns:xlink="http://www.w3.org/1999/xlink">
<g id="graph0" class="graph" transform="scale(1 1) rotate(0) translate(4 62)">
<title>CSerial::GetData</title>
<!-- Node13 -->
<g id="node1" class="node"><title>Node13</title>
<polygon fill="#bfbfbf" stroke="black" points="0,-19.5 0,-38.5 90,-38.5 90,-19.5 0,-19.5"/>
<text text-anchor="middle" x="45" y="-26.5" font-family="Helvetica,sans-Serif" font-size="10.00">CSerial::GetData</text>
</g>
<!-- Node14 -->
<g id="node2" class="node"><title>Node14</title>
<g id="a_node2"><a xlink:href="class_c_i_c_c_comms.html#a8b3fa81307b3b9ba0e72b4aee8279c56" target="_top" xlink:title="Run function of CICCComms which is periodically called by CNavigation. ">
<polygon fill="none" stroke="black" points="151,-38.5 151,-57.5 247,-57.5 247,-38.5 151,-38.5"/>
<text text-anchor="middle" x="199" y="-45.5" font-family="Helvetica,sans-Serif" font-size="10.00">CICCComms::Run</text>
</a>
</g>
</g>
<!-- Node13&#45;&gt;Node14 -->
<g id="edge1" class="edge"><title>Node13&#45;&gt;Node14</title>
<path fill="none" stroke="midnightblue" d="M100.432,-35.804C116.943,-37.8679 134.936,-40.117 150.922,-42.1153"/>
<polygon fill="midnightblue" stroke="midnightblue" points="100.73,-32.3141 90.3733,-34.5467 99.8619,-39.2601 100.73,-32.3141"/>
</g>
<!-- Node16 -->
<g id="node4" class="node"><title>Node16</title>
<g id="a_node4"><a xlink:href="class_c_p_l_s_comms.html#a3124eaa4549706962c7024c7c97e82b0" target="_top" xlink:title="CPLSComms::GetAsyncData">
<polygon fill="none" stroke="black" points="126,-0.5 126,-19.5 272,-19.5 272,-0.5 126,-0.5"/>
<text text-anchor="middle" x="199" y="-7.5" font-family="Helvetica,sans-Serif" font-size="10.00">CPLSComms::GetAsyncData</text>
</a>
</g>
</g>
<!-- Node13&#45;&gt;Node16 -->
<g id="edge3" class="edge"><title>Node13&#45;&gt;Node16</title>
<path fill="none" stroke="midnightblue" d="M100.544,-22.182C108.752,-21.156 117.324,-20.0845 125.832,-19.0211"/>
<polygon fill="midnightblue" stroke="midnightblue" points="99.8619,-18.7399 90.3733,-23.4533 100.73,-25.6859 99.8619,-18.7399"/>
</g>
<!-- Node15 -->
<g id="node3" class="node"><title>Node15</title>
<g id="a_node3"><a xlink:href="class_c_navigation.html#a86acb1521aab400e542465c8eabed671" target="_top" xlink:title="Run function of CNavigation which is periodically called by CTaskCtrl. ">
<polygon fill="none" stroke="black" points="308,-38.5 308,-57.5 399,-57.5 399,-38.5 308,-38.5"/>
<text text-anchor="middle" x="353.5" y="-45.5" font-family="Helvetica,sans-Serif" font-size="10.00">CNavigation::Run</text>
</a>
</g>
</g>
<!-- Node14&#45;&gt;Node15 -->
<g id="edge2" class="edge"><title>Node14&#45;&gt;Node15</title>
<path fill="none" stroke="midnightblue" d="M257.605,-48C274.283,-48 292.228,-48 307.976,-48"/>
<polygon fill="midnightblue" stroke="midnightblue" points="257.416,-44.5001 247.416,-48 257.416,-51.5001 257.416,-44.5001"/>
</g>
<!-- Node17 -->
<g id="node5" class="node"><title>Node17</title>
<g id="a_node5"><a xlink:href="class_c_v_mapping.html#a8f064fcfd01953d7072efd5de23f89ef" target="_top" xlink:title="CVMapping::Run">
<polygon fill="none" stroke="black" points="308.5,-0.5 308.5,-19.5 398.5,-19.5 398.5,-0.5 308.5,-0.5"/>
<text text-anchor="middle" x="353.5" y="-7.5" font-family="Helvetica,sans-Serif" font-size="10.00">CVMapping::Run</text>
</a>
</g>
</g>
<!-- Node16&#45;&gt;Node17 -->
<g id="edge4" class="edge"><title>Node16&#45;&gt;Node17</title>
<path fill="none" stroke="midnightblue" d="M282.34,-10C291.275,-10 300.098,-10 308.314,-10"/>
<polygon fill="midnightblue" stroke="midnightblue" points="282.231,-6.5001 272.231,-10 282.231,-13.5001 282.231,-6.5001"/>
</g>
</g>
</svg>
