<?xml version="1.0" encoding="UTF-8" standalone="no"?>
<!DOCTYPE svg PUBLIC "-//W3C//DTD SVG 1.1//EN"
 "http://www.w3.org/Graphics/SVG/1.1/DTD/svg11.dtd">
<!-- Generated by graphviz version 2.38.0 (20140413.2041)
 -->
<!-- Title: CNavigation::setRotationDone Pages: 1 -->
<svg width="413pt" height="28pt"
 viewBox="0.00 0.00 413.00 28.00" xmlns="http://www.w3.org/2000/svg" xmlns:xlink="http://www.w3.org/1999/xlink">
<g id="graph0" class="graph" transform="scale(1 1) rotate(0) translate(4 24)">
<title>CNavigation::setRotationDone</title>
<!-- Node43 -->
<g id="node1" class="node"><title>Node43</title>
<polygon fill="#bfbfbf" stroke="black" points="0,-0.5 0,-19.5 146,-19.5 146,-0.5 0,-0.5"/>
<text text-anchor="middle" x="73" y="-7.5" font-family="Helvetica,sans-Serif" font-size="10.00">CNavigation::setRotationDone</text>
</g>
<!-- Node44 -->
<g id="node2" class="node"><title>Node44</title>
<g id="a_node2"><a xlink:href="class_c_i_c_c_comms.html#a8b3fa81307b3b9ba0e72b4aee8279c56" target="_top" xlink:title="Run function of CICCComms which is periodically called by CNavigation. ">
<polygon fill="none" stroke="black" points="182,-0.5 182,-19.5 278,-19.5 278,-0.5 182,-0.5"/>
<text text-anchor="middle" x="230" y="-7.5" font-family="Helvetica,sans-Serif" font-size="10.00">CICCComms::Run</text>
</a>
</g>
</g>
<!-- Node43&#45;&gt;Node44 -->
<g id="edge1" class="edge"><title>Node43&#45;&gt;Node44</title>
<path fill="none" stroke="midnightblue" d="M156.058,-10C164.909,-10 173.681,-10 181.91,-10"/>
<polygon fill="midnightblue" stroke="midnightblue" points="156.055,-6.5001 146.055,-10 156.055,-13.5001 156.055,-6.5001"/>
</g>
<!-- Node45 -->
<g id="node3" class="node"><title>Node45</title>
<g id="a_node3"><a xlink:href="class_c_navigation.html#a86acb1521aab400e542465c8eabed671" target="_top" xlink:title="CNavigation::Run">
<polygon fill="none" stroke="black" points="314,-0.5 314,-19.5 405,-19.5 405,-0.5 314,-0.5"/>
<text text-anchor="middle" x="359.5" y="-7.5" font-family="Helvetica,sans-Serif" font-size="10.00">CNavigation::Run</text>
</a>
</g>
</g>
<!-- Node44&#45;&gt;Node45 -->
<g id="edge2" class="edge"><title>Node44&#45;&gt;Node45</title>
<path fill="none" stroke="midnightblue" d="M288.361,-10C296.857,-10 305.506,-10 313.697,-10"/>
<polygon fill="midnightblue" stroke="midnightblue" points="288.114,-6.5001 278.114,-10 288.114,-13.5001 288.114,-6.5001"/>
</g>
</g>
</svg>
