<?xml version="1.0" encoding="UTF-8" standalone="no"?>
<!DOCTYPE svg PUBLIC "-//W3C//DTD SVG 1.1//EN"
 "http://www.w3.org/Graphics/SVG/1.1/DTD/svg11.dtd">
<!-- Generated by graphviz version 2.38.0 (20140413.2041)
 -->
<!-- Title: CBuffAdas::Reset Pages: 1 -->
<svg width="446pt" height="66pt"
 viewBox="0.00 0.00 446.00 66.00" xmlns="http://www.w3.org/2000/svg" xmlns:xlink="http://www.w3.org/1999/xlink">
<g id="graph0" class="graph" transform="scale(1 1) rotate(0) translate(4 62)">
<title>CBuffAdas::Reset</title>
<!-- Node13 -->
<g id="node1" class="node"><title>Node13</title>
<g id="a_node1"><a xlink:title="reset buffer">
<polygon fill="#bfbfbf" stroke="black" points="344,-19.5 344,-38.5 438,-38.5 438,-19.5 344,-19.5"/>
<text text-anchor="middle" x="391" y="-26.5" font-family="Helvetica,sans-Serif" font-size="10.00">CBuffAdas::Reset</text>
</a>
</g>
</g>
<!-- Node14 -->
<g id="node2" class="node"><title>Node14</title>
<g id="a_node2"><a xlink:href="class_c_p_l_s_comms.html#ae7f8d87ea15de35a120d65a7a8bbbb76" target="_top" xlink:title="PLS communication initialization.">
<polygon fill="none" stroke="black" points="169.5,-38.5 169.5,-57.5 264.5,-57.5 264.5,-38.5 169.5,-38.5"/>
<text text-anchor="middle" x="217" y="-45.5" font-family="Helvetica,sans-Serif" font-size="10.00">CPLSComms::Init</text>
</a>
</g>
</g>
<!-- Node13&#45;&gt;Node14 -->
<g id="edge1" class="edge"><title>Node13&#45;&gt;Node14</title>
<path fill="none" stroke="midnightblue" d="M333.844,-35.2032C311.413,-37.6811 285.889,-40.5006 264.519,-42.8613"/>
<polygon fill="midnightblue" stroke="midnightblue" points="334.352,-38.6686 343.907,-34.0917 333.583,-31.7109 334.352,-38.6686"/>
</g>
<!-- Node16 -->
<g id="node4" class="node"><title>Node16</title>
<g id="a_node4"><a xlink:href="class_c_p_l_s_comms.html#ab69a49f5c4cd7b4b9f63fa16c7792920" target="_top" xlink:title="Request measurement from PLS.">
<polygon fill="none" stroke="black" points="126,-0.5 126,-19.5 308,-19.5 308,-0.5 126,-0.5"/>
<text text-anchor="middle" x="217" y="-7.5" font-family="Helvetica,sans-Serif" font-size="10.00">CPLSComms::RequestMeasurements</text>
</a>
</g>
</g>
<!-- Node13&#45;&gt;Node16 -->
<g id="edge3" class="edge"><title>Node13&#45;&gt;Node16</title>
<path fill="none" stroke="midnightblue" d="M333.803,-22.7922C324.265,-21.7385 314.168,-20.6233 304.071,-19.5078"/>
<polygon fill="midnightblue" stroke="midnightblue" points="333.583,-26.2891 343.907,-23.9083 334.352,-19.3314 333.583,-26.2891"/>
</g>
<!-- Node15 -->
<g id="node3" class="node"><title>Node15</title>
<g id="a_node3"><a xlink:href="_a_d_a_s___nav_u_8ino.html#a4fc01d736fe50cf5b977f755b675f11d" target="_top" xlink:title=" ">
<polygon fill="none" stroke="black" points="24.5,-38.5 24.5,-57.5 65.5,-57.5 65.5,-38.5 24.5,-38.5"/>
<text text-anchor="middle" x="45" y="-45.5" font-family="Helvetica,sans-Serif" font-size="10.00">setup</text>
</a>
</g>
</g>
<!-- Node14&#45;&gt;Node15 -->
<g id="edge2" class="edge"><title>Node14&#45;&gt;Node15</title>
<path fill="none" stroke="midnightblue" d="M158.868,-48C126.63,-48 88.3773,-48 65.7049,-48"/>
<polygon fill="midnightblue" stroke="midnightblue" points="159.097,-51.5001 169.097,-48 159.097,-44.5001 159.097,-51.5001"/>
</g>
<!-- Node17 -->
<g id="node5" class="node"><title>Node17</title>
<g id="a_node5"><a xlink:href="class_c_v_mapping.html#a8f064fcfd01953d7072efd5de23f89ef" target="_top" xlink:title="Run function of virtual mapping Application.">
<polygon fill="none" stroke="black" points="0,-0.5 0,-19.5 90,-19.5 90,-0.5 0,-0.5"/>
<text text-anchor="middle" x="45" y="-7.5" font-family="Helvetica,sans-Serif" font-size="10.00">CVMapping::Run</text>
</a>
</g>
</g>
<!-- Node16&#45;&gt;Node17 -->
<g id="edge4" class="edge"><title>Node16&#45;&gt;Node17</title>
<path fill="none" stroke="midnightblue" d="M115.28,-10C106.622,-10 98.1893,-10 90.3585,-10"/>
<polygon fill="midnightblue" stroke="midnightblue" points="115.525,-13.5001 125.525,-10 115.525,-6.5001 115.525,-13.5001"/>
</g>
</g>
</svg>
