<?xml version="1.0" encoding="UTF-8" standalone="no"?>
<!DOCTYPE svg PUBLIC "-//W3C//DTD SVG 1.1//EN"
 "http://www.w3.org/Graphics/SVG/1.1/DTD/svg11.dtd">
<!-- Generated by graphviz version 2.38.0 (20140413.2041)
 -->
<!-- Title: CSerial::Available Pages: 1 -->
<svg width="409pt" height="104pt"
 viewBox="0.00 0.00 409.00 104.00" xmlns="http://www.w3.org/2000/svg" xmlns:xlink="http://www.w3.org/1999/xlink">
<g id="graph0" class="graph" transform="scale(1 1) rotate(0) translate(4 100)">
<title>CSerial::Available</title>
<!-- Node5 -->
<g id="node1" class="node"><title>Node5</title>
<g id="a_node1"><a xlink:title="Function to check availability of received data.">
<polygon fill="#bfbfbf" stroke="black" points="309,-38.5 309,-57.5 401,-57.5 401,-38.5 309,-38.5"/>
<text text-anchor="middle" x="355" y="-45.5" font-family="Helvetica,sans-Serif" font-size="10.00">CSerial::Available</text>
</a>
</g>
</g>
<!-- Node6 -->
<g id="node2" class="node"><title>Node6</title>
<g id="a_node2"><a xlink:href="class_c_i_c_c_comms.html#a8b3fa81307b3b9ba0e72b4aee8279c56" target="_top" xlink:title="Run function of CICCComms which is periodically called by CNavigation.">
<polygon fill="none" stroke="black" points="152,-76.5 152,-95.5 248,-95.5 248,-76.5 152,-76.5"/>
<text text-anchor="middle" x="200" y="-83.5" font-family="Helvetica,sans-Serif" font-size="10.00">CICCComms::Run</text>
</a>
</g>
</g>
<!-- Node5&#45;&gt;Node6 -->
<g id="edge1" class="edge"><title>Node5&#45;&gt;Node6</title>
<path fill="none" stroke="midnightblue" d="M305.523,-60.04C284.148,-65.3488 259.387,-71.4988 239.331,-76.4799"/>
<polygon fill="midnightblue" stroke="midnightblue" points="306.53,-63.3963 315.392,-57.589 304.843,-56.6027 306.53,-63.3963"/>
</g>
<!-- Node8 -->
<g id="node4" class="node"><title>Node8</title>
<g id="a_node4"><a xlink:href="class_c_p_l_s_comms.html#a3124eaa4549706962c7024c7c97e82b0" target="_top" xlink:title="Get asynchronous data recieved from PLS.">
<polygon fill="none" stroke="black" points="127,-38.5 127,-57.5 273,-57.5 273,-38.5 127,-38.5"/>
<text text-anchor="middle" x="200" y="-45.5" font-family="Helvetica,sans-Serif" font-size="10.00">CPLSComms::GetAsyncData</text>
</a>
</g>
</g>
<!-- Node5&#45;&gt;Node8 -->
<g id="edge3" class="edge"><title>Node5&#45;&gt;Node8</title>
<path fill="none" stroke="midnightblue" d="M298.892,-48C290.492,-48 281.717,-48 273.02,-48"/>
<polygon fill="midnightblue" stroke="midnightblue" points="298.923,-51.5001 308.922,-48 298.922,-44.5001 298.923,-51.5001"/>
</g>
<!-- Node10 -->
<g id="node6" class="node"><title>Node10</title>
<g id="a_node6"><a xlink:href="class_c_p_l_s_comms.html#ae9d000eff184034954829d76162654a5" target="_top" xlink:title="check if any data recieved from PLS">
<polygon fill="none" stroke="black" points="130,-0.5 130,-19.5 270,-19.5 270,-0.5 130,-0.5"/>
<text text-anchor="middle" x="200" y="-7.5" font-family="Helvetica,sans-Serif" font-size="10.00">CPLSComms::DataAvailable</text>
</a>
</g>
</g>
<!-- Node5&#45;&gt;Node10 -->
<g id="edge5" class="edge"><title>Node5&#45;&gt;Node10</title>
<path fill="none" stroke="midnightblue" d="M305.523,-35.96C284.148,-30.6512 259.387,-24.5012 239.331,-19.5201"/>
<polygon fill="midnightblue" stroke="midnightblue" points="304.843,-39.3973 315.392,-38.411 306.53,-32.6037 304.843,-39.3973"/>
</g>
<!-- Node7 -->
<g id="node3" class="node"><title>Node7</title>
<g id="a_node3"><a xlink:href="class_c_navigation.html#a86acb1521aab400e542465c8eabed671" target="_top" xlink:title="Run function of CNavigation which is periodically called by CTaskCtrl.">
<polygon fill="none" stroke="black" points="0,-76.5 0,-95.5 91,-95.5 91,-76.5 0,-76.5"/>
<text text-anchor="middle" x="45.5" y="-83.5" font-family="Helvetica,sans-Serif" font-size="10.00">CNavigation::Run</text>
</a>
</g>
</g>
<!-- Node6&#45;&gt;Node7 -->
<g id="edge2" class="edge"><title>Node6&#45;&gt;Node7</title>
<path fill="none" stroke="midnightblue" d="M141.395,-86C124.717,-86 106.772,-86 91.0241,-86"/>
<polygon fill="midnightblue" stroke="midnightblue" points="141.584,-89.5001 151.584,-86 141.584,-82.5001 141.584,-89.5001"/>
</g>
<!-- Node9 -->
<g id="node5" class="node"><title>Node9</title>
<g id="a_node5"><a xlink:href="class_c_v_mapping.html#a8f064fcfd01953d7072efd5de23f89ef" target="_top" xlink:title="Run function of virtual mapping Application.">
<polygon fill="none" stroke="black" points="0.5,-19.5 0.5,-38.5 90.5,-38.5 90.5,-19.5 0.5,-19.5"/>
<text text-anchor="middle" x="45.5" y="-26.5" font-family="Helvetica,sans-Serif" font-size="10.00">CVMapping::Run</text>
</a>
</g>
</g>
<!-- Node8&#45;&gt;Node9 -->
<g id="edge4" class="edge"><title>Node8&#45;&gt;Node9</title>
<path fill="none" stroke="midnightblue" d="M116.66,-37.7412C107.725,-36.628 98.9018,-35.5287 90.6861,-34.5052"/>
<polygon fill="midnightblue" stroke="midnightblue" points="116.413,-41.2375 126.769,-39.0008 117.279,-34.2912 116.413,-41.2375"/>
</g>
<!-- Node10&#45;&gt;Node9 -->
<g id="edge6" class="edge"><title>Node10&#45;&gt;Node9</title>
<path fill="none" stroke="midnightblue" d="M119.93,-19.8513C109.968,-21.0926 100.069,-22.3258 90.9167,-23.4661"/>
<polygon fill="midnightblue" stroke="midnightblue" points="120.399,-23.3201 129.889,-18.6105 119.533,-16.3738 120.399,-23.3201"/>
</g>
</g>
</svg>
