<?xml version="1.0" encoding="UTF-8" standalone="no"?>
<!DOCTYPE svg PUBLIC "-//W3C//DTD SVG 1.1//EN"
 "http://www.w3.org/Graphics/SVG/1.1/DTD/svg11.dtd">
<!-- Generated by graphviz version 2.38.0 (20140413.2041)
 -->
<!-- Title: CPLSComms::GetAsyncData Pages: 1 -->
<svg width="471pt" height="180pt"
 viewBox="0.00 0.00 471.00 180.00" xmlns="http://www.w3.org/2000/svg" xmlns:xlink="http://www.w3.org/1999/xlink">
<g id="graph0" class="graph" transform="scale(1 1) rotate(0) translate(4 176)">
<title>CPLSComms::GetAsyncData</title>
<!-- Node8 -->
<g id="node1" class="node"><title>Node8</title>
<g id="a_node1"><a xlink:title="Get asynchronous data recieved from PLS.">
<polygon fill="#bfbfbf" stroke="black" points="0,-76.5 0,-95.5 146,-95.5 146,-76.5 0,-76.5"/>
<text text-anchor="middle" x="73" y="-83.5" font-family="Helvetica,sans-Serif" font-size="10.00">CPLSComms::GetAsyncData</text>
</a>
</g>
</g>
<!-- Node9 -->
<g id="node2" class="node"><title>Node9</title>
<g id="a_node2"><a xlink:href="class_c_serial.html#abb43734223d937a86e7616636ea16024" target="_top" xlink:title="Function to check availability of received data.">
<polygon fill="none" stroke="black" points="201.5,-152.5 201.5,-171.5 293.5,-171.5 293.5,-152.5 201.5,-152.5"/>
<text text-anchor="middle" x="247.5" y="-159.5" font-family="Helvetica,sans-Serif" font-size="10.00">CSerial::Available</text>
</a>
</g>
</g>
<!-- Node8&#45;&gt;Node9 -->
<g id="edge1" class="edge"><title>Node8&#45;&gt;Node9</title>
<path fill="none" stroke="midnightblue" d="M89.6247,-95.5227C110.213,-107.769 147.825,-129.11 182,-143 187.749,-145.336 193.891,-147.522 200.015,-149.518"/>
<polygon fill="midnightblue" stroke="midnightblue" points="198.977,-152.861 209.566,-152.494 201.06,-146.178 198.977,-152.861"/>
</g>
<!-- Node10 -->
<g id="node3" class="node"><title>Node10</title>
<g id="a_node3"><a xlink:href="class_c_serial.html#a4327d6041fe9a390612b214709027cbb" target="_top" xlink:title="Function to get length of data.">
<polygon fill="none" stroke="black" points="194.5,-114.5 194.5,-133.5 300.5,-133.5 300.5,-114.5 194.5,-114.5"/>
<text text-anchor="middle" x="247.5" y="-121.5" font-family="Helvetica,sans-Serif" font-size="10.00">CSerial::GetDataLen</text>
</a>
</g>
</g>
<!-- Node8&#45;&gt;Node10 -->
<g id="edge2" class="edge"><title>Node8&#45;&gt;Node10</title>
<path fill="none" stroke="midnightblue" d="M117.529,-95.589C140.6,-100.671 169.127,-106.955 193.481,-112.32"/>
<polygon fill="midnightblue" stroke="midnightblue" points="192.765,-115.747 203.284,-114.48 194.271,-108.911 192.765,-115.747"/>
</g>
<!-- Node11 -->
<g id="node4" class="node"><title>Node11</title>
<g id="a_node4"><a xlink:href="class_c_serial.html#abad86c07f530569b2ceeea75bda485ad" target="_top" xlink:title="Function to read data from buffer.">
<polygon fill="none" stroke="black" points="202.5,-76.5 202.5,-95.5 292.5,-95.5 292.5,-76.5 202.5,-76.5"/>
<text text-anchor="middle" x="247.5" y="-83.5" font-family="Helvetica,sans-Serif" font-size="10.00">CSerial::GetData</text>
</a>
</g>
</g>
<!-- Node8&#45;&gt;Node11 -->
<g id="edge3" class="edge"><title>Node8&#45;&gt;Node11</title>
<path fill="none" stroke="midnightblue" d="M146.156,-86C161.46,-86 177.373,-86 191.895,-86"/>
<polygon fill="midnightblue" stroke="midnightblue" points="192.196,-89.5001 202.196,-86 192.196,-82.5001 192.196,-89.5001"/>
</g>
<!-- Node12 -->
<g id="node5" class="node"><title>Node12</title>
<g id="a_node5"><a xlink:href="class_c_serial.html#a941e5cae2ca04518925a3b32f51110a6" target="_top" xlink:title="Function to release buffer.">
<polygon fill="none" stroke="black" points="349,-57.5 349,-76.5 463,-76.5 463,-57.5 349,-57.5"/>
<text text-anchor="middle" x="406" y="-64.5" font-family="Helvetica,sans-Serif" font-size="10.00">CSerial::ReleaseBuffer</text>
</a>
</g>
</g>
<!-- Node8&#45;&gt;Node12 -->
<g id="edge6" class="edge"><title>Node8&#45;&gt;Node12</title>
<path fill="none" stroke="midnightblue" d="M117.909,-76.4881C137.431,-72.7227 160.758,-68.8542 182,-67 234.599,-62.4085 294.442,-62.709 338.885,-63.9924"/>
<polygon fill="midnightblue" stroke="midnightblue" points="338.874,-67.4937 348.979,-64.3083 339.093,-60.4971 338.874,-67.4937"/>
</g>
<!-- Node13 -->
<g id="node6" class="node"><title>Node13</title>
<g id="a_node6"><a xlink:href="class_c_p_l_s_comms.html#a14754b4119b9a3d613579c2a80220cc0" target="_top" xlink:title="Search recieved data for message.">
<polygon fill="none" stroke="black" points="182,-0.5 182,-19.5 313,-19.5 313,-0.5 182,-0.5"/>
<text text-anchor="middle" x="247.5" y="-7.5" font-family="Helvetica,sans-Serif" font-size="10.00">CPLSComms::SearchMsg</text>
</a>
</g>
</g>
<!-- Node8&#45;&gt;Node13 -->
<g id="edge5" class="edge"><title>Node8&#45;&gt;Node13</title>
<path fill="none" stroke="midnightblue" d="M92.4897,-76.4509C113.807,-65.5937 150.024,-47.6125 182,-34 190.8,-30.2538 200.403,-26.5039 209.446,-23.1188"/>
<polygon fill="midnightblue" stroke="midnightblue" points="210.803,-26.349 218.975,-19.6063 208.382,-19.781 210.803,-26.349"/>
</g>
<!-- Node11&#45;&gt;Node12 -->
<g id="edge4" class="edge"><title>Node11&#45;&gt;Node12</title>
<path fill="none" stroke="midnightblue" d="M292.51,-80.6569C306.824,-78.9191 323.041,-76.9503 338.616,-75.0594"/>
<polygon fill="midnightblue" stroke="midnightblue" points="339.227,-78.511 348.732,-73.8312 338.383,-71.562 339.227,-78.511"/>
</g>
</g>
</svg>
