<?xml version="1.0" encoding="UTF-8" standalone="no"?>
<!DOCTYPE svg PUBLIC "-//W3C//DTD SVG 1.1//EN"
 "http://www.w3.org/Graphics/SVG/1.1/DTD/svg11.dtd">
<!-- Generated by graphviz version 2.38.0 (20140413.2041)
 -->
<!-- Title: CNavigation::Stop Pages: 1 -->
<svg width="262pt" height="66pt"
 viewBox="0.00 0.00 262.00 66.00" xmlns="http://www.w3.org/2000/svg" xmlns:xlink="http://www.w3.org/1999/xlink">
<g id="graph0" class="graph" transform="scale(1 1) rotate(0) translate(4 62)">
<title>CNavigation::Stop</title>
<!-- Node41 -->
<g id="node1" class="node"><title>Node41</title>
<polygon fill="#bfbfbf" stroke="black" points="0,-19.5 0,-38.5 94,-38.5 94,-19.5 0,-19.5"/>
<text text-anchor="middle" x="47" y="-26.5" font-family="Helvetica,sans-Serif" font-size="10.00">CNavigation::Stop</text>
</g>
<!-- Node42 -->
<g id="node2" class="node"><title>Node42</title>
<g id="a_node2"><a xlink:href="class_c_i_c_c_comms.html#ab925dd7ff82f30ccd9f770ab2281b3ab" target="_top" xlink:title="Function to append message which shall be sent. ">
<polygon fill="none" stroke="black" points="130,-38.5 130,-57.5 254,-57.5 254,-38.5 130,-38.5"/>
<text text-anchor="middle" x="192" y="-45.5" font-family="Helvetica,sans-Serif" font-size="10.00">CICCComms::addTxMsg</text>
</a>
</g>
</g>
<!-- Node41&#45;&gt;Node42 -->
<g id="edge1" class="edge"><title>Node41&#45;&gt;Node42</title>
<path fill="none" stroke="midnightblue" d="M94.0332,-35.1163C102.338,-36.2198 111.171,-37.3933 119.993,-38.5655"/>
<polygon fill="midnightblue" stroke="midnightblue" points="119.547,-42.0369 129.921,-39.8846 120.469,-35.0979 119.547,-42.0369"/>
</g>
<!-- Node43 -->
<g id="node3" class="node"><title>Node43</title>
<g id="a_node3"><a xlink:href="class_c_navigation.html#a06ce71124d487f1f9febf36a0e4b2a5d" target="_top" xlink:title="Function to stop if obstacle is detected. ">
<polygon fill="none" stroke="black" points="135.5,-0.5 135.5,-19.5 248.5,-19.5 248.5,-0.5 135.5,-0.5"/>
<text text-anchor="middle" x="192" y="-7.5" font-family="Helvetica,sans-Serif" font-size="10.00">CNavigation::stopDrive</text>
</a>
</g>
</g>
<!-- Node41&#45;&gt;Node43 -->
<g id="edge2" class="edge"><title>Node41&#45;&gt;Node43</title>
<path fill="none" stroke="midnightblue" d="M94.0332,-22.8837C103.995,-21.5601 114.715,-20.1358 125.267,-18.7338"/>
<polygon fill="midnightblue" stroke="midnightblue" points="125.85,-22.1872 135.301,-17.4005 124.927,-15.2482 125.85,-22.1872"/>
</g>
</g>
</svg>
