<?xml version="1.0" encoding="UTF-8" standalone="no"?>
<!DOCTYPE svg PUBLIC "-//W3C//DTD SVG 1.1//EN"
 "http://www.w3.org/Graphics/SVG/1.1/DTD/svg11.dtd">
<!-- Generated by graphviz version 2.38.0 (20140413.2041)
 -->
<!-- Title: ITask_IF::Run Pages: 1 -->
<svg width="275pt" height="28pt"
 viewBox="0.00 0.00 275.00 28.00" xmlns="http://www.w3.org/2000/svg" xmlns:xlink="http://www.w3.org/1999/xlink">
<g id="graph0" class="graph" transform="scale(1 1) rotate(0) translate(4 24)">
<title>ITask_IF::Run</title>
<!-- Node5 -->
<g id="node1" class="node"><title>Node5</title>
<polygon fill="#bfbfbf" stroke="black" points="0,-0.5 0,-19.5 77,-19.5 77,-0.5 0,-0.5"/>
<text text-anchor="middle" x="38.5" y="-7.5" font-family="Helvetica,sans-Serif" font-size="10.00">ITask_IF::Run</text>
</g>
<!-- Node6 -->
<g id="node2" class="node"><title>Node6</title>
<g id="a_node2"><a xlink:href="class_c_task_ctrl.html#ab36ffef43b3bd33303ed7d068b2e89cf" target="_top" xlink:title="run all task run function one by one ">
<polygon fill="none" stroke="black" points="113,-0.5 113,-19.5 196,-19.5 196,-0.5 113,-0.5"/>
<text text-anchor="middle" x="154.5" y="-7.5" font-family="Helvetica,sans-Serif" font-size="10.00">CTaskCtrl::Run</text>
</a>
</g>
</g>
<!-- Node5&#45;&gt;Node6 -->
<g id="edge1" class="edge"><title>Node5&#45;&gt;Node6</title>
<path fill="none" stroke="midnightblue" d="M87.2848,-10C95.7546,-10 104.503,-10 112.756,-10"/>
<polygon fill="midnightblue" stroke="midnightblue" points="87.1438,-6.5001 77.1438,-10 87.1438,-13.5001 87.1438,-6.5001"/>
</g>
<!-- Node7 -->
<g id="node3" class="node"><title>Node7</title>
<g id="a_node3"><a xlink:href="_a_d_a_s___nav_u_8ino.html#afe461d27b9c48d5921c00d521181f12f" target="_top" xlink:title="loop">
<polygon fill="none" stroke="black" points="232,-0.5 232,-19.5 267,-19.5 267,-0.5 232,-0.5"/>
<text text-anchor="middle" x="249.5" y="-7.5" font-family="Helvetica,sans-Serif" font-size="10.00">loop</text>
</a>
</g>
</g>
<!-- Node6&#45;&gt;Node7 -->
<g id="edge2" class="edge"><title>Node6&#45;&gt;Node7</title>
<path fill="none" stroke="midnightblue" d="M206.061,-10C215.3,-10 224.324,-10 231.658,-10"/>
<polygon fill="midnightblue" stroke="midnightblue" points="206.021,-6.5001 196.021,-10 206.021,-13.5001 206.021,-6.5001"/>
</g>
</g>
</svg>
