<?xml version="1.0" encoding="UTF-8" standalone="no"?>
<!DOCTYPE svg PUBLIC "-//W3C//DTD SVG 1.1//EN"
 "http://www.w3.org/Graphics/SVG/1.1/DTD/svg11.dtd">
<!-- Generated by graphviz version 2.38.0 (20140413.2041)
 -->
<!-- Title: Graphical Class Hierarchy Pages: 1 -->
<svg width="201pt" height="180pt"
 viewBox="0.00 0.00 201.00 180.00" xmlns="http://www.w3.org/2000/svg" xmlns:xlink="http://www.w3.org/1999/xlink">
<g id="graph0" class="graph" transform="scale(1 1) rotate(0) translate(4 176)">
<title>Graphical Class Hierarchy</title>
<!-- Node0 -->
<g id="node1" class="node"><title>Node0</title>
<g id="a_node1"><a xlink:href="class_i_task___i_f.html" target="_top" xlink:title="ITask_IF">
<polygon fill="none" stroke="black" points="0,-76.5 0,-95.5 53,-95.5 53,-76.5 0,-76.5"/>
<text text-anchor="middle" x="26.5" y="-83.5" font-family="Helvetica,sans-Serif" font-size="10.00">ITask_IF</text>
</a>
</g>
</g>
<!-- Node1 -->
<g id="node2" class="node"><title>Node1</title>
<g id="a_node2"><a xlink:href="class_c_environmental_data.html" target="_top" xlink:title="Environmental Data Class. ">
<polygon fill="none" stroke="black" points="89,-152.5 89,-171.5 193,-171.5 193,-152.5 89,-152.5"/>
<text text-anchor="middle" x="141" y="-159.5" font-family="Helvetica,sans-Serif" font-size="10.00">CEnvironmentalData</text>
</a>
</g>
</g>
<!-- Node0&#45;&gt;Node1 -->
<g id="edge1" class="edge"><title>Node0&#45;&gt;Node1</title>
<path fill="none" stroke="midnightblue" d="M42.5737,-103.201C54.2258,-115.638 71.3076,-132.103 89,-143 94.9534,-146.667 101.726,-149.801 108.348,-152.405"/>
<polygon fill="midnightblue" stroke="midnightblue" points="45.0705,-100.745 35.7488,-95.7094 39.8957,-105.459 45.0705,-100.745"/>
</g>
<!-- Node2 -->
<g id="node3" class="node"><title>Node2</title>
<g id="a_node3"><a xlink:href="class_c_navigation.html" target="_top" xlink:title="Navigation algorithm class. ">
<polygon fill="none" stroke="black" points="107,-114.5 107,-133.5 175,-133.5 175,-114.5 107,-114.5"/>
<text text-anchor="middle" x="141" y="-121.5" font-family="Helvetica,sans-Serif" font-size="10.00">CNavigation</text>
</a>
</g>
</g>
<!-- Node0&#45;&gt;Node2 -->
<g id="edge2" class="edge"><title>Node0&#45;&gt;Node2</title>
<path fill="none" stroke="midnightblue" d="M62.5054,-97.824C78.3636,-103.181 96.8627,-109.429 111.809,-114.478"/>
<polygon fill="midnightblue" stroke="midnightblue" points="63.6222,-94.5071 53.028,-94.6228 61.382,-101.139 63.6222,-94.5071"/>
</g>
<!-- Node3 -->
<g id="node4" class="node"><title>Node3</title>
<g id="a_node4"><a xlink:href="class_c_positioning.html" target="_top" xlink:title="CPositioning">
<polygon fill="none" stroke="black" points="105.5,-76.5 105.5,-95.5 176.5,-95.5 176.5,-76.5 105.5,-76.5"/>
<text text-anchor="middle" x="141" y="-83.5" font-family="Helvetica,sans-Serif" font-size="10.00">CPositioning</text>
</a>
</g>
</g>
<!-- Node0&#45;&gt;Node3 -->
<g id="edge3" class="edge"><title>Node0&#45;&gt;Node3</title>
<path fill="none" stroke="midnightblue" d="M63.3155,-86C76.7087,-86 91.8906,-86 105.192,-86"/>
<polygon fill="midnightblue" stroke="midnightblue" points="63.028,-82.5001 53.028,-86 63.028,-89.5001 63.028,-82.5001"/>
</g>
<!-- Node4 -->
<g id="node5" class="node"><title>Node4</title>
<g id="a_node5"><a xlink:href="class_c_user___i_f.html" target="_top" xlink:title="CUser_IF">
<polygon fill="none" stroke="black" points="112.5,-38.5 112.5,-57.5 169.5,-57.5 169.5,-38.5 112.5,-38.5"/>
<text text-anchor="middle" x="141" y="-45.5" font-family="Helvetica,sans-Serif" font-size="10.00">CUser_IF</text>
</a>
</g>
</g>
<!-- Node0&#45;&gt;Node4 -->
<g id="edge4" class="edge"><title>Node0&#45;&gt;Node4</title>
<path fill="none" stroke="midnightblue" d="M62.5785,-74.1513C78.5624,-68.7523 97.2167,-62.4512 112.209,-57.3872"/>
<polygon fill="midnightblue" stroke="midnightblue" points="61.382,-70.861 53.028,-77.3772 63.6222,-77.4929 61.382,-70.861"/>
</g>
<!-- Node5 -->
<g id="node6" class="node"><title>Node5</title>
<g id="a_node6"><a xlink:href="class_c_v_mapping.html" target="_top" xlink:title="CVMapping">
<polygon fill="none" stroke="black" points="107.5,-0.5 107.5,-19.5 174.5,-19.5 174.5,-0.5 107.5,-0.5"/>
<text text-anchor="middle" x="141" y="-7.5" font-family="Helvetica,sans-Serif" font-size="10.00">CVMapping</text>
</a>
</g>
</g>
<!-- Node0&#45;&gt;Node5 -->
<g id="edge5" class="edge"><title>Node0&#45;&gt;Node5</title>
<path fill="none" stroke="midnightblue" d="M42.5737,-68.7987C54.2258,-56.362 71.3076,-39.8968 89,-29 94.9534,-25.3333 101.726,-22.1988 108.348,-19.5952"/>
<polygon fill="midnightblue" stroke="midnightblue" points="39.8957,-66.5411 35.7488,-76.2906 45.0705,-71.2551 39.8957,-66.5411"/>
</g>
</g>
</svg>
